<svg width="37" height="37" viewBox="0 0 37 37" fill="none" xmlns="http://www.w3.org/2000/svg">
<path d="M18.5039 2.3125C9.56465 2.3125 2.31641 9.56074 2.31641 18.5C2.31641 25.1268 6.30547 30.8213 12.0072 33.3289C11.9639 32.2016 12 30.843 12.2891 29.6145C12.5998 28.2992 14.3703 20.7908 14.3703 20.7908C14.3703 20.7908 13.85 19.7574 13.85 18.2326C13.85 15.8334 15.2375 14.0412 16.9719 14.0412C18.4461 14.0412 19.1543 15.1469 19.1543 16.4693C19.1543 17.9508 18.2076 20.1621 17.7234 22.2145C17.3187 23.9344 18.5834 25.3291 20.2816 25.3291C23.3457 25.3291 25.4125 21.3906 25.4125 16.7223C25.4125 13.174 23.0205 10.5219 18.6773 10.5219C13.7705 10.5219 10.7064 14.1857 10.7064 18.276C10.7064 19.6852 11.1256 20.6824 11.776 21.4484C12.0723 21.8025 12.1156 21.9471 12.0072 22.3518C11.9277 22.648 11.7543 23.3635 11.6748 23.6525C11.5664 24.0645 11.234 24.209 10.8654 24.0572C8.60352 23.1322 7.54844 20.6607 7.54844 17.8713C7.54844 13.2752 11.4291 7.76133 19.1182 7.76133C25.2969 7.76133 29.3654 12.2346 29.3654 17.033C29.3654 23.3852 25.8316 28.1258 20.6285 28.1258C18.8797 28.1258 17.2393 27.1791 16.6756 26.1096C16.6756 26.1096 15.7361 29.8385 15.5338 30.5611C15.1941 31.8113 14.5221 33.0543 13.9078 34.0299C15.3978 34.4695 16.9432 34.6933 18.4967 34.6947C27.4359 34.6947 34.6842 27.4465 34.6842 18.5072C34.6842 9.56797 27.4432 2.3125 18.5039 2.3125Z" fill="#F2EFE9"/>
</svg>
