<svg width="104" height="101" viewBox="0 0 104 101" fill="none" xmlns="http://www.w3.org/2000/svg">
<path d="M71.7041 79.7971C71.9141 80.5322 71.599 81.0048 70.9689 81.3199C70.7063 81.4774 70.3913 81.5825 70.1287 81.6875C68.5009 82.1076 66.558 82.1601 66.768 84.7856C68.9735 85.2057 71.6516 84.2605 74.5397 85.4683C72.3342 86.0984 70.4438 85.2057 68.5009 85.8884C70.6013 86.7285 72.7543 86.0984 74.7497 86.8336C72.2292 87.7262 69.6561 87.4637 66.9256 87.6212C67.5032 88.5139 67.9233 89.3541 68.5009 90.1417C69.2886 91.2445 68.816 91.7171 67.7132 91.9796C67.2932 92.0846 66.8731 92.0321 66.453 92.0321C65.7703 91.9796 65.1927 92.0321 65.7703 92.9248C66.2954 93.7125 65.9279 94.1326 65.1927 94.5001C63.1448 95.4453 61.1494 95.6029 59.2065 94.0801C57.8937 93.0298 56.3709 92.3472 54.7956 91.7696C52.8527 90.9819 51.1198 89.9317 49.3344 88.829C51.0673 90.8244 52.7476 92.8723 54.533 94.8677C55.2682 95.7079 56.0033 96.6006 57.0535 97.1782C57.8412 97.6508 57.8412 98.3334 56.896 98.806C51.5399 101.589 46.9714 100.171 44.7135 95.0778C43.6107 92.6098 42.8231 90.0367 41.7204 87.4637C40.4076 88.3564 39.1473 89.144 38.2021 90.3518C37.8345 90.7719 37.467 90.8244 36.9944 90.8244C36.6793 90.8244 36.2592 90.4043 36.0492 90.9819C35.8916 91.3495 36.2592 91.6646 36.4693 91.9271C37.0994 92.8198 37.5195 93.8175 37.887 94.8677C38.1496 95.4978 37.9921 96.0755 37.3094 96.233C35.6291 96.6006 34.0013 96.5481 33.0561 94.4476C33.0035 94.2901 32.8985 94.1851 32.846 94.0275C31.8483 91.7696 31.2182 91.297 28.8552 90.8769C27.9625 90.7194 27.5424 90.2993 27.5949 89.3016C27.6474 88.7765 28.1725 87.7262 27.0698 87.8313C26.0196 87.8838 24.6018 86.8861 23.9717 88.5664C23.5516 89.7216 23.079 90.8769 22.7639 92.0846C22.4489 93.2399 23.2365 94.0801 23.9717 94.7627C25.2844 96.023 26.8073 97.0207 28.3301 97.9659C28.8552 98.2809 29.9054 98.5435 29.4853 99.4887C29.1702 100.329 28.3826 100.644 27.4374 100.644C22.1863 100.591 16.9877 100.539 11.7366 100.644C8.90105 100.696 6.06545 101.274 3.22986 100.591C2.75727 100.486 2.28468 100.486 2.07463 100.014C1.81208 99.3837 2.33718 99.0686 2.70475 98.701C4.96272 96.128 7.37824 93.66 9.47867 91.0344C10.5289 89.7217 11.054 88.0938 11.8942 86.4135C10.4239 86.361 9.37364 87.0961 8.27091 87.5162C7.32572 87.8313 6.43304 87.9363 5.54035 87.6737C4.54265 87.4112 3.64996 87.0961 4.64766 85.7833C5.22528 85.0482 5.06776 84.5231 3.96503 84.6806C3.38741 84.7331 2.75727 84.8906 2.54723 84.103C2.33718 83.1578 3.28239 83.4203 3.70247 83.2103C5.06776 82.5277 6.48555 82.6327 8.11339 82.8427C7.37823 83.6829 6.74809 84.4181 6.11796 85.2057C5.90792 85.4158 5.69788 85.7833 6.01295 86.0459C6.17048 86.2034 6.53806 86.2034 6.7481 86.1509C8.11338 85.6783 9.32113 85.0482 9.84624 83.5254C10.2138 82.4226 11.4741 82.8952 12.2617 82.3701C11.5266 81.635 10.3188 82.2651 9.32113 81.1624C11.264 81.6875 12.2617 80.3222 13.627 79.6921C13.0494 79.4295 12.4193 79.377 11.9992 78.6944C12.9444 78.2218 13.9946 78.6944 14.9398 78.3793C14.9923 77.6441 14.1521 77.5916 13.8896 77.119C13.9946 77.0665 14.1521 76.909 14.2571 76.909C15.9375 77.3816 16.4626 76.2264 17.0402 75.0186C19.7708 69.0324 22.4488 62.9936 25.547 57.0599C24.9169 57.1649 24.5493 57.585 24.1292 57.9001C23.8667 58.1101 23.4466 58.8453 23.5516 57.69C23.5516 57.48 23.3415 57.4275 22.9214 57.9001C22.2388 58.6352 21.6087 59.3704 20.9786 60.158C20.611 59.6329 21.3461 59.1603 21.0836 58.6352C20.611 58.6352 20.506 59.2128 20.1909 59.3704C19.8233 59.5279 19.8233 61.0507 19.0356 59.6854C18.8256 59.843 18.6156 59.948 18.4055 60.1055C17.7754 60.7882 17.1978 61.4708 16.3576 62.416C16.4626 60.9982 17.5653 60.3681 17.7229 58.8978C14.8873 61.3133 12.6293 64.1489 8.79602 64.6214C9.05858 64.3064 9.26862 63.9388 9.58368 63.6237C9.89875 63.3087 10.3188 63.0461 10.6339 62.626C8.11338 63.2562 6.17048 65.1466 3.64996 65.8817C3.64996 63.9388 5.69789 63.9913 6.59057 62.9411C6.06546 62.3635 5.33031 62.4685 4.70018 62.416C3.49243 62.311 3.59745 61.6283 4.12255 60.9457C5.01524 59.7904 6.223 59.1078 7.64079 58.7927C8.1659 58.6877 8.90105 58.7927 8.95356 58.0051C8.95356 57.2699 8.2184 57.3224 7.7458 57.2699C6.01294 57.0599 4.75268 55.9046 3.28238 55.1695C2.9148 55.012 2.54722 54.6969 2.96731 54.3818C4.54264 53.1216 6.06545 51.5462 8.53347 51.9663C7.48325 52.964 5.90793 52.859 4.75269 54.0143C6.43304 54.5394 7.7458 55.7996 9.58368 54.9594C9.79373 54.8544 10.1088 55.0645 10.3188 55.0645C11.5266 55.2745 12.6293 55.9571 14.0471 55.222C14.8348 54.8019 15.675 55.9046 16.7252 56.0622C16.6727 55.117 15.4124 54.9069 15.5174 53.9092C16.6727 54.2768 17.6178 55.0645 19.0356 55.222C18.6681 54.6969 18.4055 54.3818 18.143 54.0143C18.5105 53.6467 18.8781 54.3818 19.1407 53.9617C19.3507 53.6467 18.9831 53.3841 18.8256 53.1741C17.7229 51.7563 16.4626 50.5485 14.8348 49.7609C14.4672 49.6033 14.0471 49.3408 13.6795 49.6558C13.3645 49.9709 13.732 50.3385 13.8371 50.6535C14.0996 51.2837 14.7298 51.9663 14.0996 52.649C13.522 53.2266 12.7343 52.964 11.9992 52.859C11.4216 52.754 10.8965 52.5965 10.4764 52.1239C9.26863 50.8111 7.69329 50.3385 5.96044 50.1284C6.95814 49.2883 8.11338 49.2883 9.26862 49.6033C10.4239 49.9184 11.0015 51.2312 12.3143 51.4412C12.2617 50.7061 11.264 50.0234 11.9992 49.2883C12.6293 48.6581 13.5745 48.8157 14.3622 48.9207C15.9375 49.1307 17.2503 49.9709 18.4055 51.0736C19.6658 52.2289 20.5585 53.9092 22.6589 54.0668C21.7662 53.1216 20.9785 52.1764 20.0333 51.3887C18.1955 49.7609 16.9877 47.7129 16.2001 45.4025C15.78 44.1947 15.4124 43.7221 14.2571 44.7723C13.4695 45.455 12.5243 45.9276 11.4216 45.7175C10.3188 45.56 9.26862 45.2449 8.74351 44.1422C8.58597 43.8796 8.42845 43.407 8.11339 43.5646C6.11797 44.5098 3.91252 42.3043 1.86459 43.9847C1.28697 44.4573 0.236743 43.8796 0.0792099 42.987C-0.130834 41.7792 0.131734 40.5189 1.33948 40.0989C2.44221 39.6788 2.80978 39.3637 2.75727 38.0509C2.70476 35.2153 4.91022 34.1126 7.32572 35.6354C8.06087 36.108 8.1659 35.7405 8.37594 35.2154C8.95356 33.7976 9.58368 33.7976 10.8439 34.7428C12.1042 35.6879 12.3668 37.1583 13.0494 38.366C13.417 38.9961 13.522 39.8363 14.4147 40.4139C14.6247 38.576 14.8348 36.8957 15.0448 35.2679C15.0973 34.7953 14.6772 34.6902 14.3622 34.5852C13.417 34.1651 12.5768 33.535 11.7366 32.9574C10.7914 32.3273 10.3714 31.5921 10.7914 30.4369C11.7892 32.0122 13.1544 33.1149 14.9923 33.4825C15.6224 33.64 16.095 34.0076 16.6201 34.3752C19.1932 35.9505 22.974 34.5852 22.6589 31.5396C21.9763 31.5396 21.7137 32.2222 20.9786 32.4848C21.6087 30.9095 22.9215 29.6492 22.7639 27.6538C22.3438 28.2839 22.0813 28.6515 21.8187 29.0716C22.0813 27.4962 22.8689 25.9734 22.2913 24.1881C21.4512 25.3958 21.7137 27.0237 20.4534 27.9688C20.2434 27.1287 20.8735 26.6561 21.0311 26.0259C21.1886 25.4483 21.5037 24.8707 21.2411 24.2406C20.506 24.1881 20.611 25.1858 19.9283 25.1858C19.8233 24.3981 20.5585 23.8205 20.5585 23.0328C19.8233 23.0853 19.6133 23.873 18.9831 23.978C18.5105 23.6104 19.3507 23.2954 19.0356 22.9278C18.3005 22.8753 17.8804 23.5054 16.9877 23.768C17.4078 23.2954 17.6704 23.0328 17.9854 22.6652C17.3553 22.3502 16.8827 22.6652 16.5676 23.0328C14.9923 24.5031 13.1544 25.7109 11.9992 27.6538C11.5791 28.3364 11.3691 28.3364 11.159 27.6013C11.054 27.1812 10.844 27.0762 10.5289 27.1812C7.53577 28.0214 5.64537 26.0259 3.54493 24.5556C2.9148 24.1356 2.38969 23.1904 1.4445 24.1356C1.18194 24.3981 0.971898 24.0305 0.919387 23.768C0.866876 23.1904 0.656843 22.5077 1.33948 22.0876C2.70477 21.1949 4.28008 20.9849 5.64537 21.5625C8.48096 22.8228 11.3691 22.5077 14.3097 22.3502C14.7823 22.3502 14.7823 22.2452 15.4124 21.3525C15.675 20.9849 16.095 21.1949 16.4101 21.1949C16.7777 21.1949 17.1453 21.1949 17.4603 21.1949C17.7754 20.5123 16.8302 20.6698 16.9352 20.1447C17.1978 19.7771 17.7229 20.2497 18.0379 19.8297C17.6704 19.5671 17.3028 19.3046 16.8827 18.9895C17.3028 18.5169 17.7754 19.042 18.1955 18.8845C18.353 18.2018 17.4603 18.2018 17.4603 17.5717C17.6178 17.0466 18.248 17.6767 18.5105 17.2041C18.0904 16.8365 17.6178 16.4165 17.1978 15.9964C17.6704 15.5238 18.0379 16.2064 18.5105 15.7863C17.3553 13.4758 15.3074 11.6905 13.627 9.59004C14.9398 9.59004 15.6224 10.5352 16.8827 11.3229C16.2001 9.64255 16.2001 8.22475 16.095 6.80696C16.095 6.38687 15.7275 5.75674 16.3576 5.59921C16.9877 5.44168 17.1978 6.07181 17.3553 6.59692C17.8804 7.90969 17.4603 9.27497 17.8804 10.5877C18.3005 11.9005 18.7206 13.1608 19.9808 14.001C18.9831 11.743 18.0379 9.53753 18.7731 6.96449C19.1407 9.27497 19.2457 11.6905 20.9786 13.8434C20.9786 12.6357 21.0311 11.638 20.9786 10.6403C20.926 9.95761 21.2411 9.9051 21.7662 9.95761C22.5014 10.0626 22.0288 10.4302 21.9763 10.6403C21.7662 11.848 21.6612 13.0032 22.0813 14.1585C22.2913 14.6836 21.8712 16.2589 23.4466 15.1562C23.8666 14.8411 23.8666 15.8388 24.2867 16.1014C24.8644 15.9964 24.3918 15.2612 24.8644 15.0512C25.5995 15.1562 24.9169 17.6242 26.6497 16.0489C26.8073 16.8891 26.4397 17.6767 26.7548 18.5169C27.5424 17.8342 27.4899 16.679 28.2776 15.9439C28.3826 16.889 28.015 17.6767 27.91 18.5694C28.9602 17.7817 29.0652 16.469 29.9054 15.4187C30.0629 16.574 29.4853 17.4667 29.4853 18.832C30.273 17.4142 31.0081 16.4165 32.3734 16.3114C32.5309 16.3114 32.6885 15.9964 32.846 15.9964C34.0538 16.1539 34.1063 16.1539 34.2638 14.9461C34.6839 12.058 33.3711 10.0626 31.1131 8.48731C30.588 8.11973 30.0104 7.90969 29.6954 7.27956C32.846 7.43709 35.3665 11.4279 35.0515 15.9439C36.0492 15.9439 36.5743 15.3662 37.0994 14.6311C37.7295 13.6859 38.6222 12.3206 39.6199 12.7407C40.6701 13.1608 40.4076 14.8411 40.145 15.8388C39.3574 18.6219 37.9921 21.0374 35.0515 22.0351C34.4738 22.2452 33.8962 22.4552 33.1086 22.7703C34.5789 23.2954 35.3665 24.2406 35.7866 25.5008C36.1542 26.7086 36.2592 27.8638 35.8916 29.0716C35.209 28.9666 35.419 28.4414 35.419 28.1789C35.5241 25.7634 34.0538 24.3456 32.2159 23.2429C31.7433 22.9803 31.7433 22.9803 31.0606 23.4529C30.7456 23.663 30.5355 23.3479 30.2205 23.2429C29.2228 22.9803 28.3826 21.9826 26.9648 22.4027C27.4899 22.8228 27.91 23.1378 28.4351 23.5054C27.3324 23.7155 26.9123 22.7178 26.0196 22.6127C25.8096 23.2429 26.7547 23.2429 26.5972 23.768C25.9146 23.978 25.7045 23.1904 25.0744 23.0328C25.0744 23.873 25.8096 24.3456 26.0196 25.0807C25.4945 25.2908 25.3895 24.5556 24.9694 24.6082C24.6543 25.2383 25.5995 25.5533 25.3895 26.131C24.9694 26.236 24.8644 25.7109 24.3918 25.6584C24.6543 26.5511 25.2319 27.1812 24.7593 28.3889C24.1817 29.9643 27.2799 32.6423 29.0652 32.6948C31.5332 32.7998 33.5287 32.0122 35.209 29.9643C34.9465 31.9072 33.7912 33.1674 32.0584 33.5875C28.8027 34.3227 26.1246 33.2724 24.4443 30.5944C23.9717 30.7519 24.1292 31.172 24.0767 31.4871C24.0242 33.9026 22.3438 35.6354 19.9808 35.5829C19.0357 35.5829 18.8781 36.0555 18.8781 36.6857C18.9306 39.8363 19.0357 43.0395 21.2411 45.6125C21.3461 45.77 21.4512 45.9801 21.5562 46.1376C21.6612 46.2952 21.7662 46.4527 21.9763 46.7677C22.4489 45.6125 22.3963 44.5623 22.1338 43.407C23.0265 43.5646 22.5539 44.4048 23.184 44.6148C23.6041 43.6696 23.3415 42.6719 23.289 41.6742C23.2365 41.0966 22.7114 40.624 22.0813 40.624C21.2936 40.624 21.5562 41.3591 21.4511 41.7792C21.3986 42.3568 21.4512 42.9345 20.9786 43.4596C20.3484 42.0418 21.0311 40.8865 21.7137 39.7838C22.1338 39.1537 22.7639 39.3112 23.184 39.7313C23.7091 40.2039 24.9169 40.2564 24.4443 41.5167C24.0767 42.5144 23.7091 43.5646 24.2342 44.8774C25.1794 43.8796 26.0196 42.9344 26.9648 41.9893C27.4374 42.6194 26.7548 43.0395 27.0173 43.5646C28.3826 42.5144 29.2753 41.2016 29.8529 39.6788C30.0104 39.2062 30.168 38.5235 29.6954 38.1035C29.3278 37.7884 28.6451 38.7336 28.5926 38.2085C28.5401 37.6309 28.8027 37.3683 28.0675 37.5258C27.6474 37.6308 27.2273 37.6308 26.8598 37.7884C26.4397 37.9459 26.0721 38.2085 25.5995 38.5235C26.3872 37.2633 29.6428 36.3181 30.378 37.2108C31.1657 38.2085 31.2707 39.5212 30.8506 40.729C30.4305 41.9893 29.6954 43.0395 28.6451 43.9322C29.1177 44.5098 30.168 43.5646 30.168 44.5098C30.1154 45.5075 29.8529 46.6102 29.0127 47.3454C28.12 48.133 27.0173 48.7107 25.8621 49.0257C25.3895 49.1832 24.8643 49.2883 24.2342 49.4983C25.0744 50.8636 26.2296 51.7038 27.5949 52.3339C29.8004 47.4504 32.0583 42.6194 34.0538 37.6309C36.4693 31.7496 39.4099 26.0259 42.0354 20.2497C43.4007 17.2566 44.661 14.211 46.0788 11.2179C47.1815 8.90739 48.2317 6.5444 50.9098 5.44168C52.7476 4.70652 53.5353 4.91657 54.428 6.59692C56.5809 10.6928 58.4188 14.8936 60.4667 19.042C61.5695 21.3 62.9347 23.5054 64.1425 25.7109C65.6653 28.4414 67.1356 31.172 68.3434 34.0601C70.1287 38.366 72.1767 42.5669 74.2771 46.7677C74.6972 47.6604 75.2748 48.4481 75.7474 49.3408C76.1675 50.1284 76.7451 49.7084 77.2177 49.6033C79.6332 48.9732 81.8387 47.7655 83.8866 46.3477C86.8272 44.3522 90.0304 42.4619 92.0783 39.4687C95.1239 35.0578 98.2221 30.5419 97.697 24.6607C97.0668 30.5944 94.2837 35.4779 90.3979 39.7313C86.5646 43.9322 82.1537 47.3979 76.43 48.7632C78.1629 47.923 79.9483 47.0828 81.6286 46.0851C88.6651 41.8842 94.1262 36.4231 95.8066 28.0739C96.5417 24.5031 96.2266 20.9849 94.0737 17.7817C92.2358 14.9461 91.6057 14.2635 88.9801 13.5284C91.0806 14.9987 92.5509 16.5215 93.6011 18.4119C95.754 22.4027 95.5965 26.446 93.9687 30.5944C91.5532 36.8432 87.0898 41.0966 81.3136 44.1947C80.3158 44.7198 79.4757 45.7175 78.1629 45.77C78.1629 45.0349 78.9506 44.9299 79.1081 44.2997C77.8478 44.0372 76.6401 43.7746 75.2748 43.5121C75.6424 42.7244 76.0625 42.1993 76.7451 41.7267C76.7976 42.5669 79.2131 43.8796 79.8958 43.5121C80.2108 43.302 80.1583 42.987 80.1058 42.6719C80.0008 42.1468 79.7907 41.6742 79.7382 41.1491C79.6332 39.8363 78.6355 38.7861 79.2131 37.1583C79.8433 35.3204 77.7428 33.0099 75.9049 32.7998C76.1675 33.325 76.4826 33.8501 76.6401 34.3752C76.7976 34.9003 77.4803 35.2153 77.2702 35.898C76.6401 36.0555 76.5351 35.4779 76.2725 35.1628C75.4848 34.0601 74.3296 33.64 73.0168 33.6925C72.7018 33.6925 72.1767 33.745 72.1242 34.1126C72.0191 34.5327 72.4392 34.6902 72.7543 34.8478C73.6995 35.2679 74.6447 35.6879 75.5899 36.1605C75.7999 36.2656 76.115 36.3181 76.0625 36.8432C75.3798 37.1057 74.4871 37.0532 73.9095 37.6834C73.3844 38.3135 73.1744 38.6811 74.1196 38.9961C75.2223 39.3112 76.325 39.6788 77.3752 39.9938C77.9003 40.1514 78.3729 40.3089 78.478 40.939C77.5853 41.7267 76.6926 41.1491 75.8524 40.8865C74.9072 40.624 73.962 40.3614 73.0168 40.0464C71.5465 39.5212 71.4415 39.1537 72.4917 38.0509C72.8593 37.6308 73.3319 37.3158 73.8045 36.8957C73.0168 36.0555 72.1241 35.8455 71.2315 35.5304C70.8639 35.3729 70.2863 35.4254 70.2338 34.9528C70.1287 34.4277 70.6538 34.1651 71.0214 33.9026C71.5465 33.535 72.1242 33.3775 72.7543 33.1674C73.3319 32.9574 74.5396 33.43 74.1196 31.9597C74.067 31.6971 74.7497 31.4871 75.1698 31.4346C77.5328 30.9095 79.3181 31.9072 80.7884 33.5875C81.4186 34.3227 81.7862 34.9528 82.4688 33.6925C82.7314 33.1674 83.309 33.0624 83.8341 33.2199C84.5167 33.43 84.9893 33.9026 85.0943 34.6377C85.3569 36.5281 85.4619 38.366 84.2542 40.0464C83.9391 40.4664 83.6766 40.8865 83.7816 41.4641C87.2998 39.4162 87.6674 36.2131 87.2473 32.1697C87.0372 29.9643 86.092 27.9688 85.1994 25.9734C84.9368 25.3433 84.4642 24.5031 85.1468 23.9255C85.7245 23.4529 86.4596 23.978 87.0372 24.2931C88.6651 25.2383 89.7153 26.5511 90.1879 28.494C90.7655 31.0145 90.5555 33.43 90.0304 35.898C92.7084 32.0647 94.8614 28.0739 94.0737 23.1378C93.6536 20.4073 93.0235 17.8342 90.8705 15.8913C90.2929 15.3662 89.7153 14.8411 88.9801 14.5786C88.035 14.211 86.9322 14.6311 86.4071 15.2087C85.8295 15.7863 86.9847 16.1539 87.2998 16.6265C87.5623 17.0466 88.0349 17.3616 88.2975 17.7817C88.7701 18.5169 88.9802 19.4621 88.5076 20.1447C87.9299 20.9849 87.1948 20.0922 86.5646 19.9347C85.8295 19.7246 85.2519 19.0945 84.4642 18.9895C83.8866 24.5556 81.3135 28.0739 77.0077 29.0191C71.7566 30.1743 67.8708 28.7565 65.5603 25.2383C63.6699 22.4552 63.88 17.2041 65.9279 14.7361C65.4553 16.469 65.1402 17.9393 65.1402 19.5146C65.0877 21.7201 65.9279 23.5579 67.2406 25.2383C68.0808 26.2885 69.2886 26.6561 70.5488 26.9711C71.0214 27.0762 71.4415 27.6013 71.8616 27.9163C72.3342 27.6013 71.599 27.2337 72.1242 26.8661C72.8068 27.8638 73.8045 28.1789 75.1698 27.6013C75.2223 27.5488 74.6972 27.1812 75.0122 26.8136C75.7474 26.9186 76.1675 27.6538 76.9026 27.9163C77.0602 27.3387 76.2725 27.1287 76.4825 26.5511C77.1652 26.341 77.5328 27.2862 78.3729 27.1812C77.6903 26.341 77.1127 25.6059 76.4825 24.9232C77.3752 25.2908 78.0579 26.131 79.1606 26.341C78.9506 24.9757 77.5328 24.7132 77.0602 23.4004C78.0579 24.0305 78.8981 24.5556 80.0008 25.2383C79.1606 23.768 77.8478 23.0853 77.2702 21.7726C78.1629 22.4027 79.0556 23.0328 80.1058 23.768C80.0533 22.4552 78.8455 22.2977 78.688 21.2475C79.7907 21.7726 80.5259 22.5602 81.4186 23.2954C81.1035 21.9826 80.841 21.3525 80.3159 20.8799C79.6857 20.3023 78.9506 19.8822 78.583 18.8845C79.4232 19.4621 80.2633 19.9872 81.3661 20.7749C80.7884 19.4621 80.0008 18.7794 79.1081 18.0968C79.7907 17.8342 80.1583 18.4119 80.7884 18.4119C80.1058 17.2566 78.8981 16.8365 78.0054 15.8913C79.2131 15.7338 80.0533 16.5215 81.261 16.8365C80.3158 15.3137 78.5305 15.4187 77.4278 14.2635C77.9004 14.1585 78.2679 14.106 78.7405 14.0535C77.6378 13.2658 76.3775 13.2133 75.2223 12.8457C75.1173 12.3206 75.7474 12.5306 75.8524 12.2156C72.9643 10.9028 68.816 11.638 66.4005 13.9484C67.1356 12.1106 67.4507 11.953 73.2269 9.95761C71.9141 8.48731 70.3388 7.54211 68.6584 6.75445C68.0283 6.43938 67.3457 6.17683 66.663 5.86176C66.4005 5.75674 66.1904 5.59921 66.2954 5.28414C66.5055 4.75903 66.768 5.12661 67.0306 5.28414C69.131 6.22934 71.179 7.22705 72.8593 8.80237C73.2794 9.22246 73.752 9.64255 74.5922 9.69506C73.962 8.64484 73.4369 7.75215 72.9118 6.85947C73.3844 6.43938 73.6995 7.22705 74.1196 6.91198C73.4894 5.5467 72.1767 4.91657 70.7063 4.02388C71.7566 3.70882 72.3867 3.39375 73.0168 3.02618C74.9597 1.87094 76.0625 2.29102 77.4803 4.44397C78.1104 5.38917 78.4255 5.59921 79.1081 4.49648C79.6857 3.65631 80.3159 2.50107 81.6811 3.18371C82.7314 3.70882 82.9939 5.17912 82.4163 6.59692C82.2588 6.91198 81.9962 7.33207 82.3113 7.59462C82.6788 7.90969 82.9414 7.4896 83.2565 7.33207C83.8341 7.017 84.5167 6.49189 84.7793 7.64713C84.8843 8.01471 85.2519 8.01471 85.5144 8.17224C87.8774 9.64255 90.9231 9.85259 92.7084 12.4781C93.1285 11.4804 92.7609 10.9028 92.6559 10.3252C92.3408 8.59233 92.4459 6.96449 93.7061 5.65172C94.7038 4.65401 94.4938 4.12891 93.2335 3.76133C92.7084 3.6038 92.1833 3.34124 91.4482 3.02618C92.7084 1.87094 93.9162 0.663185 95.5965 0.453141C97.3819 0.190587 99.1147 0.610676 100.743 1.39834C102.265 2.13349 103.001 3.39375 102.896 5.17912C102.738 7.43709 101.845 9.4325 100.848 11.3754C99.0097 14.8411 98.2746 18.4119 99.0097 22.3502C100.165 28.5465 97.6444 34.0076 93.3911 38.4185C94.0212 38.5235 94.3888 38.156 94.8089 37.9459C95.8591 37.3683 97.0668 37.3158 97.9595 37.7359C99.3773 38.4185 100.69 38.2085 102.055 38.0509C102.528 37.9984 103.158 37.5783 103.473 38.156C103.788 38.6286 103.106 39.0486 102.948 39.5212C102.58 40.519 101.373 40.519 100.9 41.3066C100.06 42.7769 98.6421 43.2495 97.2769 43.9322C95.2289 44.9299 92.8134 44.6148 91.2381 42.9345C90.6605 42.3043 90.3454 42.8294 89.9253 43.092C87.6674 44.5623 85.882 46.7152 83.309 47.7129C82.2062 48.133 81.156 48.6581 79.8433 49.2358C80.7885 49.8134 81.6286 49.9709 82.4688 49.9184C84.2542 49.8659 85.777 50.391 87.0898 51.5462C87.1423 51.5987 87.1948 51.6513 87.1948 51.6513C89.4002 51.4937 90.713 53.4366 92.4459 54.2768C93.8637 54.9594 95.2289 56.1147 96.8043 56.7448C97.907 57.2174 99.2198 57.0599 100.06 58.2151C99.8499 58.9503 99.1148 58.2151 98.7472 58.6877C99.3773 59.7379 99.6399 60.9457 100.585 61.9959C99.9024 62.311 99.2723 62.8361 98.7997 61.8384C98.4846 61.2082 98.3796 60.4731 98.2221 59.7379C97.5394 59.948 98.117 60.7356 97.4344 60.7882C96.9093 59.5804 96.8043 57.9526 95.334 57.2699C95.0189 57.69 95.5965 58.2676 94.8614 58.5827C94.0212 57.795 93.6011 56.6398 92.6559 55.9046C92.2358 56.5348 92.971 57.0074 92.6559 57.8475C91.6582 56.3772 91.0281 54.7494 89.1902 54.0668C89.3477 54.5919 89.5053 55.0645 89.7153 55.7996C88.7701 54.9069 87.8774 54.4868 87.7199 53.2266C87.5624 52.1764 84.8318 50.9686 83.0989 51.0211C83.8341 52.3864 85.987 52.2289 86.2496 54.3818C84.9368 53.4891 83.8866 52.4389 82.3638 53.0691C82.5738 53.4891 82.8364 54.0142 83.2565 54.7494C81.9437 54.0668 81.4711 52.7015 80.2633 52.1764C79.7382 53.0691 80.7884 53.3316 80.9985 54.0143C79.5807 53.5942 79.3707 51.9138 78.0054 51.5987C77.7428 52.4914 78.9506 52.8065 78.793 53.7517C78.2154 53.2266 77.6903 52.754 77.1652 52.3339C77.0602 52.3864 77.0077 52.4389 76.9026 52.4914C77.7953 54.1718 78.6355 55.8521 79.5807 57.48C80.0533 58.3201 80.2633 57.1649 80.8935 57.3749C79.4757 60.158 81.7336 62.416 82.3113 64.9365C82.7313 66.9319 84.2017 68.8748 85.2519 70.8702C86.5121 73.2857 87.6674 75.7012 88.8226 78.1167C89.2427 78.9569 90.0304 79.272 90.818 79.3245C91.7107 79.4295 90.6605 78.6419 91.2381 78.3793C91.6057 78.6944 92.0258 79.0094 92.4459 79.377C92.8134 78.8519 92.2358 78.4318 92.3934 77.9592C93.3386 78.1167 93.6536 79.0619 94.3362 79.5871C94.5988 78.8519 93.7586 78.3793 93.9687 77.4341C94.6513 78.1693 95.2289 78.8519 95.8591 79.5345C96.1216 78.6419 95.1764 78.2218 95.2289 77.4866C96.0166 77.2766 96.0166 78.4318 96.6992 78.3268C96.9093 77.4866 96.0691 76.9615 96.0691 76.0163C97.0143 76.4364 97.3294 77.3816 98.117 78.0117C98.3271 77.0665 97.4869 76.4889 97.5919 75.5437C98.0645 75.8588 98.5371 76.1738 99.0097 76.4889C99.3773 75.3862 98.0645 75.0711 98.012 74.0734C98.7472 74.336 99.2198 74.651 100.112 74.2834C101.163 73.8634 101.53 75.2812 101.583 76.1213C101.793 78.1693 100.743 79.8496 99.1673 80.8473C95.9116 82.8427 93.4436 83.5254 90.0304 80.4797C93.1285 87.1486 95.9116 94.0275 102.213 98.8585C100.165 99.6987 98.3271 99.3837 96.5417 99.3837C89.8728 99.4362 83.2039 99.8037 76.5351 100.276C75.1698 100.381 73.857 100.276 72.4917 100.224C72.1242 100.224 71.6515 100.276 71.5465 99.8562C71.389 99.3837 71.7041 99.1211 72.1242 98.9111C73.962 98.0709 75.3273 96.6006 77.1127 95.7079C77.9529 95.2878 78.2154 94.6052 77.8478 93.765C76.115 88.934 74.2771 84.1555 71.7041 79.7971C71.494 78.4318 70.7064 77.2766 70.1287 75.8063C69.5511 76.804 68.5009 77.119 68.2383 78.1167C68.816 78.3793 69.4461 78.0642 70.0237 78.4318C69.131 79.0094 68.1333 79.377 67.1881 79.1144C65.6653 78.6419 64.7201 80.6898 63.1973 79.9021C63.1973 79.9021 63.0923 80.0071 63.0398 80.1122C62.6722 80.8998 62.6722 80.8998 62.0946 80.6898C61.3594 80.4797 60.6768 80.0596 59.7841 80.1647C60.0992 80.8473 60.8868 80.8473 61.0444 81.6875C59.8891 81.4249 58.9439 80.8473 57.7887 80.7948C57.8937 81.4249 58.7339 81.5299 58.7864 82.2651C57.7362 82.2651 57.001 81.2674 55.9508 81.2149C56.0033 81.845 56.6334 82.1076 56.4234 82.7377C55.2682 82.6852 54.743 81.4249 53.6403 81.1624C53.4828 82.0551 54.5855 82.4226 54.323 83.3678C53.5353 82.8952 52.8527 82.4751 52.065 82.0025C52.0125 82.6852 52.8527 82.9477 52.4851 83.3678C52.0125 83.8404 51.6449 83.2103 51.3824 82.8952C50.4372 81.8975 50.1746 82.7902 49.597 83.3678C54.5855 84.7331 59.469 85.8884 64.6151 84.5231C64.0375 84.103 63.985 83.8404 64.2475 83.3678C64.3 83.2628 64.4051 83.2103 64.3525 83.0003C63.985 82.0551 64.1425 81.53 65.1927 81.53C67.5557 81.53 69.7087 81.0048 71.7041 79.7971ZM33.3711 55.0645C33.6337 54.4343 33.8437 53.8042 33.1611 53.2791C32.3209 52.5965 31.4807 51.9138 30.6406 51.2312C30.3255 51.0211 29.9054 50.7061 29.5378 51.0736C29.1177 51.4937 29.5903 51.8613 29.8004 52.1239C30.9031 53.1741 31.9008 54.3293 33.2661 55.1695C34.2638 56.7973 35.9967 57.795 37.1519 59.3178C37.467 59.7379 38.0971 59.6329 38.4122 59.3704C38.7797 59.0553 38.3071 58.7402 38.0446 58.4777C37.3094 57.6375 36.4693 56.8498 35.7341 55.9572C35.1565 55.1695 34.3688 54.8544 33.3711 55.0645ZM80.6309 72.7081C80.3159 73.6008 79.7382 73.3908 79.0556 73.1282C75.8524 71.973 72.6493 70.8702 69.2886 69.715C69.3936 70.7127 69.7086 71.1853 70.4438 71.3954C73.647 72.288 76.5351 73.8634 79.6857 74.8611C80.2108 75.0186 80.8935 75.3862 81.261 74.9661C81.6286 74.546 80.9985 74.0209 80.841 73.6008C80.7884 73.3383 80.6834 73.0232 80.6309 72.7081C80.2108 72.2355 80.2108 71.4479 79.4232 71.1853C77.2702 70.3976 75.1698 69.5575 73.0168 68.7698C71.284 68.1397 69.5511 67.5621 67.7132 66.9319C68.0283 68.0872 68.6584 68.6123 69.5511 68.9273C71.5465 69.6625 73.4894 70.5552 75.4848 71.2378C77.1652 71.8154 78.7405 72.8657 80.6309 72.7081ZM90.1354 92.2422C89.9253 90.9819 89.4527 90.3518 87.9824 90.1417C84.5692 89.6691 81.2085 88.934 77.7428 88.3039C77.7953 89.3016 78.2154 89.8267 79.1081 90.0367C82.7313 90.7719 86.4071 91.5595 90.0304 92.3472C88.7701 92.9773 87.6149 92.3997 86.4071 92.1897C83.9391 91.7696 81.5236 91.2445 79.0031 91.0344C79.1081 92.1372 79.6857 92.4522 80.5259 92.7148C82.3638 93.2399 84.2542 93.5024 86.1446 93.87C88.14 94.2901 90.1354 94.5001 92.4984 94.8677C91.6057 93.765 91.0281 92.8723 90.1354 92.2422ZM47.3915 81.2674C47.6016 81.0574 47.6541 80.9523 47.7066 80.8998C47.8116 80.6373 47.9166 80.4272 47.9691 80.1647C48.7568 77.4341 50.1221 75.0186 52.2225 73.0232C54.2705 71.0803 56.0558 71.5004 56.9485 74.2309C57.001 74.336 57.106 74.441 57.1586 74.546C58.1037 74.0209 58.6814 72.8657 59.7841 72.9182C60.9918 72.9182 60.9393 74.4935 61.8845 75.0711C62.4096 73.7583 63.4073 73.2857 64.7201 73.0757C66.558 72.8131 67.6082 73.8634 68.7109 74.9661C68.9735 75.2286 69.2361 75.5437 69.6036 75.3337C69.9187 75.1761 69.7087 74.8611 69.6036 74.651C67.8183 70.8702 66.0854 67.142 64.2475 63.4137C63.8274 62.521 62.9347 62.8886 62.3046 63.0461C61.5695 63.2037 62.1471 63.8338 62.2521 64.2014C62.8822 66.4068 61.727 68.2447 59.364 68.8748C59.3115 66.9319 58.2613 65.5141 56.8435 64.3064C55.3207 62.9936 53.4828 63.0986 52.2225 64.7265C49.9646 67.5621 48.7043 70.8177 47.8116 74.2309C47.1815 76.4889 46.8664 78.7994 47.3915 81.2674ZM60.8868 51.4937C61.0969 52.9115 61.9895 53.2791 62.8297 53.6992C65.9804 55.222 69.1835 56.7973 72.3342 58.3726C73.0168 58.7402 73.857 59.0028 74.1721 60.263C70.0762 58.2676 66.1379 56.7448 62.4096 54.6969C61.2544 54.0668 60.9918 54.0142 59.6791 54.3293C64.5626 57.48 69.9187 59.948 75.1173 62.6785C69.5511 60.2105 63.7224 58.2151 58.4713 54.9594C57.6311 54.4343 56.7385 53.9617 55.3207 54.3818C56.3184 55.012 57.1585 55.432 57.8937 56.0097C60.0466 57.8475 63.4599 57.585 65.1927 60.2105C65.2977 60.3681 65.6653 60.3681 65.9279 60.4731C68.921 61.7333 71.9666 62.9936 74.9597 64.3064C75.4848 64.5164 76.22 64.6214 76.0625 65.6717C72.5442 64.2539 69.0785 62.8886 65.5078 61.4183C65.5078 62.2585 65.6653 62.6785 66.348 62.9411C69.026 63.9913 71.6516 65.0415 74.2246 66.2493C75.3273 66.7744 76.6926 66.9844 77.5853 68.3497C73.752 67.142 70.3913 65.1991 66.558 64.4114C70.3913 67.2995 75.0122 68.4022 79.2131 70.5027C77.2702 66.0392 75.2748 61.7334 73.2269 57.4275C73.1219 57.1649 72.9118 57.0599 72.6493 57.0074C71.2315 56.5348 69.9187 55.7996 68.6059 55.0645C66.2954 53.8042 63.7749 52.5965 60.8868 51.4937ZM45.3436 48.133C44.9235 47.2929 44.8185 46.6102 44.7135 45.9276C44.3984 44.2472 44.871 42.6194 46.1838 41.7792C47.444 40.9915 48.0742 40.0989 48.3367 38.7336C48.4418 38.156 48.7043 37.3158 49.597 37.4208C50.3847 37.5258 50.6472 38.2085 50.8047 38.8911C51.0673 40.4139 51.855 41.5167 52.9577 42.5669C54.1129 43.5646 55.4257 44.6148 55.3732 46.3477C55.3732 47.1353 55.5832 47.3454 56.2134 47.7129C58.0512 48.7107 58.2088 50.7586 56.686 52.2289C56.4234 52.4389 56.0558 52.649 56.2134 53.1216C56.896 53.1216 57.5261 53.1216 58.2088 53.1216C60.1517 53.0165 60.2042 53.0165 59.364 51.2837C56.6334 45.665 54.428 39.8888 51.8549 34.1651C51.2773 32.8524 50.6472 31.4871 49.9121 30.0168C49.6495 30.4369 49.492 30.5944 49.3869 30.7519C47.5491 35.2154 45.6587 39.6788 43.8208 44.0897C42.6655 46.8728 41.5103 49.6558 40.4076 52.4389C40.25 52.859 39.6199 53.7517 40.6176 53.6467C42.403 53.4366 44.1884 53.4366 46.1838 53.3316C44.9235 51.5462 43.9783 49.8659 43.2432 48.028C44.0833 47.7655 44.6084 48.0805 45.3436 48.133ZM49.6495 52.2814C49.9121 51.2837 50.1221 50.6536 50.2796 50.0234C51.0148 50.286 50.9098 51.1262 51.4349 51.4937C52.1175 50.9161 51.6974 50.1284 51.8024 49.4458C52.17 49.2358 52.275 49.8134 52.5901 49.7084C54.5855 49.0782 55.4257 46.2951 54.0079 44.7198C52.3801 42.8819 50.5947 41.0966 49.9121 38.6286C49.9121 38.576 49.7545 38.576 49.5445 38.5235C49.0719 40.3089 48.6518 42.0943 46.5513 42.8819C45.8687 43.1445 45.5011 44.1422 45.6062 45.2449C45.8162 47.3979 47.8116 48.6056 47.9691 51.0211C48.4417 50.0759 48.2842 49.3933 48.7568 48.9207C49.702 49.7084 49.702 50.8111 49.6495 52.2814ZM44.1884 79.7446C43.4007 73.7583 46.0262 68.7173 48.4943 63.6237C44.766 67.0369 43.4532 71.7629 41.8254 76.4364C41.6678 72.4456 40.3551 68.9798 37.887 65.9867C38.8848 68.6123 40.4076 71.0278 40.7226 73.9684C40.04 73.7583 40.0925 73.2857 39.9875 72.9182C38.9898 70.1351 37.782 67.457 35.7866 65.1466C35.4715 64.779 35.104 64.1489 34.5264 64.6214C34.1063 64.989 34.5789 65.4616 34.8414 65.8292C37.2044 69.505 38.9898 73.4958 40.25 77.6967C40.6701 79.1145 41.2478 80.5322 41.7729 81.95C41.9304 82.3176 42.1929 82.7377 42.7181 82.5802C43.0856 82.4751 42.9806 82.0551 42.9806 81.7925C42.9806 81.4774 42.8756 81.1624 42.8756 80.8473C42.8231 78.5893 42.613 76.2789 43.8208 73.9159C43.8208 75.9638 43.2432 77.9067 44.1884 79.7446ZM59.154 27.6538C58.8389 25.0282 56.2134 24.8182 55.0581 23.0853C56.2134 23.2954 56.8435 24.2931 57.8937 24.3981C57.1585 23.7155 57.4211 22.5077 56.5809 21.9301C53.2202 19.8297 49.807 17.7292 46.3938 15.6288C46.0262 15.4187 45.6587 14.8411 45.2386 15.5238C44.871 16.1014 45.1336 16.5215 45.6062 16.8365C46.2888 17.3091 47.024 17.7292 47.7066 18.1493C49.2294 19.147 50.9098 19.8822 52.17 21.3C51.7499 21.2475 51.3823 21.1424 51.0148 20.9324C49.1769 19.8297 47.3915 18.6744 45.5536 17.5717C45.1861 17.3616 44.7135 16.679 44.2409 17.3617C43.8208 17.9918 44.2934 18.4119 44.8185 18.7794C45.7112 19.3571 46.6564 19.9347 47.6016 20.5123C51.4349 22.8753 55.2156 25.2383 59.154 27.6538ZM53.5353 87.5687C53.7979 88.7765 55.1106 88.6189 55.6357 89.5641C52.7476 89.5641 51.3298 87.2011 49.2294 85.8884C49.2819 86.2034 49.2819 86.3084 49.3344 86.361C53.3253 90.5093 58.4713 92.3997 63.7749 94.1326C64.4576 94.3426 64.6151 93.9225 64.2475 93.3449C63.3023 92.0321 63.0398 90.9819 65.1402 90.6143C65.6128 90.5093 65.7178 90.1417 65.4553 89.7742C64.7726 88.7765 63.985 87.8313 62.7247 87.0436C62.8822 88.4089 64.4576 88.7239 64.1425 90.0367C62.7772 89.5116 61.937 88.1463 60.2567 87.8313C60.8868 88.6714 61.3594 89.3541 61.8845 90.0367C59.5215 88.934 57.6837 86.9911 54.638 86.6235C55.6883 87.4637 56.4234 88.0938 57.3686 88.8815C55.7933 88.934 54.9531 87.7262 53.5353 87.5687ZM80.0533 83.7354C78.6355 83.998 77.6378 83.5254 76.5876 83.3678C76.1675 83.3153 75.5374 82.8952 75.3273 83.4729C75.1173 84.0505 75.5899 84.5756 76.22 84.7856C77.2702 85.1007 78.3204 85.3632 79.3706 85.5733C82.1537 86.2034 84.8843 86.781 87.6674 87.3587C86.3021 84.1555 82.6263 85.5733 80.3684 83.6304C82.5738 83.7354 84.4117 84.3655 86.3546 84.7856C86.3021 83.1578 85.3569 83.0528 84.1491 82.7902C80.7884 82.1076 77.4278 81.2149 74.0145 80.3747C74.1196 81.8975 75.0648 82.3176 76.22 82.4752C77.3752 82.7377 78.6355 83.0003 80.0533 83.7354ZM71.5465 74.9136C71.494 75.5962 71.7041 76.1738 72.0716 76.2789C75.9574 77.6441 79.8958 78.9044 84.2017 80.3747C83.3615 78.6944 82.7839 77.4866 82.1537 76.2789C81.9962 76.0163 81.8387 75.7012 81.4711 75.8588C80.7884 76.1213 80.3158 75.6487 79.7382 75.4912C76.6926 74.546 73.647 73.6008 70.4963 72.6556C70.7064 73.7058 71.179 73.9684 71.9141 74.2309C75.3798 75.3862 78.793 76.5939 82.2062 77.7492C82.3638 77.8017 82.5738 77.9067 82.3638 78.3268C78.7405 77.1715 75.1698 76.0688 71.5465 74.9136ZM29.9054 21.2475C34.0538 22.7178 40.6176 19.042 39.5674 13.2658C38.1496 15.3137 36.1017 16.3639 34.3688 17.7817C32.5309 19.3046 30.1154 19.4096 28.0675 20.6698C29.2228 20.6698 30.3255 20.6698 31.4807 20.6698C30.9556 21.0374 30.4305 20.8799 29.9054 21.2475ZM60.5192 30.8569C60.4142 29.7017 60.0992 29.0716 59.259 28.599C57.5786 27.6538 56.0033 26.6036 54.3755 25.5533C51.1723 23.5579 47.9691 21.51 44.766 19.5146C44.3984 19.252 43.9783 18.8845 43.5582 19.4096C43.0331 20.0397 43.5582 20.3548 43.9783 20.6698C44.3984 20.9849 44.8185 21.3 45.2386 21.5625C46.8139 22.6127 48.3367 23.7155 50.0171 24.6607C53.4303 26.6561 56.686 28.9666 60.5192 30.8569ZM43.1907 87.5687C44.1358 89.7742 44.976 91.7171 45.8687 93.66C46.2363 94.3951 46.6564 95.1303 47.0765 95.8129C48.7568 98.3859 51.5924 99.4362 54.0604 98.386C53.7453 97.6508 53.2202 98.0709 52.7476 98.0184C52.065 97.9659 51.9075 97.3357 51.6449 96.8631C51.4349 96.443 51.1198 96.0755 50.4372 95.8129C50.7522 96.4956 50.9623 96.9156 51.2248 97.5458C50.3321 97.2307 49.7545 96.9156 49.4394 96.233C48.7568 94.9202 48.0217 93.6075 47.3915 92.2422C46.8664 91.0869 45.9212 90.0367 46.3413 88.5139C46.4463 88.0938 45.8687 87.6212 45.2911 87.6212C44.661 87.5687 44.0833 87.5687 43.1907 87.5687ZM33.7387 65.8292C33.0035 67.2995 32.3734 68.6648 31.6908 70.0301C31.5332 70.3976 31.2707 70.7652 31.8483 71.0803C34.1588 72.3406 36.1542 74.0734 38.2546 75.7012C37.2044 72.2355 35.9441 68.8748 33.7387 65.8292ZM46.2888 63.8338C43.6107 63.8338 41.1952 63.8338 38.5697 63.8338C39.9875 66.3018 41.4053 68.4022 42.508 70.9753C43.6107 68.2972 44.4509 65.8817 46.2888 63.8338ZM26.7548 54.5394C20.611 50.2335 16.8302 44.6148 16.4101 36.9482C13.6795 43.4596 21.8712 54.2768 26.7548 54.5394ZM44.3984 29.3341C42.8756 28.914 42.0879 27.9688 41.0377 27.4437C40.7226 27.2862 40.4076 26.7611 39.9875 27.3387C39.6724 27.8113 39.8825 28.1789 40.3551 28.494C41.4053 29.1766 42.403 29.9118 43.4007 30.5944C43.8733 30.9095 44.1359 30.6994 44.3459 30.2268C44.5034 29.8067 44.766 29.3866 44.871 28.914C45.1336 27.7063 46.8139 26.7611 45.9737 25.5008C45.2911 24.4506 43.8733 24.083 42.6655 23.5579C42.3505 23.4004 42.0354 22.8753 41.6678 23.5579C41.4578 24.0305 41.5628 24.3456 41.9304 24.6082C42.613 25.0807 43.2432 25.6059 43.8733 26.0785C43.3482 26.0785 42.9281 25.8159 42.5605 25.6059C42.0354 25.3433 41.4053 24.7132 40.9327 25.3958C40.3551 26.131 41.3003 26.3935 41.7204 26.8136C42.4555 27.6538 43.7158 27.9163 44.3984 29.3341ZM54.0079 76.804C54.3755 77.5391 53.6928 78.2218 54.0604 78.8519C55.5832 77.9592 55.6882 74.546 54.2179 72.8131C53.7453 73.1807 53.2202 73.5483 52.8002 73.9684C51.0148 75.6487 49.6495 77.6441 48.4943 79.7971C48.3367 80.0596 48.1792 80.4272 48.5468 80.6373C48.9143 80.8473 49.0194 80.4272 49.2294 80.2172C49.5445 79.8496 49.6495 79.272 50.2796 79.2195C50.5422 79.5345 49.9646 79.9546 50.5422 80.2697C51.1198 79.272 51.6974 78.2743 52.275 77.2766C52.8527 77.3291 52.3801 78.1167 52.8527 78.1167C53.3778 77.7492 53.2727 76.9615 54.0079 76.804ZM19.8758 19.6196C19.8758 21.2475 21.0311 22.2977 22.8164 22.2977C24.3392 22.2452 25.1269 21.3 25.1269 19.3046C25.1269 18.2543 23.9192 17.2566 22.6064 17.2566C20.506 17.3091 19.8233 17.8342 19.8758 19.6196ZM61.937 34.2702C62.0946 33.2199 61.6745 32.6948 60.9393 32.2747C58.9964 31.1195 57.106 29.8592 55.1631 28.6515C53.1677 27.3912 51.2248 26.131 49.0194 24.7132C49.1769 25.7634 49.3344 26.6036 49.9646 27.0762C53.7978 29.6492 57.7887 31.9597 61.937 34.2702ZM57.7887 44.8248C58.1038 45.9801 58.5763 46.6102 59.469 47.1353C62.3571 48.8682 65.5078 50.0759 68.4484 51.7563C69.3411 52.2814 70.1287 52.964 71.179 53.2266C70.8114 51.4412 70.8114 51.3887 68.8685 50.4435C65.2452 48.6056 61.6745 46.8203 57.7887 44.8248ZM66.768 43.9322C66.8731 43.7746 66.9781 43.6696 67.0831 43.5121C63.6174 39.4162 58.3663 38.156 53.7979 35.1628C54.0604 36.3706 54.2705 37.1057 55.1106 37.5258C58.9439 39.6788 62.8822 41.7792 66.768 43.9322ZM95.754 97.5458C95.1764 96.7056 94.5988 96.233 93.8111 96.023C89.5578 94.8677 85.1469 94.5001 80.841 93.5549C80.5259 93.5024 80.0533 93.2399 80.0008 93.87C79.9483 94.2901 80.1583 94.5527 80.5784 94.6577C80.841 94.7102 81.1035 94.7627 81.3136 94.8152C86.0395 95.9704 90.713 96.9156 95.754 97.5458ZM72.6493 77.4866C72.8068 78.4843 72.9643 79.0619 73.8045 79.377C77.5328 80.7948 81.4711 81.3724 85.2519 82.5802C84.9893 81.0574 84.0441 80.7423 82.7839 80.3222C79.4757 79.3245 76.115 78.6419 72.6493 77.4866ZM63.9325 37.8409C63.1973 35.898 54.2179 30.0693 50.9623 29.1241C51.1723 30.1743 51.6449 30.962 52.6951 31.4871C53.8504 32.0122 54.9531 32.7473 56.0558 33.43C58.5763 34.7953 61.0969 36.2131 63.9325 37.8409ZM59.3115 48.028C59.7316 49.2883 59.9941 50.0234 60.8868 50.4435C62.9348 51.3887 64.8777 52.4389 66.8731 53.3841C68.7635 54.3293 70.6538 55.2745 72.8068 56.3247C72.4392 55.3795 72.3342 54.8019 71.599 54.4343C69.7612 53.5416 67.9758 52.4914 66.1379 51.4937C63.985 50.4435 61.832 49.3408 59.3115 48.028ZM56.0033 20.7749C55.5832 20.0397 55.5832 19.147 54.6905 18.5694C52.17 16.9941 49.702 15.2612 47.1815 13.5809C46.8139 13.3708 46.4988 12.7932 46.0788 13.5284C45.8162 14.001 45.8687 14.316 46.3938 14.6836C49.492 16.8365 52.5376 19.042 56.0033 20.7749ZM55.4782 38.9436C55.7933 40.3089 62.9873 44.8248 68.5534 47.2403C68.1333 46.1376 67.8183 45.2974 66.6105 44.8248C65.0877 44.2472 63.6699 43.3545 62.1996 42.5144C60.0467 41.2541 57.8937 39.8888 55.4782 38.9436ZM69.8137 50.3385C69.7612 49.5508 69.7086 48.8682 68.8685 48.4481C65.1402 46.5052 61.4645 44.4573 57.7887 42.4619C57.4211 42.2518 57.0535 41.8317 56.1083 42.3568C60.3092 45.9276 65.5078 47.3454 69.8137 50.3385ZM30.7981 87.4112C30.0104 87.3587 29.5378 87.6737 29.0127 87.9363C28.4876 88.1988 27.8575 88.3564 28.015 89.0915C28.1725 89.7216 28.6976 89.9317 29.2753 90.0892C30.378 90.3518 31.1657 89.6691 32.0584 89.3016C32.3734 89.1965 32.741 88.934 33.0561 89.2491C33.3186 89.5116 33.0561 89.8267 32.951 90.0892C32.5309 91.5595 32.636 92.9248 33.6862 94.1851C34.0538 94.6052 34.4738 95.0252 34.999 94.7627C35.419 94.5527 35.1565 93.975 35.0515 93.6075C34.8414 93.0298 35.0515 92.2422 34.3688 91.6646C34.3163 92.2947 34.2113 92.7673 34.1588 93.4499C33.2136 91.2445 33.3711 89.1965 34.2113 87.0436C32.741 87.3587 31.6383 88.0413 30.2205 88.6189C30.483 88.0938 30.588 87.7787 30.7981 87.4112ZM85.2519 13.6334C84.3067 14.211 83.309 13.6334 82.6263 14.3685C84.5167 14.7886 86.1446 14.5261 87.2998 12.8457C85.8295 11.743 84.4117 12.6882 82.8889 13.0032C84.5167 10.9028 84.5167 10.9028 84.3067 8.95991C82.7839 9.64255 81.1035 9.95761 80.2633 11.7955C81.3661 12.0055 81.9437 11.0078 82.9414 11.1129C82.6788 11.743 82.3113 12.1631 81.7862 12.4256C81.4711 12.5832 80.841 12.6357 81.051 13.2133C81.261 13.7384 81.7862 13.4233 82.1537 13.4758C83.1514 13.6859 84.0966 13.0558 85.2519 13.6334ZM84.2017 33.8501C82.2588 34.9003 81.6286 36.5281 81.4711 38.3135C81.4186 38.9961 80.3158 39.6263 80.946 40.0464C81.6811 40.519 81.6811 38.9961 82.5738 38.8911C82.2062 40.0989 81.7336 41.2016 81.6811 42.8294C83.9391 40.0464 84.6217 37.2108 84.2017 33.8501ZM52.4851 32.1697C52.8527 33.745 61.6745 39.3112 65.0352 40.3614C65.0352 39.7838 64.8777 39.3637 64.3525 39.0486C60.4667 36.7907 56.5809 34.5852 52.4851 32.1697ZM88.8751 89.6691C88.6651 88.6189 88.14 87.9888 86.9322 87.8313C85.3044 87.6212 83.6765 87.2011 82.0487 86.9386C80.2633 86.6235 78.478 86.3084 76.5351 85.9934C77.1652 87.0961 85.2519 89.3541 88.8751 89.6691ZM29.1703 52.649C28.7502 52.5965 28.5926 52.8065 28.4876 53.0165C28.225 53.4891 28.2251 53.9092 28.6451 54.2768C30.0629 55.5896 31.4282 56.9023 32.846 58.1626C33.3711 58.6352 33.8962 59.1603 34.4738 59.5804C34.8939 59.8955 35.4715 59.843 35.7866 59.5279C36.2067 59.0553 35.5766 58.8453 35.314 58.5827C33.4236 56.7448 31.5332 54.9069 29.6428 53.0691C29.4853 52.9115 29.2753 52.754 29.1703 52.649ZM20.0859 98.806C20.0334 98.0709 19.4557 97.9659 19.0356 97.7033C16.4101 96.0755 13.9946 94.1326 11.264 92.7148C10.7914 92.4522 10.3713 91.6646 9.84624 92.3472C9.42615 92.9248 10.2663 93.2399 10.5289 93.7125C10.6339 93.9225 10.8965 94.0275 11.159 94.1851C13.2594 95.4453 15.3074 96.7581 17.4603 97.8608C18.1955 98.2284 19.0356 98.9111 20.0859 98.806ZM25.8095 59.1078C25.1269 59.4229 25.2319 59.843 25.5995 60.2105C26.4397 61.0507 27.3324 61.8384 28.1725 62.6785C28.3826 62.8886 28.6977 63.0986 28.3301 63.4137C28.12 63.6237 27.8575 63.4662 27.6474 63.3087C26.9123 62.626 26.2296 61.9434 25.4945 61.3133C25.2319 61.1032 24.9694 60.6831 24.6018 61.0507C24.2867 61.3658 24.3918 61.7333 24.6018 62.0484C25.0219 62.8361 25.8096 63.1511 26.4397 63.7288C28.3826 65.4616 28.3301 65.4091 29.3803 62.9411C29.6954 62.2585 29.5378 61.7859 29.0127 61.4708C28.015 60.8932 27.1748 60.1055 26.3347 59.3704C26.1771 59.2653 25.9671 59.2128 25.8095 59.1078ZM78.478 11.638C82.1012 9.9051 82.4163 7.22705 81.8912 5.33666C81.6286 4.49648 81.3136 4.39146 80.7884 5.12661C79.7907 6.43938 79.1606 7.9622 78.5305 9.53753C79.4757 9.53753 79.6857 8.59233 80.4209 8.32977C80.1058 9.59004 78.8981 10.2202 78.478 11.638ZM15.99 98.596C15.99 98.2284 15.7275 98.0184 15.4649 97.8608C13.5745 96.5481 11.6841 95.1828 9.58368 94.1326C9.21611 93.975 8.90105 93.8175 8.58598 94.1326C8.16589 94.5527 8.58598 94.9727 8.84853 95.1828C10.6339 96.8631 12.7868 98.0184 15.0448 98.8585C15.3599 98.9636 15.8325 99.0161 15.99 98.596ZM89.0327 97.3882C86.0395 96.7056 83.0989 96.0755 80.1058 95.3928C79.3707 95.2353 78.8981 95.5504 78.478 96.338C82.0487 96.9682 85.3569 98.5435 89.0327 97.3882ZM20.1909 70.4502C20.506 72.0255 21.6087 72.7081 22.5014 73.4958C22.8689 73.8109 23.3415 74.8611 23.9192 74.0209C24.4443 73.2857 25.3895 72.3405 24.4443 71.2903C23.7091 70.4502 22.9215 69.715 22.0813 69.0324C21.8187 68.8223 21.5037 68.2447 21.0836 68.7698C20.716 69.1899 21.0311 69.61 21.3461 69.8725C22.1338 70.6602 22.9214 71.3954 23.7091 72.1305C23.9192 72.3406 24.2867 72.5506 23.9717 72.9182C23.7091 73.2332 23.4466 72.9707 23.184 72.7606C22.2388 72.0255 21.5562 70.9228 20.1909 70.4502ZM54.0604 17.1516C53.6403 15.1562 52.4326 14.0535 50.3847 14.001C50.1746 14.001 50.1221 13.8959 50.1221 13.7384C50.1221 12.058 48.3892 12.1631 47.5491 11.3229C47.129 10.9553 46.9714 11.3754 46.7089 11.638C46.2888 12.1106 46.6039 12.3206 47.024 12.5832C49.3344 14.1585 51.8024 15.4713 54.0604 17.1516ZM54.1654 52.964C55.4782 52.4914 56.4234 51.6513 56.5809 50.1284C56.686 49.1307 56.1609 48.6056 55.1631 49.0257C53.5878 49.6558 52.9052 51.0211 52.275 52.5965C53.1677 52.5965 53.4828 51.8088 54.0079 51.8613C54.4805 52.2289 53.6928 52.5439 54.1654 52.964ZM59.8891 58.4252C57.2111 56.2722 53.4303 54.5394 52.3801 54.9594C55.4257 57.7425 58.0512 58.9503 59.8891 58.4252ZM17.6179 95.2353C16.095 93.0298 13.7846 91.8221 11.6316 90.5093C11.3691 90.3518 10.949 90.3518 10.7914 90.6668C10.6339 90.9819 10.8965 91.2445 11.1065 91.4545C13.0494 93.0823 15.2024 94.2901 17.6179 95.2353ZM95.3865 13.2133C95.544 11.0603 95.649 9.22246 95.754 7.38458C95.754 7.06951 95.9116 6.59692 95.439 6.43938C95.0189 6.33436 94.8089 6.75445 94.6513 7.06951C93.4961 8.85488 93.6536 10.9553 95.3865 13.2133ZM42.508 54.9594C45.1336 58.1626 47.2865 59.3704 48.9143 58.5827C46.5513 57.5325 45.2911 55.012 42.508 54.9594ZM43.1381 21.0374C42.7706 21.0374 42.7181 21.3525 42.5605 21.5625C42.2455 22.0351 42.508 22.4027 42.8756 22.6127C43.9783 23.3479 45.1336 24.0305 46.2888 24.7657C46.7089 25.0282 46.9714 24.9757 47.1815 24.5556C47.339 24.2406 47.7066 23.9255 47.339 23.6104C46.0262 22.5077 44.4509 21.9301 43.1381 21.0374ZM33.1086 59.6329C31.4807 58.0576 30.0104 56.6923 28.4876 55.2745C28.225 55.0645 27.9625 54.5919 27.5949 54.9069C27.1223 55.2745 27.3849 55.7471 27.6999 56.1147C28.8027 57.2699 29.9054 58.4777 31.1657 59.4229C31.6908 59.843 32.2159 59.8955 33.1086 59.6329ZM17.1978 90.4568C17.3553 90.2993 17.5128 90.1943 17.6179 89.9842C17.8279 89.6166 17.6179 89.3016 17.3028 89.039C16.2001 88.0938 15.1498 87.1486 14.0471 86.2034C13.732 85.9409 13.4695 85.5208 12.9969 85.9934C12.5243 86.466 12.8394 86.8861 13.2069 87.2011C14.3097 88.1988 15.4649 89.144 16.5676 90.1417C16.7777 90.2468 16.9352 90.2993 17.1978 90.4568ZM48.5993 54.6444C51.1198 55.5371 52.275 58.8452 55.4257 58.6352C53.2728 57.0599 51.4349 55.012 48.5993 54.6444ZM45.7637 54.8544C47.7591 56.2197 49.1244 58.6877 51.9075 58.6877C49.8595 57.3749 48.3892 55.117 45.7637 54.8544ZM36.5743 55.1695C37.572 57.2699 40.25 59.3179 41.6153 59.0028C40.3551 56.9024 37.9396 55.012 36.5743 55.1695ZM12.1042 98.7535C11.9992 98.596 11.9467 98.3859 11.7891 98.2809C10.5289 97.4407 9.32113 96.6531 8.00836 95.8654C7.58827 95.6029 7.22069 95.9704 6.95814 96.338C6.64307 96.8106 7.06317 97.0207 7.32572 97.1782C8.48096 97.8608 9.63619 98.491 10.8439 99.0686C11.264 99.2261 11.7892 99.3837 12.1042 98.7535ZM12.3668 44.0372C12.9969 44.0372 13.9421 43.9847 14.0996 43.302C14.2572 42.6719 13.312 42.4619 12.7869 42.1993C12.1567 41.8317 11.4216 41.6742 10.6864 41.6742C9.74122 41.6217 9.6362 42.0943 9.89875 42.8819C10.3714 43.9322 11.3691 43.8271 12.3668 44.0372ZM52.4326 13.6334C52.2225 11.2179 50.0696 10.6928 48.6518 9.48501C48.3892 9.27497 48.1267 9.11744 47.9166 9.53753C47.7066 9.95761 47.6016 10.2727 48.0217 10.6403C49.3869 11.7955 50.8047 12.8457 52.4326 13.6334ZM16.5676 92.5572C16.9877 91.9796 16.7777 91.5595 16.4101 91.192C15.4124 90.2993 14.4147 89.4066 13.3645 88.5664C12.9969 88.2513 12.5243 87.7787 12.0517 88.4614C11.5791 89.0915 12.1567 89.4066 12.5768 89.7217C13.8371 90.6669 15.1498 91.5595 16.5676 92.5572ZM77.6903 9.48501C78.6355 6.75445 77.7953 4.65401 75.3273 3.81384C76.2725 5.70423 76.4826 7.64713 77.6903 9.48501ZM86.3546 25.4483C87.7724 28.914 88.35 32.2747 88.245 35.793C89.3477 32.2222 88.4025 26.2885 86.3546 25.4483ZM29.9054 61.2607C30.168 61.3658 30.273 61.1557 30.378 60.9982C30.6406 60.5781 30.5355 60.263 30.168 59.8955C29.1703 59.0553 28.2251 58.1626 27.2799 57.3224C27.0698 57.1649 26.8598 56.7448 26.5447 57.1124C26.3872 57.3224 26.2821 57.69 26.3347 57.9526C26.2821 58.3201 29.5378 61.2082 29.9054 61.2607ZM31.0606 48.9207C30.6931 48.8682 30.483 49.0782 30.378 49.2883C30.1154 49.7084 30.3255 50.0234 30.6406 50.2335C31.5332 51.0211 32.4784 51.7563 33.4236 52.4914C33.7387 52.754 34.0538 53.1741 34.4213 52.649C34.7364 52.2289 34.5264 51.8613 34.2113 51.5987C33.3711 50.8636 32.5309 50.0759 31.6908 49.2883C31.4807 49.1307 31.2182 48.9732 31.0606 48.9207ZM35.5241 50.3385C35.5241 49.8659 35.209 49.6033 34.8939 49.3408C34.0538 48.7106 33.2136 48.133 32.3734 47.5554C32.1109 47.3979 31.8483 46.7152 31.4282 47.3454C31.1657 47.7129 31.1657 48.0805 31.5332 48.4481C32.4784 49.3408 33.4761 50.1284 34.5789 50.8111C35.1565 51.1787 35.314 50.8111 35.5241 50.3385ZM31.9533 86.0984C29.6428 85.7833 27.6999 85.5208 25.757 85.6783C25.3895 85.6783 24.9694 85.7308 24.9694 86.2034C24.9694 86.6235 25.337 86.6235 25.652 86.676C27.6474 87.0436 29.6428 87.0961 31.9533 86.0984ZM33.6337 42.9345C33.1611 43.407 32.741 43.7746 33.3186 44.3522C34.0013 45.0349 34.7889 45.665 35.5241 46.2951C35.8916 46.6102 36.2592 47.4504 36.8368 46.9778C37.5195 46.4002 36.8893 45.7175 36.4168 45.2449C35.8916 44.7198 35.2615 44.1947 34.6839 43.7221C34.3688 43.407 34.0538 43.197 33.6337 42.9345ZM59.4165 74.1259C57.3686 75.1761 56.4234 76.7515 55.7408 78.7994C57.001 78.2743 57.5261 77.3291 58.1037 76.4364C58.3138 77.014 57.8412 77.4341 58.1563 77.9067C59.2065 76.909 59.5215 75.7012 59.4165 74.1259ZM39.3574 55.2745C40.7752 56.4297 42.0354 57.5325 43.3482 58.6352C43.5057 58.7927 43.6633 58.9503 43.8208 59.0553C44.1359 59.2653 44.5559 59.3704 44.8185 59.0553C45.081 58.7402 44.661 58.5302 44.4509 58.3201C43.4007 57.3224 42.298 56.3772 41.2478 55.3795C40.7226 55.012 40.25 54.6969 39.3574 55.2745ZM23.0265 64.9365C22.974 64.9365 22.8164 64.989 22.7639 65.094C22.5539 65.4091 22.6589 65.7242 22.9214 65.9342C23.8666 66.8794 24.8643 67.8246 25.8095 68.7173C26.0196 68.8748 26.2296 69.0324 26.4922 68.8223C26.7548 68.6123 26.8598 68.2972 26.7548 67.9821C26.6497 67.4045 23.7091 64.9365 23.0265 64.9365ZM34.6314 41.0966C34.1588 41.0441 34.0012 41.2541 33.9487 41.5167C33.8437 41.7792 33.6337 42.0418 34.0012 42.3043C35.0515 43.092 36.0492 43.8796 37.0469 44.6673C37.3094 44.8774 37.6245 45.0349 37.8346 44.6673C37.9396 44.4573 38.0971 44.0372 38.0446 43.9847C36.9419 42.987 35.7341 42.0418 34.6314 41.0966ZM38.3597 42.8819C38.6222 42.987 38.7272 42.7769 38.8323 42.6194C39.0423 42.2518 39.0423 41.9367 38.6747 41.6217C37.7295 40.7815 36.8368 39.9413 35.9442 39.1012C35.7341 38.9436 35.5241 38.5235 35.209 38.8911C34.999 39.1012 34.8414 39.4162 34.8939 39.7313C34.999 39.9938 38.0446 42.8294 38.3597 42.8819ZM23.289 75.7012C23.3415 75.2812 23.0265 75.0711 22.7639 74.8086C21.9237 74.0734 21.0311 73.3383 20.1384 72.6556C19.8758 72.4456 19.6133 72.078 19.2457 72.4981C18.8781 72.8657 19.1407 73.1807 19.4032 73.4433C20.3484 74.3885 21.3461 75.2812 22.3438 76.1213C22.9215 76.5939 23.184 76.2789 23.289 75.7012ZM35.7341 49.1307C36.3117 48.8157 36.4167 48.3431 36.0492 47.9755C35.1565 47.0303 34.2113 46.1901 33.2661 45.35C33.0035 45.1399 32.636 44.9299 32.3209 45.2974C32.0058 45.7175 32.0583 46.0326 32.4784 46.3477C33.4236 47.1353 34.3163 47.9755 35.2615 48.8157C35.3665 48.9732 35.5766 49.0257 35.7341 49.1307ZM36.3642 36.7382C36.1017 36.7382 35.9967 36.8957 35.8916 37.0532C35.7341 37.4733 35.6816 37.8409 36.1017 38.156C37.0469 38.8911 37.9396 39.6788 38.8323 40.4139C39.0948 40.624 39.4099 40.939 39.7249 40.519C39.9875 40.1514 39.8825 39.8363 39.5674 39.5738C38.6747 38.7336 37.7295 37.8934 36.8368 37.0532C36.7318 36.9482 36.5218 36.8432 36.3642 36.7382ZM87.3523 11.0078C91.0281 12.7407 94.1787 14.6311 96.1741 18.0443C95.334 14.8936 90.608 11.0603 87.3523 11.0078ZM40.8277 38.1035C40.9327 37.7359 40.7752 37.5783 40.6176 37.4733C39.6199 36.6857 38.6747 35.898 37.677 35.1628C37.4145 34.9528 37.0994 34.6377 36.7843 35.1628C36.5218 35.5304 36.6268 35.7405 36.9944 36.0555C37.9921 36.8432 38.8848 37.6309 39.8825 38.4185C40.04 38.576 40.25 38.8911 40.5126 38.6811C40.6701 38.5235 40.7226 38.2085 40.8277 38.1035ZM29.1177 45.56C27.805 46.1376 27.0698 46.9778 25.8095 47.2929C26.3347 46.6627 26.7547 46.1901 27.1223 45.77C25.757 46.2951 24.6543 47.0828 23.7616 48.6581C26.0196 48.238 27.8575 47.818 29.1177 45.56ZM41.9304 34.6902C42.1404 34.7428 42.298 34.5852 42.3505 34.3752C42.4555 34.0601 42.5605 33.745 42.2455 33.535C41.2478 32.7473 40.1975 31.9597 39.1473 31.277C38.6747 30.962 38.3597 31.277 38.3597 31.8021C38.4122 32.2222 41.4578 34.6902 41.9304 34.6902ZM19.9283 83.4203C19.9283 82.8952 19.5607 82.5802 19.2457 82.3176C18.353 81.635 17.4603 80.9523 16.5676 80.2697C16.3051 80.0597 15.99 79.7446 15.675 80.1647C15.4649 80.4272 15.7275 80.7423 15.9375 80.9523C16.9877 81.8975 18.0905 82.7377 18.9306 83.8404C19.0882 83.998 19.2982 84.313 19.5608 83.998C19.7708 83.8404 19.8233 83.6304 19.9283 83.4203ZM37.9921 32.9574C37.7295 32.9049 37.6245 33.0624 37.5195 33.2724C37.4145 33.535 37.3619 33.745 37.6245 33.9551C38.2546 34.4802 38.8323 35.0578 39.5674 35.4779C40.1975 35.8455 40.7226 37.2108 41.4053 36.4756C42.2455 35.5304 40.7226 35.1628 40.1975 34.6377C39.5149 34.0076 38.9373 33.2724 37.9921 32.9574ZM30.483 83.9455C29.5378 81.6875 29.1177 79.3245 28.8027 76.909C27.7525 79.6396 28.8027 81.845 30.483 83.9455ZM18.353 87.4112C18.353 86.8861 17.9329 86.781 17.6704 86.571C16.8302 85.8884 15.99 85.2582 15.0973 84.6281C14.8348 84.418 14.5197 83.998 14.1521 84.3655C13.7321 84.7856 14.1521 85.1532 14.4672 85.4158C15.4649 86.3084 16.5676 87.0961 17.6179 87.9363C17.7754 88.0413 17.9854 88.1988 18.143 87.9888C18.1955 87.7262 18.248 87.5162 18.353 87.4112ZM6.22299 23.4004C8.48096 25.9209 11.5791 26.2885 12.9969 24.1881C10.5814 24.8182 8.48096 24.6607 6.22299 23.4004ZM24.0242 62.8361C23.4466 63.1511 23.289 63.5187 23.7616 63.9388C24.7068 64.8315 25.652 65.7242 26.5972 66.6169C26.8598 66.8269 27.1223 67.1945 27.4899 66.7744C27.805 66.4068 27.5949 66.0918 27.3324 65.8292C26.3872 64.9365 25.442 64.0438 24.4968 63.1511C24.3392 63.0461 24.1817 62.9411 24.0242 62.8361ZM32.0584 78.4843C32.1634 80.7948 32.741 82.5277 33.7387 84.1555C33.9487 84.4706 34.3688 84.9432 34.7364 84.6806C35.209 84.3655 34.7889 83.9455 34.5264 83.6304C33.8437 82.7377 33.4761 81.74 33.1611 80.6898C32.951 80.0071 32.846 79.272 32.0584 78.4843ZM18.563 74.3885C18.8256 76.2264 20.1909 76.909 21.1886 77.8017C21.4511 78.0117 21.7137 78.5893 22.1863 78.1167C22.5539 77.6967 22.3963 77.2241 22.0288 76.8565C20.9786 76.0163 19.9808 75.1761 18.563 74.3885ZM32.4784 84.3655C31.9533 82.5277 31.0606 80.8998 31.0606 78.9569C31.0606 78.6419 31.0081 78.2743 30.6406 78.2218C30.1154 78.1693 30.0629 78.6419 30.1154 79.0094C30.378 81.0574 31.0606 82.8952 32.4784 84.3655ZM43.4007 31.8547C43.2957 31.7496 43.1907 31.6446 43.0856 31.5921C42.1404 30.8569 41.2477 30.1218 40.3026 29.3866C39.9875 29.1766 39.6199 28.599 39.1998 29.2816C38.8322 29.8592 39.3574 30.0693 39.6199 30.3843C40.4076 31.3821 41.9304 31.1195 42.6655 32.1697C42.8756 32.4848 43.2432 32.2747 43.4007 31.8547ZM61.0969 65.9867C61.1494 63.7813 61.0444 63.6763 57.6311 63.3087C58.3138 64.3064 58.9439 65.1991 59.5741 66.1443C59.9941 65.2516 59.0489 64.6214 59.4165 63.8863C60.5192 64.1488 60.2042 65.3566 61.0969 65.9867ZM96.9093 10.1151C98.4321 7.27956 97.802 3.97137 95.649 3.28873C97.0668 5.33665 97.1718 7.54211 96.9093 10.1151ZM16.6201 78.3793C17.1452 79.9546 18.7206 80.5322 19.6133 81.7925C19.7708 82.0551 20.0859 82.4751 20.4534 82.0551C20.716 81.74 20.6635 81.3724 20.3484 81.0574C19.2457 80.0071 18.143 78.9569 16.6201 78.3793ZM31.5857 72.1305C31.3757 73.7583 31.8483 75.2812 32.0584 76.8565C32.1109 77.1716 32.1634 77.5916 32.5309 77.5391C33.0561 77.4866 32.951 77.014 32.8985 76.699C32.846 75.0711 32.3734 73.5483 31.5857 72.1305ZM15.1498 81.8975C14.7298 82.7902 15.2549 83.1053 15.6224 83.4203C16.4626 84.103 17.2503 84.7856 18.143 85.4683C18.353 85.6783 18.6156 86.2034 18.9831 85.6783C19.1932 85.3632 19.0882 84.9957 18.7731 84.7331C17.5653 83.8404 16.4101 82.9477 15.1498 81.8975ZM22.1863 66.9319C22.0288 67.0369 21.8187 67.037 21.8187 67.142C21.7137 67.457 21.8712 67.7196 22.1338 67.9821C22.974 68.8223 23.8666 69.61 24.7593 70.3976C24.9694 70.5552 25.1269 71.1853 25.5995 70.6602C25.8621 70.3451 25.8621 70.0301 25.547 69.715C24.6018 68.8748 23.7091 68.0347 22.8164 67.1945C22.6064 67.0895 22.3963 67.0369 22.1863 66.9319ZM21.5037 79.5345C21.4512 79.4295 21.3986 79.3245 21.3461 79.272C20.2434 78.3268 19.1932 77.3816 18.0905 76.4364C17.8279 76.2264 17.6178 76.3314 17.4603 76.5939C17.3028 76.804 17.1453 77.0665 17.4603 77.2766C18.563 78.1693 19.7183 79.1145 20.821 79.9546C21.1361 80.2697 21.4512 80.0071 21.5037 79.5345ZM43.8208 86.2559C44.8185 86.571 44.766 85.7833 44.8185 85.3107C44.976 83.8929 43.6633 84.5756 43.0331 84.208C42.403 83.7879 42.3505 84.6806 42.298 84.9957C42.193 86.2034 43.1907 86.0459 43.8208 86.2559ZM30.588 73.0757C29.3278 74.2834 29.7479 75.5437 29.7479 76.7515C29.7479 77.3816 30.1154 77.2766 30.4305 77.3291C30.9031 77.3816 31.1131 77.119 31.0606 76.6464C30.9556 75.4912 30.7981 74.3885 30.588 73.0757ZM34.1588 78.0642C34.6839 76.6464 34.6839 75.2812 34.5789 73.8634C34.5264 73.4958 34.1588 73.2332 33.7912 73.2332C33.3711 73.2332 33.3711 73.6008 33.4236 73.9159C33.6337 75.2812 33.8962 76.6989 34.1588 78.0642ZM29.4853 84.8381C28.6451 82.9477 28.015 81.4249 27.5424 79.7971C26.6497 81.4774 27.2799 83.2628 29.4853 84.8381ZM80.4734 38.0509C81.1035 36.6331 81.156 35.5829 80.5784 34.5327C80.3684 34.2176 80.1058 33.9026 79.6857 34.0601C79.2131 34.2702 79.4232 34.6902 79.5807 35.0053C79.9483 35.898 80.5259 36.6857 80.4734 38.0509ZM98.2746 42.987C96.6992 43.197 95.1764 42.8819 93.3385 43.0395C95.1764 44.3522 96.7517 43.6696 98.2746 42.987ZM35.4716 78.7469C36.7843 77.2241 36.7843 75.5962 35.6816 74.8611C35.5766 76.1738 35.5241 77.4866 35.4716 78.7469ZM98.9047 7.90969C100.007 5.75674 99.2198 3.23622 97.1718 2.71111C99.0097 4.12891 99.0097 6.0193 98.9047 7.90969ZM100.06 39.5738C98.4321 39.6263 96.8568 39.8888 95.439 40.5715C97.1193 40.8865 98.6422 40.4664 100.06 39.5738ZM100.533 2.71111C101.425 4.39146 100.953 5.96679 101.058 7.43709C102.108 5.33666 102.003 3.81384 100.533 2.71111ZM8.53347 61.2082C11.0015 61.0507 12.1567 60.5781 13.2069 59.3704C11.5266 59.6854 10.1613 60.4731 8.53347 61.2082ZM86.6172 17.3617C85.8295 15.8913 84.6742 15.5763 83.0989 15.4713C84.0966 16.784 85.3044 16.8891 86.6172 17.3617ZM95.1764 42.1468C96.8568 42.4093 98.117 42.0418 99.2723 41.1491C97.9595 41.3591 96.5417 41.2541 95.1764 42.1468ZM89.9253 32.4848C90.0304 30.7519 90.2404 28.9666 88.9276 27.5488C89.4002 29.1766 89.6628 30.8044 89.9253 32.4848ZM50.3847 9.64255C50.4372 8.90739 49.8595 8.59233 50.0171 8.01471C50.1746 7.4896 49.5445 7.54211 49.3344 7.43709C49.0194 7.27956 48.8618 7.69965 48.7043 7.9622C48.4943 8.27726 48.5468 8.48731 48.9143 8.69735C49.3869 8.90739 49.807 9.27497 50.3847 9.64255ZM64.6151 77.8017C66.9781 77.7492 67.1356 77.5916 67.0306 76.1738C66.348 76.6464 65.6653 77.119 64.6151 77.8017ZM12.6818 56.6923C11.6316 55.8521 10.7389 55.9046 9.6362 55.8521C10.3714 57.1124 11.3165 56.9023 12.6818 56.6923ZM63.8274 75.5437C62.5147 76.1213 61.8845 76.7515 61.4119 77.9067C62.6722 77.5916 63.1973 76.804 63.8274 75.5437ZM37.3094 76.4889C37.362 77.7492 36.7843 78.6419 37.572 79.482C37.8346 78.5893 38.4122 77.6967 37.3094 76.4889ZM5.80291 97.8083C5.43533 97.8083 5.17278 97.9659 5.2778 98.2284C5.48784 98.9111 6.06545 99.1211 6.69558 99.2261C6.95814 99.2786 7.48324 99.2786 7.43073 98.9111C7.22069 98.0709 6.17049 98.2809 5.80291 97.8083Z" fill="#36372F"/>
<path d="M18.772 64.0967C19.5596 63.9391 19.5071 62.9414 20.3473 62.7314C21.135 64.0967 20.1373 65.1469 19.5596 66.0921C19.1396 66.8272 18.5094 65.9346 18.2994 65.567C17.5117 64.0442 17.0916 64.7268 16.619 65.777C15.7263 67.7199 14.151 68.9277 12.1031 69.4528C10.3702 69.9254 10.2127 69.8204 10.2652 67.9825C10.2652 67.7199 10.2652 67.5099 10.2652 67.0898C9.00497 67.6674 7.84972 68.14 6.74699 68.6126C5.43422 69.1902 4.22646 68.8752 3.01871 68.1925C2.75616 68.035 2.4411 67.8249 2.54612 67.5099C2.65114 67.1948 2.91369 66.7222 3.28127 66.8272C6.06435 67.3523 8.58487 66.4072 11.2104 65.3044C11.2104 66.1971 11.2104 66.9323 11.2104 67.8249C13.4684 66.9848 14.7812 65.3569 15.9889 63.5716C16.3565 63.0465 16.3565 62.3113 17.2492 62.2588C18.2469 62.2588 18.1419 63.099 18.5094 63.6241C18.5619 63.7816 18.7195 63.9391 18.772 64.0967Z" fill="#36372F"/>
<path d="M9.00762 80.5321C7.74736 80.7422 6.74966 80.8997 5.75195 81.0573C5.90949 78.0641 6.17203 77.6966 9.00762 76.9614C9.84779 76.7514 9.90032 76.4363 9.48023 75.8062C9.16516 75.2811 9.27018 74.9135 9.90031 74.5459C10.0578 75.4386 10.5304 76.1737 11.3706 76.5413C11.6857 76.6988 12.1058 76.8564 11.8957 77.329C11.7382 77.6966 11.3181 77.6966 10.9505 77.644C9.42771 77.539 8.00992 78.0116 6.59213 78.5892C7.16975 79.5869 8.21996 79.7445 9.00762 80.5321Z" fill="#36372F"/>
<path d="M95.4894 67.9295C95.2268 67.877 94.8068 67.877 94.4392 67.7194C93.9666 67.5094 93.0739 67.5094 93.3364 66.7742C93.599 66.0916 94.2291 66.0391 94.9643 66.5117C96.4871 67.4569 97.7999 67.0893 98.6926 65.6715C98.8501 65.409 98.9551 65.0939 99.0601 64.8313C99.2177 64.4112 98.9026 63.8336 99.4277 63.5711C99.6903 63.4661 99.8478 63.7286 100.005 63.9912C100.268 64.5163 100.425 65.0414 99.9528 65.5665C98.9026 66.9318 97.4848 67.877 95.4894 67.9295Z" fill="#36372F"/>
<path d="M8.37613 20.9852C5.17297 19.8825 3.33508 16.1542 4.85789 13.8438C4.9104 16.7844 6.59076 18.7798 8.37613 20.9852Z" fill="#36372F"/>
<path d="M94.3359 71.6056C96.1213 70.9755 97.8542 70.4503 99.587 71.6581C99.8496 71.8156 100.217 71.9206 100.06 72.3407C99.9021 72.6558 99.5345 72.7608 99.272 72.6033C97.6966 71.6056 96.0163 71.6581 94.3359 71.6056Z" fill="#36372F"/>
<path d="M99.5872 50.3384C99.3772 52.5438 97.9069 53.174 95.7539 52.1237C96.8041 51.0735 98.4845 51.4936 99.5872 50.3384Z" fill="#36372F"/>
<path d="M16.6746 74.2312C14.5741 73.8636 12.6312 73.601 10.4258 74.3887C12.6312 72.6033 15.2568 72.6033 16.6746 74.2312Z" fill="#36372F"/>
<path d="M86.2495 59.0556C85.2518 58.9506 85.0418 57.4278 83.8865 58.0054C83.7815 58.0579 83.729 57.3753 83.8865 57.0077C84.0441 56.5876 84.3066 56.5876 84.7267 56.7976C85.5669 57.3753 86.0395 58.0054 86.2495 59.0556Z" fill="#36372F"/>
<path d="M89.6094 46.6099C91.0272 46.3998 92.55 47.3975 92.445 48.2902C92.3925 48.8678 91.8673 48.5528 91.5523 48.5528C91.1847 48.5528 90.4496 48.6578 90.7646 48.0277C91.4998 46.8199 90.4495 46.9774 89.6094 46.6099Z" fill="#36372F"/>
<path d="M13.4688 75.4911C14.2564 75.1761 14.6765 74.966 15.1491 74.861C15.4642 74.8085 15.8843 74.8085 16.1468 75.1235C16.3569 75.3336 16.2518 75.5961 16.0943 75.8062C15.8317 76.1738 15.5167 76.4363 15.0966 76.2788C14.5715 76.1213 14.1514 75.8587 13.4688 75.4911Z" fill="#36372F"/>
<path d="M76.5354 16.4167C76.4304 16.9418 76.0628 17.2568 75.6952 17.2568C75.1176 17.2568 75.0126 16.6267 74.9601 16.2591C74.9076 15.839 75.2751 15.3139 75.8002 15.3664C76.3254 15.419 76.3254 16.0491 76.5354 16.4167Z" fill="#36372F"/>
<path d="M94.1777 48.343C95.3855 47.8178 96.5932 47.7653 98.0635 48.343C96.5407 48.343 95.3855 48.343 94.1777 48.343Z" fill="#36372F"/>
<path d="M74.2243 22.7181C74.1193 22.2455 74.3293 21.8779 74.6969 21.8779C75.3795 21.9304 75.2745 22.6131 75.3795 23.0332C75.4846 23.4007 75.2745 23.8208 74.8544 23.8208C74.0668 23.8208 74.3818 23.0857 74.2243 22.7181Z" fill="#36372F"/>
<path d="M90.2936 58.8453C88.9808 57.6376 89.1383 59.528 88.3507 59.5805C88.0881 58.8978 88.0356 58.1102 88.6657 57.7951C89.4009 57.48 89.821 58.2152 90.2936 58.8453Z" fill="#36372F"/>
</svg>
