<svg width="104" height="100" viewBox="0 0 104 100" fill="none" xmlns="http://www.w3.org/2000/svg">
<rect x="6" y="1" width="98" height="98" fill="white"/>
<path d="M70.3933 74.679C70.5837 75.3451 70.2982 75.7733 69.7272 76.0588C69.4893 76.2015 69.2039 76.2967 68.966 76.3918C67.4911 76.7724 65.7307 76.82 65.921 79.1989C67.9193 79.5795 70.3458 78.7231 72.9626 79.8174C70.9643 80.3884 69.2515 79.5795 67.4911 80.1981C69.3942 80.9593 71.3449 80.3884 73.1529 81.0545C70.8691 81.8633 68.5378 81.6254 66.0637 81.7681C66.5871 82.577 66.9677 83.3382 67.4911 84.0519C68.2048 85.051 67.7765 85.4792 66.7774 85.7171C66.3968 85.8123 66.0162 85.7647 65.6355 85.7647C65.017 85.7171 64.4937 85.7647 65.017 86.5735C65.4928 87.2872 65.1598 87.6678 64.4937 88.0009C62.6381 88.8573 60.8302 89 59.0698 87.6202C57.8803 86.6687 56.5006 86.0502 55.0732 85.5268C53.3128 84.8131 51.7428 83.8616 50.1251 82.8624C51.6952 84.6704 53.2177 86.5259 54.8353 88.3339C55.5014 89.0951 56.1675 89.904 57.1191 90.4273C57.8327 90.8555 57.8327 91.4741 56.9763 91.9023C52.1234 94.4239 47.9841 93.1393 45.9382 88.5242C44.9391 86.288 44.2254 83.9567 43.2263 81.6254C42.0368 82.4342 40.895 83.1479 40.0385 84.2422C39.7055 84.6228 39.3725 84.6704 38.9443 84.6704C38.6588 84.6704 38.2782 84.2898 38.0878 84.8131C37.9451 85.1462 38.2782 85.4316 38.4685 85.6695C39.0394 86.4784 39.42 87.3823 39.7531 88.3339C39.991 88.9048 39.8482 89.4282 39.2297 89.5709C37.7072 89.904 36.2323 89.8564 35.3759 87.9533C35.3283 87.8105 35.2332 87.7154 35.1856 87.5727C34.2816 85.5268 33.7107 85.0986 31.5697 84.718C30.7608 84.5752 30.3802 84.1946 30.4278 83.2906C30.4754 82.8149 30.9511 81.8633 29.952 81.9584C29.0004 82.006 27.7158 81.102 27.1449 82.6245C26.7643 83.6713 26.3361 84.718 26.0506 85.8123C25.7651 86.859 26.4788 87.6202 27.1449 88.2387C28.3343 89.3806 29.7141 90.2846 31.0939 91.141C31.5697 91.4265 32.5212 91.6644 32.1406 92.5208C31.8551 93.282 31.1415 93.5675 30.285 93.5675C25.5272 93.5199 20.817 93.4723 16.0592 93.5675C13.49 93.6151 10.9208 94.1384 8.35156 93.5199C7.92336 93.4248 7.49517 93.4248 7.30486 92.9965C7.06697 92.4256 7.54274 92.1401 7.87578 91.8071C9.92164 89.4758 12.1102 87.2396 14.0134 84.8607C14.9649 83.6713 15.4407 82.1963 16.2019 80.6738C14.8698 80.6263 13.9182 81.2923 12.9191 81.673C12.0627 81.9584 11.2538 82.0536 10.445 81.8157C9.54103 81.5778 8.73219 81.2924 9.63618 80.1029C10.1595 79.4368 10.0168 78.961 9.01767 79.1038C8.49431 79.1513 7.92337 79.2941 7.73306 78.5804C7.54274 77.724 8.39915 77.9619 8.77978 77.7716C10.0168 77.1531 11.3014 77.2482 12.7763 77.4385C12.1102 78.1998 11.5393 78.8659 10.9684 79.5795C10.778 79.7699 10.5877 80.1029 10.8732 80.3408C11.0159 80.4835 11.349 80.4835 11.5393 80.4359C12.7763 80.0077 13.8706 79.4368 14.3464 78.057C14.6794 77.0579 15.8213 77.4861 16.535 77.0103C15.8689 76.3442 14.7746 76.9152 13.8706 75.916C15.631 76.3918 16.535 75.1548 17.772 74.5838C17.2487 74.346 16.6777 74.2984 16.2971 73.6799C17.1535 73.2517 18.1051 73.6799 18.9615 73.3944C19.0091 72.7283 18.2478 72.6807 18.0099 72.2525C18.1051 72.2049 18.2478 72.0622 18.343 72.0622C19.8655 72.4904 20.3412 71.4437 20.8646 70.3494C23.3387 64.9255 25.7651 59.454 28.5722 54.0777C28.0013 54.1729 27.6683 54.5535 27.2876 54.839C27.0497 55.0293 26.6691 55.6954 26.7643 54.6486C26.7643 54.4583 26.574 54.4108 26.1933 54.839C25.5748 55.5051 25.0039 56.1711 24.433 56.8848C24.0999 56.409 24.766 55.9808 24.5281 55.505C24.0999 55.505 24.0048 56.0284 23.7193 56.1711C23.3862 56.3139 23.3862 57.6936 22.6726 56.4566C22.4822 56.5993 22.2919 56.6945 22.1016 56.8372C21.5307 57.4557 21.0073 58.0743 20.2461 58.9307C20.3412 57.6461 21.3404 57.0751 21.4831 55.7429C18.9139 57.9315 16.868 60.5007 13.3948 60.9289C13.6327 60.6435 13.823 60.3104 14.1085 60.025C14.394 59.7395 14.7746 59.5016 15.0601 59.121C12.7763 59.6919 11.0159 61.4047 8.7322 62.0708C8.7322 60.3104 10.5877 60.358 11.3966 59.4065C10.9208 58.8831 10.2547 58.9783 9.68376 58.9307C8.58946 58.8355 8.68462 58.217 9.1604 57.5985C9.96922 56.5518 11.0635 55.9333 12.3481 55.6478C12.8239 55.5526 13.49 55.6478 13.5376 54.9341C13.5376 54.268 12.8715 54.3156 12.4433 54.268C10.8732 54.0777 9.73133 53.031 8.39915 52.3649C8.0661 52.2222 7.73305 51.9367 8.11367 51.6512C9.54102 50.5094 10.9208 49.082 13.157 49.4626C12.2054 50.3666 10.7781 50.2715 9.73134 51.3182C11.2538 51.794 12.4433 52.9358 14.1085 52.1746C14.2988 52.0794 14.5843 52.2697 14.7746 52.2697C15.8689 52.4601 16.868 53.0786 18.1526 52.4125C18.8663 52.0319 19.6276 53.031 20.5791 53.1737C20.5316 52.3173 19.3897 52.127 19.4848 51.223C20.5316 51.5561 21.388 52.2697 22.6726 52.4125C22.3395 51.9367 22.1016 51.6512 21.8637 51.3182C22.1968 50.9851 22.5298 51.6512 22.7677 51.2706C22.958 50.9851 22.625 50.7472 22.4822 50.5569C21.4831 49.2723 20.3412 48.178 18.8663 47.4644C18.5333 47.3216 18.1527 47.0837 17.8196 47.3692C17.5341 47.6547 17.8672 47.9877 17.9623 48.2732C18.2002 48.8441 18.7712 49.4626 18.2002 50.0812C17.6769 50.6045 16.9632 50.3666 16.2971 50.2715C15.7737 50.1763 15.298 50.0336 14.9173 49.6054C13.823 48.4159 12.3957 47.9877 10.8256 47.7974C11.7296 47.0362 12.7763 47.0362 13.823 47.3216C14.8698 47.6071 15.3931 48.7965 16.5826 48.9869C16.535 48.3208 15.631 47.7023 16.2971 47.0362C16.868 46.4652 17.7244 46.608 18.4381 46.7031C19.8655 46.8934 21.0549 47.6547 22.1016 48.6538C23.2435 49.7005 24.0523 51.223 25.9554 51.3658C25.1466 50.5094 24.4329 49.653 23.5765 48.9393C21.9113 47.4644 20.817 45.6088 20.1033 43.5154C19.7227 42.4211 19.3897 41.9929 18.343 42.9444C17.6293 43.563 16.7729 43.9912 15.7737 43.8009C14.7746 43.6581 13.823 43.3727 13.3473 42.3735C13.2045 42.1356 13.0618 41.7074 12.7763 41.8501C10.9684 42.7066 8.97009 40.7083 7.11455 42.2308C6.59119 42.659 5.63962 42.1356 5.49688 41.3268C5.30657 40.2325 5.54447 39.0906 6.63877 38.71C7.63791 38.3294 7.97094 38.0439 7.92336 36.8545C7.87579 34.2852 9.87407 33.2861 12.0627 34.6659C12.7288 35.0941 12.8239 34.761 13.0142 34.2852C13.5376 33.0006 14.1085 33.0006 15.2504 33.857C16.3923 34.7134 16.6302 36.0456 17.2487 37.1399C17.5817 37.7109 17.6769 38.4721 18.4857 38.9955C18.676 37.3302 18.8663 35.8077 19.0566 34.3328C19.1042 33.9046 18.7236 33.8095 18.4381 33.7143C17.5817 33.3337 16.8205 32.7627 16.0592 32.2394C15.2028 31.6684 14.8222 31.0024 15.2028 29.9556C16.1068 31.383 17.3438 32.3821 19.0091 32.7152C19.58 32.8579 20.0082 33.1909 20.484 33.524C22.8153 34.9513 26.2409 33.7143 25.9554 30.9548C25.3369 30.9548 25.099 31.5733 24.433 31.8112C25.0039 30.3838 26.1933 29.242 26.0506 27.434C25.67 28.0049 25.4321 28.338 25.1942 28.7186C25.4321 27.2913 26.1458 25.9115 25.6224 24.2939C24.8612 25.3881 25.099 26.8631 23.9572 27.7195C23.7669 26.9582 24.3378 26.53 24.4805 25.9591C24.6233 25.4357 24.9087 24.9124 24.6708 24.3414C24.0048 24.2939 24.0999 25.1978 23.4814 25.1978C23.3862 24.4842 24.0523 23.9608 24.0523 23.2471C23.3862 23.2947 23.1959 24.0084 22.625 24.1035C22.1968 23.7705 22.958 23.485 22.6726 23.152C22.0065 23.1044 21.6258 23.6753 20.817 23.9132C21.1976 23.485 21.4355 23.2471 21.721 22.9141C21.1501 22.6286 20.7219 22.9141 20.4364 23.2471C19.0091 24.5793 17.3438 25.6736 16.2971 27.434C15.9165 28.0525 15.7262 28.0525 15.5359 27.3864C15.4407 27.0058 15.2504 26.9106 14.9649 27.0058C12.253 27.767 10.5402 25.9591 8.63704 24.6269C8.0661 24.2463 7.59032 23.3899 6.73391 24.2463C6.49602 24.4842 6.30571 24.1511 6.25813 23.9132C6.21056 23.3899 6.02025 22.7714 6.63877 22.3907C7.8758 21.5819 9.30313 21.3916 10.5402 21.915C13.1094 23.0568 15.7262 22.7714 18.3905 22.6286C18.8187 22.6286 18.8187 22.5335 19.3897 21.7246C19.6276 21.3916 20.0082 21.5819 20.2937 21.5819C20.6267 21.5819 20.9597 21.5819 21.2452 21.5819C21.5307 20.9634 20.6743 21.1061 20.7694 20.6303C21.0073 20.2973 21.4831 20.7255 21.7686 20.3449C21.4355 20.107 21.1025 19.8691 20.7219 19.5836C21.1025 19.1554 21.5307 19.6312 21.9113 19.4885C22.054 18.87 21.2452 18.87 21.2452 18.299C21.388 17.8232 21.9589 18.3942 22.1968 17.966C21.8162 17.6329 21.388 17.2523 21.0073 16.8717C21.4355 16.4435 21.7686 17.062 22.1968 16.6814C21.1501 14.5879 19.2945 12.9703 17.772 11.0672C18.9615 11.0672 19.58 11.9236 20.7219 12.6372C20.1033 11.1147 20.1033 9.83013 20.0082 8.54552C20.0082 8.16489 19.6751 7.59396 20.2461 7.45122C20.817 7.30849 21.0073 7.87943 21.1501 8.35521C21.6259 9.54466 21.2452 10.7817 21.6259 11.9711C22.0065 13.1606 22.3871 14.3025 23.529 15.0637C22.625 13.0179 21.7686 11.0196 22.4347 8.68825C22.7677 10.7817 22.8629 12.9703 24.433 14.921C24.433 13.8267 24.4805 12.9227 24.433 12.0187C24.3854 11.4002 24.6708 11.3526 25.1466 11.4002C25.8127 11.4954 25.3845 11.8284 25.3369 12.0187C25.1466 13.113 25.0515 14.1597 25.4321 15.2064C25.6224 15.6822 25.2418 17.1096 26.6691 16.1104C27.0497 15.825 27.0497 16.7289 27.4304 16.9668C27.9537 16.8717 27.5255 16.2056 27.9537 16.0153C28.6198 16.1104 28.0013 18.3466 29.5714 16.9193C29.7141 17.6805 29.3811 18.3942 29.6665 19.1554C30.3802 18.5369 30.3326 17.4902 31.0463 16.8241C31.1415 17.6805 30.8084 18.3942 30.7132 19.203C31.6648 18.4893 31.76 17.2999 32.5212 16.3483C32.664 17.395 32.1406 18.2039 32.1406 19.4409C32.8543 18.1563 33.5204 17.2523 34.7574 17.1571C34.9001 17.1571 35.0429 16.8717 35.1856 16.8717C36.2799 17.0144 36.3275 17.0144 36.4702 15.9201C36.8508 13.3033 35.6614 11.4954 33.6155 10.068C33.1397 9.73497 32.6164 9.54466 32.3309 8.97372C35.1856 9.11645 37.4693 12.7324 37.1839 16.8241C38.0878 16.8241 38.5636 16.3007 39.0394 15.6346C39.6103 14.7782 40.4192 13.5412 41.3232 13.9218C42.2747 14.3025 42.0368 15.825 41.7989 16.7289C41.0853 19.2506 39.8482 21.4392 37.1839 22.3432C36.6605 22.5335 36.1372 22.7238 35.4235 23.0092C36.7557 23.485 37.4693 24.3414 37.85 25.4833C38.183 26.5776 38.2782 27.6243 37.9451 28.7186C37.3266 28.6235 37.5169 28.1477 37.5169 27.9098C37.6121 25.7212 36.2799 24.4366 34.6147 23.4374C34.1864 23.1996 34.1864 23.1996 33.5679 23.6278C33.2825 23.8181 33.0922 23.5326 32.8067 23.4374C31.9027 23.1996 31.1415 22.2956 29.8568 22.6762C30.3326 23.0568 30.7132 23.3423 31.189 23.6753C30.1899 23.8656 29.8093 22.9617 29.0004 22.8665C28.8101 23.4374 29.6665 23.4374 29.5238 23.9132C28.9053 24.1035 28.715 23.3899 28.144 23.2471C28.144 24.0084 28.8101 24.4366 29.0004 25.1027C28.5247 25.293 28.4295 24.6269 28.0489 24.6745C27.7634 25.2454 28.6198 25.5309 28.4295 26.0542C28.0489 26.1494 27.9537 25.6736 27.5255 25.626C27.7634 26.4349 28.2868 27.0058 27.8586 28.1001C27.3352 29.5274 30.1423 31.9539 31.76 32.0015C33.9961 32.0967 35.8041 31.383 37.3266 29.5274C37.0887 31.2878 36.042 32.4297 34.4719 32.8103C31.5221 33.4764 29.0956 32.5249 27.5731 30.0984C27.1449 30.2411 27.2876 30.6217 27.2401 30.9072C27.1925 33.0958 25.67 34.6659 23.529 34.6183C22.6726 34.6183 22.5298 35.0465 22.5298 35.6174C22.5774 38.4721 22.6726 41.3744 24.6708 43.7057C24.766 43.8484 24.8612 44.0387 24.9563 44.1815C25.0515 44.3242 25.1466 44.4669 25.3369 44.7524C25.7651 43.7057 25.7176 42.7541 25.4797 41.7074C26.2885 41.8502 25.8603 42.6114 26.4312 42.8017C26.8118 41.9453 26.574 41.0413 26.5264 40.1373C26.4788 39.614 26.003 39.1858 25.4321 39.1858C24.7184 39.1858 24.9563 39.8519 24.8612 40.2325C24.8136 40.7559 24.8612 41.2792 24.433 41.755C23.862 40.4704 24.4805 39.4237 25.099 38.4245C25.4797 37.8536 26.0506 37.9963 26.4312 38.377C26.907 38.8052 28.0013 38.8527 27.5731 39.9946C27.2401 40.8986 26.907 41.8501 27.3828 43.0396C28.2392 42.1356 29.0004 41.2792 29.8568 40.4228C30.285 40.9937 29.6665 41.3744 29.9044 41.8501C31.1415 40.8986 31.9503 39.7091 32.4736 38.3294C32.6164 37.9012 32.7591 37.2827 32.3309 36.902C31.9979 36.6166 31.3793 37.473 31.3318 36.9972C31.2842 36.4738 31.5221 36.2359 30.856 36.3787C30.4754 36.4738 30.0947 36.4738 29.7617 36.6166C29.3811 36.7593 29.048 36.9972 28.6198 37.2827C29.3335 36.1408 32.2833 35.2844 32.9494 36.0932C33.6631 36.9972 33.7582 38.1866 33.3776 39.2809C32.997 40.4228 32.3309 41.3744 31.3794 42.1832C31.8076 42.7066 32.7591 41.8502 32.7591 42.7066C32.7115 43.6105 32.4736 44.6097 31.7124 45.2758C30.9036 45.9894 29.9044 46.5128 28.8577 46.7983C28.4295 46.941 27.9537 47.0362 27.3828 47.2265C28.144 48.4635 29.1908 49.2247 30.4278 49.7957C32.4261 45.3709 34.4719 40.9937 36.2799 36.4738C38.4685 31.1451 41.1328 25.9591 43.5118 20.7255C44.7488 18.0136 45.8906 15.254 47.1753 12.5421C48.1744 10.4486 49.126 8.30763 51.5524 7.30849C53.2177 6.6424 53.9313 6.83271 54.7402 8.35521C56.6909 12.0663 58.3561 15.8725 60.2116 19.6312C61.2108 21.6771 62.4478 23.6753 63.5421 25.6736C64.9219 28.1477 66.254 30.6217 67.3483 33.2385C68.966 37.1399 70.8215 40.9462 72.7247 44.7524C73.1053 45.5612 73.6286 46.2749 74.0568 47.0837C74.4375 47.7974 74.9608 47.4168 75.389 47.3216C77.5776 46.7507 79.5759 45.6564 81.4314 44.3718C84.0958 42.5638 86.9981 40.851 88.8536 38.1391C91.6131 34.1425 94.4203 30.0508 93.9445 24.7221C93.3735 30.0984 90.8519 34.5231 87.3311 38.377C83.8579 42.1832 79.8614 45.3234 74.6754 46.5604C76.2454 45.7991 77.8631 45.0379 79.3856 44.1339C85.761 40.3277 90.7092 35.3795 92.2317 27.8146C92.8978 24.5793 92.6123 21.3916 90.6616 18.4893C88.9963 15.9201 88.4254 15.3016 86.0465 14.6355C87.9496 15.9677 89.2818 17.3475 90.2334 19.0603C92.1841 22.6762 92.0414 26.3397 90.5664 30.0984C88.3778 35.7602 84.3337 39.614 79.1001 42.4211C78.1961 42.8969 77.4349 43.8009 76.2454 43.8484C76.2454 43.1823 76.9591 43.0872 77.1018 42.5162C75.96 42.2784 74.8657 42.0405 73.6286 41.8026C73.9617 41.0889 74.3423 40.6131 74.9608 40.1849C75.0084 40.9462 77.197 42.1356 77.8155 41.8026C78.101 41.6123 78.0534 41.3268 78.0058 41.0413C77.9107 40.5655 77.7204 40.1373 77.6728 39.6616C77.5776 38.4721 76.6736 37.5205 77.197 36.0456C77.7679 34.3804 75.8648 32.287 74.1996 32.0967C74.4375 32.5724 74.7229 33.0482 74.8657 33.524C75.0084 33.9998 75.6269 34.2852 75.4366 34.9038C74.8657 35.0465 74.7705 34.5231 74.5326 34.2377C73.819 33.2385 72.7722 32.8579 71.5828 32.9055C71.2973 32.9055 70.8215 32.9531 70.774 33.2861C70.6788 33.6667 71.0594 33.8095 71.3449 33.9522C72.2013 34.3328 73.0577 34.7134 73.9141 35.1416C74.1044 35.2368 74.3899 35.2844 74.3423 35.7602C73.7238 35.9981 72.915 35.9505 72.3916 36.5214C71.9158 37.0923 71.7255 37.4254 72.5819 37.7109C73.5811 37.9963 74.5802 38.3294 75.5318 38.6148C76.0075 38.7576 76.4358 38.9003 76.5309 39.4712C75.7221 40.1849 74.9133 39.6616 74.152 39.4237C73.2956 39.1858 72.4392 38.9479 71.5828 38.6624C70.2506 38.1866 70.1555 37.8536 71.107 36.8545C71.4401 36.4738 71.8683 36.1884 72.2965 35.8077C71.5828 35.0465 70.774 34.8562 69.9651 34.5707C69.6321 34.428 69.1087 34.4756 69.0612 34.0474C68.966 33.5716 69.4418 33.3337 69.7748 33.0958C70.2506 32.7627 70.774 32.62 71.3449 32.4297C71.8683 32.2394 72.9625 32.6676 72.5819 31.3354C72.5343 31.0975 73.1529 30.9072 73.5335 30.8596C75.6745 30.3838 77.2922 31.2878 78.6243 32.8103C79.1953 33.4764 79.5283 34.0474 80.1468 32.9055C80.3847 32.4297 80.9081 32.3345 81.3839 32.4773C82.0024 32.6676 82.4306 33.0958 82.5257 33.7619C82.7636 35.4747 82.8588 37.1399 81.7645 38.6624C81.479 39.043 81.2411 39.4237 81.3363 39.947C84.524 38.0915 84.8571 35.1892 84.4764 31.5257C84.2861 29.5274 83.4297 27.7195 82.6209 25.9115C82.383 25.3406 81.9548 24.5793 82.5733 24.056C83.0967 23.6278 83.7628 24.1035 84.2861 24.389C85.761 25.2454 86.7126 26.4349 87.1408 28.1953C87.6642 30.479 87.4739 32.6676 86.9981 34.9038C89.4246 31.4306 91.3753 27.8146 90.6616 23.3423C90.281 20.8682 89.71 18.5369 87.7593 16.7765C87.236 16.3007 86.7126 15.825 86.0465 15.5871C85.1901 15.254 84.191 15.6346 83.7152 16.158C83.1918 16.6814 84.2385 17.0144 84.524 17.4426C84.7619 17.8232 85.1901 18.1087 85.428 18.4893C85.8562 19.1554 86.0465 20.0118 85.6183 20.6303C85.095 21.3916 84.4289 20.5828 83.8579 20.44C83.1918 20.2497 82.6685 19.6788 81.9548 19.5836C81.4314 24.6269 79.1001 27.8146 75.1987 28.671C70.4409 29.7177 66.9201 28.4331 64.8267 25.2454C63.1139 22.7238 63.3042 17.966 65.1598 15.7298C64.7316 17.2999 64.4461 18.6321 64.4461 20.0594C64.3985 22.0577 65.1598 23.7229 66.3492 25.2454C67.1105 26.197 68.2047 26.53 69.3466 26.8155C69.7748 26.9106 70.1554 27.3864 70.5361 27.6719C70.9643 27.3864 70.2982 27.0534 70.774 26.7203C71.3925 27.6243 72.2965 27.9098 73.5335 27.3864C73.5811 27.3388 73.1053 27.0058 73.3908 26.6728C74.0568 26.7679 74.4375 27.434 75.1036 27.6719C75.2463 27.1485 74.5326 26.9582 74.7229 26.4349C75.3414 26.2446 75.6745 27.101 76.4357 27.0058C75.8172 26.2446 75.2939 25.5785 74.7229 24.9599C75.5318 25.293 76.1503 26.0542 77.1494 26.2446C76.9591 25.0075 75.6745 24.7696 75.2463 23.5802C76.1503 24.1511 76.9115 24.6269 77.9107 25.2454C77.1494 23.9132 75.96 23.2947 75.4366 22.1053C76.2454 22.6762 77.0543 23.2471 78.0058 23.9132C77.9583 22.7238 76.864 22.581 76.7212 21.6295C77.7204 22.1053 78.3865 22.8189 79.1953 23.485C78.9098 22.2956 78.6719 21.7246 78.1961 21.2964C77.6252 20.7731 76.9591 20.3925 76.6261 19.4885C77.3873 20.0118 78.1486 20.4876 79.1477 21.2013C78.6243 20.0118 77.9107 19.3933 77.1018 18.7748C77.7204 18.5369 78.0534 19.0603 78.6243 19.0603C78.0058 18.0136 76.9115 17.6329 76.1027 16.7765C77.197 16.6338 77.9582 17.3475 79.0525 17.6329C78.1961 16.2532 76.5785 16.3483 75.5793 15.3016C76.0076 15.2064 76.3406 15.1589 76.7688 15.1113C75.7697 14.3976 74.6278 14.35 73.5811 14.017C73.4859 13.5412 74.0569 13.7315 74.152 13.4461C71.5352 12.2566 67.7766 12.9227 65.588 15.0161C66.2541 13.3509 66.5395 13.2082 71.7731 11.4002C70.5837 10.068 69.1563 9.21161 67.6338 8.49794C67.0629 8.21247 66.4444 7.97458 65.8259 7.68911C65.588 7.59396 65.3976 7.45122 65.4928 7.16575C65.6831 6.68997 65.921 7.02302 66.1589 7.16575C68.062 8.02216 69.9176 8.92614 71.4401 10.3535C71.8207 10.7341 72.2489 11.1147 73.0101 11.1623C72.4392 10.2108 71.9634 9.40192 71.4876 8.5931C71.9158 8.21247 72.2013 8.92614 72.5819 8.64068C72.011 7.40365 70.8215 6.83271 69.4893 6.02388C70.4409 5.73841 71.0119 5.45295 71.5828 5.1199C73.3432 4.07318 74.3423 4.45381 75.6269 6.40451C76.1979 7.26091 76.4833 7.45122 77.1018 6.45208C77.6252 5.69084 78.1961 4.64412 79.4332 5.26263C80.3847 5.73841 80.6226 7.0706 80.0993 8.35521C79.9565 8.64067 79.7186 9.0213 80.0041 9.25919C80.3371 9.54466 80.575 9.16403 80.8605 9.0213C81.3839 8.73583 82.0024 8.26005 82.2403 9.30677C82.3354 9.63981 82.6685 9.63981 82.9064 9.78255C85.0474 11.1147 87.8069 11.305 89.4246 13.6839C89.8052 12.78 89.4721 12.2566 89.377 11.7332C89.0915 10.1632 89.1867 8.68825 90.3285 7.4988C91.2325 6.59482 91.0422 6.11904 89.9003 5.78599C89.4246 5.64326 88.9488 5.40537 88.2827 5.1199C89.4246 4.07318 90.5189 2.97889 92.0414 2.78857C93.659 2.55068 95.2291 2.93131 96.704 3.64498C98.0838 4.31107 98.7498 5.45294 98.6547 7.0706C98.512 9.11645 97.7031 10.9244 96.7992 12.6848C95.1339 15.825 94.4678 19.0603 95.1339 22.6286C96.1806 28.2428 93.8969 33.1909 90.0431 37.1875C90.614 37.2827 90.9471 36.9496 91.3277 36.7593C92.2792 36.2359 93.3735 36.1884 94.1824 36.569C95.467 37.1875 96.6564 36.9972 97.8934 36.8545C98.3217 36.8069 98.8926 36.4263 99.1781 36.9496C99.4635 37.3778 98.845 37.7584 98.7023 38.1866C98.3692 39.0906 97.2749 39.0906 96.8467 39.8043C96.0855 41.1365 94.8009 41.5647 93.5638 42.1832C91.7083 43.0872 89.5197 42.8017 88.0924 41.2792C87.569 40.7083 87.2835 41.1841 86.9029 41.422C84.8571 42.7541 83.2394 44.7048 80.9081 45.6088C79.9089 45.9894 78.9574 46.4652 77.7679 46.9886C78.6243 47.5119 79.3856 47.6547 80.1468 47.6071C81.7645 47.5595 83.1443 48.0353 84.3337 49.082C84.3813 49.1296 84.4289 49.1772 84.4289 49.1772C86.4271 49.0344 87.6166 50.7948 89.1867 51.5561C90.4713 52.1746 91.7083 53.2213 93.1356 53.7922C94.1348 54.2204 95.3242 54.0777 96.0855 55.1244C95.8952 55.7905 95.2291 55.1244 94.896 55.5526C95.467 56.5042 95.7049 57.5985 96.5613 58.55C95.9428 58.8355 95.3718 59.3113 94.9436 58.4073C94.6581 57.8364 94.563 57.1703 94.4203 56.5042C93.8017 56.6945 94.3251 57.4082 93.7066 57.4558C93.2308 56.3615 93.1356 54.8865 91.8035 54.268C91.518 54.6486 92.0413 55.172 91.3753 55.4575C90.614 54.7438 90.2334 53.6971 89.377 53.031C88.9964 53.6019 89.6624 54.0301 89.377 54.7914C88.473 53.4592 87.9021 51.9843 86.2368 51.3658C86.3796 51.8415 86.5223 52.2697 86.7126 52.9358C85.8562 52.127 85.0474 51.7464 84.9046 50.6045C84.7619 49.653 82.2878 48.5587 80.7178 48.6062C81.3839 49.8433 83.3346 49.7005 83.5725 51.6512C82.383 50.8424 81.4314 49.8908 80.0517 50.4618C80.242 50.8424 80.4799 51.3182 80.8605 51.9843C79.6711 51.3658 79.2429 50.1287 78.1486 49.653C77.6728 50.4618 78.6243 50.6997 78.8146 51.3182C77.53 50.9376 77.3397 49.4151 76.1027 49.1296C75.8648 49.9384 76.9591 50.2239 76.8164 51.0803C76.293 50.6045 75.8172 50.1763 75.3415 49.7957C75.2463 49.8433 75.1987 49.8908 75.1036 49.9384C75.9124 51.4609 76.6736 52.9834 77.5301 54.4583C77.9583 55.2196 78.1486 54.1729 78.7195 54.3632C77.4349 56.8848 79.4807 58.9307 80.0041 61.2144C80.3847 63.0224 81.7169 64.7828 82.6685 66.5907C83.8103 68.7793 84.8571 70.9679 85.9038 73.1565C86.2844 73.9178 86.9981 74.2032 87.7117 74.2508C88.5206 74.346 87.569 73.6323 88.0924 73.3944C88.4254 73.6799 88.806 73.9653 89.1867 74.2984C89.5197 73.8226 88.9964 73.442 89.1391 73.0138C89.9955 73.1565 90.281 74.0129 90.8995 74.4887C91.1374 73.8226 90.3761 73.3944 90.5664 72.538C91.1849 73.2041 91.7083 73.8226 92.2792 74.4411C92.5171 73.6323 91.6607 73.2517 91.7083 72.5856C92.422 72.3953 92.422 73.442 93.0405 73.3468C93.2308 72.5856 92.4696 72.1098 92.4696 71.2534C93.326 71.634 93.6114 72.4904 94.3251 73.0614C94.5154 72.2049 93.7542 71.6816 93.8493 70.8252C94.2775 71.1107 94.7057 71.3961 95.1339 71.6816C95.467 70.6824 94.2775 70.397 94.2299 69.493C94.896 69.7309 95.3242 70.0164 96.1331 69.6833C97.0846 69.3027 97.4177 70.5873 97.4652 71.3485C97.6555 73.2041 96.704 74.7266 95.2767 75.6306C92.3268 77.4385 90.0907 78.057 86.9981 75.2975C89.8052 81.3399 92.3268 87.5727 98.0362 91.9498C96.1806 92.7111 94.5154 92.4256 92.8978 92.4256C86.8553 92.4732 80.8129 92.8062 74.7705 93.2344C73.5335 93.3296 72.344 93.2344 71.107 93.1869C70.774 93.1869 70.3458 93.2344 70.2506 92.8538C70.1079 92.4256 70.3933 92.1877 70.774 91.9974C72.4392 91.2362 73.6762 89.904 75.2939 89.0952C76.0551 88.7145 76.293 88.096 75.96 87.3348C74.3899 82.9576 72.7247 78.628 70.3933 74.679C70.203 73.442 69.4894 72.3953 68.966 71.0631C68.4426 71.9671 67.4911 72.2525 67.2532 73.1565C67.7765 73.3944 68.3475 73.1089 68.8708 73.442C68.062 73.9653 67.158 74.2984 66.3016 74.0605C64.9219 73.6323 64.0655 75.4878 62.6857 74.7742C62.6857 74.7742 62.5905 74.8693 62.543 74.9645C62.2099 75.6781 62.2099 75.6781 61.6866 75.4878C61.0205 75.2975 60.402 74.9169 59.5931 75.012C59.8786 75.6306 60.5923 75.6306 60.735 76.3918C59.6883 76.1539 58.8319 75.6306 57.7852 75.583C57.8803 76.1539 58.6416 76.2491 58.6891 76.9152C57.7376 76.9152 57.0715 76.0112 56.1199 75.9636C56.1675 76.5345 56.7384 76.7724 56.5481 77.3434C55.5014 77.2958 55.0256 76.1539 54.0265 75.916C53.8838 76.7249 54.8829 77.0579 54.645 77.9143C53.9313 77.4861 53.3128 77.1055 52.5991 76.6773C52.5516 77.2958 53.3128 77.5337 52.9798 77.9143C52.5516 78.3425 52.2185 77.7716 51.9806 77.4861C51.1242 76.5821 50.8863 77.391 50.363 77.9143C54.8829 79.1513 59.3077 80.1981 63.9703 78.961C63.447 78.5804 63.3994 78.3425 63.6373 77.9143C63.6848 77.8192 63.78 77.7716 63.7324 77.5813C63.3994 76.7249 63.5421 76.2491 64.4937 76.2491C66.6347 76.2491 68.5854 75.7733 70.3933 74.679ZM35.6614 52.2697C35.8993 51.6988 36.0896 51.1279 35.4711 50.6521C34.7098 50.0336 33.9486 49.4151 33.1873 48.7965C32.9018 48.6062 32.5212 48.3208 32.1882 48.6538C31.8075 49.0344 32.2357 49.3675 32.4261 49.6054C33.4252 50.5569 34.3292 51.6037 35.5662 52.3649C36.4702 53.8398 38.0403 54.7438 39.087 56.1236C39.3725 56.5042 39.9434 56.409 40.2289 56.1711C40.5619 55.8857 40.1337 55.6002 39.8958 55.3623C39.2297 54.6011 38.4685 53.8874 37.8024 53.0786C37.279 52.3649 36.5654 52.0794 35.6614 52.2697ZM78.4816 68.256C78.1961 69.0648 77.6728 68.8745 77.0543 68.6366C74.152 67.5899 71.2497 66.5907 68.2048 65.544C68.2999 66.448 68.5854 66.8762 69.2515 67.0665C72.1537 67.8753 74.7705 69.3027 77.6252 70.2067C78.101 70.3494 78.7195 70.6824 79.0525 70.3018C79.3856 69.9212 78.8147 69.4454 78.6719 69.0648C78.6243 68.8269 78.5292 68.5414 78.4816 68.256C78.101 67.8278 78.101 67.1141 77.3873 66.8762C75.4366 66.1625 73.5335 65.4013 71.5828 64.6876C70.0127 64.1167 68.4426 63.5933 66.7774 63.0224C67.0629 64.0691 67.6338 64.5449 68.4426 64.8303C70.2506 65.4964 72.011 66.3053 73.819 66.9238C75.3415 67.4471 76.7688 68.3987 78.4816 68.256ZM87.0932 85.955C86.9029 84.8131 86.4747 84.2422 85.1425 84.0519C82.05 83.6237 79.005 82.9576 75.8648 82.3866C75.9124 83.2906 76.293 83.7664 77.1018 83.9567C80.3847 84.6228 83.7152 85.3365 86.9981 86.0502C85.8562 86.6211 84.8095 86.0977 83.7152 85.9074C81.479 85.5268 79.2904 85.051 77.0067 84.8607C77.1018 85.8598 77.6252 86.1453 78.3865 86.3832C80.0517 86.859 81.7645 87.0969 83.4773 87.4299C85.2853 87.8105 87.0932 88.0009 89.2342 88.3339C88.4254 87.3348 87.9021 86.5259 87.0932 85.955ZM48.3647 76.0112C48.555 75.8209 48.6026 75.7257 48.6502 75.6781C48.7453 75.4403 48.8405 75.2499 48.8881 75.012C49.6017 72.538 50.8388 70.3494 52.7419 68.5414C54.5974 66.781 56.2151 67.1617 57.0239 69.6357C57.0715 69.7309 57.1666 69.826 57.2142 69.9212C58.0706 69.4454 58.594 68.3987 59.5931 68.4463C60.6874 68.4463 60.6398 69.8736 61.4962 70.397C61.972 69.2075 62.876 68.7793 64.0655 68.589C65.7307 68.3511 66.6823 69.3027 67.6814 70.3018C67.9193 70.5397 68.1572 70.8252 68.4902 70.6349C68.7757 70.4921 68.5854 70.2067 68.4902 70.0164C66.8726 66.5907 65.3025 63.2127 63.6373 59.8347C63.2566 59.0258 62.4478 59.3589 61.8769 59.5016C61.2108 59.6443 61.7341 60.2153 61.8293 60.5483C62.4002 62.5466 61.3535 64.2118 59.2125 64.7828C59.1649 63.0224 58.2134 61.7378 56.9288 60.6435C55.549 59.454 53.8838 59.5492 52.7419 61.0241C50.696 63.5933 49.5542 66.5432 48.7453 69.6357C48.1744 71.6816 47.8889 73.775 48.3647 76.0112ZM60.5923 49.0344C60.7826 50.319 61.5914 50.6521 62.3526 51.0327C65.2073 52.4125 68.1096 53.8398 70.9643 55.2672C71.5828 55.6002 72.344 55.8381 72.6295 56.98C68.9184 55.172 65.3501 53.7922 61.972 51.9367C60.9253 51.3658 60.6874 51.3182 59.498 51.6036C63.9227 54.4583 68.7757 56.6945 73.4859 59.1686C68.4426 56.9324 63.1615 55.1244 58.4037 52.1746C57.6424 51.6988 56.8336 51.2706 55.549 51.6512C56.453 52.2222 57.2142 52.6028 57.8803 53.1261C59.831 54.7914 62.9236 54.5535 64.4937 56.9324C64.5888 57.0751 64.9219 57.0751 65.1598 57.1703C67.8717 58.3122 70.6312 59.454 73.3432 60.6435C73.819 60.8338 74.4851 60.9289 74.3423 61.8805C71.1546 60.5959 68.0144 59.3589 64.7791 58.0267C64.7791 58.7879 64.9219 59.1686 65.5404 59.4065C67.9669 60.358 70.3458 61.3096 72.6771 62.4039C73.6762 62.8796 74.9132 63.07 75.7221 64.307C72.2489 63.2127 69.2039 61.4523 65.7307 60.7386C69.2039 63.3554 73.3908 64.3546 77.197 66.2577C75.4366 62.2136 73.6286 58.3122 71.7731 54.4108C71.6779 54.1729 71.4876 54.0777 71.2497 54.0301C69.9651 53.6019 68.7757 52.9358 67.5862 52.2697C65.4928 51.1279 63.2091 50.0336 60.5923 49.0344ZM46.5092 45.9894C46.1285 45.2282 46.0334 44.6097 45.9382 43.9912C45.6528 42.4687 46.081 40.9937 47.2704 40.2325C48.4123 39.5188 48.9832 38.71 49.2211 37.473C49.3163 36.9496 49.5542 36.1884 50.363 36.2835C51.0767 36.3787 51.3145 36.9972 51.4573 37.6157C51.6952 38.9955 52.4088 39.9946 53.408 40.9462C54.4547 41.8502 55.6442 42.8017 55.5966 44.3718C55.5966 45.0855 55.7869 45.2758 56.3578 45.6088C58.0231 46.5128 58.1658 48.3683 56.786 49.7005C56.5481 49.8908 56.2151 50.0812 56.3578 50.5094C56.9763 50.5094 57.5473 50.5094 58.1658 50.5094C59.9262 50.4142 59.9738 50.4142 59.2125 48.8441C56.7384 43.7533 54.7402 38.5197 52.4088 33.3337C51.8855 32.1442 51.3146 30.9072 50.6485 29.575C50.4106 29.9556 50.2678 30.0984 50.1727 30.2411C48.5074 34.2852 46.7946 38.3294 45.1294 42.3259C44.0827 44.8476 43.036 47.3692 42.0368 49.8908C41.8941 50.2715 41.3232 51.0803 42.2271 50.9851C43.8448 50.7948 45.4624 50.7948 47.2704 50.6997C46.1285 49.082 45.2721 47.5595 44.606 45.8943C45.3673 45.6564 45.8431 45.9419 46.5092 45.9894ZM50.4106 49.7481C50.6485 48.8441 50.8388 48.2732 50.9815 47.7023C51.6476 47.9401 51.5524 48.7014 52.0282 49.0344C52.6467 48.5111 52.2661 47.7974 52.3613 47.1789C52.6943 46.9886 52.7895 47.5119 53.0749 47.4168C54.8829 46.8458 55.6441 44.3242 54.3595 42.8969C52.8846 41.2316 51.267 39.614 50.6485 37.3778C50.6485 37.3302 50.5057 37.3302 50.3154 37.2827C49.8872 38.9003 49.5066 40.518 47.6035 41.2316C46.9849 41.4695 46.6519 42.3735 46.7471 43.3726C46.9374 45.3233 48.7453 46.4176 48.8881 48.6062C49.3163 47.7498 49.1735 47.1313 49.6017 46.7031C50.4581 47.4168 50.4581 48.4159 50.4106 49.7481ZM45.4624 74.6314C44.7488 69.2075 47.1277 64.64 49.3638 60.025C45.9858 63.1175 44.7963 67.3996 43.3214 71.634C43.1787 68.0181 41.9892 64.8779 39.7531 62.166C40.6571 64.5449 42.0368 66.7335 42.3223 69.3978C41.7038 69.2075 41.7514 68.7793 41.6562 68.4463C40.7522 65.9246 39.6579 63.4982 37.85 61.4047C37.5645 61.0717 37.2314 60.5007 36.7081 60.9289C36.3275 61.262 36.7557 61.6902 36.9936 62.0232C39.1346 65.3537 40.7522 68.9696 41.8941 72.7759C42.2747 74.0605 42.7981 75.3451 43.2739 76.6297C43.4166 76.9628 43.6545 77.3434 44.1303 77.2006C44.4633 77.1055 44.3682 76.7249 44.3682 76.487C44.3682 76.2015 44.273 75.916 44.273 75.6306C44.2254 73.5847 44.0351 71.4913 45.1294 69.3503C45.1294 71.2058 44.606 72.9662 45.4624 74.6314ZM59.0222 27.434C58.7367 25.0551 56.3578 24.8648 55.3111 23.2947C56.3578 23.485 56.9288 24.389 57.8803 24.4842C57.2142 23.8656 57.4521 22.7714 56.6909 22.248C53.6459 20.3449 50.5533 18.4418 47.4607 16.5386C47.1277 16.3483 46.7946 15.825 46.414 16.4435C46.081 16.9668 46.3189 17.3475 46.7471 17.6329C47.3656 18.0611 48.0317 18.4418 48.6502 18.8224C50.0299 19.7264 51.5524 20.3925 52.6943 21.6771C52.3137 21.6295 51.9806 21.5343 51.6476 21.344C49.9824 20.3449 48.3647 19.2982 46.6995 18.299C46.3664 18.1087 45.9382 17.4902 45.51 18.1087C45.1294 18.6796 45.5576 19.0603 46.0334 19.3933C46.8422 19.9167 47.6986 20.44 48.555 20.9634C52.0282 23.1044 55.4538 25.2454 59.0222 27.434ZM53.9313 81.7206C54.1692 82.8148 55.3587 82.6721 55.8345 83.5285C53.2177 83.5285 51.9331 81.3875 50.0299 80.1981C50.0775 80.4835 50.0775 80.5787 50.1251 80.6263C53.741 84.3849 58.4037 86.0977 63.2091 87.6678C63.8276 87.8581 63.9703 87.4775 63.6373 86.9541C62.7809 85.7647 62.543 84.8131 64.4461 84.4801C64.8743 84.3849 64.9694 84.0519 64.7315 83.7188C64.113 82.8148 63.3994 81.9584 62.2575 81.2448C62.4002 82.4818 63.8276 82.7673 63.5421 83.9567C62.3051 83.4809 61.5438 82.2439 60.0213 81.9584C60.5923 82.7197 61.0205 83.3382 61.4962 83.9567C59.3552 82.9576 57.69 81.1972 54.9305 80.8641C55.882 81.6254 56.5481 82.1963 57.4045 82.91C55.9772 82.9576 55.2159 81.8633 53.9313 81.7206ZM77.9583 78.2474C76.6736 78.4852 75.7697 78.057 74.8181 77.9143C74.4375 77.8667 73.8665 77.4861 73.6762 78.0095C73.4859 78.5328 73.9141 79.0086 74.485 79.1989C75.4366 79.4844 76.3882 79.7223 77.3397 79.9126C79.8614 80.4835 82.3354 81.0069 84.8571 81.5302C83.62 78.628 80.2896 79.9126 78.2437 78.1522C80.242 78.2474 81.9072 78.8183 83.6676 79.1989C83.62 77.724 82.7636 77.6288 81.6693 77.3909C78.6243 76.7724 75.5793 75.9636 72.4868 75.2024C72.5819 76.5821 73.4383 76.9628 74.485 77.1055C75.5318 77.3434 76.6736 77.5813 77.9583 78.2474ZM70.2506 70.2542C70.203 70.8728 70.3933 71.3961 70.7264 71.4913C74.2472 72.7283 77.8155 73.8702 81.7169 75.2024C80.9557 73.6799 80.4323 72.5856 79.8614 71.4913C79.7186 71.2534 79.5759 70.9679 79.2428 71.1106C78.6243 71.3485 78.1961 70.9203 77.6728 70.7776C74.9133 69.9212 72.1537 69.0648 69.299 68.2084C69.4894 69.16 69.9176 69.3978 70.5837 69.6357C73.7238 70.6824 76.8164 71.7767 79.909 72.8235C80.0517 72.871 80.242 72.9662 80.0517 73.3468C76.7688 72.3001 73.5335 71.301 70.2506 70.2542ZM32.5212 21.6295C36.2799 22.9617 42.2271 19.6312 41.2756 14.3976C39.991 16.2532 38.1354 17.2047 36.5654 18.4893C34.9001 19.8691 32.7115 19.9642 30.856 21.1061C31.9027 21.1061 32.9018 21.1061 33.9486 21.1061C33.4728 21.4392 32.997 21.2964 32.5212 21.6295ZM60.2592 30.3363C60.1641 29.2895 59.8786 28.7186 59.1173 28.2904C57.5948 27.434 56.1675 26.4824 54.6926 25.5309C51.7903 23.7229 48.8881 21.8674 45.9858 20.0594C45.6528 19.8215 45.2721 19.4885 44.8915 19.9642C44.4157 20.5352 44.8915 20.8207 45.2721 21.1061C45.6528 21.3916 46.0334 21.6771 46.414 21.915C47.8413 22.8665 49.2211 23.8656 50.7436 24.7221C53.8362 26.53 56.786 28.6235 60.2592 30.3363ZM44.5585 81.7206C45.4149 83.7188 46.1761 85.4792 46.9849 87.2396C47.318 87.9057 47.6986 88.5718 48.0792 89.1903C49.6017 91.5216 52.171 92.4732 54.4071 91.5216C54.1217 90.8555 53.6459 91.2362 53.2177 91.1886C52.5992 91.141 52.4564 90.5701 52.2185 90.1419C52.0282 89.7612 51.7428 89.4282 51.1242 89.1903C51.4097 89.8088 51.6 90.1894 51.8379 90.7604C51.0291 90.4749 50.5057 90.1894 50.2202 89.5709C49.6017 88.3815 48.9356 87.192 48.3647 85.955C47.8889 84.9083 47.0325 83.9567 47.4131 82.577C47.5083 82.1963 46.9849 81.7681 46.4616 81.7681C45.8906 81.7206 45.3673 81.7206 44.5585 81.7206ZM35.9944 62.0232C35.3283 63.3554 34.7574 64.5925 34.1389 65.8295C33.9961 66.1625 33.7582 66.4956 34.2816 66.7811C36.375 67.9229 38.183 69.493 40.0861 70.9679C39.1346 67.8278 37.9927 64.7828 35.9944 62.0232ZM47.3656 60.2153C44.9391 60.2153 42.7505 60.2153 40.3716 60.2153C41.6562 62.4514 42.9408 64.3546 43.94 66.6859C44.9391 64.2594 45.7003 62.0708 47.3656 60.2153ZM29.6665 51.794C24.0999 47.8926 20.6743 42.8017 20.2937 35.8553C17.8196 41.755 25.2418 51.5561 29.6665 51.794ZM45.6528 28.9565C44.273 28.5759 43.5593 27.7195 42.6078 27.2437C42.3223 27.101 42.0368 26.6252 41.6562 27.1485C41.3707 27.5767 41.561 27.9098 41.9892 28.1953C42.9408 28.8138 43.8448 29.4799 44.7488 30.0984C45.177 30.3838 45.4149 30.1935 45.6052 29.7653C45.7479 29.3847 45.9858 29.0041 46.081 28.5759C46.3189 27.4816 47.8414 26.6252 47.0801 25.4833C46.4616 24.5317 45.177 24.1987 44.0827 23.7229C43.7972 23.5802 43.5117 23.1044 43.1787 23.7229C42.9884 24.1511 43.0835 24.4366 43.4166 24.6745C44.0351 25.1027 44.606 25.5785 45.177 26.0067C44.7012 26.0067 44.3206 25.7688 43.9875 25.5785C43.5118 25.3406 42.9408 24.7696 42.5126 25.3881C41.9893 26.0542 42.8457 26.2921 43.2263 26.6728C43.8924 27.434 45.0342 27.6719 45.6528 28.9565ZM54.3595 71.9671C54.6926 72.6331 54.0741 73.2517 54.4071 73.8226C55.7869 73.0138 55.882 69.9212 54.5498 68.3511C54.1216 68.6842 53.6459 69.0172 53.2653 69.3978C51.6476 70.9203 50.4106 72.7283 49.3638 74.679C49.2211 74.9169 49.0784 75.2499 49.4114 75.4403C49.7445 75.6306 49.8396 75.2499 50.0299 75.0596C50.3154 74.7266 50.4106 74.2032 50.9815 74.1556C51.2194 74.4411 50.696 74.8217 51.2194 75.1072C51.7427 74.2032 52.2661 73.2992 52.7895 72.3953C53.3128 72.4428 52.8846 73.1565 53.3128 73.1565C53.7886 72.8235 53.6934 72.1098 54.3595 71.9671ZM23.4338 20.1546C23.4338 21.6295 24.4805 22.581 26.0982 22.581C27.4779 22.5335 28.1916 21.6771 28.1916 19.8691C28.1916 18.9175 27.0973 18.0135 25.9079 18.0135C24.0048 18.0611 23.3862 18.5369 23.4338 20.1546ZM61.5438 33.4288C61.6866 32.4773 61.3059 32.0015 60.6398 31.6209C58.8795 30.5742 57.1667 29.4323 55.4063 28.338C53.5983 27.1961 51.8379 26.0542 49.8396 24.7696C49.9824 25.7212 50.1251 26.4824 50.696 26.9106C54.1692 29.242 57.7852 31.3354 61.5438 33.4288ZM57.7852 42.992C58.0706 44.0387 58.4988 44.6097 59.3077 45.0855C61.9244 46.6555 64.7791 47.7498 67.4435 49.2723C68.2523 49.7481 68.966 50.3666 69.9176 50.6045C69.5845 48.9869 69.5845 48.9393 67.8241 48.0829C64.5412 46.4176 61.3059 44.8 57.7852 42.992ZM65.921 42.1832C66.0162 42.0405 66.1113 41.9453 66.2065 41.8026C63.0663 38.0915 58.3085 36.9496 54.1692 34.2377C54.4071 35.332 54.5974 35.9981 55.3587 36.3787C58.8319 38.3294 62.4002 40.2325 65.921 42.1832ZM92.1841 90.7604C91.6607 89.9991 91.1374 89.5709 90.4237 89.3806C86.5699 88.3339 82.5733 88.0009 78.6719 87.1444C78.3865 87.0969 77.9582 86.859 77.9107 87.4299C77.8631 87.8105 78.0534 88.0484 78.434 88.1436C78.6719 88.1912 78.9098 88.2387 79.1001 88.2863C83.3821 89.333 87.6166 90.1894 92.1841 90.7604ZM71.2497 72.5856C71.3925 73.4896 71.5352 74.0129 72.2965 74.2984C75.6745 75.583 79.2429 76.1063 82.6685 77.2006C82.4306 75.8209 81.5742 75.5354 80.4323 75.1548C77.4349 74.2508 74.3899 73.6323 71.2497 72.5856ZM63.3518 36.6641C62.6857 34.9038 54.5499 29.6226 51.6 28.7662C51.7903 29.7177 52.2185 30.4314 53.1701 30.9072C54.2168 31.383 55.2159 32.0491 56.2151 32.6676C58.4988 33.9046 60.7826 35.1892 63.3518 36.6641ZM59.1649 45.8943C59.5456 47.0362 59.7834 47.7023 60.5923 48.0829C62.4478 48.9393 64.2082 49.8908 66.0162 50.7472C67.729 51.6036 69.4418 52.4601 71.3925 53.4116C71.0594 52.5552 70.9643 52.0319 70.2982 51.6988C68.633 50.89 67.0153 49.9384 65.3501 49.0344C63.3994 48.0829 61.4487 47.0837 59.1649 45.8943ZM56.1675 21.2013C55.7869 20.5352 55.7869 19.7264 54.978 19.203C52.6943 17.7757 50.4581 16.2056 48.1744 14.6831C47.8413 14.4928 47.5559 13.9694 47.1753 14.6355C46.9374 15.0637 46.9849 15.3492 47.4607 15.6822C50.2678 17.6329 53.0273 19.6312 56.1675 21.2013ZM55.6917 37.6633C55.9772 38.9003 62.4954 42.992 67.5387 45.1806C67.158 44.1815 66.8726 43.4202 65.7783 42.992C64.3985 42.4687 63.1139 41.6598 61.7817 40.8986C59.831 39.7567 57.8803 38.5197 55.6917 37.6633ZM68.6805 47.9877C68.633 47.2741 68.5854 46.6555 67.8241 46.2749C64.4461 44.5145 61.1156 42.659 57.7852 40.851C57.4521 40.6607 57.1191 40.2801 56.2627 40.7559C60.0689 43.9912 64.7791 45.2758 68.6805 47.9877ZM33.33 81.5778C32.6164 81.5302 32.1882 81.8157 31.7124 82.0536C31.2366 82.2915 30.6657 82.4342 30.8084 83.1003C30.9511 83.6713 31.4269 83.8616 31.9503 84.0043C32.9494 84.2422 33.6631 83.6237 34.4719 83.2906C34.7574 83.1955 35.0904 82.9576 35.3759 83.243C35.6138 83.4809 35.3759 83.7664 35.2807 84.0043C34.9001 85.3365 34.9953 86.5735 35.9468 87.7154C36.2799 88.096 36.6605 88.4766 37.1363 88.2387C37.5169 88.0484 37.279 87.5251 37.1839 87.192C36.9936 86.6687 37.1839 85.955 36.5654 85.4316C36.5178 86.0026 36.4226 86.4308 36.375 87.0493C35.5186 85.051 35.6614 83.1955 36.4226 81.2448C35.0904 81.5302 34.0913 82.1488 32.8067 82.6721C33.0446 82.1963 33.1397 81.9109 33.33 81.5778ZM82.6685 14.7307C81.8121 15.254 80.9081 14.7307 80.2896 15.3968C82.0024 15.7774 83.4773 15.5395 84.524 14.017C83.1918 13.0179 81.9072 13.8743 80.5275 14.1597C82.0024 12.2566 82.0024 12.2566 81.8121 10.4962C80.4323 11.1147 78.9098 11.4002 78.1486 13.0654C79.1477 13.2557 79.6711 12.3518 80.575 12.4469C80.3372 13.0179 80.0041 13.3985 79.5283 13.6364C79.2429 13.7791 78.6719 13.8267 78.8622 14.35C79.0525 14.8258 79.5283 14.5404 79.8614 14.5879C80.7654 14.7782 81.6218 14.2073 82.6685 14.7307ZM81.7169 33.0482C79.9565 33.9998 79.3856 35.4747 79.2428 37.0923C79.1953 37.7109 78.1961 38.2818 78.7671 38.6624C79.4332 39.0906 79.4332 37.7109 80.242 37.6157C79.9089 38.71 79.4808 39.7091 79.4332 41.1841C81.479 38.6624 82.0975 36.0932 81.7169 33.0482ZM52.9798 31.5257C53.3128 32.9531 61.3059 37.9963 64.3509 38.9479C64.3509 38.4245 64.2082 38.0439 63.7324 37.7584C60.2116 35.7126 56.6909 33.7143 52.9798 31.5257ZM85.9514 83.6237C85.761 82.6721 85.2853 82.1012 84.191 81.9584C82.7161 81.7681 81.2411 81.3875 79.7662 81.1496C78.1486 80.8642 76.5309 80.5787 74.7705 80.2932C75.3415 81.2924 82.6685 83.3382 85.9514 83.6237ZM31.8551 50.0812C31.4745 50.0336 31.3318 50.2239 31.2366 50.4142C30.9987 50.8424 30.9987 51.223 31.3794 51.5561C32.664 52.7455 33.901 53.935 35.1856 55.0768C35.6614 55.5051 36.1371 55.9808 36.6605 56.3615C37.0411 56.6469 37.5645 56.5993 37.85 56.3139C38.2306 55.8857 37.6596 55.6954 37.4218 55.4575C35.7089 53.7922 33.9961 52.127 32.2833 50.4618C32.1406 50.319 31.9503 50.1763 31.8551 50.0812ZM23.6241 91.9023C23.5765 91.2362 23.0532 91.141 22.6726 90.9031C20.2937 89.4282 18.1051 87.6678 15.631 86.3832C15.2028 86.1453 14.8222 85.4316 14.3464 86.0502C13.9658 86.5735 14.727 86.859 14.9649 87.2872C15.0601 87.4775 15.298 87.5727 15.5359 87.7154C17.439 88.8573 19.2945 90.0467 21.2452 91.0459C21.9113 91.3789 22.6726 91.9974 23.6241 91.9023ZM28.8101 55.9333C28.1916 56.2187 28.2868 56.5993 28.6198 56.9324C29.3811 57.6936 30.1899 58.4073 30.9511 59.1686C31.1414 59.3589 31.4269 59.5492 31.0939 59.8347C30.9036 60.025 30.6657 59.8822 30.4754 59.7395C29.8093 59.121 29.1908 58.5025 28.5247 57.9315C28.2868 57.7412 28.0489 57.3606 27.7158 57.6936C27.4304 57.9791 27.5255 58.3122 27.7158 58.5976C28.0965 59.3113 28.8101 59.5968 29.3811 60.1201C31.1415 61.6902 31.0939 61.6426 32.0454 59.4065C32.3309 58.7879 32.1882 58.3597 31.7124 58.0743C30.8084 57.5509 30.0472 56.8372 29.2859 56.1711C29.1432 56.076 28.9529 56.0284 28.8101 55.9333ZM76.5309 12.9227C79.8138 11.3526 80.0993 8.92614 79.6235 7.21333C79.3856 6.45209 79.1001 6.35693 78.6243 7.02302C77.7204 8.21247 77.1494 9.59224 76.5785 11.0196C77.4349 11.0196 77.6252 10.1632 78.2913 9.92528C78.0058 11.0672 76.9115 11.6381 76.5309 12.9227ZM19.913 91.7119C19.913 91.3789 19.6751 91.1886 19.4373 91.0459C17.7244 89.8564 16.0116 88.6194 14.1085 87.6678C13.7755 87.5251 13.49 87.3823 13.2045 87.6678C12.8239 88.0484 13.2045 88.4291 13.4424 88.6194C15.0601 90.1419 17.0108 91.1886 19.0566 91.9498C19.3421 92.045 19.7703 92.0926 19.913 91.7119ZM86.0941 90.6176C83.3822 89.9991 80.7178 89.4282 78.0058 88.8097C77.3397 88.6669 76.9115 88.9524 76.5309 89.6661C79.7662 90.237 82.7636 91.6644 86.0941 90.6176ZM23.7193 66.2101C24.0048 67.6374 25.0039 68.256 25.8127 68.9696C26.1458 69.2551 26.574 70.2067 27.0973 69.4454C27.5731 68.7793 28.4295 67.9229 27.5731 66.9714C26.907 66.2101 26.1933 65.544 25.4321 64.9255C25.1942 64.7352 24.9087 64.2118 24.5281 64.6876C24.1951 65.0682 24.4805 65.4489 24.766 65.6868C25.4797 66.4004 26.1933 67.0665 26.907 67.7326C27.0973 67.9229 27.4304 68.1132 27.1449 68.4463C26.907 68.7317 26.6691 68.4939 26.4312 68.3035C25.5748 67.6375 24.9563 66.6383 23.7193 66.2101ZM54.4071 17.9184C54.0265 16.1104 52.9322 15.1113 51.0767 15.0637C50.8863 15.0637 50.8388 14.9686 50.8388 14.8258C50.8388 13.3033 49.2687 13.3985 48.5074 12.6372C48.1268 12.3042 47.9841 12.6848 47.7462 12.9227C47.3656 13.3509 47.651 13.5412 48.0317 13.7791C50.1251 15.2064 52.3613 16.3959 54.4071 17.9184ZM54.5023 50.3666C55.6917 49.9384 56.5481 49.1772 56.6909 47.7974C56.786 46.8934 56.3102 46.4176 55.4063 46.7983C53.9789 47.3692 53.3604 48.6062 52.7895 50.0336C53.5983 50.0336 53.8838 49.3199 54.3595 49.3675C54.7877 49.7005 54.0741 49.986 54.5023 50.3666ZM59.6883 55.3147C57.2618 53.364 53.8362 51.794 52.8846 52.1746C55.6441 54.6962 58.0231 55.7905 59.6883 55.3147ZM21.388 88.667C20.0082 86.6687 17.9148 85.5744 15.9641 84.3849C15.7262 84.2422 15.3455 84.2422 15.2028 84.5277C15.0601 84.8131 15.298 85.051 15.4883 85.2413C17.2487 86.7162 19.1994 87.8105 21.388 88.667ZM91.851 14.35C91.9938 12.3993 92.0889 10.7341 92.1841 9.06888C92.1841 8.78341 92.3268 8.35521 91.8986 8.21247C91.518 8.11732 91.3277 8.49794 91.1849 8.78341C90.1382 10.4011 90.281 12.3042 91.851 14.35ZM43.94 52.1746C46.3189 55.0768 48.2695 56.1711 49.7445 55.4575C47.6035 54.5059 46.4616 52.2222 43.94 52.1746ZM44.5109 21.4392C44.1778 21.4392 44.1303 21.7246 43.9875 21.915C43.7021 22.3432 43.9399 22.6762 44.273 22.8665C45.2721 23.5326 46.3188 24.1511 47.3656 24.8172C47.7462 25.0551 47.9841 25.0075 48.1744 24.6269C48.3171 24.3414 48.6502 24.056 48.3171 23.7705C47.1277 22.7714 45.7003 22.248 44.5109 21.4392ZM35.4235 56.409C33.9486 54.9817 32.6164 53.7447 31.2366 52.4601C30.9987 52.2697 30.7608 51.8415 30.4278 52.127C29.9996 52.4601 30.2375 52.8883 30.5229 53.2213C31.5221 54.268 32.5212 55.3623 33.6631 56.2187C34.1389 56.5993 34.6147 56.6469 35.4235 56.409ZM21.0073 84.3373C21.1501 84.1946 21.2928 84.0995 21.388 83.9091C21.5783 83.5761 21.388 83.2906 21.1025 83.0527C20.1034 82.1963 19.1518 81.3399 18.1526 80.4835C17.8672 80.2456 17.6293 79.865 17.2011 80.2932C16.7729 80.7214 17.0583 81.102 17.3914 81.3875C18.3905 82.2915 19.4373 83.1479 20.4364 84.0519C20.6267 84.147 20.7694 84.1946 21.0073 84.3373ZM49.459 51.8891C51.7428 52.6979 52.7895 55.6954 55.6442 55.505C53.6935 54.0777 52.0282 52.2222 49.459 51.8891ZM46.8898 52.0794C48.6977 53.3165 49.9348 55.5526 52.4564 55.5526C50.6009 54.3632 49.2687 52.3173 46.8898 52.0794ZM38.5636 52.3649C39.4676 54.268 41.8941 56.1236 43.1311 55.8381C41.9892 53.935 39.8007 52.2222 38.5636 52.3649ZM16.3923 91.8547C16.2971 91.7119 16.2495 91.5216 16.1068 91.4265C14.9649 90.6652 13.8706 89.9516 12.6812 89.2379C12.3005 89 11.9675 89.333 11.7296 89.6661C11.4441 90.0943 11.8248 90.2846 12.0627 90.4273C13.1094 91.0459 14.1561 91.6168 15.2504 92.1401C15.631 92.2829 16.1068 92.4256 16.3923 91.8547ZM16.6302 42.2784C17.2011 42.2784 18.0575 42.2308 18.2002 41.6123C18.343 41.0413 17.4866 40.851 17.0108 40.6131C16.4398 40.2801 15.7737 40.1373 15.1077 40.1373C14.2512 40.0898 14.1561 40.518 14.394 41.2316C14.8222 42.1832 15.7262 42.088 16.6302 42.2784ZM52.9322 14.7307C52.7419 12.5421 50.7912 12.0663 49.5066 10.972C49.2687 10.7817 49.0308 10.639 48.8405 11.0196C48.6502 11.4002 48.555 11.6857 48.9356 12.0187C50.1727 13.0654 51.4573 14.017 52.9322 14.7307ZM20.4364 86.2405C20.817 85.7171 20.6267 85.3365 20.2937 85.0034C19.3897 84.1946 18.4857 83.3858 17.5341 82.6245C17.2011 82.3391 16.7729 81.9109 16.3447 82.5294C15.9165 83.1003 16.4398 83.3858 16.8205 83.6713C17.9623 84.5277 19.1518 85.3365 20.4364 86.2405ZM75.8172 10.972C76.6736 8.49794 75.9124 6.59482 73.6762 5.83357C74.5326 7.54638 74.7229 9.30677 75.8172 10.972ZM83.6676 25.4357C84.9522 28.5759 85.4756 31.6209 85.3804 34.8086C86.3796 31.5733 85.5232 26.197 83.6676 25.4357ZM32.5212 57.8839C32.7591 57.9791 32.8543 57.7888 32.9494 57.6461C33.1873 57.2654 33.0922 56.98 32.7591 56.6469C31.8551 55.8857 30.9987 55.0768 30.1423 54.3156C29.952 54.1729 29.7617 53.7922 29.4762 54.1253C29.3335 54.3156 29.2383 54.6486 29.2859 54.8865C29.2383 55.2196 32.1882 57.8364 32.5212 57.8839ZM33.5679 46.7031C33.2349 46.6555 33.0446 46.8458 32.9494 47.0362C32.7115 47.4168 32.9018 47.7022 33.1873 47.8926C33.9961 48.6062 34.8525 49.2723 35.7089 49.9384C35.9944 50.1763 36.2799 50.5569 36.6129 50.0812C36.8984 49.7005 36.7081 49.3675 36.4226 49.1296C35.6614 48.4635 34.9001 47.7498 34.1389 47.0362C33.9486 46.8934 33.7107 46.7507 33.5679 46.7031ZM37.6121 47.9877C37.6121 47.5595 37.3266 47.3216 37.0411 47.0837C36.2799 46.5128 35.5186 45.9894 34.7574 45.4661C34.5195 45.3234 34.2816 44.7048 33.901 45.2758C33.6631 45.6088 33.6631 45.9419 33.9961 46.2749C34.8525 47.0837 35.7565 47.7974 36.7557 48.4159C37.279 48.749 37.4218 48.4159 37.6121 47.9877ZM34.3768 80.3884C32.2833 80.1029 30.5229 79.865 28.7626 80.0077C28.4295 80.0077 28.0489 80.0553 28.0489 80.4835C28.0489 80.8641 28.3819 80.8642 28.6674 80.9117C30.4754 81.2448 32.2833 81.2923 34.3768 80.3884ZM35.8993 41.2792C35.4711 41.7074 35.0904 42.0405 35.6138 42.5638C36.2323 43.1823 36.946 43.7533 37.6121 44.3242C37.9451 44.6097 38.2782 45.3709 38.8015 44.9427C39.42 44.4194 38.8491 43.8009 38.4209 43.3726C37.9451 42.8969 37.3742 42.4211 36.8508 41.9929C36.5654 41.7074 36.2799 41.5171 35.8993 41.2792ZM59.2601 69.5406C57.4045 70.4921 56.5481 71.9195 55.9296 73.775C57.0715 73.2992 57.5473 72.4428 58.0706 71.634C58.2609 72.1574 57.8327 72.538 58.1182 72.9662C59.0698 72.0622 59.3552 70.9679 59.2601 69.5406ZM41.0853 52.4601C42.3699 53.5068 43.5118 54.5059 44.7012 55.505C44.8439 55.6478 44.9867 55.7905 45.1294 55.8857C45.4149 56.076 45.7955 56.1711 46.0334 55.8857C46.2713 55.6002 45.8906 55.4099 45.7003 55.2196C44.7488 54.3156 43.7496 53.4592 42.7981 52.5552C42.3223 52.2222 41.8941 51.9367 41.0853 52.4601ZM26.2885 61.2144C26.2409 61.2144 26.0982 61.262 26.0506 61.3571C25.8603 61.6426 25.9554 61.9281 26.1933 62.1184C27.0497 62.9748 27.9537 63.8312 28.8101 64.64C29.0004 64.7828 29.1908 64.9255 29.4286 64.7352C29.6665 64.5449 29.7617 64.2594 29.6665 63.9739C29.5714 63.4506 26.907 61.2144 26.2885 61.2144ZM36.8032 39.614C36.375 39.5664 36.2323 39.7567 36.1847 39.9946C36.0896 40.2325 35.8993 40.4704 36.2323 40.7083C37.1839 41.422 38.0879 42.1356 38.9918 42.8493C39.2297 43.0396 39.5152 43.1823 39.7055 42.8493C39.8007 42.659 39.9434 42.2784 39.8958 42.2308C38.8967 41.3268 37.8024 40.4704 36.8032 39.614ZM40.1813 41.2316C40.4192 41.3268 40.5143 41.1365 40.6095 40.9937C40.7998 40.6607 40.7998 40.3752 40.4667 40.0898C39.6103 39.3285 38.8015 38.5673 37.9927 37.806C37.8024 37.6633 37.6121 37.2827 37.3266 37.6157C37.1363 37.806 36.9936 38.0915 37.0411 38.377C37.1363 38.6148 39.8958 41.1841 40.1813 41.2316ZM26.5264 70.9679C26.574 70.5873 26.2885 70.397 26.0506 70.1591C25.2894 69.493 24.4805 68.8269 23.6717 68.2084C23.4338 68.0181 23.1959 67.685 22.8629 68.0657C22.5298 68.3987 22.7677 68.6842 23.0056 68.9221C23.862 69.7785 24.766 70.5873 25.67 71.3485C26.1933 71.7767 26.4312 71.4913 26.5264 70.9679ZM37.8024 46.8934C38.3257 46.608 38.4209 46.1798 38.0878 45.8467C37.279 44.9903 36.4226 44.2291 35.5662 43.4678C35.3283 43.2775 34.9953 43.0872 34.7098 43.4202C34.4243 43.8009 34.4719 44.0863 34.8525 44.3718C35.7089 45.0855 36.5178 45.8467 37.3742 46.608C37.4693 46.7507 37.6597 46.7983 37.8024 46.8934ZM38.3733 35.665C38.1354 35.665 38.0403 35.8077 37.9451 35.9505C37.8024 36.3311 37.7548 36.6641 38.1354 36.9496C38.9918 37.6157 39.8007 38.3294 40.6095 38.9955C40.8474 39.1858 41.1328 39.4712 41.4183 39.0906C41.6562 38.7576 41.561 38.4721 41.2756 38.2342C40.4668 37.473 39.6103 36.7117 38.8015 35.9505C38.7064 35.8553 38.516 35.7602 38.3733 35.665ZM84.5716 12.3518C87.9021 13.9218 90.7567 15.6346 92.5647 18.7272C91.8035 15.8725 87.5214 12.3993 84.5716 12.3518ZM42.4174 36.902C42.5126 36.569 42.3699 36.4263 42.2271 36.3311C41.3232 35.6174 40.4667 34.9038 39.5628 34.2377C39.3249 34.0474 39.0394 33.7619 38.7539 34.2377C38.5161 34.5707 38.6112 34.761 38.9443 35.0465C39.8482 35.7602 40.6571 36.4738 41.561 37.1875C41.7038 37.3302 41.8941 37.6157 42.132 37.4254C42.2747 37.2827 42.3223 36.9972 42.4174 36.902ZM31.8075 43.6581C30.6181 44.1815 29.952 44.9427 28.8101 45.2282C29.2859 44.6573 29.6665 44.2291 29.9996 43.8484C28.7625 44.3242 27.7634 45.0379 26.9546 46.4652C29.0004 46.0846 30.6657 45.704 31.8075 43.6581ZM43.4166 33.8095C43.6069 33.857 43.7496 33.7143 43.7972 33.524C43.8924 33.2385 43.9875 32.9531 43.7021 32.7627C42.7981 32.0491 41.8465 31.3354 40.895 30.7169C40.4668 30.4314 40.1813 30.7169 40.1813 31.1927C40.2289 31.5733 42.9884 33.8095 43.4166 33.8095ZM23.4814 77.9619C23.4814 77.4861 23.1483 77.2006 22.8629 76.9627C22.054 76.3442 21.2452 75.7257 20.4364 75.1072C20.1985 74.9169 19.913 74.6314 19.6276 75.012C19.4373 75.2499 19.6751 75.5354 19.8655 75.7257C20.817 76.5821 21.8162 77.3434 22.5774 78.3425C22.7201 78.4852 22.9104 78.7707 23.1483 78.4852C23.3387 78.3425 23.3862 78.1522 23.4814 77.9619ZM39.8482 32.2394C39.6103 32.1918 39.5152 32.3345 39.42 32.5249C39.3249 32.7627 39.2773 32.9531 39.5152 33.1434C40.0861 33.6192 40.6095 34.1425 41.2756 34.5231C41.8465 34.8562 42.3223 36.0932 42.9408 35.4271C43.7021 34.5707 42.3223 34.2377 41.8465 33.7619C41.228 33.1909 40.7046 32.5249 39.8482 32.2394ZM33.0446 78.4377C32.1882 76.3918 31.8075 74.2508 31.5221 72.0622C30.5705 74.5363 31.5221 76.5345 33.0446 78.4377ZM22.0541 81.5778C22.0541 81.102 21.6734 81.0069 21.4355 80.8166C20.6743 80.1981 19.913 79.6271 19.1042 79.0562C18.8663 78.8659 18.5809 78.4852 18.2478 78.8183C17.8672 79.1989 18.2478 79.532 18.5333 79.7699C19.4373 80.5787 20.4364 81.2923 21.388 82.0536C21.5307 82.1488 21.721 82.2915 21.8637 82.1012C21.9113 81.8633 21.9589 81.673 22.0541 81.5778ZM11.0635 23.5802C13.1094 25.8639 15.9165 26.197 17.2011 24.2939C15.0125 24.8648 13.1094 24.7221 11.0635 23.5802ZM27.1925 59.3113C26.6691 59.5968 26.5264 59.9298 26.9546 60.3104C27.811 61.1193 28.6674 61.9281 29.5238 62.7369C29.7617 62.9272 29.9996 63.2603 30.3326 62.8796C30.6181 62.5466 30.4278 62.2611 30.1899 62.0232C29.3335 61.2144 28.4771 60.4056 27.6207 59.5968C27.4779 59.5016 27.3352 59.4064 27.1925 59.3113ZM34.4719 73.4896C34.5671 75.583 35.0904 77.1531 35.9944 78.628C36.1847 78.9134 36.5653 79.3417 36.8984 79.1038C37.3266 78.8183 36.946 78.4377 36.7081 78.1522C36.0896 77.3434 35.7565 76.4394 35.4711 75.4878C35.2807 74.8693 35.1856 74.2032 34.4719 73.4896ZM22.2444 69.7785C22.4822 71.4437 23.7193 72.0622 24.6233 72.871C24.8612 73.0613 25.099 73.5847 25.5272 73.1565C25.8603 72.7759 25.7176 72.3477 25.3845 72.0146C24.433 71.2534 23.529 70.4921 22.2444 69.7785ZM34.8525 78.8183C34.3768 77.1531 33.5679 75.6781 33.5679 73.9178C33.5679 73.6323 33.5204 73.2992 33.1873 73.2517C32.7115 73.2041 32.664 73.6323 32.7115 73.9653C32.9494 75.8209 33.5679 77.4861 34.8525 78.8183ZM44.7488 31.2402C44.6536 31.1451 44.5585 31.0499 44.4633 31.0024C43.6069 30.3363 42.7981 29.6702 41.9417 29.0041C41.6562 28.8138 41.3232 28.2904 40.9425 28.9089C40.6095 29.4323 41.0853 29.6226 41.3232 29.9081C42.0368 30.812 43.4166 30.5742 44.0827 31.5257C44.273 31.8112 44.606 31.6209 44.7488 31.2402ZM60.7826 62.166C60.8302 60.1677 60.735 60.0725 57.6424 59.7395C58.2609 60.6435 58.8319 61.4523 59.4028 62.3087C59.7834 61.4999 58.927 60.9289 59.2601 60.2629C60.2592 60.5007 59.9737 61.595 60.7826 62.166ZM93.2308 11.5429C94.6106 8.97372 94.0396 5.9763 92.0889 5.35779C93.3735 7.21333 93.4687 9.21161 93.2308 11.5429ZM20.484 73.3944C20.9597 74.8217 22.3871 75.3451 23.1959 76.487C23.3387 76.7249 23.6241 77.1055 23.9572 76.7249C24.1951 76.4394 24.1475 76.1063 23.862 75.8209C22.8629 74.8693 21.8637 73.9178 20.484 73.3944ZM34.0437 67.7326C33.8534 69.2075 34.2816 70.5873 34.4719 72.0146C34.5195 72.3001 34.5671 72.6807 34.9001 72.6331C35.3759 72.5856 35.2807 72.1574 35.2332 71.8719C35.1856 70.397 34.7574 69.0172 34.0437 67.7326ZM19.1518 76.5821C18.7712 77.3909 19.2469 77.6764 19.58 77.9619C20.3412 78.5804 21.0549 79.1989 21.8637 79.8174C22.0541 80.0077 22.2919 80.4835 22.625 80.0077C22.8153 79.7223 22.7201 79.3892 22.4347 79.1513C21.3404 78.3425 20.2937 77.5337 19.1518 76.5821ZM25.5272 63.0224C25.3845 63.1175 25.1942 63.1175 25.1942 63.2127C25.099 63.4982 25.2418 63.7361 25.4797 63.9739C26.2409 64.7352 27.0497 65.4489 27.8586 66.1625C28.0489 66.3053 28.1916 66.8762 28.6198 66.4004C28.8577 66.115 28.8577 65.8295 28.5722 65.544C27.7158 64.7828 26.907 64.0215 26.0982 63.2603C25.9079 63.1651 25.7176 63.1175 25.5272 63.0224ZM24.9087 74.4411C24.8612 74.346 24.8136 74.2508 24.766 74.2032C23.7669 73.3468 22.8153 72.4904 21.8162 71.634C21.5783 71.4437 21.388 71.5389 21.2452 71.7767C21.1025 71.9671 20.9597 72.2049 21.2452 72.3953C22.2444 73.2041 23.2911 74.0605 24.2902 74.8217C24.5757 75.1072 24.8612 74.8693 24.9087 74.4411ZM45.1294 80.5311C46.0334 80.8166 45.9858 80.1029 46.0334 79.6747C46.1761 78.3901 44.9867 79.0086 44.4157 78.6756C43.8448 78.2949 43.7972 79.1038 43.7496 79.3892C43.6545 80.4835 44.5585 80.3408 45.1294 80.5311ZM33.1397 68.589C31.9979 69.6833 32.3785 70.8252 32.3785 71.9195C32.3785 72.4904 32.7115 72.3953 32.997 72.4428C33.4252 72.4904 33.6155 72.2525 33.5679 71.8243C33.4728 70.7776 33.33 69.7785 33.1397 68.589ZM36.375 73.1089C36.8508 71.8243 36.8508 70.5873 36.7557 69.3027C36.7081 68.9696 36.375 68.7317 36.042 68.7317C35.6614 68.7317 35.6614 69.0648 35.7089 69.3503C35.8993 70.5873 36.1372 71.8719 36.375 73.1089ZM32.1406 79.2465C31.3793 77.5337 30.8084 76.1539 30.3802 74.679C29.5714 76.2015 30.1423 77.8192 32.1406 79.2465ZM78.3389 36.8545C78.9098 35.5698 78.9574 34.6183 78.434 33.6667C78.2437 33.3813 78.0058 33.0958 77.6252 33.2385C77.197 33.4288 77.3873 33.8095 77.5301 34.0949C77.8631 34.9038 78.3864 35.6174 78.3389 36.8545ZM94.4678 41.3268C93.0405 41.5171 91.6607 41.2316 89.9955 41.3744C91.6607 42.5638 93.0881 41.9453 94.4678 41.3268ZM37.5645 73.7274C38.7539 72.3477 38.7539 70.8728 37.7548 70.2067C37.6596 71.3961 37.6121 72.5856 37.5645 73.7274ZM95.0388 9.54466C96.0379 7.59396 95.3242 5.31021 93.4687 4.83443C95.1339 6.11904 95.1339 7.83185 95.0388 9.54466ZM96.0855 38.2342C94.6106 38.2818 93.1832 38.5197 91.8986 39.1382C93.4211 39.4237 94.8009 39.043 96.0855 38.2342ZM96.5137 4.83443C97.3225 6.35693 96.8943 7.78427 96.9895 9.11646C97.941 7.21333 97.8459 5.83357 96.5137 4.83443ZM13.157 57.8364C15.3931 57.6936 16.4398 57.2654 17.3914 56.1711C15.8689 56.4566 14.6319 57.1703 13.157 57.8364ZM83.9055 18.1087C83.1918 16.7765 82.1451 16.4911 80.7178 16.3959C81.6218 17.5853 82.7161 17.6805 83.9055 18.1087ZM91.6607 40.5655C93.1832 40.8034 94.3251 40.4704 95.3718 39.6616C94.1824 39.8519 92.8978 39.7567 91.6607 40.5655ZM86.9029 31.8112C86.9981 30.2411 87.1884 28.6235 85.9989 27.3388C86.4271 28.8138 86.665 30.2887 86.9029 31.8112ZM51.0767 11.1147C51.1242 10.4486 50.6009 10.1632 50.7436 9.63981C50.8863 9.16403 50.3154 9.21161 50.1251 9.11646C49.8396 8.97372 49.6969 9.35435 49.5542 9.59224C49.3638 9.8777 49.4114 10.068 49.7445 10.2583C50.1727 10.4486 50.5533 10.7817 51.0767 11.1147ZM63.9703 72.871C66.1113 72.8235 66.254 72.6807 66.1589 71.3961C65.5404 71.8243 64.9219 72.2525 63.9703 72.871ZM16.9156 53.7447C15.9641 52.9834 15.1552 53.031 14.1561 52.9834C14.8222 54.1253 15.6786 53.935 16.9156 53.7447ZM63.2566 70.8252C62.0672 71.3485 61.4963 71.9195 61.068 72.9662C62.2099 72.6807 62.6857 71.9671 63.2566 70.8252ZM39.2297 71.6816C39.2773 72.8235 38.7539 73.6323 39.4676 74.3935C39.7055 73.5847 40.2289 72.7759 39.2297 71.6816ZM10.6829 90.9983C10.3499 90.9983 10.112 91.141 10.2071 91.3789C10.3974 91.9974 10.9208 92.1877 11.4917 92.2829C11.7296 92.3305 12.2054 92.3305 12.1578 91.9974C11.9675 91.2362 11.0159 91.4265 10.6829 90.9983Z" fill="#36372F"/>
<path d="M22.4352 60.4533C23.1489 60.3106 23.1013 59.4066 23.8626 59.2163C24.5763 60.4533 23.6723 61.4049 23.1489 62.2613C22.7683 62.9274 22.1974 62.1186 22.007 61.7855C21.2934 60.4057 20.9127 61.0243 20.4845 61.9758C19.6757 63.7362 18.2484 64.8305 16.3928 65.3063C14.8228 65.7345 14.68 65.6393 14.7276 63.9741C14.7276 63.7362 14.7276 63.5459 14.7276 63.1653C13.5857 63.6886 12.539 64.1168 11.5399 64.545C10.3504 65.0684 9.25612 64.7829 8.16182 64.1644C7.92393 64.0217 7.63847 63.8314 7.73363 63.5459C7.82878 63.2604 8.06667 62.8322 8.39971 62.9274C10.9214 63.4032 13.2051 62.5468 15.584 61.5476C15.584 62.3564 15.584 63.0225 15.584 63.8314C17.6299 63.0701 18.8193 61.5952 19.9136 59.9775C20.2467 59.5018 20.2467 58.8357 21.0555 58.7881C21.9595 58.7881 21.8643 59.5493 22.1974 60.0251C22.2449 60.1678 22.3877 60.3106 22.4352 60.4533Z" fill="#36372F"/>
<path d="M13.5865 75.3448C12.4447 75.5351 11.5407 75.6778 10.6367 75.8206C10.7795 73.1086 11.0173 72.7756 13.5865 72.1095C14.3478 71.9192 14.3954 71.6337 14.0148 71.0628C13.7293 70.587 13.8244 70.2539 14.3954 69.9209C14.5381 70.7297 14.9663 71.3958 15.7276 71.7289C16.013 71.8716 16.3937 72.0143 16.2033 72.4425C16.0606 72.7756 15.68 72.7756 15.3469 72.728C13.9672 72.6329 12.6826 73.061 11.398 73.5844C11.9213 74.4884 12.8729 74.6311 13.5865 75.3448Z" fill="#36372F"/>
<path d="M91.9429 63.926C91.705 63.8785 91.3243 63.8784 90.9913 63.7357C90.5631 63.5454 89.7543 63.5454 89.9922 62.8793C90.23 62.2608 90.801 62.2132 91.4671 62.6414C92.8468 63.4978 94.0363 63.1648 94.8451 61.8802C94.9879 61.6423 95.083 61.3568 95.1782 61.1189C95.3209 60.7383 95.0354 60.2149 95.5112 59.977C95.7491 59.8819 95.8918 60.1198 96.0346 60.3577C96.2724 60.8335 96.4152 61.3092 95.987 61.785C95.0354 63.022 93.7508 63.8785 91.9429 63.926Z" fill="#36372F"/>
<path d="M13.0161 21.3915C10.1138 20.3924 8.44856 17.0143 9.82833 14.9209C9.87591 17.5853 11.3984 19.3932 13.0161 21.3915Z" fill="#36372F"/>
<path d="M90.9004 67.2571C92.518 66.6862 94.0881 66.2104 95.6582 67.3047C95.8961 67.4474 96.2291 67.5426 96.0864 67.9232C95.9437 68.2087 95.6106 68.3038 95.3727 68.1611C93.9454 67.2571 92.4229 67.3047 90.9004 67.2571Z" fill="#36372F"/>
<path d="M95.6568 47.9878C95.4665 49.9861 94.1343 50.557 92.1836 49.6054C93.1352 48.6539 94.6576 49.0345 95.6568 47.9878Z" fill="#36372F"/>
<path d="M20.5348 69.6363C18.6317 69.3033 16.8713 69.0654 14.873 69.7791C16.8713 68.1614 19.2502 68.1614 20.5348 69.6363Z" fill="#36372F"/>
<path d="M83.5709 55.8857C82.667 55.7906 82.4766 54.4108 81.4299 54.9341C81.3348 54.9817 81.2872 54.3632 81.4299 54.0302C81.5727 53.6495 81.8106 53.6495 82.1912 53.8398C82.9524 54.3632 83.3806 54.9341 83.5709 55.8857Z" fill="#36372F"/>
<path d="M86.6172 44.6097C87.9018 44.4193 89.2816 45.3233 89.1864 46.1321C89.1388 46.6555 88.663 46.37 88.3776 46.37C88.0445 46.37 87.3784 46.4652 87.6639 45.8943C88.33 44.8 87.3784 44.9427 86.6172 44.6097Z" fill="#36372F"/>
<path d="M17.6289 70.7771C18.3426 70.4917 18.7232 70.3014 19.1514 70.2062C19.4369 70.1586 19.8175 70.1586 20.0554 70.4441C20.2457 70.6344 20.1505 70.8723 20.0078 71.0626C19.7699 71.3957 19.4845 71.6335 19.1038 71.4908C18.628 71.3481 18.2474 71.1102 17.6289 70.7771Z" fill="#36372F"/>
<path d="M74.7698 17.2522C74.6746 17.728 74.3415 18.0135 74.0085 18.0135C73.4851 18.0135 73.39 17.4425 73.3424 17.1095C73.2948 16.7289 73.6279 16.2531 74.1037 16.3007C74.5794 16.3482 74.5794 16.9192 74.7698 17.2522Z" fill="#36372F"/>
<path d="M90.7559 46.1796C91.8502 45.7038 92.9444 45.6562 94.2766 46.1796C92.8969 46.1796 91.8502 46.1796 90.7559 46.1796Z" fill="#36372F"/>
<path d="M72.6768 22.9619C72.5817 22.5337 72.772 22.2007 73.105 22.2007C73.7236 22.2483 73.6284 22.8668 73.7236 23.2474C73.8187 23.5804 73.6284 23.9611 73.2478 23.9611C72.5341 23.9611 72.8196 23.295 72.6768 22.9619Z" fill="#36372F"/>
<path d="M87.2363 55.6951C86.0469 54.6008 86.1896 56.3137 85.4759 56.3612C85.238 55.7427 85.1904 55.0291 85.7614 54.7436C86.4275 54.4581 86.8081 55.1242 87.2363 55.6951Z" fill="#36372F"/>
<path d="M0.417938 73.2838C0.417938 65.8598 0.295996 58.4358 0.478886 51.0118C0.661776 43.4037 0.600842 35.857 0.661805 28.2489C0.722769 21.4385 0.84471 14.628 0.905673 7.81757C0.905673 5.91555 1.0885 5.79284 2.97836 6.34504C3.70992 6.59046 4.86828 6.22233 5.1731 6.9586C5.41695 7.57215 4.9902 8.43113 4.92923 9.22875C4.44153 14.7507 4.62439 20.3341 4.4415 25.9174C4.19764 33.8936 4.01477 41.9312 4.07573 49.9074C4.1367 60.3378 3.52703 70.7683 3.89281 81.26C4.01474 84.7573 4.01477 88.3159 3.16128 91.7518C2.61261 94.0833 3.28321 95.0036 5.59981 95.065C13.2812 95.4331 20.9626 95.7399 28.644 95.3718C31.875 95.1877 35.167 95.3104 38.459 95.8626C40.7756 96.2921 43.2141 95.9853 45.5917 96.0467C56.1383 96.1694 66.685 95.8626 77.2926 95.9853C84.1814 96.0467 91.0093 95.8626 97.8982 96.0467C99.0565 96.0467 99.2393 95.6786 99.3003 94.6355C99.4222 85.2481 99.5442 75.7994 99.7271 66.412C99.9709 55.0613 100.276 43.6492 100.52 32.2984C100.702 23.4632 100.763 14.628 100.946 5.79285C100.946 4.81116 100.885 4.01355 99.6051 4.68846C98.6297 5.1793 97.8372 4.32032 96.9228 4.25896C92.6554 4.01354 88.3879 4.0749 84.1205 4.0749C75.037 4.13626 65.9534 4.01354 56.8699 4.25896C48.335 4.50438 39.8611 3.70675 31.3263 3.82946C24.7422 3.89082 18.0973 4.07489 11.5132 4.1976C10.7207 4.1976 10.1111 4.01354 9.37951 3.64541C7.0629 2.60236 4.6244 1.4366 2.55165 4.13624C2.24684 4.50437 2.06398 4.25897 1.82012 4.0749C1.08856 3.46135 1.21046 2.66373 1.33239 1.92746C1.45431 1.1912 2.00301 0.823064 2.73457 0.700353C4.92925 0.33222 7.12387 0.270853 9.37951 0.209498C16.0855 0.0867872 22.7914 -0.158638 29.4974 0.148139C35.8376 0.454916 42.1778 0.0867909 48.518 0.270857C55.5897 0.516279 62.6614 0.393564 69.7331 0.516275C76.1343 0.577631 82.5354 0.761697 88.9365 0.823052C93.0821 0.884408 97.1666 0.761697 101.312 0.823052C104.177 0.884408 103.994 0.761704 103.873 3.39999C103.751 7.94029 103.812 12.4806 103.873 17.0209C103.994 24.813 104.055 32.6052 103.934 40.336C103.873 44.999 103.873 49.662 103.812 54.2636C103.751 60.1538 103.751 66.1053 103.629 71.9954C103.507 78.6218 103.263 85.2481 103.202 91.8745C103.202 93.6538 103.263 95.3718 103.08 97.1511C102.897 99.1145 102.775 99.2985 100.885 99.2985C95.4597 99.2985 90.0339 99.2985 84.6691 99.3599C77.0487 99.4212 69.3674 99.6667 61.747 99.6667C50.2249 99.6053 38.7029 99.6053 27.2418 99.2372C21.7551 99.0531 16.2074 98.869 10.7207 98.5623C7.91643 98.3782 5.05114 98.4396 2.24684 98.1328C0.600827 97.9487 0.174085 97.1511 0.113121 95.6786C0.0521581 90.0339 -0.0697535 84.3278 0.052173 78.6831C0.113136 76.8424 0.052173 74.9404 0.052173 73.0384C0.1741 73.2838 0.296011 73.2838 0.417938 73.2838Z" fill="#36372F"/>
</svg>
