<svg width="98" height="100" viewBox="0 0 98 100" fill="none" xmlns="http://www.w3.org/2000/svg">
<path d="M61.557 1.82408C63.3722 2.00117 65.2316 2.00117 67.0911 1.91263C70.6772 1.73554 74.2189 2.08971 77.7607 2.13399C81.214 2.13399 84.6672 2.44389 88.1648 2.31108C90.0685 2.22253 92.0165 2.57671 93.9645 2.62098C94.8942 2.62098 94.8942 3.2408 94.4957 3.77207C93.7874 4.83461 93.566 5.76433 94.6728 6.69405C95.027 6.95968 94.9385 7.49095 94.9385 7.8894C94.9827 12.9807 95.1155 18.0721 94.9827 23.1191C94.8499 28.299 94.6729 33.5231 94.8499 38.703C94.9828 43.1303 95.1598 47.5575 95.2041 51.9848C95.2484 58.0058 95.514 63.9826 95.3369 70.0036C95.1598 76.6002 95.2926 83.1526 95.2041 89.7492C95.2041 91.7857 94.8942 93.7779 94.7614 95.8145C94.7171 96.4343 94.4514 96.5671 93.9202 96.5671C88.4304 96.7442 82.9406 96.9656 77.4509 96.5228C71.2084 96.0358 64.966 96.1244 58.6793 96.1687C52.4812 96.1687 46.3273 96.1244 40.1292 96.1244C34.3737 96.1244 28.6183 96.0801 22.8186 96.0801C21.092 96.0801 19.3211 96.1244 17.2403 96.39C20.0738 96.7442 22.6416 96.5228 25.1651 96.6999C30.6106 97.0541 36.0561 97.2312 41.5017 97.1426C48.1868 97.0541 54.8719 97.2312 61.557 97.0984C67.7552 96.9656 73.9533 97.1427 80.1072 97.4968C85.0214 97.7625 89.8914 97.5411 94.7614 97.1869C95.6025 97.1426 95.5583 96.6557 95.5583 96.1244C95.6026 91.1216 95.6468 86.1188 95.6468 81.0718C95.6468 70.4021 95.4697 59.7324 95.6468 49.0628C95.7354 42.3776 95.2926 35.6925 95.6468 29.0074C96.001 22.2337 96.001 15.46 96.0453 8.73058C96.0453 7.84513 95.6026 6.78259 97.1078 6.20705C97.1078 8.50922 97.1078 10.6786 97.1078 12.8922C97.0636 20.2857 96.975 27.6349 97.0192 35.0284C97.0635 43.7501 97.1963 52.4718 97.2406 61.1934C97.2849 72.7928 97.2849 84.3922 97.2849 95.9473C97.2849 99.2235 97.2849 99.2234 93.9645 99.1792C92.5478 99.1349 91.131 99.0021 89.7143 98.9135C89.183 98.8693 88.6518 98.825 88.1648 99.1349C87.6778 99.4448 87.1465 99.3563 86.6152 99.3563C70.6771 98.4265 54.7391 99.1349 38.8453 98.825C31.2304 98.6479 23.6156 99.0021 16.045 98.8693C11.2636 98.7807 6.48214 98.5594 1.70071 98.3823C0.416814 98.338 0.0183405 97.9395 0.0183405 96.4786C-0.025932 93.6008 0.0183297 90.7231 0.0626021 87.8897C0.106875 78.7253 0.283964 69.5166 0.283964 60.3522C0.283964 55.2609 0.372509 50.1696 0.283964 45.1225C0.283964 44.9454 0.239703 44.7241 0.461065 44.5913C1.39079 44.9454 1.74498 45.4767 1.74498 46.5392C1.7007 54.3312 1.78926 62.1674 1.70071 69.9594C1.61217 78.1055 1.56788 86.2516 1.56788 94.3978C1.56788 96.5671 1.61214 96.5671 3.82576 96.6114C7.81028 96.6114 11.8391 96.6556 15.8236 96.6999C16.0007 96.6999 16.2221 96.6557 16.3991 96.5671C15.0267 96.1244 13.5657 96.2572 12.149 96.2129C9.5812 96.0801 6.96912 96.1244 4.40132 96.0801C2.36479 96.0358 2.36479 96.0358 2.40906 93.9108C2.40906 87.1371 2.23196 80.3634 2.45332 73.634C2.76323 65.355 2.54187 57.1204 2.67469 48.8857C2.71896 47.1591 2.89607 45.4324 2.80753 43.7501C2.67471 41.0052 2.6747 38.2603 2.63043 35.5154C2.58615 29.8928 2.6747 24.2702 2.63043 18.6476C2.58615 13.5563 2.36479 8.50922 2.40906 3.41789C2.40906 2.44389 2.76322 2.2668 3.6044 2.31108C8.16446 2.39962 12.7245 2.39962 17.2846 2.57671C20.6936 2.70953 24.1469 2.48817 27.5558 2.35535C30.6106 2.2668 33.7097 2.57671 36.8087 2.53244C38.3583 2.53244 39.9521 2.84235 41.5459 2.39962C42.2543 2.22253 43.3168 2.53244 44.2465 2.53244C48.0097 2.62098 51.7728 2.35535 55.536 2.04544C56.7756 1.9569 58.0152 1.9569 59.2991 2.08971C59.0335 1.64699 58.5908 1.77981 58.1923 1.77981C53.7208 1.86835 49.2493 2.04544 44.7778 2.00117C34.9936 1.86835 25.2094 2.31108 15.4252 1.60272C12.1047 1.38136 8.78431 1.86835 5.46387 2.00117C4.6227 2.04544 3.78149 1.9569 2.94031 1.91263C2.18768 1.86835 1.92209 2.08971 1.87782 2.84235C1.56791 6.47269 1.74498 10.103 1.74498 13.7334C1.78925 19.0018 1.8335 24.2702 1.8335 29.5386C1.8335 33.3461 1.74497 37.1535 1.78924 40.9609C1.78924 42.0235 1.52361 42.6875 0.416803 42.9532C0.416803 41.1823 0.239703 39.4114 0.461065 37.729C0.7267 35.8696 0.549631 34.0101 0.593904 32.1507C0.682449 27.9891 0.54961 23.7832 0.461065 19.5773C0.37252 13.8662 0.416825 8.19931 0.32828 2.48817C0.284008 0.363089 0.505359 0.186 2.58616 0.141728C10.7766 -0.0353623 18.9227 0.141728 27.1131 0.141728C29.6366 0.141728 32.1602 0.318816 34.6394 0.318816C38.6682 0.318816 42.7412 0.274545 46.77 0.230273C51.64 0.141728 56.51 0.230272 61.4242 0.141728C65.7629 0.0974551 70.1016 -0.0353619 74.4846 0.00891053C78.2035 0.053183 81.8781 0.186 85.597 0.274544C86.1283 0.274544 86.6153 0.407361 86.6595 1.07145C86.7038 1.82408 86.084 1.77981 85.597 1.77981C80.6827 1.73554 75.8127 1.64699 70.8985 1.60272C67.7994 1.55845 64.6561 1.60272 61.557 1.60272C61.557 1.55845 61.557 1.69126 61.557 1.82408ZM48.4967 3.41789C43.5382 3.19652 38.3583 3.41789 33.2227 3.46216C27.4673 3.50643 21.7561 3.50643 16.0007 3.55071C12.2375 3.55071 8.51868 3.28507 4.75552 3.41789C3.73726 3.46216 3.42735 3.86061 3.42735 4.79033C3.42735 9.70457 3.3388 14.5745 3.47161 19.4888C3.6487 27.5464 3.56013 35.604 3.6044 43.6615C3.64867 50.4795 3.60442 57.2532 3.73724 64.0711C3.82578 67.7015 3.69297 71.3318 3.69297 74.9622C3.6487 78.8139 3.64867 82.6656 3.6044 86.5615C3.6044 88.8194 3.60444 91.0773 3.64871 93.3352C3.64871 93.8665 3.60444 94.442 4.53416 94.442C8.43014 94.442 12.2818 94.442 16.1778 94.5306C23.6156 94.6634 31.0976 94.929 38.5354 95.0176C42.5199 95.0618 46.4601 94.929 50.4447 94.929C53.6323 94.929 56.8641 95.1504 60.0518 95.0618C63.8592 94.929 67.6666 94.929 71.4741 95.1061C73.2007 95.1947 74.883 95.2832 76.6097 95.3275C78.8676 95.3718 81.1255 95.3718 83.3834 95.4603C85.9069 95.5488 88.4304 95.7259 90.9539 95.4603C93.3004 95.2389 93.3004 95.2389 93.6546 92.9368C93.6988 92.5383 93.7874 92.0956 93.8317 91.6971C94.1858 88.5981 93.8759 85.499 93.8759 82.4442C93.8759 75.2278 94.0973 67.9671 94.1415 60.7507C94.1415 56.1021 94.2744 51.4092 94.1415 46.7606C94.053 42.599 93.8317 38.4374 94.0088 34.2758C94.2301 29.0959 94.1859 23.8718 93.9645 18.6919C93.7874 14.0433 93.6988 9.35039 93.6546 4.70179C93.6546 3.86061 93.3004 3.77207 92.6363 3.77207C89.7143 3.77207 86.8366 3.72779 83.9146 3.63925C72.1824 3.15225 60.4059 3.41789 48.4967 3.41789Z" fill="#36372F"/>
<path d="M97.0608 2.576C97.0608 2.48745 97.0608 2.576 97.0608 2.62027C97.0165 3.01872 97.2821 3.68281 96.6623 3.72708C96.1753 3.77135 95.9097 3.24008 95.954 2.75309C95.954 1.77909 95.4669 1.55773 94.5815 1.55773C92.5007 1.55773 90.3756 1.42492 88.2948 1.33637C88.0292 1.33637 87.675 1.42491 87.6307 1.07073C87.5865 0.760828 87.9406 0.716556 88.162 0.583739C89.623 -0.257438 91.1283 0.406648 92.6335 0.318103C93.3419 0.273831 94.0502 0.406649 94.8029 0.362376C96.618 0.273832 96.928 0.628011 97.0608 2.576Z" fill="#36372F"/>
<path d="M61.8241 50.7891C64.1263 51.2318 66.0743 51.9844 67.978 53.0027C71.2542 54.8179 73.999 57.2086 75.7699 60.529C78.1607 65.0448 78.5591 69.959 77.895 74.9176C77.5409 77.3525 76.4341 79.6547 74.7074 81.5584C72.6266 83.9049 70.3687 85.9857 67.5795 87.4467C66.1628 88.155 64.7904 88.9962 63.2409 89.4389C63.4622 89.8374 63.7279 89.7931 63.9492 89.7931C66.6498 89.5717 69.3505 89.9259 72.0511 90.0587C72.6266 90.103 73.0693 89.8374 73.5121 89.5275C75.947 87.5795 78.8248 86.4284 81.8353 85.9414C84.4474 85.4987 87.1037 85.6758 89.7158 86.1628C90.8668 86.3841 92.5492 88.3321 92.7263 89.4832C92.7706 89.8374 92.7706 90.103 92.3278 90.103C91.7966 90.103 91.1768 90.2358 90.7783 89.8374C89.1402 88.155 87.1037 88.5092 85.1557 88.8191C81.7025 89.3946 78.9576 91.3426 76.6111 93.8219C75.2387 95.2829 75.1944 95.3714 73.5121 94.2646C70.7672 92.4937 67.8009 92.051 64.6133 92.4494C61.8684 92.8036 59.1678 93.1135 56.5114 93.9547C56.0687 94.0875 55.626 94.2646 55.3161 93.6891C55.0062 93.1578 54.652 92.7594 54.9176 92.0067C55.7588 89.7931 57.6183 88.4207 59.2121 86.8711C59.8319 86.2956 60.8501 85.72 60.6731 85.0117C60.5402 84.5247 59.3006 84.7903 58.548 84.7903C47.7455 84.7903 36.9873 84.6575 26.1848 85.2773C21.9789 85.5429 17.8174 85.7643 13.6115 86.0299C12.9031 86.0742 12.3276 85.9414 12.7703 87.0925C13.1245 88.0222 12.726 88.9962 11.9291 89.6603C11.265 90.1915 9.36129 89.9259 8.65293 89.3504C7.41331 88.2878 6.66071 87.0482 7.19198 85.3216C7.72325 83.6392 8.91858 82.7981 10.6009 82.5324C13.3901 82.134 16.2678 82.2668 19.057 82.0897C21.182 81.9569 21.2263 81.8241 21.669 79.8318C23.0415 73.6337 22.6873 67.347 22.5545 61.1046C22.3331 51.5417 22.6873 41.9789 21.8461 32.416C21.5362 28.9185 21.6247 25.3767 21.5362 21.8792C21.5362 20.5067 21.0492 19.1786 21.0492 17.8061C21.0492 17.4962 20.7836 17.4077 20.5622 17.2306C18.6585 15.8581 16.5777 15.2826 14.2756 15.1498C11.6192 15.0169 9.00714 14.8841 6.35079 15.1498C5.95234 15.194 5.37676 15.3711 5.1554 15.0612C4.84549 14.6185 5.28824 14.1758 5.5096 13.8216C6.30651 12.4934 6.88206 11.0324 8.12169 9.96989C8.60868 9.57143 8.87432 9.04016 8.12169 8.46462C7.59042 8.06617 7.50188 7.31354 7.85606 6.78227C8.34306 6.07391 9.13995 5.4541 10.1139 5.67546C11.4864 5.98537 12.1505 7.00363 12.4161 8.37608C12.6375 9.52716 11.9291 10.0584 11.1765 10.634C10.3796 11.2538 9.49414 11.8293 8.74151 12.6262C9.89259 12.6262 10.9994 12.6262 12.1505 12.6262C22.1118 12.4934 32.0288 12.1392 41.9901 11.7851C52.0842 11.4309 62.1783 11.5637 72.2725 10.8111C74.5304 10.634 76.7882 10.8553 78.9576 10.0142C79.3118 9.88134 79.7102 9.88134 79.6659 10.4126C79.4446 13.4231 80.6399 16.1238 81.5254 18.8686C81.5696 19.0015 81.6139 19.1786 81.6582 19.3114C81.7025 19.5327 81.7467 19.7984 81.5254 19.9312C81.1712 20.1083 81.0384 19.7541 80.9499 19.5327C79.7988 16.8764 77.5409 15.2826 75.1944 13.8216C74.9288 13.6445 74.7074 13.6445 74.4418 13.6002C68.3764 13.2903 62.2669 13.4674 56.2015 13.733C51.9957 13.9101 47.7898 13.9544 43.6282 14.4857C42.4328 14.6628 41.1932 14.7513 39.9978 14.9284C39.5108 15.0169 38.8467 14.7956 38.5368 15.3269C38.0056 16.2566 37.43 17.1863 37.3415 18.2931C37.2972 18.9572 37.7399 18.6473 38.0498 18.5587C39.4223 18.116 40.7947 17.629 42.2115 17.2306C46.683 15.9024 51.1988 15.3711 55.8031 16.4337C61.6913 17.8061 66.6941 20.7724 70.5901 25.3324C72.9365 28.0773 74.8403 31.2207 74.9288 35.0724C75.0174 38.5699 74.1761 41.7132 71.7412 44.3253C70.0145 46.1847 67.978 47.6457 65.8086 48.9739C64.5247 49.6823 63.1966 49.9922 61.8241 50.7891ZM63.6836 45.3878C62.6211 46.4061 61.5142 47.4244 60.2746 48.2213C63.8607 47.3801 66.5613 45.2993 68.7749 42.4216C70.7229 39.8538 71.2984 36.9318 71.2542 33.7442C71.1656 29.8925 69.3504 26.9262 66.9155 24.2256C65.3659 22.5433 63.4622 21.2151 61.3814 20.1968C59.5662 19.3114 57.7068 18.5587 55.5817 18.6473C55.9802 18.8686 56.3787 19.09 56.7771 19.1786C59.035 19.7098 60.8944 20.9495 62.4882 22.5433C63.7721 23.8272 64.7461 25.3324 65.7644 26.7934C68.9077 31.442 68.5978 36.2234 66.4285 41.1377C65.7201 42.7758 64.4362 43.9268 63.6836 45.3878ZM65.0118 68.9408C64.9675 68.2324 64.9675 67.4798 64.8789 66.7714C64.4805 62.477 63.7279 58.3154 60.8502 54.8179C59.3892 53.047 57.6626 52.073 55.4489 51.6745C52.6155 51.1875 49.7378 51.2318 46.9043 50.7891C43.7167 50.3021 40.6619 51.0547 37.5629 51.3646C37.1201 51.4089 36.8102 51.6303 36.8545 52.2058C36.8988 53.534 36.8545 54.9064 36.9873 56.1903C37.6071 61.6801 36.943 67.1699 37.2529 72.6597C37.43 75.5374 37.43 78.4594 38.0056 81.3371C38.0941 81.8683 38.2712 82.1782 38.9353 82.2668C44.5136 82.9751 50.092 83.2408 55.7146 83.0194C57.5297 82.9309 59.3892 83.108 61.2044 83.1522C61.6028 83.1522 62.0455 83.285 62.2669 82.7095C62.5325 82.0897 62.9309 81.5142 63.1523 80.8501C64.3034 76.9541 65.366 73.0581 65.0118 68.9408ZM36.2347 36.6219C36.2347 40.7392 36.279 44.3253 36.456 47.9114C36.5003 48.6197 36.6331 48.8411 37.43 48.7525C39.5108 48.4869 41.5917 48.3098 43.7167 48.2213C46.7715 48.0885 49.8263 48.3984 52.8369 47.5572C54.5192 47.0702 56.4229 46.8931 57.6626 45.6535C60.4075 42.9971 62.1783 39.6767 62.444 35.7807C62.6653 32.8587 61.957 30.0696 60.5845 27.5018C58.4152 23.3402 55.7588 20.1525 50.4019 19.577C44.3808 18.9129 40.1307 21.0823 36.6774 25.6423C36.5003 25.908 36.4118 26.1736 36.4118 26.4835C36.279 30.0696 36.0576 33.6114 36.2347 36.6219ZM26.0078 80.9386C28.6198 80.673 31.0105 80.6287 33.4012 80.673C34.4638 80.673 34.7737 80.2745 34.6409 79.212C34.1982 75.6702 34.1981 72.1284 34.0653 68.5866C33.844 62.964 34.0211 57.3414 34.0211 51.7188C34.0211 45.6977 33.9768 39.721 33.9325 33.6999C33.8882 28.2544 33.844 22.7646 33.7997 17.3191C33.7997 17.0092 33.9768 16.4337 33.357 16.4337C32.6929 16.3894 32.8257 16.9649 32.8257 17.3634C32.7814 19.9312 32.6486 22.499 32.6929 25.0225C32.87 36.4891 33.0913 47.9556 33.2241 59.4222C33.3127 66.1516 33.357 72.881 34.0211 79.5662C34.1096 80.2303 33.8882 80.4516 33.2241 80.4073C31.3647 80.3631 29.461 80.4073 27.6016 80.4073C27.0703 80.4073 26.6276 80.4516 26.0078 80.9386ZM70.8115 59.1566C72.0511 60.1306 72.4495 61.5916 73.0693 62.964C75.1059 67.5241 74.8402 72.0841 73.0251 76.5556C71.5198 80.2303 68.8634 83.108 65.8086 85.6315C64.7904 86.4727 63.595 87.0482 62.4882 87.9779C63.108 88.0222 63.5065 87.8008 63.905 87.5795C65.4988 86.7826 66.8712 85.72 68.1551 84.4804C70.2802 82.4439 72.0511 80.1417 73.335 77.4411C74.5746 74.8733 75.8585 72.394 75.1944 69.4278C75.0173 68.6751 74.9288 67.9225 74.8845 67.1699C74.486 62.7426 72.2725 59.3337 68.7749 56.7216C68.4208 56.456 68.1108 56.1903 67.7566 55.969C67.4467 55.7919 67.1811 55.482 66.8269 55.482C70.6786 59.2451 71.9183 64.0265 72.1839 69.2064C72.4938 74.5191 70.5016 78.9463 66.9598 82.7981C74.2647 75.8915 74.6189 67.9225 70.8115 59.1566ZM31.6303 17.9832C31.0105 18.5145 30.922 19.0015 30.9663 19.4885C31.1433 21.3922 30.9663 23.2959 30.8777 25.1996C30.7449 29.5383 30.7449 33.9213 30.922 38.26C31.1876 44.2368 31.4533 50.2578 31.409 56.2789C31.3647 63.451 31.1434 70.6674 32.0288 77.8395C32.1173 78.5036 31.8517 78.725 31.2319 78.725C29.9923 78.725 28.7969 78.8578 27.5573 78.9021C27.2917 78.9021 26.9375 78.7693 26.8046 79.1677C28.1328 79.1677 29.461 79.1677 30.7892 79.1677C32.4272 79.1677 32.4272 79.1234 32.383 77.4854C32.2501 74.3863 32.1616 71.2872 32.0731 68.1881C31.8517 61.6358 31.9845 55.1278 31.896 48.5755C31.7631 40.8278 31.4975 33.0358 31.6303 25.2882C31.6746 22.9417 31.6303 20.551 31.6303 17.9832Z" fill="#36372F"/>
<path d="M63.64 45.3878C68.1558 41.5361 70.9892 32.6816 66.252 26.1736C65.3223 24.8897 64.0827 23.8714 63.0645 22.5432C63.5957 22.3219 63.8171 22.676 64.0827 22.8974C67.1818 25.8194 69.5283 29.1841 70.2809 33.4342C70.5465 34.9395 70.2366 36.4005 69.7053 37.8172C68.6871 40.5621 67.3146 43.0856 65.1452 45.1222C64.7468 45.6534 64.2598 46.0519 63.64 45.3878Z" fill="#36372F"/>
</svg>
