<svg width="420" height="118" viewBox="0 0 420 118" fill="none" xmlns="http://www.w3.org/2000/svg">
<g clip-path="url(#clip0_335_27358)">
<path d="M52.413 105.547C43.4442 106.548 34.4317 105.895 25.4629 105.852C23.2754 105.852 21.0879 105.808 18.9004 105.808C17.9817 105.808 17.0629 105.678 17.2379 104.502C17.4129 103.196 18.3317 103.675 19.1192 103.936C19.5129 104.067 19.9067 104.284 20.3004 104.284C21.9629 104.371 24.0192 105.068 25.1567 104.371C26.9504 103.196 24.6317 101.715 24.4129 100.278C24.1942 98.8414 24.8504 97.6222 25.1567 96.1853C23.8879 95.8805 22.8379 96.8385 21.5692 96.6643C19.5567 96.403 18.3754 98.2318 19.1192 100.104C19.6442 101.323 20.3442 100.931 21.0004 100.191C21.4379 99.7123 21.8754 99.6252 22.2254 100.191C22.4879 100.627 22.0942 100.931 21.7879 101.193C20.6504 102.151 19.1192 102.586 17.8942 102.412C16.7129 102.194 17.4129 100.627 17.4129 99.6252C17.3692 87.0414 18.0254 74.4577 17.6317 61.8303C17.4567 56.5617 18.0254 51.2495 18.0254 45.9374C17.9817 37.316 17.7192 28.6946 17.5879 20.0732C17.5879 19.1588 17.5879 18.2008 17.7629 17.2864C17.9817 16.1979 18.9442 16.1543 19.7754 16.2414C20.7379 16.3285 20.3442 17.1123 20.3442 17.6783C20.1254 22.5551 25.7692 30.6104 30.4067 31.6554C33.2067 32.3086 33.8192 29.2171 35.7442 28.1285C33.2067 25.9949 29.5754 28.1285 27.5192 25.4289C27.9129 24.3839 29.2255 25.4724 29.663 24.2097C26.2067 22.7728 23.8442 20.2038 22.4879 16.0672C25.9004 17.0252 26.0755 21.1182 29.2255 21.989C29.2692 20.0732 27.7379 18.4185 28.4817 16.1108C30.1879 17.8089 30.1879 20.0732 31.3692 21.6842C32.8567 21.0311 31.2817 19.6813 32.288 18.9846C33.513 19.6813 33.3817 20.8569 33.3817 21.989C33.3817 25.9078 34.0379 26.3868 38.6754 25.516C36.7942 24.2532 35.6129 22.8163 36.8379 20.1602C38.9817 24.6016 42.2629 22.9905 45.2817 22.1632C47.7754 21.5101 47.7317 21.3359 47.9504 19.0717C45.8067 20.5086 43.7504 22.2067 41.1254 20.2909C40.0754 19.5506 39.463 18.941 41.038 18.1137C42.263 17.4606 43.4442 16.6333 44.7567 15.7625C45.2817 17.6783 42.9629 18.0267 42.9629 19.7248C44.8879 19.8554 45.8504 18.7669 46.6817 17.4171C47.1192 16.7639 47.3817 15.6754 48.4755 16.0237C49.3067 16.285 49.0879 17.2429 49.3067 17.896C49.5692 18.6798 48.9567 20.1167 50.2692 20.1602C51.4067 20.2038 51.4067 18.854 51.6692 17.9831C52.1504 16.5898 52.9817 15.0222 54.4692 16.2414C56.9629 18.3315 58.9755 17.5477 61.3817 16.1543C60.9005 16.9816 60.463 17.8089 59.9817 18.6363C63.0005 17.9396 67.1129 20.9005 68.2504 15.806C69.8254 15.9366 68.4692 17.4171 69.5192 17.7219C71.0504 17.5041 71.5317 14.2385 73.3692 15.6754C74.7254 16.7204 72.0567 17.896 72.1442 19.5071C75.9067 20.8134 79.9755 21.4665 83.6067 23.2517C84.6567 23.7743 84.8755 23.1647 85.138 22.4244C85.663 20.944 86.1442 19.2023 88.2005 19.4636C90.3442 19.7248 92.6192 19.9425 93.8442 23.1647C91.3504 20.944 89.3379 24.1226 87.0192 22.5551C86.3192 22.1196 86.2317 23.4259 86.5817 24.1226C88.0692 27.1706 91.0879 28.7381 93.5817 30.654C94.8504 31.6119 95.7255 29.3041 96.8192 28.4333C95.988 27.0835 94.5442 27.8237 93.3629 26.7787C96.7754 24.7322 98.0879 21.2053 100.363 18.0267C93.6692 18.0267 87.238 17.9831 80.763 18.0702C79.713 18.0702 78.4442 18.6798 78.3129 17.1558C78.1817 15.5883 79.3629 15.4577 80.6754 15.5012C99.2254 16.1979 117.819 15.8931 136.369 16.1979C147.175 16.372 157.894 15.2835 168.7 15.327C177.275 15.327 185.894 15.5447 194.469 15.5012C208.644 15.4577 222.775 15.1964 236.95 15.2835C254.45 15.4141 271.95 15.6318 289.494 15.4577C300.388 15.327 311.325 15.1093 322.219 15.4577C335.957 15.8931 349.738 14.6303 363.475 15.8495C365.4 16.0237 367.15 15.1529 368.988 14.9351C368.682 16.1543 369.075 17.6783 366.713 17.4606C365.707 17.3735 366.757 18.375 367.15 18.8104C366.1 18.6798 365.05 18.5492 364.044 18.375C350.482 16.2414 338.188 19.9861 328.519 28.9558C314.213 42.1927 310.844 59.1743 317.013 77.4185C321.825 91.6134 333.244 99.2333 347.375 102.325C361.857 105.503 375.244 102.238 387.057 93.0067C390.382 90.3942 393.269 87.4768 395.588 83.9064C401.844 74.2835 403.507 63.9204 401.494 52.7735C398.869 38.1868 391.65 27.3447 377.213 21.9455C375.2 21.2053 372.619 21.2488 371.219 19.0717C371.613 17.0687 369.907 16.1543 368.9 14.8916C370.213 15.1964 371.35 16.0237 372.75 16.0672C375.069 16.1979 376.513 17.6348 377.694 19.5071C378.263 20.465 378.525 21.7278 379.925 21.9455C381.719 19.9861 380.757 18.4621 378.788 16.8946C381.107 17.9831 382.813 17.7654 383.513 15.327C384.694 15.9802 385 18.9846 386.794 16.1108C387.275 15.3706 388.063 16.4156 388.675 16.6333C390.119 17.1123 391.213 17.2429 391.869 14.9351C392 17.8089 392 17.8089 389.069 17.9396C389.463 19.6813 392.132 21.0746 390.119 23.0776C389.244 23.992 388.063 23.992 387.057 22.7292C387.757 21.9455 389.2 23.4695 389.507 21.8584C389.725 20.5957 389.069 19.899 388.15 19.2894C385.963 17.8089 383.032 18.0702 382.069 19.8554C381.763 20.3779 381.413 21.5101 381.938 21.4665C385.438 21.2923 385 25.603 387.975 26.3433C390.644 27.0399 392.044 26.6916 391.782 23.8613C391.563 20.944 392.175 18.5056 394.494 16.5898C395.763 15.5447 397.25 14.9351 398.869 15.5883C400.619 16.372 400.094 17.9396 399.7 19.5942C400.925 19.42 401.494 18.5927 401.319 17.9396C400.532 15.3706 402.282 15.6754 403.813 15.3706C405.432 15.0658 405.738 15.5883 405.738 17.1123C405.782 24.8193 406 32.5263 406.044 40.2333C406.088 51.3802 406.044 62.4835 405.913 73.6304C405.825 83.2968 405.563 92.9632 405.432 102.673C405.388 105.068 404.338 105.547 402.15 105.634C373.975 106.505 345.757 106.505 317.582 106.418C297.85 106.374 278.163 107.027 258.432 106.679C232.925 106.244 207.463 106.94 181.957 106.897C161.613 106.853 141.269 106.505 120.925 106.331C107.844 106.244 94.7192 106.897 81.638 106.548C74.2442 106.374 66.8504 106.113 59.4567 105.982C58.4067 105.982 58.1442 105.765 58.3192 104.85C61.4692 104.415 64.6192 104.067 67.8567 104.371C75.2505 105.068 82.688 104.763 90.038 104.676C96.0755 104.633 102.157 104.937 108.194 104.85C111.869 104.807 115.5 104.72 119.175 104.633C120.532 104.589 121.275 103.892 121.494 102.586C121.757 101.149 120.225 102.107 119.832 101.28C120.969 100.714 121.975 100.191 123.113 99.6252C123.332 100.931 121.975 102.281 123.069 102.804C124.95 103.718 126.963 102.847 128.888 102.325C130.813 101.802 128.45 100.278 129.588 99.451C133.263 102.586 137.113 102.76 141.007 99.3204C137.594 102.804 136.544 103.413 134.007 102.63C131.775 101.933 130.244 102.804 128.45 104.328C132.694 104.937 136.675 104.328 140.569 104.633C144.55 104.981 147.088 102.804 149.713 100.627C151.813 98.885 151.769 96.6208 150.457 94.0082C149.275 95.2709 148.75 96.9691 146.65 97.0562C147.35 95.6193 148.663 94.4001 147.875 92.7455C147.219 91.3521 145.907 90.4377 144.988 89.1315C147.7 90.0894 150.938 90.3942 151.988 93.6599C153.475 98.1447 151.2 101.28 147.7 103.936C150.282 102.891 152.513 101.933 153.738 99.1027C155.05 96.1418 153.563 92.1359 157.588 90.0458C151.769 86.0835 147.963 80.7278 144.594 75.0672C144.288 74.5447 143.938 73.6739 143.325 73.9351C142.713 74.1529 142.144 74.8931 141.925 75.5462C141.575 76.5912 142.669 76.5477 143.282 76.8525C146.519 78.5506 147.525 80.5101 146.957 84.5595C146.782 81.9905 143.938 81.6857 143.107 79.7698C142.582 78.5942 142.188 76.9831 140.7 77.5492C139.125 78.1152 138.6 80.2923 139.563 81.2067C141.4 82.9484 140.963 85.2997 142.057 87.3898C138.425 86.7802 137.813 84.4289 138.032 81.468C138.075 80.6842 138.382 79.6827 137.507 79.2038C136.5 78.6813 135.669 79.4215 134.969 79.9875C134.138 80.6842 133.132 81.3809 133.088 82.6872C136.719 83.1661 137.244 84.3418 135.057 87.4333C135.932 85.7787 134.532 85.082 133.744 84.2112C133.35 83.7757 132.563 84.3418 132.169 84.8208C129.588 88.0864 132.257 90.5684 133.35 93.3986C134.094 95.2709 135.363 94.4872 136.457 94.6178C138.6 94.9226 140.132 93.6163 141.663 92.3971C142.582 96.7949 142.582 96.7949 138.557 98.0141C138.25 98.1012 137.988 98.3189 137.682 98.3189C135.363 98.3189 137.638 99.7123 137.069 100.322C136.369 100.061 135.625 99.8864 135.057 99.451C134.444 99.0156 133.394 99.1027 133.175 98.0577C139.65 97.2303 140.438 96.8385 140.919 94.4001C136.938 95.837 135.713 96.0112 133.7 95.3145C133.219 95.1403 129.632 90.2636 129.5 89.654C128.713 85.4303 130.682 80.6407 134.575 78.7684C137.463 77.375 139.825 75.6333 141.969 73.3255C142.8 72.4112 143.15 71.9322 142.757 70.7565C140.832 64.7477 140.744 58.6517 142.407 52.5558C142.975 50.5529 139.957 47.3743 137.9 48.0274C134.969 48.9418 132.65 47.5484 130.55 46.1986C126.132 43.4119 125.3 39.1447 127.707 34.3986C127.882 34.0938 127.838 33.6148 127.794 33.223C127.619 29.8702 128.8 28.5204 132.169 28.3898C133.525 28.3462 134.882 28.5639 136.632 28.7381C134.488 26.0385 131.513 27.6931 128.888 26.3868C132.038 24.8193 134.794 23.6001 137.682 22.6857C135.188 22.3809 132.957 23.0776 130.638 23.7743C129.325 24.1661 125.869 28.172 126.088 22.3809C126.088 22.2503 125.825 21.989 125.694 21.989C124.119 21.989 122.5 21.8148 121.013 22.1632C119.482 22.5115 120.969 23.992 120.444 24.8193C120.313 25.037 120.138 25.2547 119.875 25.603C117.732 23.6001 115.5 22.6857 112.613 24.2968C114.494 25.5595 117.119 25.2982 118.213 27.5189C117.294 27.7802 116.375 28.085 115.5 28.3462C114.494 28.651 113.444 28.8687 112.525 29.3041C111.913 29.5654 110.907 29.8267 111.213 30.741C111.519 31.699 112.394 31.3071 113.094 31.0894C113.707 30.9152 114.319 30.6975 114.932 30.5669C118.869 29.7396 119.832 30.3492 120.4 34.0938C120.444 34.3115 120.707 34.6163 120.969 34.6599C122.457 35.0953 122.282 36.4016 122.413 37.4901C123.069 42.541 119.219 47.5049 113.969 47.9839C110.25 48.3322 109.244 52.5993 105.788 53.1654C105.7 53.1654 105.788 54.341 105.832 54.9506C106.225 60.8724 106.444 66.7506 104.519 72.6724C107.188 72.8466 110.032 72.5418 111.65 74.6318C113.575 77.1137 115.982 78.2023 118.825 79.1602C121.932 80.1617 125.257 86.0399 124.513 89.1315C123.944 91.4827 120.619 92.3536 120.794 95.3145C120.882 93.3551 120.313 91.4392 122.544 90.1329C123.988 89.3056 122.938 85.2126 121.319 84.4724C120.532 84.1241 119.394 84.8643 119.438 84.9514C121.057 86.7802 117.994 87.3027 118.869 89.4363C116.988 87.2156 116.332 85.561 118.432 84.1241C121.494 82.0776 121.538 82.1211 118.125 80.3794C117.294 79.944 116.419 79.6827 115.5 79.2909C115.938 86.6495 114.625 88.4783 109.375 87.6946C112.657 87.6075 112.482 84.1241 114.494 82.6872C115.325 82.0776 114.625 80.5101 113.882 79.5521C113.4 78.9425 112.657 78.7684 112.263 79.2473C110.338 81.7728 105.832 80.2488 104.957 84.2982C104.913 80.4665 107.013 78.9425 110.382 78.5942C111.082 78.5071 112.307 78.4636 112.307 77.375C112.35 76.4606 111.344 76.1123 110.6 75.7204C106.838 73.8916 103.513 74.8931 101.5 78.42C101.107 79.1167 100.975 80.0311 100.013 80.2923C100.188 79.8134 100.319 79.3344 100.582 78.8554C107.888 65.2702 106.007 51.772 98.3505 39.3625C90.213 26.2126 77.7004 19.9425 61.7754 20.5957C46.9879 21.2053 35.6567 27.2141 27.9567 39.8414C18.2005 55.8215 19.4692 70.7566 30.4942 86.4754C32.9879 90.0023 36.5754 92.3536 39.5504 95.3145C38.6317 95.4016 38.0192 94.7484 37.2317 94.4001C33.2504 92.789 28.4379 93.7034 26.6442 96.403C26.0317 97.361 26.3379 101.889 27.0817 102.717C28.9629 104.85 31.1504 104.241 33.3379 103.37C33.8629 103.152 34.3442 102.325 34.038 102.194C31.3255 100.931 33.6004 100.801 34.3879 100.235C35.0442 99.7123 36.7067 99.7123 36.1817 98.5802C35.5692 97.361 34.0817 96.882 32.6817 97.5351C32.0254 97.7964 31.5004 98.3624 30.9317 98.7979C32.0254 96.2289 34.3442 95.4016 36.1817 96.8385C39.4192 99.3639 36.6629 101.759 34.7379 104.11C37.6692 104.415 39.9879 103.5 42.3067 103.152C43.7067 102.934 44.7567 101.933 44.6254 100.278C45.5442 100.235 46.4192 100.235 47.3379 100.191C48.1692 99.6252 48.9567 99.4946 49.7004 100.365C46.9442 101.933 44.4067 103.892 41.1692 104.633C43.8817 104.807 46.5067 104.589 49.0879 104.328C50.3129 104.241 51.6692 103.936 52.413 105.547ZM181.169 103.979C185.544 103.979 189.963 104.72 194.338 103.805C191.713 102.978 189.088 102.543 186.463 101.933C183.794 101.323 181.169 100.54 178.369 99.7994C178.5 102.02 180.382 102.673 181.169 103.979C180.119 102.543 177.275 103.413 176.969 100.888C176.882 100.278 176.313 100.583 176.05 100.844C175.35 101.541 174.388 102.107 174.475 103.326C176.707 103.979 178.894 104.458 181.169 103.979ZM293.738 89.6975C292.469 89.5669 291.725 87.172 290.719 88.2171C289.8 89.175 287.307 89.5233 288.882 92.4842C285.819 89.4798 287.35 88.0429 289.407 86.7366C290.107 86.3012 291.463 86.4318 290.763 84.9078C289.888 83.0355 288.007 82.9484 286.475 82.8613C284.944 82.7743 285.688 84.1241 285.775 84.9949C286.257 89.5233 283.5 91.7875 278.119 90.1329C282.932 90.6119 282.188 86.3012 284.55 84.9078C284.9 84.6901 284.638 82.8178 284.157 82.034C283.544 81.0761 281.838 81.8163 281.663 82.1211C280.132 84.8208 276.238 83.6016 274.925 86.4318C274.75 83.7322 276.15 82.4259 278.513 81.6857C279.869 81.2503 282.188 81.0761 282.275 79.9005C282.407 78.1588 280.482 76.9831 278.994 76.0252C278.294 75.5462 277.725 74.6754 276.632 74.8931C277.682 79.9005 276.675 81.468 272.607 81.1196C273.963 80.4665 274.619 79.5957 274.094 78.0717C273.919 77.5492 273.482 76.6783 274.138 76.33C275.275 75.7204 275.188 75.3285 274.225 74.6754C273.263 74.0658 272.738 74.327 272.257 75.2414C270.157 79.2473 267.182 82.6436 263.857 85.6481C263.332 86.127 262.019 87.0414 263.769 87.651C267.4 88.9137 268.319 91.9182 269.15 95.1403C269.675 97.0562 269.982 99.2333 272.388 100.104C271.819 96.1418 271.819 96.1418 273.963 94.2695C273.569 96.0547 274.925 97.4916 273.875 99.2768C272.694 101.323 275.538 101.846 276.238 103.631C273.438 103.109 271.119 102.543 269.675 100.061C268.582 98.1883 267.357 96.316 265.957 94.6613C263.813 92.1359 263.025 92.2665 260.75 94.5307C259.482 95.7935 260.882 97.0126 260.575 98.3189C258.738 96.7078 258.475 95.0532 259.744 93.0067C262.282 89.0008 264.6 92.5713 267.225 93.4857C266.394 90.2636 264.425 88.6089 261.8 87.9123C260.575 87.5639 253.532 93.1809 253.4 94.2259C253.225 95.7499 256.069 99.451 257.819 99.9735C254.232 101.933 251.694 100.714 251.169 96.6643C250.994 95.4016 250.775 94.6178 249.2 95.2709C246.444 96.4466 243.644 97.4916 240.319 98.8414C243.6 100.365 244.825 104.067 248.588 104.11C269.588 104.458 290.544 104.763 311.544 104.154C315.438 104.023 317.1 102.412 318.107 99.2333C317.013 98.4495 316.4 100.583 315.35 99.5816C317.975 94.0082 317.975 94.0082 314.869 91.0473C317.319 90.7861 318.588 92.5278 319.682 94.0518C321.869 97.0562 318.982 99.6687 318.544 102.499C319.507 101.498 320.075 100.235 320.994 99.3204C322.788 97.5351 321.913 94.2695 324.363 93.0503C326.244 92.0923 325.544 91.4827 324.494 90.699C321.082 88.1735 319.2 84.5595 317.363 80.9019C314.913 75.9381 312.288 75.6768 308.744 80.1182C308.7 80.1617 308.744 80.3359 308.788 80.6407C311.413 80.8584 313.994 81.4244 315.088 84.4724C313.469 82.9049 311.238 85.561 309.663 83.5145C309.05 82.7307 308.219 82.4259 307.169 83.0791C306.207 83.6451 306.294 84.4724 306.425 85.2562C306.6 86.2577 306.95 87.8252 308 87.651C310.669 87.172 312.157 91.0038 315.044 88.9137C310.582 92.0053 307.519 91.1779 305.507 86.606C304.325 83.9064 304.238 83.9064 302.313 86.3012C303.363 86.8672 304.938 86.7802 304.982 88.5219C305.025 89.9152 304.588 90.9167 303.1 91.3521C303.494 89.9588 303.363 88.6089 302.4 87.7381C301.963 87.3027 300.957 87.7381 300.563 88.4783C299.819 89.8281 299.6 91.3521 299.863 92.7455C300.125 94.1388 301.788 93.7034 302.838 93.7905C305.332 93.9211 307.825 94.4872 310.363 94.1388C311.238 94.0082 312.463 93.6163 312.857 94.6613C313.163 95.4886 312.332 96.403 311.719 97.0997C310.844 98.0577 309.794 98.6672 308.394 98.5802C307.213 98.4931 306.032 98.5802 304.85 98.5802C304.807 98.7979 304.807 99.0156 304.763 99.2333C305.944 100.148 307.125 101.062 308.613 102.238C305.157 103.109 302.225 103.37 299.338 100.496C299.863 103.239 298.55 103.326 296.669 103.457C294 103.675 292.775 102.673 292.338 100.278C293.257 99.4946 294.088 98.885 294.35 100.801C294.7 103.588 296.669 101.759 297.894 101.976C298.594 97.5787 300.432 100.104 302.182 101.193C303.013 101.715 304.063 102.064 305.244 101.41C304.5 100.104 302.619 99.6252 302.663 97.7964C305.375 97.4916 308.088 97.7964 310.713 96.0982C307.169 95.6193 303.932 95.1839 300.738 94.7049C299.6 94.5307 298.069 94.2695 298.288 92.8326C298.813 89.741 298.638 86.127 301.919 84.2112C304.194 82.8613 305.857 81.3809 307.082 78.899C307.869 77.3315 309.707 75.5462 311.632 75.3285C315.35 74.8931 315 72.9772 314.082 70.4518C313.819 69.7551 313.688 68.9713 313.382 67.8392C311.325 71.6709 308.482 70.234 305.857 69.5374C305.332 70.713 307.257 70.8872 306.907 71.5403C305.55 73.0208 304.632 68.1875 303.45 71.8887C301.482 69.4067 299.732 66.6636 296.713 65.2267C297.807 64.1381 297.719 63.0931 296.669 62.0045C295.05 60.3499 294.132 62.3093 292.907 62.7012C290.675 59.9145 288.094 57.6067 284.594 56.3875C283.282 55.9086 282.669 56.6923 282.013 57.5632C281.313 58.4776 281.138 59.6097 281.75 60.437C281.969 60.7418 283.325 60.2193 284.157 60.0887C284.769 59.958 285.163 59.0001 285.994 59.6968C285.469 61.003 284.375 61.6562 283.282 62.2222C282.407 62.6577 281.444 62.7883 280.7 61.8739C279.344 60.2193 280.175 56.823 281.925 55.5167C283.325 54.4717 286.65 56.6488 286.432 52.9477C289.582 55.2554 287.613 51.8156 288.182 51.2931C289.319 50.2481 289.975 48.5064 291.944 49.4208C293.782 50.2916 293.957 51.9027 293.169 53.6444C292.819 54.3846 292.294 55.0377 291.419 55.299C292.119 53.6879 292.032 53.296 290.457 50.9012C288.269 53.8185 288.75 56.6053 291.9 59.5661C292.6 60.2193 293.169 61.482 294.482 60.6982C295.575 60.0451 294.744 59.0001 294.875 58.1292C295.007 57.3019 293.738 56.3875 295.007 55.6473C295.313 55.4732 295.925 55.3425 296.144 55.5167C297.369 56.5617 295.838 57.3455 295.794 58.2599C295.794 58.347 295.707 58.434 295.663 58.5647C295.532 59.3049 294.832 60.2193 295.925 60.7418C296.757 61.1337 297.5 60.7853 298.2 60.2193C300.388 58.6082 301.219 56.4311 301.569 53.8185C301.744 52.3381 301 51.7285 300.169 50.9447C299.382 50.2481 299.163 51.1624 298.638 51.3366C296.757 51.9898 298.375 53.0783 298.375 54.1233C295.794 52.9477 295.707 51.1625 297.194 49.5514C298.463 48.158 300.038 48.8547 301.219 50.1174C302.05 51.0318 303.144 51.772 303.1 53.2089C303.013 54.8636 305.463 54.0798 305.507 55.6473C308.263 54.5588 310.713 54.82 312.375 58.0422C313.338 55.4296 312.988 54.0362 311.063 52.9477C309.838 52.251 308.569 51.0318 308.35 49.5949C308.044 47.592 306.775 46.7647 305.2 46.1551C300.038 44.1521 297.938 40.1027 297.763 34.9211C297.719 33.1359 297.15 30.4363 298.9 29.8267C301.044 29.0429 302.794 27.2577 305.419 27.4754C307.038 27.606 308.744 26.9964 310.932 26.6481C308.482 24.8628 306.032 24.8628 303.713 24.2968C304.807 22.8599 306.382 22.2503 307.038 20.8134C304.807 19.9425 303.144 21.4665 301.307 22.0761C299.6 22.6422 298.375 22.8599 298.638 20.465C298.769 19.2023 298.332 18.9846 297.063 18.9846C294.569 18.941 294.963 20.465 295.313 21.989C292.6 21.5101 290.369 19.42 287.263 20.5957C288.619 22.0326 290.413 22.5986 290.675 24.4709C284.9 25.1241 284.9 25.1241 283.544 27.5624C284.375 27.4318 285.075 27.3012 285.775 27.1706C289.45 26.3433 293.694 29.5219 293.825 33.2665C294.044 39.8414 291.288 43.6296 284.288 45.6761C282.1 46.3292 280.044 46.4599 279.65 49.5078C279.475 50.9883 277.9 52.3381 276.194 52.9477C275.057 53.3396 274.75 53.9492 274.969 55.299C275.8 60.2628 276.369 65.2267 273.963 70.0163C273.569 70.8436 273.744 71.4097 274.794 71.5403C279.913 72.0628 282.144 75.8946 284.2 79.7698C284.769 80.8584 285.644 81.1632 286.65 81.468C292.469 83.1661 293.038 83.8628 293.738 89.6975ZM209.038 18.854C203.7 19.3765 199.019 19.5506 194.382 20.6392C185.238 22.7292 176.619 26.2126 168.175 30.175C159.819 34.1374 152.338 39.1012 147 46.8082C144.113 50.9883 142.057 55.3425 142.144 60.6547C142.363 71.9322 147.875 80.5101 156.407 86.9543C170.144 97.2739 185.894 102.63 203.175 103.239C215.294 103.675 226.975 101.106 238.482 97.6658C247.188 95.0532 255.5 91.7005 262.369 85.561C268.538 80.0311 272.869 73.4997 274.269 65.1831C275.975 55.2119 271.6 47.2001 264.95 40.7558C249.419 25.5595 229.994 19.2458 209.038 18.854ZM288.313 39.8414C292.207 37.9691 292.644 34.8776 291.594 32.3521C290.807 30.4363 288.75 28.2591 285.644 28.8252C284.2 29.0864 282.669 28.8687 281.138 28.8687C282.669 25.6466 285.207 23.992 288.794 23.6001C287.438 21.5971 285.294 21.7278 283.675 20.6827C285.6 19.4636 287.394 18.6798 289.494 19.0717C291.55 19.42 291.55 19.4636 293.125 18.3315C294.525 17.3735 299.775 18.5056 300.344 20.0732C300.957 21.7278 301.744 20.8569 302.488 20.3779C305.157 18.7233 307.782 18.7233 310.625 20.3344C309.488 21.7278 307.169 21.5971 306.732 23.6872C308.657 24.1661 310.407 24.8193 311.938 26.0385C312.463 26.4739 312.725 27.0399 312.682 27.6931C312.594 28.3462 312.069 28.5204 311.544 28.4768C307.957 28.172 304.588 28.085 301.657 30.9588C300.563 32.0473 299.119 36.2274 300.432 37.316C301.175 37.9255 302.138 37.9255 303.057 37.4901C303.582 37.2289 302.75 36.0097 303.844 36.3145C304.632 36.5322 304.719 37.4466 304.719 38.1868C304.719 40.4946 303.057 40.6252 301.132 40.451C302.4 43.02 304.282 44.2827 306.775 45.1536C306.95 42.3233 305.113 39.2754 308.132 36.8805C308.482 39.3189 309.575 41.496 308.132 43.8038C307.825 44.2827 308.088 47.0259 309.882 45.9374C311.588 44.9359 312.857 43.1071 314.519 41.8444C315.394 41.1477 314.344 39.5366 314.344 38.2739C316.794 39.7979 315.35 42.1927 315.788 44.2392C318.544 38.2739 322.307 33.0488 326.988 28.1285C323.488 28.2156 322.394 25.9949 321.432 23.6001C320.513 21.2923 319.638 18.9846 316.575 18.2879C322.044 24.5145 322.044 28.9558 315.175 31.8296C316.138 30.2621 318.675 29.4348 317.494 26.9529C316.663 25.1676 315.263 23.8178 313.863 22.2503C315.482 22.1632 316.75 22.1196 318.5 22.0326C315.657 18.6798 313.119 16.5027 308.7 16.7639C302.094 17.1994 295.488 17.0252 288.882 16.8075C284.813 16.6768 281.269 17.7219 277.857 19.7248C273.875 22.0761 273.482 22.7728 274.4 27.4754C276.413 24.1661 276.413 24.1661 278.95 24.3403C275.844 26.4739 275.669 28.651 278.557 31.6119C274.75 31.3942 274.794 31.3942 273.788 29.8267C271.163 25.7772 272.082 22.1196 275.319 18.6363C271.032 20.2038 268.975 23.513 267.75 27.2141C266.525 30.8281 265.65 34.4422 259.7 34.0067C266.307 38.4481 269.85 44.1521 273.263 49.8997C273.744 50.6835 273.788 52.2946 275.275 51.7285C276.982 51.0754 278.207 49.7256 278.775 47.8968C279.3 46.2422 277.857 46.3292 277.069 45.8503C274.4 44.3698 272.3 42.4975 272.475 38.4916C273.963 40.8429 277.857 40.3639 277.113 44.1521C277.025 44.5875 278.6 45.5455 279.475 45.1971C280.394 44.8488 280.7 43.7602 280.175 42.8023C279.738 42.0621 279.038 41.4525 279.475 40.5381C280.7 37.882 279.082 36.4886 277.025 35.1388C278.994 35.313 280.657 36.0532 281.794 37.3595C283.763 39.6237 282.144 42.1927 281.707 44.8923C284.638 44.1521 287.307 43.8038 289.45 40.8864C287.175 41.3654 285.644 41.0171 284.857 39.1883C284.157 37.4901 285.557 36.7934 287.394 35.1824C284.857 38.5787 290.15 36.7934 288.313 39.8414ZM132.957 39.885C134.707 42.4104 129.588 43.6296 132.388 45.8067C134.007 47.0695 135.888 46.4599 137.725 45.6326C133.219 39.8414 135.713 35.4001 141.138 33.9196C136.632 36.5757 138.863 40.3204 138.513 43.499C138.469 43.8909 139.213 44.544 139.738 44.7617C140.569 45.0665 141.007 44.2827 141.532 43.8038C142.582 42.7152 141.575 40.7558 142.407 40.1027C144.988 38.1433 143.719 36.4016 142.275 34.5292C144.113 34.3551 144.813 35.4872 145.382 36.5322C147.132 39.6672 146.257 42.7152 142.932 45.589C142.363 46.068 141.138 46.3292 141.75 47.4178C142.1 47.9839 142.8 48.5499 143.413 48.7241C144.463 49.0289 144.813 48.0274 145.163 47.2872C147.7 42.2798 151.288 38.1433 156.363 35.0082C153.957 33.5278 152.907 31.4813 152.425 29.0429C152.075 27.2141 151.594 25.3853 150.982 23.6436C150.282 21.7278 149.232 19.9425 146.738 19.3329C150.5 25.9514 149.013 30.5669 142.888 31.3506C144.988 28.5204 145.294 25.8208 141.838 23.4259C144.244 23.2517 145.294 24.6016 146.65 25.3853C145.819 23.2953 145.207 21.3359 143.194 19.8119C140.219 17.5477 136.894 18.0702 133.657 17.7219C129.85 17.33 128.8 18.4621 128.713 22.468C138.207 19.9425 138.207 19.9425 140.875 23.513C139.3 23.9484 137.638 23.992 135.625 25.516C140.875 25.2112 140.832 28.8252 141.75 32.0909C139.082 31.5248 136.544 30.8281 134.007 30.5233C130.375 30.0879 129.938 30.5669 129.719 34.2244C129.675 34.6163 129.632 35.1388 129.369 35.4001C126.525 37.8385 128.494 39.972 129.763 42.8023C129.675 39.7543 132.213 41.1477 132.957 39.885ZM104.65 18.2444C101.063 19.3329 99.3567 21.1617 99.1817 24.3839C99.0067 27.2577 99.1817 30.3056 95.7692 31.7861C94.4567 32.3521 95.5942 33.1359 96.0755 33.7019C99.7942 38.4045 102.594 43.6296 104.65 49.2466C104.957 50.0739 104.563 51.772 106.269 51.3366C107.975 50.9012 109.375 49.682 109.857 48.0709C110.25 46.8082 108.588 46.9824 107.844 46.6776C102.069 43.9779 101.413 40.93 105.875 36.0532C103.119 39.406 105.963 41.8879 107.013 44.5875C107.407 45.6326 108.938 46.1115 109.988 45.8067C111.257 45.4148 110.863 44.1086 110.513 43.1506C110.294 42.5846 109.725 42.0621 110.032 41.4525C111.388 38.8399 110.294 37.2289 107.538 36.0097C113.094 35.792 114.232 38.7093 112.132 46.8517C112.569 46.8517 112.963 46.8953 113.357 46.8517C116.769 46.1986 116.944 45.8067 115.413 42.8894C114.844 41.8444 114.888 40.93 116.2 40.2333C116.288 41.4525 116.332 42.6281 117.994 42.541C119.744 42.454 119.394 41.1041 119.657 40.0591C120.269 37.316 116.769 35.4872 117.994 32.5263C118.169 32.1344 116.813 32.2215 116.069 32.265C113.619 32.4827 111.169 32.6134 108.457 32.7875C109.375 29.6089 110.819 27.4318 113.882 26.4739C113.138 26.2562 112.525 26.2997 111.957 26.2126C111.213 26.1255 110.207 26.9964 109.813 25.7337C109.507 24.8193 110.338 24.2097 110.819 23.5565C112.832 20.9005 115.282 20.5957 118.344 22.4244C116.55 19.9861 117.819 19.1588 119.7 18.7669C121.538 18.375 123.419 18.2008 125.257 17.896C119.744 17.7654 114.232 16.7639 108.763 18.3315C105.613 19.2458 103.513 21.7713 103.469 24.9934C106.313 23.8178 106.313 23.8178 108.719 24.0791C107.888 25.6901 105.657 25.8208 105.088 27.7802C104.475 29.9137 106.094 31.0894 107.1 32.744C100.363 31.4813 99.6192 27.2141 104.65 18.2444ZM179.288 22.5551C179.9 20.5086 180.95 19.3765 183.094 20.3779C183.225 20.4215 183.007 21.6407 184.1 21.2488C188.475 19.6813 192.982 18.7233 197.575 17.4606C181.388 17.1558 165.244 18.2444 148.969 17.8525C154.438 20.4215 156.232 25.8208 159.775 29.9573C157.588 30.6104 156.757 28.7381 155.269 28.2591C156.144 33.7019 157.457 34.3551 161.525 31.6119C162.313 31.0894 163.144 30.6104 163.932 30.175C165.419 29.3477 166.075 28.2156 165.463 26.6045C164.457 26.1691 164.194 28.172 163.45 27.3883C162.75 26.6045 163.057 25.4724 163.713 24.5145C164.194 23.7743 165.332 23.4695 165.244 22.3374C163.319 21.0311 161.438 22.9905 159.513 22.5115C160.957 19.8554 163.45 18.854 166.075 19.7248C167.738 20.2909 168.569 21.423 168.963 23.0776C169.357 24.7322 168.657 26.1691 168.132 27.9108C170.932 26.5174 173.338 25.3418 175.788 24.1661C176.4 23.8613 176.575 23.4695 176.75 22.7728C177.8 18.1137 183.575 16.2414 187.863 19.1588C179.244 18.7233 178.719 18.941 179.288 22.5551ZM252.307 28.3898C251.388 22.947 252.219 20.9005 255.763 18.8975C257.513 17.896 259.307 17.8525 260.707 19.2458C262.369 20.944 262.632 23.034 261.188 25.7772C260.838 20.944 257.732 23.9484 255.982 23.513C255.632 22.2067 257.382 21.5536 256.682 20.2473C253.488 22.6857 252.263 25.603 254.057 29.1735C255.457 32.0038 258.738 32.1344 261.8 31.8296C261.713 30.4798 259.744 31.0023 259.875 29.4783C263.769 29.696 266.175 28.085 267.488 24.1661C268.275 21.8148 269.938 19.5942 271.907 17.8525C270.857 16.9816 269.85 16.5898 268.625 16.851C263.419 17.7654 258.169 17.1123 252.919 16.9816C251.65 16.9381 250.557 16.9381 249.419 17.8525C247.275 19.6377 246.225 21.989 246.663 24.4709C247.144 27.2141 250.119 27.3012 252.307 28.3898ZM151.55 103.631C152.032 104.458 152.557 104.415 153.082 104.458C157.588 104.763 162.05 103.936 166.557 104.067C170.757 104.197 173.994 102.847 176.357 99.1462C174.3 98.1883 172.244 97.1868 170.188 96.2289C169.357 95.837 168.657 95.5322 168.525 97.0126C168.219 100.365 165.944 101.367 161.963 101.715C165.025 99.93 162.707 97.8399 163.407 96.1418C164.894 96.3595 165.769 98.4495 167.038 97.2304C167.694 96.6208 166.95 95.0968 166.075 94.5743C163.844 93.2244 161.525 92.0488 159.163 91.0038C157.763 90.3942 157.238 91.9617 156.407 92.6148C155.969 92.9632 155.488 93.4857 155.882 94.2259C156.45 95.2709 157.325 93.3551 158.025 94.6178C155.313 97.1868 154.525 101.193 151.55 103.631ZM403.419 19.2458C399.832 21.4665 399.832 21.4665 398.782 17.896C398.475 16.8946 397.732 16.5027 396.857 16.9381C394.8 17.896 393.794 19.6813 393.488 21.8148C393.4 22.468 393.707 23.2953 394.757 23.2082C394.932 23.2082 395.107 22.9905 395.325 22.947C399.35 21.9455 401.407 23.6436 401.1 28.085C400.882 25.037 398.213 25.4724 396.507 24.5145C395.457 23.9484 394.888 24.7322 394.45 25.2982C393.925 25.9949 394.8 26.2997 395.194 26.7351C396.507 28.1285 397.732 29.5654 399.613 30.3927C397.163 30.3927 394.8 30.3492 393.444 27.8672C393.138 27.3447 392.744 26.7351 391.957 27.2577C391.475 27.5624 391.257 28.0414 391.344 28.6075C391.475 29.8702 395.15 33.0488 396.419 33.0488C399.832 33.0923 402.413 36.2274 400.925 39.2754C399.175 42.8894 402.15 45.023 402.413 47.8968C403.507 38.4916 402.194 29.0429 403.419 19.2458ZM327.469 20.5086C330.007 17.5477 332.369 17.7654 333.857 20.8134C334.25 21.5971 334.382 22.5986 335.519 22.1632C339.238 20.7263 342.869 19.2023 346.544 17.7219C346.5 17.5477 346.457 17.3735 346.457 17.1994C336.963 17.1994 327.469 17.1994 317.1 17.1994C321.432 19.1152 322.175 23.9049 326.507 24.6451C325.938 25.6466 324.582 25.1676 324.232 26.2126C327.513 27.6495 329.569 25.4724 331.844 23.8178C332.282 23.513 332.282 22.468 332.194 22.5115C329.919 23.2953 329.744 19.5506 327.469 20.5086ZM325.413 100.627C326.725 100.54 327.25 100.583 327.775 100.496C328.738 100.365 330.138 100.017 329.788 99.0156C329.307 97.6658 330.838 96.1418 329.263 95.0532C327.95 94.1824 327.119 95.2274 326.2 95.7499C323.007 97.6222 321.782 101.019 319.375 104.197C328.388 103.326 336.875 104.241 345.275 103.457C341.513 101.715 337.619 100.54 334.075 98.5366C333.113 97.9706 332.85 98.406 332.282 99.2768C330.838 101.323 328.869 102.281 325.413 100.627ZM306.775 59.2613C308.088 60.0887 308.657 62.1787 309.969 60.0451C310.494 59.1743 311.282 58.3905 310.494 57.2584C309.75 56.2569 308.744 56.1698 307.694 56.3875C305.2 56.9536 303.144 58.4776 301.088 59.8274C297.107 62.4835 297.282 63.572 301.263 65.7927C303.757 67.1425 306.163 68.5359 308.963 69.2326C310.319 69.5809 311.282 68.9713 311.894 67.9698C312.682 66.7071 310.975 67.0554 310.669 66.3588C310.363 65.6185 309.794 64.9654 309.182 64.051C313.425 65.0525 313.425 65.0525 312.638 60.437C309.575 62.8754 308.525 62.7447 306.775 59.2613ZM402.982 73.0208C402.807 72.9772 402.632 72.9337 402.413 72.8466C402.107 73.4997 401.757 74.1529 401.538 74.806C400.882 77.2008 398.607 79.2038 400.269 82.2082C400.838 83.2968 400.138 85.4739 398.344 85.561C394.45 85.7787 394.713 88.4783 394.888 90.9602C395.019 92.8761 396.069 94.5743 398.082 95.2274C400.05 95.8805 401.232 94.3565 402.413 93.268C403.244 92.5713 403.2 91.265 402.5 90.4377C401.669 89.4363 400.969 89.9152 400.444 91.0038C400.225 91.5263 399.525 91.4827 399.044 91.2215C398.519 90.9167 398.475 90.3942 398.65 89.8717C399.044 88.3912 399.832 87.3898 401.538 87.7816C402.413 87.9994 402.982 87.9558 402.982 86.9108C402.982 82.2953 402.982 77.6363 402.982 73.0208ZM388.063 102.455C384.694 100.67 386.313 98.5366 387.363 96.4901C387.888 97.2304 387.888 98.9285 388.675 98.7108C391.607 98.0141 391.082 99.8429 390.775 101.585C394.319 99.8864 395.5 97.927 394.013 96.2289C392.657 94.6613 390.425 93.5292 388.719 94.0518C386.575 94.7049 384.782 96.6208 382.857 98.0577C382.769 98.1447 382.9 98.6237 383.032 98.885C383.644 100.061 383.688 101.193 382.419 101.802C381.107 102.455 379.663 102.63 378.35 101.41C379.05 100.757 379.794 101.106 380.45 100.975C381.194 100.801 382.025 100.496 381.675 99.5816C381.413 98.8414 380.669 99.1462 380.057 99.4075C377.257 100.496 374.5 101.541 371.088 102.847C377.257 103.762 382.55 102.804 388.063 102.455ZM221.244 17.8089C221.813 18.0702 222.032 18.2879 222.338 18.3315C228.463 19.1588 234.5 20.2473 240.057 23.034C240.669 23.3388 241.369 23.4259 241.675 22.6857C242.375 21.0746 243.688 19.2894 243.425 17.8089C243.119 16.0672 241.107 17.896 239.882 17.4606C239.225 17.2429 238.438 17.2429 237.694 17.2429C232.269 17.2864 226.888 16.5898 221.244 17.8089ZM21.4817 92.223C19.2942 91.3086 20.0817 88.8267 18.5504 86.5625C18.5504 89.0879 18.4629 90.699 18.5504 92.3101C18.6817 94.5307 21.2192 96.0547 23.3192 95.2274C26.4254 94.0082 28.0442 87.7381 25.9879 84.9949C25.2004 83.9499 24.2817 83.5145 23.0129 83.6016C22.2254 83.6451 21.4817 83.9499 21.2192 84.6466C20.8254 85.7787 21.8754 85.6916 22.4879 85.9093C23.5379 86.2577 24.8942 87.3027 23.5379 87.9123C21.3504 88.9137 21.9629 90.699 21.4817 92.223ZM218.357 103.979C225.532 103.979 232.707 103.979 240.625 103.979C238.613 102.151 237.782 99.4946 235.638 100.017C229.907 101.41 224.132 102.63 218.357 103.979ZM401.582 102.412C400.575 101.585 400.313 101.28 399.963 101.062C399.394 100.67 398.519 100.452 398.782 99.4946C398.869 99.2333 399.088 98.885 399.35 98.7979C400.313 98.5802 400.488 99.451 400.925 99.9735C401.407 100.496 401.188 101.672 402.588 101.672C402.588 100.017 402.588 98.4495 402.588 96.7078C400.794 97.0126 399.175 98.1447 397.338 97.2739C396.857 97.0562 396.157 97.3174 396.244 97.9706C396.507 99.9735 394.538 100.844 393.838 102.455C396.332 102.412 398.563 102.412 401.582 102.412ZM19.4254 84.3418C21.5254 82.6872 23.6254 81.9034 26.1192 82.9049C26.1192 81.2503 24.8942 80.5101 24.4567 79.378C23.6254 77.3315 21.5692 77.2879 20.0379 77.3315C18.8567 77.375 19.4692 79.2473 19.3817 80.2923C19.2067 81.5115 18.6817 82.7307 19.4254 84.3418ZM28.3942 35.7484C26.2942 33.7455 23.6692 32.8746 22.0504 30.741C21.6567 30.2185 21.3942 29.2606 20.4317 29.6089C20.1692 29.696 19.9942 30.2621 19.9067 30.6104C19.6879 31.5684 20.3442 31.7861 21.0004 32.2215C24.1504 34.2244 24.1504 35.8355 20.9567 37.7514C20.4317 38.0562 19.6004 38.3174 19.9067 39.0577C20.3442 40.0591 21.1754 39.406 21.7442 39.1012C23.9317 38.0997 26.0317 36.9676 28.3942 35.7484ZM24.8067 41.5396C19.6004 44.3263 18.2004 47.8532 21.0442 52.3381C21.3067 48.1145 23.6254 45.1971 24.8067 41.5396ZM28.1317 86.3447C28.438 89.2621 27.6067 91.7005 26.4692 94.313C28.6567 92.1794 31.5442 93.1809 34.1692 92.0488C30.7129 91.5698 29.663 88.7831 28.1317 86.3447ZM315.482 45.8067C312.769 46.7211 310.888 47.3307 308.744 48.0709C310.057 49.8562 311.807 51.5979 313.338 51.206C315.132 50.727 314.3 48.0274 315.482 45.8067ZM27.9567 32.8746C25.5067 30.5669 23.1004 28.2591 20.6504 25.9514C20.4754 26.1691 20.3004 26.3868 20.0817 26.6045C22.3129 29.1735 24.1942 32.1344 27.9567 32.8746ZM19.9504 68.2311C19.9504 70.234 19.9504 72.2805 19.9504 74.6318C23.1004 72.4112 21.2192 70.2776 19.9504 68.2311ZM243.513 103.892C242.463 101.846 241.5 99.6687 237.869 99.6252C239.925 101.672 241.194 103.413 243.513 103.892ZM26.4692 38.7529C26.2942 38.5351 26.1192 38.2739 25.9442 38.0562C24.1504 39.885 20.7817 39.4495 20.1692 42.9765C22.2692 41.5396 24.3692 40.1462 26.4692 38.7529ZM393.444 89.6104C391.869 90.3506 390.732 91.0473 390.119 92.5713C391.169 92.8326 392.088 93.0938 393.138 93.3551C393.182 92.1794 393.269 91.178 393.444 89.6104ZM376.732 20.2038C375.682 18.5927 374.588 16.9816 372.269 16.9381C372.619 19.8554 374.894 19.6813 376.732 20.2038Z" fill="black"/>
<path d="M44.4496 100.322C43.5309 97.7965 40.6871 97.2739 39.2871 95.271C42.0871 95.8806 44.1871 97.8835 46.8559 98.8415C47.2934 99.0156 47.4684 99.6688 47.1621 100.191C46.2434 100.278 45.3684 100.278 44.4496 100.322Z" fill="black"/>
<path d="M120.575 65.183C120.75 64.3993 122.281 64.2686 121.756 63.2672C121.319 62.3528 120.269 62.8753 119.481 62.8753C118.344 62.8753 117.075 64.0945 116.069 62.5269C117.819 60.6111 119.875 62.7011 121.975 61.9609C120.4 59.6096 118.081 58.3904 115.675 57.2583C114.319 56.6052 113.05 56.6487 111.825 57.4325C111.344 57.7373 111.3 58.2598 111.562 58.8258C112.306 60.5675 113.794 59.5225 115.5 59.5225C113.837 60.9594 112.744 62.1786 110.994 61.4384C109.9 60.9594 109.244 59.9144 109.55 58.6081C110.162 55.9956 112.044 55.2554 114.669 55.5166C113.925 53.6443 112.262 52.4686 112.744 50.4221C114.362 50.6399 115.544 51.6849 116.987 52.5557C118.081 50.7705 118.519 47.5048 121.45 48.7675C123.55 49.6819 122.762 51.9026 121.275 53.5572C121.362 52.2074 121.8 50.5528 119.744 50.6834C117.862 50.814 118.431 52.5122 118.387 53.6443C118.344 56.3875 119.875 58.3033 122.019 59.8709C122.412 60.1756 122.806 60.6546 123.375 60.3934C124.206 60.0015 123.812 59.3483 123.681 58.7823C123.594 58.4775 123.506 58.1727 123.419 57.8679C123.244 56.8664 122.544 55.6037 123.594 54.9941C124.775 54.2974 124.775 55.5166 124.775 56.3004C124.775 56.6923 124.512 57.1277 124.556 57.5196C124.556 58.0856 124.25 58.8694 125.212 59C125.825 59.0871 126.525 59.1742 126.962 58.6081C128.756 56.3004 129.762 53.6878 129.544 50.7705C129.456 49.5513 128.362 49.1594 127.312 48.8982C128.012 50.248 125.606 50.9882 126.656 52.3816C126.962 52.7734 127.269 53.1653 128.056 54.0362C125.256 53.0782 124.512 51.4236 124.687 49.3771C124.775 48.245 125.694 47.5483 126.875 47.5483C130.112 47.5483 130.987 49.8561 131.469 52.6863C133.394 51.5542 134.925 50.0738 137.069 49.5948C137.462 50.4221 136.675 50.9447 136.369 51.4236C135.231 53.2089 133.656 54.7764 137.506 55.4295C139.431 55.7779 139.956 57.955 139.781 59.7838C139.65 61.09 138.687 61.9609 137.244 62.1351C135.187 62.3528 134.531 61.09 134.006 59.479C135.319 59.1306 135.45 61.6996 136.369 60.4804C136.894 59.7402 138.644 59.2613 137.856 57.8244C137.287 56.7358 136.325 56.1697 135.012 56.2568C131.994 56.4745 130.419 58.6952 129.062 60.8723C128.362 62.0044 129.019 63.093 130.769 62.6576C131.512 62.4834 132.256 61.8303 133.7 62.5269C131.731 64.138 129.106 63.0494 127.706 64.6605C127.75 64.2686 127.794 63.8332 127.837 63.4413C128.1 61.569 127.137 60.6546 125.387 60.8288C124.119 60.9594 122.85 61.569 123.2 63.1801C123.55 64.8347 124.644 65.6185 126.437 65.0524C126.919 64.8782 127.356 64.7041 127.837 64.5299C128.931 66.9247 131.206 67.7085 133.481 68.5358C134.619 68.9712 135.844 69.1454 136.762 68.3181C137.55 67.6214 136.85 66.4458 136.806 65.6185C136.762 64.5734 135.056 65.8362 133.919 65.0089C135.8 64.2686 137.637 62.614 138.95 64.9653C140 66.8376 139.475 68.5793 137.069 69.755C134.881 70.8 137.331 72.7159 136.894 74.3705C135.406 74.0657 134.531 72.6288 133.087 71.9757C132.65 74.3705 133 77.1137 130.2 78.1151C129.106 78.507 128.012 78.0716 127.225 76.9395C126.175 75.372 126 73.9351 127.356 72.4111C128.319 73.3255 126.744 75.2849 127.444 74.9365C129.281 74.0221 129.194 77.1572 130.637 76.0686C132.081 75.0236 132.212 73.369 131.95 71.8886C131.425 68.7971 126.875 65.5749 123.725 65.9668C123.287 66.0103 122.806 66.4022 122.5 66.7941C120.925 68.6664 119.7 70.7129 119 73.0207C118.519 74.5447 118.825 75.938 120.575 76.5911C121.056 76.7653 121.931 77.0266 121.8 76.4605C121.231 74.5011 124.775 73.5867 122.019 70.9306C123.812 71.845 123.987 72.5852 124.075 73.369C124.25 75.2849 124.25 77.5926 122.194 78.1587C120.006 78.7683 118.519 77.0266 117.819 74.9801C117.556 74.2399 117.775 73.2384 116.462 73.4561C117.644 70.8435 120.444 69.2325 120.925 66.1845C120.706 65.8362 120.619 65.4878 120.575 65.183ZM127.662 60.2192C129.981 57.955 132.562 55.952 134.662 52.3816C130.725 54.3845 129.194 57.3454 127.662 60.2192Z" fill="black"/>
<path d="M82.25 98.1881C82.3813 97.8398 82.4688 97.2737 82.7313 97.1431C89.9938 93.2243 95.375 87.5202 99.4875 80.5099C99.575 80.3792 99.8375 80.2922 99.9688 80.2051C99.2688 83.1224 97.0813 85.2125 95.5063 87.9992C101.981 88.6523 98.175 95.1837 101.5 97.8398C101.938 96.0981 102.156 94.3128 102.813 92.7018C103.6 90.8294 105.044 89.6973 107.538 90.7423C105.919 93.3114 106.575 95.9239 107.275 98.5364C106.094 97.6656 106.094 97.6656 105.131 94.0516C104.956 93.442 105.219 92.3099 104.169 92.397C103.206 92.4405 102.9 93.3114 102.944 94.2693C102.988 95.6191 102.9 96.9689 103.075 98.3187C103.206 99.4508 102.681 100.278 101.85 100.583C100.713 100.975 100.669 99.7556 100.406 99.1025C99.2688 96.2287 97.0375 94.487 94.3687 93.1372C95.4187 92.0051 96.6438 92.5276 97.9125 92.7453C96.775 89.915 94.5875 89.1748 92.6625 91.0036C90.7813 92.7888 88.8125 94.487 86.5812 95.9239C84.0437 97.5785 84.8313 99.7121 88.375 101.149C89.25 100.06 88.2875 98.3623 89.7313 97.3608C90.9125 98.3187 92.05 100.148 94.0625 98.1881C94.2813 101.105 92.4437 101.715 90.5187 102.02C87.9812 102.412 85.3562 102.412 84.3062 99.3637C83.8687 98.2316 83.65 97.4043 82.25 98.1881Z" fill="black"/>
<path d="M120.575 65.1833C120.663 65.5316 120.75 65.8364 120.794 66.1847C118.825 67.7087 116.856 69.2762 115.675 71.5405C115.281 72.3242 114.188 73.3257 115.894 73.9788C114.625 75.5899 114.275 74.8497 114.406 73.3257C114.538 71.7146 114.581 70.3213 112.481 69.7988C110.775 69.3633 109.375 68.0135 110.163 66.1847C111.125 64.0076 113.006 64.2253 115.5 65.6187C113.444 65.6187 112.219 66.2283 111.431 67.4475C111.344 67.6216 111.869 68.4054 112.263 68.6231C113.619 69.4504 115.106 69.4504 116.419 68.4925C117.863 67.4475 119.175 66.2718 120.575 65.1833Z" fill="black"/>
<path d="M124.075 30.8282C122.237 30.7412 121.275 29.3043 121.494 27.3448C121.625 25.8644 122.85 24.9936 124.381 25.2984C126.175 25.6467 127.312 26.7353 127.094 28.7382C126.919 30.2186 126.262 31.2637 124.075 30.8282Z" fill="black"/>
<path d="M60.1133 102.194C65.4508 101.976 70.7008 101.323 75.9508 100.322C70.832 102.194 65.6258 103.457 60.1133 102.194Z" fill="black"/>
<path d="M124.293 40.8428C124.643 42.0184 124.949 43.1941 125.387 44.3262C125.781 45.3712 125.606 46.1114 124.512 46.5904C123.943 46.8516 123.287 47.2871 122.806 46.7645C122.018 45.9808 122.762 45.2406 123.112 44.5439C123.681 43.4118 124.074 42.2361 124.293 40.8428Z" fill="black"/>
<path d="M126.263 85.256C125.782 83.732 125.563 82.8611 125.213 82.0338C124.819 81.0759 124.951 80.2486 125.782 79.5519C126.307 79.1165 126.744 79.3342 127.182 79.639C128.013 80.2486 127.838 81.0759 127.576 81.8596C127.269 82.8176 126.876 83.732 126.263 85.256Z" fill="black"/>
<path d="M118.913 98.1884C118.257 100.322 115.369 99.9301 114.669 101.977C114.669 102.02 114.101 101.977 113.882 101.846C113.707 101.759 113.226 101.411 113.663 101.193C115.501 100.366 116.026 97.2305 118.913 98.1884Z" fill="black"/>
<path d="M49.3945 100.322C53.0258 100.888 56.7008 101.236 60.2883 102.238C56.4383 102.76 52.8945 101.759 49.3945 100.322Z" fill="black"/>
<path d="M113.925 98.9284C110.119 98.2753 109.025 96.403 110.294 93.7469C110.512 93.2679 110.644 92.7019 111.344 93.0502C111.562 93.1808 112.175 93.355 111.737 93.8775C109.637 96.3594 111.256 97.6657 113.925 98.9284Z" fill="black"/>
<path d="M192.5 93.0505C178.763 91.3523 167.038 85.4305 157.457 75.7206C149.407 67.5346 150.15 57.4327 156.669 48.7678C161.307 42.6283 167.782 39.1449 174.475 35.9228C181.388 32.6135 188.432 29.6091 196 28.3899C205.844 26.7789 215.644 27.7368 225.444 29.2608C234.938 30.6977 243.732 33.7892 251.825 38.8837C259.613 43.804 264.863 50.9449 265.519 59.9147C266.088 67.491 263.419 74.632 256.419 79.3781C246.444 86.1707 235.725 91.1781 223.825 93.5294C213.282 95.6195 202.825 95.0534 192.369 92.9198C196.744 92.9198 201.075 93.9648 205.494 93.3117C202.738 92.4409 199.85 92.4409 197.05 91.9619C194.907 91.6136 192.282 92.5715 190.663 90.2202C192.325 90.4379 193.944 90.6121 195.607 90.8733C197.488 91.1781 198.932 90.3073 199.85 88.9575C200.725 87.6512 200.944 86.0401 199.544 84.7338C198.932 84.1678 198.975 83.4276 198.932 82.7309C202.519 84.5161 206.063 86.3885 209.038 89.1316C209.869 89.9154 210.788 90.046 211.488 89.6977C212.057 89.3929 212.625 88.3479 212.582 87.6947C212.45 86.5191 211.094 87.2593 210.35 86.7803C211.138 86.7368 211.882 86.6497 212.582 86.6062C213.675 86.5191 213.107 85.4305 213.588 84.9516C213.894 84.6468 213.632 83.9501 213.238 83.9936C210.657 84.5597 209.038 82.5567 207.069 81.6859C207.682 81.5552 208.469 82.0778 209.169 80.815C207.244 80.7279 205.538 80.815 203.875 80.4667C201.819 80.0748 201.819 78.5508 201.688 77.201C201.513 75.3722 203.132 76.3302 203.963 76.0254C204.4 75.8947 205.013 76.1995 205.275 75.5028C205.669 74.4143 203.832 75.2416 204.094 73.9789C204.619 71.4099 206.238 70.7567 208.513 70.7567C209.125 70.7567 210.438 70.4084 209.782 69.6246C207.857 67.404 208.6 64.356 207.113 62.0918C206.675 61.4386 206.194 60.1324 205.363 61.0032C203.788 62.6578 201.032 63.2674 200.638 66.1412C200.507 67.1427 200.463 68.4925 199.063 68.9715C199.063 67.5346 200.157 66.2283 199.632 64.4866C198.363 67.1427 197.225 69.9294 193.55 70.1036C195.913 71.1486 197.575 70.0165 199.194 68.8409C198.669 71.3228 196.525 71.1921 194.732 71.4099C192.85 71.6711 190.75 71.5405 189.307 72.7161C187.819 73.9353 186.375 73.9353 184.669 73.9353C183.138 73.9353 180.6 73.108 180.513 75.4158C180.425 77.1575 182.875 76.3737 184.188 76.6785C185.194 76.9398 186.288 76.8962 187.294 77.0268C191.844 77.68 195.519 80.0748 199.063 82.7744C193.244 79.9442 187.425 77.5929 180.732 77.2445C176.969 77.0268 176.619 75.5464 177.363 71.4099C174.607 74.3272 172.288 77.1575 175.438 81.6423C173.775 79.4217 172.638 78.6814 171.938 81.6859C172.244 79.6394 172.594 77.5929 172.9 75.4593C170.494 76.722 169.532 78.8992 168.744 81.1634C168.394 82.2084 168.7 82.9051 169.619 83.5582C175.657 87.8254 182.175 90.525 189.744 90.2202C189.088 90.5685 188.475 90.8733 187.819 91.2217C189.307 92.3102 191.232 91.8313 192.5 93.0505ZM260.619 51.8158C256.769 51.8158 253.094 50.2047 248.413 51.0755C252.744 52.5995 256.682 52.2076 260.357 53.2527C260.925 53.4268 262.019 53.9058 262.194 52.9043C262.369 51.9464 261.1 52.2076 260.575 51.7722C261.232 50.9885 261.582 49.8999 260.313 49.6822C257.032 49.1597 253.707 48.3759 250.338 49.2903C251.475 50.2047 252.875 49.987 254.144 50.2482C256.332 50.7272 258.782 50.0305 260.619 51.8158ZM230.563 44.6313C229.95 46.373 231.394 46.6342 232.444 47.2003C232.925 47.4615 232.4 48.9855 233.538 48.2017C234.019 47.8534 234.544 46.6342 234.325 46.373C233.407 45.1973 232.707 43.0202 230.475 44.7619C230.038 43.1508 228.857 43.9346 227.894 43.9346C225.925 44.0217 223.957 44.2829 222.032 43.4121C221.375 43.1073 220.457 42.5848 219.888 43.6298C223.213 46.7648 226.888 46.0682 230.563 44.6313ZM218.969 80.4231C219.757 81.8165 220.938 81.5988 221.769 80.6844C222.513 79.8135 222.644 78.5944 221.463 77.7671C220.369 77.0268 219.407 75.9383 217.875 76.4608C217.088 76.722 215.732 75.8076 215.513 77.0268C215.294 78.0718 215.513 79.4652 217.088 79.7265C214.419 80.1619 216.913 82.4261 215.688 83.5147C214.769 84.3855 215.819 84.9951 216.607 85.2564C217.613 85.5612 217.963 85.0386 218.182 83.9936C218.357 82.818 217.788 81.3811 218.969 80.4231ZM240.057 77.8106L240.013 77.7235C240.757 79.3781 238.044 79.9006 238.788 81.5117C236.25 81.0763 235.594 83.5147 234.238 84.6903C233.45 85.387 233.319 87.5206 234.194 88.8704C235.113 90.2637 236.032 88.8704 236.907 88.6091C243.819 86.5626 249.944 82.9051 255.719 78.7685C262.325 74.0659 264.732 67.2298 264.425 59.4357C264.25 55.0814 263.332 54.4283 259 53.9929C258.169 53.9058 257.338 53.6881 256.55 53.5575C253.838 53.1656 251.169 52.2512 248.369 53.122C251.869 53.8623 255.413 54.6025 258.913 55.3427C255.107 55.3427 251.607 53.9493 247.757 54.3412C251.125 55.2992 254.494 56.2571 257.863 57.215C254.144 57.0409 250.644 55.6475 246.882 55.5169C247.494 55.9958 248.15 56.2571 248.85 56.4748C249.55 56.6925 250.294 56.7361 250.6 57.5634C248.807 57.5198 247.232 56.3877 244.432 56.7361C250.163 58.9567 255.063 60.8726 259.963 62.7449C254.582 61.787 249.769 59.0438 244.257 58.0423C244.432 59.4357 245.657 59.218 245.919 59.9147C245.044 60.6549 243.95 58.8696 243.032 60.3501C244.344 61.6128 246.575 61.4822 247.975 63.311C245.832 62.8755 244.344 61.2645 242.244 61.6564C242.638 63.0933 244.257 62.7885 244.475 63.9641L244.519 63.9206C243.425 64.4431 241.807 62.353 241.282 64.0947C240.932 65.3139 243.119 64.9656 243.819 65.8364C243.95 65.9671 243.994 66.1412 244.082 66.3154C242.813 66.8814 241.675 64.9656 240.188 66.3154C241.369 67.0556 242.463 67.7523 243.513 68.449C241.282 67.0556 239.532 67.6652 238.132 69.7117C240.757 60.7855 245.788 53.1656 251.038 45.6327C251.913 44.37 253.488 43.4121 253.313 41.322C251.432 41.8881 251.125 44.0217 249.507 44.5442C249.55 43.6298 249.157 43.5427 248.369 43.7604C247.013 44.1088 245.613 44.37 244.213 44.6748C244.169 44.5006 244.125 44.37 244.082 44.1958C246.4 43.4556 248.675 42.6719 250.95 41.9316C250.688 40.8866 249.638 41.7139 249.419 40.9737C250.032 40.4947 251.125 41.2785 251.563 39.9722C246.138 37.4903 240.844 34.66 235.244 32.7006C233.319 32.0475 231.263 29.6962 228.682 31.4379C225.357 28.6512 221.419 29.7397 217.175 29.1737C219.232 32.4829 222.644 32.1781 225.007 33.7021C226.538 34.66 226.757 31.525 228.463 31.7862C228.113 32.5265 227.5 33.2231 227.413 34.0069C227.107 36.3147 229.338 37.0113 230.475 38.4047C231.175 39.232 231.788 38.5789 232.182 37.9257C233.188 36.2711 234.588 36.663 235.594 37.5774C236.863 38.6659 235.332 39.5368 234.938 40.5383C234.588 41.4527 232.357 41.5833 233.713 43.0637C234.675 44.1088 236.032 44.2394 237.475 43.4121C241.238 41.1914 241.282 41.2785 242.157 45.7198C242.463 47.2003 242.375 48.5936 242.244 50.0741C242.113 51.9028 241.107 53.4268 240.8 55.125C240.669 55.8652 240.363 57.215 242.025 56.3442C236.25 67.7087 232.05 79.6829 227.194 91.57C228.944 91.4394 229.075 90.1767 229.513 89.1752C231.307 84.8645 233.057 80.5102 234.938 76.2431C235.769 74.4143 236.163 72.2372 238.175 71.1051C238.788 71.584 239.794 71.5405 240.057 72.4984C240.275 72.6726 240.45 72.8468 240.669 73.0645C241.019 74.5014 239.882 74.9803 239.007 75.7641C236.382 78.1154 233.713 80.4231 232.488 84.4726C235.9 82.6003 237.125 79.2475 240.057 77.8106ZM194.338 65.4881C194.863 64.6608 194.95 63.0933 194.557 63.0497C192.85 62.9626 190.969 62.0047 188.738 63.9206C191.188 64.0076 193.2 63.6593 194.382 65.4445C191.975 66.7073 188.563 66.2283 187.075 69.3198C189 67.97 191.013 68.1006 193.157 68.449C193.725 68.5361 194.688 68.5361 194.95 68.1877C197.707 64.4866 201.075 61.1338 202.169 56.4313C202.169 56.3442 202.125 56.2135 202.125 56.1265C201.907 54.9073 202.475 53.9493 202.869 52.8608C203.919 49.9434 206.763 50.0305 208.863 48.942C209.563 48.5936 210.657 48.4195 209.913 47.2438C209.213 46.1988 208.513 44.9361 207.069 45.1102C206.063 45.2409 206.063 46.1988 206.238 47.1132C206.413 47.9405 207.2 48.8549 205.45 49.1161C200.463 49.9434 199.632 51.3368 198.932 56.5183C198.494 59.8276 197.794 63.4416 194.338 65.4881ZM209.825 42.0623C209.125 42.0187 208.338 41.801 207.682 41.9316C207.113 42.0623 206.5 42.5412 207.157 43.2814C208.6 44.8925 216.825 44.4571 218.05 42.5848C220.019 39.5803 222.863 39.0578 225.969 39.711C226.8 39.8851 227.5 40.4947 227.938 39.4497C228.419 38.2305 227.413 37.8386 226.538 37.4903C223.869 36.4017 221.594 37.2726 219.538 38.9272C218.444 39.7981 218.094 39.798 217 38.6224C211.794 32.9619 207.113 35.4438 204.05 40.3641C203.219 41.7139 202.694 43.2814 202.038 44.7183C201.032 44.4571 201.032 42.9331 199.982 43.4121C199.15 43.804 198.888 44.5006 199.413 45.4586C199.544 45.7198 199.019 46.3294 198.757 46.7648C198.407 47.3309 198.188 47.8969 198.713 48.463C199.282 49.0726 199.894 48.463 200.463 48.3324C203.438 47.5921 204.4 45.3279 204.882 42.6719C205.319 40.1464 206.544 38.2305 209.125 37.3161C211.532 36.4888 213.107 37.708 214.55 39.3626C215.075 39.9722 215.819 40.4076 216.563 41.0172C214.419 43.2814 212.144 43.0202 209.738 41.8881C210.875 41.9316 212.013 42.0623 213.15 41.9752C213.763 41.9316 214.857 41.801 214.375 40.7124C214.069 40.0593 213.369 39.5368 212.625 40.3641C211.838 41.1914 211.182 40.8866 210.482 40.277C209.957 39.7981 209.169 39.798 208.819 40.3641C208.25 41.3656 209.65 41.4091 209.825 42.0623ZM215.513 49.8564C215.119 52.8172 212.538 52.9914 210.482 53.2962C209.388 53.4704 208.6 54.6025 207.375 54.1235C206.982 55.3862 208.6 56.7796 210.175 56.5619C207.244 59.9147 208.338 66.0106 210.875 67.97C210.919 67.7523 210.963 67.5781 211.007 67.3604C211.225 66.6637 209.694 65.401 211.532 65.2268C213.632 65.0527 211.138 67.0121 212.407 67.3604C211.532 68.5361 211.925 69.7117 212.844 70.3648C213.807 71.1051 215.513 72.7161 216.3 71.018C217.044 69.4069 218.269 67.8829 218.488 65.8364C217.35 65.9235 216.257 66.1412 215.425 65.6623C217.35 63.5722 218.75 60.263 222.819 61.9612C221.288 60.9597 220.019 59.8711 218.138 60.6113C220.85 54.9508 222.863 61.1774 225.313 60.5242C225.357 59.8276 225.313 58.9567 225.357 58.1294C225.444 56.8667 225.357 54.9944 226.757 54.4283C228.769 53.601 228.244 52.2512 227.938 50.9449C227.544 49.2468 226.713 47.8534 225.007 46.939C223.038 45.8505 219.888 48.8549 218.75 45.1102C218.75 45.0667 217.438 45.1973 217.394 45.3715C216.913 47.0261 214.769 47.8969 215.513 49.8564ZM164.413 43.5427C163.8 45.0667 161.219 44.1088 161 46.5471C164.5 46.1117 167.957 45.6763 171.413 45.2409C171.282 46.373 170.494 46.3294 169.575 46.4165C166.863 46.5907 164.15 46.8955 161.438 47.1567C160.607 47.2438 159.688 47.0696 159.075 47.7663C154.744 52.6431 151.944 58.0423 153.125 64.7914C154.482 72.4984 159.775 77.2881 165.725 81.5988C167.038 82.5567 167.257 81.8165 167.869 80.7279C170.363 76.1995 173.032 71.9324 178.238 69.7988C182.438 68.0571 183.182 67.0992 184.232 64.7479C181.738 66.0106 179.244 67.2733 176.794 68.4925C181.957 65.4445 186.594 61.0903 193.332 61.7434C195.738 61.9612 198.319 58.8261 198.1 56.4748C197.925 54.6896 195.782 53.601 194.163 54.4283C193.594 54.7331 193.025 55.4733 192.238 54.8202C194.775 49.2903 194.775 49.2903 189.132 48.1147C192.588 47.6357 194.907 46.1552 195.257 43.2379C195.563 40.6254 193.244 38.5353 192.238 35.618C194.032 36.8372 195.3 37.708 196.613 38.5789C197.619 39.2755 198.582 39.1885 199.5 38.4047C200.463 37.6209 200.025 36.5759 199.675 35.8357C199.019 34.3988 198.013 33.1361 196.875 31.3944C204.619 35.5744 207.725 34.7907 207.594 29.0866C202.694 29.6091 197.575 28.956 193.157 31.6121C191.582 32.5265 190.138 32.8748 188.169 32.3523C188.519 33.5279 189.875 32.9619 190.05 34.094C189.044 34.0069 188.213 33.8763 187.382 33.8763C186.682 33.8763 185.807 33.3973 185.369 34.4423C186.594 35.0084 188.213 34.3117 189.482 35.7921C186.244 35.5744 183.269 34.7907 180.294 35.5744C181.825 36.2711 183.619 35.6615 185.675 36.7065C182.482 36.7065 179.944 36.7065 176.532 36.7065C180.557 37.9257 183.969 37.5338 187.207 38.3176C182.657 38.7966 178.15 37.7951 173.644 38.6224C177.494 39.4497 181.475 39.0578 185.675 40.1028C179.725 41.1479 173.994 39.0578 168.482 40.5383C168.482 40.8866 168.525 41.2785 168.525 41.6268C173.775 41.6268 179.025 41.6268 184.275 41.6268C178.807 42.2364 173.338 42.2364 167.913 42.2364C166.513 42.1058 165.069 41.8881 164.413 43.5427ZM231.088 65.0091C233.232 64.3995 233.932 66.4896 235.332 65.5752C235.55 64.2689 233.932 64.5302 233.713 63.6593C234.413 62.7014 235.463 64.835 235.813 63.5722C236.819 59.8711 239.4 56.6054 239.182 52.5124C239.138 51.3803 239.138 50.3789 237.738 50.2918C236.644 50.2047 235.375 49.1597 234.544 50.3789C233.713 51.5545 235.2 52.1641 235.638 52.9914C235.813 53.3397 236.032 53.6881 236.207 53.9493C235.069 55.0814 233.669 53.5139 232.663 54.4719C233.013 55.9958 233.363 57.4763 233.713 59.0873C232.663 58.9567 232.575 58.2165 232.094 57.8246C231.175 57.0844 230.694 55.2556 229.207 55.9958C227.982 56.6054 226.844 57.7375 226.669 59.3486C226.625 59.6534 226.582 59.9582 226.582 60.263C226.582 61.7434 226.1 62.5707 224.482 63.2239C220.894 64.5737 218.925 69.7988 221.419 71.9759C224.7 74.8497 227.107 78.4637 230.388 81.6859C231.175 79.2475 231.744 77.0268 232.619 74.9368C234.107 71.4534 235.025 68.0571 231.088 65.0091ZM211.969 28.8689C211.007 29.2172 209.519 27.9981 208.95 29.435C208.469 30.6106 209.213 31.9169 210.044 32.8313C211.05 33.9198 212.188 34.0069 212.757 32.2652C212.757 32.2217 213.107 32.2217 213.282 32.2652C215.338 32.5265 215.25 32.4829 215.207 30.6541C215.163 27.9981 213.15 29.2608 211.969 28.8689ZM195.782 48.463C196.875 47.6792 196.482 46.5907 196.613 45.6327C196.832 43.7604 197.532 42.1929 199.588 41.6704C200.288 41.4962 201.032 41.2785 201.732 41.2785C202.694 41.2785 203.263 40.7124 203.263 40.0158C203.307 38.753 202.213 39.3626 201.6 39.3626C196.963 39.4933 194.163 43.804 195.782 48.463ZM205.932 52.2076C207.638 51.9464 209.038 51.4239 210.394 51.5981C212.757 51.8593 213.807 50.4224 214.682 48.7678C214.944 48.2453 215.819 47.2438 214.507 46.7213C213.588 46.3294 212.757 46.6342 212.582 47.6357C212.144 49.6822 210.7 50.0305 208.95 50.3789C207.988 50.553 206.588 50.3789 205.932 52.2076ZM240.45 42.7154C238.832 43.6298 238.132 44.8925 237.169 45.9811C236.425 46.8519 236.95 47.5051 237.563 48.0711C238.132 48.5936 238.438 49.7257 239.444 49.3774C240.232 49.1161 239.925 48.1147 240.1 47.4615C240.494 45.9811 240.888 44.5006 240.45 42.7154ZM205.1 53.2527C203.613 56.5619 203.569 59.8711 201.688 62.4401C205.494 59.6534 206.5 57.1715 205.1 53.2527ZM214.988 34.9648C216.738 34.3552 218.357 34.7907 219.975 34.9213C220.632 34.9648 221.419 36.3147 221.769 34.66C222.032 33.5279 221.375 32.8313 220.238 32.8313C218.269 32.8313 216.388 33.2667 214.988 34.9648ZM221.944 41.8445C223.432 43.325 225.05 43.7169 226.932 42.5848C225.619 40.1028 223.913 40.4947 221.944 41.8445ZM182.482 72.3243C184.975 73.6305 187.294 74.3272 189.263 70.8874C186.594 71.4534 184.538 71.8888 182.482 72.3243ZM211.925 83.6017C213.019 83.5582 214.157 83.7759 214.2 82.1648C214.244 80.7715 213.282 80.6844 212.319 80.7715C211.532 80.815 210.482 80.3796 210.482 82.0342C210.482 83.3405 210.788 83.6888 211.925 83.6017ZM212.1 77.2445C210.613 76.8962 210.875 78.4202 210.744 79.204C210.569 80.5973 211.838 80.2925 212.669 80.4231C214.988 80.7715 212.494 78.5944 213.85 78.1154C214.2 77.9848 213.019 77.3316 212.1 77.2445ZM203.263 37.6645C205.275 36.663 207.244 36.3147 208.6 34.7471C205.888 33.9198 204.313 34.9648 203.263 37.6645ZM185.938 68.1006C186.769 67.404 187.513 66.8814 188.125 66.2718C188.738 65.7058 190.094 66.0977 190.182 64.8349C186.769 64.5302 186.769 64.5302 185.938 68.1006Z" fill="black"/>
<path d="M263.199 47.2C250.687 32.1779 233.974 26.5174 214.943 25.4723C196.13 24.4709 179.155 29.8266 163.362 39.4495C158.068 42.6716 153.474 46.8952 150.849 52.7299C147.087 61.003 148.662 68.5793 154.087 75.7638C152.468 74.893 152.512 74.893 151.549 73.4561C144.024 62.1351 148.005 50.8576 156.318 43.5424C169.662 31.8295 185.587 26.2126 202.868 24.4709C213.28 23.4258 223.824 24.2096 233.974 27.214C242.987 29.9137 251.387 33.8325 258.343 40.3203C260.443 42.2797 262.237 44.3262 263.505 46.8952C263.418 47.0258 263.33 47.1129 263.199 47.2Z" fill="black"/>
<path d="M263.55 46.939C270.507 56.1264 269.982 68.5796 264.6 74.8497C265.607 72.2371 266.525 70.3648 267.05 68.4054C268.713 62.0917 267.969 56.0393 264.688 50.3353C264.119 49.3338 263.725 48.2888 263.244 47.2438C263.332 47.1131 263.419 47.026 263.55 46.939Z" fill="black"/>
<path d="M262.501 77.4185C259.657 82.4694 254.757 84.7771 249.77 86.9542C254.145 83.9498 258.695 81.1631 262.501 77.4185Z" fill="black"/>
<path d="M42.4375 48.7677C42.875 46.2422 44.3188 44.7182 47.425 44.3699C45.325 41.3654 46.4188 37.3595 43.6625 34.3987C46.6813 31.9167 50.5313 29.8267 54.8625 29.13C63.525 27.7367 72.0563 28.3898 79.8875 32.744C86.45 36.4016 89.9938 42.4975 92.7063 49.2031C97.125 60.0887 96.9938 70.5824 89.8625 80.3795C84.5688 87.6946 77 91.2651 68.3375 92.6584C61.8625 93.7035 55.3875 93.747 49.4375 90.3071C53.375 90.4378 56.9187 92.5278 60.9 92.702C62.125 92.7455 63 92.5278 63.525 91.7005C64.1375 90.7426 62.7375 90.6119 62.475 90.0023C64.925 90.699 67.5938 90.4378 70 91.5263C70.2188 91.6134 71.4 91.9182 71.3563 90.9603C71.225 88.8267 71.9688 86.1271 68.3813 85.8658C67.2 85.7787 66.4563 84.8208 65.7125 83.95C66.1938 84.1241 66.7187 84.2547 67.1125 84.5595C68.775 85.6481 70.7438 86.5625 72.1875 84.9514C73.3688 83.6452 73.1938 81.468 72.1 79.8134C70.525 77.4621 68.95 75.0673 67.2 72.8466C65.8875 71.192 63.9625 70.3212 61.8188 70.0599C60.9438 69.9728 59.85 69.4503 59.3687 70.626C58.975 71.5839 58.9313 72.4112 59.5 73.6739C60.9875 76.8525 63.35 79.5086 64.6188 82.7308C61.5125 79.8134 59.8062 75.6769 56.3937 73.0208C57.6625 70.147 55.6063 67.0119 51.8 66.3588C52.325 68.6666 53.4188 70.6695 54.4688 72.6289C54.95 73.4998 55.65 73.2385 56.3937 73.0643C55.7812 73.7175 56.7437 74.24 56.6125 74.6754C55.65 78.1153 56.6563 81.468 56.875 84.8208C53.7688 85.7787 52.1063 88.6525 49.5688 90.3507C47.5125 89.7411 45.6313 88.9138 44.3625 87.085C45.6313 86.606 46.6375 89.175 47.8625 87.5204C48.7375 86.3012 49.7875 85.1691 49.875 83.3839C50.0063 80.5972 50.4437 77.854 50.7937 74.806C51.5812 75.9381 51.2313 76.8525 51.1 77.7234C50.9688 78.5071 50.4 79.7263 51.3625 79.9005C52.5 80.0747 53.8125 79.6392 54.9937 79.2038C56.0437 78.8119 55.3438 77.9411 55.0813 77.3315C53.9875 74.4142 52.675 71.5404 51.6687 68.5795C49.7437 62.9625 46.6375 57.5632 49.1313 51.206C50.0063 48.9854 48.3875 46.4164 46.2 45.9374C44.7125 45.5891 43.9687 47.4178 42.9187 48.2887C42.7437 48.4629 42.5688 48.637 42.4375 48.7677ZM92.6188 67.9699C94.0625 69.668 94.2813 68.623 94.3688 67.2297C94.5875 62.0046 94.2375 56.8666 92.7063 51.8592C91.0875 46.6341 88.4625 41.975 84.7 37.9691C84.35 37.5773 83.9563 36.7935 83.2563 37.4031C83.0813 37.5337 83.3438 38.1433 83.3875 38.5352C81.55 38.0562 82.2063 35.7485 80.0625 34.6599C84.875 47.2001 88.9875 59.392 92.5313 72.1499C93.8438 70.3647 93.1875 69.1455 92.6188 67.9699ZM75.9063 60.3064C76.0375 61.8304 75.9937 63.7463 77.8312 64.0511C79.3625 64.2688 81.2875 64.0511 82.0313 62.0481C83.9563 62.7883 83.1688 63.6156 82.2938 64.7913C79.7125 68.2747 81.0688 71.2356 85.3563 71.4968C87.4125 71.6274 89.425 71.8452 91.7875 72.716C88.5938 61.2208 84.35 50.5964 81.1563 39.7108C79.1875 32.9618 74.9875 30.7846 68.8188 30.3492C66.1938 30.175 63.6125 29.8267 60.9875 29.8267C58.5375 29.8267 56 29.7396 53.1563 31.0459C56.8313 31.8732 59.6312 33.3972 62.0812 35.4872C62.8687 36.1404 63.5688 36.2274 64.6188 35.8791C72.5375 33.3101 80.4563 40.6252 78.3563 48.7241C77.3063 52.6429 77.4375 56.3876 77.9625 60.2629C77.2188 60.0887 76.5188 59.9581 75.8188 60.3935C76.2563 59.3485 77.2625 58.5647 77 56.6488C74.0688 59.3485 71.3563 61.7433 68.8188 64.3123C68.2938 64.8784 69.825 65.5315 69.4313 66.4894C68.6875 66.533 67.5938 64.9219 67.2438 66.7071C66.8938 68.4053 66.5438 70.3212 68.075 71.7145C69.5188 73.0208 69.1687 70.3212 70.6125 70.7566C68.6 71.4968 70.4812 72.6289 69.9562 73.761C69.3 75.2415 69.9563 76.2429 71.7938 75.2415C73.0188 74.5883 73.4125 75.5027 73.325 76.33C72.975 80.1182 75.6438 82.3824 77.4375 85.5175C78.3125 84.037 77.4375 82.6001 78.8813 81.468C78.3563 83.6016 78.5313 85.2127 80.0625 86.4754C80.5875 85.1256 80.675 85.1256 82.3813 85.8658C82.8625 86.0835 83.1688 85.7352 83.4313 85.4304C84.9625 83.9064 84.9625 82.4695 83.2563 80.8584C83.0375 81.3809 82.95 81.8599 82.6875 82.0776C82.3813 82.3389 82.2938 83.0356 81.6375 82.8178C81.6813 82.5566 81.6375 82.3389 81.725 82.1647C83.7375 78.1588 87.0188 74.0658 80.6313 70.8872C80.4125 70.7566 80.4125 70.2776 80.1938 70.1035C79.6688 69.5809 81.025 68.5359 79.7563 68.3182C78.1813 68.057 79.4063 69.9293 78.3125 70.2776C76.9563 67.8828 79.1875 67.0555 80.5 65.7492C78.7063 65.488 77.6125 66.0975 77.175 67.0119C74.7687 67.0555 77.525 63.7027 74.725 64.0511C72.7563 64.3123 72.975 62.4835 73.15 62.0481C73.5875 60.9595 73.9375 59.0437 75.9063 60.3064ZM65.7125 43.499C65.3188 42.5411 67.3313 39.885 63.9625 41.0171C63.3063 40.4946 62.825 41.5832 62.7813 41.4525C61.6875 39.4496 61.2937 41.4961 60.6812 41.8009C60.4187 41.9315 60.2 42.3669 59.9813 42.3669C56.8313 42.454 56.3938 44.544 56.4813 47.026C56.4813 47.2872 56.8313 47.9404 56 47.9839C54.95 48.0274 54.6438 48.2887 54.075 49.4643C54.075 48.4193 54.075 47.6791 54.075 46.7647C52.0188 48.5499 51.2313 51.0319 50.225 53.1654C48.7375 56.257 48.9125 59.871 51.3625 62.7883C53.55 65.3573 56.6562 65.8363 59.5875 64.7913C61.9937 63.9204 64.2688 64.1381 66.6313 64.1381C66.8938 64.1381 67.1563 63.964 67.375 63.8769C67.4188 62.919 66.1937 63.6156 66.2375 62.7883C68.7312 62.3964 70.7438 61.6127 70.3063 58.4341C70.175 57.4761 70.5687 56.6924 71.2687 55.7345C74.2875 51.7285 73.9813 49.7691 70.4375 46.2422C69.5188 45.3278 68.3813 44.7182 70.4375 43.7167C71.4438 43.1942 71.0063 42.4105 70.1313 41.8444C67.7688 40.3204 66.4563 41.1042 65.7125 43.499ZM56.3937 34.268C55.3875 32.6134 53.6813 33.3101 52.4125 33.1359C48.4313 32.657 45.8937 35.313 46.4625 38.9706C47.3375 44.457 49.0875 45.9809 53.6375 44.7182C57.05 43.7603 59.1938 40.7559 61.6875 38.5352C63.8313 36.6629 59.0625 37.4466 59.7188 35.4437C59.8063 35.226 59.0625 35.2695 58.6688 35.5308C58.1 35.9226 57.7063 36.7064 56.875 36.7064C57.05 35.6614 58.3625 35.5308 58.3188 34.1374C56.4375 34.8341 55.4313 36.4452 53.725 37.1418C54.6875 36.1404 55.5625 35.1824 56.3937 34.268ZM58.1 66.9684C59.9375 69.6245 62.9125 69.102 65.1437 70.147C65.7125 70.4083 65.975 70.0164 66.15 69.4068C67.025 66.054 66.4563 65.3573 63.1313 65.9669C61.4688 66.1846 59.8938 66.5765 58.1 66.9684ZM49.875 87.0415C50.0938 87.1285 50.3562 87.2592 50.575 87.3463C51.0125 86.8238 51.45 86.2577 51.9312 85.7787C54.8625 82.7743 54.95 82.6437 53.2 81.5551C52.2375 80.9455 50.925 80.8584 50.8813 82.6437C50.8813 84.1241 50.8375 85.6481 49.875 87.0415ZM74.3312 49.5079C76.3 48.071 75.6875 46.4599 74.7687 44.9359C74.4625 44.4134 73.7625 44.4134 73.4562 44.9359C72.4937 46.5905 72.975 48.071 74.3312 49.5079ZM88.5063 77.0267C87.4563 75.8075 88.8563 73.2385 86.1875 72.716C85.6625 72.6289 85.3125 73.0208 85.5313 73.4127C86.4063 74.9367 85.8375 77.288 87.8938 78.1588C88.7688 78.5507 88.2875 77.5928 88.5063 77.0267Z" fill="black"/>
<path d="M45.1054 84.8641C45.4554 85.8221 44.4054 86.3881 44.4491 87.259C40.5554 86.2575 38.4991 83.0354 36.5304 80.0745C31.9804 73.2383 29.1804 65.5748 30.4054 57.3018C31.6741 48.7239 35.6554 41.2346 42.1741 35.1387C43.3116 36.4449 42.1304 36.7497 41.6491 37.2723C35.1741 44.4568 31.2366 52.6427 31.5866 62.4398C31.8491 69.1018 34.4741 74.98 38.4116 80.2922C39.0241 81.1195 39.5929 82.4258 41.0804 82.0774C42.5679 82.8176 45.7616 81.0759 45.1054 84.8641Z" fill="black"/>
<path d="M29.9258 45.8069C30.4508 42.8024 31.9383 40.2334 33.7758 37.7951C40.557 28.7818 49.9633 25.1678 60.9445 24.5146C70.6133 23.9486 79.057 26.6917 86.1445 33.3537C86.6695 33.8327 87.0633 34.4858 87.5008 35.0519C87.4133 35.139 87.3258 35.2261 87.2383 35.3131C82.907 31.8298 78.5758 28.477 73.0195 26.9965C61.0758 23.8615 49.8758 25.3419 39.9883 32.8312C35.5695 36.184 32.7695 41.0607 29.9258 45.7633V45.8069Z" fill="black"/>
<path d="M45.1062 84.8644C45.7625 81.1198 42.5687 82.8615 41.125 82.1212C42.3063 80.2489 42.7875 77.8105 45.5437 77.288C46.9 77.0268 46.4188 75.764 46.2875 74.9367C45.675 71.0179 44.975 67.1426 44.3188 63.2674C43.925 60.829 43.5312 58.3906 43.1812 55.9087C44.3187 56.1264 44.1437 57.0843 44.275 57.8681C45.5437 65.0961 46.9438 72.3242 47.2063 79.7264C47.25 82.1212 47.9062 83.9065 45.1062 84.8644Z" fill="black"/>
<path d="M57.0059 96.2727C65.0559 96.3162 72.9309 95.8808 80.3246 92.4409C72.9746 96.4904 65.1434 97.3612 57.0059 96.2727Z" fill="black"/>
<path d="M29.8381 45.7632C29.7943 48.2016 28.5256 50.2916 28.0006 52.5993C26.9506 57.4326 26.9943 62.2658 27.7381 67.1425C25.2443 59.7403 26.1193 52.6429 29.8818 45.8067C29.9256 45.8067 29.8381 45.7632 29.8381 45.7632Z" fill="black"/>
<path d="M98.8309 62.8755C98.8309 70.3648 96.7309 77.201 92.0059 83.1663C95.8996 76.9397 98.1746 70.1906 98.8309 62.8755Z" fill="black"/>
<path d="M96.3809 49.5078C98.4371 52.9041 98.6996 56.6488 98.7871 60.4805C97.8684 56.8229 97.5184 53.0783 96.3809 49.5078Z" fill="black"/>
<path d="M87.4129 35.0518C90.3441 36.9676 92.1379 39.7543 93.2754 43.0636C91.2191 40.4946 89.2066 37.882 87.1504 35.313C87.2379 35.2259 87.3254 35.1388 87.4129 35.0518Z" fill="black"/>
<path d="M328.343 84.5597C331.975 88.1737 335.868 91.4394 340.462 93.8342C349.212 98.4497 358.443 97.9272 367.718 96.142C381.981 93.3988 391.212 84.7774 395.675 71.1922C398.3 63.1368 396.9 55.1685 394.45 47.2874C391.912 39.1014 386.531 33.2667 379.4 28.7383C378.525 28.2158 377.387 28.0416 376.906 26.9966C381.325 27.8674 384.737 30.5671 387.581 33.6586C398.868 45.7198 400.181 60.0453 395.456 74.9803C393.05 82.6003 387.318 88.435 380.362 92.4409C369.731 98.6239 358.137 100.191 346.106 97.2741C339.631 95.7065 334.6 91.57 329.875 87.1287C329.175 86.432 328.3 85.7353 328.343 84.5597Z" fill="black"/>
<path d="M370.388 24.5144C364.22 23.2952 358.051 22.7291 351.707 23.5564C340.42 25.0369 332.151 30.7409 326.332 40.3203C325.545 41.6265 324.713 42.9763 323.926 44.2826C325.676 37.3594 330.313 32.4826 335.87 28.4767C342.651 23.5564 350.482 22.3808 358.707 22.7291C362.732 22.9468 366.67 22.7727 370.388 24.5144Z" fill="black"/>
<path d="M322.699 46.7212C322.437 50.0304 321.518 53.2526 321.168 56.5618C320.206 65.2703 322.437 73.2385 326.156 80.9455C323.268 78.5507 322.568 75.0238 321.606 71.7145C319.331 63.9205 320.031 56.0828 321.868 48.2887C321.956 47.7227 322.393 47.2437 322.699 46.7212Z" fill="black"/>
<path d="M293.082 62.7012C293.738 64.4864 294.701 65.7927 296.932 65.2266C294.832 66.4894 292.207 66.8377 290.895 69.4502C288.663 73.8045 289.888 76.9395 294.307 77.1573L294.438 77.2879C290.37 79.0296 288.532 76.9831 288.97 71.279C287.701 71.3226 287.526 72.9772 286.257 73.1514C286.213 71.6709 287.788 71.1484 288.007 69.5809C285.951 70.5824 283.895 71.6709 282.407 69.0584L282.363 69.1019C286.213 70.8436 290.895 66.4894 293.082 62.7012Z" fill="black"/>
<path d="M284.244 97.448C283.5 96.9255 282.712 96.4465 281.969 95.924C287.306 96.2723 291.944 95.6192 293.65 89.6104C294.656 93.2244 293.563 94.7048 290.238 95.9675C288.225 96.7078 285.819 95.4886 284.244 97.448Z" fill="black"/>
<path d="M297.062 23.3823C298.593 23.7307 299.556 24.4709 299.468 25.9513C299.425 27.3447 298.593 28.3026 297.106 28.3462C295.4 28.3897 294.875 27.1705 294.787 25.6901C294.656 23.8177 296.231 23.9484 297.062 23.3823Z" fill="black"/>
<path d="M292.47 100.278C289.276 102.934 287.22 103.021 284.332 100.714C285.163 99.6686 287.657 100.452 287.307 98.1011C288.226 98.1882 289.101 98.2752 290.063 98.3623C289.713 99.9299 287.701 99.7992 287.395 101.28C289.32 101.933 290.72 100.322 292.47 100.278Z" fill="black"/>
<path d="M296.887 85.3435C296.318 83.5582 296.537 81.9907 295.881 80.6409C295.531 79.9007 295.75 78.9863 296.581 78.5073C297.15 78.159 297.85 78.1154 298.331 78.5073C299.206 79.1169 298.812 79.9442 298.55 80.728C298.025 82.1213 297.543 83.5147 296.887 85.3435Z" fill="black"/>
<path d="M298.507 71.8887C302.357 74.9802 302.357 74.9802 304.282 73.4562C304.195 75.8075 302.926 76.8525 300.87 76.5477C298.42 76.1558 297.72 74.5012 298.507 71.8887Z" fill="black"/>
<path d="M282.319 68.9712C279.825 68.4487 280.657 67.0118 281.532 65.7926C282.888 64.0074 284.419 64.0945 285.994 65.6184C284.725 66.8812 280.875 65.0524 282.232 69.0148C282.275 69.0583 282.319 68.9712 282.319 68.9712Z" fill="black"/>
<path d="M294.263 77.1138C295.707 74.7189 293.213 73.1949 292.994 71.1484C296.713 73.5868 297.063 75.0237 294.35 77.2008C294.394 77.2444 294.263 77.1138 294.263 77.1138Z" fill="black"/>
<path d="M295.838 44.0649C296.056 45.4148 297.588 46.8081 295.794 48.0273C295.356 48.3321 295.05 48.1144 294.744 47.766C293.519 46.0679 295.575 45.2841 295.838 44.0649Z" fill="black"/>
<path d="M300.125 63.746C300.213 63.3976 300.213 63.267 300.213 63.2235C301.963 62.7445 303.713 62.0478 305.55 62.701C305.681 62.7445 305.725 63.3976 305.637 63.4412C303.844 64.4862 302.006 63.8766 300.125 63.746Z" fill="black"/>
<path d="M248.237 70.8872C250.38 71.0178 251.955 72.6724 254.055 73.195C250.38 73.3691 247.099 74.8931 243.73 75.9381C242.33 76.3735 242.068 78.8119 240.012 77.7669L240.055 77.854C241.105 75.4592 243.862 75.0237 245.743 72.9772C243.818 73.1514 242.199 73.9352 240.624 73.0643C240.405 72.8902 240.23 72.716 240.012 72.4983C242.637 72.7595 245.174 71.4533 247.843 72.0193C249.112 72.2806 248.368 71.3662 248.237 70.8872Z" fill="black"/>
<path d="M49.4813 66.7072C48.2125 63.8334 46.55 61.0902 47.1188 57.1714C48.0375 60.7854 48.7375 63.7463 49.4813 66.7072Z" fill="black"/>
<path d="M332.718 62.048C334.38 63.1801 337.093 61.1771 337.487 62.1351C338.712 65.0524 341.249 61.9174 341.993 63.4413C342.387 64.1816 339.937 63.5284 339.062 64.3122C340.418 65.5314 341.818 64.3122 343.174 64.3557C342.212 65.662 340.812 66.2716 339.368 65.6185C337.224 64.7041 337.18 65.8797 337.137 67.4037C337.005 70.8 338.318 71.9321 342.212 71.5402C342.737 71.4967 343.437 71.9757 343.743 70.8436C344.224 69.1889 342.518 69.8856 341.993 68.9712C343.83 69.6679 345.362 68.6664 345.23 67.5343C345.099 66.6199 345.493 64.2686 343.13 64.3557C344.224 62.9624 345.099 61.6126 347.33 61.3513C349.387 61.1336 349.955 62.1786 350.087 63.5284C350.262 64.9653 349.08 65.6185 347.68 65.8362C347.068 65.9233 346.455 65.3572 345.887 65.9233C345.887 66.141 345.843 66.3587 345.887 66.5329C346.412 67.9262 348.774 66.8812 348.818 68.1004C348.818 70.0162 346.587 67.8827 345.887 69.1889C345.668 69.5808 344.968 69.6679 345.23 70.4081C345.537 71.1919 345.843 71.9757 346.805 72.1498C348.074 72.3675 349.255 72.1063 350.393 71.5402C350.262 73.1078 348.118 72.324 347.855 73.7609C349.124 75.3284 351.399 74.327 352.799 75.5897C351.662 76.1993 350.699 74.414 349.474 75.5897C350.524 76.6782 352.012 77.0701 353.149 76.5912C354.812 75.938 356.124 76.6347 357.568 76.9395C354.68 78.986 351.88 76.983 348.993 76.7218C349.999 82.1646 353.937 85.9528 359.974 84.6465C355.293 86.3447 351.399 84.8642 347.899 81.1196C347.549 83.4273 348.599 84.9948 348.949 86.693C349.605 89.5233 352.843 90.8295 355.643 89.9587C358.224 89.1314 358.924 86.4753 360.893 85.0819C361.287 84.8207 360.28 84.7336 359.843 84.7336C363.999 82.3388 365.312 78.5941 362.818 76.3299C363.168 75.2849 364.743 75.1107 364.699 73.6738C362.337 75.1107 360.149 76.5912 357.437 77.0701C357.218 76.5912 357.043 76.1122 356.78 75.6768C356.255 74.8495 357.305 74.2399 357.043 73.4561C357.568 73.4996 358.224 73.369 358.574 73.6738C359.668 74.5447 357.393 74.6753 358.137 75.7203C360.324 75.8074 361.418 73.7174 363.255 72.803C361.768 72.7159 360.237 72.6288 358.749 72.5417C360.368 72.0627 362.118 72.5417 364.612 71.5838C362.162 71.4531 360.63 71.3661 359.143 71.279C360.499 70.9742 361.855 70.9306 363.212 70.8C364.087 70.7129 364.699 70.4517 364.743 69.276C364.787 67.5779 363.605 68.6664 363.08 68.3616C361.462 67.4037 360.63 70.321 358.968 69.1454C358.618 68.8841 358.268 68.5793 357.918 68.3181C359.624 67.752 361.33 67.2731 360.63 64.7912C360.499 64.2686 361.374 64.0074 361.987 64.4428C362.555 64.8347 363.343 64.8782 363.737 64.5299C364.174 64.1816 364.612 63.093 364.437 62.9188C363.605 62.1786 364.524 61.3513 364.174 60.6111C363.868 59.9144 364.568 58.9129 363.518 58.434C362.468 57.955 362.205 59.2613 361.024 59.6096C361.855 58.1292 359.799 55.9085 362.862 55.386C362.993 55.3424 363.212 54.5587 363.08 54.2539C362.687 53.4701 362.293 52.2945 361.593 52.0332C358.487 50.814 355.293 49.769 352.099 48.7675C350.612 48.3321 349.474 49.6384 349.737 50.5528C350.699 53.5572 348.468 54.5587 346.849 56.0391C346.412 56.4746 345.93 56.91 345.974 57.9115C347.418 57.6067 348.993 58.434 350.305 57.0841C351.618 55.7343 351.18 58.7388 352.362 57.9115C352.624 57.7373 353.324 57.6937 352.624 58.2598C352.23 58.6081 352.187 59.4354 351.049 59.0436C350.043 58.6952 348.687 59.3048 347.462 59.5661C346.718 59.7402 345.974 60.7417 345.274 59.6967C344.705 58.8694 344.399 57.7808 344.924 56.8229C345.58 55.6037 346.28 54.341 347.549 53.4701C346.849 53.296 346.28 53.1653 345.274 52.9041C349.255 52.6864 348.337 49.5948 349.212 47.679C350.262 45.3277 348.555 44.2827 346.98 43.107C347.812 42.2797 348.468 41.8443 349.474 42.8893C351.574 45.1535 352.362 43.7602 352.887 41.583C353.062 40.9299 352.755 39.6672 354.199 40.2768C354.724 38.2738 355.687 40.0591 356.43 40.0591C357.787 40.0591 359.799 40.8428 360.193 39.3624C360.587 37.969 358.793 36.8369 357.393 36.4015C356.562 36.1402 356.255 35.6613 355.818 35.0952C358.574 35.2694 361.199 35.8354 362.993 38.2303C363.387 38.7528 363.955 39.2317 364.568 38.9705C367.412 37.7513 370.343 38.7092 373.23 38.5351C379.574 38.1432 387.668 44.2391 388.893 50.4222C389.462 53.2524 388.849 53.862 386.049 52.9041C383.949 52.2074 381.893 53.1218 379.837 52.6864C378.874 52.4251 378.349 50.6399 376.949 51.8591C375.462 51.2495 373.93 50.6834 372.443 50.0738C372.618 49.1159 373.362 48.9417 373.887 49.203C376.818 50.4657 379.093 47.5919 382.024 47.9838C383.555 48.2015 384.474 46.155 383.293 44.7616C381.499 42.6281 379.443 39.7107 376.687 39.7978C372.224 39.972 367.455 38.0996 362.993 41.0605C365.093 42.3668 367.805 42.1926 369.818 44.2827C368.287 44.631 367.062 44.9358 365.793 45.2406C367.28 43.7166 367.149 42.9764 364.874 42.5845C358.268 41.3653 358.268 41.3218 352.93 44.065C351.837 44.631 351.005 45.6325 351.049 46.721C351.093 47.8967 352.449 47.679 353.324 47.9402C356.474 48.8111 359.668 49.769 362.774 51.5107C362.818 48.6805 362.993 46.155 365.924 45.11C366.23 46.2856 365.837 47.3306 365.312 48.2886C364.568 49.6384 364.524 51.0317 364.655 52.5122C365.399 60.3063 366.055 68.1004 365.924 75.938C365.793 82.2081 359.93 89.8281 353.849 91.7004C350.524 92.7454 348.949 92.0487 347.024 88.696C347.812 88.3912 347.943 89.7845 348.905 89.2185C347.855 86.6059 347.199 83.8627 346.98 80.7277C345.58 81.9904 346.674 83.4709 345.93 84.69C345.755 82.2952 345.755 80.031 346.455 77.8103C347.199 75.4591 346.368 74.327 343.787 74.5882L343.83 74.6317C345.274 73.1948 345.23 72.1063 342.999 72.0192C340.068 71.845 337.093 72.2805 334.205 70.7565C336.087 69.4502 336.437 67.7085 335.78 65.4878C333.855 66.6635 332.149 67.752 330.793 69.3631C331.012 68.5793 332.849 67.5779 330.53 67.0989C331.318 66.141 333.068 66.3151 333.462 64.7041C330.049 65.1395 325.499 68.71 324.93 71.4532C324.712 72.5417 325.63 72.0192 326.199 71.9757C325.762 72.8465 325.324 73.7174 324.887 74.5882L324.93 74.5447C321.649 66.1845 321.605 57.7373 324.449 49.2465C324.537 48.9853 325.062 48.8546 325.412 48.6805C323.049 55.5166 322.918 62.4399 324.58 69.4937C326.068 69.6679 326.199 68.3181 326.812 67.6214C328.212 65.8797 329.699 64.2687 332.105 64.0509C334.949 63.8332 332.543 62.7447 332.718 62.048Z" fill="black"/>
<path d="M377.256 51.9026C378.656 50.6399 379.181 52.4687 380.143 52.7299C382.725 55.0812 382.025 58.0421 381.237 60.6982C380.406 63.4414 378.656 65.9233 377.693 68.6665C376.206 72.8901 376.643 73.4561 380.931 73.9786C383.031 74.2399 384.956 74.6753 386.575 76.3299C388.368 78.2023 389.725 77.6797 390.687 75.2414C391.737 72.5853 392.393 69.8856 393.181 67.186C393.356 66.5764 393.093 65.7056 394.231 65.1395C392.918 74.5882 389.506 82.513 381.281 87.7816C372.706 93.2679 363.431 96.0111 353.193 95.1403C351.575 95.0096 349.825 95.0967 348.6 93.7469C352.45 94.5742 356.3 94.1823 360.193 94.1823C362.337 94.1823 362.95 92.7019 363.781 90.786C363.781 91.831 363.781 92.4406 363.781 93.3986C364.7 92.8325 365.487 92.3535 366.275 91.8746C366.493 91.7439 366.143 91.0473 366.887 91.4827C369.775 93.0502 370.781 92.5713 371.393 89.4797C372.05 85.8657 371.175 82.2952 370.868 78.7248C372.618 82.8613 372.925 87.0849 371.7 91.3956C375.375 90.9166 377.737 88.6089 380.406 86.7801C381.543 85.9963 381.587 85.9963 380.581 85.2997C379.925 84.8207 381.456 83.0355 379.4 83.2967C380.056 80.6406 377.65 79.6827 376.556 77.9845C376.206 77.462 373.843 76.5041 376.775 76.0251C377.431 75.938 376.6 75.0237 376.25 74.5882C375.112 72.9772 373.843 71.4532 372.75 69.7986C371.962 68.5794 372.006 67.5779 373.931 67.7956C373.931 68.1875 374.106 68.3617 374.5 68.2746C377.956 63.2672 378.481 63.6155 375.112 58.5211C375.725 59.4355 376.293 60.3498 376.731 61.0465C378.481 60.4369 376.6 59.1307 377.956 58.6517C378.131 58.5646 377.387 56.8229 378.481 56.3875C379.662 55.9085 379.137 58.0856 380.362 57.8244C381.368 54.7764 379.662 53.1653 377.256 51.9026ZM380.8 79.4214C382.331 80.7712 384.387 80.1617 386.093 80.7713C387.056 81.1196 386.837 79.8569 387.406 79.465C387.975 79.0731 386.925 78.8118 386.75 78.4635C384.825 75.0672 381.675 75.851 378.306 75.938C379.225 76.9831 380.231 76.4606 380.843 76.7218C380.756 77.5056 379.487 76.5041 379.706 77.8104C380.756 78.0716 381.893 78.3764 382.987 78.6812C382.375 79.3344 381.368 78.4635 380.8 79.4214Z" fill="black"/>
<path d="M334.731 45.7632C334.644 46.8953 335.125 47.3743 336.219 46.8082C336.656 46.5905 336.525 45.3713 337.444 46.068C338.144 46.5905 337.488 47.1565 337.225 47.7226C336.831 48.5064 336.263 49.0289 335.431 49.3772C334.819 49.6385 333.725 49.682 334.119 50.6835C334.381 51.4237 335.388 51.206 336.044 51.3802C337.444 51.8156 338.888 50.2481 340.331 51.4672C340.55 51.6414 342.213 51.2931 341.119 49.9868C340.988 49.8126 340.681 49.682 340.681 49.5514C340.9 48.1145 339.5 45.8938 341.425 45.3713C343.263 44.8488 345.1 46.4163 345.669 48.2886C345.844 48.8982 345.144 50.5529 343.613 50.8141C341.25 51.2495 339.544 52.4252 339.456 55.2554C339.063 50.2916 334.775 54.0798 333.025 51.5979C332.675 53.9056 333.813 53.8621 334.863 53.9056C335.956 53.9492 337.269 53.6008 337.269 55.4731C337.225 57.0842 336.481 57.7374 334.906 57.6067C334.381 57.5632 333.856 57.5632 333.55 58.0857C333.55 59.479 335.081 58.2163 335.431 59.4355C333.988 59.7403 331.8 59.6532 332.85 62.2222C332.675 62.0916 332.369 61.961 332.369 61.8739C332.675 56.3875 331.013 50.6835 334.731 45.7632Z" fill="black"/>
<path d="M344.138 74.6317C341.557 77.1136 338.188 78.5941 335.913 81.3808C334.732 82.8177 333.551 84.2546 333.507 86.214C330.095 82.8177 326.288 79.6827 325.282 74.5882L325.238 74.6317C327.163 75.9815 327.863 78.2022 329.526 79.9004C329.876 78.5506 331.976 77.6797 330.751 75.938C329.395 73.9351 330.226 72.2369 331.101 70.4517C329.963 76.6347 332.545 76.8089 337.532 76.4605C339.938 76.2863 341.907 74.9801 344.226 74.6753L344.138 74.6317ZM339.238 77.2878C336.788 77.2878 335.213 77.0701 333.726 77.3314C332.238 77.5926 331.407 78.8989 330.882 80.2922C330.62 80.9454 330.97 81.5114 331.713 81.6421C333.288 81.9469 334.732 81.4244 335.388 80.031C336.001 78.6376 337.095 78.1587 339.238 77.2878Z" fill="black"/>
<path d="M386.574 37.9692C392.655 45.2844 394.712 53.8622 394.362 63.1368C393.662 54.2106 391.474 45.7198 386.574 37.9692Z" fill="black"/>
<path d="M344.181 34.1807C344.05 36.7497 341.556 37.4463 339.762 39.2751C341.206 39.4493 342.213 39.6235 343.613 39.7976C342.038 40.5379 340.462 39.7541 338.756 41.1039C340.681 41.3216 342.081 41.4958 343.525 41.67C339.5 40.8427 337.4 44.0213 334.688 45.85C336.656 42.715 337.969 39.101 341.294 36.9238C342.344 36.2272 343.219 35.0951 344.181 34.1807Z" fill="black"/>
<path d="M342.301 29.3042C348.776 25.516 355.688 24.5145 363.038 26.2562C355.82 25.2983 348.995 26.8658 342.301 29.3042Z" fill="black"/>
<path d="M385.569 36.7501C381.019 32.9184 376.163 29.5656 370.432 27.7368C376.644 28.8254 381.719 31.7427 385.569 36.7501Z" fill="black"/>
<path d="M356.17 35.1825C355.251 35.4873 354.551 35.9227 353.501 35.0083C351.138 32.9618 348.338 32.4828 345.363 33.6149C348.032 31.612 352.976 32.3087 356.17 35.1825Z" fill="black"/>
<path d="M325.72 48.7674C325.195 44.718 327.951 42.0619 329.963 39.1445C328.87 42.4538 326.507 45.284 325.72 48.7674Z" fill="black"/>
<path d="M164.412 43.5425C170.668 43.5425 176.881 43.5425 183.137 43.5425C176.881 43.5425 170.668 44.8488 164.412 43.5425Z" fill="black"/>
<path d="M177.626 47.6356C173.645 48.1581 169.62 48.637 165.638 49.1595C165.595 48.9418 165.595 48.7677 165.551 48.5499C169.576 48.0274 173.645 47.5049 177.67 46.9824C177.67 47.2001 177.67 47.4178 177.626 47.6356Z" fill="black"/>
<path d="M181.78 63.9201C178.674 65.4877 175.612 67.0117 172.505 68.5792C172.418 68.3615 172.287 68.1438 172.199 67.926C175.262 66.4021 178.368 64.8345 181.43 63.3105C181.518 63.5283 181.649 63.7024 181.78 63.9201Z" fill="black"/>
<path d="M171.412 45.1974C175 45.4586 178.587 45.0667 182.218 44.8926C178.631 45.4586 175.087 46.852 171.412 45.1974Z" fill="black"/>
<path d="M244.387 64.0509C248.105 64.8782 251.343 66.8376 254.537 68.797C251.124 67.3165 247.449 66.2715 244.43 64.0073L244.387 64.0509Z" fill="black"/>
<path d="M182.963 83.8194C187.732 81.9906 191.407 83.6016 194.907 86.1706C191.1 85.4304 187.25 84.6467 182.963 83.8194Z" fill="black"/>
<path d="M229.6 73.3691C227.937 71.5403 226.231 69.7551 224.569 67.9263C224.525 67.9698 224.481 68.0134 224.438 68.0134C226.144 69.8421 227.894 71.6709 229.6 73.4997C229.6 73.4562 229.6 73.4126 229.6 73.3691Z" fill="black"/>
<path d="M215.512 49.856C218.049 49.4641 220.499 48.5498 223.212 49.8125C224.262 50.2915 224.437 51.0317 224.874 51.6413C225.662 52.5992 224.218 52.5992 223.824 53.0782C223.168 53.8619 222.468 54.6892 221.637 55.2553C220.805 55.8213 219.624 56.8228 219.187 54.7763C219.055 54.1667 218.618 53.9926 218.049 53.9926C217.48 54.0361 216.605 55.1682 216.387 53.8619C216.212 52.6863 217.393 52.8605 218.18 52.7734C219.143 52.6863 220.193 53.2959 221.112 52.425C219.58 50.7269 217.83 49.6819 215.512 49.856Z" fill="black"/>
<path d="M248.237 46.1113C246.75 49.9866 244.387 53.2958 241.85 56.5615C242.943 54.6021 243.075 52.2944 244.693 50.3349C245.875 48.9416 246.443 47.0257 248.237 46.1113Z" fill="black"/>
<path d="M368.199 56.4746C370.474 57.3019 370.518 59.479 370.649 61.0466C370.824 62.8753 372.224 64.051 372.268 65.7927C372.268 66.141 373.624 66.4023 372.749 67.0554C372.049 67.6215 371.393 67.1861 371.13 66.3152C370.605 64.53 370.037 62.7447 369.512 60.9595C369.118 59.479 368.68 57.9986 368.199 56.4746Z" fill="black"/>
<path d="M370.607 74.022C369.732 73.9785 368.945 73.8043 368.901 72.6722C368.77 69.5807 368.113 66.5763 367.676 63.5283C369.076 66.9246 369.863 70.4951 370.52 74.0656L370.607 74.022Z" fill="black"/>
<path d="M370.52 74.1095C372.751 76.7221 374.151 79.5959 373.101 83.2535C373.232 79.9007 371.045 77.2011 370.607 74.0225L370.52 74.1095Z" fill="black"/>
<path d="M359.056 69.1892C358.181 69.9294 357.219 70.5826 356.387 71.4099C354.9 72.8903 353.5 73.6741 351.969 71.497C354.812 72.0195 356.212 69.7988 358.006 68.3184C358.356 68.6232 358.706 68.8844 359.056 69.1892Z" fill="black"/>
<path d="M356.037 54.7327C354.856 54.8634 353.587 56.9534 352.581 54.5586C352.274 53.8183 351.312 52.904 352.712 52.2508C353.806 51.7283 354.681 51.7283 355.074 53.1652C355.206 53.6442 355.512 54.0796 355.774 54.515C355.774 54.6021 355.906 54.6456 356.037 54.7327Z" fill="black"/>
<path d="M356.037 54.7329C355.862 54.6894 355.775 54.6023 355.731 54.5587C355.425 53.2089 356.081 52.817 357.262 53.1218C358.881 53.6008 356.869 55.4296 358.312 55.9956C357.875 56.344 357.35 57.0842 356.956 56.9971C355.6 56.7794 356.169 55.5602 356.037 54.7329Z" fill="black"/>
</g>
<defs>
<clipPath id="clip0_335_27358">
<rect width="420" height="118" fill="white"/>
</clipPath>
</defs>
</svg>
