<svg width="255" height="121" viewBox="0 0 255 121" fill="none" xmlns="http://www.w3.org/2000/svg">
<path d="M202.121 80.6349C201.765 81.2685 200.953 81.3356 200.316 81.8975C202.608 82.3307 204.201 81.0319 205.933 80.3336C208.231 79.3907 210.529 78.3772 212.999 78.3525C215.893 78.3296 219.108 77.4612 221.212 80.5755C221.633 81.2125 222.089 81.7791 222.474 82.4512C224.681 86.2011 226.889 89.951 231.434 91.4526C234.43 92.4182 237.43 92.2899 240.466 91.9147C240.89 91.8813 241.385 91.6716 241.316 91.2126C241.247 90.7536 240.683 90.8217 240.295 90.7495C239.519 90.6403 238.635 90.9894 237.686 90.0679C239.203 90.3214 240.366 90.5028 241.568 90.1551C243.157 89.7032 244.466 89.1442 244.862 87.2051C245.043 86.2178 245.788 85.2329 246.814 84.5316C246.689 89.0125 241.512 94.8128 236.857 94.2282C234.247 93.8995 231.422 94.3108 229.348 92.467C226.571 90.0202 223.404 87.8894 221.406 84.5991C219.865 82.0518 217.401 80.4533 214.794 79.56C212.715 78.8453 210.136 79.5753 208.436 80.9089C204.896 83.6462 200.944 83.594 196.886 83.4354C196.181 83.3971 195.475 83.3588 194.769 83.4263C193.569 83.5271 192.546 83.4168 192.376 81.8634C192.342 81.5104 192.097 81.0153 191.603 81.0838C191.144 81.1524 191.213 81.6114 191.246 81.9292C191.379 83.8705 190.071 84.3943 188.554 84.4583C186.789 84.5566 184.953 84.7252 183.296 84.3299C180.406 83.6471 177.051 84.0914 174.696 82.0347C172.938 80.5098 170.966 79.478 169.101 78.1997C167.061 76.8147 164.875 76.276 162.44 76.3009C161.381 76.3316 161.062 76.6831 161.694 77.5327C162.396 78.4532 162.743 79.6545 163.658 80.3994C163.904 80.6122 164.362 80.72 164.007 81.1773C163.759 81.4585 163.441 81.6336 163.053 81.4908C162.419 81.241 161.926 80.8508 161.753 80.1796C161.649 79.6498 161.404 79.19 160.982 78.8353C160.666 78.5164 160.316 77.9503 159.821 78.1952C159.149 78.5452 159.853 78.9716 159.886 79.3599C160.018 81.513 160.326 83.7375 158.273 85.3166C157.989 85.5271 157.706 85.8082 157.74 86.1612C158.042 89.8324 156.827 93.3559 156.811 96.9905C156.799 99.8487 156.469 102.706 156.28 105.598C156.203 107.08 155.636 107.748 154.011 108.094C151.503 108.648 149.064 109.555 146.487 109.826C142.498 110.232 138.547 110.004 134.595 109.775C130.609 109.546 126.981 107.872 123.066 107.397C120.456 107.068 117.982 108.081 115.124 107.927C116.258 106.874 117.495 106.491 118.695 106.39C122.331 106.123 125.928 106.597 129.524 107.319C134.002 108.22 138.588 108.663 143.176 108.436C143.564 108.402 144.129 108.44 144.096 107.875C144.029 107.134 143.393 107.202 142.864 107.199C139.511 107.22 136.16 106.959 132.844 106.627C131.469 106.48 130.093 106.333 128.754 105.833C130.096 105.768 131.473 105.598 132.813 105.639C135.918 105.758 139.022 106.054 142.128 106.067C144.88 106.079 147.599 105.632 150.319 105.114C150.742 105.045 151.413 105.048 151.275 104.342C151.171 103.812 150.536 103.88 150.184 103.631C147.369 101.643 144.678 103.855 141.926 103.772L141.961 103.773C142.602 102.47 144.047 102.899 145.037 102.339C145.497 102.094 146.449 102.204 146.206 101.356C145.997 100.614 145.22 100.822 144.69 100.997C140.591 102.355 136.356 102.302 132.121 102.566C129.721 102.697 127.358 102.334 125.032 101.689C123.304 101.223 121.469 101.215 119.671 101.031C119.177 100.993 118.647 101.132 118.154 100.812C118.475 99.9668 119.602 100.571 119.853 99.5845C118.444 99.0844 116.925 99.3602 115.092 98.9995C117.601 98.0575 119.788 98.3845 121.832 98.8872C128.742 100.505 135.589 100.181 142.407 98.552C143.219 98.3437 143.397 97.9916 143.401 97.2153C143.421 92.5222 143.37 87.8287 143.602 83.1365C143.951 75.7629 144.159 68.3534 145.073 61.0176C146.206 51.8477 146.387 42.6385 147.555 33.504C147.701 32.4107 147.635 31.2813 147.64 30.1521C147.644 29.3405 147.292 29.0214 146.549 29.5828C143.257 32.0035 139.341 31.7045 135.598 32.253C134.574 32.3898 133.48 32.3498 132.422 32.2747C131.963 32.2374 131.116 32.375 131.119 31.7045C131.122 31.0341 131.934 30.967 132.533 30.9695C134.404 30.907 136.309 30.9504 138.18 30.8526C139.768 30.7535 141.322 30.5485 142.876 30.2728C143.617 30.1348 144.36 29.8204 144.997 29.435C145.633 29.0849 146.693 28.7718 146.45 27.9239C146.207 27.0759 145.216 27.6363 144.581 27.6689C140.628 27.8636 136.847 29.0472 132.997 29.8776C129.253 30.7085 125.544 31.5042 121.732 31.6643C115.732 31.9209 109.801 32.6365 103.767 32.4695C101.121 32.3876 98.5481 31.6002 95.9018 31.5183C90.8916 31.3557 86.0996 29.6766 81.0892 29.5493C78.5841 29.468 76.1892 28.3638 73.6114 28.7762C70.7158 29.2225 67.7518 29.1745 64.9942 30.3625C62.0599 31.6203 59.5768 34.6443 59.9881 37.4691C60.1597 38.599 60.369 39.1645 61.607 38.4994C63.1281 37.6237 64.6487 36.8892 66.3099 36.2611C70.4099 34.7261 74.1101 35.9064 77.8443 37.4045C78.7954 37.7967 79.6015 39.0705 80.6272 38.5456C81.6882 37.9855 81.2355 36.5721 81.0985 35.6188C80.8935 34.0299 81.6355 33.8214 82.7983 34.2145C88.2605 35.967 93.8392 35.2146 99.4153 35.0974C102.239 35.0389 104.959 34.2037 107.713 33.9332C109.725 33.7301 112.052 34.2341 113.811 35.6531C115.112 36.7173 116.241 36.6868 117.621 35.7753C118.824 35.0041 120.203 34.516 121.686 34.1695C120.27 35.3279 118.853 36.5216 117.401 37.6446C116.623 38.2411 116.232 38.804 116.121 39.8975C115.346 47.9044 115.805 55.9872 115.171 63.9947C114.575 71.4378 114.155 78.8817 113.276 86.253C112.654 91.367 111.362 96.3723 110.388 101.449C110.316 101.802 110.103 102.154 110.454 102.438C110.771 102.721 111.089 102.476 111.407 102.336C112.398 101.846 113.423 101.427 114.448 100.938C115.049 100.658 115.615 100.413 116.354 100.946C115.044 101.999 113.384 102.309 112.109 103.292C115.324 102.353 118.571 102.367 121.851 102.698C122.239 102.735 122.698 102.667 123.154 103.339C119.798 104.207 116.206 102.568 113.093 104.355C113.336 105.132 114.15 104.571 114.254 105.206C114.146 105.559 113.793 105.557 113.546 105.627C113.016 105.695 112.416 105.763 112.343 106.433C112.269 107.068 112.975 107.001 113.327 107.214C113.715 107.427 114.385 107.571 114.312 108.065C114.203 108.735 113.427 108.661 113.004 108.518C110.326 107.624 107.292 107.435 105.291 105.027C103.887 103.327 101.809 102.436 100.298 100.877C99.9817 100.558 99.418 100.344 99.0282 100.73C98.5675 101.187 99.095 101.613 99.3406 101.931C101.377 104.375 103.555 106.678 106.3 108.348C106.863 108.704 107.603 108.918 107.988 109.661C105.089 110.99 102.443 110.943 99.9107 108.885C97.8713 107.183 95.5833 105.832 93.2596 104.587C92.9075 104.409 92.4503 104.054 92.1659 104.547C91.9169 105.005 92.4099 105.254 92.7264 105.502C94.8365 107.17 96.9114 108.837 98.9148 110.716C96.3763 110.176 95.1878 107.56 92.757 106.596C92.9618 108.221 94.653 108.828 94.9988 110.488C90.5916 109.587 86.0722 110.167 81.8448 108.49C79.6959 107.634 77.5105 107.06 75.1816 107.015C73.5937 107.008 72.9971 106.229 73.1451 104.642C73.4772 101.256 73.9504 97.8704 73.8238 94.4823C73.7922 93.6353 74.3943 93.1085 74.6092 92.3684C75.2533 90.2892 75.7211 88.174 75.9422 85.9871C76.0161 85.2111 75.9845 84.3641 76.7634 83.7675C77.5423 83.171 76.4862 82.5665 76.701 81.8617C77.8108 78.1613 77.2628 74.2773 77.7024 70.5035C78.325 65.213 78.489 59.8853 79.3937 54.6314C80.0448 50.929 78.1889 47.5687 74.8434 45.9665C73.7164 45.4323 72.6578 45.4278 71.4565 45.7755C66.8988 47.0616 64.7673 50.3695 63.5845 54.6342C62.7248 57.6299 61.6536 60.5542 59.5261 62.9446C56.2992 66.6007 52.307 67.6775 47.6537 66.5636C46.4551 66.2762 45.2205 66.1651 44.0219 65.8776C42.9995 65.6615 42.084 65.1989 41.2415 64.1719C42.3364 63.9296 43.0758 64.3209 43.8157 64.6064C46.0709 65.3571 48.3273 65.8255 50.7276 65.6593C55.4226 65.2913 57.554 61.9834 59.1582 58.2145C60.7621 54.481 62.0137 50.64 63.7585 46.9776C65.1474 44.0194 69.6721 42.2038 72.7367 43.4873C74.9557 44.4496 77.4233 45.06 78.7532 47.6417C79.3924 46.6917 78.3353 46.3343 78.4792 45.6997C79.0823 44.9613 79.5353 46.3041 80.2078 45.813C79.8977 44.0826 78.0297 43.5453 77.0477 42.1296C77.9658 41.9924 78.4225 42.4531 78.8795 42.8785C79.1958 43.1621 79.5104 43.8692 79.9711 43.4124C80.4674 42.8853 79.7986 42.4942 79.4825 42.14C78.9205 41.5377 78.0753 41.1459 77.6205 40.2265C79.0323 40.162 79.6618 41.4703 80.7193 41.7571C81.145 41.2297 80.7936 40.8753 80.5124 40.6271C78.0172 38.2168 75.2362 36.6523 71.5649 36.9541C69.0937 37.1905 66.6928 37.4978 64.325 38.2993C62.0633 39.0659 60.2582 40.3285 59.2253 42.5472C57.4444 46.3859 55.9103 50.2962 55.0103 54.4563C54.5782 56.4658 53.5123 58.1551 52.2001 59.6668C51.2071 60.827 47.8519 61.4831 46.4789 60.7362C44.1905 59.4913 41.4763 58.7739 40.4298 55.9465C40.2553 55.487 39.8691 55.0266 40.3998 54.7113C41.0014 54.3257 41.1749 54.9969 41.4203 55.3861C43.103 57.9693 45.2123 59.8486 48.5652 59.7218C50.8947 59.6259 53.0897 57.9415 53.7014 55.1917C54.3131 52.4419 54.6428 49.6203 55.0782 46.8345C55.1147 46.5524 55.0809 46.1993 54.9407 45.987C52.7634 43.5076 52.6715 40.2607 51.8019 37.3282C51.2104 35.3495 50.4068 33.4758 49.4265 31.672C48.9714 30.8231 48.8334 30.0815 49.542 29.4141C51.4197 27.693 51.995 25.1901 53.1687 23.0426C54.5557 20.5431 56.434 18.681 58.5589 16.8904C62.2069 13.8007 66.8309 13.503 71.1045 12.6391C77.4973 11.3256 84.0599 11.5654 90.3678 13.6038C92.5878 14.3191 94.8075 15.1402 96.992 15.9259C101.044 17.3548 105.243 17.3728 109.477 17.5321C113.217 17.6893 116.958 17.4936 120.7 17.192C124.477 16.8906 128.186 16.0949 131.792 14.6636C134.655 13.5113 137.693 12.7128 140.731 11.9847C143.91 11.222 147.334 11.0603 150.373 10.1558C156.662 8.24198 162.44 10.4898 168.4 11.3623C170.551 11.6891 172.63 12.4037 174.782 12.4483C175.876 12.4882 176.507 13.4084 177.53 13.5187C179.929 13.776 182.113 14.6322 184.368 15.4535C187.151 16.4535 189.686 17.9464 192.291 19.2985C192.855 19.5832 193.488 19.9035 193.874 20.3992C196.894 24.0114 201.402 26.0774 204.067 30.0058C204.102 30.0412 204.137 30.1119 204.172 30.1474C207.554 31.5733 207.014 33.9 205.979 36.648C205.087 39.0084 203.913 41.2265 202.95 43.516C202.237 45.2068 201.489 46.8268 200.424 48.3043C199.111 50.1689 195.929 51.6021 193.672 51.0984C192.262 50.7747 190.853 50.2747 189.479 49.81C187.752 49.238 186.022 49.3718 184.256 49.7877C183.938 49.8569 183.479 49.9608 183.477 50.3842C183.44 50.8075 183.863 50.9152 184.18 51.093C184.919 51.5196 185.694 51.9464 186.29 52.7605C184.21 52.187 182.095 51.7192 180.051 51.0047C178.571 50.5043 178.366 48.9508 179.712 47.9685C182.473 45.9337 185.374 44.1465 188.835 43.5967C189.929 43.425 191.024 43.2179 192.154 43.0463C192.613 42.9777 193.248 43.0157 193.11 42.3094C192.972 41.5678 192.336 41.7768 191.806 41.8451C191.312 41.9135 190.851 42.3703 190.217 42.1206C190.362 41.239 191.139 41.207 191.704 40.9624C192.022 40.8227 192.376 40.683 192.307 40.224C192.239 39.8002 191.922 39.5872 191.534 39.6208C190.368 39.7922 190.405 39.4042 190.727 38.4528C190.977 37.7835 190.166 37.5683 189.674 37.2486C187.632 35.9342 187.142 34.9793 187.678 33.429L187.678 33.4643C192.357 36.9425 194.699 41.9986 196.795 47.1596C196.969 47.5485 197.355 48.0441 196.86 48.4302C196.612 48.6056 196.188 48.639 195.871 48.6024C195.201 48.5642 195.344 48.0355 195.275 47.5765C194.968 45.2109 194.019 44.3952 191.689 44.5264C188.265 44.6882 185.155 45.9099 182.359 47.8387C182.076 48.0492 181.651 48.1886 181.791 48.6126C181.93 49.1072 182.354 48.8973 182.672 48.8281C185.992 48.066 189.166 48.5736 192.337 49.7164C196.248 51.1447 199.787 48.725 200.228 44.6689C200.485 42.4116 201.799 40.5117 202.971 38.6112C205.778 34.1064 205.711 33.4357 201.952 29.5379C198.895 26.349 195.271 23.828 192.25 20.5687C191.337 19.5767 189.998 19.1122 188.73 18.5775C181.791 15.6895 174.636 13.6474 167.267 12.169C164.905 11.7002 162.614 10.914 160.216 10.6215C156.901 10.1838 153.582 10.6283 150.262 11.2846C146.059 12.1134 141.787 12.6597 137.723 14.0891C132.209 16.0063 126.662 17.5704 120.941 18.6751C118.292 19.1931 115.575 19.2167 112.858 19.0992C104.849 18.7473 97.057 17.2318 89.3025 15.1519C83.0284 13.4665 76.5052 12.2741 69.8968 14.4689C67.2465 15.3397 64.5605 16.281 61.9102 17.1518C60.426 17.6394 59.2221 18.587 58.1938 19.7471C55.6408 22.5945 53.1934 25.5128 51.6257 29.0349C51.3762 29.5984 51.1975 30.1269 51.3361 30.7274C52.2038 34.1187 53.0713 37.5453 53.9743 40.9368C54.0782 41.396 54.3235 41.7852 54.5687 42.2097C54.7438 42.528 54.9541 42.8465 55.3784 42.6719C55.6965 42.5321 55.5922 42.1788 55.6638 41.9321C56.707 37.3139 58.0671 32.8382 62.1376 29.9621C64.0136 28.6292 66.3099 28.0392 68.5698 27.696C71.2887 27.2842 74.0419 27.1195 76.7954 26.8843C77.8545 26.783 78.9124 26.964 79.9342 27.3212C84.1628 28.7156 88.5729 28.9462 92.9102 29.6705C96.225 30.214 99.5404 30.6164 102.856 30.8776C108.359 31.3247 113.866 30.9601 119.373 30.3838C127.493 29.5364 135.441 27.7003 143.458 26.2173C150.097 25.0107 156.806 24.1572 163.513 23.6567C163.936 23.6232 164.394 23.731 165.311 23.8408C162.518 25.2403 159.801 25.2287 157.362 26.0651C154.747 26.9714 152.031 26.6069 149.382 27.1248C148.994 27.1937 148.501 27.0152 148.357 27.5439C148.214 28.002 148.53 28.3915 148.847 28.5693C151.452 29.992 150.737 32.2473 150.515 34.5048C149.52 44.381 148.701 54.2579 147.989 64.1706C147.203 74.5418 146.735 84.9143 145.632 95.2841C145.486 96.5185 145.339 97.7882 146.004 98.9908C146.676 98.6408 146.573 98.1111 146.61 97.6878C146.89 89.9963 147.84 82.343 148.12 74.6516C148.361 67.9127 149.307 61.2122 149.865 54.4746C150.126 51.194 150.105 47.8769 150.401 44.6318C150.734 41.0692 151.243 37.5073 151.753 33.9808C152.08 31.7943 152.363 31.5838 154.513 32.0518C155.959 32.3756 156.738 31.6026 157.484 30.653C158.122 29.8441 158.761 29.0705 159.959 29.4638C161.192 29.8573 160.87 30.8792 161.007 31.7973C162.592 40.9083 160.083 49.8958 160.185 58.9651C160.214 60.5179 159.819 62.0688 159.883 63.6923C159.948 64.9982 158.708 66.0162 158.808 67.4987C158.908 68.8401 159.296 68.8418 160.427 68.4937C166.61 66.6147 168.272 65.9161 174.214 70.8465C171.71 70.5888 169.916 69.3107 167.942 68.7024C164.735 67.7359 161.981 68.1475 159.43 70.5008C160.1 70.6096 160.667 70.0827 161.44 70.7565C159.92 71.3851 159.491 72.6889 159.344 74.1351C159.307 74.4878 159.094 74.8045 159.446 75.0883C159.762 75.3719 160.115 75.2676 160.399 75.0218C161.992 73.6877 163.509 73.9412 165.411 74.6198C169.04 75.9763 171.923 78.5646 175.303 80.2729C179.141 82.2302 183.086 83.9409 187.571 83.1485C187.924 83.0794 188.277 83.0456 188.595 82.9764C189.09 82.8374 189.797 82.6287 189.658 82.0282C189.521 81.1807 188.848 81.7425 188.389 81.7758C186.306 81.8727 184.222 82.3931 181.826 81.4654C182.852 81.011 183.628 81.1202 184.368 81.3351C185.742 81.6939 187.015 81.2759 188.356 81.0699C189.804 80.8291 189.07 79.3439 189.884 78.6769C190.274 78.361 189.073 78.497 189.041 77.897C189.821 77.0534 191.02 77.0233 191.94 76.4273C192.436 76.1118 192.931 75.7611 193.356 75.41C193.888 74.9536 194.349 74.3204 193.752 73.7532C193.119 73.1153 192.763 73.996 192.373 74.3472C189.61 76.8055 185.655 77.3531 182.383 75.2219C182.877 75.0123 183.3 75.1905 183.758 75.3336C187.318 76.4428 190.147 75.0434 192.451 72.5126C194.011 70.8255 195.884 70.1278 198.038 69.89C200.156 69.652 202.203 69.5902 204.045 67.9749C205.179 66.9917 207.225 67.0711 208.885 66.8312C210.509 66.5911 212.167 66.6335 213.792 66.3935C216.51 66.017 218.551 67.4372 220.592 68.8222C223.125 70.5621 226.049 71.8097 228.332 74.1837C227.342 74.6382 226.71 73.8592 226.042 73.4682C223.226 71.727 220.198 70.232 217.808 67.8575C217.07 67.1133 215.905 67.2494 214.917 67.2805C212.235 67.3043 209.553 67.2928 206.972 68.4462C205.452 69.1101 205.13 70.2027 205.3 71.7208C205.539 73.4509 205.708 75.216 205.842 76.9809C206.042 79.5578 205.05 80.5415 202.368 80.4948C202.909 77.9564 202.602 75.3791 202.825 72.8041C202.862 72.2749 202.76 71.5687 202.195 71.4957C201.349 71.351 201.628 72.199 201.52 72.622C201.087 74.808 201.325 77.0321 201.386 79.2555C201.1 80.0659 201.38 80.5964 202.121 80.6349ZM104.88 93.8743C107.142 93.143 109.188 93.2224 110.851 92.1709C110.571 91.6403 110.218 91.6741 109.865 91.6373C108.807 91.4916 107.748 91.593 106.724 91.765C106.265 91.8336 105.913 91.5498 105.81 91.0906C105.74 90.8786 105.741 90.6316 105.848 90.4203C105.99 90.1386 106.307 90.2106 106.448 90.3876C107.571 91.8392 108.952 90.6806 110.187 90.7212C110.998 90.7247 111.671 90.3394 111.498 89.4565C111.291 88.4323 110.476 89.0287 109.911 89.1321C109.064 89.3049 108.214 89.9012 107.16 88.9792C108.396 88.5963 109.386 88.3182 110.34 88.0047C110.728 87.9005 111.258 87.797 111.225 87.3028C111.157 86.632 110.521 86.9116 110.098 86.8039C109.181 86.6236 108.294 87.6784 106.957 86.8258C108.406 86.4085 109.465 86.1308 110.561 85.8179C111.232 85.6443 112.22 85.578 111.907 84.6239C111.663 83.8465 110.919 84.5843 110.39 84.5821C109.225 84.6124 108.057 85.4896 106.861 84.567C108.204 84.1493 109.512 83.5197 110.923 83.6669C111.734 83.7409 112.23 83.4255 112.198 82.6137C112.099 81.0254 112.388 79.474 112.676 77.9578C112.749 77.4994 112.681 76.9698 112.187 77.003C111.057 77.0687 109.822 76.9576 108.901 77.9064C108.582 78.2226 108.157 78.6089 108.437 79.1394C108.717 79.6347 109.247 79.4605 109.706 79.4272C110.271 79.3943 110.768 78.726 111.507 79.1173C111.222 79.7513 110.621 79.9251 110.162 79.9585C108.221 80.056 106.42 80.4717 104.896 81.8414C104.613 82.0872 104.014 81.9788 103.52 81.9767C103.378 81.976 103.203 81.8341 103.133 81.6927C102.993 81.4451 103.205 81.1637 103.417 81.1293C105.96 80.7873 106.322 78.4952 107.318 76.8057C108.099 75.5034 108.105 74.1625 107.299 72.9593C106.142 71.1547 105.269 68.9984 102.766 68.4583C105.061 68.1506 106.82 69.3932 108.509 70.5296C109.67 71.3109 111.574 71.8131 112.777 71.0772C113.378 70.6916 113.38 70.3035 112.817 69.8423C112.501 69.594 111.97 69.8387 111.796 69.2734C112.292 68.8168 113.596 69.2105 113.425 68.0806C113.219 66.6682 111.769 67.4736 110.924 66.9054C111.49 66.6608 111.985 66.4512 112.444 66.2414C112.868 66.1021 113.539 66.1755 113.471 65.5401C113.403 64.7988 112.697 64.9722 112.203 64.8995C111.674 64.7913 111.003 65.0002 110.688 64.2931C111.008 63.8004 111.502 63.8378 111.961 63.7692C112.455 63.7008 113.125 63.8801 113.374 63.3166C113.766 62.5066 112.566 62.6073 112.498 61.9719C112.783 61.4438 114.725 61.1698 113.14 60.2808C112.084 59.6764 110.463 59.3166 109.225 59.8759C106.644 61.0646 103.928 60.8412 101.21 60.9355C100.751 60.9335 100.399 60.7908 100.472 60.2265C100.945 56.9821 101.065 53.7362 101.22 50.4551C101.299 48.4794 101.377 46.6448 99.5479 45.3313C100.749 44.9483 103.043 44.8875 104.666 45.1062C108.968 45.7245 110.159 47.7763 108.519 51.8273C108.233 52.5319 108.373 52.9206 108.971 53.2761C110.801 54.3778 111.325 55.6504 110.681 57.6943C110.574 58.0114 110.643 58.294 110.854 58.5067C111.522 59.2153 112.404 59.1485 113.146 59.0105C114.029 58.8026 113.574 58.0243 113.647 57.4247C113.829 56.1199 113.126 55.3405 112.142 54.56C112.848 54.3513 113.552 54.8131 113.873 54.0028C114.515 52.3471 113.607 50.1201 111.952 49.3014C111.459 49.0522 110.86 48.8732 110.616 48.1664C111.394 47.8169 111.957 48.278 112.591 48.4925C113.049 48.6356 113.682 49.097 113.897 48.3216C114.076 47.7578 113.442 47.6139 112.984 47.4355C111.997 47.0432 110.833 47.0029 110.132 45.9412C111.087 45.3102 111.754 46.2658 112.566 46.1987C112.954 46.1651 113.483 46.2732 113.591 45.7796C113.698 45.3566 113.24 45.2488 112.994 45.0008C112.573 44.5755 111.725 44.6777 111.552 43.9007C112.048 43.4441 112.47 43.834 112.857 43.9768C113.139 44.0839 113.457 44.1206 113.599 43.8036C113.742 43.4513 113.425 43.3088 113.178 43.1666C112.967 43.0598 112.72 43.0235 112.544 42.8816C112.158 42.5623 111.312 42.3823 111.561 41.854C111.881 41.1497 112.443 41.8225 112.866 42.0008C113.218 42.1434 113.606 42.2862 113.819 41.9343C114.032 41.547 113.68 41.2985 113.399 41.0856C112.766 40.6241 111.92 40.4088 111.535 39.5602C112.244 38.9987 112.664 39.6357 113.158 39.8142C113.545 39.957 114.076 39.6064 113.83 39.4289C112.774 38.6481 113.098 37.2733 112.36 36.4585C111.201 35.1832 109.685 34.8591 107.885 35.0631C104.813 35.4028 101.809 36.378 98.6696 36.1881C98.1404 36.1505 97.6105 36.2894 97.0809 36.3577C92.9854 36.8342 88.8911 37.0284 84.8371 36.0582C81.8407 35.3396 82.2275 35.6589 82.1473 37.9169C82.1071 39.046 81.8201 40.1386 81.7802 41.2324C81.7089 49.6305 79.5921 57.7375 78.7097 66.0263C78.3046 69.9767 77.3705 73.8543 78.1296 77.8804C78.5776 80.3877 77.0855 82.7103 77.0392 85.2861C77.0339 86.5211 76.251 88.0351 76.0684 89.4811C75.7396 92.091 75.7987 94.7731 74.9762 97.3102C74.7257 98.1208 75.0053 98.7571 75.8869 98.9021C78.2843 99.4064 80.5739 100.369 83.0786 100.556C87.4529 100.892 91.7606 100.311 96.034 99.4824C97.6233 99.1716 99.0707 99.0367 100.584 100.067C101.323 100.564 102.059 101.625 103.225 101.313C103.722 100.68 101.782 100.354 103.019 100.042C104.82 99.5554 106.905 99.035 108.631 99.6776C109.794 100.106 109.655 99.6467 109.798 99.0474C109.942 98.554 109.944 97.9894 110.052 97.4958C110.233 96.5085 110.129 95.9082 108.823 96.1496C108.01 96.2873 107.128 96.3541 106.142 95.8559C107.133 95.1544 108.155 95.441 109.004 95.0565C109.463 94.8467 110.275 94.8855 110.172 94.2499C110.069 93.579 109.291 93.8932 108.832 93.9619C107.772 94.169 106.606 94.6228 104.88 93.8743ZM151.077 68.1714C150.936 68.1708 150.795 68.1349 150.653 68.1343C150.62 67.7812 150.586 67.4282 150.587 67.1106C151.146 60.3379 151.775 53.5301 152.262 46.757C152.562 42.7708 153.355 38.8573 153.407 34.8347C153.41 34.3407 153.872 33.4605 152.99 33.4215C152.284 33.3831 152.246 34.1946 152.173 34.7942C150.753 44.8803 150.216 55.0055 149.502 65.1652C149.051 71.4797 148.6 77.8295 148.291 84.1446C148.058 89.1897 147.119 94.1612 146.921 99.2418C146.883 99.9121 146.773 100.688 147.584 100.833C148.572 100.978 148.399 100.024 148.437 99.46C148.665 95.7558 148.786 92.0864 149.049 88.3824C149.2 86.0893 149.457 83.7967 149.68 81.257C150.382 81.9658 150.239 82.4945 150.202 82.9883C150.013 85.9164 149.859 88.8446 149.635 91.7725C149.446 94.6299 149.151 97.487 148.998 100.38C148.959 101.156 148.635 102.778 150.509 101.763C151.04 101.447 151.002 102.047 151.107 102.33C151.281 102.86 151.561 103.426 152.161 103.252C152.833 103.078 152.624 102.372 152.626 101.877C152.598 100.289 152.322 98.7003 152.435 97.1129C152.811 91.7155 153.257 86.3537 153.845 80.9573C154.029 79.1584 153.578 77.2862 154.398 75.3489C155.026 77.116 154.384 78.5953 154.378 80.1127C154.284 85.5112 154.12 90.9095 153.462 96.2704C153.17 98.4922 153.055 100.715 152.939 102.937C152.864 104.066 153.814 104.564 154.661 104.533C155.579 104.501 155.23 103.547 155.233 102.947C155.35 100.372 155.255 97.7954 155.478 95.2204C156.144 87.9187 156.776 80.5817 157.054 73.2784C157.332 65.9398 158.175 58.6389 158.348 51.2999C158.515 45.1253 159.001 38.9873 159.344 32.8488C159.382 32.3549 159.386 31.4375 158.749 31.7171C157.83 32.1366 156.454 32.166 156.376 33.8241C156.135 40.7394 155.294 47.6169 154.699 54.5307C153.772 65.0423 152.845 75.5893 151.882 86.1008C151.697 88.0761 151.265 90.0504 150.975 92.0252C150.858 86.2376 151.553 80.5593 152.036 74.8448C152.667 67.6489 153.157 60.4523 153.787 53.2564C154.307 47.2951 155.32 41.3711 155.558 35.3733C155.596 34.6677 156.06 33.5405 155.001 33.4654C153.767 33.3895 154.149 34.6968 154.111 35.4024C154.067 37.4136 154.023 39.3895 153.803 41.3646C153.068 48.0661 152.51 54.8036 151.811 61.5405C151.731 63.6927 151.369 65.9142 151.077 68.1714ZM104.807 53.2229C105.903 52.91 106.962 52.7381 107.426 51.5404C108.176 49.5322 106.953 46.704 104.98 45.9545C104.028 45.5975 103.568 45.9484 103.493 47.0067C103.229 50.8872 103.742 54.8063 102.914 58.6491C102.806 59.0721 102.981 59.5315 103.368 59.7096C104.495 60.2085 105.659 60.3193 106.721 59.5829C107.853 58.8114 108.987 57.8635 108.676 56.3448C108.434 55.144 107.875 53.8007 106.109 54.0754C105.65 54.144 105.192 53.9656 104.807 53.2229ZM122.496 100.407C123.518 100.729 124.328 101.086 125.139 101.195C130.5 101.959 135.864 101.876 141.232 101.017C141.867 100.914 143.312 101.308 143.036 100.037C142.828 99.0125 141.661 99.678 140.884 99.7099C140.779 99.7095 140.672 99.7796 140.531 99.779C137.317 100.436 134.104 100.987 130.789 100.478C128.214 100.079 125.599 100.915 123.027 100.092C122.991 100.127 122.885 100.233 122.496 100.407ZM196.399 73.5528C196.543 72.8477 196.475 72.2123 195.665 71.9971C195.03 71.8179 194.746 72.346 194.885 72.8406C195.546 74.9254 194.445 76.6145 193.697 78.3404C193.055 79.855 193.968 80.8116 194.741 81.7677C195.057 82.1572 195.692 82.1952 196.222 81.9858C196.54 81.846 196.4 81.4925 196.366 81.2101C195.954 78.6676 196.176 76.1279 196.399 73.5528ZM84.085 104.513C84.8316 103.21 83.9837 103.454 83.1712 103.662C82.1113 103.94 81.2652 103.759 80.2442 103.191C78.8008 102.408 77.0373 102.189 75.4159 101.758C74.9576 101.65 74.6038 101.861 74.4607 102.319C74.353 102.742 74.3864 103.201 74.8798 103.344C77.7346 104.168 80.5888 105.133 83.5518 105.428C84.2218 105.537 84.646 105.362 84.085 104.513ZM87.6336 108.127C87.6697 107.951 87.7056 107.81 87.7063 107.633C87.5303 107.527 87.3548 107.314 87.1785 107.278C83.3352 106.556 79.4919 105.834 75.8275 104.513C75.299 104.334 74.8748 104.508 74.6962 105.002C74.4109 105.706 74.9746 105.92 75.5033 106.064C77.4774 106.531 79.451 107.139 81.4963 107.466C83.5062 107.827 85.5877 107.942 87.6336 108.127ZM66.8676 46.1087C64.1114 46.9791 60.2664 54.867 60.8164 58.2922C63.233 54.3151 63.5009 49.4466 66.8676 46.1087ZM145.823 108.306C148.366 107.929 150.801 107.727 153.1 106.679C153.524 106.504 154.054 106.295 153.845 105.694C153.67 105.234 153.141 105.197 152.788 105.372C150.49 106.315 148.124 106.763 145.687 107.07C145.299 107.104 144.874 107.42 144.978 107.914C145.046 108.408 145.541 108.305 145.823 108.306ZM200.691 76.5707C200.626 75.3 200.879 73.9955 200.461 72.7586C200.321 72.3699 200.323 71.8759 199.758 71.944C199.264 72.0125 199.227 72.5063 199.225 72.9298C199.215 75.1881 199.241 77.4819 199.266 79.7404C199.264 80.1639 199.298 80.6228 199.862 80.6252C200.392 80.6274 200.464 80.1337 200.466 79.7103C200.577 78.6521 200.616 77.5937 200.691 76.5707ZM204.608 76.658C204.573 76.6579 204.502 76.6576 204.467 76.6574C204.368 75.0691 204.304 73.5162 204.205 71.9278C204.172 71.3983 204.528 70.5883 203.682 70.5141C202.976 70.4757 202.761 71.2864 202.794 71.8159C202.89 74.1453 203.444 76.4413 203.434 78.7703C203.433 79.0878 203.679 79.3359 204.032 79.3021C204.35 79.3035 204.562 79.0574 204.599 78.74C204.637 78.0697 204.605 77.3638 204.608 76.658ZM144.861 85.7179C145.535 84.9091 145.975 72.8427 145.415 71.8876C144.759 76.6133 144.881 81.1659 144.861 85.7179ZM198.256 76.7367C198.291 76.7368 198.291 76.7368 198.326 76.737C198.331 75.6784 198.335 74.6198 198.34 73.5612C198.342 73.173 198.414 72.644 197.85 72.571C197.25 72.5332 197.072 73.0264 197.07 73.5204C197.061 75.6376 197.052 77.7196 197.078 79.8369C197.076 80.2604 197.18 80.7195 197.745 80.6867C198.168 80.6532 198.241 80.2301 198.242 79.8772C198.247 78.8539 198.251 77.7953 198.256 76.7367ZM96.8225 104.885C97.3167 104.852 97.6342 104.853 97.9167 104.819C98.3757 104.75 99.1156 105.036 99.2597 104.331C99.4038 103.661 98.6277 103.587 98.2408 103.303C98.065 103.161 97.8538 103.019 97.6778 102.912C96.5164 102.202 96.8952 104.391 95.8034 103.892C95.6625 103.821 95.3437 104.102 95.4132 104.349C95.4478 104.526 95.6939 104.739 95.8702 104.775C96.2226 104.882 96.6462 104.849 96.8225 104.885ZM110.999 74.0338C111.53 73.6832 112.763 74.2178 113.015 72.9838C113.16 72.2434 112.455 72.0639 111.96 72.2735C111.182 72.5878 109.879 71.9117 109.697 73.3224C109.588 73.9218 110.187 74.1361 110.999 74.0338ZM88.0783 103.189C86.6001 102.265 83.6375 101.899 81.1301 102.347C83.7052 102.57 85.6769 103.602 88.0783 103.189ZM111.49 74.8828C110.713 74.95 109.726 74.6988 109.65 75.9335C109.613 76.3921 109.964 76.817 110.388 76.6777C111.236 76.399 112.401 76.3334 112.687 75.3819C112.832 74.7121 111.913 74.9551 111.49 74.8828ZM105.76 102.629C106.358 103.126 107.027 103.482 107.306 104.224C107.481 104.648 108.22 104.934 108.364 104.334C108.508 103.7 107.982 102.957 108.162 102.181C108.198 101.969 107.315 102.142 106.856 102.175C106.538 102.209 106.151 102.102 105.76 102.629ZM105.061 109.331C104.077 108.339 103.232 107.841 102.103 107.836C101.75 107.835 101.327 107.833 101.289 108.292C101.289 108.503 101.57 108.787 101.816 108.894C102.732 109.321 103.72 109.396 105.061 109.331ZM99.7835 105.639C99.3591 105.848 98.373 105.385 98.4401 106.197C98.5075 106.939 99.4244 107.084 100.13 107.122C100.589 107.124 101.259 107.056 101.262 106.527C101.23 105.715 100.489 105.642 99.7835 105.639Z" fill="#91BAE2"/>
<path d="M23.2006 33.1823C25.1781 32.8732 26.9466 31.928 28.9237 31.6895C31.3246 31.3822 33.2621 32.1668 34.4176 34.289C35.4679 36.2343 35.6354 38.317 35.6257 40.5753C35.5692 45.5153 34.2076 50.3439 34.6099 55.2858C34.6437 55.6388 34.6417 56.0976 34.1829 56.0956C33.6536 56.0933 33.6205 55.5992 33.5517 55.1754C33.0693 52.4562 33.0458 49.7037 33.2695 46.917C33.5651 43.8129 33.8959 40.7444 34.1209 37.64C34.3096 34.7826 31.4587 33.0412 27.9973 33.7675C25.4896 34.286 23.2611 35.5468 20.9631 36.525C17.6755 37.8871 14.2888 37.6609 10.901 37.6817C9.56009 37.6759 8.21901 37.7055 6.84264 37.7348C6.48977 37.7333 6.06662 37.6609 5.92698 37.3075C5.75251 36.848 6.17717 36.5675 6.5311 36.322C7.13281 35.9011 7.80388 35.7629 8.54462 35.8366C13.9409 36.4949 18.2913 34.1846 22.3981 31.0616C26.257 28.1493 30.5294 27.5677 34.5416 30.055C37.6387 31.9738 38.7175 35.5072 39.2667 39.1089C39.7482 42.0398 38.8893 44.8238 38.6653 47.6811C38.5168 49.4096 38.5802 51.0684 39.4911 52.6249C39.6661 52.9432 40.2283 53.5102 39.5215 53.7542C39.0267 53.9285 38.6763 53.3624 38.5369 52.9384C37.9102 50.9596 37.6718 48.9472 37.716 46.8654C37.8011 43.4782 38.3451 40.0577 37.2301 36.7359C36.9515 35.8878 36.7081 35.0398 36.3232 34.2619C34.7859 30.6913 33.5191 29.8389 29.6713 30.1753C27.2002 30.3764 24.8681 31.1075 23.2006 33.1823Z" fill="#91BAE2"/>
<path d="M139.596 54.6777C141.155 53.1317 141.198 51.4028 140.606 49.5653C140.362 48.7527 139.8 48.221 139.057 48.5707C137.36 49.3397 135.597 49.0499 133.868 48.9719C132.88 48.8971 132.455 49.2834 132.451 50.2362C132.41 51.6122 131.91 53.0215 132.716 54.3659C132.891 54.6842 132.96 55.0374 132.676 55.3538C132.463 55.6352 128.439 55.9708 128.228 55.7229C127.807 55.1565 128.232 54.8054 128.657 54.6308C130.424 53.9326 130.818 52.5934 130.825 50.8291C130.798 49.0293 131.088 47.1956 131.202 45.3964C131.239 44.9378 131.312 44.303 131.066 44.0549C129.38 42.248 130.721 42.2185 132.098 42.1185C132.627 42.0855 133.124 41.4878 133.863 41.9144C132.939 43.3925 132.192 44.8361 132.467 46.6722C132.639 47.6963 132.92 47.9798 133.909 47.737C135.605 47.2855 137.335 46.8695 139.066 46.6299C140.125 46.4933 140.304 45.9647 140.272 45.1177C140.243 43.5296 139.154 42.5369 138.03 41.2618C139.407 41.0912 140.537 40.8843 141.667 40.8186C142.584 40.752 142.546 41.4928 142.332 42.0565C141.402 44.9108 141.883 47.877 141.447 50.7687C141.302 51.6856 141.758 52.4286 142.214 53.0304C143.302 54.5171 142.418 54.7957 141.182 54.9668C140.724 54.9648 140.264 55.104 139.596 54.6777Z" fill="#91BAE2"/>
<path d="M127.462 94.3588C129.166 92.0724 129.211 89.6731 129.786 87.4172C130.18 85.9015 130.752 84.1396 128.357 83.2471C131.676 82.6262 131.852 82.7328 133.355 86.0915C133.705 86.8694 133.734 88.2457 134.51 88.3196C135.533 88.4298 135.54 86.9478 136.037 86.2089C136.569 85.4701 137.137 84.661 137.142 83.6729C137.113 82.1555 138.206 82.3366 139.088 82.4109C140.393 82.5577 139.542 83.4362 139.54 84.0008C139.564 86.6827 139.905 89.2602 141.307 91.5952C141.552 92.0197 142.257 92.3403 141.901 92.9386C141.51 93.5368 140.77 93.4631 140.134 93.4957C139.393 93.5278 139.113 93.0325 138.974 92.3968C138.594 90.6308 138.213 88.8295 137.833 87.0635C137.764 86.675 137.872 86.1109 137.308 86.1085C136.849 86.1065 136.706 86.5999 136.528 86.952C135.923 88.1492 135.318 89.3464 134.713 90.5436C134.535 90.8604 134.357 91.1772 133.934 91.1048C133.581 91.0327 133.547 90.715 133.443 90.4323C133.024 89.266 132.57 88.1348 132.116 87.0037C131.977 86.6855 131.943 86.2619 131.484 86.2952C131.025 86.3286 130.953 86.7517 130.952 87.0693C130.801 89.1506 129.381 91.1559 130.678 93.314C130.958 93.8092 130.498 94.019 130.039 94.0876C129.297 94.2608 128.627 94.258 127.462 94.3588Z" fill="#91BAE2"/>
<path d="M140.164 62.3366C140.124 63.4303 139.418 63.6037 138.887 63.9543C137.365 64.9358 135.879 65.9881 134.638 67.359C134.035 67.9916 133.856 68.5907 134.417 69.3694C135.68 71.2098 136.942 73.0501 138.417 74.715C138.768 75.1046 139.649 75.4613 139.011 76.0937C138.444 76.6206 137.562 76.6521 136.965 75.9438C135.596 74.2794 134.05 72.7554 133.035 70.8103C132.86 70.4567 132.721 69.9267 132.226 70.0658C131.661 70.1692 131.871 70.6994 131.834 71.0874C131.792 72.6752 131.503 74.2619 131.884 75.8162C132.231 77.2644 131.209 76.8719 130.574 76.9397C129.832 77.0071 129.021 76.9684 129.308 75.8757C129.953 73.5848 129.822 71.22 130.044 68.8919C130.155 67.6221 130.478 66.3178 129.919 65.0804C129.639 64.4087 129.783 63.9153 130.594 63.8482C131.336 63.8161 132.254 63.6789 132.249 64.8433C132.246 65.5491 132.031 66.2186 131.958 66.924C131.885 67.3472 131.565 67.8751 132.129 68.1598C132.586 68.3735 132.906 67.9514 133.154 67.6702C134.218 66.3338 135.669 65.4226 136.558 63.909C137.34 62.6773 138.821 62.8248 140.164 62.3366Z" fill="#91BAE2"/>
<path d="M119.827 48.029C121.627 47.9308 123.181 47.7963 124.698 47.7675C125.369 47.7704 125.402 48.2646 125.117 48.7927C124.3 50.2007 124.61 51.7546 124.428 53.2712C124.317 54.2588 124.562 54.895 125.659 54.0528C125.907 53.8422 126.191 53.4552 126.507 53.8447C126.823 54.2695 126.469 54.5856 126.185 54.902C125.015 56.2026 121.555 56.5054 119.725 55.5095C116.943 53.9802 115.86 51.5054 116.545 48.156C117.049 45.6881 119.919 43.0538 122.39 42.7821C123.626 42.6463 124.827 42.475 126.062 42.3744C126.556 42.3412 127.193 41.9205 127.402 42.6625C127.576 43.2278 127.467 43.8625 127.148 44.3552C126.757 44.9887 126.193 44.7039 125.771 44.4198C122.956 42.6434 119.523 44.8518 118.56 47.2825C117.846 49.1497 118.156 50.9859 118.395 52.8219C118.532 53.8106 119.376 54.5199 120.433 54.8067C121.843 55.1657 122.374 54.7445 122.346 53.2623C122.346 53.1917 122.346 53.1564 122.346 53.0859C122.219 49.9094 122.219 49.9094 119.827 48.029Z" fill="#91BAE2"/>
<path d="M96.9434 19.1006C98.566 19.2487 100.048 19.2903 100.958 20.988C101.693 22.3674 102.747 23.5717 103.729 24.8462C104.15 25.4126 104.715 25.4503 104.789 24.6038C104.9 23.475 105.399 22.3127 104.309 21.2847C103.642 20.6467 103.89 20.2596 104.808 20.2988C105.266 20.3007 105.76 20.3381 106.219 20.3754C106.995 20.4493 107.346 20.8743 106.849 21.5426C105.465 23.4069 105.562 25.4893 105.658 27.6422C105.692 28.0305 105.937 28.5256 105.407 28.735C104.841 28.9796 104.525 28.5548 104.244 28.2007C102.875 26.6775 101.399 25.2244 100.312 23.4554C100.067 23.1015 99.8933 22.4302 99.3281 22.569C98.6922 22.7427 98.9009 23.4493 98.8282 23.943C98.6471 25.0362 98.9957 26.0257 99.3089 27.0504C99.4482 27.4744 99.7636 28.0051 99.268 28.3559C98.6663 28.7767 97.9974 28.421 97.434 28.1363C96.9057 27.887 97.014 27.3229 97.2275 26.9003C97.7979 25.5618 97.7686 24.1502 97.8453 22.7391C97.9214 21.4337 97.9267 20.1987 96.9434 19.1006Z" fill="#91BAE2"/>
<path d="M153.742 14.6164C153.745 13.8754 153.255 13.1322 154.067 12.924C154.844 12.7156 154.982 13.5278 155.156 14.0226C155.645 15.295 156.063 16.5672 156.481 17.8393C156.62 18.2633 156.688 18.8635 157.288 18.8308C157.818 18.7978 158.067 18.2343 158.14 17.8111C158.463 16.4363 158.963 15.1328 159.533 13.8296C159.782 13.3014 159.997 12.6671 160.772 12.8116C161.548 12.9561 161.793 13.5217 161.825 14.2276C161.956 16.5571 162.511 18.7473 164.233 20.4838C164.444 20.6964 164.655 20.909 164.477 21.2612C164.299 21.578 163.982 21.506 163.699 21.5048C162.252 21.5339 160.805 21.6336 160.991 19.4466C161.027 19.1644 160.852 18.8814 160.712 18.6338C160.257 17.8202 160.864 16.1996 159.629 16.159C158.817 16.1555 158.74 17.7431 158.277 18.588C158.064 19.0106 157.886 19.4332 157.742 19.8914C157.564 20.4199 157.631 21.1965 156.819 21.193C156.149 21.1902 156.081 20.4841 155.907 20.0247C155.488 18.9289 155.246 17.7634 154.757 16.7027C154.442 15.9956 153.067 15.7074 153.742 14.6164Z" fill="#91BAE2"/>
<path d="M87.1398 17.647C86.0751 19.0539 85.6448 20.64 86.096 22.4063C86.4781 23.8194 88.5504 26.0867 89.1524 25.5953C90.2856 24.6826 91.4546 23.629 91.5324 21.9356C91.573 20.7007 91.5783 19.4656 90.6298 18.4735C90.3838 18.2255 90.0676 17.9065 90.3161 17.5547C90.6001 17.1678 91.058 17.3462 91.4455 17.5243C92.8193 18.0947 94.0097 20.2877 93.897 21.8751C93.7483 23.6389 92.4713 25.186 90.8464 25.5672C87.5613 26.3295 86.3985 25.9363 84.7855 23.5299C83.6636 21.8313 84.1344 19.0103 85.7629 17.7822C86.1525 17.4663 86.5771 17.1858 87.1398 17.647Z" fill="#91BAE2"/>
<path d="M123.592 91.695C123.687 94.1655 123.439 94.4467 121.427 94.544C119.98 94.6084 118.499 94.3197 117.05 94.8075C116.556 94.9819 116.204 94.7686 116.383 94.1695C117.349 90.9272 117.011 87.5029 117.484 84.1879C117.593 83.4826 117.842 82.9544 118.443 82.6393C118.832 82.4293 119.221 82.3604 119.608 82.6443C119.96 82.8929 119.817 83.2451 119.78 83.5978C119.451 86.3841 119.156 89.2059 118.862 91.9923C118.678 93.6853 119.206 94.111 120.902 93.6948C121.997 93.4172 122.6 92.5024 123.592 91.695Z" fill="#91BAE2"/>
<path d="M123.213 65.1577C121.691 66.1393 122.073 67.623 121.997 68.893C121.845 71.5389 121.233 74.2534 122.387 76.8343C122.492 77.0465 122.596 77.3293 122.313 77.4339C121.606 77.7132 120.83 77.7451 120.054 77.6007C119.631 77.5283 119.562 77.1045 119.67 76.7521C120.21 74.2137 119.833 71.6009 120.162 69.0263C120.271 68.2857 120.451 67.3337 120.136 66.7678C119.085 64.9989 120.143 65.1093 121.343 65.185C121.907 65.1874 122.472 65.1546 123.213 65.1577Z" fill="#91BAE2"/>
<path d="M148.442 16.0752C148.442 15.9694 148.408 15.8281 148.408 15.7222C148.482 14.9815 147.285 14.3412 148.1 13.639C148.808 13.0068 149.901 13.2232 150.784 12.9447C151.173 12.8405 151.843 13.0198 151.346 13.547C149.184 15.8667 148.993 19.1476 147.289 21.681C147.076 21.9977 147.109 22.5624 146.579 22.5954C146.014 22.6283 146.087 22.0287 145.877 21.7102C144.615 19.8346 143.777 17.6079 141.417 16.7156C141.064 16.6082 140.572 16.3238 140.68 15.8303C140.788 15.1956 141.459 15.1984 141.918 15.024C142.519 14.7795 142.941 15.0636 143.221 15.5941C143.781 16.6904 144.27 17.8217 144.901 18.8831C146.022 20.7581 146.022 20.7228 147.195 18.9282C147.798 18.0486 148.437 17.2044 148.442 16.0752Z" fill="#91BAE2"/>
<path d="M78.2825 25.6903C74.8949 25.6758 73.7395 23.5536 73.2212 20.9754C72.8409 19.1388 75.6754 16.4691 77.8286 16.3372C75.1628 20.8073 75.259 23.0661 78.2825 25.6903Z" fill="#91BAE2"/>
<path d="M127.359 27.8768C128.818 24.8836 128.124 22.2694 126.511 19.7218C126.056 19.0141 126.832 18.9821 127.221 18.9132C127.644 18.8445 128.529 18.3542 128.455 19.1655C128.306 20.9645 129.181 22.5915 129.068 24.3554C128.955 25.9428 129.73 26.3343 131.179 25.6701C131.604 25.4602 131.958 25.1441 132.347 24.8988C132.807 24.6184 133.198 23.9144 133.867 24.3407C134.324 24.6249 134.11 25.1886 134.038 25.647C133.929 26.3876 133.504 26.7387 132.727 26.7706C130.962 26.9395 129.092 26.7903 127.359 27.8768Z" fill="#91BAE2"/>
<path d="M137.53 25.9441C137.141 26.013 136.894 26.0119 136.825 25.7646C136.72 25.4466 136.934 25.1299 137.181 25.0604C138.983 24.4682 138.423 23.4072 137.899 22.2052C137.27 20.7557 136.853 19.2366 136.33 17.7523C136.19 17.3635 135.981 16.9392 136.476 16.659C136.936 16.4139 137.431 16.1338 137.959 16.3477C138.452 16.5616 138.097 17.0894 138.202 17.4427C138.933 19.6689 138.781 22.209 140.538 24.0515C140.994 24.5122 140.992 25.0767 140.285 25.2501C139.296 25.4929 138.308 25.5593 137.53 25.9441Z" fill="#91BAE2"/>
<path d="M121.757 25.9119C121.975 24.4308 121.488 22.876 121.036 21.2862C120.932 20.8623 120.581 20.3667 121.147 20.0516C121.571 19.8064 122.031 19.6672 122.489 19.8809C123.123 20.1659 122.732 20.6582 122.73 21.117C122.757 23.2343 122.959 25.3172 123.621 27.2961C123.726 27.6141 124.007 27.9329 123.688 28.2491C123.263 28.6355 122.698 28.5625 122.169 28.4896C121.746 28.4173 121.677 28.0994 121.714 27.6761C121.787 27.1824 121.754 26.6529 121.757 25.9119Z" fill="#91BAE2"/>
<path d="M113.806 28.6307C111.898 29.3283 110.524 28.7225 109.4 27.4473C108.452 26.3846 108.322 23.8434 109.068 22.6468C109.317 22.2244 109.637 21.5906 110.236 21.8049C110.835 22.0192 110.444 22.6174 110.372 23.0406C109.901 25.8968 110.812 27.4181 113.806 28.6307Z" fill="#91BAE2"/>
<path d="M187.325 33.7088C186.723 34.3061 186.158 34.3742 185.49 33.8068C184.189 32.7426 182.674 32.0303 181.48 30.7548C180.356 29.515 178.7 28.908 177.328 27.9141C181.063 29.1651 183.981 31.8242 187.325 33.7793C187.325 33.744 187.325 33.7088 187.325 33.7088Z" fill="#91BAE2"/>
<path d="M40.2588 62.6849C39.0566 63.2444 38.245 63.2409 37.7179 62.7093C36.523 61.575 35.4696 60.3354 34.381 59.0957C34.1352 58.8124 34.0315 58.3179 34.4563 58.0021C34.7748 57.7918 35.2332 57.8643 35.373 58.1825C36.4232 60.1631 37.8635 61.6866 40.2588 62.6849Z" fill="#91BAE2"/>
<path d="M141.82 103.842C138.393 104.639 134.897 105.188 131.371 104.679C134.866 104.412 138.293 103.439 141.82 103.842Z" fill="#91BAE2"/>
<path d="M233.319 88.4604C231.873 88.2778 229.851 82.4467 230.145 79.6603C232.11 82.4917 230.859 86.1209 233.319 88.4604Z" fill="#91BAE2"/>
<path d="M152.842 18.1411C152.836 19.6937 152.16 20.7847 152.19 22.0199C152.187 22.7257 151.341 22.6868 150.811 22.8609C150.528 22.9303 150.14 22.9992 150.035 22.7164C149.825 22.1862 150.215 21.835 150.534 21.4835C151.35 20.5343 151.568 19.159 152.842 18.1411Z" fill="#91BAE2"/>
<path d="M54.5035 40.7969C53.9427 39.9123 54.1235 38.8898 53.5268 38.1462C53.246 37.7921 53.6013 37.229 54.026 36.9485C54.3799 36.7031 54.804 36.5637 55.1911 36.8124C55.7189 37.1675 55.4697 37.6605 55.2562 38.083C54.8293 38.8928 55.2483 39.9179 54.5035 40.7969Z" fill="#91BAE2"/>
<path d="M82.8622 19.2879C82.0197 18.261 81.8479 17.1663 80.9329 16.5978C80.8624 16.5622 80.864 16.2094 80.9348 16.1391C81.5364 15.7535 82.1705 16.0032 82.7701 16.0764C83.1581 16.1133 83.4393 16.3616 83.367 16.7847C83.2579 17.5253 83.0783 18.2655 82.8622 19.2879Z" fill="#91BAE2"/>
<path d="M200.781 31.1553C202.436 32.0446 203.418 33.3897 203.269 35.4004C202.463 33.9855 201.339 32.7456 200.781 31.1553Z" fill="#91BAE2"/>
<path d="M210.43 77.1757C212.659 75.8443 214.528 75.9935 216.003 77.7289C214.066 76.8031 212.475 77.4668 210.43 77.1757Z" fill="#91BAE2"/>
<path d="M82.1261 26.2358C81.7389 26.0224 80.8906 26.3364 81.0705 25.5256C81.1788 24.9614 81.9212 24.647 82.4508 24.5787C83.157 24.4759 83.1891 25.217 83.187 25.7111C83.1487 26.4166 82.6197 26.3438 82.1261 26.2358Z" fill="#91BAE2"/>
<path d="M201.669 38.1463C200.472 37.4001 200.372 36.094 199.67 35.2441C200.797 35.8136 201.959 36.3126 201.669 38.1463Z" fill="#91BAE2"/>
<path d="M181.807 78.1131C182.83 78.0469 183.853 78.1571 184.909 78.7263C183.53 79.4967 182.794 78.2585 181.807 78.1131Z" fill="#91BAE2"/>
<path d="M127.351 104.027C126.22 104.481 125.233 104.124 124.283 103.626C125.414 103.207 126.364 103.705 127.351 104.027Z" fill="#91BAE2"/>
<path d="M175.867 72.123C176.817 72.727 177.732 73.2955 178.683 73.8995C177.199 74.2107 176.569 73.0788 175.867 72.123Z" fill="#91BAE2"/>
<path d="M114.297 20.7984C115.076 20.343 115.711 20.3458 116.131 21.0886C116.306 21.3717 116.339 21.9364 115.951 21.97C115.139 22.0724 114.789 21.4004 114.297 20.7984Z" fill="#91BAE2"/>
<path d="M95.3193 60.7331C93.7661 60.8676 92.8492 60.7225 93.5284 58.6788C93.9929 57.3398 92.5161 56.0984 91.0689 56.1981C90.1864 56.2649 89.3046 56.1553 88.4224 56.1515C86.5169 56.1433 85.5608 56.9155 85.3412 58.7495C85.2687 59.208 85.478 59.7735 84.8422 59.9119C84.1357 60.0853 83.4303 60.0117 82.7964 59.6914C82.3739 59.4779 82.5874 59.0553 82.8708 58.8095C86.5543 55.6494 87.0332 50.9583 88.7445 46.8723C88.9941 46.2734 88.9634 45.2147 89.775 45.2182C90.657 45.2572 90.4055 46.3148 90.6145 46.9508C91.5206 49.6013 92.462 52.2519 93.2974 54.9373C93.8195 56.6333 94.9787 57.8734 95.9608 59.2538C96.2415 59.6432 96.9459 59.9638 96.6611 60.5271C96.4467 61.1614 95.7784 60.6645 95.3193 60.7331ZM90.0885 54.3942C91.8175 54.4369 92.0658 54.1204 91.5433 52.5302C91.2298 51.5761 90.9515 50.6575 90.6732 49.7035C90.5341 49.2442 90.4305 48.7144 89.9014 48.6416C89.2666 48.5683 89.299 49.2389 89.0856 49.6261C88.8363 50.1544 88.7279 50.7538 88.4435 51.2466C86.6673 53.9914 87.5481 54.3128 90.0885 54.3942Z" fill="#91BAE2"/>
<path d="M85.4373 85.5689C86.4959 85.5735 87.5544 85.6133 88.6131 85.5825C89.6013 85.5515 89.9872 86.0825 90.0187 86.9648C90.0175 87.2471 90.0159 87.6352 89.8741 87.7758C89.5552 88.092 89.2389 87.773 88.9575 87.5601C88.7817 87.4182 88.606 87.241 88.3948 87.1343C87.1273 86.4584 85.7176 86.0289 84.6191 87.0828C83.5561 88.1016 84.2555 89.5866 84.4975 90.7522C84.67 91.6704 85.5895 91.2156 86.2613 90.9009C86.6857 90.691 87.1473 90.0225 87.6389 90.5892C88.1305 91.1559 87.9859 91.9669 87.7361 92.601C87.4151 93.4112 86.8533 92.7383 86.4303 92.6307C85.7608 92.4161 84.8797 92.1653 84.4536 92.7634C83.8504 93.5371 83.6694 94.5949 83.7358 95.5833C83.7687 96.148 84.3328 96.2563 84.8267 96.2937C86.2733 96.3352 87.7545 96.5533 89.1686 95.9594C89.5928 95.7848 90.1589 95.4344 90.4035 96C90.6832 96.6011 90.0465 96.9512 89.5869 97.161C89.0567 97.3704 88.4565 97.4384 87.8566 97.4359C85.9863 97.4279 84.1176 97.067 82.2466 97.2354C81.5405 97.3029 81.1175 97.1953 81.4045 96.1026C82.0866 93.3884 82.2046 90.5659 82.2518 87.7784C82.2523 87.6725 82.2529 87.5314 82.2181 87.4254C80.5351 84.8775 82.6841 85.7336 83.7783 85.6677C84.3783 85.635 84.9428 85.6727 85.5427 85.6752C85.4371 85.6042 85.4373 85.5689 85.4373 85.5689Z" fill="#91BAE2"/>
<path d="M101.81 85.9567C102.41 85.9945 103.469 85.9991 104.493 85.7212C104.988 85.5821 105.446 85.6194 105.691 86.1145C105.936 86.6095 106.004 87.1744 105.65 87.6316C105.259 88.1593 104.802 87.6986 104.38 87.5556C103.64 87.3054 102.899 87.267 102.122 87.2637C100.005 87.2546 99.8985 87.4306 100.03 89.5837C100.095 90.8896 100.658 91.2449 101.825 90.8264C102.355 90.617 102.956 90.302 103.412 90.9038C103.904 91.5058 103.548 92.1394 103.299 92.7383C103.013 93.4428 102.415 93.0521 101.921 92.9794C100.123 92.6894 99.6624 93.1108 99.8313 94.8759C99.8647 95.2995 99.9336 95.688 100.003 96.0764C100.071 96.5355 100.351 97.0307 99.7503 97.3104C99.2553 97.52 98.6913 97.3764 98.198 97.1979C97.6698 96.9486 98.0245 96.5267 97.9909 96.1384C97.8632 92.9973 98.9351 89.8966 98.3134 86.7533C98.2099 86.1883 98.4577 86.0129 98.9517 86.015C99.8342 85.9482 100.611 85.9515 101.81 85.9567Z" fill="#91BAE2"/>
<path d="M101.968 81.5809C100.766 82.1403 99.6739 81.7122 98.6156 81.6371C97.91 81.5987 97.9834 80.9286 98.1268 80.3999C98.8444 77.6506 98.8212 74.8275 98.798 72.0044C98.8031 70.8046 99.0567 69.2884 97.2232 68.9276C96.9763 68.8913 96.7654 68.7139 96.8019 68.4318C96.8387 68.0791 97.1566 68.0099 97.4392 67.9405C99.5941 67.3851 100.931 68.4142 100.78 70.6719C100.591 73.6706 100.789 76.6708 100.212 79.5972C99.9592 81.0076 101.513 80.732 101.968 81.5809Z" fill="#91BAE2"/>
<path d="M90.6993 68.0185C91.7933 68.0232 92.499 68.0262 93.2048 68.0292C93.7694 68.0316 94.5121 67.6467 94.7559 68.3887C95.0349 69.1663 94.8545 70.083 94.4633 70.787C94.0723 71.4558 93.6154 71.0304 93.1937 70.6052C91.4375 68.6921 90.2391 68.3694 88.1185 69.1366C86.3867 69.7644 85.3562 71.4185 85.2411 73.5705C85.1638 75.1581 84.4862 76.8137 85.7502 78.3012C85.8556 78.4075 85.8187 78.7955 85.7122 78.9362C85.4991 79.2529 85.1824 79.0398 84.9359 78.9329C83.5973 78.3625 82.4448 75.5699 83.0153 74.1961C83.5148 72.9279 83.556 71.5519 84.6196 70.392C86.4632 68.3885 88.5133 67.5857 90.6993 68.0185Z" fill="#91BAE2"/>
<path d="M88.7743 80.6424C90.3289 80.1903 91.9513 80.409 93.3664 79.5681C93.7909 79.3229 94.1065 79.783 94.1397 80.2772C94.1727 80.8066 94.2403 81.5127 93.4992 81.5095C91.9114 81.4674 90.2882 81.4605 88.7743 80.6424Z" fill="#91BAE2"/>
<path d="M108.389 81.9619C109.343 81.7189 110.297 81.4407 111.286 81.1979C110.575 82.3947 109.552 82.4256 108.389 81.9619Z" fill="#91BAE2"/>
<path d="M154.909 71.5046C155.099 59.9664 156.172 48.4673 157.386 37.0041C157.724 48.5798 155.699 59.969 154.909 71.5046Z" fill="#91BAE2"/>
</svg>
