<svg width="475" height="275" viewBox="0 0 475 275" fill="none" xmlns="http://www.w3.org/2000/svg">
<path d="M151.883 219.822L164.072 209.472L173.804 210.19L187.487 196.485C193.951 214.491 219.891 213.29 219.891 213.29C232.363 198.278 251.48 203.003 251.48 203.003C274.545 216.338 284.548 182.818 284.548 182.818L273.179 164.334C256.477 159.833 257.685 126.067 257.685 126.067C241.876 86.8467 207.786 123.439 207.786 123.439C203.047 114.206 195.943 111.201 195.943 111.201C175.862 85.2407 148.618 101.596 148.618 101.596C148.618 101.596 149.776 94.27 132.898 82.5406C116.02 70.8113 108.641 82.5366 108.641 82.5366C108.641 82.5366 107.848 74.027 88.7703 71.3929C69.6929 68.7587 65.0588 78.5556 57.2315 78.483C49.4042 78.4105 44.2609 82.9225 44.2609 82.9225C24.4626 100.757 30.6888 135.375 30.6888 135.375C9.59112 172.516 36.676 184.633 36.676 184.633L39.314 181.002C43.8445 202.604 75.5789 192.167 75.5789 192.167C75.5789 192.167 73.346 195.646 80.8489 202.024C80.8489 202.024 94.2932 214.581 105.573 210.928C116.888 207.186 149.374 234.087 151.883 219.822Z" fill="white"/>
<path d="M204.478 179.205C201.184 171.786 200.103 163.786 200.045 154.944C199.94 145.563 202.372 136.975 205.468 128.233C205.539 128.053 205.61 127.873 205.57 127.754C204.608 120.112 210.286 116.433 214.246 112.077C218.642 107.271 224.424 107.057 229.733 105.412C234.858 103.798 239.028 106.581 243.842 106.194C244.546 106.16 245.215 106.216 245.711 106.93C249.15 112.227 254.402 115.332 257.987 120.479C259.321 122.353 260.061 124.201 260.184 126.74C260.323 132.086 260.168 137.525 261.043 142.538C262.166 148.895 266.108 153.353 270.48 156.941C272.325 158.394 273.95 159.968 275.028 162.052C278.271 168.725 282.246 174.855 286.111 181.046C287.106 182.683 288.665 184.646 285.774 186.725C285.409 186.996 285.047 187.476 284.905 187.835C281.802 198.131 279.235 203.554 270.611 208.355C266.537 210.591 260.307 212.6 255.79 209.161C253.457 207.413 250.303 207.312 248.292 204.964C248.253 204.845 247.993 204.846 247.918 204.817C240.064 205.252 232.13 205.449 224.82 211.08L224.859 211.199C224.858 207.255 221.896 205.57 219.708 201.7C222.965 203.293 225.997 202.827 227.536 205.716C228.075 206.758 229.074 206.633 229.727 205.852C230.891 204.65 229.66 204.269 229.093 203.735C224.541 198.414 219.048 194.384 215.4 187.863C211.48 180.717 209.141 172.844 207.942 164.486C207.434 161.173 207.181 157.649 207.113 154.095C206.952 143.759 209.399 134.035 213.892 124.597C214.533 123.189 215.693 121.778 214.264 120.801C212.687 119.765 211.602 121.205 210.741 122.734C202.458 137.631 199.82 152.884 203.385 168.606C204.193 172.037 205.59 175.285 204.258 179.326L204.478 179.205ZM245.665 158.793C243.613 162.032 244.07 164.598 246.155 166.976C248.127 169.204 250.027 171.613 251.818 174.082C257.071 181.131 266.937 185.015 276.585 183.314C271.932 182.416 267.416 182.921 265.723 177.793C265.526 177.196 264.704 176.873 264.386 177.681C262.511 182.443 260.811 178.868 259.532 177.949C257.203 176.41 254.835 174.751 253.084 172.401C250.003 168.387 246.08 164.974 245.665 158.793C242.615 152.508 244.306 140.099 249.704 133.405C247.363 142.859 248.038 151.011 251.502 159.535C251.989 157.859 252.206 157.529 252.202 157.32C249.996 148.669 249.608 140.008 254.781 131.253C255.068 130.744 255.087 129.817 254.894 129.43C253.615 126.54 253.441 123.255 253.192 119.94C253.042 117.909 244.127 111.39 242.247 111.999C238.857 113.155 235.281 112.37 232.889 111.428C227.508 109.309 223.883 113.693 219.616 115.541C218.365 116.086 216.808 118.067 216.357 119.653C212.946 131.384 208.793 143.031 209.544 155.155C210.157 163.905 210.99 172.534 215.208 179.798C218.849 185.901 220.806 193.209 226.641 197.685C229.351 199.79 231.346 201.301 235.857 200.587C224.684 192.349 217.911 181.485 215.491 167.458C213.15 153.67 213.213 139.479 220.441 125.723C219.374 131.943 216.371 137.817 216.31 144.33C216.237 150.216 215.535 156.165 216.685 162.014C218.281 169.802 221.048 176.806 224.186 183.748C226.898 189.796 232.696 192.39 235.334 198.409C235.605 199.035 236.349 199.12 236.746 198.55C236.997 198.13 237.123 196.935 236.859 196.727C234.864 195.215 234.659 192.229 233.211 190.206C226.545 181.045 220.685 171.371 221.317 157.923C221.602 151.498 220.625 144.991 222.692 138.645C223.953 134.784 223.798 130.573 226.306 125.957C226.78 131.331 224.85 135.137 224.147 139.115C221.093 155.863 224.677 170.66 232.115 183.342C234.606 187.539 236.41 194.579 243.466 193.103C243.27 194.478 243.518 195.821 244.494 196.413C247.57 198.246 250.757 200.02 253.978 201.703C255.064 202.235 256.217 202.377 257.825 201.142C252.444 199.024 249.008 193.936 243.32 193.253C243.363 191.609 241.774 191.918 241.16 190.846C236.044 181.257 229.468 172.961 228.005 160.452C226.987 151.854 227.319 143.995 229.755 135.616C230.556 132.922 230.386 129.846 232.793 127.681C230.735 136.416 229.416 145.028 229.474 153.871C229.583 163.46 234.097 170.633 236.629 178.893C236.865 179.609 237.762 179.962 238.494 179.42C239.335 178.817 239.17 177.922 238.713 177.327C236.084 173.698 236.102 168.828 235.165 164.413C232.722 153.075 233.882 140.042 238.807 129.945C236.163 139.073 235.757 146.902 236.094 154.817C236.439 163.15 239.383 169.705 243.362 176.045C245.121 178.812 245.696 181.737 249.248 183.239C252.651 184.682 255.5 188.191 259.331 188.765C264.315 189.482 269.044 192.382 275.486 189.834C242.622 187.79 233.415 154.385 242.587 139.422C240.004 144.009 242.711 147.876 241.977 152.153C241.31 156.041 242.939 157.823 245.665 158.793ZM254.501 141.831C253.107 146.47 256.517 148.331 255.323 151.804C254.513 154.079 255.513 155.926 256.839 157.382C258.314 158.896 259.173 161.102 260.428 162.737C263.249 166.754 267.191 169.24 272.588 168.251C261.031 165.154 259.268 152.527 254.501 141.831ZM257.768 194.272C250.651 190.64 246.024 185.29 240.138 180.067C242.926 190.088 249.605 192.199 257.768 194.272ZM258.341 168.038C260.68 175.911 275.526 180.303 282.203 174.527C272.767 175.689 264.366 176.636 258.341 168.038ZM270.941 196.553C267.271 196.664 264.128 193.248 259.731 196.082C263.516 198.091 267.15 198.069 270.941 196.553Z" fill="#91BAE2"/>
<path d="M173.14 198.722C166.795 196.639 160.884 186.218 161.329 178.508C161.466 175.968 160.679 173.583 160.481 171.015C159.723 162.415 160.932 153.864 163.887 145.481C165.435 141.11 167.278 136.647 169.385 132.393C166.466 142.657 164.027 152.799 164.671 163.222C170.475 146.726 173.655 128.782 189.11 118.472C189.149 118.591 189.342 118.979 189.267 118.949C182.74 124.784 179.038 132.872 174.658 140.487C172.685 143.964 171.388 147.916 171.016 151.712C170.102 160.172 167.753 169.208 170.832 176.957C173.052 182.501 173.165 190.327 180.285 192.197C173.296 183.635 171.227 172.444 172.415 160.875C173.595 148.888 180.003 138.752 188.976 130.871C182.97 140.646 178.721 151.218 176.412 162.345C175.497 166.862 175.849 171.669 177.935 176.019C179.424 172.454 177.921 169.476 178.231 166.278C178.564 162.362 178.94 158.775 180.685 155C181.79 152.633 182.489 150.418 184.691 149.21C186.233 148.364 186.976 146.478 188.061 145.037C188.93 143.927 189.106 141.506 190.636 142.004C192.501 142.531 191.506 144.837 191.125 146.244C186.883 162.939 189.578 177.801 195.668 191.716C195.86 192.103 195.833 192.611 195.88 193.149C192.505 191.197 189.473 182.014 189.161 177.326C188.809 172.518 187.832 167.983 187.591 163.114C187.491 159.859 188.179 157.016 188.752 154.025C189.125 152.201 189.018 150.499 187.488 150C185.698 149.503 184.7 151.6 184.394 153.036C182.881 159.289 181.888 165.539 182.307 171.929C182.738 178.947 184.636 185.09 186.648 191.382C187.519 194.215 188.57 196.808 190.793 198.617C191.922 199.476 192.524 201.892 191.502 202.735C189.457 204.42 189.633 201.999 189.236 200.598C188.645 198.809 187.571 198.905 186.305 200.585C183.341 204.606 178.854 206.575 175.854 210.686C174.045 213.087 171.788 213.339 169.816 211.111C168.565 209.684 168.317 208.341 170.189 207.314C171.4 206.65 171.127 202.08 173.968 205.17C175.522 206.924 177.519 202.729 179.695 204.001C177.794 201.592 174.348 201.792 173.211 198.543C174.906 197.965 176.047 199.452 177.498 199.712C178.391 199.856 179.591 200.536 180.082 199.069C180.542 197.901 179.35 197.64 178.674 197.166C176.305 195.507 174.192 193.637 172.433 190.87C168.608 184.798 166.364 178 165.586 170.327C165.496 169.461 165.507 168.116 164.327 168.482C163.222 168.877 163.356 170.071 163.632 170.906C165.849 178.212 165.128 187.059 170.687 192.672C172.088 194.158 172.36 196.755 173.14 198.722Z" fill="#91BAE2"/>
<path d="M88.7307 71.2738C87.4534 74.2988 85.2071 73.2069 83.8618 72.6772C79.3378 70.7923 75.2203 72.6991 70.9299 75.2642C67.2255 77.4374 63.517 79.4015 59.7338 81.3362C58.963 81.7591 58.0034 82.0038 57.1852 81.8892C50.8167 80.5233 45.6375 83.1534 41.0968 90.0818C38.9346 93.381 36.5481 96.5919 37.3442 101.367C40.9386 99.2544 42.6757 95.0614 45.8176 92.563C43.1682 97.5381 39.5038 101.802 37.9795 107.428C37.8774 107.907 37.0399 108.718 36.7409 108.601C33.1573 107.397 34.2991 110.856 33.9928 112.292C33.6237 114.325 33.5656 117.104 35.6858 117.42C37.6211 117.767 37.9388 114.987 38.5401 113.459C39.5618 110.645 41.3823 108.871 44.5242 106.373C42.1618 110.839 41.0813 114.46 40.2251 118.17C39.9501 119.306 38.7943 120.927 37.6418 120.784C34.558 120.504 32.5746 117.648 29.3373 117.1C28.3697 116.926 27.4875 113.466 28.2576 111.071C29.3421 107.659 27.5436 104.772 28.9584 101.178C33.4503 89.7691 41.0194 82.1654 50.4063 76.5225C51.6529 75.7681 53.2105 75.7588 54.65 75.3917C55.6844 75.1763 56.9156 75.5573 57.5723 74.9858C64.8191 67.9815 72.8793 70.5323 80.5724 69.4107C83.2352 69.0063 85.9379 70.693 88.5853 71.424L88.7307 71.2738Z" fill="#91BAE2"/>
<path d="M104.856 185.12C104.623 182.642 103.513 180.856 101.809 179.044C100.158 181.922 98.7081 185.605 95.926 181.708C95.6583 181.292 95.2373 180.607 95.4141 180.158C96.8129 175.728 96.6707 174.116 94.2423 169.32C89.4641 159.968 90.0194 150.226 94.3739 139.385C96.107 134.983 97.6987 130.94 100.71 127.457C105.318 122.111 110.415 119.033 116.626 119.922C118.746 120.238 120.249 121.245 121.163 124.406C106.826 125.299 99.0928 135.951 96.6235 150.336C95.2574 158.41 93.7425 168.397 102.067 173.127C103.545 170.908 101.239 168.651 103.308 166.249C105.775 171.163 104.082 177.656 106.511 182.452C107.164 183.643 105.32 184.162 104.856 185.12Z" fill="#91BAE2"/>
<path d="M127.753 117.973C127.996 117.135 128.157 115.85 128.901 115.935C134.51 116.379 135.912 110.187 138.853 106.883C142.336 102.859 145.879 99.9995 150.489 98.5976C155.503 97.0439 160.592 95.5197 165.638 93.667C168.954 92.482 172.671 92.9079 176.439 94.0803C182.67 96.0147 186.212 102.805 193.155 103.152C195.271 103.259 195.988 105.824 197.424 107.219C198.939 108.853 196.811 110.091 195.942 111.201C194.421 113.093 193.284 111.815 192.481 110.565C184.563 98.005 172.51 96.1652 159.453 99.948C148.126 103.063 138.28 109.874 132.557 122.874C131.669 124.911 130.62 128.233 128.724 128.006C126.269 127.662 127.055 124.132 126.936 121.802C126.877 120.638 127.482 119.319 127.753 117.973Z" fill="#91BAE2"/>
<path d="M88.7699 71.393C94.8667 72.1332 100.987 72.1562 106.432 75.6489C108.423 76.9514 112.139 75.4055 115.022 74.8804C121.677 73.765 127.062 76.0928 131.996 80.0068C132.673 80.4807 133.943 80.981 132.897 82.5407C132.103 83.6807 131.14 83.7164 130.199 83.0349C123.767 78.3233 117.041 79.6184 110.128 84.6788C107.092 86.9078 105.927 84.1663 105.179 81.9002C103.478 76.3537 98.8681 75.7838 94.7613 74.3744C92.5624 73.82 90.0058 73.9548 88.7699 71.393Z" fill="#91BAE2"/>
<path d="M163.608 125.138C164.876 127.401 163.539 129.261 162.792 130.938C157.49 142.651 156.53 154.517 156.912 166.704C157.036 173.186 157.711 179.366 158.61 185.635C158.775 186.53 158.791 187.366 157.946 187.76C156.99 188.214 156.71 187.17 156.549 186.483C154.844 180.728 152.592 175.483 152.869 168.64C153.146 161.797 154.316 155.098 155.561 148.429C157.002 140.384 160.193 132.716 163.608 125.138Z" fill="#91BAE2"/>
<path d="M149.89 121.605C149.628 125.341 146.856 127.778 146.247 130.858C144.39 140.4 142.049 149.854 142.642 159.53C142.765 162.069 142.592 164.699 142.42 167.329C141.857 176.653 144.051 184.676 148.525 191.73C149.863 193.813 149.663 196.951 151.698 198.582C152.225 198.997 152.025 200.164 151.293 200.706C150.121 201.49 149.657 200.477 149.491 199.581C149.176 196.655 147.763 194.543 145.918 193.09C142.869 190.748 142.899 186.506 142.315 183.163C139.34 167.258 138.843 150.979 144.679 134.184C146.156 129.993 145.655 125.126 149.89 121.605Z" fill="#91BAE2"/>
<path d="M39.804 163.97C36.6228 154.728 37.5872 145.043 40.1759 134.96C41.1776 131.1 39.1315 128.841 35.5799 129.311C34.2112 129.498 30.8111 124.32 31.2982 122.644C31.5418 121.807 32.0964 121.714 32.7257 121.65C33.8348 121.464 33.7407 122.361 33.682 123.168C33.4437 128.159 37.333 125.954 39.3864 126.659C41.9984 127.48 42.202 124.551 42.6812 122.457C43.6081 118.567 46.4904 116.071 48.8415 112.949C48.4958 114.266 48.5632 115.849 47.8398 116.809C43.0315 123.321 42.5069 130.793 41.3491 138.119C40.1284 146.043 39.722 153.873 40.759 161.545C40.8891 162.53 41.2041 163.484 39.8 163.761L39.804 163.97Z" fill="#91BAE2"/>
<path d="M154.229 129.227C154.954 132.21 153.173 134.103 152.658 136.287C149.932 146.939 148.464 157.464 149.707 168.121C150.279 172.808 149.856 177.83 151.718 182.091C151.95 182.597 151.966 183.434 151.156 183.737C150.53 184.01 150.153 183.654 149.771 183.088C147.599 180.054 146.598 176.236 146.302 172.384C145.564 162.858 146.787 153.172 148.826 143.39C149.953 138.335 151.8 134.081 154.229 129.227Z" fill="#91BAE2"/>
<path d="M148.517 224.204C152.044 220.508 153.262 216.319 157.112 213.995C159.459 212.637 158.805 207.502 162.565 206.285C163.08 206.072 161.333 203.932 160.278 203.102C158.169 201.441 156.065 199.99 156.217 196.314C158.059 201.502 163.48 201.768 166.23 205.964C167.49 207.809 167.526 209.69 167.302 211.574C167.047 213.756 164.994 213.052 163.704 213.478C162.229 213.935 160.825 214.212 160.346 216.306C160.314 216.605 160.102 217.144 159.992 217.204C155.547 217.53 153.972 224.381 148.517 224.204Z" fill="#91BAE2"/>
<path d="M118.297 172.253C124.346 182.106 124.067 194.655 130.968 202.56C125.84 203.965 117.534 184.716 118.297 172.253Z" fill="#91BAE2"/>
<path d="M21.4709 161.421C18.9443 157.314 22.5027 153.319 23.2094 149.551C24.0536 145.214 26.1958 140.869 26.4775 136.207C26.5402 135.609 26.7484 134.861 27.1101 134.381C28.262 132.551 29.1616 129.17 31.2544 129.994C33.7956 130.994 31.287 133.639 30.6898 135.375C28.049 142.74 24.6255 149.901 23.7352 157.644C23.4803 159.826 22.6781 160.548 21.4709 161.421Z" fill="#91BAE2"/>
<path d="M134.172 162.628C136.862 173.337 137.821 184.714 141.357 195.029C135.683 189.267 134.599 181.058 134.069 172.756C133.895 169.471 131.903 166.197 134.282 162.568L134.172 162.628Z" fill="#91BAE2"/>
<path d="M224.745 211.05C222.767 214.318 220.53 215.616 217.206 214.412C213.732 213.148 209.635 216.1 206.106 213.881C203.891 212.49 201.593 210.651 198.486 211.088C197.747 211.212 197.141 210.558 197.455 209.541C197.663 208.793 198.328 208.639 198.886 208.755C200.078 209.017 201.345 209.308 202.47 209.959C206.558 212.294 211.148 211.819 215.852 211.492C218.778 211.295 221.944 210.051 224.713 211.349C224.784 211.169 224.745 211.05 224.745 211.05Z" fill="#91BAE2"/>
<path d="M117.405 189.646C110.762 189.417 112.333 182.357 110.915 178.063C108.982 172.01 109.224 165.257 110.539 158.408C111.491 169.366 112.037 180.477 117.405 189.646Z" fill="#91BAE2"/>
<path d="M134.317 162.478C131.647 152.814 133.311 142.886 136.273 132.949C135.053 142.845 135.352 152.613 134.207 162.538C134.171 162.628 134.317 162.478 134.317 162.478Z" fill="#91BAE2"/>
<path d="M86.1592 202.351C83.5052 205.145 81.4244 204.949 78.9926 201.916C77.2061 199.656 76.1864 196.764 73.3462 195.646C72.1503 195.175 72.8931 193.289 73.4276 192.15C74.1077 190.861 74.9025 191.693 75.5792 192.167C77.0467 193.264 78.6203 194.091 78.9986 196.419C79.409 200.42 81.2035 203.098 86.1592 202.351Z" fill="#91BAE2"/>
<path d="M126.969 171.933C130.023 176.455 129.293 182.913 132.197 187.377C132.693 188.091 133.048 189.164 132.061 189.917C131.038 190.759 130.062 190.168 129.563 189.245C126.721 184.183 125.425 178.484 126.969 171.933Z" fill="#91BAE2"/>
<path d="M100.628 206.387C101.604 208.95 103.425 209.148 105.494 208.718C107.823 208.286 109.475 209.351 109.488 211.95C109.622 215.116 106.676 214.267 105.323 215.291C103.64 216.496 101.897 214.565 102.302 212.441C102.84 209.54 97.6362 210.916 100.628 206.387Z" fill="#91BAE2"/>
<path d="M141.015 208.176C135.936 204.413 133.188 198.454 130.696 192.285C131.097 191.924 131.388 191.623 131.789 191.263C135.119 196.62 138.558 201.917 141.888 207.275C141.636 207.695 141.345 207.995 141.015 208.176Z" fill="#91BAE2"/>
<path d="M87.4818 157.112C85.2723 148.252 89.5234 133.947 96.0233 128.62C90.3308 137.377 86.912 146.719 87.4818 157.112Z" fill="#91BAE2"/>
<path d="M47.4799 167.719C45.5072 161.546 45.0488 155.036 46.5137 148.246C47.8216 154.572 47.9457 161.054 47.4799 167.719Z" fill="#91BAE2"/>
<path d="M125.967 162.199C123.73 155.819 125.313 149.387 127.486 142.771C127.091 149.256 127.585 155.677 125.967 162.199Z" fill="#91BAE2"/>
<path d="M129.046 111.841C129.496 106.312 131.273 102.238 134.883 98.99C135.539 98.4184 136.121 97.8174 136.762 98.3812C137.557 99.2129 136.936 99.6947 136.213 100.655C135.092 102.185 134.09 104.073 133.791 105.928C133.218 108.918 131.574 110.243 129.046 111.841Z" fill="#91BAE2"/>
<path d="M119.033 150.649C118.96 156.535 118.998 162.36 118.91 169.382C116.406 164.557 116.393 159.986 119.033 150.649Z" fill="#91BAE2"/>
<path d="M75.7345 184.757C81.493 185.26 81.13 193.418 85.764 195.243C80.0408 194.65 79.3188 187.932 75.7345 184.757Z" fill="#91BAE2"/>
<path d="M139.205 88.4482C139.316 88.3878 139.854 87.4585 140.078 87.5467C140.712 87.6923 141.498 88.1058 141.66 88.792C142.136 90.4323 142.609 91.8634 144.536 91.7921C145.24 91.758 146.322 92.0802 146.016 93.516C145.776 94.5631 145.009 95.1951 144.124 95.4692C143.129 95.8038 141.58 96.2314 141.666 94.9163C141.724 92.1376 137.574 92.3716 139.205 88.4482Z" fill="#91BAE2"/>
<path d="M169.542 202.598C165.731 203.069 164.479 199.671 162.688 197.202C161.543 195.506 160.618 193.689 159.107 192.264C158.466 191.7 157.258 190.602 158.351 189.58C159.661 188.227 160.361 189.956 160.896 190.789C162.388 193.14 163.624 195.702 165.041 198.024C166.3 199.869 167.123 202.164 169.542 202.598Z" fill="#91BAE2"/>
<path d="M42.3453 188.214C40.083 186.285 38.5407 185.159 36.6762 184.633C35.8934 184.428 35.0632 183.686 35.4876 182.608C35.7312 181.77 36.494 180.929 37.1507 180.358C37.9922 179.755 38.9639 180.138 39.3142 181.002C40.133 183.088 41.8641 184.393 42.3453 188.214Z" fill="#91BAE2"/>
<path d="M117.405 189.646C116.386 190.697 116.741 191.771 117.24 192.694C118.744 195.672 119.952 198.742 120.438 202.773C117.569 200.191 116.164 196.524 115.054 192.767C114.42 190.65 116.457 190.518 117.405 189.646Z" fill="#91BAE2"/>
<path d="M87.6211 162.459C90.2691 165.161 89.527 169.02 91.3529 171.399C91.7699 171.874 91.4516 172.683 90.8657 173.075C90.1343 173.617 89.4969 173.262 89.0759 172.578C87.4662 169.869 87.4022 166.523 87.6211 162.459Z" fill="#91BAE2"/>
<path d="M154.643 193.516C152.165 193.889 151.598 191.383 150.135 190.495C148.935 189.815 149.237 188.171 150.405 187.178C151.537 186.275 152.949 186.416 153.127 187.938C153.423 189.818 154.965 190.944 154.643 193.516Z" fill="#91BAE2"/>
<path d="M82.1309 164.344C83.8159 169.054 85.3828 173.407 86.9891 177.878C84.5413 174.009 82.4985 169.988 82.1309 164.344Z" fill="#91BAE2"/>
<path d="M204.332 179.356C207.798 182.173 208.523 187.128 210.857 190.848C206.879 188.452 205.132 184.34 204.477 179.205L204.332 179.356Z" fill="#91BAE2"/>
<path d="M198.149 181.902C195.021 177.35 194.873 171.585 194.541 165.851C196.749 170.767 197.597 176.289 197.964 181.933L198.149 181.902Z" fill="#91BAE2"/>
<path d="M104.856 185.12C109.898 185.03 109.868 189.273 110.247 193.573C106.876 191.83 106.615 187.888 104.856 185.12Z" fill="#91BAE2"/>
<path d="M98.6251 196.779C97.4646 196.218 95.5647 195.782 96.5277 193.774C97.6321 191.408 99.2337 193.698 100.642 193.63C102.011 193.443 102.231 195.294 101.736 196.551C100.707 198.947 99.5928 196.953 98.6251 196.779Z" fill="#91BAE2"/>
<path d="M198.039 181.963C200.074 185.566 202.914 188.656 203.156 193.524C202.183 189.198 196.963 187.765 198.224 181.932C198.149 181.902 198.039 181.963 198.039 181.963Z" fill="#91BAE2"/>
<path d="M39.7648 163.851C38.2125 168.013 43.2202 169.985 41.2629 174.298C41.305 170.683 36.0416 168.922 39.8041 163.97L39.7648 163.851Z" fill="#91BAE2"/>
<path d="M305.911 183.792L318.247 171.572L330.222 171.153L343.575 155.265C355.68 173.209 386.861 168.853 386.861 168.853C398.435 151.752 422.744 154.373 422.744 154.373C453.879 165.473 458.078 129.427 458.078 129.427L439.91 111.574C418.585 108.896 412.056 73.6489 412.056 73.6489C383.594 34.7698 350.905 76.8951 350.905 76.8951C342.971 67.8645 333.642 65.5922 333.642 65.5922C303.138 41.01 273.962 61.2775 273.962 61.2775C273.962 61.2775 273.632 53.5224 250.382 43.3511C227.132 33.1797 220.957 46.2534 220.957 46.2534C220.957 46.2534 217.98 37.502 194.215 37.0494C170.45 36.5968 167.148 47.3368 157.636 48.1992C148.124 49.0617 142.953 54.3686 142.953 54.3686C123.16 75.2814 138.908 110.523 138.908 110.523C122.109 151.663 157.832 161.014 157.832 161.014L160.172 156.923C170.782 178.838 206.806 164.185 206.806 164.185C206.806 164.185 204.921 168.069 215.532 173.801C215.532 173.801 234.813 185.244 247.631 180.095C260.47 174.848 306.245 198.923 305.911 183.792Z" fill="white"/>
<path d="M360.095 135.266C354.342 127.948 351.138 119.76 348.974 110.575C346.626 100.836 347.542 91.6157 349.229 82.1566C349.272 81.9613 349.315 81.766 349.239 81.6468C346.263 73.8173 352.28 69.3125 356.052 64.3101C360.246 58.7867 367.209 57.8716 373.26 55.5252C379.094 53.2332 384.812 55.6269 390.56 54.6474C391.406 54.5276 392.23 54.5054 393 55.1883C398.427 60.283 405.533 62.882 411.1 67.8031C413.162 69.5916 414.497 71.4239 415.247 74.0483C416.682 79.59 417.781 85.2621 420.029 90.3695C422.896 96.8432 428.734 101.005 434.886 104.212C437.468 105.501 439.812 106.942 441.613 108.98C447.127 115.529 453.4 121.425 459.553 127.398C461.149 128.981 463.503 130.834 460.49 133.342C460.11 133.667 459.785 134.21 459.699 134.6C458.371 145.675 456.541 151.62 447.217 157.646C442.804 160.457 435.723 163.292 429.43 160.259C426.186 158.721 422.336 158.994 419.341 156.794C419.265 156.675 418.95 156.708 418.853 156.686C409.428 158.08 399.851 159.235 392.316 165.964L392.392 166.084C391.457 161.984 387.465 160.587 383.894 156.826C388.223 158.092 391.791 157.244 394.341 160.063C395.242 161.082 396.424 160.831 397.031 159.942C398.158 158.553 396.575 158.304 395.761 157.817C388.979 152.831 381.363 149.3 375.393 142.958C368.946 135.998 364.245 128.094 360.813 119.549C359.412 116.165 358.271 112.532 357.347 108.845C354.705 98.1195 355.371 87.7172 358.586 77.3678C359.03 75.8273 360.103 74.2214 358.139 73.3765C355.98 72.4884 355.005 74.1159 354.323 75.8084C347.803 92.288 348.214 108.46 356.26 124.378C358.052 127.848 360.516 131.057 359.857 135.418L360.095 135.266ZM405.223 109.11C403.501 112.723 404.663 115.336 407.755 117.558C410.674 119.639 413.55 121.915 416.306 124.267C424.348 130.966 437.235 133.822 448.535 130.897C442.678 130.521 437.32 131.587 434.053 126.459C433.673 125.862 432.599 125.624 432.404 126.503C431.257 131.677 428.348 128.165 426.58 127.363C423.39 126.042 420.125 124.601 417.444 122.368C412.756 118.564 407.19 115.487 405.223 109.11C400.035 102.941 399.149 89.8394 404.112 82.2331C403.511 92.3424 406.26 100.736 412.48 109.182C412.674 107.381 412.858 107.012 412.804 106.795C408.08 98.0667 405.559 89.1089 409.761 79.388C409.989 78.8238 409.793 77.8586 409.468 77.4792C407.231 74.6278 406.242 71.2334 405.156 67.8174C404.493 65.7244 392.135 60.0155 389.999 60.8736C386.16 62.4811 381.637 62.0933 378.513 61.4009C371.484 59.8431 368.124 64.8345 363.386 67.2669C361.998 67.9836 360.578 70.2296 360.405 71.9326C359.046 84.5371 356.765 97.1421 360.547 109.657C363.361 118.679 366.414 127.55 373.252 134.596C379.112 140.504 383.217 147.867 391.354 151.821C395.14 153.684 397.918 155.017 403.221 153.734C387.717 146.508 376.93 136.026 370.674 121.734C364.57 107.68 361.285 92.9201 366.797 77.7535C366.975 84.3481 364.723 90.8139 366.191 97.5921C367.496 103.72 368.053 109.989 370.833 115.931C374.612 123.836 379.627 130.786 385.076 137.627C389.798 143.589 397.446 145.591 402.07 151.533C402.548 152.151 403.47 152.15 403.816 151.51C404.022 151.043 403.891 149.785 403.522 149.601C400.745 148.269 399.788 145.189 397.553 143.259C387.298 134.534 377.899 125.179 375.483 111.123C374.308 104.41 371.582 97.7625 372.586 90.9178C373.202 86.7524 372.017 82.3928 373.967 77.2938C375.814 82.8244 374.374 87.012 374.463 91.2312C374.723 109.009 382.574 123.961 394.599 136.254C398.614 140.319 402.469 147.422 410.678 145.041C410.766 146.495 411.385 147.861 412.709 148.359C416.875 149.897 421.16 151.359 425.467 152.723C426.909 153.145 428.341 153.155 430 151.679C422.97 150.121 417.598 145.244 410.537 145.215C410.2 143.502 408.346 144.012 407.347 142.972C398.871 133.616 388.931 125.78 384.194 112.951C380.924 104.135 379.466 95.9249 380.437 86.9217C380.771 84.0255 379.837 80.848 382.243 78.3085C381.815 87.6368 382.254 96.7476 384.418 105.933C386.821 115.889 393.994 122.805 399.021 131.089C399.477 131.804 400.649 132.064 401.407 131.413C402.286 130.686 401.873 129.775 401.178 129.211C397.131 125.753 396 120.689 393.817 116.21C388.17 104.716 386.492 91.029 390.075 79.9418C389.029 89.7476 390.39 97.936 392.672 106.124C395.063 114.745 400.187 121.207 406.514 127.321C409.303 129.987 410.693 132.958 415.358 134.095C419.827 135.187 424.113 138.493 428.897 138.631C435.112 138.78 441.534 141.227 448.745 137.806C408.397 139.62 389.32 105.996 396.903 89.3417C394.856 94.4191 399.056 98.1153 399.178 102.649C399.289 106.771 401.687 108.429 405.223 109.11ZM411.926 90.4176C411.333 95.4074 415.911 96.9341 415.284 100.687C414.841 103.15 416.49 104.949 418.444 106.304C420.592 107.702 422.155 109.892 424.065 111.442C428.438 115.279 433.809 117.391 440.12 115.717C425.368 113.882 420.241 100.966 411.926 90.4176ZM428.304 144.543C418.811 141.62 411.932 136.613 403.555 131.889C409.31 141.973 417.912 143.367 428.304 144.543ZM422.789 117.202C427.49 125.107 446.538 127.894 453.269 121.089C442.099 123.428 432.132 125.418 422.789 117.202ZM444.823 145.336C440.398 145.892 435.776 142.717 431.114 146.19C436.18 147.825 440.584 147.367 444.823 145.336Z" fill="#91BAE2"/>
<path d="M326.701 159.31C318.511 157.905 308.874 147.78 307.589 139.711C307.154 137.054 305.634 134.668 304.786 132.022C301.831 123.173 301.272 114.139 302.872 105.07C303.716 100.34 304.895 95.4804 306.443 90.8046C305.333 101.825 304.775 112.661 308.024 123.419C311.159 105.575 310.769 86.5394 327.074 73.9696C327.15 74.0889 327.476 74.4684 327.378 74.4467C320.842 81.2947 318.266 90.1469 314.756 98.5876C313.186 102.439 312.548 106.702 312.995 110.693C313.89 119.598 313.18 129.273 318.748 136.96C322.754 142.457 324.744 150.58 333.823 151.67C323.319 143.607 318.16 132.221 316.862 120.052C315.456 107.449 320.829 96.1436 329.848 86.8754C324.876 97.7574 322.225 109.256 322.058 121.101C322.018 125.906 323.582 130.862 327.143 135.133C328.106 131.25 325.577 128.333 325.195 124.971C324.672 120.861 324.279 117.086 325.503 112.953C326.282 110.36 326.606 107.974 328.992 106.454C330.661 105.39 331.116 103.34 332.091 101.712C332.882 100.453 332.523 97.9156 334.497 98.2507C336.883 98.5747 336.223 101.091 336.094 102.599C334.9 120.464 341.688 135.591 352.369 149.327C352.695 149.707 352.782 150.238 352.966 150.791C348.41 149.167 342.558 139.983 341.07 135.147C339.505 130.191 337.246 125.593 335.8 120.561C334.909 117.188 335.07 114.151 335.057 110.973C335.078 109.032 334.545 107.275 332.571 106.94C330.282 106.638 329.568 108.937 329.536 110.467C329.182 117.148 329.457 123.765 331.478 130.358C333.663 137.602 337.419 143.761 341.349 150.061C343.076 152.901 344.964 155.471 348.089 157.085C349.662 157.844 350.965 160.283 349.925 161.282C347.843 163.279 347.484 160.741 346.67 159.331C345.53 157.542 344.25 157.771 343.112 159.67C340.468 164.205 335.491 166.789 332.826 171.422C331.2 174.135 328.521 174.668 325.603 172.587C323.747 171.254 323.128 169.888 325.155 168.596C326.467 167.76 325.055 163.042 329.232 165.914C331.533 167.551 332.962 162.951 335.902 164.012C333.026 161.736 328.894 162.357 326.744 159.115C328.664 158.311 330.4 159.72 332.222 159.817C333.34 159.86 334.956 160.423 335.205 158.839C335.486 157.57 333.978 157.44 333.045 157.029C329.779 155.588 326.774 153.898 323.985 151.231C317.907 145.378 313.576 138.579 310.816 130.696C310.501 129.806 310.196 128.407 308.852 128.929C307.605 129.472 308.05 130.697 308.582 131.532C313.001 138.862 314.221 148.146 322.294 153.315C324.345 154.691 325.29 157.359 326.701 159.31Z" fill="#91BAE2"/>
<path d="M194.14 36.9301C193.307 40.2279 190.324 39.362 188.567 38.9725C182.633 37.5551 178.089 40.0307 173.492 43.2114C169.513 45.9145 165.48 48.4007 161.349 50.8653C160.514 51.3973 159.408 51.7667 158.388 51.7456C150.34 51.0886 144.68 54.4435 140.812 62.1902C138.97 65.8791 136.836 69.5031 138.932 74.3719C142.792 71.7448 143.906 67.1778 147.126 64.204C145.09 69.6935 141.654 74.5656 141.137 80.5965C141.127 81.1063 140.303 82.0505 139.912 81.9639C135.28 81.1423 137.484 84.601 137.453 86.1304C137.486 88.2889 138.074 91.1845 140.72 91.2589C143.15 91.3877 142.877 88.4593 143.245 86.7995C143.818 83.7513 145.607 81.6894 148.826 78.7156C147.018 83.641 146.565 87.5352 146.404 91.4942C146.34 92.7091 145.321 94.5319 143.889 94.5219C140.082 94.6 137 91.8685 132.944 91.6865C131.729 91.6221 129.84 88.1306 130.207 85.5489C130.714 81.8717 127.849 79.0858 128.715 75.1805C131.463 62.7813 138.844 53.9697 148.895 46.9786C150.228 46.0451 152.115 45.8487 153.775 45.2946C154.978 44.9468 156.562 45.1954 157.223 44.5225C164.356 36.3726 174.737 38.0586 183.803 35.9708C186.937 35.2314 190.615 36.661 194 37.1037L194.14 36.9301Z" fill="#91BAE2"/>
<path d="M240.652 153.351C239.783 150.803 238.014 149.079 235.518 147.4C234.197 150.589 233.31 154.592 229.012 150.874C228.589 150.473 227.916 149.812 228.024 149.324C228.672 144.551 228.118 142.892 224.037 138.198C216.027 129.048 214.394 118.853 217.11 107.061C218.17 102.277 219.144 97.8838 221.972 93.9015C226.297 87.7924 231.75 83.9821 239.495 84.162C242.141 84.2364 244.203 85.1029 246.059 88.2798C228.88 90.9256 222.021 102.926 222.431 118.176C222.686 126.734 223.212 137.298 234.43 141.218C235.698 138.733 232.367 136.663 234.307 133.918C238.464 138.731 237.947 145.684 242.028 150.379C243.102 151.539 240.988 152.299 240.652 153.351Z" fill="#91BAE2"/>
<path d="M252.53 80.8028C252.627 79.9024 252.518 78.5467 253.44 78.5461C260.349 78.336 260.584 71.7304 263.369 67.9433C266.642 63.3425 270.263 59.9454 275.522 57.9357C281.237 55.7197 287.05 53.5253 292.732 50.9948C296.473 49.3656 301.083 49.3629 305.931 50.1302C313.948 51.3946 319.852 58.0292 328.356 57.5579C330.948 57.4154 332.424 59.996 334.497 61.2747C336.721 62.7919 334.434 64.3334 333.642 65.5921C332.245 67.7405 330.563 66.5484 329.293 65.3451C316.715 53.2369 301.659 52.7684 286.716 58.2655C273.714 62.8611 263.382 71.1213 259.518 85.3217C258.923 87.5456 258.437 91.1252 256.083 91.1157C253.024 91.0524 253.141 87.2886 252.446 84.8811C252.098 83.6773 252.52 82.2345 252.53 80.8028Z" fill="#91BAE2"/>
<path d="M194.215 37.0495C201.786 37.0885 209.216 36.3791 216.647 39.3576C219.37 40.4732 223.513 38.4208 226.885 37.5294C234.694 35.5725 241.778 37.3472 248.689 40.8249C249.622 41.2365 251.282 41.6043 250.382 43.3512C249.689 44.6315 248.528 44.784 247.227 44.1882C238.308 40.0608 230.457 42.213 223.269 48.3021C220.114 50.9831 218.052 48.2726 216.608 46.0065C213.231 40.4442 207.504 40.4042 202.189 39.4311C199.39 39.1182 196.321 39.5647 194.215 37.0495Z" fill="#91BAE2"/>
<path d="M297.718 83.9545C299.791 86.1551 298.61 88.2492 298.102 90.0826C294.443 102.894 296.088 115.345 299.436 127.969C301.121 134.693 303.403 141.036 305.977 147.445C306.39 148.356 306.607 149.224 305.675 149.734C304.623 150.32 304.037 149.269 303.678 148.575C300.247 142.795 296.275 137.613 294.991 130.466C293.706 123.319 293.54 116.214 293.47 109.132C293.314 100.596 295.37 92.2426 297.718 83.9545Z" fill="#91BAE2"/>
<path d="M280.244 81.9257C280.811 85.841 278.025 88.7061 278.016 91.9817C278.022 102.123 277.42 112.233 280.43 122.22C281.18 124.845 281.594 127.6 282.008 130.354C283.532 140.115 288.092 148.193 295.19 154.99C297.306 156.995 297.807 160.282 300.661 161.733C301.398 162.102 301.432 163.338 300.673 163.989C299.437 164.945 298.634 163.947 298.221 163.036C297.145 160.033 294.931 158.006 292.349 156.716C288.096 154.647 287.128 150.233 285.629 146.828C278.255 130.649 273.798 113.786 276.901 95.6268C277.701 91.0925 275.941 86.0933 280.244 81.9257Z" fill="#91BAE2"/>
<path d="M156.736 139.159C150.689 129.932 149.566 119.748 150.319 108.955C150.62 104.822 147.604 102.72 143.407 103.633C141.791 103.992 136.441 99.0168 136.635 97.2162C136.732 96.3158 137.383 96.1528 138.131 96.0113C139.432 95.6852 139.531 96.6288 139.65 97.4747C140.543 102.691 144.739 99.9339 147.396 100.42C150.759 100.961 150.313 97.8915 150.398 95.6571C150.602 91.5027 153.507 88.5616 155.62 85.0353C155.512 86.4454 155.969 88.083 155.319 89.168C151.028 96.5136 152.16 104.344 152.49 112.099C152.886 120.483 154.246 128.672 157.32 136.523C157.711 137.531 158.319 138.485 156.682 138.942L156.736 139.159Z" fill="#91BAE2"/>
<path d="M287.308 89.3296C288.894 92.344 287.181 94.5252 287.074 96.8572C286.289 108.257 287.001 119.375 291.031 130.306C292.834 135.11 293.51 140.381 296.777 144.587C297.179 145.086 297.396 145.953 296.485 146.366C295.791 146.724 295.249 146.399 294.652 145.857C291.299 142.963 289.181 139.114 287.91 135.145C284.759 125.331 283.95 115.114 284.107 104.701C284.277 99.3102 285.511 94.6672 287.308 89.3296Z" fill="#91BAE2"/>
<path d="M302.868 188.751C306.271 184.486 306.757 179.985 310.877 177.108C313.403 175.414 311.393 170.155 315.666 168.439C316.24 168.156 313.614 166.14 312.139 165.404C309.188 163.93 306.291 162.674 305.605 158.834C309.069 164.006 315.706 163.634 320.036 167.666C322.001 169.433 322.49 171.385 322.665 173.37C322.872 175.669 320.214 175.183 318.75 175.78C317.07 176.432 315.432 176.888 315.347 179.123C315.379 179.437 315.25 180.023 315.13 180.099C309.816 180.97 309.527 188.281 302.868 188.751Z" fill="#91BAE2"/>
<path d="M253.908 138.365C263.578 147.882 266.21 160.961 276.454 168.353C270.565 170.428 255.933 151.412 253.908 138.365Z" fill="#91BAE2"/>
<path d="M133.893 138.706C129.856 134.738 133.227 130.159 133.192 126.157C133.189 121.547 134.759 116.773 133.997 111.893C133.931 111.264 134.007 110.461 134.332 109.919C135.296 107.879 135.587 104.256 138.321 104.862C141.64 105.597 139.223 108.647 138.91 110.523C137.45 118.496 134.992 126.351 135.746 134.507C135.953 136.806 135.151 137.653 133.893 138.706Z" fill="#91BAE2"/>
<path d="M270.887 126.456C276.685 137.267 280.543 148.979 287.274 159.279C279.027 153.969 275.768 145.565 273.16 136.998C272.171 133.603 268.98 130.438 271.006 126.38L270.887 126.456Z" fill="#91BAE2"/>
<path d="M392.218 165.943C390.593 169.577 388.186 171.195 383.869 170.34C379.356 169.443 375.085 173.003 370.279 171.118C367.263 169.938 364.04 168.302 360.375 169.128C359.507 169.346 358.617 168.739 358.758 167.643C358.833 166.841 359.603 166.602 360.308 166.655C361.816 166.785 363.421 166.936 364.94 167.477C370.451 169.415 375.906 168.371 381.535 167.467C385.038 166.912 388.584 165.24 392.251 166.257C392.294 166.062 392.218 165.943 392.218 165.943Z" fill="#91BAE2"/>
<path d="M256.945 156.552C248.832 157.11 249.066 149.583 246.33 145.289C242.552 139.228 241.247 132.179 241.221 124.901C244.969 136.179 248.263 147.663 256.945 156.552Z" fill="#91BAE2"/>
<path d="M271.029 126.282C265.503 116.556 265.171 106.035 266.412 95.3508C267.275 105.785 269.949 115.903 270.91 126.358C270.888 126.456 271.029 126.282 271.029 126.282Z" fill="#91BAE2"/>
<path d="M222.051 173.504C219.493 176.727 216.923 176.772 213.255 173.911C210.553 171.775 208.631 168.891 204.921 168.069C203.359 167.723 203.813 165.673 204.192 164.425C204.712 163.004 205.873 163.773 206.806 164.185C208.846 165.149 210.951 165.82 211.961 168.195C213.406 172.305 216.216 174.874 222.051 173.504Z" fill="#91BAE2"/>
<path d="M264.354 136.992C269.129 141.328 269.772 148.128 274.352 152.421C275.123 153.104 275.807 154.177 274.788 155.078C273.747 156.076 272.423 155.578 271.598 154.678C266.953 149.757 264.032 143.988 264.354 136.992Z" fill="#91BAE2"/>
<path d="M240.557 175.966C242.349 178.514 244.605 178.502 247.012 177.807C249.734 177.078 251.991 177.988 252.621 180.689C253.534 183.964 249.76 183.434 248.361 184.661C246.605 186.115 244.033 184.316 244.021 182.06C243.987 178.98 238.001 181.033 240.557 175.966Z" fill="#91BAE2"/>
<path d="M289.972 172.987C282.92 169.683 278.176 163.818 273.693 157.703C274.094 157.28 274.376 156.933 274.777 156.51C280.084 161.68 285.51 166.775 290.817 171.946C290.611 172.412 290.33 172.759 289.972 172.987Z" fill="#91BAE2"/>
<path d="M212.945 126.316C208.167 117.371 209.937 101.989 216.561 95.6726C211.729 105.459 209.793 115.58 212.945 126.316Z" fill="#91BAE2"/>
<path d="M166.932 142.136C163.078 135.955 160.981 129.243 161.15 122.008C164.235 128.427 165.92 135.151 166.932 142.136Z" fill="#91BAE2"/>
<path d="M260.834 126.993C256.611 120.629 257.008 113.752 258.078 106.614C259.134 113.404 261.253 120.019 260.834 126.993Z" fill="#91BAE2"/>
<path d="M252.646 74.2733C251.883 68.4708 253.074 64.023 256.683 60.2138C257.345 59.5409 257.908 58.8464 258.82 59.3557C259.981 60.1251 259.341 60.7004 258.691 61.7854C257.694 63.5106 256.925 65.5935 257.002 67.5567C257.015 70.7347 255.335 72.3085 252.646 74.2733Z" fill="#91BAE2"/>
<path d="M249.688 115.817C250.993 121.945 252.417 127.996 253.972 135.306C249.794 130.59 248.695 125.84 249.688 115.817Z" fill="#91BAE2"/>
<path d="M205.24 156.463C212.344 156.296 213.835 164.821 219.888 166.162C212.805 166.231 210.339 159.335 205.24 156.463Z" fill="#91BAE2"/>
<path d="M259.432 48.7366C259.551 48.6606 259.984 47.63 260.277 47.6949C261.08 47.7703 262.132 48.106 262.491 48.7999C263.457 50.448 264.369 51.8793 266.69 51.5742C267.536 51.4544 268.924 51.6597 268.893 53.1891C268.85 54.3063 268.069 55.0551 267.061 55.4462C265.933 55.9133 264.155 56.5434 263.948 55.166C263.36 52.2703 258.382 53.0108 259.432 48.7366Z" fill="#91BAE2"/>
<path d="M323.255 163.77C318.744 164.716 316.421 161.334 313.664 158.981C311.874 157.356 310.322 155.578 308.151 154.277C307.24 153.768 305.515 152.771 306.599 151.577C307.867 150.015 309.126 151.728 309.973 152.53C312.339 154.796 314.444 157.311 316.712 159.555C318.677 161.321 320.218 163.609 323.255 163.77Z" fill="#91BAE2"/>
<path d="M165.557 164.057C162.356 162.324 160.218 161.338 157.832 161.014C156.834 160.895 155.651 160.223 155.911 159.052C156.008 158.151 156.734 157.186 157.396 156.513C158.274 155.786 159.543 156.067 160.172 156.923C161.66 158.994 164.068 160.143 165.557 164.057Z" fill="#91BAE2"/>
<path d="M256.946 156.552C255.96 157.768 256.644 158.841 257.469 159.741C259.997 162.657 262.19 165.704 263.733 169.835C259.642 167.495 257.07 163.852 254.833 160.079C253.563 157.954 256.003 157.573 256.946 156.552Z" fill="#91BAE2"/>
<path d="M214.381 131.858C218.233 134.35 218.246 138.45 221.024 140.705C221.643 141.149 221.448 142.028 220.83 142.505C220.071 143.157 219.214 142.864 218.541 142.203C215.947 139.58 215.078 136.109 214.381 131.858Z" fill="#91BAE2"/>
<path d="M303.032 156.114C300.115 156.799 298.833 154.261 296.848 153.514C295.232 152.951 295.209 151.205 296.391 150.032C297.55 148.958 299.297 148.935 299.873 150.497C300.676 152.416 302.814 153.402 303.032 156.114Z" fill="#91BAE2"/>
<path d="M208.166 134.476C211.325 139.17 214.256 143.507 217.263 147.963C213.378 144.234 209.948 140.299 208.166 134.476Z" fill="#91BAE2"/>
<path d="M359.953 135.439C364.824 137.953 366.877 143.017 370.589 146.605C365.197 144.591 362.103 140.525 360.094 135.266L359.953 135.439Z" fill="#91BAE2"/>
<path d="M353.058 138.827C348.185 134.47 346.641 128.494 344.881 122.573C348.723 127.419 351.059 133.058 352.841 138.882L353.058 138.827Z" fill="#91BAE2"/>
<path d="M240.652 153.351C246.748 152.654 247.716 157.068 249.193 161.492C244.691 160.085 243.442 156.018 240.652 153.351Z" fill="#91BAE2"/>
<path d="M235.854 166.218C234.314 165.774 231.906 165.548 232.599 163.346C233.378 160.753 235.863 162.943 237.555 162.703C239.171 162.344 239.877 164.242 239.574 165.609C238.892 168.223 237.069 166.283 235.854 166.218Z" fill="#91BAE2"/>
<path d="M352.937 138.904C356.258 142.405 360.436 145.277 361.882 150.309C359.677 145.928 353.006 145.064 353.154 138.849C353.057 138.828 352.937 138.904 352.937 138.904Z" fill="#91BAE2"/>
<path d="M156.66 139.039C155.763 143.552 162.304 145.002 160.951 149.721C160.146 145.958 153.344 144.758 156.736 139.159L156.66 139.039Z" fill="#91BAE2"/>
<path d="M248.462 154.672L254.964 163.728L262.5 165.275L269.254 176.761C278.836 166.696 298.11 172.79 298.11 172.79C303.608 184.855 319.277 185.796 319.277 185.796C340.176 182.1 338.977 205.368 338.977 205.368L325.566 214.727C311.779 214.141 303.875 235.756 303.875 235.756C281.697 257.324 265.51 227.159 265.51 227.159C259.521 232.027 253.372 232.468 253.372 232.468C231.431 244.766 215.128 228.814 215.128 228.814C215.128 228.814 214.09 233.688 198.283 237.64C182.476 241.592 179.965 232.655 179.965 232.655C179.965 232.655 177.144 237.876 162.051 235.62C146.958 233.364 146.016 226.212 140.087 224.648C134.158 223.085 131.452 219.172 131.452 219.172C121.159 203.815 134.899 183.189 134.899 183.189C128.665 155.348 152.281 153.25 152.281 153.25L153.325 156.09C162.386 143.352 183.624 156.482 183.624 156.482C183.624 156.482 182.846 153.821 190.177 151.328C190.177 151.328 203.607 146.147 211.171 150.778C218.737 155.473 250.292 145.129 248.462 154.672Z" fill="white"/>
<path d="M277.572 191.19C273.147 195.207 270.242 200.047 267.89 205.631C265.361 211.545 264.955 217.48 265.011 223.649C265.017 223.777 265.024 223.905 264.963 223.973C262.241 228.611 265.568 232.106 267.421 235.677C269.485 239.622 273.795 240.946 277.375 243.079C280.823 245.154 284.699 244.251 288.233 245.486C288.756 245.652 289.275 245.754 289.836 245.404C293.816 242.76 298.593 241.874 302.644 239.355C304.14 238.443 305.181 237.426 305.937 235.845C307.438 232.49 308.741 229.017 310.71 226.024C313.218 222.232 317.359 220.222 321.597 218.85C323.37 218.31 325.007 217.649 326.366 216.551C330.557 212.996 335.159 209.934 339.694 206.811C340.873 205.98 342.562 205.058 340.922 203.148C340.717 202.902 340.569 202.523 340.556 202.267C340.901 195.114 340.378 191.154 335.12 186.342C332.627 184.09 328.448 181.538 324.139 182.785C321.921 183.412 319.513 182.827 317.381 183.899C317.32 183.966 317.125 183.912 317.061 183.915C311.243 182.025 305.304 180.269 301.254 175.203L301.315 175.135C300.285 177.63 297.608 178.087 294.945 180.087C297.82 179.748 299.989 180.667 301.905 179.155C302.584 178.607 303.306 178.891 303.595 179.52C304.16 180.52 303.131 180.507 302.563 180.729C297.736 183.16 292.537 184.581 288.079 187.957C283.254 191.673 279.432 196.174 276.345 201.216C275.096 203.208 273.985 205.386 273.005 207.622C270.185 214.129 269.494 220.786 270.422 227.681C270.538 228.704 271.046 229.836 269.712 230.16C268.251 230.492 267.807 229.357 267.556 228.213C265.192 217.082 267.182 206.888 273.979 197.672C275.485 195.667 277.388 193.899 277.437 191.068L277.572 191.19ZM303.343 212.576C302.639 210.104 303.654 208.574 305.849 207.499C307.92 206.494 309.984 205.36 311.981 204.166C317.788 200.786 326.252 200.357 333.093 203.417C329.345 203.028 326.067 201.78 323.45 204.677C323.145 205.014 322.44 205.05 322.411 204.473C322.238 201.074 320.021 202.987 318.816 203.305C316.655 203.801 314.433 204.363 312.498 205.49C309.123 207.397 305.27 208.749 303.343 212.576C299.398 215.926 297.435 224.126 299.764 229.472C300.464 223.008 303.103 217.988 307.944 213.307C307.874 214.468 307.951 214.721 307.894 214.852C303.97 219.873 301.415 225.274 303.036 231.878C303.119 232.259 302.892 232.849 302.645 233.054C300.925 234.62 299.936 236.663 298.882 238.71C298.239 239.964 289.805 242.256 288.544 241.484C286.286 240.056 283.381 239.817 281.329 239.921C276.712 240.156 275.119 236.636 272.38 234.589C271.578 233.987 270.919 232.413 270.992 231.317C271.48 223.192 271.385 214.968 275.118 207.45C277.865 202.039 280.747 196.75 285.829 193.021C290.171 189.908 293.557 185.686 299.132 184.053C301.728 183.279 303.629 182.732 306.849 184.112C296.261 187.027 288.31 192.509 282.821 200.888C277.453 209.132 273.795 218.125 275.662 228.316C276.48 224.16 275.745 219.826 277.4 215.692C278.882 211.952 279.905 208.043 282.301 204.579C285.539 199.979 289.458 196.115 293.639 192.368C297.266 189.098 302.322 188.649 305.885 185.382C306.253 185.042 306.837 185.141 306.988 185.583C307.068 185.901 306.851 186.683 306.598 186.76C304.697 187.307 303.762 189.154 302.14 190.136C294.715 194.563 287.764 199.48 284.731 208.12C283.268 212.244 280.831 216.16 280.735 220.601C280.679 223.304 279.463 225.937 280.151 229.374C281.912 226.07 281.449 223.265 281.956 220.604C284.023 209.377 290.593 200.751 299.52 194.255C302.498 192.111 305.698 188.027 310.64 190.412C310.851 189.502 311.389 188.703 312.28 188.529C315.082 188.001 317.951 187.534 320.824 187.132C321.783 187.019 322.69 187.166 323.582 188.278C318.965 188.512 315.043 191.025 310.569 190.288C310.173 191.336 309.053 190.814 308.31 191.366C301.943 196.382 294.812 200.28 290.441 207.894C287.427 213.126 285.626 218.167 285.277 223.971C285.179 225.84 284.248 227.752 285.499 229.617C286.226 223.666 287.479 217.945 289.831 212.361C292.418 206.316 297.699 202.705 301.768 197.998C302.133 197.594 302.902 197.555 303.313 198.049C303.791 198.603 303.432 199.135 302.932 199.418C300 201.174 298.742 204.259 296.881 206.861C292.077 213.533 289.55 222.018 290.632 229.421C291.019 223.101 292.756 218.063 295.077 213.124C297.514 207.921 301.448 204.379 306.108 201.185C308.159 199.796 309.357 198.063 312.431 197.843C315.378 197.63 318.445 195.995 321.488 196.42C325.438 196.991 329.766 196.128 333.965 199.065C308.616 193.601 292.942 212.846 295.961 224.2C295.208 220.767 298.262 218.877 298.824 216.019C299.335 213.422 301.031 212.629 303.343 212.576ZM305.586 225.127C305.744 221.904 308.806 221.428 308.811 218.984C308.793 217.378 310.03 216.415 311.412 215.767C312.921 215.112 314.145 213.892 315.52 213.115C318.699 211.154 322.325 210.392 326.142 212.127C316.606 211.71 311.979 219.338 305.586 225.127ZM321.745 192.614C315.423 193.449 310.532 195.882 304.724 197.977C309.445 192.209 315.04 192.247 321.745 192.614ZM315.328 209.332C319.15 204.831 331.507 205.104 335.041 210.133C328.219 207.457 322.122 205.13 315.328 209.332ZM332.288 193.879C329.546 193.054 326.28 194.569 323.7 191.872C327.082 191.379 329.821 192.14 332.288 193.879Z" fill="#91BAE2"/>
<path d="M259.003 172.395C253.668 172.408 246.484 177.787 244.807 182.758C244.247 184.394 243.03 185.741 242.21 187.326C239.393 192.611 238.072 198.271 238.115 204.184C238.143 207.268 238.37 210.471 238.85 213.597C239.326 206.501 240.132 199.581 243.34 193.118C243.415 204.751 241.132 216.759 250.109 226.461C250.17 226.394 250.417 226.189 250.353 226.192C246.948 221.157 246.264 215.278 244.945 209.559C244.363 206.952 244.415 204.185 245.125 201.707C246.644 196.165 247.23 189.964 251.578 185.693C254.702 182.642 256.83 177.713 262.695 177.994C255.182 181.975 250.698 188.631 248.575 196.196C246.336 204.024 248.528 211.756 253.246 218.588C251.262 211.167 250.815 203.604 251.976 196.088C252.465 193.041 253.985 190.071 256.696 187.748C256.89 190.31 254.977 191.885 254.376 193.973C253.605 196.519 252.953 198.867 253.285 201.614C253.501 203.339 253.451 204.884 254.798 206.102C255.742 206.954 255.81 208.301 256.253 209.435C256.619 210.317 256.12 211.885 257.406 211.884C258.951 211.934 258.803 210.27 258.882 209.302C260.038 197.864 265.953 189.014 274.185 181.461C274.432 181.256 274.544 180.929 274.72 180.598C271.661 181.139 266.974 186.327 265.514 189.229C263.994 192.199 262.072 194.868 260.618 197.899C259.693 199.939 259.47 201.879 259.122 203.89C258.927 205.121 258.402 206.176 257.117 206.177C255.635 206.124 255.429 204.591 255.573 203.62C256.063 199.352 256.945 195.193 258.93 191.235C261.088 186.882 264.125 183.386 267.287 179.818C268.684 178.204 270.155 176.78 272.305 176.092C273.382 175.78 274.468 174.375 273.916 173.632C272.812 172.145 272.313 173.713 271.647 174.518C270.734 175.529 269.948 175.247 269.431 173.923C268.243 170.769 265.368 168.601 264.176 165.383C263.438 163.491 261.799 162.867 259.728 163.872C258.411 164.518 257.873 165.317 259.018 166.351C259.759 167.021 258.36 169.856 261.312 168.485C262.944 167.695 263.356 170.76 265.331 170.403C263.267 171.536 260.717 170.701 259.01 172.523C260.139 173.237 261.389 172.531 262.553 172.665C263.265 172.758 264.348 172.574 264.336 173.603C264.378 174.437 263.41 174.357 262.775 174.518C260.554 175.081 258.47 175.829 256.419 177.219C251.946 180.275 248.476 184.115 245.886 188.811C245.591 189.34 245.249 190.193 244.453 189.719C243.722 189.242 244.135 188.514 244.561 188.042C248.142 183.875 249.908 178.128 255.572 175.719C257.017 175.067 257.901 173.48 259.003 172.395Z" fill="#91BAE2"/>
<path d="M161.99 235.688C161.815 233.511 159.834 233.74 158.68 233.799C154.771 234.061 152.16 232.008 149.59 229.502C147.36 227.365 145.073 225.36 142.721 223.358C142.25 222.932 141.589 222.579 140.941 222.484C135.776 222.039 132.551 219.309 130.932 213.991C130.16 211.459 129.197 208.936 131.045 206.078C133.207 208.154 133.424 211.165 135.144 213.392C134.443 209.699 132.789 206.247 133.107 202.374C133.155 202.05 132.734 201.364 132.478 201.377C129.457 201.401 131.223 199.448 131.366 198.476C131.619 197.113 132.3 195.343 133.984 195.579C135.536 195.757 135.05 197.582 135.105 198.672C135.141 200.663 136.053 202.16 137.773 204.387C137.155 201.075 137.285 198.562 137.607 196.038C137.696 195.262 137.246 193.999 136.339 193.852C133.937 193.396 131.694 194.795 129.106 194.476C128.33 194.387 126.761 196.395 126.717 198.069C126.645 200.451 124.533 201.908 124.663 204.473C125.076 212.617 128.806 218.985 134.421 224.486C135.165 225.22 136.339 225.546 137.33 226.074C138.055 226.423 139.084 226.435 139.431 226.932C143.074 232.854 149.827 232.898 155.343 235.189C157.248 235.993 159.729 235.481 161.919 235.563L161.99 235.688Z" fill="#91BAE2"/>
<path d="M203.891 166.962C203.068 168.482 201.763 169.384 200.004 170.18C199.509 168.02 199.375 165.391 196.257 167.285C195.946 167.493 195.449 167.84 195.466 168.16C195.365 171.251 194.837 172.242 191.751 174.778C185.701 179.713 183.577 185.992 184.034 193.748C184.194 196.89 184.34 199.775 185.705 202.599C187.789 206.929 190.834 209.925 195.756 210.639C197.439 210.875 198.837 210.547 200.352 208.735C189.759 205.222 186.701 196.891 188.592 187.281C189.669 181.89 191.133 175.259 198.654 173.977C199.19 175.686 196.86 176.64 197.794 178.585C200.941 175.983 201.358 171.526 204.444 168.991C205.248 168.371 203.991 167.664 203.891 166.962Z" fill="#91BAE2"/>
<path d="M203.65 214.16C203.615 214.741 203.401 215.587 203.985 215.686C208.336 216.558 207.778 220.765 209.136 223.461C210.716 226.724 212.645 229.262 215.759 231.097C219.14 233.111 222.585 235.122 225.911 237.332C228.106 238.763 231.024 239.258 234.175 239.291C239.385 239.349 243.833 235.78 249.166 236.988C250.792 237.356 252.003 235.88 253.451 235.292C255.022 234.57 253.739 233.349 253.372 232.468C252.717 230.958 251.525 231.533 250.592 232.159C241.334 238.478 231.753 237.164 222.881 232.085C215.141 227.785 209.484 221.45 208.557 212.047C208.418 210.576 208.494 208.257 207.003 208.012C205.06 207.725 204.731 210.12 204.033 211.569C203.684 212.294 203.797 213.253 203.65 214.16Z" fill="#91BAE2"/>
<path d="M162.052 235.621C166.849 236.406 171.476 237.65 176.499 236.559C178.343 236.144 180.745 237.887 182.785 238.812C187.519 240.886 192.193 240.521 196.941 239.058C197.576 238.898 198.666 238.842 198.283 237.64C197.981 236.756 197.263 236.535 196.375 236.773C190.287 238.431 185.547 236.229 181.648 231.605C179.938 229.57 178.342 231.066 177.186 232.346C174.453 235.506 170.823 234.919 167.354 234.966C165.549 234.865 163.654 234.254 162.052 235.621Z" fill="#91BAE2"/>
<path d="M232.594 217C234.142 215.828 233.618 214.376 233.492 213.161C232.547 204.659 234.92 196.953 238.391 189.319C240.177 185.243 242.3 181.471 244.615 177.689C244.974 177.157 245.204 176.631 244.669 176.208C244.065 175.724 243.582 176.327 243.281 176.728C240.49 180.02 237.421 182.876 235.843 187.263C234.266 191.65 233.4 196.13 232.599 200.606C231.586 205.993 231.994 211.501 232.594 217Z" fill="#91BAE2"/>
<path d="M221.314 216.415C222.091 213.997 220.634 211.885 220.979 209.81C222.068 203.39 222.769 196.926 225.743 190.925C226.498 189.344 227.055 187.644 227.612 185.945C229.621 179.928 233.372 175.302 238.593 171.759C240.147 170.716 240.815 168.689 242.777 168.075C243.284 167.921 243.437 167.142 243.026 166.648C242.346 165.911 241.731 166.457 241.372 166.989C240.37 168.776 238.751 169.822 236.979 170.362C234.065 171.217 232.98 173.908 231.667 175.903C225.268 185.356 220.642 195.555 220.663 207.383C220.685 210.339 219.035 213.316 221.314 216.415Z" fill="#91BAE2"/>
<path d="M149.248 166.968C144.433 172.163 142.632 178.49 141.954 185.403C141.703 188.052 139.568 189.06 137.009 188.032C136.025 187.632 132.105 190.21 132.036 191.37C132.001 191.951 132.395 192.124 132.854 192.293C133.643 192.639 133.806 192.052 133.972 191.529C135.095 188.322 137.457 190.517 139.191 190.493C141.378 190.511 140.767 192.406 140.582 193.83C140.266 196.482 141.791 198.654 142.751 201.113C142.834 200.209 143.298 199.221 143.003 198.464C141.072 193.355 142.627 188.519 143.665 183.645C144.813 178.379 146.55 173.341 149.336 168.7C149.692 168.103 150.179 167.564 149.191 167.1L149.248 166.968Z" fill="#91BAE2"/>
<path d="M226.578 212.483C227.905 210.745 227.054 209.181 227.235 207.693C227.958 200.392 229.598 193.43 233.319 186.941C234.974 184.093 235.966 180.828 238.484 178.514C238.792 178.242 239.023 177.716 238.49 177.357C238.089 177.056 237.711 177.204 237.275 177.483C234.843 178.956 233.09 181.167 231.861 183.543C228.816 189.419 227.211 195.801 226.196 202.41C225.727 205.841 226.012 208.912 226.578 212.483Z" fill="#91BAE2"/>
<path d="M247.065 151.208C248.763 154.271 248.589 157.173 250.89 159.435C252.308 160.778 250.473 163.892 252.994 165.436C253.328 165.676 251.45 166.671 250.437 166.98C248.411 167.597 246.442 168.082 245.598 170.439C248.343 167.536 252.506 168.482 255.678 166.392C257.111 165.484 257.629 164.301 257.952 163.063C258.33 161.629 256.595 161.653 255.732 161.118C254.738 160.526 253.75 160.062 253.935 158.638C253.989 158.442 253.97 158.057 253.902 157.997C250.631 156.877 251.231 152.218 247.065 151.208Z" fill="#91BAE2"/>
<path d="M210.68 177.867C217.82 172.877 220.885 164.878 228.161 161.295C224.655 159.351 213.358 169.824 210.68 177.867Z" fill="#91BAE2"/>
<path d="M134.738 164.812C131.758 166.891 133.402 170.151 132.951 172.681C132.456 175.599 132.94 178.789 131.935 181.797C131.826 182.188 131.788 182.704 131.936 183.083C132.328 184.477 132.125 186.802 133.92 186.711C136.1 186.6 134.896 184.411 134.899 183.189C134.828 177.986 134.112 172.751 135.461 167.668C135.839 166.234 135.421 165.613 134.738 164.812Z" fill="#91BAE2"/>
<path d="M220.154 187.223C224.982 180.999 228.677 173.997 234.04 168.197C228.251 170.676 225.289 175.648 222.721 180.792C221.732 182.836 219.373 184.498 220.222 187.284L220.154 187.223Z" fill="#91BAE2"/>
<path d="M301.19 175.206C300.55 172.731 299.2 171.45 296.375 171.529C293.422 171.614 291.099 168.903 287.855 169.582C285.819 170.007 283.604 170.698 281.372 169.782C280.846 169.552 280.218 169.841 280.189 170.549C280.151 171.066 280.613 171.299 281.065 171.341C282.034 171.42 283.066 171.496 284.085 171.316C287.782 170.679 291.124 171.923 294.59 173.098C296.749 173.824 298.814 175.262 301.245 175.01C301.251 175.138 301.19 175.206 301.19 175.206Z" fill="#91BAE2"/>
<path d="M214.548 166.678C209.471 165.457 208.814 170.248 206.623 172.673C203.583 176.106 202.002 180.429 201.207 185.034C204.787 178.295 208.1 171.377 214.548 166.678Z" fill="#91BAE2"/>
<path d="M220.226 187.348C215.687 192.914 214.352 199.539 213.994 206.436C215.657 199.923 218.432 193.803 220.159 187.287C220.156 187.223 220.226 187.348 220.226 187.348Z" fill="#91BAE2"/>
<path d="M194.272 152.213C192.998 149.899 191.375 149.596 188.747 151.015C186.808 152.078 185.283 153.698 182.846 153.822C181.82 153.874 181.889 155.22 181.995 156.05C182.172 157.006 182.989 156.643 183.624 156.482C185.019 156.09 186.423 155.89 187.316 154.495C188.671 152.048 190.725 150.722 194.272 152.213Z" fill="#91BAE2"/>
<path d="M217.145 179.854C220.631 177.62 221.766 173.384 225.125 171.156C225.686 170.806 226.234 170.2 225.685 169.521C225.133 168.777 224.242 168.951 223.623 169.432C220.156 172.051 217.69 175.391 217.145 179.854Z" fill="#91BAE2"/>
<path d="M206.251 152.634C207.657 151.213 209.084 151.462 210.534 152.16C212.179 152.912 213.705 152.578 214.393 150.936C215.322 148.96 212.875 148.891 212.121 147.965C211.165 146.857 209.344 147.72 209.095 149.147C208.744 151.094 205.174 149.153 206.251 152.634Z" fill="#91BAE2"/>
<path d="M237.215 159.807C232.397 161.144 228.767 164.35 225.275 167.741C225.483 168.052 225.625 168.302 225.833 168.613C229.746 165.908 233.726 163.263 237.639 160.557C237.559 160.24 237.418 159.99 237.215 159.807Z" fill="#91BAE2"/>
<path d="M183.458 181.112C179.477 186.264 178.952 196.191 182.469 200.899C180.457 194.186 180.315 187.572 183.458 181.112Z" fill="#91BAE2"/>
<path d="M156.021 166.175C152.92 169.675 150.874 173.7 150.207 178.299C152.846 174.565 154.632 170.488 156.021 166.175Z" fill="#91BAE2"/>
<path d="M213.847 185.807C210.493 189.384 210.008 193.781 209.922 198.414C211.317 194.228 213.366 190.267 213.847 185.807Z" fill="#91BAE2"/>
<path d="M203.023 218.306C201.92 221.898 202.198 224.841 204.075 227.639C204.422 228.136 204.705 228.636 205.336 228.411C206.153 228.048 205.81 227.615 205.514 226.859C205.068 225.66 204.804 224.259 205.063 223.025C205.411 221.014 204.515 219.838 203.023 218.306Z" fill="#91BAE2"/>
<path d="M205.596 191.69C207.078 187.95 208.627 184.272 210.393 179.811C207.243 182.349 206.04 185.239 205.596 191.69Z" fill="#91BAE2"/>
<path d="M181.805 161.203C186.284 162.069 188.14 156.832 192.116 156.63C187.639 155.828 185.34 159.931 181.805 161.203Z" fill="#91BAE2"/>
<path d="M204.588 235.199C204.655 235.26 204.819 235.959 205.012 235.949C205.528 235.987 206.23 235.887 206.531 235.486C207.319 234.546 208.05 233.738 209.486 234.179C210.009 234.346 210.91 234.364 211.053 233.393C211.146 232.681 210.732 232.123 210.135 231.768C209.471 231.351 208.413 230.762 208.135 231.612C207.453 233.382 204.381 232.381 204.588 235.199Z" fill="#91BAE2"/>
<path d="M257.299 169.203C254.544 168.121 252.711 170.014 250.715 171.209C249.407 172.046 248.234 173.006 246.721 173.597C246.09 173.822 244.891 174.268 245.45 175.14C246.085 176.265 247.066 175.315 247.687 174.898C249.427 173.717 251.03 172.35 252.706 171.172C254.138 170.263 255.359 168.98 257.299 169.203Z" fill="#91BAE2"/>
<path d="M157.497 152.15C155.285 152.905 153.827 153.3 152.281 153.25C151.637 153.219 150.816 153.517 150.855 154.287C150.82 154.867 151.177 155.556 151.523 156.053C152.002 156.607 152.835 156.565 153.325 156.09C154.488 154.938 156.136 154.469 157.497 152.15Z" fill="#91BAE2"/>
<path d="M214.549 166.678C214.055 165.803 214.603 165.197 215.221 164.716C217.134 163.14 218.848 161.446 220.267 158.995C217.427 160.039 215.408 162.07 213.589 164.22C212.557 165.429 214.061 165.932 214.549 166.678Z" fill="#91BAE2"/>
<path d="M184.959 177.758C187.664 176.592 188.111 173.998 190.111 172.868C190.55 172.652 190.521 172.075 190.181 171.707C189.77 171.213 189.196 171.307 188.699 171.653C186.777 173.037 185.855 175.141 184.959 177.758Z" fill="#91BAE2"/>
<path d="M243.677 171.887C241.903 171.141 240.821 172.61 239.484 172.871C238.4 173.054 238.199 174.158 238.822 175.026C239.441 175.83 240.544 176.032 241.076 175.105C241.79 173.975 243.249 173.58 243.677 171.887Z" fill="#91BAE2"/>
<path d="M181.307 175.436C183.809 172.801 186.128 170.369 188.509 167.87C185.65 169.815 183.058 171.94 181.307 175.436Z" fill="#91BAE2"/>
<path d="M277.501 191.065C280.854 189.995 282.696 187.008 285.429 185.134C281.8 185.832 279.407 188.075 277.572 191.19L277.501 191.065Z" fill="#91BAE2"/>
<path d="M273.498 188.182C269.947 190.419 268.33 194.037 266.582 197.597C269.533 194.94 271.615 191.62 273.366 188.124L273.498 188.182Z" fill="#91BAE2"/>
<path d="M203.891 166.962C207.675 168.055 208.76 165.365 210.169 162.722C207.168 163.131 205.942 165.572 203.891 166.962Z" fill="#91BAE2"/>
<path d="M202.231 158.303C201.209 158.419 199.66 158.305 199.863 159.773C200.079 161.498 201.887 160.377 202.932 160.71C203.917 161.11 204.567 159.984 204.521 159.087C204.369 157.359 203.007 158.392 202.231 158.303Z" fill="#91BAE2"/>
<path d="M273.43 188.121C275.907 186.26 278.859 184.888 280.313 181.857C278.449 184.395 274.133 184.228 273.562 188.179C273.498 188.182 273.43 188.121 273.43 188.121Z" fill="#91BAE2"/>
<path d="M149.187 167.036C149.101 164.083 153.397 163.865 153.046 160.733C152.133 163.029 147.699 163.061 149.248 166.968L149.187 167.036Z" fill="#91BAE2"/>
</svg>
