<svg width="95" height="97" viewBox="0 0 95 97" fill="none" xmlns="http://www.w3.org/2000/svg">
<path d="M70.0095 30.7986C68.8042 29.9768 68.0373 28.8263 67.1607 27.8402C64.5311 24.9367 61.3536 23.4575 57.3544 23.1836C50.5064 22.7453 43.6585 23.1836 36.7557 23.2384C36.0435 23.2384 35.7695 23.5123 35.8243 24.2245C36.153 31.6751 35.386 39.1257 35.5504 46.6311C35.6052 48.6033 35.6052 48.6581 37.6322 48.7129C39.9879 48.7677 42.3436 48.8225 44.7541 48.932C47.4933 49.0416 49.7942 48.2199 51.7116 46.2476C51.876 46.0833 51.9856 45.9189 52.1499 45.8093C52.6978 45.3711 53.2456 44.6041 53.9578 44.878C54.6152 45.152 54.2317 46.0833 54.2317 46.6859C54.2865 50.1921 54.2317 53.753 54.2317 57.3139C53.7386 57.2592 53.1361 56.8757 52.643 56.3826C50.9995 54.6296 48.8081 54.4652 46.6716 54.3008C44.0967 54.0817 41.5219 54.3008 39.0018 53.8626C38.2896 53.753 37.413 54.0269 36.6461 54.1913C36.153 54.3009 36.2626 54.8487 36.2626 55.2322C36.4817 61.368 36.2626 67.5585 36.6461 73.6943C36.7009 74.8448 36.5913 75.9953 36.5913 77.1457C36.5913 77.8031 36.8652 78.0771 37.6322 78.0223C45.6854 77.8579 53.7934 78.0771 61.8467 77.7484C63.7093 77.6936 65.572 77.6388 67.4347 77.4196C69.2973 77.2005 70.5573 75.8309 71.653 74.5161C73.0226 72.9274 73.9539 70.9551 74.8853 69.0377C75.3235 68.1612 75.6522 67.2846 76.3644 66.682C76.7479 66.7916 76.6931 67.1203 76.6383 67.2846C75.9261 71.8317 75.7618 76.4336 75.707 81.0354C75.707 82.1859 75.3235 82.5145 74.2278 82.5145C64.5311 82.6789 54.8343 82.8432 45.1923 83.0624C38.3444 83.2267 31.4964 83.3911 24.6484 83.5007C24.2649 83.5007 23.7719 83.7746 23.6075 83.2815C23.4432 82.7885 23.991 82.6241 24.3197 82.4598C26.6754 81.3093 27.7711 79.5014 27.9903 76.8718C28.4285 71.2291 28.4285 65.5863 28.4285 59.9436C28.4285 51.8904 28.4285 43.7823 28.3737 35.7291C28.3737 32.3325 28.319 28.9907 28.2642 25.5941C28.2094 23.5123 26.6206 22.4714 25.3058 21.2114C24.6484 20.554 23.7171 20.1705 22.8953 19.6774C22.6762 19.5131 22.457 19.4035 22.457 19.1296C22.5118 18.8557 22.7858 18.8009 23.0597 18.7461C23.7719 18.6913 24.484 18.5818 25.1962 18.5818C35.9339 18.1435 46.6715 18.0339 57.4092 18.0887C60.9154 18.0887 64.4763 18.0887 67.9825 18.0887C68.9686 18.0887 69.3521 18.2531 69.3521 19.4035C69.4617 22.6906 69.8451 25.9228 70.119 29.2098C70.2286 29.6481 70.4478 30.1412 70.0095 30.7986Z" fill="#36372F"/>
<path d="M2.40562 3.68051C2.89868 5.43359 2.95346 7.18668 2.95346 8.99455C2.95346 16.993 3.11786 24.9914 3.61091 33.0447C3.9944 39.3996 4.10394 45.7545 3.99437 52.1095C3.8848 58.0809 4.04918 63.9976 4.15875 69.969C4.3231 76.7622 4.10391 83.5554 3.55607 90.3486C3.28215 93.8 2.8439 93.9644 6.78834 94.1287C15.0607 94.567 23.3331 94.567 31.6055 94.6765C40.4805 94.8409 49.3554 95.1148 58.2304 94.8409C65.955 94.6218 73.6795 94.9505 81.3492 95.0053C84.5267 95.0053 87.7042 94.8957 90.8816 94.7861C91.4842 94.7861 91.9773 94.7861 91.8678 93.9096C91.3747 89.0886 91.9773 84.2676 91.813 79.3919C91.4843 70.8456 91.5938 62.2445 91.5938 53.6434C91.5938 42.1936 91.1556 30.7985 91.2651 19.3487C91.3199 14.5277 90.9364 9.65194 90.9912 4.83095C90.9912 3.68049 90.5529 3.07786 89.1833 3.07786C84.6363 2.96829 80.144 2.63961 75.5969 2.85875C65.9002 3.3518 56.2582 3.07787 46.5614 3.18744C43.0005 3.24222 39.3848 2.91352 35.8238 2.91352C32.3176 2.91352 28.7567 3.13267 25.2505 3.13267C21.4705 3.13267 17.7451 2.9683 13.965 2.91352C11.6641 2.91352 9.36319 3.13267 7.00749 3.13267C6.40486 3.13267 5.47351 3.46135 5.47351 2.2561C5.47351 1.21521 6.18575 1.16044 6.89794 1.10566C10.4041 0.776952 13.8555 0.448249 17.3617 0.557817C18.1834 0.612601 18.7313 0.722155 18.7313 1.70827C18.7313 2.09175 18.6765 2.85873 19.3339 2.6396C19.8817 2.47525 20.9774 2.74917 20.9774 1.65349C20.9774 0.448249 21.6348 0.557817 22.4565 0.557817C29.6332 0.557817 36.7552 0.448242 43.9318 0.448242C51.0538 0.448242 58.1757 0.557803 65.2428 0.612587C70.2829 0.612587 75.323 0.393478 80.3631 0.503046C83.2119 0.55783 86.0607 0.448249 88.8546 1.10566C89.0738 1.16044 89.3477 1.10567 89.6216 1.05089C92.1965 0.667398 93.2921 1.48913 93.5113 4.17354C93.6756 6.14576 93.7304 8.11799 93.7304 10.0354C93.7852 15.6234 93.8947 21.2113 93.8947 26.7445C93.9495 34.3047 93.84 41.8101 94.0043 49.3703C94.0591 52.7121 94.0591 55.9991 94.0043 59.3409C93.9496 62.2993 93.8399 65.2028 93.6756 68.1612C93.566 70.2429 94.1139 72.4343 94.1139 74.5709C94.1139 80.9258 94.1687 87.2807 94.1687 93.5809C94.1687 95.9366 94.0043 96.1557 91.5938 96.2105C79.4866 96.7035 67.3793 96.8679 55.2721 96.7583C52.6972 96.7583 50.1224 97.087 47.4928 96.8679C44.8084 96.6488 42.124 96.7583 39.4944 96.7583C36.7552 96.7583 34.0707 96.7583 31.3315 96.7583C28.6471 96.7583 25.9627 96.8131 23.3331 96.8131C20.5939 96.8131 17.9095 96.8131 15.1703 96.8131C12.4859 96.8131 9.80149 96.8131 7.17186 96.8131C5.85705 96.8131 4.5422 96.7035 3.22738 96.7583C1.96735 96.8131 1.47428 96.3749 1.36472 95.06C1.14558 91.773 1.14558 88.486 1.0908 85.2537C0.98123 76.4335 0.816891 67.6681 0.762107 58.8479C0.707323 53.4243 0.981283 47.9459 0.871715 42.5223C0.762148 37.5369 0.597796 32.4968 0.597796 27.5115C0.65258 20.6635 -0.00488056 13.7607 0.816878 6.91274C0.816878 6.80317 0.816878 6.69361 0.816878 6.58405C0.816878 5.43358 2.84392 6.36492 2.29608 5.4336C1.63868 4.61184 2.02214 4.28313 2.40562 3.68051Z" fill="#36372F"/>
</svg>
