<svg width="146" height="145" viewBox="0 0 146 145" fill="none" xmlns="http://www.w3.org/2000/svg">
<path d="M114.583 105.157C114.66 102.908 115.817 101.114 117.135 99.4505C118.49 97.7509 120.253 96.5486 122.386 95.9878C122.787 95.8861 123.061 95.764 123.089 95.2383C123.16 94.3142 123.73 93.8707 124.653 94.0142C125.467 94.1557 125.837 93.7632 126.013 93.0224C126.422 91.4511 126.832 89.8798 126.969 88.2492C127.014 87.7782 127.059 87.3073 127.158 86.8554C127.297 86.1865 128.979 84.4565 129.301 84.68C130.036 85.2193 129.548 86.0815 129.518 86.7524C129.443 88.9647 129.276 91.1935 129.091 93.4039C129.044 94.02 129.145 94.4573 129.683 94.8297C130.328 95.2767 130.918 95.7772 130.411 96.7298C130.148 97.1969 130.634 97.4414 130.884 97.6636C134.101 100.406 134.906 104.122 134.492 107.98C134.187 110.841 133.013 113.615 130.422 115.401C128.494 116.727 126.374 116.563 124.283 115.763C123.887 115.611 123.509 115.405 123.073 115.469C118.997 116.086 114.65 111.581 114.46 107.985C114.405 107.005 114.15 106.038 114.566 105.102C114.889 105.289 115.197 105.349 115.114 105.928C114.617 109.367 116.371 111.739 118.895 113.689C119.342 114.042 119.95 114.561 120.5 114.208C120.996 113.908 120.644 113.285 120.489 112.792C120.42 112.61 120.93 112.51 120.663 112.197C119.952 112.42 119.99 112.275 119.468 112.067C118.333 111.629 118.227 110.411 117.95 109.681C117.552 108.603 116.957 107.359 117.325 106.077C117.364 105.896 117.357 105.297 116.99 105.508C116.258 105.894 116.431 105.335 116.454 105.063C116.562 104.067 116.725 103.09 116.891 101.932C115.925 103.185 116.316 104.662 115.784 105.995C115.468 105.409 115.653 104.196 114.583 105.157ZM123.556 104.628C124.417 103.191 124.627 101.562 124.982 99.9716C124.122 101.408 123.821 103.017 123.575 104.61C123.516 104.881 123.564 105.226 123.127 105.327C122.839 104.179 123.457 103.083 123.352 101.83C122.613 102.578 122.938 103.691 122.144 104.457C121.971 102.948 122.466 101.687 122.784 100.096C121.903 101.695 121.731 103.18 121.109 104.529C120.841 103.254 121.298 102.065 121.357 100.796C120.955 101.932 120.554 103.068 120.153 104.204C120.062 104.184 119.973 104.128 119.882 104.108C120.121 102.951 120.359 101.794 120.657 100.33C119.631 101.89 119.621 103.505 118.925 104.853C118.635 103.814 119.016 102.841 119.202 101.556C117.167 105.766 118.601 108.803 121.08 111.188C121.562 111.65 122.358 111.81 122.658 111.271C123.033 110.588 123.407 110.939 123.787 111C124.963 111.185 126.117 111.641 127.643 111.523C126.399 111.047 125.233 111.317 124.379 110.394C125.201 110.064 125.896 110.784 126.701 110.399C125.964 110.005 125.148 110.009 124.65 109.455C125.62 108.983 126.571 108.528 127.669 109.038C127.386 108.633 126.894 108.752 126.74 108.223C127.214 108.086 127.66 108.511 128.247 108.195C127.307 107.997 127.37 107.508 127.689 106.879C128.066 106.087 128.588 105.334 128.571 104.245C127.996 104.979 127.817 105.829 126.899 106.429C127.512 104.626 128.338 103.08 128.188 101.335C127.707 102.869 127.532 104.535 126.114 105.689C126.383 104.859 126.615 104.029 126.924 103.018C126.107 104.056 125.994 105.306 125.054 106.106C124.701 105.555 125.36 105.24 125.132 104.783C124.764 105.103 124.753 105.719 124.026 105.779C124.492 105.043 123.768 104.994 123.556 104.628ZM128.597 86.5363C128.068 86.6539 128.009 86.9613 128.021 87.27C127.966 89.3194 127.75 91.3114 127.062 93.2588C126.965 93.5656 126.85 93.9264 127.062 94.2568C127.238 94.5502 127.468 94.8628 127.85 94.8152C128.287 94.7504 128.059 94.329 128.081 94.0935C128.151 93.242 128.22 92.3904 128.271 91.5566C128.374 89.8891 128.874 88.265 128.597 86.5363ZM126.545 114.08C126.617 114.117 126.977 114.269 127.337 114.457C127.36 114.149 126.817 114.067 127.26 113.675C127.795 113.195 128.246 113.294 128.87 113.94C128.276 112.659 127.631 112.212 126.566 112.919C126.364 113.042 126.073 113.073 125.836 113.124C125.326 113.223 124.603 113.065 124.464 113.771C124.306 114.494 125.085 114.562 125.441 114.931C125.548 115.042 125.71 115.099 125.836 115.156C126.221 114.963 125.088 114.38 126.012 114.451C126.936 114.559 125.621 113.973 126.545 114.08ZM125.655 95.8284C126.015 95.98 126.446 96.2054 126.832 95.9402C127.107 95.7818 126.877 95.4692 126.754 95.2674C126.489 94.8453 126.181 94.8217 125.83 95.1602C125.663 95.3568 125.425 95.5159 125.655 95.8284Z" fill="#91BAE2"/>
<path d="M32.983 34.434C33.502 34.5166 33.9905 34.6107 34.8109 34.7536C33.0561 33.1521 31.1278 32.3826 29.5112 31.147C29.2666 30.9607 28.816 30.7825 28.7774 30.5881C28.4079 27.7663 25.8611 26.7427 24.2241 24.9922C23.6312 24.3452 23.0804 23.7172 22.6203 22.7762C25.997 23.1377 26.4336 26.8748 29.2786 28.1341C27.7276 25.6891 25.785 23.7753 24.8505 20.7489C27.0167 23.6234 28.561 26.4194 31.114 28.3812C29.9485 26.0344 27.8345 24.2202 27.0721 21.3727C29.0458 23.5535 30.3299 26.0297 32.6539 27.9387C32.8374 26.5803 31.0711 26.5161 31.4193 25.409C31.8996 25.2972 31.8292 26.1251 32.4546 26.0281C31.6604 24.203 30.2301 22.7227 29.8241 20.5419C31.0125 21.3819 31.1 22.8121 32.1319 23.6068C32.5302 22.7246 31.6589 22.0783 31.7936 21.0519C32.9611 22.6663 33.3203 24.4468 34.5027 25.9162C35.3819 23.6329 35.0945 21.5815 34.3375 19.3938C34.6208 19.7746 34.9345 20.1438 35.1872 20.5361C35.463 20.9893 35.293 21.6458 36.0186 21.9987C36.3404 21.0062 35.7624 20.2142 35.5354 19.429C35.2738 18.5523 34.8903 17.7217 34.464 16.5937C36.0027 17.162 35.8463 18.6844 36.6953 19.5481C37.0367 18.792 36.1769 18.1762 36.5752 17.2941C37.6315 18.7066 37.6933 20.5298 39.3066 21.9409C38.7414 20.1686 38.3375 18.8231 37.9031 17.4891C37.9946 17.4545 38.0861 17.42 38.1775 17.3854C39.7685 20.5818 41.3481 23.7477 42.9737 27.0355C43.3991 26.3173 42.7608 25.8268 42.8963 25.0788C43.8184 26.2285 44.1878 27.4825 44.8315 28.6329C43.7533 24.5808 41.7374 20.8133 41.025 16.623C42.6405 20.4373 44.2444 24.221 45.8599 28.0353C45.9819 27.9892 46.1038 27.9431 46.2562 27.8855C45.5215 23.9127 43.3803 20.3667 42.6456 16.3939C44.2074 18.5909 44.7063 21.2941 46.2376 23.5027C45.896 21.1233 44.7156 18.9215 44.3699 16.4391C45.1944 16.685 44.8727 17.6776 45.5638 17.9391C45.7384 16.0962 44.4795 14.5164 44.6352 12.7155C45.8468 15.1843 45.6518 18.08 47.2604 20.6774C47.2386 18.0378 46.0162 15.8171 46.4753 13.3441C46.7993 14.7547 47.1232 16.1652 47.4892 17.5947C47.6356 18.1665 47.7515 18.7499 47.9704 19.3291C48.5464 20.8535 48.6189 20.8609 49.8437 19.4923C51.0182 23.8912 51.6662 28.2801 53.1414 32.4609C53.2749 32.4453 53.3969 32.3992 53.5303 32.3836C53.3507 30.7095 53.1825 29.0659 52.9757 27.2278C53.7129 27.6112 53.3031 28.4629 54.1317 28.8117C54.2236 25.9201 54.0296 23.1017 53.8661 20.2718C54.0884 20.6755 54.3106 21.0793 54.6901 21.8069C54.5145 20.2358 54.3552 19.0766 54.1878 17.7114C55.6479 18.9017 54.8513 20.666 55.7545 21.8577C56.3669 21.1733 55.8573 20.2858 56.4162 19.5521C57.1581 20.3169 56.3635 21.3488 56.9456 22.2438C57.9074 19.4415 57.7473 16.4361 59.5303 14.0552C59.7344 16.3472 58.3701 18.3608 58.5667 20.7253C59.7448 18.9563 59.8002 16.7056 61.4355 14.7637C61.2413 17.9379 59.3248 20.3344 59.4768 23.1338C59.6448 23.2097 59.8013 23.2551 59.9389 23.3425C60.2572 22.5254 60.5756 21.7083 60.9055 20.9216C61.0762 20.5436 61.2388 19.9596 61.7157 20.0232C62.3072 20.1133 62.2707 20.7542 62.268 21.2081C62.2681 22.7759 62.2073 24.3667 62.1958 25.9039C62.1965 26.1824 62.1972 26.4609 62.5143 26.6546C62.9669 26.1004 63.2703 25.4283 63.2534 24.7379C63.2587 23.83 62.6848 23.141 64.0675 22.3747C65.1874 21.7425 64.6635 19.7106 64.7515 18.2838C64.8029 17.4979 64.6369 16.6896 64.6958 15.8312C65.061 16.9823 66.1498 17.6509 66.3857 18.9205C67.0368 18.4307 66.5618 17.6346 67.0563 17.0993C67.8945 18.2111 67.0856 19.6664 67.8628 20.8012C68.5823 20.2158 67.7482 19.207 68.6357 18.6975C68.9834 20.4475 68.5188 22.2605 69.462 24.2035C69.827 22.2191 69.5098 20.4576 70.467 18.8416C70.4618 21.3173 70.4566 23.7929 70.4513 26.2685C71.4809 23.0923 70.881 19.6607 72.391 16.3727C72.9737 17.5461 72.1296 18.6315 72.6852 19.6409C73.4799 18.609 73.0414 17.1721 73.935 16.0331C74.2813 17.2262 73.6011 18.2845 73.9203 19.3136C74.4345 19.0148 74.4636 18.4464 74.7488 18.0947C75.0151 17.7851 74.7609 16.8359 75.6315 17.2037C76.2196 17.4693 77.1966 17.6575 76.3295 18.682C76.1927 18.8731 76.1744 19.1935 76.1751 19.472C76.1378 19.8344 76.1731 20.2044 76.1671 20.8338C77.3736 19.7856 77.614 18.3011 78.7678 17.4819C77.8845 19.6622 76.4781 21.6569 76.6409 24.2084C78.2173 21.5572 79.7631 18.9175 81.6566 16.46C80.2971 20.4229 77.1314 23.5702 76.5585 27.8629C78.668 24.8709 79.6888 21.2102 82.3905 18.5867C80.2316 23.2 77.6337 27.6657 76.1354 32.552C79.4414 29.0382 80.0542 23.929 83.3906 20.4037C82.8359 22.8082 81.7047 24.9777 80.5083 27.0672C79.1488 29.4623 79.3312 32.2502 78.2501 34.6446C78.1553 34.8547 78.1329 35.0721 78.0266 35.2517C75.2993 39.8359 75.6784 44.9883 75.443 49.9897C75.0439 58.1538 76.7728 66.1408 78.1203 74.1326C78.8869 78.6508 79.3256 83.2233 80.1952 87.7375C78.3793 86.159 79.2084 83.6508 78.1507 81.6814C77.7375 82.7085 78.3534 83.4165 78.4889 84.2362C78.8414 86.3676 79.5489 88.6088 79.2069 90.6542C78.8121 92.9287 79.7743 94.8297 79.8673 96.9198C79.9066 97.3927 80.0184 97.873 80.5381 98.2341C81.2237 97.8357 80.7677 96.9976 81.2812 96.4203C81.6911 97.1364 82.3971 97.2529 83.2359 97.0753C83.1186 95.9351 82.3956 95.1282 81.7641 94.2868C80.6542 92.8248 80.2456 91.0979 79.9588 89.3249C79.9161 89.0275 79.7244 88.6122 80.1627 88.4814C80.6431 88.3696 80.8653 88.7733 80.9006 89.1433C80.9766 90.543 82.1311 91.57 82.0431 92.9968C82.01 93.4623 82.2891 93.74 82.6746 93.8383C84.6022 94.3293 85.2392 95.8306 84.8389 97.4451C84.2842 99.8497 85.6996 101.475 86.6083 103.326C88.736 107.574 92.1502 110.709 95.7927 113.618C96.9317 114.511 98.0706 115.405 99.5517 115.821C100.689 116.157 100.83 117.359 99.9198 118.086C97.2133 120.328 94.8551 123.031 92.114 125.181C89.9326 126.876 87.2579 128.096 84.6319 128.984C81.0493 130.198 77.5088 131.432 74.076 133.042C70.7536 134.576 67.1919 135.016 63.5144 134.873C60.1994 134.767 57.0041 133.779 53.7196 133.662C52.1288 133.601 52.9498 132.454 53.1964 131.908C54.5959 128.697 55.2548 125.277 55.5513 121.821C55.6962 120.268 55.6236 118.693 55.6235 117.125C55.6302 116.774 55.7969 116.293 55.3957 116.061C54.9106 115.792 54.6336 116.349 54.2908 116.548C53.6851 116.882 53.2671 117.528 52.3518 117.595C52.7149 116.343 52.5685 115.771 51.0895 116.19C50.0184 116.491 49.2744 114.89 49.8779 113.722C50.1855 113.152 50.6191 112.64 50.9266 112.071C51.6101 110.837 52.5341 109.687 51.7061 108.049C51.2575 107.138 52.458 106.719 52.9831 106.173C53.4282 105.691 53.6754 105.423 53.4105 104.722C51.9007 100.45 50.2994 96.212 48.4542 92.0664C46.0412 86.6025 43.4568 81.2382 40.2172 76.2608C38.6357 73.8273 37.1647 71.3172 35.7051 68.8377C35.0194 67.6683 34.9197 65.9292 33.7123 65.1312C31.4235 63.592 30.1733 60.9288 27.6373 59.6573C27.1217 59.3993 26.663 59.0151 26.2917 58.4935C25.8208 57.8004 25.1141 57.4055 24.2293 57.4611C22.2462 57.653 20.3905 56.8909 18.5023 56.8728C18.2373 56.1716 19.1615 56.5889 19.0456 56.0055C16.9615 55.4691 14.8131 55.1312 12.4993 54.2635C13.4824 53.8224 14.2886 54.3887 15.1036 53.8717C13.4308 53.0405 11.4518 53.3354 9.81217 52.0388C11.0662 51.6694 12.1706 52.4715 13.4931 52.0066C11.8433 51.2364 9.89408 51.2413 8.60804 49.4975C9.95901 49.7535 11.165 49.9946 12.661 50.2655C11.1893 49.0447 9.43456 49.011 8.40126 47.6594C9.56931 47.9846 10.7678 48.2982 11.9359 48.6233C11.9738 48.5393 11.9813 48.4668 12.0192 48.3827C10.6899 47.6308 9.39104 46.8674 8.05019 46.0849C11.1648 46.8591 13.8851 48.6184 17.3892 49.5937C14.3809 47.0723 11.542 45.1836 7.77022 43.961C9.5771 43.4873 10.6138 44.6633 12.0555 44.6063C11.4917 43.3909 10.2709 43.2948 9.55941 42.5184C9.61154 42.011 10.0513 42.4371 10.3826 42.2074C10.1711 41.5556 9.38521 41.5042 9.03694 41.0435C10.0958 40.4344 10.0958 40.4344 8.89858 39.1099C9.41686 38.9141 9.67367 39.4093 10.0361 39.4466C10.3261 39.4763 11.0627 41.1491 11.1303 39.2073C11.1404 38.6809 11.9711 39.8651 12.627 39.7567C12.9921 39.34 12.2665 38.987 12.5781 38.5209C12.6926 38.5473 12.8565 38.5202 12.9216 38.6001C13.7862 39.5974 14.7876 40.4035 14.8907 41.9672C14.9504 42.955 15.6015 44.0329 16.6829 44.774C17.0222 43.1825 15.617 42.5986 15.1677 41.4096C16.3846 41.4027 17.1752 41.8356 17.8677 42.654C19.3943 44.4811 21.704 45.2458 23.74 46.3927C21.5163 44.9335 19.5358 43.1037 17.791 40.9758C18.5491 40.5848 18.9036 41.9838 19.89 41.3672C18.9915 40.557 18.1771 39.7847 17.2902 39.0049C17.9494 38.721 18.2564 39.4412 18.8471 39.2528C17.9473 37.8857 16.3707 37.4014 15.0136 36.207C16.2988 36.1046 16.9838 36.9955 18.0787 37.0347C16.4064 34.9142 14.0696 33.9855 11.6623 32.317C13.3981 32.3928 14.4144 33.0539 15.4382 33.6426C16.4619 34.2313 17.4972 34.8504 18.4525 35.5347C19.4919 36.2568 19.6816 35.8367 19.5033 34.7195C20.8137 35.5135 22.017 36.2085 22.3375 37.7945C22.6132 36.68 22.6132 36.68 19.9402 34.0318C18.8121 32.8903 17.604 31.8138 16.5443 30.5768C19.2212 31.7602 20.8942 34.1591 23.3523 36.331C22.4307 33.8921 20.745 32.4735 19.6724 30.649C21.5173 31.6591 22.7078 33.3345 24.0467 34.8493C24.5378 34.4895 24.2357 34.1507 24.052 33.9414C22.2273 31.8785 23.3714 28.7287 21.2608 26.739C22.9079 27.9632 23.9914 29.5396 25.0749 31.1161C25.3811 31.5578 25.3811 31.5578 25.8188 31.1486C26.3248 30.6438 26.4218 31.2691 26.5749 31.49C27.3521 32.6248 27.6876 34.0658 29.0406 35.1572C28.909 32.8726 26.892 31.6837 26.5849 29.3958C28.0037 30.8456 28.344 32.668 29.8237 34.0948C29.5926 33.2066 29.4578 32.6653 29.2924 32.1355C30.2492 33.3766 32.0608 33.2843 32.983 34.434C32.6395 34.3547 32.2845 34.245 31.9294 34.1353C31.6049 34.014 31.2384 33.8738 31.2282 34.4002C31.233 34.7817 30.9295 35.4538 31.5894 35.4483C32.8367 35.4299 33.7318 36.4156 35.3992 36.5869C34.3632 35.6893 33.6788 35.0769 32.983 34.434ZM28.8278 43.0766C29.781 42.9254 30.2527 43.8969 31.1761 44.0358C30.1963 42.7337 29.4943 41.1524 27.6304 40.1844C27.9083 41.473 28.4138 42.2575 28.8698 43.0955C28.5385 43.3252 27.6869 42.9154 27.7994 43.6742C27.9357 44.7725 28.6166 45.5603 29.8761 45.8509C29.4844 44.8143 29.1504 43.9302 28.8278 43.0766ZM83.0268 118.651C82.7964 118.041 82.6764 117.355 82.3356 116.821C80.4743 113.832 79.0167 110.62 77.4182 107.496C77.1729 107.031 77.1254 106.352 76.3693 106.011C76.223 107.007 76.7129 107.658 77.0504 108.367C78.8406 111.906 81.0651 115.211 83.0268 118.651C84.7641 120.851 85.9987 123.381 88.1093 125.37C88.9657 126.162 89.3342 125.57 89.8905 125.29C90.7705 124.853 90.0943 124.446 89.7806 124.077C86.0072 119.162 82.5271 114.101 79.7096 108.581C79.1499 107.469 78.4987 106.391 77.855 105.24C77.3869 105.661 77.3801 106.012 77.5258 106.305C78.3234 107.955 79.06 109.628 79.9795 111.231C82.0753 114.934 84.8222 118.146 87.2377 121.589C87.8503 122.472 88.4323 123.367 88.4853 124.706C87.4493 123.808 86.7717 122.845 86.0142 121.946C85.0615 120.808 84.577 119.249 83.0268 118.651ZM71.4942 74.0233C70.7983 71.8127 71.105 69.3973 70.1184 66.8784C70.2012 69.4949 70.2678 71.6996 70.8913 73.9028C71.1528 74.7794 71.3072 73.9895 71.5132 73.9813C72.0181 76.0551 71.8137 78.1879 72.1431 80.2584C72.9917 85.5469 74.2713 90.7772 75.6917 95.9194C76.1342 97.4594 76.1804 99.1491 77.3547 100.413C73.1285 83.7881 71.3541 66.8295 70.7227 49.2997C70.111 50.2625 70.1849 50.8269 70.2053 51.3418C70.4543 56.3343 70.7643 61.3038 71.0438 66.2848C71.2066 68.8363 71.7203 71.3946 71.4942 74.0233ZM35.1834 41.8247C40.8054 50.7098 46.4274 59.595 51.0704 69.0242C46.6917 61.5855 42.2216 54.1813 36.5368 47.6194C36.6778 47.5313 36.7882 47.4547 36.9291 47.3666C37.4684 47.9642 38.0383 48.5502 38.5776 49.1477C37.488 46.6328 35.7893 44.6269 33.9193 42.7205C34.2222 43.3377 34.544 43.9129 34.8815 44.6215C33.939 44.5247 33.9972 43.3878 32.9593 43.2226C37.1332 49.6586 42.2129 55.2646 45.1105 62.2875C40.572 54.9788 35.7211 47.8579 30.4096 41.0853C35.2715 51.0937 43.0432 59.3059 47.7337 69.414C44.1437 63.1405 39.7503 57.4146 35.5588 51.5775C35.0994 50.9149 34.579 50.2754 34.0892 49.6243C33.8825 49.354 33.558 49.2327 33.2456 49.4204C32.9448 49.6386 32.8846 49.9401 33.0418 50.264C33.2105 50.6183 33.3487 50.9841 33.5859 51.2429C35.9689 53.8613 37.7997 56.8625 39.741 59.7872C45.8752 69.1059 51.6476 78.6658 56.8449 88.5475C57.6573 90.0522 58.7672 91.5142 58.7985 93.3489C58.0823 92.1911 57.5185 90.9756 56.8633 89.7948C49.8664 77.1788 42.6371 64.6854 34.0596 53.0498C32.7085 51.226 31.6935 49.554 28.8839 50.2324C27.6068 50.5408 27.9321 50.9405 28.2234 51.5272C28.6144 52.2853 29.1768 52.9438 29.8313 53.8462C28.9228 53.5624 28.5345 52.3503 27.6748 53.3023C26.853 54.1703 27.7088 54.6831 28.1831 55.2007C29.6059 56.7534 31.1088 58.2411 32.5127 59.8358C34.0697 61.6514 35.4859 63.5551 36.5213 65.7421C33.4228 62.2443 30.8114 58.2838 27.1268 55.3559C27.2576 55.7942 27.5293 56.1445 27.7895 56.4642C31.0534 60.4918 34.3477 64.5078 37.6116 68.5353C38.9776 70.2141 39.6925 72.3828 41.0775 74.0195C44.9532 78.652 47.4272 84.0929 49.9201 89.4918C52.2098 94.4449 54.3701 99.5166 55.8177 104.823C55.9756 105.425 56.1579 106.645 56.8896 106.369C57.8652 106 56.7723 105.228 56.6564 104.645C56.6293 104.481 56.5412 104.34 56.4836 104.188C55.2083 100.628 54.1043 96.9691 52.5851 93.5018C50.3482 88.3197 47.7571 83.3063 44.7621 78.5152C44.3217 77.8106 44.0106 76.9875 43.6617 76.2483C46.9791 80.3253 49.4774 84.8163 51.6939 89.4835C54.0906 94.5355 55.5537 99.9751 57.6151 105.154C57.8916 105.886 58.0454 106.385 58.8875 106.032C59.5467 105.748 60.5197 105.833 60.3448 104.541C60.0533 102.386 59.5484 100.312 58.5936 98.3387C55.522 91.8694 52.4503 85.4001 48.773 79.2642C44.2338 71.6771 39.805 64.0135 34.1006 57.2151C33.7753 56.8154 33.2557 56.4543 33.4101 55.6644C35.1087 57.6703 36.9212 59.4243 38.3109 61.4425C42.7444 67.9198 47.1893 74.4276 50.8572 81.3684C54.786 88.9074 59.0691 96.2777 61.4586 104.538C61.6856 105.323 62.0901 105.379 62.7954 105.217C64.7357 104.728 64.88 104.464 64.2728 102.673C60.6962 92.5621 55.7022 83.1262 50.2625 73.8935C49.9636 73.3793 49.3904 72.9688 49.5482 72.0033C53.5974 77.3716 56.4461 83.1586 59.5123 88.968C58.7945 85.6856 57.2008 82.9431 55.6796 80.2081C54.1699 77.5036 52.5003 74.9292 50.8992 72.2593C49.3096 69.6198 47.7504 66.9689 46.1723 64.3599C46.2827 64.2833 46.3742 64.2488 46.4846 64.1722C49.5866 69.0622 52.6886 73.9522 55.7906 78.8423C55.1082 75.9297 53.2218 73.6114 52.5278 70.6684C51.9531 68.1332 50.3872 65.8332 49.2407 63.4443C47.2851 59.3754 44.6134 55.7163 42.4369 51.8005C40.4251 48.136 37.9831 44.8083 35.1834 41.8247ZM40.2173 32.1881C41.5544 37.5709 44.1909 42.4277 46.3892 47.4154C48.5874 52.403 50.7246 57.4137 52.8287 62.8899C51.9499 62.3161 52.0664 61.6101 51.2879 61.4862C55.4422 67.6858 57.2415 74.8449 60.093 81.7457C59.345 81.6103 59.2868 81.1794 59.16 80.8441C57.0146 75.6274 54.5949 70.5144 52.1866 65.4319C51.5768 64.0946 50.6884 62.7579 50.624 61.3887C50.5751 60.1529 51.1828 59.0871 49.3209 58.9545C49.1455 58.9511 48.9611 58.4633 48.8155 58.17C46.6078 53.9872 44.4117 49.8349 42.2041 45.6521C41.9703 45.2179 41.706 44.7951 41.3923 44.4259C41.1856 44.1556 40.8001 44.0574 40.5109 44.3061C40.2216 44.5547 40.5082 44.76 40.6308 44.9924C41.4927 46.4435 42.4041 47.8411 43.1556 49.3689C46.8208 56.7636 50.7983 63.9706 54.0482 71.5571C56.6381 77.5814 59.0756 83.6632 61.2996 89.8256C61.7645 91.1481 61.0735 92.4544 61.7674 93.8297C63.3313 96.8621 64.3275 100.144 65.2322 103.46C65.3285 103.807 65.3183 104.334 65.8407 104.241C66.4965 104.132 66.2702 103.625 66.1814 103.206C65.9388 102.287 65.6657 101.38 65.4231 100.462C65.5145 100.427 65.6175 100.423 65.7394 100.377C66.0234 101.036 66.3263 101.653 66.6102 102.312C66.8188 101.85 66.7951 101.511 66.6989 101.164C65.3603 95.2244 63.0232 89.5924 61.1853 83.8066C59.0209 77.0642 57.1192 70.1877 54.5774 63.553C53.3563 60.3214 52.3371 56.9786 50.8416 53.8507C49.1963 50.3264 47.6615 46.7256 46.0047 43.1708C44.2788 39.4331 42.8347 35.5193 40.2173 32.1881ZM47.1269 37.3814C48.0026 42.8339 51.0471 47.5715 52.1972 52.9204C51.4918 51.5146 50.8474 50.0858 50.203 48.657C48.7833 45.361 47.3752 42.0955 45.9556 38.7995C45.7638 38.3842 45.568 37.8659 45.0538 38.1648C44.6195 38.3985 45.0288 38.8362 45.1744 39.1295C46.4158 41.3083 47.2419 43.6788 48.2088 45.9613C51.9927 55.0532 56.1425 64.0068 58.7489 73.5785C60.3042 79.262 62.4313 84.7991 64.2421 90.4209C65.5107 94.3314 66.7793 98.2419 67.7735 102.256C67.8812 102.633 67.8413 103.45 68.554 103.215C69.1753 103.015 68.8724 102.398 68.7416 101.96C68.1913 100.043 67.6905 98.0718 67.0792 96.1775C64.8152 89.2637 62.4711 82.4149 60.2071 75.5011C58.2811 69.5744 56.5076 63.5901 54.0024 57.8823C53.5959 56.9907 53.2692 56.0341 53.465 54.9846C56.2844 59.7724 57.3777 65.2473 59.6179 70.2539C56.0011 57.8239 52.8531 45.2516 47.525 33.3638C47.2976 37.0033 49.7612 39.8351 50.5935 43.144C51.4298 46.5559 52.7044 49.837 53.3158 53.299C51.1894 48.0403 49.7221 42.4978 47.1269 37.3814ZM65.0367 80.2609C65.7327 82.4716 66.4286 84.6823 67.1246 86.8929C67.1597 85.6951 66.8785 84.582 66.6277 83.4573C64.4366 73.6939 61.2543 64.1657 59.574 54.2789C58.4861 47.8962 57.0893 41.5257 56.7487 34.9999C56.7046 34.1456 56.5155 33.2764 56.3074 32.4491C56.1495 31.8468 55.6712 31.2263 55.0994 31.3727C54.4551 31.5116 54.7011 32.2548 54.8244 32.7656C55.0562 33.9323 55.3605 35.1064 55.5618 36.2846C56.8767 43.4525 57.4138 50.775 59.4455 57.8114C60.0189 59.7897 60.3368 61.8297 60.7766 63.8235C58.0504 55.1333 56.2048 46.2845 54.6757 37.351C54.0538 38.8402 53.8019 40.2942 54.1604 41.7962C55.3898 46.8015 56.6077 51.7764 57.8676 56.7702C59.7319 64.0093 61.4323 71.2754 63.1138 78.5836C63.7041 81.2522 65.0112 83.7894 65.9904 86.3808C65.764 84.3063 64.8858 82.4432 65.0367 80.2609ZM72.8299 33.2087C72.3219 34.4459 72.118 35.2894 72.1242 36.2278C72.1216 38.2494 72.7139 40.1857 72.5359 42.204C72.0227 47.4846 71.9445 52.8098 72.1638 58.0923C72.5243 67.99 73.9756 77.824 75.7012 87.5542C76.3784 91.3746 76.7391 95.2798 78.1025 98.9802C78.2523 99.3765 78.1697 99.8955 78.8824 99.6611C79.3702 99.4767 79.5754 99.1901 79.4826 98.6678C79.4324 98.4428 79.3328 98.2714 79.2827 98.0465C78.4545 94.8406 77.5044 91.6808 76.9012 88.4247C75.8574 82.8963 74.9471 77.3523 74.1282 71.7738C72.8478 63.1295 72.8945 54.4019 73.1168 45.6776C73.1754 41.6837 73.9129 37.6423 72.8299 33.2087ZM60.3528 40.8499C59.9185 41.0837 59.9687 41.3086 59.9884 41.5451C60.5709 48.7111 61.1839 55.8655 62.7732 62.9298C64.351 69.9635 65.8867 76.9784 67.373 84.0467C68.6004 89.7844 70.4911 95.3412 71.9624 100.987C72.0742 101.467 71.9923 102.265 72.7891 102.068C73.6888 101.867 73.3208 101.17 73.1555 100.64C71.7737 95.6927 70.3498 90.726 69.029 85.7552C68.024 81.9891 66.5806 78.3536 65.789 74.5068C65.1017 71.2128 64.487 67.9263 63.9637 64.6052C63.1496 59.408 62.2746 54.234 61.575 49.0633C61.2286 46.3025 61.458 43.4982 60.3528 40.8499ZM92.9356 121.178C88.7151 117.477 85.5725 113.125 82.4068 108.712C83.1008 111.655 85.6003 113.567 86.6255 116.28C83.6795 112.725 81.316 108.775 79.1348 104.478C79.0517 107.854 89.0942 122.629 92.3314 123.636C90.67 121.267 88.6326 119.563 87.524 117.091C89.4726 118.375 90.5114 120.387 92.0677 121.924C92.5075 122.35 92.8517 122.707 93.6098 122.317C95.4383 121.347 95.5439 120.889 94.0526 119.432C90.347 115.71 86.5426 112.096 83.7238 107.587C83.0957 106.57 83.0347 106.593 83.5271 105.222C83.5651 105.138 83.538 104.974 83.4729 104.894C82.9295 104.194 82.7973 103.199 81.8311 102.762C82.5778 103.909 81.4939 105.189 82.2942 106.385C85.0546 110.463 87.7237 114.576 91.1846 118.111C91.9801 118.926 93.2593 119.453 92.9356 121.178ZM69.676 85.1624C69.9293 84.2653 69.7294 83.6441 69.602 83.0303C69.0225 80.1136 68.401 77.178 67.791 74.2729C67.1038 70.9789 66.386 67.6964 65.7408 64.4214C65.7022 64.227 65.423 63.9492 65.7848 63.708C66.5009 63.298 66.4589 63.2791 66.3694 62.5813C65.2021 54.9743 63.8404 47.4059 63.9469 39.6661C63.9489 38.9337 63.8174 38.2169 63.7774 37.4655C63.6134 37.4926 63.4379 37.4893 63.274 37.5164C63.7109 45.9567 63.9229 54.4473 65.5232 62.8313C64.2404 59.3443 64.1663 55.6444 63.0169 52.1418C64.6811 63.1844 65.8533 74.3083 69.676 85.1624ZM69.7434 72.5248C68.6885 62.5411 67.603 52.5689 67.1544 42.5303C66.7575 43.9694 66.9101 45.4795 66.0741 46.7709C65.908 44.3949 65.8868 42.0338 65.8541 39.6422C65.8559 37.3421 65.9493 35.0073 65.2113 32.7777C65.2025 41.4214 64.6482 50.0969 66.7377 58.8536C67.3419 57.9633 66.661 57.1754 67.2659 56.5635C68.496 61.8473 68.3914 67.2871 69.7434 72.5248ZM54.9292 111.046C55.1467 111.069 55.3757 111.122 55.5397 111.094C56.0736 111.032 56.0736 111.032 56.3229 111.6C56.3575 111.691 56.5485 111.828 56.64 111.794C58.5275 111.533 58.5961 113.005 58.7249 114.176C59.1223 119.008 59.2602 123.799 58.5627 128.592C58.3602 129.992 58.3027 131.407 58.1504 133.033C58.9695 132.619 58.9187 132.115 58.9518 131.65C59.1461 130.043 59.3289 128.407 59.4928 126.812C59.9274 122.153 60.072 117.465 59.1069 112.882C58.7558 111.308 59.1596 111.085 60.4523 110.91C61.684 110.759 62.4637 109.872 63.3498 108.805C62.442 108.8 61.9251 109.553 61.402 109.367C60.8782 107.335 63.0902 107.196 63.8306 105.836C61.534 107.227 59.3972 108.487 57.3025 109.766C57.2259 109.656 57.1493 109.546 57.0612 109.405C58.3559 108.497 59.6505 107.59 61.1051 106.553C58.374 106.609 56.0781 108.278 54.9292 111.046ZM49.8805 58.4992C50.0025 58.4531 50.1244 58.407 50.2769 58.3494C50.2077 58.1665 50.1881 57.93 50.0885 57.7586C48.2507 53.5406 46.413 49.3226 44.5143 45.1276C43.0222 41.8241 41.4691 38.5438 39.916 35.2634C39.6666 34.6957 39.4058 34.0974 38.6469 34.21C40.8245 43.1075 45.8745 50.5713 49.8805 58.4992ZM69.5545 109.736C69.686 110.452 69.7402 110.78 69.8134 111.066C71.694 117.149 73.5136 123.256 74.9558 129.47C75.0446 129.889 74.8901 130.679 75.5765 130.559C76.4382 130.442 75.9443 129.688 75.8745 129.227C74.9844 122.63 72.341 116.557 70.1969 110.329C70.1623 110.238 69.9943 110.162 69.5545 109.736ZM76.8933 109.61C76.7409 109.668 76.5884 109.726 76.4665 109.772C76.8236 110.717 77.1082 111.654 77.5263 112.577C79.9074 117.495 82.6619 122.203 85.6067 126.769C85.9475 127.302 86.333 127.4 86.8052 127.083C87.5782 126.547 87.0429 126.052 86.6947 125.591C83.5914 121.712 80.9413 117.557 78.7445 113.127C78.1618 111.953 77.5065 110.772 76.8933 109.61ZM61.2208 113.129C61.2765 115.581 61.7326 117.987 61.6739 120.413C61.5658 124.461 62.4685 128.509 61.628 132.555C61.496 133.127 61.7149 133.706 62.3978 133.762C63.3707 133.847 62.9682 133.059 63.0129 132.624C63.3404 127.866 62.7601 123.103 62.4088 118.393C62.2861 116.593 62.1403 114.732 61.2208 113.129ZM46.0078 83.9325C49.0856 91.3401 52.3578 98.7091 55.1728 106.251C52.9256 98.4598 50.3356 90.8678 46.0078 83.9325ZM78.4383 121.813C78.7718 123.986 79.5422 125.472 80.5071 126.919C81.9734 129.048 81.9619 129.017 84.3127 127.955C84.9719 127.671 85.1088 127.48 84.6799 126.806C83.282 124.582 81.9336 122.304 80.5852 120.026C80.0106 119.059 79.4969 118.068 78.9643 117.12C78.8234 117.208 78.671 117.265 78.5606 117.342C80.2505 120.431 81.6471 123.666 82.8113 127.024C82.072 125.805 81.3023 124.598 80.4099 123.158C80.4873 125.115 82.1913 126.213 82.1583 128.246C80.5321 126.248 79.7067 124.156 78.4383 121.813ZM62.8264 113.044C62.674 113.102 62.5405 113.118 62.3881 113.175C62.7758 115.677 63.2245 118.155 63.5093 120.66C64.0191 124.683 63.747 128.758 63.8869 132.816C63.9072 133.331 63.8138 134.098 64.6031 133.974C65.2589 133.865 64.9215 133.157 64.9241 132.703C64.8155 128.912 64.8402 125.105 64.5371 121.352C64.3126 118.545 63.6762 115.754 62.8264 113.044ZM71.2269 86.0396C71.0407 87.852 70.6851 89.0316 71.215 90.434C72.4707 93.757 73.1776 97.2875 73.812 100.81C73.9977 101.855 73.6482 102.405 72.6807 102.98C70.9782 104.007 69.1151 104.885 67.7419 106.414C70.1626 105.813 72.1043 104.313 74.1801 103.075C75.5398 102.248 74.5722 101.255 74.3675 100.252C73.3299 95.6621 72.3343 91.0911 71.2269 86.0396ZM64.5499 111.243C64.8589 112.799 65.0881 114.42 65.4696 115.983C66.5377 120.561 67.7278 125.094 67.8846 129.842C67.8942 130.605 67.9647 131.345 68.0467 132.115C68.063 132.527 67.9845 133.149 68.5414 133.148C69.2433 133.161 68.9289 132.514 68.9241 132.132C68.8759 131.175 68.7437 130.18 68.6651 129.234C68.2013 123.765 66.7042 118.512 65.7181 113.136C65.5446 112.401 65.432 111.642 64.5499 111.243ZM68.8228 110.012C68.2592 110.364 68.3324 110.65 68.4245 110.894C70.8512 117.224 71.3754 123.959 72.9023 130.49C73.0141 130.97 72.9851 131.538 73.7208 131.365C74.4566 131.191 74.1998 130.696 74.0879 130.216C73.3194 126.43 72.1124 122.775 71.1609 119.058C70.4249 116.096 69.6469 113.115 68.8228 110.012ZM65.1237 119.493C65.4323 123.905 65.7409 128.318 66.0685 132.689C66.0847 133.1 66.0977 133.688 66.742 133.549C67.2643 133.456 67.286 132.96 67.2886 132.506C67.2585 128.093 66.3246 123.777 65.1237 119.493ZM74.035 48.292C73.1078 52.7535 74.1735 70.0495 75.6432 72.0027C74.1886 63.912 74.4055 56.0955 74.035 48.292ZM65.743 110.897C67.465 117.667 69.2209 124.251 69.8217 131.096C69.8882 131.733 69.4601 132.905 70.2724 132.842C71.2182 132.763 70.5745 131.613 70.6185 130.9C70.6144 130.797 70.6103 130.694 70.5642 130.572C69.3673 124.822 68.2009 119.062 66.9925 113.282C66.8074 112.516 66.7477 111.528 65.743 110.897ZM90.3923 113.986C91.6147 116.207 93.438 117.713 95.3412 119.154C95.926 119.595 96.4104 119.586 96.928 119.112C97.2857 118.767 97.7497 118.244 97.3215 117.848C95.7922 116.475 94.1946 115.197 92.6274 113.908C93.1126 115.745 94.9223 116.386 95.5065 118.116C93.7713 116.751 92.0665 115.374 90.3923 113.986ZM71.3247 80.9509C71.2281 85.0288 74.8925 99.7054 76.3222 100.907C74.5391 94.16 72.6003 87.6459 71.3247 80.9509ZM68.5584 115.582C69.2816 119.524 69.9932 123.436 70.6859 127.39C70.9144 128.732 71.1313 130.044 71.3902 131.374C71.4675 131.763 71.4309 132.404 72.0447 132.277C72.6165 132.13 72.3367 131.574 72.2479 131.155C72.0391 130.049 71.7884 128.925 71.5491 127.83C70.6843 123.698 70.0749 119.503 68.5584 115.582ZM58.1798 38.3264C58.286 44.1394 59.4903 49.8162 60.5917 55.497C59.4903 49.8162 59.9066 43.9103 58.1798 38.3264ZM68.8915 41.5952C68.1121 47.1854 68.744 52.7301 69.4368 58.2517C69.2589 52.7097 69.5843 47.1169 68.8915 41.5952ZM60.5843 117.898C60.5243 122.903 60.6094 127.923 60.332 132.905C61.4753 127.909 61.3597 122.901 60.5843 117.898ZM60.1007 31.6081C61.3655 29.423 61.9281 24.0889 61.1759 22.2827C60.0758 24.7191 59.8294 26.833 60.1007 31.6081ZM48.1861 23.2194C46.7283 26 47.068 29.1117 48.7984 30.0954C49.8111 27.7965 49.1572 25.6048 48.1861 23.2194ZM51.7559 41.2415C53.3531 45.3762 54.6373 49.4202 55.9635 53.4831C55.1834 49.6667 54.2509 45.908 53.2574 42.1723C53.1415 41.589 52.8162 41.1893 51.7559 41.2415ZM71.0316 102.488C70.6627 98.3771 69.5507 94.512 68.2326 90.655C68.4565 94.7512 69.908 98.5926 71.0316 102.488ZM78.4394 119.234C76.6187 115.707 75.3582 112.002 74.0863 108.267C73.9596 107.932 73.7637 107.413 73.3484 107.605C72.8417 107.832 73.11 108.357 73.2902 108.742C74.4944 111.283 75.2832 114.016 76.7197 116.435C77.2523 117.383 77.1602 118.707 78.4394 119.234ZM56.4669 124.889C56.3858 127.533 56.6055 129.958 55.9552 132.294C55.9288 132.409 56.1585 132.74 56.3035 132.755C56.6355 132.804 56.7263 132.491 56.7981 132.22C57.115 130.846 57.371 129.495 57.688 128.121C57.9901 126.892 58.0408 125.827 56.4669 124.889ZM30.1663 39.8881C29.6344 39.2181 29.2631 38.6965 28.8423 38.2283C28.1004 37.4635 27.4574 36.5916 26.3009 36.2969C25.8009 36.1723 25.5305 36.379 25.3978 36.673C25.1248 37.3336 25.3972 37.9623 25.799 38.4725C26.1778 38.9216 26.9915 39.4155 27.3072 39.0523C28.0375 38.2189 28.295 38.9926 28.6771 39.2663C29.0518 39.6125 29.3845 39.9397 30.1663 39.8881ZM39.0759 44.0121C38.935 44.1002 38.794 44.1883 38.6721 44.2344C40.7293 47.7424 42.817 51.2388 44.8741 54.7468C43.2207 51.0166 41.5064 47.3094 39.0759 44.0121ZM71.3282 109.727C71.9369 113.643 74.1596 119.249 75.3602 120.398C73.9548 116.678 72.6415 113.203 71.3282 109.727ZM74.3822 34.6429C74.7246 38.8685 73.9113 43.0779 74.1088 47.2886C74.3957 43.0691 75.5295 38.8779 74.3822 34.6429ZM63.1509 49.2691C62.9101 46.0503 62.6274 42.8125 62.3866 39.5937C62.2111 39.5903 62.0167 39.6289 61.8412 39.6256C61.5901 42.9257 62.3342 46.0937 63.1509 49.2691ZM78.9023 103.033C80.972 102.425 82.4069 101.151 83.2374 99.2C81.5003 100.135 79.6792 101.032 78.9023 103.033ZM66.9651 38.5256C67.8179 36.3568 67.5874 34.1793 67.7079 32.0086C67.7261 31.6881 67.6184 31.3107 67.2254 31.285C66.8629 31.2478 66.7952 31.6218 66.8149 31.8582C66.8394 34.0439 66.9175 36.279 66.9651 38.5256ZM64.6495 30.8299C64.4815 30.7541 64.3249 30.7087 64.1569 30.6328C63.9389 31.8998 62.5825 32.5516 62.4979 33.803C62.4323 35.0124 61.9507 36.135 62.2286 37.4236C63.0699 35.2244 63.8692 33.0061 64.6495 30.8299ZM88.6753 110.733C87.0246 108.116 85.3436 105.512 83.6929 102.895C84.7914 105.894 86.3126 108.629 88.6753 110.733ZM71.5442 107.625C68.8451 108.227 66.0809 108.749 63.6507 110.155C66.4651 109.858 68.9643 108.635 71.5442 107.625ZM75.6823 124.109C75.6764 126.306 76.6989 127.905 76.8941 129.713C76.964 130.174 77.361 130.303 77.7763 130.111C78.2946 129.915 78.1333 129.488 77.9761 129.165C77.2741 127.583 76.53 125.983 75.6823 124.109ZM29.6433 30.5744C31.1867 31.5242 32.6996 32.4855 34.2316 33.4047C34.5066 33.5795 34.8664 34.0707 35.1665 33.574C35.4097 33.2034 35.0771 32.8762 34.718 32.6635C33.1176 31.8398 31.707 30.596 29.6433 30.5744ZM57.6008 113.138C57.3808 115.137 57.4697 117.124 58.1345 119.068C58.5069 117.011 58.3991 115.066 57.6008 113.138ZM56.2004 112.935C56.1469 112.886 56.0053 112.695 55.8487 112.65C55.1617 112.491 54.8732 113.019 54.6225 113.462C54.296 114.073 53.813 114.639 54.1315 115.389C54.166 115.481 54.395 115.534 54.5285 115.518C55.1884 115.512 56.4274 113.72 56.2004 112.935ZM40.3004 74.4525C41.3128 76.5785 42.607 78.5282 44.122 80.3249C43.4409 77.9692 41.8155 76.2491 40.3004 74.4525ZM23.3857 55.6895C22.9086 54.0581 22.0819 52.9769 20.5385 52.0271C21.0007 53.8035 21.618 55.0684 23.3857 55.6895ZM76.0771 121.834C76.8951 123.999 77.9203 126.712 78.9456 129.425C79.0981 129.368 79.239 129.28 79.3609 129.234C78.1832 126.578 77.0055 123.922 76.0771 121.834ZM68.7278 97.9586C68.6248 97.9626 68.5333 97.9972 68.4303 98.0013C68.7658 99.4423 69.1013 100.883 69.4672 102.313C69.5635 102.66 69.283 103.393 69.9084 103.296C70.5947 103.176 70.4747 102.49 70.2789 101.971C69.753 100.672 69.2346 99.3 68.7278 97.9586ZM24.6755 54.4008C25.0578 56.2422 26.7409 58.1147 28.7301 58.8612C27.3072 57.3084 26.0679 55.965 24.6755 54.4008ZM29.8445 48.441C29.8254 46.9153 28.6946 46.2277 27.9709 45.1424C27.6011 46.7454 28.2218 47.8348 29.8445 48.441ZM69.3423 35.7808C69.7899 33.2774 69.6435 32.7056 68.3677 32.0031C68.4817 33.3188 68.1952 34.6813 69.3423 35.7808ZM50.6158 114.383C51.9416 113.743 52.4192 112.517 53.1949 111.528C53.3127 111.378 53.415 111.096 53.1515 110.952C52.9834 110.876 52.6094 110.808 52.56 110.862C51.8954 112.053 51.2499 113.203 50.6158 114.383ZM50.3547 30.0647C49.2186 31.8528 50.1286 32.6935 51.1307 33.7781C51.3941 32.3546 50.7091 31.4638 50.3547 30.0647ZM65.0897 118.112C64.5428 116.019 64.6287 113.757 63.6319 111.765C63.668 113.981 64.5733 116.008 65.0897 118.112ZM60.1476 33.5762C59.677 36.0187 59.677 36.0187 60.8695 36.9617C61.1756 35.8356 60.9099 34.856 60.1476 33.5762ZM72.3639 105.922C72.3063 105.769 72.2372 105.586 72.1796 105.434C70.4879 106.213 68.7542 106.972 67.0625 107.751C68.992 107.509 70.7528 106.914 72.3639 105.922ZM20.6705 42.3265C20.8286 44.4966 22.651 44.1563 23.5684 44.9245C22.7689 44.0073 22.0378 42.9944 20.6705 42.3265ZM60.4475 39.0721C60.5701 37.7368 59.7095 36.8425 58.9357 35.5323C58.8979 37.184 59.4346 38.2355 60.4475 39.0721ZM65.6554 28.882C65.2746 27.5975 64.8937 26.313 64.5129 25.0284C64.3909 25.0745 64.227 25.1016 64.105 25.1477C64.017 26.5745 64.3979 27.8591 65.6554 28.882ZM12.7538 41.6598C12.5981 43.4606 13.6557 43.8623 14.981 44.5112C14.4247 43.2233 13.7667 42.4964 12.7538 41.6598ZM80.4198 128.624C80.2293 127.198 79.3912 126.087 78.614 124.952C78.8234 126.336 79.5207 127.536 80.4198 128.624ZM50.8945 27.8052C50.9772 28.854 50.7856 30.0064 51.7795 30.8851C52.0816 29.6561 51.671 28.6615 50.8945 27.8052ZM17.8719 44.3247C17.8862 45.469 18.0719 46.5137 19.2414 47.3957C19.1769 46.0265 18.6558 45.1085 17.8719 44.3247ZM55.3661 108.791C54.0734 108.966 53.2366 108.411 52.2116 108.833C53.1643 109.971 54.0234 110.309 55.3661 108.791ZM56.5774 27.5392C56.3476 25.6402 56.2439 25.3658 55.3793 24.3685C55.2155 25.9634 55.4113 26.4817 56.5774 27.5392ZM25.8839 41.9244C25.3269 40.358 24.4549 39.4333 23.2441 38.8107C23.9143 39.8466 24.3256 41.1196 25.8839 41.9244ZM67.7756 22.5065C67.2526 23.8886 66.8889 24.8623 67.4255 25.9137C67.8008 24.9706 68.4241 24.0383 67.7756 22.5065ZM52.7345 107.451C53.6438 108.013 54.4683 108.259 55.3904 107.841C55.4514 107.818 55.5001 107.486 55.4351 107.406C54.6898 106.817 53.8354 106.861 52.9892 107.111C52.9398 107.164 52.8903 107.218 52.7345 107.451ZM72.8527 110.719C73.2926 112.713 73.6294 114.711 74.9724 116.329C74.2697 114.469 73.5554 112.579 72.8527 110.719ZM53.9256 36.3802C52.0856 37.3194 52.8668 38.5571 52.8235 39.549C53.4929 38.7387 53.4826 37.6973 53.9256 36.3802ZM49.6471 35.3839C50.5928 33.7375 49.2716 33.1915 48.5296 32.4267C48.8752 33.3413 49.2208 34.2559 49.6471 35.3839ZM76.0194 30.4009C74.5147 31.2133 74.4254 32.0833 75.0962 33.3976C75.6659 32.4158 75.6712 31.508 76.0194 30.4009ZM22.1521 49.0134C22.1378 47.8691 21.32 47.2723 20.6085 46.4959C20.1242 48.0725 21.4142 48.3515 22.1521 49.0134ZM34.7617 37.9426C34.1187 37.0707 33.2176 36.7144 32.0529 36.2138C32.6479 37.6962 33.7732 37.7239 34.7617 37.9426ZM25.3127 49.9095C25.5818 50.7137 25.0697 51.8479 26.1503 52.3106C26.3603 52.4054 26.5162 52.1723 26.569 51.9433C26.8487 50.9318 25.9855 50.4915 25.3127 49.9095ZM17.1775 53.3668C18.1823 53.9975 19.0163 55.0062 20.3774 54.7358C19.3842 54.1356 18.4478 53.4094 17.1775 53.3668ZM69.7016 74.0736C69.9794 75.3622 70.2573 76.6508 70.5237 77.9089C70.3068 76.5973 70.7762 75.1656 69.7016 74.0736ZM22.7091 41.4517C22.1257 39.9998 21.3648 39.277 20.3945 38.7378C20.7672 39.8163 21.3987 40.6578 22.7091 41.4517ZM34.816 30.7102C34.7171 30.8173 34.6182 30.9243 34.5078 31.0009C35.0099 31.9609 35.7437 32.5198 36.9869 32.3984C36.2531 31.8395 35.5498 31.2691 34.816 30.7102ZM36.1938 26.4269C36.011 28.0638 36.011 28.0638 37.4548 28.8421C37.4141 27.8123 36.7718 27.2189 36.1938 26.4269ZM71.6379 38.5367C70.5269 39.6534 71.384 40.7231 71.6957 41.8247C71.674 40.7529 71.6712 39.639 71.6379 38.5367ZM75.8437 27.262C74.6852 27.6998 74.6873 28.5351 74.5938 29.3021C74.5715 29.5196 74.8276 29.7363 75.0295 29.6252C75.6657 29.2803 75.5951 28.5405 75.8187 27.9334C75.8756 27.8074 75.8485 27.6434 75.8437 27.262ZM33.3022 26.335C33.3734 27.3533 33.6275 28.3025 34.7814 29.051C34.3741 27.881 34.082 27.0158 33.3022 26.335Z" fill="#91BAE2"/>
<path d="M18.4805 34.4089C16.994 33.3332 15.4885 32.2994 14.002 31.2236C15.9485 31.6727 17.4425 32.676 18.7732 33.9848C18.6553 34.1339 18.5679 34.2714 18.4805 34.4089Z" fill="#91BAE2"/>
<path d="M63.5983 21.6806C63.5304 20.4869 63.4931 19.2816 63.4252 18.0878C64.3664 19.1955 64.0643 20.4245 63.5983 21.6806Z" fill="#91BAE2"/>
<path d="M58.8298 104.868C55.5994 95.9504 51.1956 87.6153 47.2871 79.0234C51.592 87.4655 56.6854 95.5052 58.8298 104.868Z" fill="#91BAE2"/>
<path d="M36.3125 62.5117C37.8939 63.3775 43.9088 72.2883 44.724 74.9068C41.5903 71.0391 39.1875 66.6165 36.3125 62.5117Z" fill="#91BAE2"/>
<path d="M30.1309 54.3604C32.1832 55.9191 33.2836 58.186 34.6049 60.2997C32.6935 58.6529 31.5016 56.4206 30.1309 54.3604Z" fill="#91BAE2"/>
<path d="M43.1643 75.3914C41.4025 72.5731 39.401 69.9499 37.2422 67.0029C38.5214 67.5299 41.9784 72.5297 43.1643 75.3914Z" fill="#91BAE2"/>
<path d="M62.7172 103.261C61.6343 100.395 60.5399 97.4986 59.457 94.6328C61.485 97.1415 61.7563 100.349 62.7172 103.261Z" fill="#91BAE2"/>
<path d="M61.5263 66.8164C62.7529 70.7079 63.6516 74.6537 64.6228 78.6069C64.5008 78.653 64.3369 78.6801 64.2149 78.7262C63.1828 74.796 62.1391 70.8354 61.0765 66.9167C61.2404 66.8896 61.3739 66.874 61.5263 66.8164Z" fill="#91BAE2"/>
<path d="M66.6572 52.6475C66.4247 51.2024 65.7118 49.8692 66.2225 48.1781C67.203 49.7586 66.6841 51.2437 66.6572 52.6475Z" fill="#91BAE2"/>
<path d="M97.9267 91.3703C96.3457 89.7695 95.8377 87.6962 95.5347 85.5953C95.2312 83.443 95.5695 81.3357 96.628 79.4009C96.8297 79.0397 96.9295 78.7565 96.5665 78.3752C95.9439 77.6886 96.0138 76.9695 96.7522 76.3977C97.4144 75.9037 97.3834 75.3652 96.9666 74.7279C96.1063 73.3508 95.2459 71.9738 94.1562 70.753C93.8448 70.3969 93.5334 70.0408 93.273 69.6585C92.8826 69.0979 92.7818 66.687 93.1658 66.6063C94.0623 66.4435 94.3539 67.3899 94.8205 67.8728C96.3755 69.4482 97.8801 71.1011 99.3589 72.7542C99.774 73.2119 100.161 73.439 100.801 73.3044C101.569 73.1428 102.338 73.0582 102.682 74.0812C102.841 74.5927 103.352 74.4081 103.686 74.3791C107.889 73.927 111.141 75.8961 113.659 78.8475C115.528 81.0356 116.736 83.7947 116.254 86.9041C115.892 89.2168 114.315 90.6436 112.297 91.6129C111.914 91.7963 111.505 91.9287 111.252 92.2904C108.9 95.6748 102.64 95.7368 99.8968 93.4034C99.1465 92.7694 98.2694 92.2906 97.8751 91.3451C98.2333 91.239 98.4881 91.0568 98.8518 91.5151C101.008 94.2391 103.937 94.595 107.088 94.102C107.652 94.0194 108.446 93.9346 108.568 93.2919C108.691 92.7263 107.996 92.5535 107.532 92.3272C107.352 92.252 107.63 91.8131 107.219 91.7915C106.892 92.4618 106.814 92.3343 106.303 92.5703C105.205 93.0943 104.248 92.334 103.527 92.0333C102.47 91.5819 101.157 91.1587 100.479 90.0108C100.375 89.8579 99.9347 89.4517 99.8361 89.8632C99.6131 90.6608 99.3258 90.1505 99.1442 89.9471C98.4952 89.1837 97.8973 88.3943 97.1698 87.4778C97.4161 89.0405 98.7576 89.7713 99.3606 91.0739C98.7174 90.9006 97.9638 89.9331 97.9267 91.3703ZM103.709 84.4881C103.256 82.8761 102.218 81.6035 101.306 80.2527C101.758 81.8646 102.721 83.1893 103.708 84.4624C103.865 84.6918 104.149 84.8943 103.922 85.2814C102.89 84.7014 102.519 83.4992 101.536 82.7135C101.572 83.7652 102.603 84.2938 102.614 85.3969C101.399 84.4853 100.823 83.2594 99.8859 81.9345C100.442 83.6737 101.403 84.8188 101.955 86.1989C100.845 85.5171 100.295 84.3679 99.4135 83.453C99.9629 84.5252 100.512 85.5973 101.062 86.6695C100.985 86.7216 100.883 86.7483 100.806 86.8004C100.13 85.832 99.4531 84.8637 98.5943 83.6407C99.0228 85.4581 100.188 86.5755 100.69 88.0074C99.7358 87.5037 99.2903 86.5588 98.4848 85.5404C100.144 89.9115 103.336 90.9575 106.773 90.7952C107.44 90.763 108.102 90.2946 107.917 89.7063C107.679 88.9646 108.191 88.9338 108.497 88.6999C109.439 87.9722 110.563 87.4479 111.526 86.2581C110.326 86.8344 109.72 87.8667 108.463 87.8535C108.788 87.0293 109.789 87.0194 110.063 86.1699C109.27 86.4344 108.711 87.03 107.967 87.0117C108.29 85.9822 108.614 84.9784 109.739 84.531C109.25 84.4589 108.998 84.8976 108.508 84.6458C108.735 84.2074 109.35 84.1757 109.523 83.5325C108.733 84.0791 108.422 83.6974 108.184 83.0326C107.868 82.2147 107.68 81.3185 106.877 80.5824C107.015 81.5047 107.509 82.2182 107.315 83.2978C106.426 81.6132 105.87 79.9509 104.5 78.8612C105.283 80.2646 106.373 81.5367 106.238 83.3598C105.819 82.5942 105.376 81.8545 104.854 80.936C105.046 82.2426 105.877 83.1837 105.812 84.416C105.169 84.294 105.393 83.599 104.904 83.4499C104.883 83.9376 105.324 84.3695 104.868 84.9385C104.654 84.0939 104.12 84.5866 103.709 84.4881ZM94.0302 68.3938C93.7526 68.8584 93.9347 69.1131 94.1677 69.3161C95.6188 70.7642 96.9168 72.2909 97.8587 74.1289C98.0154 74.4096 98.1983 74.7413 98.5839 74.8145C98.9182 74.8881 99.3035 74.9356 99.5314 74.6255C99.7844 74.2638 99.3213 74.1401 99.1656 73.962C98.5948 73.3262 98.0241 72.6904 97.4536 72.0803C96.3125 70.86 95.4768 69.3801 94.0302 68.3938ZM112.629 88.8129C112.706 88.7865 113.063 88.629 113.447 88.497C113.239 88.2681 112.807 88.6059 112.826 88.0156C112.845 87.297 113.227 87.0366 114.125 87.0278C112.786 86.5792 112.018 86.7407 111.8 88.0001C111.751 88.2315 111.574 88.4642 111.447 88.6707C111.169 89.1096 110.558 89.5262 110.974 90.1122C111.391 90.7239 111.976 90.2049 112.489 90.1999C112.643 90.1983 112.796 90.1198 112.924 90.0673C113.048 89.6555 111.846 90.0779 112.533 89.4553C113.245 88.8582 111.916 89.4101 112.629 88.8129ZM98.7587 76.9167C99.1163 76.7592 99.5766 76.6007 99.649 76.1381C99.7229 75.8295 99.3376 75.782 99.1062 75.733C98.6177 75.6352 98.3888 75.8427 98.3936 76.3302C98.4218 76.5865 98.3733 76.8692 98.7587 76.9167Z" fill="#91BAE2"/>
<path d="M21.591 121.221C21.4277 118.977 22.3872 117.07 23.5205 115.275C24.6869 113.441 26.3122 112.058 28.3734 111.273C28.7613 111.13 29.0211 110.979 28.9925 110.453C28.9646 109.527 29.4846 109.025 30.4175 109.07C31.2419 109.124 31.5679 108.694 31.6646 107.939C31.9041 106.333 32.1436 104.727 32.1073 103.091C32.1016 102.618 32.0959 102.145 32.146 101.685C32.213 101.005 33.7013 99.1058 34.0459 99.2937C34.8335 99.7518 34.4409 100.661 34.4823 101.331C34.6424 103.539 34.7138 105.773 34.7655 107.99C34.7841 108.608 34.9311 109.032 35.5054 109.345C36.1946 109.721 36.8343 110.156 36.4317 111.157C36.2205 111.649 36.7293 111.841 37.0016 112.035C40.4924 114.42 41.688 118.029 41.6873 121.909C41.6885 124.786 40.8159 127.669 38.4305 129.721C36.6537 131.245 34.5282 131.307 32.3645 130.735C31.954 130.625 31.5569 130.46 31.1296 130.571C27.143 131.618 22.3412 127.602 21.7697 124.046C21.6105 123.077 21.2542 122.143 21.5681 121.168C21.9095 121.32 22.2215 121.347 22.2007 121.932C22.0727 125.404 24.0692 127.575 26.786 129.246C27.2684 129.549 27.9278 130 28.4377 129.591C28.8983 129.24 28.4822 128.658 28.2761 128.184C28.1877 128.01 28.6841 127.857 28.3857 127.574C27.7018 127.871 27.7251 127.723 27.1834 127.571C26.0079 127.257 25.7736 126.058 25.4202 125.36C24.9096 124.331 24.1858 123.157 24.4149 121.844C24.435 121.66 24.3638 121.065 24.0217 121.314C23.3343 121.776 23.4471 121.201 23.441 120.929C23.4429 119.927 23.5006 118.938 23.5422 117.769C22.7151 119.117 23.2611 120.544 22.8741 121.926C22.4974 121.377 22.5522 120.152 21.591 121.221ZM30.4567 119.739C31.1592 118.22 31.1951 116.577 31.3788 114.958C30.6763 116.478 30.5484 118.11 30.4731 119.72C30.4431 119.996 30.5278 120.334 30.1038 120.481C29.6953 119.37 30.1934 118.215 29.956 116.979C29.3007 117.802 29.7422 118.874 29.0343 119.72C28.702 118.238 29.0592 116.931 29.2068 115.315C28.5007 116.999 28.488 118.494 28.0123 119.902C27.6106 118.663 27.9381 117.432 27.8616 116.164C27.5835 117.336 27.3054 118.508 27.0273 119.68C26.9353 119.67 26.8401 119.624 26.7482 119.614C26.862 118.438 26.9759 117.263 27.1167 115.775C26.2628 117.435 26.424 119.042 25.8761 120.457C25.4772 119.454 25.7517 118.446 25.8001 117.149C24.225 121.551 25.9738 124.419 28.6931 126.526C29.2212 126.935 30.0292 127.008 30.2701 126.44C30.5704 125.722 30.9804 126.031 31.3647 126.052C32.5538 126.11 33.7489 126.44 35.2539 126.161C33.9669 125.82 32.8361 126.212 31.8883 125.386C32.6709 124.97 33.4384 125.612 34.1981 125.144C33.4234 124.83 32.6118 124.921 32.0576 124.424C32.9719 123.85 33.8697 123.297 35.0155 123.687C34.6909 123.315 34.2143 123.485 34.005 122.975C34.462 122.789 34.9507 123.164 35.5 122.787C34.5443 122.69 34.5551 122.198 34.8059 121.538C35.0966 120.711 35.535 119.907 35.4023 118.826C34.9081 119.616 34.8211 120.48 33.9722 121.175C34.3896 119.316 35.0464 117.692 34.7112 115.973C34.3962 117.549 34.3996 119.224 33.1128 120.523C33.2918 119.669 33.4346 118.819 33.6336 117.781C32.9319 118.9 32.9525 120.155 32.1033 121.05C31.6936 120.54 32.3152 120.157 32.0401 119.726C31.7076 120.083 31.7623 120.698 31.0459 120.834C31.4317 120.053 30.7057 120.082 30.4567 119.739ZM33.543 101.215C33.0302 101.388 33.0034 101.7 33.0488 102.005C33.2125 104.049 33.2088 106.053 32.732 108.062C32.669 108.377 32.5927 108.749 32.8385 109.054C33.045 109.328 33.3073 109.614 33.6819 109.526C34.1092 109.415 33.8372 109.02 33.8344 108.784C33.813 107.93 33.7916 107.075 33.7537 106.241C33.678 104.572 34.003 102.904 33.543 101.215ZM34.4343 128.82C34.5098 128.85 34.8841 128.962 35.2616 129.111C35.2523 128.802 34.7037 128.778 35.102 128.342C35.5826 127.807 36.0425 127.857 36.7312 128.433C36.0042 127.223 35.3151 126.847 34.3313 127.663C34.1438 127.808 33.8579 127.87 33.6278 127.945C33.1315 128.098 32.3958 128.018 32.3321 128.734C32.2518 129.47 33.0337 129.455 33.4273 129.784C33.5454 129.883 33.7128 129.922 33.8441 129.965C34.2059 129.733 33.0176 129.274 33.944 129.246C34.8737 129.254 33.5047 128.812 34.4343 128.82ZM31.6068 110.767C31.981 110.879 32.434 111.058 32.7894 110.753C33.046 110.566 32.7837 110.28 32.6395 110.092C32.3314 109.701 32.0226 109.71 31.7099 110.084C31.5649 110.297 31.3445 110.481 31.6068 110.767Z" fill="#91BAE2"/>
</svg>
