<svg width="103" height="103" viewBox="0 0 103 103" fill="none" xmlns="http://www.w3.org/2000/svg">
<path d="M92.5637 10.5595C88.851 10.5595 85.0431 10.5119 81.2352 10.5595C79.95 10.5595 78.7125 10.2264 77.4273 10.4643C76.6657 10.6071 76.2373 10.6547 76.7609 11.5591C77.5225 12.8919 78.1413 14.2722 78.9029 15.605C79.5692 16.8902 79.4265 18.2705 79.4265 19.6033C79.6169 28.409 79.7596 37.2148 79.9976 46.0205C80.0452 47.4961 79.6644 47.8769 78.0937 47.8769C70.8111 47.7341 63.5285 47.7341 56.2459 48.0673C53.9612 48.1625 51.6288 48.1149 49.3441 48.4481C48.5349 48.5909 48.0114 48.2577 48.0114 47.3533C48.0114 46.4013 48.4873 46.0205 49.4393 46.2585C51.0101 46.6869 52.5808 46.2585 54.1516 46.3061C54.8655 46.3061 55.2939 46.0205 54.6275 45.3065C52.2 42.7362 52.3428 39.6423 53.152 36.5484C53.6756 34.4541 53.3424 32.6453 52.3904 30.7414C51.1052 28.1234 51.3432 25.2199 51.4384 22.4116C51.5336 20.7456 51.1052 20.698 49.7725 21.2692C47.5829 22.2212 47.1546 21.888 47.1546 19.6033C47.2022 15.5574 49.1537 12.8919 53.0568 11.7495C54.104 11.4639 54.6275 10.9879 54.6275 9.79795C54.5799 7.41802 57.0551 4.80011 59.197 4.75251C58.7686 6.13287 57.1027 6.65645 56.7695 8.4652C58.6258 7.37043 60.2442 6.41845 61.3866 4.80009C60.8154 4.4193 60.149 5.51408 59.8634 4.6097C59.6254 3.84812 60.3394 3.51494 60.863 3.22934C61.6246 2.75336 62.6717 2.75336 63.3381 3.03895C65.0516 3.80053 66.7176 3.41973 68.4788 3.37213C70.6207 3.32454 72.7626 3.22935 75.095 3.03895C74.5714 2.56297 73.7622 2.37256 74.0954 1.70618C74.4286 0.992202 75.0474 1.5634 75.4282 1.65859C78.9029 2.37257 82.3776 3.03895 85.7571 3.94332C87.0898 4.27651 88.3274 5.03809 89.5173 5.79967C90.2789 6.27565 90.6121 6.13287 91.0405 5.46649C92.4209 3.32455 92.7065 3.22935 95.372 3.99093C95.2292 4.7525 94.0868 4.7525 94.1344 5.65688C95.7052 5.94247 96.6096 5.08569 97.4187 3.84812C97.8471 5.03809 97.8471 5.22848 96.9428 5.79967C96.1336 6.32325 95.3244 6.79924 94.3248 6.98963C93.8012 7.08483 93.0396 7.22762 93.0872 7.89401C93.1348 8.75078 94.0392 8.60799 94.6104 8.60799C95.372 8.60799 96.1336 8.3224 96.9428 8.1796C97.2283 8.132 97.5139 8.08441 97.7995 8.08441C99.0371 8.03681 100.655 7.70362 100.941 9.22678C101.227 10.7975 99.5607 10.8451 98.4659 11.1783C95.9908 11.9399 95.6576 13.3203 97.3711 16.319C98.2755 14.7006 98.9419 12.9871 100.465 11.7495C101.941 14.4626 98.7991 15.4622 98.4183 17.5089C98.7039 18.0801 99.0371 17.2233 99.4655 17.5089C99.2275 18.9845 97.6091 19.7937 97.2283 21.5548C98.2755 20.5553 99.2751 19.9365 100.798 19.7461C99.7987 21.7452 97.3235 22.1736 96.562 24.4107C97.7995 23.8872 98.2755 22.5068 99.6559 22.2688C99.7511 23.3636 99.1799 24.1727 98.5611 24.6963C96.9427 26.1719 96.324 27.9806 96.324 30.0274C96.324 30.9317 95.7052 31.5505 95.6576 32.4073C95.6576 32.4549 95.5624 33.9305 95.0388 32.5501C94.896 32.2169 94.7532 32.6453 94.7532 32.6929C94.4676 33.4069 94.2296 34.1685 93.9916 34.8824C94.7056 34.93 94.9912 35.7868 95.8004 35.7392C96.9427 35.644 97.9899 36.1676 99.0371 36.6436C100.893 37.548 101.274 38.3571 101.084 40.4039C100.941 42.0698 101.036 43.7358 101.084 45.4017C101.084 45.9729 100.941 46.4965 100.846 47.0677C100.655 48.2577 100.275 48.1625 99.2751 47.7341C96.9427 46.8297 95.134 45.2589 93.0872 43.831C92.5161 45.3065 92.6589 46.7821 92.8969 48.1625C93.1349 49.4952 94.4676 49.9712 95.5148 50.4948C99.0371 52.2559 100.798 55.2071 100.513 59.1577C100.417 60.3477 100.655 61.5853 100.989 62.7752C101.274 63.9176 101.131 64.584 99.8463 64.5364C98.8943 64.4888 98.8467 64.9172 98.8943 65.6312C99.0371 68.1539 98.8467 70.6766 98.7039 73.1993C98.6087 75.0081 99.3703 76.3409 100.989 77.2452C101.75 77.6736 102.655 78.102 102.274 79.1492C101.941 80.0536 100.941 80.1012 100.084 80.1012C98.2755 80.1012 96.8475 79.2444 95.5624 78.0544C95.0388 77.5784 94.5628 76.9596 94.0868 76.4361C93.1349 82.1955 93.1348 88.2881 99.2751 91.0964C100.132 91.4772 100.941 92.0484 101.703 92.6196C102.512 93.286 102.702 94.0952 102.369 95.1899C102.036 96.2847 101.227 96.1419 100.465 96.1419C97.8947 96.1419 95.2768 96.1419 92.3257 96.1419C93.3252 97.0463 94.182 97.4271 95.134 97.7126C95.6576 97.8554 96.2288 98.0458 96.7523 98.2362C97.7519 98.617 98.7991 98.9978 98.5135 100.473C98.2279 101.854 97.2283 102.282 96.0384 102.282C90.7549 102.473 85.5191 102.615 80.2356 102.568C77.1893 102.568 74.0954 102.33 71.0015 102.615C70.3351 102.663 69.6211 102.853 69.0975 102.235C68.9072 102.044 68.7644 101.949 68.3836 102.044C65.6704 103.091 62.9573 102.758 60.149 102.377C59.0066 102.235 57.6263 102.806 56.2935 102.806C53.1996 102.806 50.1057 102.568 47.0118 102.948C46.2026 103.044 45.5362 102.758 45.5362 101.759C45.5362 100.759 46.1074 100.521 46.9642 100.569C50.6769 100.807 54.4372 100.378 58.1499 100.569C61.4342 100.759 64.7661 100.807 67.9076 100.616C72.1439 100.331 76.3325 100.569 80.5212 100.283C81.9968 100.188 83.4247 100.473 84.9003 100.426C86.0903 100.378 87.0898 100.378 87.2326 98.9502C85.0907 98.6646 82.8536 98.9502 80.1404 98.855C82.4728 96.8559 84.9003 97.3318 87.1374 96.8083C80.8544 96.1419 74.5714 96.6179 68.2408 96.5703C69.7163 97.0939 71.1443 97.6651 72.6198 98.141C73.1434 98.3314 73.5718 98.0459 74.0002 97.6651C75.1426 96.6179 76.4753 96.8083 77.8557 97.0463C78.3317 97.1415 78.7601 97.3795 78.7601 97.9031C78.7601 98.5218 78.1413 98.4266 77.7129 98.4742C77.3321 98.5218 76.9513 98.5694 76.5705 98.379C75.9042 98.0459 74.857 97.9982 74.4762 98.4742C73.3338 100.045 72.1438 99.093 70.9539 98.855C66.908 97.9983 62.8145 97.903 58.6734 98.0934C57.4359 98.141 56.2459 98.0934 55.0083 98.2362C58.721 98.7598 62.5289 98.2838 66.1464 99.6166C60.1966 99.1882 54.2468 99.9974 48.3445 99.2358C49.2489 98.379 50.4389 99.093 51.2004 98.5694C47.7257 95.0947 42.9183 94.4759 38.5392 92.8576C38.92 92.0008 39.9196 92.7624 40.4907 92.0008C38.444 92.0008 36.4925 92.0008 34.3029 92.0008C35.1121 93.0004 36.2069 92.9528 37.016 93.4764C37.3492 93.6668 37.7776 93.7144 38.1108 93.9048C38.6344 94.1428 39.158 94.5235 38.9676 95.1899C38.8248 95.8087 38.1584 95.7135 37.6824 95.7135C34.5409 95.8087 31.3518 95.9515 28.2103 95.9991C20.5945 96.0943 12.9311 96.0943 5.31537 96.1419C4.45859 96.1419 3.64942 96.4751 2.79264 96.1895C1.88827 95.9039 0.793489 95.9039 0.698291 94.6187C0.555496 93.286 1.22188 92.4292 2.36424 91.9532C5.02977 90.8109 7.64769 89.6685 10.3608 88.7165C11.4556 88.3357 11.6936 87.6217 11.17 87.003C8.93286 84.3374 8.74247 81.3863 9.83724 78.1972C9.21845 79.3872 8.59966 80.4343 7.50489 81.1007C6.41012 81.7671 5.45814 81.5767 4.55377 80.8151C4.07778 80.3867 3.93501 79.9108 4.36339 79.3396C5.64856 77.4832 5.74374 75.7697 4.31578 74.3417C2.45943 72.4854 2.22145 70.2006 1.98346 67.8207C1.88826 66.5355 1.84065 65.2504 1.79305 63.9652C1.74546 62.3469 2.45944 60.9189 3.697 60.2049C5.83894 59.015 7.93329 57.587 10.456 57.1586C11.0748 57.0634 11.6936 56.9682 11.646 56.0638C11.5984 54.8739 10.7416 55.5879 10.2656 55.4451C9.40883 55.2071 8.64725 55.3975 7.88567 55.921C7.0289 56.4446 5.93415 56.9682 5.07737 56.0638C4.173 55.1119 4.2682 53.9219 5.17258 52.8747C5.69616 52.2559 6.02935 51.5896 6.12455 50.7804C6.26734 49.4476 7.93329 48.4481 10.0752 48.2101C10.5512 48.1625 11.2176 48.4957 11.4556 47.9245C11.6936 47.3057 10.9796 46.9725 10.5988 46.5917C8.83765 45.021 7.1717 43.4502 4.64897 43.0694C3.12582 42.8314 2.31666 41.2607 1.60268 40.0231C0.7935 38.5475 0.317491 36.7864 0.0318989 35.1204C-0.206094 33.6449 0.936296 33.7877 1.84067 34.2161C3.12583 34.7872 4.31578 35.5012 5.74374 36.3104C5.60094 34.4541 4.41099 33.2641 3.7922 31.8837C3.55421 31.3125 3.07822 30.8366 3.07822 30.1702C3.07822 29.6942 3.12582 29.0278 3.93499 29.5038C4.74417 29.9798 4.69658 29.4562 4.74418 28.885C4.79177 27.4095 4.55378 26.1719 2.74503 26.0291C2.60223 26.0291 2.41184 26.0291 2.36424 25.8387C1.55507 23.4588 0.936296 21.0788 0.650704 18.5561C2.45945 18.5561 2.74504 20.2221 3.88741 21.2692C4.1254 19.3177 3.4114 17.7945 2.64982 16.4618C1.36466 14.177 1.26948 11.7019 1.17428 9.27438C1.12668 8.5604 1.79306 7.65602 2.36424 7.08484C2.93543 6.46605 3.5066 7.08484 3.83979 7.60842C4.36338 8.4176 4.64899 9.32196 4.93458 10.2739C5.12498 10.9879 5.22017 11.7971 5.79135 12.4159C6.26734 12.2255 6.12454 11.8447 6.17214 11.5115C6.45773 9.60756 6.79091 8.84599 7.64768 8.03681C8.74245 6.98964 9.55163 5.75207 10.9796 4.9429C13.0739 3.70533 15.1207 2.75336 17.6434 3.27695C20.7373 1.3254 24.688 2.99134 27.7343 0.754209C28.3531 0.278222 29.3527 0.325824 30.1619 0.0878308C30.8282 -0.102564 31.6374 -0.00736358 31.7326 0.611419C31.923 1.56339 30.9234 1.2302 30.3999 1.3254C30.1619 1.373 29.9715 1.37299 29.6859 1.51579C31.685 1.80138 33.2558 3.41974 35.4453 3.03895C35.5881 2.99135 35.9689 3.18175 35.9689 3.32455C36.3497 4.9429 37.6824 4.56211 38.7296 4.6573C41.1096 4.9429 41.5379 5.22849 41.4427 7.27523C41.3475 9.60756 42.7279 11.1783 44.0131 12.7491C45.2982 14.3198 46.0122 15.605 45.3934 17.8897C44.7746 20.1745 45.441 22.602 47.3925 24.5059C50.4389 27.5523 51.3908 31.4553 51.0576 35.6916C51.0101 36.3104 50.9625 37.1196 50.2009 37.1672C49.5345 37.2624 49.4869 36.4056 49.2489 35.9296C48.1541 33.9781 46.2978 32.5025 45.7266 30.0274C44.5842 31.0269 44.4414 32.3597 43.9179 33.4545C43.6323 34.1209 44.2511 34.4064 44.6794 34.5492C46.4406 35.2632 47.2022 37.072 48.6301 38.1667C49.5821 38.8807 49.7249 40.2611 49.5821 41.451C49.3917 42.9266 47.7257 43.5454 46.4406 42.641C45.203 41.7842 44.727 40.0231 45.2982 38.5951C45.7266 37.548 44.8698 35.9296 43.7751 35.7868C43.1087 35.6916 43.0135 36.0724 43.2039 36.6436C44.1558 39.3567 44.1559 42.165 43.8703 45.0209C43.7751 46.0205 44.1558 46.4013 45.1078 46.3537C45.3934 46.3537 45.679 46.3061 45.9646 46.3537C46.631 46.4013 47.345 46.4965 47.345 47.2581C47.345 48.1149 46.5834 48.1625 45.9646 48.1625C42.7755 48.1149 39.5388 48.4005 36.3497 48.3053C32.637 48.1625 28.9243 48.1625 25.2116 48.2577C23.8312 48.2577 23.2125 48.0673 23.2601 46.4489C23.3553 40.2611 23.2124 34.0257 23.3552 27.8378C23.4504 24.1728 23.5457 20.5553 23.736 16.8902C23.8312 14.7482 24.9736 13.3203 26.4968 12.1303C27.0679 11.6543 27.7343 11.3211 28.1627 10.3691C22.2129 10.4643 16.4058 10.5119 10.5988 10.3691C10.5988 10.7023 10.5512 10.8927 10.5988 10.9403C13.6451 13.939 13.6451 17.7469 13.6927 21.65C13.7403 29.361 13.8355 37.1196 14.0259 44.8306C14.2639 53.7791 14.4543 62.7277 14.4067 71.7238C14.4067 77.15 14.2163 82.5763 14.1211 88.0025C14.0735 90.1921 12.9788 91.7152 10.8844 92.6196C16.5011 93.4288 22.0225 92.5244 27.5439 92.9528C27.6391 92.3816 27.3059 92.1912 27.0203 92.0484C23.736 90.0969 22.9744 87.0505 23.1172 83.4806C23.3552 78.4352 23.5456 73.3422 23.4028 68.2967C23.2125 62.7277 23.1173 57.111 23.2601 51.542C23.2601 50.7804 23.26 50.2568 24.3072 50.2568C31.2566 50.2568 38.1584 50.3044 45.1078 50.2092C52.1524 50.0664 59.197 50.5424 66.2416 50.2092C70.4779 50.0188 74.7142 50.3044 78.9505 50.3044C79.9976 50.3044 80.1404 50.9232 80.1404 51.7324C80.1404 55.0643 80.0928 58.3962 80.188 61.7281C80.3308 65.4408 80.3308 69.2011 80.426 72.9138C80.5212 77.7212 80.188 82.4811 79.95 87.2885C79.8548 88.7641 78.9028 89.8589 77.8557 90.8584C77.1417 91.4772 76.3325 92.0008 75.5234 93.2384C81.7588 92.4768 87.661 92.6672 93.8964 92.5244C92.3257 90.906 90.8977 89.5733 90.0409 87.7169C88.7082 84.861 89.089 81.8147 89.089 78.8636C89.0414 67.1543 89.2794 55.4451 89.0414 43.7834C88.8986 37.3576 88.7082 30.8842 88.7082 24.4583C88.7082 22.0784 88.5654 19.6985 88.4702 17.3661C88.375 14.9862 88.9462 13.0347 91.2309 11.7971C91.7545 11.4163 92.2305 10.8451 92.5637 10.5595ZM36.2545 60.9665C36.8733 60.6809 36.9209 61.1093 36.8257 61.5377C36.6829 62.2041 36.4925 62.8228 36.2545 63.4892C35.5881 65.4408 35.3501 67.3447 36.6829 69.439C36.1117 65.8691 36.1117 65.8692 38.0156 62.1565C38.1584 61.9185 38.2536 61.4425 38.206 61.3949C36.6353 60.5857 37.8252 59.7289 38.1108 58.8722C38.206 58.6342 38.3488 58.1106 38.3012 58.1106C36.4925 57.3966 37.9204 56.1114 37.73 55.1119C37.6348 54.6835 37.968 54.1123 37.3492 53.9219C36.6829 53.7315 36.4925 54.3027 36.3497 54.8263C35.7309 56.873 36.1117 58.9197 36.2545 60.9665C33.6366 61.2997 33.589 61.3473 34.5885 63.5844C34.6361 63.6796 34.7789 63.6796 34.8741 63.7272C35.6357 63.0132 34.7789 61.3949 36.2545 60.9665ZM44.3938 68.4395C45.441 69.2487 46.393 70.2006 47.3925 71.581C47.107 69.4866 45.917 68.7727 44.3938 68.4395C44.6318 67.8207 44.0131 67.5827 43.7751 67.2019C42.4899 65.4408 41.6807 63.4892 41.7759 61.2521C41.8235 60.7761 41.4903 60.0621 42.1091 59.9193C42.8707 59.6813 42.8707 60.5381 43.2039 60.9665C44.251 62.3945 44.5366 64.3936 46.4406 65.2504C46.4406 64.346 46.3454 63.5368 46.4882 62.7752C46.631 61.9185 46.2978 61.4425 45.5362 61.2997C44.4414 61.1093 43.8702 60.3953 43.3467 59.5861C42.8707 58.8722 41.6807 58.2534 42.0615 57.3966C42.3471 56.7302 43.5847 56.9206 44.3938 56.8254C45.0126 56.7302 45.7266 56.8254 45.5362 55.8734C45.3934 55.1119 45.7266 53.9219 44.5366 53.8267C42.6803 53.6839 40.7287 53.5887 38.8248 53.9695C39.2056 55.3023 40.4908 56.159 40.3004 57.349C39.9196 59.5861 40.3479 62.0137 38.5868 64.0604C37.3968 65.4408 38.0156 68.5823 39.2532 69.7247C39.7768 70.2006 40.4432 70.4862 41.1096 70.3434C41.7759 70.153 41.3951 69.4391 41.3951 69.0107C41.3951 67.0591 41.5379 66.9639 43.2515 67.8683C43.6323 68.0111 44.0131 68.2491 44.3938 68.4395ZM77.2369 41.1655C77.4749 40.6419 77.5701 40.4991 77.5701 40.3563C77.6653 33.5497 77.9033 26.6955 77.7129 19.8889C77.6177 16.319 76.4277 13.0823 73.1434 10.9403C70.5255 9.22678 69.2403 9.36957 67.86 12.0827C67.7648 12.2255 67.7172 12.4159 67.622 12.5587C66.3368 14.177 65.1944 16.0334 62.7193 15.9382C61.6721 15.8906 61.1962 15.5098 61.7198 14.4626C62.1005 13.701 62.1957 12.9871 62.1481 12.1779C62.1005 11.3211 61.8149 11.1307 61.1486 11.7495C60.2442 12.5587 59.2922 13.4155 58.3879 14.2246C57.0551 15.4622 56.7219 16.6998 57.9595 17.8897C60.4822 20.2697 60.149 23.1256 59.8634 26.0767C59.7682 26.8859 59.435 27.1239 58.7686 26.8383C57.5787 26.3147 56.1031 26.1719 55.3891 24.7439C55.2463 24.4583 55.0559 24.0776 54.6275 24.268C54.2468 24.4583 54.342 24.8391 54.342 25.1723C54.4372 25.8863 54.6276 26.6003 54.6752 27.3619C54.7228 28.7898 55.4367 29.4086 56.8171 29.361C57.9595 29.3134 59.0542 29.4086 60.1014 29.8846C61.7197 30.6462 62.8145 32.0265 64.2425 33.0737C65.0041 33.5973 64.1473 33.9781 63.5761 34.0733C61.2914 34.454 59.1018 35.406 56.6267 34.7397C57.0551 35.5964 57.6263 35.9772 58.1974 36.358C59.8634 37.4528 61.6246 38.4047 63.6237 38.4047C65.2897 38.4047 67.0508 35.6916 67.2412 33.3593C67.2888 32.4549 67.146 31.9313 66.1464 31.6457C65.1945 31.3601 63.9093 31.2174 63.8617 29.7418C63.8141 29.123 63.3381 28.9326 62.9573 28.647C60.4822 26.6955 60.5774 24.6487 63.2429 22.9352C63.5285 22.7448 63.7189 22.5544 63.8617 22.2212C65.0517 19.2701 67.0032 18.6989 69.4783 20.6028C70.0971 21.0788 70.5731 21.1264 71.2871 20.936C72.8102 20.6029 74.0954 21.2692 74.857 22.602C75.4758 23.7444 75.2854 25.0295 74.5238 25.9339C73.8098 26.7907 73.7146 27.5047 73.8098 28.5518C74.0002 30.8366 73.191 31.9313 71.1443 32.3597C70.4779 32.5025 70.5255 32.7881 70.5731 33.3117C70.6207 35.1204 70.1923 36.7864 68.8119 38.0716C67.146 39.5947 65.1468 40.2611 62.6241 40.2135C65.1944 42.165 68.1932 43.1646 69.4783 46.1633C69.5259 46.3061 69.9543 46.4013 70.2399 46.4013C71.1919 46.4013 72.1439 46.3537 73.1434 46.3537C73.7622 46.3537 74.0002 46.0205 73.667 45.4969C72.1914 43.3074 72.1438 40.6895 71.4299 38.2619C71.2871 37.786 70.8111 37.1196 71.4299 36.6912C72.0486 36.2152 72.6198 36.7864 73.1434 37.072C74.7618 37.8812 76.1897 39.1663 77.2369 41.1655ZM38.9676 35.1204C38.3012 35.0728 37.6348 35.0252 37.016 34.93C36.3497 34.7872 35.5405 34.5492 35.4453 33.8353C35.3025 32.8833 36.2545 33.1213 36.7781 32.9309C40.9191 31.3125 43.2515 27.5522 42.6803 23.3636C41.8235 24.3155 40.9668 25.2199 39.9196 25.8863C39.5864 26.1243 39.2056 26.3623 38.8248 26.0291C38.4916 25.7435 38.444 25.3627 38.5868 24.9343C39.0152 23.7444 39.3008 22.5544 39.9196 21.4596C41.7283 18.0325 41.2999 12.8919 38.682 10.1787C39.7768 14.177 39.5388 17.5565 36.7305 20.5076C35.0169 17.6041 34.6361 14.7006 35.4453 11.6543C35.5405 11.2735 35.8261 10.8927 35.3977 10.5595C34.9217 10.1787 34.5409 10.5595 34.1601 10.7499C32.7322 11.4639 31.2566 12.1303 30.2094 13.3203C28.9719 14.7482 27.4963 16.1286 27.5439 18.2229C27.5439 18.6037 27.4487 19.4605 28.2579 19.1273C29.9715 18.4133 31.0186 19.2701 31.8754 20.5552C32.3038 21.174 32.5894 21.9356 33.6841 21.5548C34.5885 21.2692 34.8741 22.2212 34.4933 22.6496C33.589 23.554 34.2553 23.792 34.8265 24.3631C36.7781 26.2671 36.3973 29.4086 34.1601 30.0274C32.875 30.3606 32.2562 30.789 32.6846 32.1693C32.7798 32.5025 32.7798 33.0261 32.3514 33.2165C31.8278 33.4545 31.8278 32.7881 31.5422 32.5977C30.6378 31.9789 30.1143 32.9785 29.4479 33.2641C28.9243 33.5021 29.5907 34.0733 29.9239 34.2637C32.3514 35.5964 34.8741 36.4532 37.6824 35.9772C38.206 35.882 38.7772 35.7868 38.9676 35.1204ZM70.4779 68.9155C71.4775 68.9631 72.5246 68.9631 73.5242 69.0583C74.8094 69.2011 76.2849 70.5338 76.0946 71.5334C75.571 74.1037 74.7618 76.5313 72.6198 78.2924C69.8591 80.5771 66.6224 82.0051 63.2905 83.2903C63.0049 83.4331 62.4813 83.3854 62.4337 83.7186C62.0053 85.4798 60.4822 85.7178 59.1494 86.289C58.0546 86.765 58.245 87.9549 58.2926 88.8117C58.3878 89.6685 59.2446 89.2877 59.8158 89.2401C64.6233 88.4785 69.4307 88.2881 74.2858 88.3833C77.1893 88.4309 77.3321 88.3357 77.4749 85.3846C77.4749 85.2894 77.4749 85.1466 77.4749 85.0514C77.6177 80.1488 77.3321 75.2461 77.8081 70.3434C77.9509 69.0107 77.4749 68.4395 76.0469 68.8679C75.095 69.1535 74.143 68.7251 73.2386 68.5347C72.3343 68.2967 71.4299 68.2967 70.4779 68.9155ZM30.1619 68.8203C29.5431 68.3443 29.1147 67.9635 28.6863 67.6779C28.3055 67.4399 27.9247 67.0115 27.4487 67.2971C26.9727 67.5827 27.0679 68.1063 27.2107 68.5347C27.5915 69.7247 27.1631 70.9622 27.3059 72.1522C27.7819 76.4836 27.4487 80.8627 27.7343 85.1942C27.8295 86.527 28.2103 86.7649 29.4003 86.8125C34.7313 86.9553 40.0624 87.1933 45.3934 87.3837C45.7742 87.3837 46.2502 87.6217 46.393 87.0982C46.4882 86.7174 46.0598 86.527 45.7742 86.3842C43.7751 85.3846 42.1567 83.8615 39.872 83.1475C34.8741 81.6243 30.6378 78.9112 28.4483 73.6753C27.5439 71.3906 27.7819 69.7722 30.1619 68.8203ZM52.676 67.6779C53.9612 66.9163 55.6271 67.9635 56.7695 66.7259C57.6263 65.774 58.245 64.6792 58.5306 63.2988C59.1018 60.6809 59.0066 58.0154 58.8638 55.3975C58.8162 54.7787 59.0542 53.8743 58.0547 53.8743C57.1027 53.8267 55.8651 53.5411 55.5319 54.9215C55.2939 56.0162 54.7704 56.9206 54.1992 57.825C53.628 58.777 53.628 59.4433 54.3896 60.2049C55.5319 61.3473 55.5795 62.8228 55.6271 64.2984C55.6271 64.9648 55.3891 65.3456 54.58 65.06C53.5328 64.7268 52.5808 64.2508 51.8668 63.394C51.2005 62.6324 50.9149 62.7752 50.5341 63.7272C49.9629 65.2028 49.8677 66.6307 50.1057 68.2015C53.5804 65.3932 53.5804 65.3932 54.6752 66.1072C54.1992 66.9639 52.8664 66.2499 52.676 67.6779ZM61.5294 71.1526C61.6721 71.2002 61.815 71.2478 61.9577 71.2478C62.8621 69.7723 63.6713 68.2491 64.9089 67.0115C65.2897 66.6307 65.3373 66.1072 64.9089 65.6312C63.0525 63.5844 62.9573 61.0617 63.1477 58.4914C63.2429 57.4442 63.5285 56.397 63.4333 55.3023C63.2905 54.0171 62.7193 53.5887 61.4341 53.7315C59.9586 53.8743 60.4346 54.8263 60.5298 55.5879C61.0534 58.8722 61.1486 62.1089 59.2922 65.1076C59.1018 65.3932 58.8638 65.774 59.197 66.012C59.5778 66.2975 59.911 65.9168 60.2442 65.7264C60.7678 65.4884 61.0058 64.4888 61.7198 64.9648C62.3385 65.3932 62.0529 66.2024 62.0053 66.8687C61.9101 68.3443 61.7197 69.7247 61.5294 71.1526ZM44.2035 81.1007C46.869 80.9579 49.3917 81.5291 51.962 81.5291C54.4848 81.5291 57.0075 81.6719 59.435 80.8627C57.3407 80.8627 55.2939 81.1483 53.2472 81.1007C51.3909 81.0531 49.5345 80.9579 47.7734 80.3391C46.5834 79.9108 47.4402 79.6252 47.9637 79.2444C42.5375 78.7208 37.1588 78.6732 32.0182 76.7217C35.7785 79.9108 40.0148 81.8623 44.965 82.2431C45.0126 82.2431 45.1078 82.1003 45.203 82.0051C44.8698 81.6243 44.5367 81.3387 44.2035 81.1007ZM10.0276 38.8807C10.7416 37.5956 9.55165 36.4532 10.4084 34.9776C11.8364 32.5025 11.7412 29.4562 11.5032 26.6003C11.4556 25.8863 11.8364 25.0771 11.3128 24.3155C7.83808 28.5994 7.21929 35.3584 10.0276 38.8807ZM22.9745 4.9905C24.0692 6.08527 24.45 7.84641 25.5924 7.98921C28.4483 8.37 31.3994 8.4176 34.3505 7.79882C32.8274 5.08569 28.7815 4.60971 22.9745 4.9905ZM63.3381 46.3061C63.8141 46.4013 64.4805 46.8297 64.7661 46.3061C65.1468 45.6873 64.3377 45.4017 64.0521 44.9258C64.0045 44.8782 63.9569 44.8306 63.9093 44.8306C62.1005 43.1646 59.673 42.4506 57.9595 40.6895C57.3883 40.1183 57.1979 40.8323 57.2455 41.2607C57.3407 42.641 57.5787 44.0214 57.1979 45.4493C56.9599 46.2585 57.7215 46.3061 58.2926 46.3061C59.9586 46.3061 61.6721 46.3061 63.3381 46.3061ZM31.3042 46.1633C33.9221 46.1633 36.5401 46.1633 39.158 46.1633C39.5388 46.1633 39.9196 46.0681 39.8244 45.6397C39.4912 43.4026 39.5864 41.1655 39.4912 38.7855C37.9204 42.641 35.0645 44.8306 31.3042 46.1633ZM6.98132 21.5072C7.88569 20.698 8.59966 19.9365 9.40884 19.2225C11.7888 17.1282 11.9316 15.4622 9.98003 12.9871C9.74203 12.7015 9.55164 12.2255 9.12326 12.3207C8.64727 12.4159 8.50448 12.9395 8.50448 13.4155C8.40928 15.2242 7.88569 16.9378 7.3621 18.6989C7.07651 19.5557 6.79092 20.4125 6.98132 21.5072ZM81.378 7.22763C80.2832 7.75121 79.2837 8.37 78.8553 6.56125C78.7601 6.13286 78.1413 6.08527 77.6653 6.13286C76.7133 6.18046 75.7614 6.03766 74.8094 6.22805C73.1434 6.51364 71.4299 6.75164 70.0971 8.2272C73.2386 8.89358 80.5688 8.3224 81.378 7.22763ZM69.4307 56.4446C69.4307 56.1114 69.3831 55.7783 69.4307 55.4451C69.7163 54.1599 69.3355 53.4935 67.86 53.7315C67.5268 53.7791 67.1936 53.7315 66.8604 53.7315C66.4796 53.7791 66.0036 53.5887 65.7656 53.9695C65.48 54.4455 66.0036 54.7787 66.2416 55.1119C67.622 56.7302 67.86 58.6342 67.86 60.6333C67.86 60.9665 67.384 61.4425 68.098 61.5377C68.6691 61.6329 68.7168 61.1093 68.7643 60.7761C69.1927 59.3481 69.3831 57.9202 69.4307 56.4446ZM93.9916 22.9828C95.61 20.1269 94.4676 17.3661 93.9916 14.6054C93.4204 15.1766 92.5161 15.3194 92.5161 16.1762C92.3733 18.5085 91.8021 20.9836 93.9916 22.9828ZM72.1915 63.3464C74.0002 63.2988 75.333 62.7752 76.6657 62.4897C77.1893 62.3945 77.7129 62.1565 77.7605 61.5853C77.8081 60.0145 77.7605 58.4438 77.7605 56.873C77.6177 56.873 77.4273 56.873 77.2845 56.8254C76.0946 59.2529 74.143 61.1093 72.1915 63.3464ZM19.8805 8.08441C16.739 5.65688 12.3124 5.32369 10.3132 8.5128C13.4547 8.37 16.4534 8.22721 19.8805 8.08441ZM30.019 53.7315C30.971 54.8739 31.685 55.7306 32.2086 56.7302C32.5894 57.4918 32.7798 58.8246 33.7318 58.7294C34.6837 58.6342 34.5409 57.2538 34.8265 56.4922C35.6357 54.4455 35.0645 53.7791 32.8274 53.7791C32.0658 53.7315 31.209 53.7315 30.019 53.7315ZM93.706 38.1191C93.1349 38.0239 92.8493 38.0239 92.7065 38.3571C92.6589 38.4999 92.6589 38.7855 92.7065 38.7855C94.3724 39.2139 93.5632 40.7847 94.0868 41.7366C94.2772 42.0222 94.3248 42.8314 94.7056 42.403C96.4192 40.6895 95.8956 42.6886 96.2288 43.2598C96.4192 43.5454 96.5144 43.9262 96.9428 43.7834C97.4187 43.6406 97.8947 43.4026 98.2279 43.117C98.5611 42.8314 98.2279 42.4506 97.9899 42.3078C97.3235 41.8318 96.9904 41.1179 96.562 40.4991C95.8004 39.3567 94.7532 38.4999 93.706 38.1191ZM100.179 62.5849C98.6087 59.9193 96.2764 58.5866 94.0392 57.1586C93.7536 56.9682 93.2777 56.7778 93.0397 57.349C92.6113 58.301 93.2776 59.8717 94.5152 60.4905C94.5152 59.8717 94.5152 59.3005 94.5152 58.7294C94.658 58.777 94.7532 58.7294 94.8008 58.777C95.9432 59.5385 95.61 62.1089 97.9899 61.2997C98.0375 61.2997 98.2279 61.6329 98.3707 61.8233C98.7515 62.2041 99.2275 62.4897 100.179 62.5849ZM35.4453 39.5947C34.4933 39.6423 33.3986 38.8807 32.7322 39.7375C31.5422 41.2131 29.9239 41.927 28.2103 42.5458C27.8295 42.6886 27.3535 42.7838 27.4963 43.3074C27.5915 43.7834 28.0199 43.831 28.4483 43.7358C31.2566 43.2122 33.6366 41.927 35.4453 39.5947ZM27.4963 55.7782C26.7823 59.0625 27.3535 59.9669 31.209 61.7281C30.5902 59.0625 29.4955 57.3014 27.4963 55.7782ZM43.0135 76.8168C47.7734 77.626 52.5332 77.5308 57.3407 76.8168C52.5808 76.8168 47.7734 76.8168 43.0135 76.8168ZM58.9114 69.3915C56.1031 69.8198 53.866 70.7718 52.2476 73.4849C54.9131 72.4854 56.9599 71.2002 58.9114 69.3915ZM63.9569 12.6063C64.2425 12.7015 64.4329 12.6539 64.5757 12.4159C65.6704 10.5595 65.48 8.17961 66.908 6.41846C64.7661 7.98921 63.5285 9.89316 63.9569 12.6063ZM51.7716 94.6187C51.2956 94.3331 50.3913 94.0475 50.3913 93.8096C50.5341 92.334 49.3441 92.7624 48.6777 92.4768C48.3445 92.334 48.059 92.1436 47.7734 92.0484C47.3926 91.9532 46.9166 91.382 46.5834 92.0008C46.3454 92.4292 46.6786 92.9052 47.0118 93.1908C48.3921 94.3331 50.0105 94.7615 51.7716 94.6187ZM70.3351 67.0591C71.1919 67.1067 71.9535 67.1543 72.6674 67.1543C73.5242 67.2019 74.3334 67.2495 75.1902 67.3447C75.8565 67.3923 76.5705 67.2971 77.1893 67.0115C77.5225 66.8687 77.8081 66.6307 77.7129 66.2499C77.5701 65.8216 77.1417 65.8692 76.8561 66.012C75.5234 66.5355 74.143 66.4879 72.715 66.3927C72.0011 66.3451 71.0015 66.1072 70.3351 67.0591ZM28.7339 28.9802C27.7343 28.647 27.5915 28.9802 27.5439 29.6942C27.4963 30.8366 27.9723 31.4077 29.0195 31.5029C30.0667 31.5981 30.3046 30.6938 30.3522 29.9798C30.4474 28.5994 29.1623 29.2658 28.7339 28.9802ZM70.8587 27.8378C70.1447 27.8854 69.2403 27.8378 69.3831 28.647C69.4783 29.4086 69.9543 30.313 70.9539 30.3606C71.8107 30.4082 72.6674 30.0274 72.715 29.1706C72.8102 27.8854 71.3347 28.4566 70.8587 27.8378ZM92.5161 33.4069C93.7536 29.1706 94.5152 27.6951 92.2305 26.8859C92.3257 29.0278 92.4209 31.1221 92.5161 33.4069ZM10.1228 21.4596C10.1228 21.2692 9.93244 20.7932 9.45645 21.2216C8.64728 21.9832 7.9809 22.8876 7.31451 23.7444C7.17172 23.9348 7.07651 24.3631 7.3621 24.6487C7.93329 24.03 8.40926 25.4579 8.83765 24.7439C9.40883 23.8396 10.1228 22.8876 10.1228 21.4596ZM62.0053 6.18047C60.0538 7.08484 58.6258 9.03638 56.2935 9.17917C55.9127 9.22677 55.5319 9.75035 55.8175 10.2739C56.1507 10.7975 56.5315 10.3215 56.8647 10.2264C59.0542 9.41717 60.7202 8.03681 62.0053 6.18047ZM27.7819 22.84C27.3535 24.0776 28.1151 24.1251 29.1147 24.1727C29.8287 24.1727 30.3999 24.1251 30.3047 23.2208C30.2095 22.364 29.7335 21.6024 28.8767 21.6024C28.3531 21.5548 27.3535 21.65 27.7819 22.84ZM69.1451 22.7924C68.8119 21.7928 68.2408 21.2216 67.384 21.2216C66.5748 21.2216 65.718 21.412 65.6229 22.4592C65.5753 23.078 66.0036 23.6492 66.6224 23.554C67.4792 23.4588 68.2884 23.078 69.1451 22.7924ZM72.8578 58.2534C73.7146 56.9206 74.5238 56.1114 74.4762 54.8739C74.4762 54.3503 74.8094 53.6839 73.8574 53.6839C73.0482 53.6363 72.5246 53.8743 72.6198 54.8263C72.6674 55.7782 72.7626 56.7778 72.8578 58.2534ZM57.6263 24.5535C57.2931 22.2212 56.1507 20.6505 55.1511 19.0321C55.2463 21.0788 55.3415 23.1732 57.6263 24.5535ZM96.1812 70.2006C97.0379 69.4867 97.4187 68.9631 97.4663 68.0111C97.5615 66.3451 95.7052 66.8211 95.3244 65.774C95.9432 67.1067 95.8956 68.5823 96.1812 70.2006ZM50.0581 89.9541C50.0105 89.3353 48.9633 89.5257 49.2965 88.9545C49.6773 88.3833 50.5817 88.9545 51.1053 88.5261C50.3913 88.4309 50.1057 88.1929 49.2013 87.1934C49.0585 87.0506 48.8205 87.0506 48.5825 87.003C48.2969 87.003 48.2493 87.2409 48.2017 87.4789C48.2017 87.8121 48.2493 88.1453 48.2017 88.4785C48.1541 90.4776 48.1541 90.4777 50.0581 89.9541ZM47.3925 53.3507C46.631 54.8263 47.1546 55.9686 47.583 57.0634C47.7258 57.4918 48.2017 57.5394 48.5825 57.3014C49.0109 57.0634 49.0585 56.6826 48.8681 56.2542C48.4397 55.3975 47.9637 54.4931 47.3925 53.3507ZM52.1048 13.8438C49.8677 14.653 48.9633 16.2238 49.1061 18.9369C50.2009 17.1757 51.1053 15.6526 52.1048 13.8438ZM48.4397 28.2662C48.3921 30.551 48.3921 30.551 47.2022 30.2178C47.6306 31.3601 48.3445 32.2169 49.4393 33.1213C49.7725 31.2649 49.0585 29.8846 48.4397 28.2662ZM71.0967 23.6968C71.8107 24.03 72.477 22.8876 72.8578 23.8396C73.1434 24.5535 72.3819 24.8391 71.8107 25.1247C71.5727 25.2199 71.2871 25.3627 71.0967 25.6007C70.7635 25.9815 70.9539 26.2671 71.3823 26.2671C72.5246 26.3623 73.0958 25.5531 73.6194 24.7439C73.9526 24.1728 73.905 23.554 73.2386 23.1256C72.3343 22.5068 71.6679 22.8876 71.0967 23.6968ZM24.4976 8.08441C23.498 7.27523 22.8792 6.70405 22.1653 6.18047C21.8797 5.99007 21.4989 5.46647 21.2133 5.99006C21.0229 6.32325 20.6897 6.70405 21.1657 7.32283C21.9273 8.3224 22.9269 8.17961 24.4976 8.08441ZM66.9556 30.1226C67.384 30.0274 68.098 30.2178 68.0504 29.4562C68.0028 28.647 67.5268 28.0758 66.67 28.171C66.0988 28.2186 65.2421 28.171 65.2897 29.0278C65.3849 29.9322 66.194 30.1226 66.9556 30.1226ZM65.1469 24.6487C64.3377 23.9824 63.6713 24.0776 63.0525 24.9819C62.7669 25.4103 62.3861 25.9339 62.8621 26.3147C63.8141 27.0763 64.8613 27.0763 66.0036 26.4575C65.2897 25.9339 64.2425 26.7431 64.0045 25.7435C63.8617 24.9819 65.0517 25.3151 65.1469 24.6487ZM72.239 74.2465C69.5259 74.7701 66.9556 75.9601 64.1949 76.4361C66.9556 76.1029 69.7639 75.8173 72.239 74.2465ZM32.161 28.409C33.2082 28.6946 33.8745 28.5518 34.3981 27.8378C34.8741 27.1715 34.3981 26.6479 34.0649 26.1719C33.6365 25.5531 33.2082 25.5055 31.9706 25.8387C34.2553 26.4099 33.2558 27.4095 32.161 28.409ZM27.5439 39.3567C28.1627 38.7379 29.5907 39.0711 29.4479 37.9288C29.4003 37.4052 28.1627 36.4532 27.6867 36.6912C26.6872 37.31 27.7343 38.4047 27.5439 39.3567ZM59.7206 78.9112C57.0551 78.9112 54.3896 78.816 51.2956 79.3872C54.3896 79.8156 57.0551 79.4348 59.7206 78.9112ZM42.6803 42.1174C42.1091 43.1646 42.3471 44.4498 41.2047 44.9734C41.0619 45.021 41.0619 45.7349 41.3951 46.0681C41.6807 46.3537 42.0139 46.2585 42.3471 46.2109C42.8707 46.0681 42.9183 45.5921 42.7755 45.2589C42.3471 44.2594 43.1087 43.355 42.6803 42.1174ZM47.8685 64.822C48.7253 64.2984 48.8205 63.4416 49.2013 62.7752C49.4393 62.2993 49.3917 61.9661 48.8205 61.7281C48.1065 61.4425 47.8685 61.8709 47.7257 62.3469C47.4878 63.1084 47.5829 63.9176 47.8685 64.822ZM27.7819 44.8782C27.7819 45.021 27.8295 45.1637 27.8295 45.3065C29.7811 44.9258 31.7802 44.8306 33.3034 43.2598C31.4946 43.7834 29.6383 44.307 27.7819 44.8782ZM74.0002 40.3563C73.6194 42.2602 73.8574 43.9262 75.333 45.2589C74.9046 43.6406 74.4286 42.0222 74.0002 40.3563ZM52.0096 54.1123C51.0101 53.5887 50.1533 53.9219 49.2489 54.1123C49.4869 54.7787 49.5345 55.6355 50.2961 55.6831C51.1053 55.7307 51.4384 54.8263 52.0096 54.1123ZM53.6756 18.5561C52.2952 20.7457 52.7236 23.1732 52.9616 25.5531C52.8664 23.1732 53.0568 20.8408 53.6756 18.5561ZM87.8514 8.132C85.7571 7.13243 84.8051 7.18003 83.7103 8.1796C85.0431 8.60799 86.2806 8.51279 87.8514 8.132ZM6.83853 68.2015C7.55251 66.9163 6.98131 65.8692 7.12411 64.6316C5.07737 65.8216 6.41014 66.8687 6.83853 68.2015ZM8.40928 76.5313C8.93286 74.3893 8.02847 72.6758 6.45772 71.2002C7.21929 72.9138 8.50447 74.5321 8.40928 76.5313ZM44.8222 58.8246C45.441 59.4909 46.1074 60.1097 47.1546 59.9193C47.4401 59.8717 47.6781 59.5385 47.4878 59.3005C46.869 58.3962 45.917 58.3962 44.9174 58.6342C44.9174 58.5866 44.9174 58.6342 44.8222 58.8246ZM32.3038 90.8108C33.5414 90.3349 34.9693 90.9536 36.1593 90.3349C34.8265 90.2873 33.4462 89.7161 32.3038 90.8108ZM55.9127 32.3121C57.2455 33.4069 58.2926 34.3113 59.8634 33.2165C58.6258 32.5501 57.4359 32.5977 55.9127 32.3121ZM53.4376 62.4421C53.1996 61.3473 52.5808 60.8237 51.962 60.3001C51.7716 60.1573 51.5812 59.8241 51.2481 60.1097C50.9625 60.3477 51.1529 60.6333 51.3433 60.8237C51.9144 61.3473 52.2952 62.1565 53.4376 62.4421ZM54.9607 43.2122C55.0083 41.8794 54.9607 40.5943 54.2468 39.4519C53.9612 40.7847 54.2944 42.0222 54.9607 43.2122ZM37.8728 12.6539C37.9204 14.1294 37.73 15.5574 37.6348 16.9853C38.6344 15.605 38.444 14.177 37.8728 12.6539ZM53.3424 55.8258C52.7712 55.683 52.5332 55.8734 52.3904 56.1114C52.0096 56.635 51.3909 57.0634 51.5813 57.825C51.6289 57.9202 51.8668 58.1106 51.962 58.063C52.676 57.8726 52.7236 57.1586 53.0568 56.635C53.1996 56.397 53.2472 56.159 53.3424 55.8258ZM42.8707 69.5819C43.4419 71.0098 44.3938 71.5334 45.679 72.1046C45.0126 70.8194 44.251 70.0578 42.8707 69.5819ZM73.8098 64.8696C74.9998 64.8696 75.8089 64.8696 76.6181 64.8696C76.9989 64.8696 77.4749 64.7744 77.4273 64.2508C77.3321 63.6796 76.8561 63.87 76.4753 63.9652C75.7614 64.2032 74.9998 64.4888 73.8098 64.8696ZM64.8613 55.7782C64.4329 57.2538 64.1949 58.6818 64.8137 60.1097C64.9089 58.6818 65.2896 57.2538 64.8613 55.7782ZM44.3938 23.6968C43.9179 25.3627 43.8227 26.7431 44.1083 28.2186C44.0607 26.7907 44.965 25.4579 44.3938 23.6968Z" fill="#36372F"/>
<path d="M49.3447 5.94236C48.964 6.84673 49.3447 7.27511 50.4395 7.27511C50.9631 7.27511 51.6295 7.13231 51.8675 7.89389C52.0579 8.56027 51.6771 9.08387 51.2011 9.51226C48.1548 12.3206 44.7753 12.1302 42.1573 8.94107C41.3482 7.8939 41.9194 6.65634 42.5381 5.70437C43.6805 3.94322 45.3465 2.84844 47.298 2.18205C47.9168 1.99166 48.3928 2.13446 48.6784 2.75324C49.2019 3.70522 49.4399 4.75239 49.3447 5.94236ZM46.0128 7.60831C46.6792 8.60788 47.0124 9.17906 47.3932 9.70265C47.6788 10.0358 48.1072 10.0358 48.488 9.79784C48.726 9.65504 49.0115 9.41705 49.0115 9.17906C49.0591 8.75067 48.5356 8.79827 48.2976 8.65547C47.7264 8.32228 47.1076 8.0843 46.0128 7.60831Z" fill="#36372F"/>
<path d="M31.3513 102.949C28.2098 102.949 25.0682 102.949 21.9267 102.949C21.4031 102.949 20.9272 102.949 20.4036 102.853C19.8324 102.758 19.166 102.663 19.166 101.949C19.166 101.235 19.5944 100.616 20.4036 100.616C21.8792 100.616 23.3547 100.664 24.7826 100.664C27.6386 100.711 30.4945 100.711 33.398 100.807C34.0168 100.807 34.9688 100.711 34.8736 101.759C34.826 102.615 34.2072 102.996 33.3504 102.949C32.684 102.949 32.0177 102.949 31.3513 102.949Z" fill="#36372F"/>
<path d="M16.0711 98.76C15.6427 98.76 14.7859 98.6648 14.1195 99.2835C14.0243 99.3787 13.8815 99.4739 13.8339 99.4739C11.3588 98.284 9.35964 99.9975 7.17011 100.474C6.55132 100.616 5.83735 100.664 5.59936 99.9023C5.31376 99.0455 5.98016 98.76 6.59895 98.284C8.74088 96.5704 10.9304 96.618 13.2151 97.7128C13.5959 97.9032 13.9291 97.9032 14.3575 97.6652C16.3567 96.5228 18.3082 97.2844 20.2121 97.9032C20.5453 97.9984 20.8785 98.284 20.7357 98.6648C20.6405 99.0455 20.2121 99.0931 19.8789 99.0455C18.7366 98.9979 17.6418 98.9028 16.0711 98.76Z" fill="#36372F"/>
<path d="M40.2538 102.996C39.3495 102.996 38.4451 102.949 37.5407 102.996C36.5412 103.044 36.0652 102.663 36.0176 101.664C36.0176 100.664 36.6839 100.616 37.3979 100.664C39.5875 100.712 41.777 100.712 43.9666 100.712C44.6805 100.712 45.0137 100.997 45.1089 101.664C45.2041 102.425 44.8709 102.901 44.1093 102.949C42.8242 102.996 41.539 102.949 40.2063 102.949C40.2539 102.949 40.2538 102.949 40.2538 102.996Z" fill="#36372F"/>
</svg>
