<svg width="98" height="103" viewBox="0 0 98 103" fill="none" xmlns="http://www.w3.org/2000/svg">
<path d="M48.7166 0.0576419C57.7054 0.0576419 66.7519 0.0576419 75.7407 0.0576419C81.8485 0.0576419 88.014 0.115249 94.1218 0.115249C97.8095 0.115249 98.04 0.288097 97.9824 3.91821C97.9248 13.7714 97.9824 23.6822 97.7519 33.5353C97.579 38.9517 97.6943 44.3104 97.579 49.7268C97.3486 58.1394 97.4638 66.6097 97.4638 75.0799C97.4638 78.8253 97.6943 82.6283 97.5214 86.3736C97.2909 91.0985 97.8095 95.8235 97.2333 100.606C97.1181 101.586 96.6571 101.816 95.8504 101.931C93.3151 102.392 90.7222 102.162 88.1869 102.162C79.2556 102.162 70.382 102.162 61.4508 102.046C50.1571 101.874 38.921 101.989 27.6274 102.104C19.1571 102.219 10.6868 101.931 2.15894 101.931C0.660803 101.931 0.142216 101.355 0.142216 99.9145C-0.0882674 88.1599 -0.0306396 76.4628 0.257465 64.7082C0.545569 55.1431 0.487941 45.5781 0.43032 35.9554C0.372699 28.119 0.372727 20.2825 0.315106 12.3885C0.315106 9.21933 0.199844 5.99258 0.257465 2.82343C0.315085 0.460981 0.603211 0.172855 2.90804 0.172855C10.7445 0.115235 18.6385 0.0576208 26.4749 0C33.908 0 41.2835 0.0576419 48.7166 0.0576419ZM20.1943 3.39964C16.5066 3.39964 10.3988 3.39964 4.34856 3.39964C3.36901 3.39964 3.0809 3.80298 3.0809 4.72491C3.0809 12.3309 2.96564 19.8792 3.02326 27.4851C3.08088 36.474 3.08089 45.4052 3.25375 54.3941C3.42662 63.4405 3.71474 72.5446 3.48425 81.5911C3.31139 86.6617 3.54187 91.79 3.0809 96.8606C2.90804 98.9926 2.90803 98.9926 4.98238 98.935C11.7816 98.6469 18.5809 98.8773 25.4378 98.935C30.5084 98.9926 35.579 99.2231 40.6497 99.3959C47.9099 99.6264 55.1125 99.1078 62.3727 99.1078C68.25 99.1078 74.0697 99.1654 79.9471 99.2231C84.3262 99.2807 88.7054 99.3383 93.0846 99.3959C94.4675 99.3959 95.0437 98.9926 94.9861 97.3792C94.7556 91.2714 94.5251 85.1636 94.5828 79.0558C94.6404 68.7416 94.3523 58.4275 94.7556 48.0558C94.9861 42.5242 94.9285 36.9349 94.8709 31.4033C94.8132 24.8346 95.2166 18.3234 94.5828 11.7547C94.3523 9.39221 94.5828 7.02975 94.8133 4.72491C95.0437 2.70819 94.9861 2.59294 93.027 2.70819C87.6106 3.05391 82.1367 2.82343 76.7203 2.70819C67.4434 2.59294 58.1664 2.42009 48.8895 2.82343C40.0735 3.16916 31.3151 3.68775 20.1943 3.39964Z" fill="#36372F"/>
<path d="M61.0455 89.1971C60.5269 89.8886 59.9507 89.6005 59.3745 89.6005C52.46 89.37 45.5455 89.6581 38.631 90.1767C38.1124 90.2343 37.6514 90.1767 37.5362 89.6005C37.3633 88.909 37.7667 88.6209 38.3429 88.5057C39.5529 88.2752 40.5901 87.6414 41.5697 86.9499C43.0102 85.9704 43.5864 84.6451 43.7016 82.9741C44.3931 75.0224 44.1626 67.0707 44.3354 59.1191C44.5083 49.7269 43.9321 40.3347 43.7592 30.9425C43.7016 27.7157 43.9897 24.4313 43.8169 21.2045C43.7016 18.4387 42.7221 15.9035 41.1663 13.5986C40.5901 12.7343 39.7258 12.2733 38.7462 11.9276C37.9395 11.6395 37.0176 11.5242 36.3262 10.8328C37.0176 10.0837 37.8243 10.2566 38.5734 10.2566C46.2946 10.4871 54.0158 10.0837 61.6793 9.91088C62.1403 9.91088 63.0046 9.44992 63.0622 10.3142C63.1198 11.0057 62.3708 11.2362 61.7945 11.2938C57.5306 11.9852 55.6867 14.8663 54.88 18.7845C54.0157 23.1061 54.3038 27.4276 54.3038 31.8068C54.2462 38.8365 54.3038 45.8663 54.3038 52.8384C54.3038 56.7566 54.3615 60.6748 54.4767 64.6507C54.592 69.4908 54.7648 74.3886 54.9377 79.2287C54.9953 80.7845 55.1682 82.3403 55.3986 83.896C55.7444 86.2585 57.3001 87.5261 59.3745 88.3328C60.0083 88.6209 60.5845 88.7361 61.0455 89.1971Z" fill="#36372F"/>
</svg>
