<svg width="97" height="99" viewBox="0 0 97 99" fill="none" xmlns="http://www.w3.org/2000/svg">
<path d="M93.8983 8.16788C95.0376 8.05395 94.5819 7.08555 94.9806 6.74376C95.3794 6.80073 95.3794 7.14251 95.3794 7.31341C94.9806 9.13628 95.5503 10.9022 95.3794 12.725C95.3794 12.9529 95.3794 13.1238 95.1515 13.2377C94.2401 13.9783 94.2401 14.434 95.0376 15.5733C95.8351 16.6556 95.8351 18.3646 95.8351 19.9026C95.8351 22.8648 95.2085 25.8269 96.0629 28.7891C96.2338 29.3587 96.006 30.0993 95.8921 30.7829C95.2655 34.9982 95.7781 39.2706 96.006 43.486C96.1199 45.3088 95.8351 47.1887 96.006 48.9546C96.2338 51.1762 95.6072 53.3978 96.0629 55.5625C96.4617 57.3284 96.2908 58.9234 95.8351 60.6893C95.5503 61.7147 95.949 63.0248 96.2338 64.1072C96.6326 65.5313 96.4047 66.9554 96.3478 68.3795C96.2908 69.9745 96.2338 71.6265 96.2908 73.2215C96.4047 76.5255 96.4047 79.7724 96.4047 83.0764C96.3478 87.1209 97.0313 91.1654 96.6895 95.2099C96.5187 97.3175 96.3478 97.7733 94.354 97.8302C88.0879 97.9442 81.8218 98.229 75.5557 97.9442C67.011 97.6024 58.4663 97.3175 49.9216 96.9188C48.0987 96.8049 46.2758 96.8049 44.453 96.7479C43.7694 96.6909 42.9149 97.3745 42.2883 96.4631C42.2313 96.3492 41.6617 96.4631 41.3769 96.577C37.8451 98.5708 34.0284 97.4315 30.3257 97.6024C27.3636 97.7163 24.4014 97.0327 21.3823 97.0327C15.2871 96.9758 9.2488 97.3745 3.15359 97.0327C1.8434 96.9758 1.33071 96.577 1.33071 95.2099C1.27375 85.4689 1.10285 75.7849 0.988919 66.044C0.931954 60.4614 0.875 54.8789 0.875 49.2964C0.931965 37.3907 1.04589 25.5421 1.04589 13.6365C1.04589 10.2186 0.931954 6.80075 0.988919 3.38287C1.04588 0.363742 1.21678 0.0788909 4.17894 0.0788909C11.5843 0.0788909 19.0467 -0.205918 26.4521 0.306763C28.7877 0.477657 31.1802 0.990339 33.5157 0.87641C36.9906 0.705516 40.4085 0.933375 43.8833 0.87641C47.7 0.762481 51.4596 0.648551 55.2763 0.87641C58.5232 1.0473 61.8841 1.16122 65.1881 0.933361C69.0617 0.705502 72.9923 0.249785 76.8659 0.648537C81.9357 1.16122 86.8916 0.249792 91.9615 0.47765C93.8413 0.59158 94.4679 1.04731 94.297 2.98411C94.1831 4.63608 94.5249 6.40197 93.8983 8.16788ZM3.55233 83.9878C3.55233 87.0639 3.55233 90.083 3.55233 93.1591C3.55233 93.8997 3.43841 94.5833 4.63467 94.5263C11.9831 94.2984 19.2746 94.6402 26.623 94.6402C34.712 94.6402 42.858 94.6972 50.9469 94.925C56.7004 95.0959 62.5108 95.2099 68.2642 95.2668C74.0176 95.3238 79.828 95.3238 85.5814 95.2668C88.1448 95.2099 90.7652 95.3808 93.2717 94.8681C94.1831 94.6972 94.4679 94.2415 94.411 93.387C94.411 91.3363 94.411 89.2855 94.4679 87.2348C94.6958 81.4814 94.411 75.7849 94.0692 70.0885C93.8413 66.1579 93.8983 62.1704 93.8983 58.2398C93.8983 53.17 93.7843 48.1571 93.5565 43.1442C93.2147 34.9413 92.702 26.6814 92.8729 18.4785C92.9299 16.5987 93.2717 14.7188 93.1577 12.9529C92.9868 9.99076 93.7274 7.14254 93.4995 4.23734C93.3856 3.04108 92.9869 1.95873 91.6767 2.18659C88.9424 2.58534 86.1511 2.24357 83.4168 2.41446C76.4671 2.87018 69.4604 2.58534 62.5108 2.75624C55.4471 2.92713 48.3266 3.32588 41.2629 2.92712C29.3573 2.30051 17.5087 2.87016 5.60306 2.6423C4.17894 2.6423 3.89412 3.21195 3.89412 4.46518C3.83716 12.0984 4.06502 19.7887 3.66626 27.4219C3.49537 31.2386 3.83716 35.0552 3.89412 38.8718C4.00805 47.4165 4.17895 56.0182 3.66626 64.5629C3.26751 70.9429 3.38143 77.4369 3.55233 83.9878Z" fill="#36372F"/>
<path d="M80.7958 84.6145C77.8337 85.1272 75.0424 84.7284 72.2511 84.3297C67.58 83.5891 62.852 84.0448 58.1808 83.4752C56.358 83.2473 54.4781 83.6461 52.7122 83.0764C52.3705 82.9625 51.8008 83.2473 51.6869 82.6777C51.5729 81.9941 52.1426 81.8232 52.6553 81.6523C54.763 80.9687 56.9276 80.3421 58.9784 79.6585C60.8012 79.0319 60.7443 78.975 59.7759 77.38C55.9592 71.2278 51.6299 65.4174 47.4145 59.4931C46.7309 58.5816 46.674 57.7841 47.1297 56.7587C47.4145 56.1321 47.6424 55.4486 46.9588 54.765C46.3322 54.1384 45.8195 54.1954 45.079 54.5371C44.1675 54.9929 43.6549 54.1953 43.37 53.6257C42.4586 51.6889 40.5788 50.4357 39.7243 48.385C39.4395 47.7014 38.0723 47.4166 37.1609 47.1317C36.7621 47.0178 36.5912 47.6444 36.5912 48.214C36.6482 54.8219 36.0786 61.4299 36.3634 68.0947C36.4773 70.7721 36.6482 73.5634 36.3634 76.2977C36.2494 77.0952 36.5343 77.6648 37.3888 78.1775C39.3255 79.3737 41.1484 80.7409 43.0282 82.0511C43.37 82.3359 43.9397 82.5068 43.7118 83.1334C43.5409 83.5891 43.0282 83.5322 42.6295 83.5891C39.5534 83.8739 36.4773 83.7031 33.4012 83.5891C26.6794 83.4752 19.9576 82.9055 13.2357 83.3613C12.78 83.4182 12.0395 83.703 11.8686 83.0764C11.6407 82.3929 12.3813 82.165 12.894 81.9371C16.3688 80.57 19.7867 79.2028 23.3185 77.8927C24.1729 77.5509 24.5147 77.0952 24.5717 76.1837C24.7996 72.0253 24.5717 67.9238 24.5717 63.7654C24.5717 55.9043 24.5717 48.0432 24.5147 40.182C24.5147 33.802 23.8881 27.422 24.1729 21.0419C24.2869 19.1051 23.4894 18.1937 22.1222 17.2253C20.3563 15.9151 18.7613 14.491 16.8815 13.3517C16.5397 13.1238 16.027 12.9529 16.2549 12.4402C16.4258 12.0415 16.8815 11.9845 17.3372 12.0415C18.5904 12.2124 19.7867 12.5542 20.9829 12.5542C28.5592 12.6111 36.1355 12.1554 43.7688 11.8136C44.1675 11.8136 44.5663 11.6997 45.1359 12.0415C43.8257 13.2377 42.2877 13.5796 40.8636 14.2062C39.3825 14.8897 38.1293 15.8581 37.047 16.9974C36.5343 17.5101 36.2495 18.1367 36.2495 18.9342C36.1355 24.7446 35.2241 30.4981 35.4519 36.3085C35.5089 38.2453 35.6228 40.239 35.6798 42.1758C35.6798 43.2581 36.1925 43.2012 36.933 42.8594C38.8129 41.948 40.3509 40.5238 41.9459 39.2706C46.5031 35.511 51.1172 31.8652 55.1617 27.5359C57.896 24.6307 60.4594 21.6116 63.4216 18.9912C64.1621 18.3076 64.2191 17.7949 63.3646 17.1114C61.7696 15.9151 60.2885 14.6049 58.7505 13.2947C58.4657 13.0669 58.0669 12.896 58.1808 12.4402C58.2948 12.0415 58.6935 12.1554 58.9784 12.2124C66.042 13.1808 73.1056 12.5542 80.1692 12.7821C80.5679 12.7821 81.1946 12.4403 81.3655 13.0669C81.5364 13.5796 80.9667 13.8074 80.5679 14.0922C78.1185 15.8581 75.4411 17.3392 73.1056 19.333C72.5359 19.7887 72.0232 20.1874 71.6245 20.8141C71.3397 21.2698 70.884 22.0673 70.0865 21.3268C69.9725 21.2698 69.7447 21.0419 69.8016 21.2698C69.9725 23.6623 67.6939 24.175 66.4977 25.4852C63.6494 28.7322 60.0037 31.2386 56.8137 34.2008C54.1933 36.5933 51.7438 39.2137 48.9526 41.4353C48.1551 42.0619 48.4399 42.6885 48.8956 43.3151C56.301 53.5687 63.8203 63.7654 70.9979 74.19C73.5613 78.2344 77.4349 81.0827 80.7958 84.6145ZM70.5991 15.3455C70.2573 16.5417 71.5106 16.2569 71.9093 16.8265C72.0802 17.0544 72.7068 16.4278 72.5929 16.3138C72.1372 15.6872 72.1372 14.6619 71.2827 14.434C70.3713 14.0922 70.9979 15.1746 70.5991 15.3455ZM31.9771 68.0947C32.5468 68.4935 33.1734 68.7783 32.9455 69.6328C32.8885 69.8037 33.1164 70.1455 33.4582 70.0315C33.8569 69.9746 33.686 69.6328 33.686 69.4049C33.743 68.2087 33.1164 67.8099 31.9771 68.0947Z" fill="#36372F"/>
</svg>
