<svg width="96" height="99" viewBox="0 0 96 99" fill="none" xmlns="http://www.w3.org/2000/svg">
<rect x="3" y="1" width="90" height="96" fill="white"/>
<path d="M93.0233 8.16788C94.1626 8.05395 93.7069 7.08555 94.1056 6.74376C94.5044 6.80073 94.5044 7.14251 94.5044 7.31341C94.1056 9.13628 94.6753 10.9022 94.5044 12.725C94.5044 12.9529 94.5044 13.1238 94.2765 13.2377C93.3651 13.9783 93.3651 14.434 94.1626 15.5733C94.9601 16.6556 94.9601 18.3646 94.9601 19.9026C94.9601 22.8648 94.3335 25.8269 95.1879 28.7891C95.3588 29.3587 95.131 30.0993 95.0171 30.7829C94.3905 34.9982 94.9031 39.2706 95.131 43.486C95.2449 45.3088 94.9601 47.1887 95.131 48.9546C95.3588 51.1762 94.7322 53.3978 95.1879 55.5625C95.5867 57.3284 95.4158 58.9234 94.9601 60.6893C94.6753 61.7147 95.074 63.0248 95.3588 64.1072C95.7576 65.5313 95.5297 66.9554 95.4728 68.3795C95.4158 69.9745 95.3588 71.6265 95.4158 73.2215C95.5297 76.5255 95.5297 79.7724 95.5297 83.0764C95.4728 87.1209 96.1563 91.1654 95.8145 95.2099C95.6437 97.3175 95.4728 97.7733 93.479 97.8302C87.2129 97.9442 80.9468 98.229 74.6807 97.9442C66.136 97.6024 57.5913 97.3175 49.0466 96.9188C47.2237 96.8049 45.4008 96.8049 43.578 96.7479C42.8944 96.6909 42.0399 97.3745 41.4133 96.4631C41.3563 96.3492 40.7867 96.4631 40.5019 96.577C36.9701 98.5708 33.1534 97.4315 29.4507 97.6024C26.4886 97.7163 23.5264 97.0327 20.5073 97.0327C14.4121 96.9758 8.3738 97.3745 2.27859 97.0327C0.968399 96.9758 0.45571 96.577 0.45571 95.2099C0.398746 85.4689 0.227848 75.7849 0.113919 66.044C0.0569542 60.4614 0 54.8789 0 49.2964C0.0569647 37.3907 0.170887 25.5421 0.170887 13.6365C0.170887 10.2186 0.0569542 6.80075 0.113919 3.38287C0.170884 0.363742 0.341781 0.0788909 3.30394 0.0788909C10.7093 0.0788909 18.1717 -0.205918 25.5771 0.306763C27.9127 0.477657 30.3052 0.990339 32.6407 0.87641C36.1156 0.705516 39.5335 0.933375 43.0083 0.87641C46.825 0.762481 50.5846 0.648551 54.4013 0.87641C57.6482 1.0473 61.0091 1.16122 64.3131 0.933361C68.1867 0.705502 72.1173 0.249785 75.9909 0.648537C81.0607 1.16122 86.0166 0.249792 91.0865 0.47765C92.9663 0.59158 93.5929 1.04731 93.422 2.98411C93.3081 4.63608 93.6499 6.40197 93.0233 8.16788ZM2.67733 83.9878C2.67733 87.0639 2.67733 90.083 2.67733 93.1591C2.67733 93.8997 2.56341 94.5833 3.75967 94.5263C11.1081 94.2984 18.3996 94.6402 25.748 94.6402C33.837 94.6402 41.983 94.6972 50.0719 94.925C55.8254 95.0959 61.6358 95.2099 67.3892 95.2668C73.1426 95.3238 78.953 95.3238 84.7064 95.2668C87.2698 95.2099 89.8902 95.3808 92.3967 94.8681C93.3081 94.6972 93.5929 94.2415 93.536 93.387C93.536 91.3363 93.536 89.2855 93.5929 87.2348C93.8208 81.4814 93.536 75.7849 93.1942 70.0885C92.9663 66.1579 93.0233 62.1704 93.0233 58.2398C93.0233 53.17 92.9093 48.1571 92.6815 43.1442C92.3397 34.9413 91.827 26.6814 91.9979 18.4785C92.0549 16.5987 92.3967 14.7188 92.2827 12.9529C92.1118 9.99076 92.8524 7.14254 92.6245 4.23734C92.5106 3.04108 92.1119 1.95873 90.8017 2.18659C88.0674 2.58534 85.2761 2.24357 82.5418 2.41446C75.5921 2.87018 68.5854 2.58534 61.6358 2.75624C54.5721 2.92713 47.4516 3.32588 40.3879 2.92712C28.4823 2.30051 16.6337 2.87016 4.72806 2.6423C3.30394 2.6423 3.01912 3.21195 3.01912 4.46518C2.96216 12.0984 3.19002 19.7887 2.79126 27.4219C2.62037 31.2386 2.96216 35.0552 3.01912 38.8718C3.13305 47.4165 3.30395 56.0182 2.79126 64.5629C2.39251 70.9429 2.50643 77.4369 2.67733 83.9878Z" fill="#36372F"/>
<path d="M79.9208 84.6145C76.9587 85.1272 74.1674 84.7284 71.3761 84.3297C66.705 83.5891 61.977 84.0448 57.3058 83.4752C55.483 83.2473 53.6031 83.6461 51.8372 83.0764C51.4955 82.9625 50.9258 83.2473 50.8119 82.6777C50.6979 81.9941 51.2676 81.8232 51.7803 81.6523C53.888 80.9687 56.0526 80.3421 58.1034 79.6585C59.9262 79.0319 59.8693 78.975 58.9009 77.38C55.0842 71.2278 50.7549 65.4174 46.5395 59.4931C45.8559 58.5816 45.799 57.7841 46.2547 56.7587C46.5395 56.1321 46.7674 55.4486 46.0838 54.765C45.4572 54.1384 44.9445 54.1954 44.204 54.5371C43.2925 54.9929 42.7799 54.1953 42.495 53.6257C41.5836 51.6889 39.7038 50.4357 38.8493 48.385C38.5645 47.7014 37.1973 47.4166 36.2859 47.1317C35.8871 47.0178 35.7162 47.6444 35.7162 48.214C35.7732 54.8219 35.2036 61.4299 35.4884 68.0947C35.6023 70.7721 35.7732 73.5634 35.4884 76.2977C35.3744 77.0952 35.6593 77.6648 36.5138 78.1775C38.4505 79.3737 40.2734 80.7409 42.1532 82.0511C42.495 82.3359 43.0647 82.5068 42.8368 83.1334C42.6659 83.5891 42.1532 83.5322 41.7545 83.5891C38.6784 83.8739 35.6023 83.7031 32.5262 83.5891C25.8044 83.4752 19.0826 82.9055 12.3607 83.3613C11.905 83.4182 11.1645 83.703 10.9936 83.0764C10.7657 82.3929 11.5063 82.165 12.019 81.9371C15.4938 80.57 18.9117 79.2028 22.4435 77.8927C23.2979 77.5509 23.6397 77.0952 23.6967 76.1837C23.9246 72.0253 23.6967 67.9238 23.6967 63.7654C23.6967 55.9043 23.6967 48.0432 23.6397 40.182C23.6397 33.802 23.0131 27.422 23.2979 21.0419C23.4119 19.1051 22.6144 18.1937 21.2472 17.2253C19.4813 15.9151 17.8863 14.491 16.0065 13.3517C15.6647 13.1238 15.152 12.9529 15.3799 12.4402C15.5508 12.0415 16.0065 11.9845 16.4622 12.0415C17.7154 12.2124 18.9117 12.5542 20.1079 12.5542C27.6842 12.6111 35.2605 12.1554 42.8938 11.8136C43.2925 11.8136 43.6913 11.6997 44.2609 12.0415C42.9507 13.2377 41.4127 13.5796 39.9886 14.2062C38.5075 14.8897 37.2543 15.8581 36.172 16.9974C35.6593 17.5101 35.3745 18.1367 35.3745 18.9342C35.2605 24.7446 34.3491 30.4981 34.5769 36.3085C34.6339 38.2453 34.7478 40.239 34.8048 42.1758C34.8048 43.2581 35.3175 43.2012 36.058 42.8594C37.9379 41.948 39.4759 40.5238 41.0709 39.2706C45.6281 35.511 50.2422 31.8652 54.2867 27.5359C57.021 24.6307 59.5844 21.6116 62.5466 18.9912C63.2871 18.3076 63.3441 17.7949 62.4896 17.1114C60.8946 15.9151 59.4135 14.6049 57.8755 13.2947C57.5907 13.0669 57.1919 12.896 57.3058 12.4402C57.4198 12.0415 57.8185 12.1554 58.1034 12.2124C65.167 13.1808 72.2306 12.5542 79.2942 12.7821C79.6929 12.7821 80.3196 12.4403 80.4905 13.0669C80.6614 13.5796 80.0917 13.8074 79.6929 14.0922C77.2435 15.8581 74.5661 17.3392 72.2306 19.333C71.6609 19.7887 71.1482 20.1874 70.7495 20.8141C70.4647 21.2698 70.009 22.0673 69.2115 21.3268C69.0975 21.2698 68.8697 21.0419 68.9266 21.2698C69.0975 23.6623 66.8189 24.175 65.6227 25.4852C62.7744 28.7322 59.1287 31.2386 55.9387 34.2008C53.3183 36.5933 50.8688 39.2137 48.0776 41.4353C47.2801 42.0619 47.5649 42.6885 48.0206 43.3151C55.426 53.5687 62.9453 63.7654 70.1229 74.19C72.6863 78.2344 76.5599 81.0827 79.9208 84.6145ZM69.7241 15.3455C69.3823 16.5417 70.6356 16.2569 71.0343 16.8265C71.2052 17.0544 71.8318 16.4278 71.7179 16.3138C71.2622 15.6872 71.2622 14.6619 70.4077 14.434C69.4963 14.0922 70.1229 15.1746 69.7241 15.3455ZM31.1021 68.0947C31.6718 68.4935 32.2984 68.7783 32.0705 69.6328C32.0135 69.8037 32.2414 70.1455 32.5832 70.0315C32.9819 69.9746 32.811 69.6328 32.811 69.4049C32.868 68.2087 32.2414 67.8099 31.1021 68.0947Z" fill="#36372F"/>
</svg>
