<svg width="100" height="95" viewBox="0 0 100 95" fill="none" xmlns="http://www.w3.org/2000/svg">
<path d="M1.03983 86.172C0.887382 83.6313 0.989011 81.1414 1.2939 78.6007C1.75123 74.7896 1.2939 71.0293 1.2939 67.2182C1.34471 61.9843 0.785751 56.8013 0.88738 51.5674C0.989009 46.2319 0.989008 40.9472 0.989008 35.6116C0.989008 30.4286 0.887379 25.2963 0.938194 20.1132C0.989008 15.4891 1.24308 10.9159 1.34471 6.29175C1.39553 4.97057 1.34471 3.59857 1.2939 2.27739C1.24308 1.31192 1.80204 0.752954 2.66589 0.651325C6.47697 0.193995 10.2881 -0.00925655 14.0483 0.75296C15.8268 1.10866 17.4529 0.600517 19.1806 0.498888C22.4327 0.29563 25.6848 0.194001 28.9878 0.244816C33.8151 0.346444 38.6425 0.143174 43.4699 0.0415455C49.8725 -0.110898 56.2243 0.194007 62.6269 0.346451C71.5194 0.600523 80.3612 0.854601 89.2537 1.2103C91.9977 1.31193 94.6908 1.61682 97.4348 1.71845C98.2986 1.76926 98.6035 2.22657 98.9084 2.93797C99.7723 4.81811 99.4674 6.8507 99.4674 8.83247C99.569 13.4566 99.6198 18.0299 99.6706 22.654C99.7214 28.396 99.569 34.1888 99.4166 39.9309C99.3149 43.6403 99.0609 47.4006 99.0101 51.1609C98.9592 55.3785 99.0609 59.6469 99.0101 63.8645C98.9592 68.0821 98.7052 72.3505 98.8068 76.5681C98.9084 80.6333 98.8576 84.6476 98.6543 88.7127C98.6035 89.7798 98.5527 90.8978 98.4511 91.9649C98.2986 93.286 97.384 93.9466 96.1136 93.9974C92.9123 94.0991 89.6602 94.2007 86.4589 94.3023C81.6823 94.4039 76.855 94.5564 72.0784 94.6072C66.6413 94.658 61.2041 94.5564 55.767 94.5056C48.1956 94.4548 40.5735 94.4548 33.0021 94.3531C23.8047 94.2007 14.5565 93.9466 5.35905 93.5401C1.14145 93.3368 1.34471 93.0828 1.03983 89.0176C0.938196 88.0522 1.03983 87.1375 1.03983 86.172ZM2.76751 44.555C3.93624 45.1648 3.98706 46.1302 3.93625 47.1465C3.88543 49.9413 3.88543 52.6853 3.83462 55.4801C3.83462 57.1062 4.59683 58.6306 4.4952 60.3075C4.34276 63.2039 4.4952 66.1003 4.03787 68.9967C3.73299 70.7244 4.29195 72.5029 4.03787 74.129C3.37729 79.0072 4.03787 83.8346 4.44439 88.6111C4.54602 89.5766 5.00335 90.5421 6.2229 90.4404C7.49326 90.3896 8.76362 90.5929 9.98316 90.7961C12.8796 91.3043 15.776 90.6437 18.7232 90.8469C22.5851 91.1518 26.4979 91.101 30.4106 91.2026C34.2725 91.3043 38.1344 91.1518 41.9963 91.101C45.7057 91.0502 49.4152 91.3043 53.1754 91.1518C59.8829 90.8978 66.6413 91.0502 73.3488 91.0502C77.0074 91.0502 80.666 90.9994 84.3247 91.0502C85.9507 91.101 87.5768 90.9994 89.2029 91.2026C91.0322 91.4567 93.0139 91.66 94.3351 89.729C95.3514 88.2554 95.7071 86.6293 95.8087 84.9016C95.9612 82.0052 95.6563 79.058 95.453 76.1616C95.2498 72.757 95.453 69.4033 95.453 65.9987C95.453 65.4906 95.2498 65.0332 95.3514 64.4234C95.9104 61.527 95.8087 58.529 95.7071 55.5817C95.6563 53.041 95.7071 50.5003 95.5547 47.9087C95.4022 45.5713 95.8087 43.1322 95.6055 40.7439C95.453 39.3719 96.0628 38.0507 95.7071 36.6279C95.2498 35.0019 95.1482 33.2742 95.7071 31.5973C95.9104 30.9876 95.9104 30.4794 95.8596 29.8696C95.5547 27.583 95.5039 25.2963 95.453 23.0097C95.453 22.0442 95.9104 21.282 95.8087 20.3165C95.3514 15.5908 95.4022 10.865 95.6055 6.13928C95.6563 4.76729 95.0973 4.20834 93.6745 4.20834C93.3697 4.20834 93.0648 4.15751 92.8107 4.1067C88.8472 3.3953 84.7312 3.85263 80.7677 3.09041C79.4973 2.83634 78.2778 3.39531 77.0582 3.29368C74.4159 3.03961 71.8243 3.03961 69.2328 3.54775C68.4198 3.7002 67.5559 3.7002 66.6921 3.64939C65.0152 3.49695 63.2875 3.14123 61.7123 3.44612C58.0028 4.15752 54.2933 3.24287 50.5839 3.64939C49.8725 3.75102 49.0595 3.6494 48.3481 3.49695C43.7239 2.48066 38.9982 2.78553 34.3233 2.6839C30.4614 2.58227 26.5995 3.85263 22.7376 2.58227C22.5343 2.53145 22.2294 2.63308 21.9754 2.58227C20.0444 2.27738 18.0627 2.48066 16.1825 2.6331C14.7597 2.78554 13.2861 2.2774 11.9649 2.88717C11.3552 3.19206 10.847 3.29369 10.1864 3.14124C7.39163 2.53147 6.22289 3.44614 5.56231 6.29175C5.30823 7.35885 5.66394 8.73082 4.19032 9.28978C4.03787 9.34059 3.98706 9.79794 3.98706 10.1028C3.93625 11.5764 4.03788 13.05 3.88543 14.5237C3.83462 15.1842 4.54602 15.5399 4.34276 16.3022C3.63136 19.097 3.7838 21.9426 3.83462 24.7882C3.88543 26.5667 4.1395 28.3452 4.1395 30.1237C4.1395 34.0364 3.98706 37.9491 4.08869 41.8618C4.13951 43.3355 3.93624 44.1485 2.76751 44.555Z" fill="#36372F"/>
<path d="M18.0634 77.3309C18.2158 77.026 18.2666 76.772 18.3682 76.7211C19.9435 76.1114 20.9598 74.587 22.4842 73.8755C23.6021 73.3674 24.3643 72.8084 24.2119 71.4873C24.1611 71.0299 24.4152 70.5218 24.5168 70.0645C25.0249 67.6762 24.2627 65.2371 24.8725 62.8488C23.5513 61.426 24.4152 59.9016 24.5676 58.3771C25.0757 54.5153 25.2282 50.6025 24.8217 46.6898C24.72 45.9276 24.6692 45.1146 24.72 44.3015C24.8217 39.4234 23.8562 34.596 24.1611 29.7686C24.3643 26.6181 23.6529 23.4676 23.9578 20.3171C24.0595 19.3008 23.1956 18.5386 23.2972 17.4715C23.3481 17.1158 22.4842 16.4552 21.722 16.8618C21.2138 17.1158 20.8073 17.1666 20.35 16.8109C19.0796 15.7438 17.7585 14.6767 16.4881 13.5588C16.2848 13.3556 16.0308 13.1523 16.1832 12.7966C16.3357 12.4409 16.6914 12.5425 16.9962 12.5425C20.0451 12.5933 23.1448 12.6442 26.1937 12.6442C28.3787 12.6442 30.6145 12.9999 32.8503 13.0507C33.7142 13.0507 34.5272 12.8982 35.3403 12.7458C37.5761 12.2376 39.7611 13.2539 41.9969 12.9998C42.7083 12.8982 43.3689 12.9999 43.9787 12.5425C44.182 12.3901 44.5377 12.2885 44.7917 12.2885C45.808 12.136 47.2308 11.7295 47.6373 12.6442C48.0947 13.6604 46.6211 13.9653 45.9097 14.4735C44.0295 15.8455 42.0986 17.1158 40.2184 18.4878C38.9989 19.4025 38.2875 20.5712 38.1859 22.1973C37.881 26.8722 38.3383 31.5471 38.3383 36.222C38.3891 44.1491 38.4907 52.127 38.5924 60.054C38.6432 62.3915 38.694 64.7289 38.694 67.0664C38.694 68.5908 39.2022 69.5563 40.7774 70.0645C43.8263 71.0299 46.8751 71.7921 50.1781 71.8938C55.2595 72.0462 60.2901 71.3856 65.3208 71.6905C66.9468 71.7921 67.9123 70.8267 68.827 69.8104C71.6218 66.5583 74.569 63.5094 78.1768 61.1719C78.5833 60.9179 79.0407 60.4605 79.498 60.7146C80.1078 61.0703 79.4472 61.5784 79.4472 62.0358C79.2439 65.9485 77.3638 69.3531 76.3475 73.0117C76.0934 74.028 75.6869 74.9935 76.0426 76.0606C76.3475 76.9752 75.6361 77.3309 74.8739 77.3309C73.756 77.3817 72.5872 77.3817 71.4693 77.2801C67.6582 76.9244 63.8471 76.8228 60.0361 77.1277C56.9364 77.3309 53.8367 77.6358 50.737 77.6358C47.18 77.6358 43.623 77.5342 40.066 77.3309C35.6451 77.026 31.2243 77.3817 26.8542 77.4326C23.907 77.3817 21.0614 77.3309 18.0634 77.3309Z" fill="#36372F"/>
</svg>
