<svg width="289" height="304" viewBox="0 0 289 304" fill="none" xmlns="http://www.w3.org/2000/svg">
<path d="M289 123.55C289 191.784 233.707 247.099 165.5 247.099C97.2928 247.099 42 191.784 42 123.55C42 55.315 97.2928 0 165.5 0C233.707 0 289 55.315 289 123.55Z" fill="#C79F79"/>
<path d="M42 123.866H289V281H42V123.866Z" fill="#C79F79"/>
<path d="M15.877 271.035L44.3725 288.535L70.0185 286.907L103.806 284.465L133.93 280.803V277.14L125.381 273.07L114.39 263.71L120.496 207.14L125.381 201.849L127.01 186.384V150.57L116.019 144.058L106.249 138.361L102.178 131.442L73.6823 120.047L56.5849 113.942L24.4256 109.465L22.3902 113.942V122.896V138.361V164L17.5053 173.361V192.896V235.221L15.877 253.535V271.035Z" fill="#91BAE2"/>
<path d="M38.6723 112.314L18.3184 107.023L19.5396 100.919L28.9024 101.733L32.5661 97.2559H35.8228L42.7431 103.361L54.5484 110.279L62.283 103.361L65.1325 99.2907H67.9821L85.8936 109.058L116.425 126.151L113.168 132.256H105.433L75.7166 120.047L38.6723 112.314Z" fill="white"/>
<path d="M255.301 243.45C256.487 245.419 257.937 247.213 259.256 249.05C260.443 250.756 258.729 252.988 256.267 252.638C250.95 251.85 246.159 254.563 240.973 254.65C240.094 254.65 239.127 255.088 238.336 255.7C237.721 256.181 237.106 256.225 236.666 255.481C236.227 254.738 236.49 254.256 237.325 253.994C238.073 253.775 238.6 253.25 239.039 252.681C239.918 251.544 239.874 250.756 238.292 250.275C235.919 249.488 235.699 248.831 237.589 247.3C239.347 245.813 239.083 243.713 239.655 241.919C240.402 239.731 241.808 238.375 243.522 237.15C244.621 236.363 244.533 237.413 244.577 238.025C244.753 240.388 244.006 242.794 244.973 245.113C245.148 245.506 245.06 246.031 245.632 246.119C246.203 246.206 246.467 245.725 246.511 245.331C246.774 242.488 248.269 239.731 246.994 236.713C245.983 234.394 243.742 232.95 241.413 234.525C240.402 235.225 239.655 234.569 238.732 234.263C236.051 233.388 233.941 232.031 233.062 229.056C232.447 227 228.975 225.513 226.953 226.125C226.294 226.3 226.162 226.781 226.382 227.306C226.778 228.444 226.602 229.8 227.876 230.588C228.58 230.981 228.623 231.725 228.755 232.469C229.81 238.506 229.854 244.588 230.557 250.625C231.216 256.663 235.348 260.031 240.709 262.088C243.434 263.138 246.247 263.969 249.104 264.494C250.862 264.844 251.96 266.506 253.718 266.944C254.334 267.075 254.114 267.775 254.07 268.3C253.762 273.856 252.708 274.863 247.214 274.294C242.951 273.856 238.688 273.9 234.513 274.513C228.58 275.388 223.569 273.594 218.823 270.356C218.339 270.006 217.944 269.656 217.724 269.044C215.746 263.05 213.681 257.056 211.791 251.063C210.78 247.781 208.451 245.025 207.704 241.656C206.693 236.975 203.001 235.838 199.266 234.963C197.508 234.569 195.75 234.175 193.948 233.781C192.102 233.388 191.311 233.956 192.278 235.575C193.904 238.375 193.157 241.919 195.574 244.544C196.497 245.55 196.629 247.388 196.716 248.919C196.892 250.975 198.65 252.9 197.244 255.088C199.837 259.069 196.936 263.05 197.156 267.031C197.244 268.825 195.794 271.406 194.519 273.025C192.541 275.519 190.124 277.531 187.487 279.15C185.026 280.638 182.389 279.806 181.027 277.619C180.499 276.744 180.631 276 180.851 275.125C181.334 272.85 181.95 270.531 180.192 268.475C179.269 267.381 178.17 266.725 176.808 266.244C173.116 264.975 169.556 266.156 166.04 266.725C162.48 267.294 161.645 270.4 161.206 273.506C161.118 274.206 161.294 274.906 160.415 275.3C158.349 276.263 156.723 277.881 155.053 279.413C151.625 282.519 147.494 283.175 143.055 282.738C139.319 282.344 135.583 282.475 131.848 282.65C124.069 283 116.509 284.794 108.774 285.275C106.225 285.45 103.984 286.806 101.347 287.069C93.1725 287.813 85.0859 289.081 76.8674 288.688C72.6044 288.469 68.4292 289.563 64.2101 289.738C60.6942 289.869 57.2222 290.394 53.5744 289.956C51.5967 289.694 49.3114 290.263 47.1139 290.438C44.6528 290.613 42.4993 289.738 40.5216 288.469C33.8413 284.05 27.205 279.544 20.2171 275.563C18.1954 274.425 16.0419 273.55 14.3279 271.8C13.4489 270.925 13.1413 270.138 13.0974 268.956C12.9216 262.306 13.3611 255.7 14.0642 249.094C14.9872 240.869 14.4598 232.644 14.5037 224.419C14.5916 214.138 14.3719 203.856 14.6356 193.575C14.7674 188.938 15.3827 184.256 14.9432 179.619C14.5916 175.988 14.6795 172.706 16.6133 169.513C17.2725 168.419 17.6681 167.15 18.3712 166.056C19.426 164.481 20.1292 162.775 20.2171 160.763C20.7884 148.338 20.6566 135.869 20.6126 123.4C20.6126 122.394 20.5687 121.388 20.8324 120.381C21.8872 116.619 20.2171 113.819 17.6241 111.281C15.998 109.663 15.0751 107.65 14.9432 105.244C14.7235 100.563 19.426 98.5502 22.898 99.0752C25.9305 99.5565 28.5674 99.644 30.677 96.7565C32.0833 94.8315 35.1158 95.094 37.4891 97.0627C40.0381 99.1627 42.5432 101.263 45.0483 103.363C48.4763 106.25 52.5636 106.25 56.6948 105.769C58.6286 105.55 60.0349 104.369 60.7381 102.444C61.0897 101.481 61.5292 100.563 62.7598 100.388C62.9356 100.344 63.2872 100.169 63.2872 100.038C63.463 97.8065 65.133 97.894 66.7591 97.7627C68.3413 97.6315 69.6598 97.894 71.0661 98.8127C75.8126 101.831 81.3942 103.231 86.2286 106.163C89.0853 107.913 92.2056 109.094 95.0184 111.15C96.9521 112.594 100.029 111.981 102.314 110.538C103.501 109.794 104.687 109.269 106.094 108.963C112.159 107.65 116.466 100.606 115.015 94.569C113.873 89.844 115.411 85.9065 119.146 82.9752C121.52 81.1377 122.838 78.994 122.311 76.0627C121.783 73.1752 119.937 71.294 116.993 70.5502C116.378 70.3752 115.718 70.2877 115.455 69.5002C114.795 67.5752 113.829 65.694 113.433 63.7252C112.51 58.9127 111.367 54.1877 109.829 49.5502C109.258 47.8002 110.225 46.269 111.06 44.8252C113.345 40.7127 116.422 37.169 119.762 33.9315C122.443 31.3065 125.959 30.4752 129.518 31.3502C132.155 32.0065 134.836 32.269 137.429 33.0565C139.055 33.5377 140.374 34.2815 141.429 35.594C143.758 38.4377 146.263 41.1065 146.351 45.219C146.439 48.1502 150.79 51.6065 153.734 52.0877C156.327 52.5252 158.173 54.5815 160.459 55.5877C160.59 55.6752 160.722 55.9815 160.722 56.1565C160.722 59.5252 163.139 59.919 165.732 60.444C172.193 61.7127 177.423 64.6002 182.125 69.6315C187.355 75.2752 189.157 82.2315 192.234 88.7065C193.244 90.8065 193.332 93.344 193.684 95.7065C193.904 97.194 194.387 98.5502 194.959 99.8627C195.618 101.35 196.892 101.438 197.815 100.081C198.562 99.0315 199.222 97.8502 199.793 96.7127C202.65 91.2877 207.923 89.1002 213.197 87.1752C216.01 86.169 218.955 86.869 221.548 88.5315C224.141 90.1502 226.734 92.0752 229.415 93.169C232.491 94.3502 235.743 95.3127 238.776 96.669C243.039 98.594 247.653 99.5127 251.873 101.525C253.806 102.444 256.092 102.619 258.201 103.275C262.992 104.719 266.991 107.388 268.397 112.331C269.98 117.888 267.958 125.675 260.135 125.719C257.63 125.719 255.169 125.938 252.839 124.756C251.565 124.1 250.994 125.019 250.994 126.069C251.081 129.788 250.378 133.419 250.29 137.138C250.159 142.519 252.004 147.725 251.213 153.106C251.169 153.325 251.169 153.544 251.257 153.763C252.883 158.575 252.839 163.65 253.323 168.594C253.85 173.756 253.63 179.269 250.334 183.863C249.499 185.044 250.158 186.444 249.543 187.625C248.093 190.469 247.653 193.575 246.906 196.594C246.423 198.65 245.895 200.575 244.929 202.544C244.05 204.294 244.181 206.613 244.489 208.713C244.665 209.85 245.104 210.944 245.368 212.081C245.5 212.606 245.676 213.263 246.159 213.306C248.752 213.525 248.269 215.669 248.708 217.2C249.411 219.519 249.939 221.838 252.444 223.063C253.411 223.5 253.235 224.55 253.235 225.425C253.279 228.269 253.147 231.113 253.279 233.956C253.367 235.969 252.532 235.838 251.213 235.05C250.862 234.831 250.51 234.525 250.159 234.263C249.587 233.869 249.236 232.469 248.357 233.3C247.653 233.956 248.137 235.181 248.84 235.838C250.027 236.888 251.345 237.85 252.708 238.681C254.114 239.513 254.729 240.3 253.367 241.7C252.4 242.706 252.356 244.063 252.224 245.375C252.18 245.9 252.136 246.469 252.795 246.556C253.411 246.644 253.718 246.163 253.894 245.681C254.422 245.025 254.378 244.15 255.301 243.45ZM157.69 222.581C156.987 222.494 156.679 222.888 156.327 223.106C155.8 223.456 155.36 224.375 154.701 223.938C153.822 223.325 154.789 222.669 155.097 222.1C155.932 220.569 156.899 219.125 157.734 217.594C157.997 217.113 158.437 216.5 157.778 216.019C157.206 215.625 156.635 216.019 156.151 216.369C155.36 216.938 154.745 217.594 154.218 218.425C153.91 218.95 153.427 219.825 152.723 219.256C151.976 218.644 152.723 218.075 153.251 217.725C154.437 216.981 154.569 215.888 154.35 214.663C153.646 211.206 153.646 211.206 157.162 210.813C157.602 210.769 158.041 210.769 158.481 210.725C160.898 210.463 162.48 208.188 161.777 205.825C161.469 204.863 160.986 203.944 160.634 202.981C160.107 201.406 160.854 200.444 162.304 201.144C165.073 202.413 165.513 201.406 165.029 198.913C164.941 198.475 164.897 197.775 165.557 197.644C166.26 197.469 166.611 198.038 166.875 198.519C167.139 199.044 167.446 199.569 167.534 200.138C167.798 201.713 167.93 203.331 168.106 204.906C168.15 205.475 168.106 206.219 168.809 206.35C169.688 206.481 169.776 205.65 169.952 205.038C170.259 203.856 170.435 202.631 170.303 201.363C170.039 198.694 169.864 195.981 169.644 193.313C169.6 192.875 169.512 192.394 170.039 192.175C170.567 192 170.874 192.35 171.094 192.7C171.709 193.619 172.193 194.581 172.896 195.456C173.467 196.2 173.907 197.6 175.181 196.988C176.368 196.419 176.456 195.106 176.148 193.881C175.973 193.094 175.533 192.394 175.269 191.65C175.05 191.081 174.478 190.338 175.357 189.944C176.016 189.638 176.368 190.381 176.632 190.863C177.027 191.694 177.335 192.613 177.643 193.488C177.862 194.056 177.862 195.019 178.697 194.888C179.576 194.713 179.313 193.838 179.181 193.225C178.741 191.3 178.258 189.419 177.774 187.494C177.599 186.706 177.599 186.006 178.434 185.613C179.225 185.263 179.708 185.831 180.06 186.356C181.027 187.8 182.081 189.2 181.95 191.081C181.906 191.738 182.169 192.525 183.004 192.481C183.708 192.438 183.927 191.606 183.664 191.081C182.609 188.763 184.367 186.356 183.312 184.038C183.136 183.644 183.092 182.9 183.708 182.725C184.499 182.463 184.674 183.25 184.894 183.731C185.685 185.613 186.344 187.538 185.729 189.638C185.597 190.119 185.466 190.95 186.257 191.081C186.872 191.213 187.004 190.469 187.223 190.075C188.322 187.713 188.322 185.263 187.707 182.813C187.355 181.544 187.267 180.231 187.136 178.919C187.048 178.263 187.092 177.475 187.839 177.256C188.674 176.994 188.85 177.869 189.201 178.394C190.168 180.013 189.948 181.938 190.3 183.688C190.432 184.344 189.86 185.438 190.871 185.481C191.882 185.569 191.926 184.388 192.014 183.644C192.234 181.544 192.146 179.444 191.706 177.344C191.311 175.375 191.574 173.45 192.278 170.913C193.157 173.144 194.739 174.5 194.431 176.294C193.86 179.706 194.651 183.119 193.992 186.488C193.816 187.406 193.992 188.369 194.08 189.331C194.123 189.856 194.211 190.469 194.871 190.381C195.53 190.294 195.398 189.638 195.398 189.113C195.53 185.525 195.002 181.894 195.794 178.306C196.145 176.731 195.837 175.113 195.794 173.538C195.75 171.088 194.387 168.944 194.651 166.494C194.695 165.925 194.123 165.006 195.134 164.919C195.969 164.831 195.969 165.75 196.145 166.363C198.211 173.888 198.43 181.544 197.551 189.288C197.464 189.9 197.024 190.688 197.947 190.95C198.65 191.169 199.178 190.644 199.573 190.075C200.101 189.419 200.101 188.631 200.144 187.8C200.232 184.475 200.188 181.106 200.628 177.781C200.98 175.244 200.364 172.925 199.925 170.563C199.266 166.844 198.65 163.081 197.991 159.363C198.738 160.063 199.266 160.806 199.617 161.638C200.716 164.219 202.606 166.669 202.518 169.556C202.342 174.063 202.386 178.613 202.562 183.119C202.606 184.169 201.815 186.094 203.177 186.094C204.759 186.138 204.408 184.081 204.583 182.856C205.111 178.7 204.539 174.719 203.66 170.606C202.43 164.831 202.869 158.75 200.276 153.194C199.969 152.538 199.441 151.663 200.188 150.656C201.375 151.706 201.902 152.975 202.254 154.288C202.957 156.825 203.704 159.319 204.495 161.813C204.715 162.469 205.111 163.038 205.858 163.038C206.517 163.081 206.737 162.6 206.737 162.031C206.693 159.713 206.605 157.394 205.726 155.163C204.012 150.919 202.606 146.544 200.628 142.388C200.408 141.95 200.188 141.338 200.76 141.031C201.331 140.725 201.771 141.338 201.902 141.775C202.474 143.7 203.704 145.231 204.583 146.981C205.902 149.563 206.693 152.45 208.627 154.813C208.715 153.456 209.55 152.188 209.022 150.788C207.176 145.888 205.111 141.075 202.21 136.656C200.364 133.856 198.694 130.925 196.936 127.994C197.947 127.731 198.343 128.388 198.826 128.781C200.672 130.313 201.551 132.5 202.825 134.425C205.287 138.1 208.055 141.6 209.506 145.8C211.044 150.219 213.593 154.288 213.813 159.188C213.901 160.763 214.604 162.25 214.604 163.913C214.604 164.788 214.955 165.794 215.878 166.494C216.362 164.7 216.01 163.169 215.79 161.594C215.395 158.663 213.988 155.994 213.637 153.019C213.241 149.913 212.274 146.675 210.692 143.963C208.846 140.769 207.264 137.488 205.418 134.294C203.441 130.881 200.76 128.169 198.167 125.325C197.683 124.8 197.112 124.625 196.453 124.45C193.684 123.706 190.827 124.538 188.015 123.969C186.74 123.706 185.29 124.625 185.685 126.156C186.564 129.656 185.817 133.113 185.641 136.569C185.553 138.625 186.784 140.638 186.037 142.563C185.334 144.4 185.334 146.238 185.158 148.119C185.026 149.344 184.63 150.481 184.015 151.619C181.774 155.6 177.862 156.213 173.907 156.563C171.578 156.738 167.666 159.231 166.743 161.375C166.436 162.119 166.567 162.819 167.49 162.775C169.073 162.644 170.699 162.688 172.105 161.681C174.478 160.019 177.291 159.45 179.884 158.313C180.499 158.05 181.071 158.181 181.334 158.881C181.73 159.888 181.51 160.894 180.895 161.769C180.587 162.206 180.016 162.25 179.796 161.769C178.741 159.669 177.862 161.156 177.027 161.9C176.192 162.6 175.489 163.431 174.742 164.263C173.072 166.056 171.578 166.363 169.468 165.181C168.501 164.656 167.666 164.831 166.787 165.313C164.062 166.756 161.25 167.938 158.217 168.638C156.811 168.988 155.36 169.513 154.306 170.519C151.229 173.45 147.977 176.075 146.087 180.188C143.978 184.869 142.571 189.638 141.648 194.581C141.473 195.631 141.297 195.981 140.374 195.413C138.528 194.275 138.132 195.413 137.781 196.9C136.902 200.488 136.287 204.206 134.836 207.663C133.474 210.856 133.606 214.313 133.122 217.638C132.99 218.6 133.034 219.65 133.913 220.263C135.891 221.706 135.32 222.975 133.825 224.331C133.298 224.813 132.639 225.381 133.034 226.169C133.386 226.913 134.133 226.65 134.792 226.563C135.188 226.519 135.715 226.344 135.891 226.956C135.979 227.35 135.627 227.569 135.364 227.831C133.825 229.363 133.913 229.931 135.935 230.763C136.682 231.069 137.957 230.981 137.737 232.206C137.561 233.256 136.682 233.913 135.583 234.131C134.88 234.263 134.001 234.088 133.869 235.094C133.825 235.4 134.045 235.838 134.265 236.056C134.924 236.581 135.671 236.363 136.287 235.925C137.385 235.225 139.055 234.481 139.539 235.575C140.11 236.8 138.22 237.325 137.166 237.894C136.506 238.288 135.408 238.463 135.935 239.556C136.33 240.431 137.209 240.781 138.176 240.3C139.143 239.775 140.198 239.994 141.209 240.038C141.56 240.038 142 240.125 142 240.563C142 240.781 141.78 241.088 141.56 241.263C140.55 242.05 139.495 242.794 138.176 243.8C139.934 244.456 141.385 243.888 142.791 243.975C143.362 244.019 144.109 243.8 144.285 244.5C144.505 245.331 143.714 245.638 143.099 245.813C142.044 246.119 140.989 246.338 139.89 246.556C139.099 246.731 137.869 246.425 138.044 247.781C138.176 248.875 139.231 248.919 140.154 248.875C140.813 248.831 141.473 248.744 142.132 248.656C143.714 248.525 145.296 248.394 146.878 248.263C145.56 249.575 144.153 250.406 142.439 250.625C141.604 250.713 140.33 250.713 140.506 251.85C140.681 253.031 141.956 252.813 142.879 252.725C144.637 252.55 146.351 252.331 148.109 252.2C148.724 252.156 149.603 251.763 149.823 252.638C150.087 253.6 149.076 253.819 148.46 254.038C147.362 254.388 146.175 254.606 145.076 254.869C144.329 255.044 143.318 255.088 143.406 256.225C143.494 257.188 144.373 257.406 145.208 257.45C147.01 257.625 148.856 257.8 150.658 257.931C148.768 258.588 146.834 258.981 145.472 260.6C145.164 260.95 144.637 261.038 144.241 260.863C142.615 260.031 140.813 259.769 139.099 259.2C138.352 258.938 137.253 258.238 138.923 257.494C139.363 257.275 140.066 257.319 139.89 256.575C139.758 256.006 139.099 256.006 138.616 255.875C137.209 255.438 135.671 255.569 134.353 254.825C133.562 254.388 133.166 253.906 134.177 253.25C135.979 252.113 134.66 251.675 133.65 251.413C132.815 251.15 131.936 251.063 131.188 250.494C130.309 249.838 129.518 249.181 131.276 248.656C131.892 248.481 132.287 247.913 131.804 247.563C130.222 246.425 129.87 245.113 130.705 243.363C130.793 243.144 130.309 242.663 130.002 242.313C129.65 241.919 129.123 241.438 129.343 241C130.309 238.944 129.387 236.975 129.123 235.05C128.068 227.525 129.43 220.088 130.178 212.65C130.793 206.394 132.551 200.225 132.199 193.838C132.155 192.875 132.199 191.65 131.057 191.563C129.782 191.475 129.958 192.831 129.738 193.706C129.65 194.144 129.694 194.581 129.65 195.019C129.167 198.781 128.595 202.5 128.244 206.263C127.848 210.288 127.365 214.313 126.706 218.338C126.046 222.406 125.519 226.519 124.508 230.544C123.541 234.394 122.882 238.375 122.135 242.269C121.608 245.113 121.432 248.044 120.816 250.888C120.157 253.906 119.41 256.838 122.355 259.156C122.53 259.288 122.574 259.506 122.706 259.725C124.157 262.044 129.87 264.45 132.595 264.275C136.462 264.013 140.33 261.825 144.285 263.969C144.461 264.056 144.725 264.013 144.944 263.969C148.68 263.488 152.416 263.488 156.151 262.875C159.799 262.263 163.227 260.95 166.743 259.988C168.633 259.463 170.787 259.069 172.237 257.45C172.501 257.144 172.896 256.794 172.676 256.313C172.501 255.919 172.105 255.919 171.753 255.963C171.226 256.006 170.479 256.531 170.215 255.744C169.908 254.869 170.787 254.475 171.358 254.125C172.984 253.163 174.83 252.463 176.192 251.15C176.983 250.363 178.082 249.663 177.862 248.263C177.818 247.869 177.423 247.606 177.027 247.694C175.753 248 174.918 248.744 174.39 250.056C173.511 252.113 171.797 252.9 169.6 252.944C171.05 251.631 171.753 249.706 173.731 248.919C175.709 248.131 176.28 245.988 177.379 244.413C179.708 241.219 179.708 240.956 179.049 239.031C174.83 243.406 172.325 249.4 166.128 251.588C174.083 243.231 180.895 234.263 183.048 222.538C182.257 222.538 181.95 223.019 181.906 223.5C181.202 227.481 178.126 230.281 176.808 234C175.885 236.669 174.083 239.119 172.457 241.525C170.655 244.194 168.501 246.556 164.853 247.213C165.161 246.031 165.908 245.506 166.48 244.85C168.721 242.094 171.314 239.6 173.028 236.45C173.336 235.881 173.995 235.225 173.292 234.744C172.588 234.219 172.105 235.05 171.797 235.575C170.743 237.456 169.16 238.9 167.798 240.475C166.523 241.963 164.809 242.925 162.92 243.625C169.556 235.138 176.236 226.738 176.676 215.406C176.148 216.719 175.973 218.206 175.401 219.475C173.775 223.106 172.369 226.781 170.303 230.194C168.15 233.781 165.952 237.281 162.041 239.294C161.601 239.513 161.074 239.994 160.678 239.381C160.327 238.856 160.766 238.419 161.118 238.069C161.909 237.194 162.656 236.319 163.491 235.531C168.545 230.631 171.226 224.419 173.336 217.9C173.511 217.375 173.643 216.806 173.116 216.544C172.457 216.194 172.193 216.85 172.061 217.331C171.709 218.95 170.655 220.219 169.952 221.619C168.281 224.944 167.139 228.488 164.809 231.463C163.579 232.994 162.436 234.613 160.415 235.269C160.019 235.4 159.536 235.619 159.184 235.225C158.876 234.831 159.228 234.438 159.448 234.044C160.898 231.856 162.7 229.931 164.458 228.006C166.655 225.556 166.699 222.275 168.413 219.125C167.051 219.606 166.611 220.175 166.304 220.831C165.205 222.975 164.282 225.206 162.964 227.175C161.206 229.8 159.008 232.031 155.448 233.213C156.239 231.2 157.646 230.281 158.788 229.1C160.063 227.788 160.502 225.906 160.239 224.419C159.492 225.425 158.788 226.431 157.997 227.394C157.514 227.963 156.855 228.488 156.108 227.875C155.404 227.263 155.756 226.519 156.151 225.906C156.899 224.856 157.953 224.069 157.69 222.581ZM57.1783 120.994C57.0025 117.231 56.563 116.794 52.6954 116.356C50.2343 116.094 47.8171 115.788 45.356 115.569C39.5986 115 34.0171 113.556 28.3477 112.375C27.205 112.156 25.0515 111.763 24.8757 113.513C24.6999 115.175 24.4362 116.969 24.7439 118.675C25.4031 122.481 25.3152 126.375 25.3152 130.181C25.2712 134.775 24.7878 139.325 24.5681 143.875C24.3483 148.95 25.0954 154.025 25.3591 159.1C25.491 161.638 26.4139 162.469 29.0069 162.775C32.1712 163.169 35.3795 163.169 38.4999 163.606C42.3674 164.131 46.3668 164 50.1903 165.269C50.6298 165.4 51.2451 165.356 51.7286 165.225C53.047 164.788 54.3216 164.569 55.7719 164.963C56.6069 165.181 58.0572 164.963 57.6617 163.388C56.6948 159.319 57.2222 155.163 57.1783 151.05C57.0904 141.075 56.6948 131.013 57.1783 120.994ZM173.511 73.8752C172.325 74.3127 171.666 75.2752 170.918 76.1502C170.479 76.719 170.083 77.419 169.468 77.769C168.589 78.3377 167.534 79.694 166.655 78.9065C165.688 78.0315 167.183 77.0252 167.622 76.1502C167.886 75.669 168.413 75.2752 168.809 74.8815C169.116 74.5752 169.468 74.1815 169.204 73.744C168.941 73.3065 168.457 73.4377 168.018 73.6565C167.402 73.9627 166.743 74.8377 166.084 74.094C165.381 73.3065 166.216 72.6502 166.743 72.0377C167.095 71.6002 167.315 71.2065 167.051 70.6377C166.743 69.9815 166.172 69.894 165.557 70.1127C164.722 70.419 164.15 70.0252 163.579 69.5002C162.876 68.8877 162.173 68.7565 161.425 69.4127C160.898 69.8502 160.283 70.1565 159.623 70.1565C157.646 70.2002 156.723 71.4252 155.976 73.0877C154.35 76.8502 153.427 80.9627 150.57 84.1127C150.35 84.3752 150.218 84.769 150.087 85.0752C149.295 86.869 148.021 88.1377 146.439 89.319C143.187 91.769 140.242 94.7002 138.044 98.1127C136.638 100.344 135.803 103.319 137.166 105.769C138.176 107.563 139.407 109.313 140.418 111.15C142.088 114.344 144.857 116.531 147.318 118.981C147.889 119.55 148.065 120.775 149.208 120.513C150.306 120.294 150.482 119.2 150.702 118.281C151.493 114.869 151.976 111.369 151.713 107.913C151.229 102.313 151.625 96.7565 151.493 91.1565C151.449 88.1815 152.767 85.5127 153.427 82.669C153.69 81.619 154.481 80.569 155.492 79.9127C155.932 79.6065 156.415 79.4315 156.943 79.7377C157.338 80.0002 157.602 80.569 157.382 80.8752C156.02 82.844 157.118 85.119 156.371 87.1752C154.789 91.5065 154.042 96.144 154.394 100.694C154.701 104.85 154.086 108.963 154.437 113.075C154.481 113.906 154.042 114.781 155.097 115.35C156.064 115.831 156.855 115.7 157.778 115.219C162.216 112.9 166.743 113.556 170.962 115.569C172.72 116.4 173.951 118.238 175.401 119.681C175.929 120.206 176.324 120.906 177.159 120.819C178.214 120.731 178.214 119.725 178.478 119.025C179.401 116.881 178.961 114.475 177.73 112.988C175.709 110.494 176.368 108.088 176.895 105.594C177.159 104.281 177.203 103.056 176.983 101.744C176.632 99.2502 175.094 97.369 173.995 95.269C172.588 92.5565 171.446 89.7127 168.721 87.919C168.062 87.4815 167.446 86.9565 166.831 86.4315C166.304 85.9502 165.952 85.3377 166.392 84.6815C166.787 84.0252 167.402 84.2877 167.93 84.6377C168.589 85.0752 169.248 85.2502 169.995 85.119C170.611 84.9877 171.138 84.8127 171.226 84.069C171.314 83.544 171.182 83.019 170.743 82.669C170.259 82.2752 169.82 82.4065 169.336 82.7565C168.897 83.0627 168.325 83.719 167.886 82.9315C167.49 82.2752 168.325 82.0127 168.721 81.619C170.962 79.4752 172.896 77.069 173.511 73.8752ZM229.239 138.844C229.458 138.8 229.678 138.756 229.898 138.713C230.689 142.738 231.612 146.719 232.271 150.788C233.194 156.65 233.722 162.6 233.458 168.55C233.458 168.988 233.502 169.513 234.029 169.556C234.425 169.6 234.601 169.206 234.732 168.856C234.864 168.375 235.084 167.894 235.128 167.369C235.26 161.944 235.436 156.475 234.249 151.138C232.535 143.306 231.392 135.475 231.788 127.469C231.92 124.45 231.876 121.388 232.755 118.413C233.106 117.188 233.766 116.269 235.304 115.744C234.996 117.406 234.776 118.85 234.513 120.25C234.425 120.688 234.425 121.213 234.952 121.344C235.523 121.519 235.655 120.994 235.875 120.644C236.402 119.681 236.798 118.675 237.15 117.625C238.688 113.075 240.753 108.963 246.247 108.175C247.258 108.044 247.917 107.256 248.181 106.294C248.488 105.244 247.566 104.938 246.906 104.544C244.753 103.275 242.511 102.138 240.094 101.569C232.183 99.644 225.108 95.5315 217.373 93.1252C212.934 91.7252 209.242 92.3815 206.869 95.794C205.682 97.5002 206.605 99.3377 206.166 101.044C206.122 101.175 206.473 101.613 206.693 101.613C209.198 101.744 207.88 103.144 207.572 104.194C206.693 107.125 206.166 110.1 206.034 113.206C207.132 111.194 208.011 109.094 208.978 107.038C209.286 106.425 209.813 105.638 210.692 106.075C211.439 106.469 211 107.213 210.912 107.869C210.341 111.15 208.802 114.213 208.934 117.625C208.978 118.15 208.539 118.938 209.33 119.113C210.033 119.288 210.253 118.5 210.473 118.019C211.176 116.663 211.088 115.175 211.22 113.731C211.483 111.5 212.538 109.75 213.901 108.088C214.252 107.65 214.692 107.431 215.219 107.781C215.746 108.131 215.878 108.656 215.439 109.094C213.022 111.413 215.043 114.825 213.373 117.275C213.329 117.319 213.593 117.581 213.857 117.888C214.823 115.875 215.263 113.644 217.504 112.2C217.46 112.856 217.548 113.163 217.416 113.381C216.142 116.138 217.021 119.156 216.274 121.956C216.186 122.35 216.098 122.875 216.625 123.094C216.977 123.269 217.285 122.963 217.285 122.744C217.241 121.256 218.823 120.25 218.471 118.631C218.251 117.538 219.218 116.969 219.834 116.269C220.053 116.006 220.361 115.7 220.757 115.919C221.196 116.094 221.108 116.531 221.108 116.881C220.976 118.675 220.932 120.513 220.449 122.306C220.141 123.531 220.009 124.8 220.493 126.375C222.471 124.713 222.163 122.175 223.613 120.556C223.613 122.875 223.877 125.15 223.569 127.294C222.602 134.425 223.394 141.469 224.448 148.469C225.371 154.813 224.492 161.113 225.327 167.369C225.459 168.244 224.756 169.775 225.811 169.863C226.953 169.95 226.953 168.288 227.305 167.325C227.349 167.238 227.349 167.194 227.305 167.106C227.041 161.244 227.701 155.338 226.514 149.519C226.426 148.994 226.338 148.381 226.909 148.206C227.744 147.9 227.876 148.688 227.964 149.213C228.448 151.794 229.239 154.331 229.283 156.913C229.327 162.338 229.678 167.806 228.711 173.231C228.492 174.456 228.58 175.681 228.58 176.95C228.58 177.475 228.799 178 229.371 178.131C230.074 178.306 230.162 177.694 230.381 177.256C230.821 176.25 230.997 175.156 231.041 174.063C231.612 165.663 231.26 157.35 229.986 149.038C229.458 145.581 228.667 142.256 229.239 138.844ZM19.8655 245.375C19.6018 248.919 20.0413 250.056 23.2056 251.763C27.3808 253.994 30.633 257.406 34.2808 260.25C35.7311 261.388 37.4891 261.956 38.8076 263.181C40.4776 264.756 42.4993 265.719 44.477 266.725C46.1031 267.556 46.9381 266.813 47.2458 265.019C47.6853 262.394 46.4986 259.988 46.4986 257.45C46.5426 252.419 46.7623 247.431 46.6305 242.4C46.4547 236.144 46.7623 229.888 46.4107 223.588C46.191 219.781 45.7515 215.931 46.1031 212.081C46.4986 207.794 44.5649 203.419 46.3668 199.175C46.4547 199 46.4107 198.738 46.3668 198.519C45.0044 194.056 45.8833 189.419 45.356 184.869C44.9165 181.5 44.7407 180.756 41.5324 179.619C35.4674 177.475 29.1827 176.206 22.898 174.719C21.4477 174.369 19.8655 174.325 19.426 176.338C18.9865 178.219 19.7337 179.488 21.7114 179.794C24.1725 180.188 26.5458 180.8 28.8311 181.894C31.6878 183.25 34.94 183.338 37.7967 184.65C38.7636 185.088 39.5986 185.613 39.3349 186.706C38.6318 189.419 39.1152 192.131 39.1152 194.844C39.1152 200.488 39.247 206.131 39.5547 211.731C39.6865 213.744 38.4999 215.406 38.7636 217.244C39.291 220.744 38.8515 224.2 38.456 227.656C38.3681 228.531 38.4999 229.406 38.4999 230.281C38.4999 236.231 38.4999 242.181 37.7967 248.131C37.577 250.013 36.6101 250.494 35.1158 249.313C31.556 246.556 27.4687 244.763 23.5572 242.706C20.7445 241.219 19.9534 241.613 19.8216 244.719C19.9095 244.938 19.8655 245.156 19.8655 245.375ZM213.373 197.294C212.45 197.556 212.099 198.125 212.099 198.694C211.923 201.363 209.901 203.2 209.11 205.606C208.978 206.044 208.759 206.744 208.099 206.525C207.44 206.306 207.748 205.65 207.923 205.213C208.759 203.113 209.462 200.969 209.725 198.694C209.769 198.081 210.165 197.25 209.198 197.075C208.363 196.944 207.792 197.513 207.748 198.344C207.616 200.969 206.297 203.2 205.243 205.519C205.023 206.044 204.759 206.831 204.1 206.613C203.221 206.35 203.573 205.475 203.792 204.906C204.627 203.025 204.935 201.013 205.155 198.956C205.199 198.519 205.155 198.038 204.671 197.863C204.144 197.644 203.88 198.081 203.704 198.475C203.221 199.656 202.386 200.663 202.342 202.106C202.254 203.813 201.375 205.3 200.232 206.569C199.925 206.963 199.485 207.444 198.914 207.05C198.43 206.7 198.562 206.131 198.782 205.65C199.397 204.338 200.101 203.025 200.672 201.713C200.98 201.013 201.507 200.094 200.408 199.656C199.529 199.306 199.046 200.094 198.826 200.794C197.727 204.163 195.706 206.963 193.376 209.588C193.069 209.894 192.893 210.463 192.409 210.113C191.926 209.763 192.278 209.281 192.585 209.019C193.816 207.881 194.08 206.219 194.871 204.819C195.134 204.338 195.31 203.594 194.651 203.288C194.036 203.025 193.772 203.638 193.552 204.075C191.97 207.181 189.773 209.938 187.839 212.781C187.355 213.481 186.784 214.094 187.487 214.925C188.102 215.669 188.981 215.538 189.729 215.188C192.014 214.094 194.563 214.05 196.936 213.481C201.727 212.344 205.858 213.219 209.198 217.113C209.945 217.988 210.956 218.775 212.274 219.038C214.208 219.431 216.054 220.044 217.988 220.569C222.119 221.75 226.074 223.806 230.689 222.1C234.425 220.744 237.457 216.981 237.237 213C235.04 213.656 235.348 216.675 232.623 217.769C234.776 211.906 237.721 206.7 236.402 200.138C235.919 200.838 235.743 201.056 235.655 201.319C234.557 204.338 233.985 207.488 233.282 210.638C233.018 211.819 232.755 213.613 231.216 213.131C229.854 212.694 230.381 211.031 230.865 209.85C232.227 206.656 232.535 203.244 233.106 199.875C233.194 199.394 233.458 198.694 232.799 198.563C232.008 198.344 231.92 199.219 231.832 199.7C231.348 201.888 230.821 204.119 230.513 206.35C230.294 207.794 229.678 208.975 228.799 210.069C228.448 210.506 228.052 211.163 227.393 210.769C226.866 210.463 227.217 209.85 227.349 209.369C228.14 206.438 228.931 203.463 229.678 200.531C230.557 197.206 230.337 194.013 229.195 192.481C228.843 192.919 228.975 193.444 228.931 193.969C228.58 198.388 228.096 202.763 225.811 206.744C225.503 207.269 225.415 208.231 224.58 207.881C223.833 207.575 224.229 206.744 224.36 206.131C224.448 205.781 224.58 205.431 224.712 205.081C226.558 199.788 227.305 194.363 227.129 188.806C227.129 188.15 226.909 187.494 226.734 186.881C226.602 186.444 226.206 186.138 225.723 186.269C225.327 186.356 225.152 186.75 225.195 187.1C225.767 191.475 223.877 195.544 223.789 199.831C223.745 201.625 223.042 203.244 222.339 204.819C222.119 205.3 221.68 205.694 221.108 205.344C220.669 205.081 220.713 204.6 220.757 204.163C221.24 201.669 221.68 199.175 222.207 196.681C222.954 193.225 223.306 189.769 223.13 186.269C223.086 185.525 222.91 184.65 222.031 184.65C220.888 184.65 221.24 185.7 221.284 186.356C221.46 189.375 220.625 192.263 220.361 195.238C220.229 196.681 219.79 198.081 219.438 199.481C219.35 199.919 219.043 200.313 218.515 200.269C217.944 200.181 217.944 199.656 218.032 199.219C218.164 198.431 218.295 197.644 218.515 196.856C219.306 194.188 219.394 191.388 219.746 188.675C219.834 188.106 219.834 187.363 219.13 187.188C218.339 187.013 217.9 187.713 217.812 188.369C217.636 189.856 217.109 191.3 217.021 192.831C216.801 196.156 216.537 199.525 214.472 202.325C214.12 202.806 214.032 203.813 213.153 203.419C212.538 203.113 213.022 202.369 213.109 201.844C213.285 200.444 213.769 198.956 213.373 197.294ZM20.7005 208.756C20.6566 212.563 20.0853 215.275 20.1292 218.075C20.2171 221.619 20.1292 225.163 20.0413 228.75C19.9534 232.381 19.2942 236.188 24.1286 237.5C24.5241 237.588 24.7878 238.069 25.1394 238.331C27.249 239.6 29.3585 240.913 31.556 242.094C32.6986 242.706 33.5776 242.4 33.7095 240.956C33.8413 239.075 34.149 237.194 34.0171 235.313C33.5776 228.75 34.105 222.144 34.1489 215.581C34.2368 207.663 34.4126 199.744 35.4674 191.913C35.6432 190.425 35.0279 189.725 33.7534 189.069C30.8088 187.581 27.6005 186.881 24.656 185.481C23.8209 185.088 22.9419 184.65 21.9311 184.694C20.7884 184.738 19.7776 185.088 19.9095 186.444C20.2171 190.119 20.0853 193.881 20.6126 197.513C21.2719 201.581 20.0853 205.694 20.7005 208.756ZM158.657 150.569C160.722 150.963 162.304 150.525 163.93 150.306C164.59 150.219 165.029 149.781 165.073 149.169C165.205 148.031 165.996 147.594 166.831 147.156C168.501 146.281 169.204 144.663 169.336 143.044C169.512 141.338 167.578 141.95 166.699 141.381C166.655 141.338 166.567 141.294 166.523 141.294C165.908 140.9 165.117 140.594 165.337 139.675C165.601 138.625 166.436 139.019 167.139 139.063C169.116 139.194 169.424 138.625 168.721 136.788C167.842 134.513 165.82 133.375 164.15 131.888C163.623 131.406 163.095 130.706 162.26 131.1C161.381 131.494 161.645 132.281 161.601 133.025C161.513 135.038 160.986 136.875 159.799 138.538C159.008 139.631 158.481 139.85 157.909 138.406C156.943 135.956 154.921 135.256 152.548 134.513C147.669 132.981 142.747 133.725 137.869 133.9C132.683 134.075 127.848 133.2 123.497 130.4C122.443 129.744 121.52 128.913 120.509 128.213C119.19 127.294 118.355 127.688 118.399 129.219C118.487 131.538 116.949 132.544 115.191 133.156C113.301 133.813 111.367 134.688 109.214 134.294C108.291 134.119 107.412 134.381 106.973 135.3C106.489 136.35 107.412 136.875 108.071 137.444C108.95 138.275 110.093 138.1 111.192 138.188C112.862 138.319 114.708 138.45 115.674 139.894C117.301 142.431 118.399 143.481 121.256 142.738C125.651 141.6 129.606 143.306 133.562 144.356C141.868 146.544 149.999 149.431 158.701 146.325C158.964 146.238 159.448 146.238 159.536 146.369C160.766 148.556 161.997 146.544 163.227 146.369C164.018 146.238 164.766 144.75 165.425 145.669C166.04 146.5 164.941 147.506 164.282 148.25C163.667 148.95 162.876 149.213 161.953 149.344C160.942 149.475 159.755 149.388 158.657 150.569ZM135.671 83.2377C135.583 82.494 135.056 81.3127 136.067 81.1815C137.078 81.0065 136.902 82.319 137.209 83.019C137.429 83.544 137.649 84.1127 137.957 84.594C138.22 85.0315 138.66 85.3815 139.231 85.119C139.715 84.944 139.934 84.419 139.802 84.0252C138.836 80.919 140.022 76.8502 135.759 75.1877C134.704 74.7502 134.397 73.4377 135.056 72.5627C135.759 71.644 136.418 72.7815 137.034 73.1315C137.429 73.3502 137.737 73.6565 138.088 73.919C138.44 74.1815 138.704 74.619 139.187 74.3127C139.715 73.9627 139.627 73.4377 139.495 72.9565C139.143 71.3377 138.176 70.2002 136.682 69.544C135.32 68.9315 135.144 68.144 135.627 66.744C136.243 64.994 137.869 63.6815 138.264 62.1065C138.967 59.2627 138.001 56.3315 136.946 53.6627C136.33 52.044 134.441 52.5252 133.166 51.9565C131.672 51.2565 130.617 50.5565 128.639 50.6002C124.948 50.644 121.212 49.3315 117.476 48.6752C115.323 48.2815 114.4 49.0252 113.916 51.2127C113.213 54.3627 114.751 56.8565 116.422 59.2627C116.905 60.0065 117.432 59.394 117.828 58.9127C118.751 57.7315 119.894 56.8565 121.432 56.594C123.497 56.244 124.684 57.6877 124.025 59.6127C123.234 61.8002 121.959 62.4565 119.762 61.669C117.74 60.969 117.432 61.1877 117.608 63.3315C117.696 64.3815 118.004 65.344 118.443 66.2627C118.795 67.0065 118.575 68.1877 119.762 68.2752C120.773 68.3627 120.86 67.2252 121.388 66.7002C122.135 65.9565 122.53 64.6002 123.937 65.0377C125.123 65.4315 125.431 66.4815 125.343 67.7065C125.299 68.4065 125.607 69.019 126.354 68.4502C127.409 67.6627 128.244 67.7502 129.035 68.669C129.914 69.6752 130.705 70.7252 129.958 72.2127C129.255 73.6127 129.343 75.0127 130.178 76.369C130.485 76.8502 130.793 77.5065 130.661 77.9877C130.046 81.0065 131.013 83.894 131.452 86.7815C131.584 87.744 131.716 88.5752 132.902 88.619C134.177 88.6627 135.012 87.9627 135.276 86.7815C135.583 85.5565 135.583 84.3752 135.671 83.2377ZM110.049 129.219C110.752 129 112.027 129.263 112.422 128.081C112.774 126.944 111.631 126.506 110.928 125.894C110.532 125.588 110.049 125.369 109.653 125.063C106.181 122.35 101.874 121.038 98.1388 118.763C95.1502 116.969 92.1177 115.219 88.9974 113.688C84.4267 111.456 80.1636 108.7 75.8566 105.988C72.9999 104.194 70.4069 102.05 67.1986 100.913C66.7591 100.738 66.2757 100.213 65.8362 100.738C65.3528 101.35 65.8802 101.831 66.2757 102.225C67.8579 103.931 68.4732 106.294 70.1432 107.956C70.7146 108.525 71.154 109.619 70.2311 110.275C69.2203 111.019 68.6929 110.013 68.1216 109.356C67.77 108.919 67.4623 108.394 67.1547 107.913C64.6935 104.194 63.9025 104.15 61.1337 107.563C60.6942 108.131 60.1228 108.613 59.7273 109.225C58.7604 110.625 59.2439 111.806 60.9139 112.069C61.6171 112.2 62.3642 112.113 63.1114 112.069C67.5502 111.719 71.9012 112.288 75.8566 114.431C77.9222 115.525 79.8999 116.75 82.0974 117.581C83.9872 118.281 85.877 119.113 87.7228 119.988C92.3814 122.219 97.04 124.45 101.699 126.725C104.248 128.038 106.929 128.869 110.049 129.219ZM151.757 165.881C151.757 164.438 152.592 163.169 153.251 161.813C153.427 161.419 153.778 160.938 154.262 161.288C154.701 161.594 154.394 162.075 154.218 162.469C153.778 163.519 153.295 164.613 152.899 165.706C152.68 166.319 152.899 167.238 153.646 166.669C156.415 164.569 161.03 164.831 161.997 160.325C162.216 159.231 163.447 158.75 164.458 158.313C165.205 157.963 165.908 157.525 166.26 156.781C166.699 155.863 166.48 155.075 165.381 155.075C163.051 155.075 160.678 154.856 158.788 156.738C157.997 157.525 157.118 158.138 156.239 158.838C155.756 159.188 155.097 159.538 154.965 158.531C154.833 157.656 155.58 156.431 154.262 156.081C153.119 155.775 152.899 157.175 152.152 157.7C151.801 157.963 151.493 158.269 151.141 158.531C147.801 160.85 144.988 163.606 143.406 167.456C141.736 171.569 138.352 174.588 136.374 178.656C134.309 182.856 134.485 186.75 134.748 190.95C134.792 191.65 134.792 192.525 135.847 192.569C136.726 192.613 137.297 192 137.473 191.3C138.132 188.806 139.89 186.794 140.681 184.431C142.747 178.306 147.01 173.756 150.746 168.769C151.405 167.894 152.372 167.281 151.757 165.881ZM139.671 166.144C141.297 164.831 141.429 162.731 142.923 161.681C145.736 159.713 148.504 157.744 151.317 155.775C151.844 155.425 152.592 155.206 152.46 154.375C152.328 153.588 151.625 153.456 150.966 153.281C147.494 152.363 144.022 151.444 140.857 149.738C139.759 149.169 138.704 149.388 137.737 150.044C134.836 152.013 134.441 155.556 132.551 158.181C132.507 158.269 132.551 158.488 132.595 158.619C133.781 161.419 132.067 163.606 131.144 166.013C130.309 168.288 129.826 170.694 129.211 173.013C129.43 173.056 129.606 173.1 129.826 173.144C130.925 171.175 131.408 168.988 132.111 166.888C132.287 166.363 132.375 165.619 133.166 165.706C134.089 165.794 133.913 166.625 134.001 167.238C134.045 167.85 133.869 168.375 133.518 168.856C131.496 171.569 131.716 174.938 130.617 177.913C130.441 178.35 130.353 179.006 131.013 179.225C131.672 179.444 131.936 178.875 132.067 178.394C132.595 176.731 133.254 175.069 133.562 173.406C134.353 168.944 137.737 165.838 139.451 161.9C139.627 161.506 140.154 161.025 140.681 161.506C141.077 161.856 140.813 162.338 140.594 162.688C140.022 163.694 139.319 164.613 139.671 166.144ZM154.174 123.138C154.13 124.494 155.273 124.713 156.591 125.063C160.986 126.2 165.601 126.813 169.116 130.181C172.193 133.156 175.094 136.219 177.291 139.938C177.774 140.725 178.302 141.994 179.225 141.775C180.367 141.556 180.411 140.113 180.236 139.194C179.357 134.644 178.17 130.181 173.336 128.038C172.193 127.513 171.182 126.769 170.303 125.894C169.82 125.413 169.248 124.975 169.468 124.231C169.732 123.444 170.523 123.619 171.138 123.575C171.841 123.531 172.72 123.794 173.116 123.006C173.555 122.131 172.764 121.519 172.281 120.906C169.732 117.625 161.381 115.919 157.558 118.238C155.976 119.2 154.394 120.644 154.174 123.138ZM52.3439 184.256C51.5528 184.038 50.8496 184.256 50.498 184.956C50.1025 185.744 50.5859 186.4 51.1572 186.838C51.5528 187.144 52.0362 187.319 52.5196 187.494C58.4528 189.2 64.3859 190.775 70.2751 192.569C77.0872 194.625 83.9432 196.55 90.6235 198.956C97.8751 201.581 105.39 203.156 112.73 205.519C113.477 205.781 114.268 205.956 114.532 204.994C114.839 203.944 113.916 203.944 113.257 203.681C105.654 200.619 97.8311 198.388 90.0961 195.719C84.8661 193.925 79.6802 191.956 74.3623 190.294C68.6929 188.544 62.8477 187.363 57.1783 185.481C55.64 184.956 53.97 184.65 52.3439 184.256ZM69.2203 270.531C71.2419 270.356 73.5273 270.619 75.9005 270.444C78.3177 270.225 80.8668 270.313 83.284 270.663C89.1732 271.538 95.0623 270.488 100.951 270.488C101.611 270.488 102.622 270.4 102.578 269.438C102.534 268.475 101.567 268.519 100.864 268.475C100.292 268.431 99.677 268.519 99.1496 268.694C98.3585 268.956 97.5674 269.175 96.8203 268.781C95.4579 268.081 93.9636 268.256 92.5572 268.081C89.6126 267.688 86.712 268.65 83.6356 268.038C75.1974 266.419 66.5394 266.769 58.0133 265.544C56.4751 265.325 54.8489 265.194 53.2228 265.106C51.0254 265.019 51.333 266.681 51.2451 267.994C51.1572 269.394 51.8604 269.963 53.2668 269.788C54.6292 269.613 56.0356 269.175 57.398 269.569C61.2216 270.663 65.0891 270.225 69.2203 270.531ZM124.464 99.9502C126.222 100.65 126.618 102.313 127.848 103.1C128.288 103.363 128.639 103.931 129.167 103.406C129.65 102.925 129.211 102.488 128.903 102.094C127.716 100.606 126.618 99.0315 126.266 97.1065C126.09 96.2752 125.739 95.094 126.662 94.7877C127.541 94.4815 127.716 95.7502 128.2 96.3627C128.42 96.669 128.552 96.9752 128.815 97.2815C129.035 97.5877 129.343 97.894 129.738 97.6752C130.222 97.4127 130.046 96.9752 129.914 96.5377C128.508 92.294 126.266 88.3127 126.442 83.6315C126.486 82.3627 125.475 82.1002 124.64 82.8002C123.146 84.1127 121.388 85.0752 120.641 87.2627C119.937 89.2752 119.762 91.1127 120.069 93.169C120.597 96.4502 120.333 99.9065 122.399 102.794C124.376 105.55 126.354 108.394 128.376 111.106C128.727 111.588 129.43 111.894 130.002 112.2C130.397 112.419 130.837 112.55 131.232 112.156C131.716 111.631 131.32 111.194 130.969 110.8C130.046 109.794 129.167 108.656 128.112 107.781C125.563 105.769 124.464 103.275 124.464 99.9502ZM109.566 113.425C107.764 112.594 105.918 113.775 104.028 114.125C103.325 114.256 102.753 114.606 102.622 115.35C102.49 116.05 103.149 116.313 103.588 116.663C104.599 117.406 105.566 118.194 106.621 118.85C108.95 120.338 111.236 122.394 113.873 122.7C116.334 123.006 118.707 123.488 121.124 124.1C121.959 124.319 122.97 125.106 123.761 124.056C124.508 123.094 123.849 122.088 123.497 121.169C122.75 119.331 120.773 118.588 119.85 116.838C118.619 114.519 116.29 113.775 113.96 113.6C112.598 113.469 111.192 113.294 109.566 113.425ZM52.7833 179.75C52.2999 179.794 51.7286 179.75 51.5088 180.319C51.2451 180.975 51.5088 181.5 52.0362 181.85C52.4318 182.113 52.9591 182.2 53.4426 182.419C58.8483 184.781 65.0012 184.738 70.2751 187.538C70.8025 187.8 71.5496 187.713 72.2088 187.713C72.8681 187.713 73.5273 187.669 74.0986 188.063C77.7025 190.381 81.9655 190.731 85.9209 192.131C90.5795 193.794 95.37 195.019 100.073 196.55C104.731 198.038 109.346 199.656 113.96 201.188C114.62 201.406 115.543 201.8 115.894 200.881C116.246 199.788 115.059 199.788 114.488 199.656C110.313 198.65 106.445 196.813 102.402 195.413C98.5343 194.056 94.3591 193.838 90.7114 191.869C89.5687 191.256 88.3381 190.688 87.1075 190.294C82.2732 188.719 77.3069 187.406 72.5165 185.656C66.6273 183.513 60.4305 182.244 54.5413 180.144C53.97 179.969 53.3986 179.881 52.7833 179.75ZM204.32 234.438C205.462 235.181 206.737 235.75 207.44 236.975C209.242 240.125 211 243.275 212.846 246.425C213.329 247.256 213.461 248.131 213.637 249.094C214.252 252.638 214.076 256.444 216.186 259.594C218.383 262.831 220.141 266.331 222.778 269.306C223.35 269.919 223.833 270.706 224.712 270.225C225.767 269.656 225.371 268.738 224.844 267.95C223.789 266.375 222.822 264.844 222.295 262.963C221.943 261.65 222.163 259.244 219.438 260.075C219.35 260.119 219.087 259.769 219.043 259.594C218.515 257.144 217.153 254.825 217.944 252.156C218.251 251.15 218.032 250.188 217.724 249.181C216.274 244.456 215.043 239.644 210.165 237.063C210.033 237.019 209.989 236.8 209.901 236.713C208.363 235.313 206.517 234.613 204.32 234.438ZM189.641 246.731C188.146 247.781 188.146 247.825 186.652 247.081C186.125 246.819 185.861 247.125 185.553 247.431C183.532 249.225 183.18 251.369 184.059 253.906C185.334 257.669 187.707 261.038 187.927 265.15C187.971 265.894 188.366 266.813 189.421 266.725C190.388 266.681 190.871 265.894 190.959 265.106C191.399 261.606 192.937 258.413 193.816 255.088C194.036 254.169 194.211 253.163 192.805 252.944C191.487 252.725 191.662 251.894 191.97 250.975C192.366 249.969 192.761 248.963 193.025 247.913C193.157 247.344 193.113 246.644 192.453 246.425C191.706 246.206 191.53 246.95 191.311 247.475C191.179 247.738 191.135 248.044 191.047 248.306C190.827 248.875 190.783 249.794 189.904 249.575C189.025 249.356 189.421 248.525 189.553 247.913C189.465 247.606 189.509 247.344 189.641 246.731ZM101.523 173.056C101.479 173.056 101.391 173.056 101.347 173.056C101.435 174.5 101.479 175.944 101.699 177.388C101.787 178.131 102.006 179.225 102.973 179.138C104.072 179.094 104.687 178 104.555 177.081C103.852 171.788 104.731 166.406 104.028 161.2C102.885 152.8 104.16 144.356 102.622 136.044C102.446 135.213 103.017 133.725 101.83 133.725C100.908 133.725 100.732 135.213 100.468 136.175C100.468 136.263 100.512 136.306 100.468 136.394C100.029 139.938 100.512 143.438 100.6 146.938C100.732 155.644 101.171 164.35 101.523 173.056ZM92.8209 135.956C92.6891 135.081 92.5572 134.25 92.4254 133.375C92.2935 132.5 91.898 131.756 90.9311 131.844C89.9642 131.931 89.9642 132.806 89.9642 133.55C90.0961 137.969 90.0082 142.431 90.3158 146.763C90.8872 155.688 90.8872 164.569 90.5795 173.494C90.5356 175.244 91.1948 175.769 92.5572 175.944C94.3591 176.206 94.0955 174.719 94.0955 173.713C93.9197 167.238 93.8757 160.806 93.3923 154.331C92.9528 148.25 92.9528 142.081 92.8209 135.956ZM128.903 34.7627C126.31 34.719 124.64 35.419 122.97 36.5127C120.816 37.9565 120.641 40.494 119.19 42.244C118.751 42.769 118.443 43.3815 118.883 44.0377C119.322 44.694 119.981 44.9127 120.773 44.8252C122.399 44.694 123.893 44.1252 125.299 43.3815C125.827 43.119 126.354 42.7252 126.881 43.2502C128.508 44.9565 129.299 43.644 130.266 42.419C131.54 40.8002 133.078 39.3565 135.452 40.0127C136.33 40.2315 137.034 40.3627 137.297 39.269C137.561 38.2627 137.561 37.2565 136.418 36.9065C133.781 36.0315 131.013 35.3752 128.903 34.7627ZM87.3273 137.794C87.0636 135.606 86.8439 133.463 86.5802 131.275C86.4923 130.706 86.4923 130.006 85.6572 130.05C84.998 130.094 84.954 130.706 84.8662 131.188C84.7783 131.625 84.7343 132.063 84.7343 132.5C85.1738 143.744 84.3388 154.988 85.2617 166.231C85.3935 168.025 85.6572 169.819 85.4375 171.656C85.3056 172.619 85.833 173.756 86.9318 173.713C88.0744 173.625 87.8547 172.575 87.7668 171.656C87.547 169.031 87.3712 166.45 87.591 163.825C87.9865 158.838 87.5031 153.806 87.591 148.819C87.7228 145.188 87.3273 141.513 87.3273 137.794ZM146.527 64.2065C145.252 65.694 142.967 66.569 144.197 68.7565C145.823 71.6877 145.296 74.794 144.549 77.5502C143.89 80.1315 143.758 82.844 142.791 85.3815C142.527 86.1252 142.835 86.869 143.538 87.2627C144.285 87.6565 144.857 87.1752 145.208 86.6065C146.131 85.294 147.318 84.2002 148.504 83.1065C149.515 82.144 150.043 80.9627 149.208 79.6065C148.944 79.169 148.812 78.6002 149.252 78.2065C151.141 76.544 149.867 74.2252 150.834 72.344C150.35 72.3877 150.087 72.519 149.867 72.694C149.383 73.044 149.032 74.0502 148.329 73.6127C147.581 73.0877 148.241 72.3002 148.504 71.644C149.208 69.9815 150.087 68.3627 150.306 66.5252C150.394 65.9127 150.526 65.3002 149.823 65.0377C149.12 64.7315 148.768 65.2565 148.504 65.8252C148.109 66.6127 147.713 67.4002 147.274 68.144C147.054 68.5377 146.615 68.8002 146.175 68.494C145.823 68.2752 145.911 67.8815 145.955 67.4877C146.263 66.569 147.098 65.7377 146.527 64.2065ZM81.4381 134.031C81.526 134.031 81.57 134.031 81.6579 134.031C81.57 132.413 81.4821 130.838 81.3502 129.219C81.3063 128.431 80.9547 127.644 80.0318 127.819C79.0649 127.95 79.5044 128.781 79.5044 129.394C79.6362 132.588 79.8999 135.738 79.8999 138.931C79.856 148.338 79.856 157.788 80.3833 167.194C80.4273 168.375 79.9439 169.513 80.3833 170.65C80.647 171.263 80.7789 172.006 81.6139 172.006C82.449 172.006 82.2292 171.219 82.405 170.694C83.9432 165.006 82.3171 159.319 82.405 153.631C82.4929 147.069 81.7897 140.55 81.4381 134.031ZM95.37 151.969C95.326 155.031 95.2821 158.094 95.37 161.113C95.4579 165.969 95.7655 170.825 96.3808 175.681C96.4687 176.513 96.6884 177.475 97.7432 177.3C98.754 177.169 98.798 176.075 98.6661 175.331C98.3585 173.8 98.5783 172.269 98.4904 170.781C98.2267 165.575 97.6553 160.325 97.7432 155.119C97.8311 149.475 96.8642 143.831 97.4795 138.188C97.5235 137.706 97.3916 137.181 97.2598 136.7C97.084 136.044 97.084 134.994 96.1171 135.125C95.1942 135.256 95.4139 136.263 95.4139 136.963C95.37 141.95 95.37 146.938 95.37 151.969ZM130.925 118.894C130.925 118.15 130.661 117.713 130.309 117.319C126.969 113.469 123.893 109.444 120.86 105.331C120.509 104.85 120.201 104.325 119.454 104.631C117.169 105.594 116.466 109.313 118.399 110.844C119.674 111.85 120.597 113.163 121.739 114.3C123.937 116.488 126.354 118.544 127.497 121.606C127.98 122.875 128.903 124.144 130.134 125.063C130.485 125.325 130.881 125.588 131.276 125.238C131.672 124.888 131.54 124.45 131.276 124.056C131.101 123.838 130.881 123.619 130.705 123.4C129.606 122.131 128.068 120.863 130.661 119.506C130.837 119.375 130.881 118.981 130.925 118.894ZM71.3738 124.713C70.363 125.894 70.5827 126.9 70.4948 127.906C70.1432 132.325 70.9783 136.656 70.6706 141.075C70.2751 147.506 70.1432 153.938 70.0553 160.413C70.0114 162.425 70.363 164.481 70.6267 166.494C70.7585 167.413 71.3738 168.2 72.3407 168.244C73.5273 168.288 73.3954 167.194 73.3954 166.45C73.3954 163.038 73.6152 159.625 73.2636 156.256C72.5165 149.169 72.4725 142.081 71.7693 134.994C71.4177 131.713 72.033 128.388 71.3738 124.713ZM108.599 151.444C108.203 148.994 108.511 146.85 108.335 144.794C108.247 143.788 108.555 141.906 107.06 142.038C105.786 142.169 106.006 143.875 106.006 145.013C106.006 148.25 106.006 151.488 106.006 154.769C106.05 157.963 105.918 161.156 106.269 164.35C106.753 168.681 107.016 172.969 106.753 177.344C106.709 178.219 106.709 179.094 107.104 179.925C107.456 180.625 107.72 181.588 108.774 181.325C109.653 181.063 109.478 180.188 109.39 179.444C109.17 177.475 108.599 175.506 108.73 173.581C109.39 166.013 107.808 158.575 108.599 151.444ZM199.09 224.813C199.309 224.156 199.749 224.025 200.188 223.981C201.639 223.719 203.045 223.5 204.495 223.238C205.023 223.15 205.638 223.019 205.594 222.406C205.55 221.75 204.935 221.75 204.408 221.706C203.441 221.663 202.474 221.75 201.551 221.531C198.738 220.919 196.101 222.45 193.332 222.013C192.717 221.925 191.794 222.319 191.53 223.063C191.223 223.894 191.838 224.419 192.541 224.769C192.849 224.944 193.244 225.163 193.025 225.6C191.75 228.006 193.904 227.919 195.002 227.875C201.771 227.613 208.539 227.131 215.307 226.694C215.922 226.65 216.537 226.519 216.494 225.731C216.45 224.988 215.878 224.681 215.263 224.769C212.362 225.25 209.506 224.331 206.605 224.9C204.144 225.338 201.595 225.469 199.09 224.813ZM144.461 280.813C147.142 280.813 154.262 275.038 154.657 272.544C154.789 271.8 154.613 271.056 153.998 270.575C153.427 270.094 152.899 270.444 152.416 270.794C152.108 271.013 151.757 271.363 151.493 271.013C149.735 268.606 148.109 270.969 147.581 271.713C145.472 274.513 142.659 275.694 139.407 276.306C138.044 276.569 137.869 277.269 138.792 278.275C140.33 279.938 142.308 280.594 144.461 280.813ZM135.891 127.425C135.847 128.606 137.297 130.225 138.792 129.7C140.242 129.219 141.692 128.475 142.132 126.813C143.055 123.488 143.758 120.163 141.429 117.013C140.857 116.269 140.418 115.394 140.022 114.563C139.671 113.775 139.187 113.075 138.264 113.25C137.253 113.425 136.902 114.388 136.902 115.263C136.858 119.113 136.506 122.919 135.891 127.425ZM206.781 179.444C206.869 180.494 206.869 181.194 206.957 181.938C207.044 182.55 206.825 183.381 207.704 183.556C208.363 183.688 208.758 183.119 209.11 182.681C210.473 181.106 211.088 179.006 212.802 177.606C213.109 177.388 213.197 176.6 213.066 176.163C211.835 171.831 212.89 167.369 212.055 162.994C211.791 161.594 211.923 159.231 210.297 159.45C208.802 159.669 209.198 161.944 209.506 163.431C210.297 166.888 210.648 170.431 211 173.975C211.044 174.5 211.176 175.288 210.385 175.419C209.637 175.506 209.462 174.763 209.374 174.238C209.198 172.881 209.11 171.481 208.978 170.125C208.89 169.206 209.33 167.675 207.967 167.719C206.869 167.763 207.044 169.338 206.825 170.256C206.825 170.344 206.781 170.388 206.825 170.475C207.352 173.581 207.308 176.644 206.781 179.444ZM41.4005 283.525C41.884 283.525 42.2356 283.438 42.4114 283.044C42.6311 282.563 42.4553 282.213 42.1037 281.906C41.005 280.944 39.9942 279.85 38.7636 279.106C33.6216 276 28.8311 272.281 23.9967 268.738C23.2496 268.169 22.3706 267.731 21.5356 267.338C20.7445 266.988 19.7337 266.506 19.1623 267.469C18.6349 268.344 18.9865 269.525 19.7776 270.006C21.5356 271.1 22.7661 272.938 24.5241 273.769C28.3477 275.606 31.556 278.406 35.3356 280.331C37.3572 281.425 39.247 282.869 41.4005 283.525ZM19.2502 260.731C19.2063 261.606 19.9974 262.481 21.0082 262.875C23.9967 264.144 26.6776 265.894 29.1827 267.775C31.9075 269.788 34.94 271.275 37.4891 273.594C39.5547 275.475 41.84 277.269 44.5209 278.319C44.9165 278.494 45.3999 278.669 45.7515 278.319C46.2349 277.794 45.7515 277.356 45.4439 277.006C42.763 273.9 39.3349 271.669 35.9069 269.394C31.7757 266.681 27.2489 264.538 23.6451 261.081C22.898 260.381 22.063 259.813 21.2279 259.2C20.7445 258.85 20.2171 258.5 19.6458 258.938C19.2063 259.244 19.2942 259.813 19.2502 260.731ZM76.4719 133.463C76.8235 131.188 76.6916 129 76.34 126.856C76.2521 126.331 76.4719 125.5 75.6369 125.5C74.8458 125.544 75.0655 126.331 74.9776 126.9C74.0547 133.856 74.8458 140.813 75.0216 147.769C75.1974 154.506 75.505 161.244 75.8126 167.981C75.8566 168.9 75.9005 169.95 77.0432 169.863C78.1859 169.775 77.8782 168.638 77.7464 167.938C76.9114 162.6 77.3948 157.219 77.0432 151.838C76.6477 145.669 76.384 139.5 76.4719 133.463ZM118.136 154.9C118.223 152.975 118.004 151.138 117.169 149.344C116.949 148.863 116.773 148.294 116.114 148.469C115.499 148.644 115.543 149.256 115.587 149.781C115.674 151.313 116.026 152.844 115.938 154.331C115.674 158.619 115.762 162.906 116.597 167.15C116.729 167.806 116.597 168.419 116.509 169.075C115.674 173.8 116.07 178.481 116.817 183.163C116.905 183.775 117.037 184.606 117.96 184.475C118.795 184.344 118.839 183.556 118.795 182.9C118.663 180.363 118.575 177.825 118.355 175.288C118.092 171.831 118.092 168.331 117.916 164.875C117.784 161.638 117.828 158.225 118.136 154.9ZM97.7432 215.931C98.3146 215.888 98.9298 215.931 99.1056 215.363C99.2814 214.706 98.6661 214.531 98.2267 214.313C96.1611 213.175 93.8318 212.781 91.5903 212.169C86.0967 210.681 80.647 209.106 75.1534 207.663C74.0107 207.356 72.2967 206.525 71.9012 208.538C71.5056 210.375 73.2636 210.419 74.4942 210.856C74.626 210.9 74.7579 210.944 74.9337 210.944C79.9439 211.994 84.9101 213.481 90.0082 214.05C92.6451 214.313 95.0623 215.713 97.7432 215.931ZM95.8974 246.031C96.9961 246.075 97.6993 246.294 97.919 245.55C98.1388 244.719 97.4356 244.456 96.8203 244.15C93.612 242.663 90.0521 242.4 86.712 241.569C82.4929 240.519 78.1419 240.038 73.9228 238.856C73.0878 238.638 71.7693 238.463 71.5935 239.688C71.4617 240.65 72.4725 241.394 73.3954 241.613C76.4279 242.356 79.4604 242.969 82.4929 243.538C83.9872 243.844 85.6572 243.625 87.0197 244.194C90.0521 245.506 93.3923 244.894 95.8974 246.031ZM125.695 207.969C125.739 207.663 125.783 207.4 125.827 207.094C125.915 206.613 126.178 205.956 125.431 205.869C124.86 205.781 124.64 206.394 124.464 206.875C124.376 207.094 124.376 207.313 124.332 207.531C122.487 212.694 122.97 218.25 121.52 223.5C120.685 226.475 121.344 229.538 120.641 232.556C120.025 235.356 118.795 238.069 118.971 241.044C119.015 241.656 118.795 242.575 119.718 242.575C120.333 242.575 120.421 241.744 120.509 241.175C121.168 237.15 121.652 233.169 122.926 229.275C125.167 222.363 124.376 215.013 125.695 207.969ZM97.04 230.281C97.6114 230.281 98.3146 230.456 98.5343 229.713C98.754 228.925 98.0509 228.488 97.4795 228.269C95.1942 227.525 92.9088 226.519 90.5795 226.256C84.7343 225.644 79.1088 224.069 73.3954 222.888C72.3846 222.669 71.3298 222.625 71.0222 223.763C70.6706 225.075 71.8133 225.513 72.8241 225.775C75.3732 226.388 77.9661 226.781 80.5152 227.263C84.6025 228.006 88.7337 228.313 92.733 229.494C94.1394 229.888 95.6337 230.019 97.04 230.281ZM113.433 152.275C113.301 152.275 113.169 152.275 113.081 152.275C113.081 151.181 113.081 150.088 113.081 148.994C113.081 148.294 113.301 147.288 112.422 147.113C111.323 146.894 111.323 148.031 111.016 148.731C110.84 149.125 110.884 149.563 110.928 150C111.06 152.013 111.323 154.025 111.367 156.038C111.411 159.713 111.411 163.431 111.192 167.106C111.016 169.95 111.763 172.75 111.587 175.594C111.455 177.563 111.719 179.488 112.422 181.369C112.598 181.85 112.466 182.725 113.301 182.594C114.048 182.463 113.873 181.719 113.873 181.15C114.092 175.638 112.994 170.213 113.345 164.656C113.653 160.544 113.433 156.388 113.433 152.275ZM121.388 181.806C121.344 181.806 121.3 181.806 121.256 181.806C121.256 182.769 121.212 183.688 121.256 184.65C121.3 185.263 121.036 186.225 121.827 186.356C122.75 186.531 122.97 185.525 123.102 184.869C123.278 184.038 123.278 183.163 123.234 182.288C123.234 181.063 123.102 179.838 123.102 178.569C123.014 173.363 122.267 168.2 122.135 162.994C122.091 159.8 121.608 156.606 121.52 153.413C121.476 152.45 121.827 150.831 120.685 150.831C119.498 150.788 119.63 152.538 119.762 153.369C120.377 158.706 120.025 164.088 120.465 169.425C120.86 173.538 121.124 177.65 121.388 181.806ZM73.1757 234.044C72.6044 233.913 72.1649 234.131 71.9451 234.656C71.7254 235.313 72.2528 235.531 72.7362 235.75C73.2636 236.013 73.791 236.363 74.3184 236.45C78.7572 237.369 83.1521 238.331 87.591 239.119C90.4477 239.6 93.3483 240.081 96.1611 240.738C97.1719 241 98.2267 241.044 98.4904 239.863C98.754 238.725 97.5674 238.594 96.7763 238.331C96.4247 238.2 96.0732 238.2 95.6776 238.156C92.6012 237.894 89.6566 237.019 86.6681 236.406C82.2292 235.575 77.7025 234.831 73.1757 234.044ZM76.34 253.513C77.1311 253.381 77.9222 253.469 78.7133 253.688C83.6795 254.869 88.7776 255 93.7878 255.963C94.5789 256.094 95.8095 256.269 95.9413 255.131C96.0732 254.125 94.8426 254.169 94.1394 253.994C90.5795 253.163 86.9318 252.9 83.4158 251.938C80.2515 251.063 77.1311 250.144 73.8789 249.75C73.0878 249.663 72.1649 249.4 71.8133 250.406C71.5056 251.369 72.033 252.069 72.8681 252.55C73.8789 253.206 75.0216 253.731 76.34 253.513ZM94.3591 250.669C95.1502 250.45 96.6005 251.588 96.9082 250.188C97.2158 248.7 95.5018 248.744 94.5789 248.525C87.8986 246.688 80.9986 245.769 74.1426 244.894C73.5712 244.806 72.8681 244.719 72.6923 245.463C72.5604 246.206 73.0439 246.775 73.747 246.863C75.1974 247.081 76.5598 247.563 78.0101 247.738C80.9547 248.088 83.8553 248.875 86.7999 249.138C89.3929 249.313 91.5464 251.063 94.3591 250.669ZM73.3954 202.019C72.912 202.019 72.3846 202.238 72.1209 202.85C71.8133 203.55 72.077 204.163 72.6923 204.556C73.4394 205.038 74.3184 205.125 75.1974 205.256C81.8776 206.394 88.426 207.881 94.8426 210.113C95.9853 210.506 97.7432 211.819 98.2706 210.113C98.754 208.581 96.6445 208.494 95.4579 208.144C90.2719 206.613 84.8662 205.913 79.812 203.988C77.7464 203.2 75.5929 202.675 73.3954 202.019ZM95.8534 224.638C96.3808 224.813 97.1279 225.119 97.2158 224.288C97.3037 223.369 96.4687 223.369 95.8534 223.238C88.426 221.75 81.2623 219.169 73.791 217.9C72.7802 217.725 71.6814 217.419 71.4177 218.6C71.1101 219.869 72.077 220.613 73.3076 220.788C74.4502 220.963 75.6368 220.963 76.7795 221.181C83.1521 222.275 89.5248 223.5 95.8534 224.638ZM96.7763 235.313C97.4795 235.4 98.0948 235.444 98.3146 234.744C98.5343 234.044 97.919 233.738 97.3916 233.475C95.8534 232.731 94.0954 232.819 92.4693 232.513C85.9209 231.156 79.2846 229.931 72.6923 228.663C72.1209 228.531 71.6375 228.706 71.4617 229.275C71.2859 229.8 71.5056 230.281 71.9012 230.675C72.4286 231.2 73.1318 231.069 73.747 231.2C77.0432 231.725 80.3833 232.119 83.6356 232.863C87.9865 233.738 92.5572 233.825 96.7763 235.313ZM75.505 264.188C75.7247 265.063 76.2961 264.888 76.7795 264.931C80.7349 265.15 84.7343 265.238 88.6897 265.631C93.3923 266.069 98.1388 265.938 102.885 266.594C104.072 266.769 106.269 267.513 106.401 265.806C106.489 264.625 104.116 264.756 102.841 264.669C99.1496 264.45 95.4139 264.1 91.7222 264.406C86.3165 264.756 80.9547 263.094 75.505 264.188ZM41.4005 176.906C42.3674 176.863 43.2025 176.819 43.4222 175.988C43.6859 175.069 42.8948 174.719 42.2356 174.413C40.961 173.8 39.6865 173.319 38.2802 173.231C33.3139 172.838 28.6553 171.044 23.777 170.344C22.898 170.213 21.5795 169.294 21.2279 170.256C20.8763 171.306 22.4585 171.525 23.3375 171.963C23.5133 172.05 23.777 172.05 23.9967 172.094C27.9082 172.75 31.6439 173.844 35.2916 175.375C37.2254 176.163 39.5547 176.163 41.4005 176.906ZM241.017 231.463C242.16 231.375 242.731 230.063 242.863 228.794C243.083 226.606 243.522 224.506 244.313 222.45C244.533 221.838 244.665 221.269 243.918 221.006C243.302 220.744 242.731 221.006 242.467 221.619C241.984 222.581 241.544 223.588 241.061 224.594C240.753 225.294 240.446 225.775 239.435 225.6C237.501 225.25 236.271 226.213 236.007 228.094C235.787 230.281 237.325 231.463 241.017 231.463ZM57.9254 263.794C58.9362 263.794 59.991 263.794 61.0018 263.794C61.4413 263.794 61.9247 263.75 62.0126 263.181C62.1445 262.394 60.0349 259.594 59.112 259.419C57.4859 259.069 55.8158 258.763 54.1458 258.5C52.6954 258.281 51.5967 258.588 51.2012 260.338C50.8056 262 51.4209 262.831 52.9152 263.313C54.5853 263.881 56.2553 263.838 57.9254 263.794ZM37.0935 108.569C34.5005 108.525 33.0502 105.988 30.5451 105.725C27.9521 105.463 25.7107 104.238 23.3375 103.363C22.2388 102.969 20.8763 101.875 20.0413 103.363C19.2063 104.938 20.6126 105.856 21.7993 106.6C22.5464 107.081 23.4254 107.256 24.3044 107.256C25.1833 107.213 26.0184 107.475 26.8974 107.563C30.3254 107.956 33.5776 109.094 37.0935 108.569ZM73.8789 215.363C76.8235 215.1 78.8451 216.938 81.2184 217.069C86.3165 217.375 90.9311 219.606 95.8974 220.219C96.8203 220.35 98.2267 221.488 98.5343 220.219C98.8419 219.038 97.1279 218.906 96.0732 218.731C95.9853 218.731 95.9413 218.731 95.8534 218.731C91.6343 217.725 87.3273 217.156 83.1961 215.581C80.0318 214.4 76.5158 214.094 73.1757 213.438C72.6483 213.306 72.077 213.438 71.9451 214.05C71.8133 214.663 72.2967 215.013 72.7802 215.144C73.2636 215.363 73.791 215.363 73.8789 215.363ZM80.2076 185.044C80.2954 184.781 80.3833 184.563 80.4712 184.3C78.054 182.856 75.1095 182.419 72.6044 181.15C70.2751 179.969 67.5502 179.531 64.9572 178.788C60.87 177.606 57.0464 175.375 52.6515 175.288C52.1241 175.288 51.2891 174.85 51.2451 175.681C51.2012 176.513 52.1241 176.6 52.7394 176.556C54.2776 176.425 55.5521 176.906 56.7388 177.913C57.4419 178.525 58.4088 178.656 59.3757 178.919C64.6056 180.275 69.9674 181.281 75.0655 183.163C76.7795 183.731 78.4935 184.388 80.2076 185.044ZM188.937 230.981C188.981 230.413 189.069 229.625 188.19 229.494C187.399 229.363 187.092 229.931 186.828 230.631C185.949 232.994 185.026 235.313 183.532 237.413C181.774 239.95 180.983 243.1 178.741 245.375C178.302 245.813 178.214 246.513 178.917 246.819C179.576 247.081 179.84 246.513 179.884 245.988C180.016 244.981 180.851 244.631 181.422 243.975C184.894 240.213 188.059 236.275 188.937 230.981ZM53.0031 190.031C51.4209 189.769 50.9375 190.381 50.7177 191.344C50.3661 192.656 51.0254 193.488 52.212 193.838C54.6732 194.494 57.1782 195.063 59.6394 195.675C60.5623 195.894 61.2216 195.544 61.5292 194.669C61.8368 193.75 61.4413 193.05 60.6502 192.656C58.1012 191.388 55.1566 191.256 53.0031 190.031ZM184.015 273.813C184.235 274.688 183.883 275.956 185.114 276.394C186.213 276.788 187.443 276.656 188.102 275.694C189.069 274.338 189.773 272.806 190.564 271.363C190.783 270.969 190.783 270.488 190.388 270.181C189.904 269.831 189.465 269.831 189.025 270.269C187.663 271.669 187.092 270.925 186.696 269.481C186.564 269.044 186.432 268.606 185.861 268.65C185.334 268.694 185.202 269.131 185.026 269.569C184.499 270.925 184.147 272.281 184.015 273.813ZM40.9611 106.119C41.3566 106.075 42.0158 106.425 42.3674 105.681C42.6311 105.156 42.1916 104.719 41.884 104.325C40.3018 102.138 38.1483 100.475 36.0827 98.769C35.6872 98.419 35.2037 98.2002 34.7203 98.5502C34.2808 98.8565 34.149 99.3377 34.2368 99.9065C34.5884 103.45 37.2254 105.9 40.9611 106.119ZM223.701 235.881C224.668 235.794 225.635 235.75 226.558 235.619C226.997 235.575 227.437 235.356 227.525 234.875C227.613 234.35 227.217 234.088 226.822 233.869C226.074 233.431 225.283 232.688 224.492 232.731C221.46 232.863 218.427 232.6 215.439 233.081C214.911 233.169 214.34 233.169 214.296 233.825C214.252 234.481 214.823 234.613 215.351 234.7C218.12 235.313 220.888 235.881 223.701 235.881ZM183.224 95.3565C183.224 96.8002 183.18 98.0252 183.224 99.2065C183.268 99.9065 183.664 100.081 184.279 99.7752C184.806 99.5127 185.246 98.6377 185.905 99.4252C186.388 100.038 185.817 100.65 185.729 101.263C185.334 103.275 182.96 104.106 182.96 106.338C182.96 107.169 181.554 108.175 182.477 108.569C183.532 109.05 184.191 107.563 184.938 106.819C185.07 106.688 185.158 106.425 185.246 106.25C186.213 103.669 187.18 101.044 188.146 98.4627C188.454 97.6315 188.366 96.844 187.355 96.9315C185.773 97.0627 184.806 95.9252 183.224 95.3565ZM181.378 214.969C181.334 214.4 181.159 213.875 180.499 213.963C179.488 214.05 179.401 214.925 179.137 215.713C177.687 219.913 177.774 224.55 175.665 228.619C175.445 229.013 175.357 229.45 175.181 229.844C175.006 230.194 174.918 230.588 175.269 230.806C175.665 231.025 175.929 230.719 176.104 230.369C177.818 226.869 180.631 223.763 180.06 219.388C179.84 217.725 181.159 216.456 181.378 214.969ZM213.373 229.056C213.373 228.969 213.373 228.925 213.373 228.838C211.571 228.838 209.725 228.706 207.923 228.881C207.001 228.969 205.243 228.706 205.287 229.669C205.33 231.025 207.132 230.938 208.231 231.419C208.363 231.463 208.539 231.463 208.671 231.375C212.011 229.888 215.439 231.025 218.823 231.069C219.658 231.069 220.888 231.638 220.976 230.413C221.108 229.231 219.746 229.1 218.867 229.013C217.021 228.969 215.175 229.056 213.373 229.056ZM53.2228 207.925C52.3878 207.838 51.7286 208.1 51.5088 208.931C51.2451 209.894 51.8604 210.506 52.6515 210.725C54.8929 211.338 57.1343 211.95 59.3757 212.431C60.2547 212.65 60.9579 212.081 61.2655 211.294C61.6171 210.375 60.826 209.981 60.1228 209.763C57.8814 209.15 55.5521 208.538 53.2228 207.925ZM178.566 146.106C178.302 148.688 175.841 149.388 175.006 151.356C174.786 151.925 174.083 152.494 173.423 151.838C172.852 151.313 173.423 150.831 173.731 150.306C174.127 149.738 175.577 149.344 174.654 148.513C173.863 147.769 173.248 149.081 172.588 149.563C172.237 149.825 171.973 150.175 171.666 150.481C170.962 151.225 170.435 152.056 171.138 152.975C171.841 153.85 172.764 154.419 173.995 153.85C176.28 152.756 178.082 151.138 179.181 148.863C179.708 147.988 179.532 147.156 178.566 146.106ZM219.746 135.169C219.614 135.169 219.438 135.169 219.306 135.169C219.614 137.313 219.878 139.456 220.229 141.6C220.273 142.038 220.405 142.519 220.976 142.563C221.548 142.606 221.636 142.081 221.68 141.644C221.767 141.206 221.811 140.769 221.855 140.331C221.943 136.525 221.02 132.719 221.24 128.869C221.284 128.431 221.196 127.688 220.581 127.688C219.966 127.688 219.834 128.344 219.79 128.825C219.746 130.969 219.746 133.069 219.746 135.169ZM245.236 182.375C245.456 182.419 245.676 182.419 245.895 182.463C247.17 182.638 248.488 182.419 248.532 180.975C248.62 179.444 247.39 178.963 245.939 179.094C244.973 179.181 243.962 179.181 243.171 178.7C241.808 177.913 241.237 178.438 240.709 179.619C240.094 181.019 241.149 181.413 242.028 181.894C243.039 182.375 244.181 182.244 245.236 182.375ZM220.405 237.194C219.394 237.194 218.603 237.15 217.768 237.194C217.065 237.238 216.45 237.588 216.537 238.419C216.625 239.163 217.285 239.163 217.856 239.25C220.273 239.644 222.734 239.994 225.195 239.994C225.943 239.994 227.085 240.256 227.173 239.206C227.261 238.244 226.25 237.675 225.371 237.675C223.613 237.631 221.943 236.8 220.405 237.194ZM67.0228 149.431C66.2757 150.088 66.012 150.7 66.0999 151.313C66.4075 153.806 66.3636 156.256 65.9241 158.75C65.6604 160.369 66.1878 162.031 66.012 163.738C65.9241 164.481 66.2318 165.75 67.2865 165.706C68.3853 165.619 68.2974 164.438 68.1216 163.606C67.8579 162.381 67.9018 161.156 67.8579 159.931C67.726 156.475 67.726 153.019 67.0228 149.431ZM59.2439 207.313C60.1668 207.356 60.826 207.444 61.0458 206.744C61.2655 206 60.7821 205.519 60.2107 205.125C58.1451 203.506 55.5961 203.463 53.1789 203.025C52.4318 202.894 51.6407 202.85 51.377 203.769C51.1572 204.6 51.6846 205.169 52.4318 205.475C54.7611 206.35 57.398 206 59.2439 207.313ZM58.7604 201.581C60.0789 201.538 61.0458 201.625 61.4413 200.575C61.6611 200.006 61.3974 199.481 60.826 199.35C58.3649 198.65 55.9916 197.775 53.4426 197.556C52.7833 197.513 52.0802 197.731 51.9044 198.519C51.7286 199.306 52.256 199.788 52.9152 199.963C54.9808 200.575 57.0903 201.144 58.7604 201.581ZM242.863 186.663C243.434 186.619 244.489 186.794 245.456 186.4C246.115 186.138 246.467 185.569 246.423 184.825C246.379 184.3 245.983 184.081 245.5 184.125C243.346 184.213 241.325 183.381 239.259 183.031C238.776 182.944 238.204 182.681 237.853 183.25C237.545 183.731 237.809 184.213 237.985 184.694C238.82 186.75 240.622 186.706 242.863 186.663ZM59.2878 239.119C59.991 239.075 60.5623 239.119 60.7821 238.594C61.0897 237.85 60.4305 237.5 59.9031 237.325C57.7935 236.581 55.64 235.925 53.4865 235.269C52.6515 235.006 51.5088 234.394 51.2012 235.838C50.9814 236.931 51.5967 237.85 52.7833 238.069C54.9808 238.463 57.2222 238.813 59.2878 239.119ZM59.2439 218.25C60.3426 218.294 61.0458 218.206 61.2216 217.419C61.3974 216.588 60.7381 216.194 60.1228 216.063C58.0133 215.581 56.0795 214.488 53.8821 214.225C53.047 214.138 52.1241 213.963 51.8165 214.881C51.4209 215.888 52.3878 216.588 53.1349 216.806C55.2445 217.463 57.4419 217.856 59.2439 218.25ZM111.587 237.981C111.367 237.938 111.675 237.981 111.939 238.069C112.466 238.2 112.994 238.288 113.257 237.675C113.565 236.975 113.125 236.538 112.598 236.275C112.115 236.013 111.543 235.794 110.972 235.663C108.906 235.181 106.885 234.7 104.819 234.219C104.116 234.044 103.237 233.781 102.973 234.7C102.753 235.531 103.413 236.363 104.248 236.45C106.621 236.8 108.73 237.938 111.587 237.981ZM244.621 177.388C244.621 177.431 244.621 177.475 244.621 177.475C245.412 177.475 246.203 177.519 246.994 177.475C247.961 177.388 248.664 176.819 248.752 175.856C248.84 174.85 248.093 174.456 247.258 174.325C246.027 174.15 244.797 173.888 243.61 173.888C242.116 173.888 241.632 175.025 241.544 176.25C241.457 177.694 242.555 177.563 243.522 177.431C243.874 177.431 244.225 177.431 244.621 177.388ZM110.532 243.363C111.06 243.406 111.543 243.406 112.071 243.45C112.686 243.494 113.345 243.538 113.389 242.706C113.433 242.006 112.906 241.613 112.334 241.525C109.741 241.219 107.236 240.475 104.687 239.863C103.94 239.688 103.413 239.994 103.193 240.738C102.973 241.481 103.457 241.831 104.072 242.006C106.137 242.706 108.247 243.494 110.532 243.363ZM53.926 246.95C53.047 247.125 51.9923 246.688 51.8604 247.869C51.7725 248.963 52.6075 249.356 53.5744 249.444C55.4642 249.575 57.2661 250.056 59.112 250.581C60.0789 250.844 60.9579 250.406 61.2655 249.488C61.661 248.438 60.5184 248.481 59.947 248.219C58.0133 247.169 55.7719 247.606 53.926 246.95ZM111.587 249.006C111.851 249.006 112.466 248.963 112.73 248.306C112.994 247.519 112.466 247.038 111.851 246.775C109.566 245.769 107.06 245.594 104.643 245.244C104.028 245.156 103.501 245.506 103.369 246.163C103.237 246.863 103.588 247.344 104.248 247.475C106.533 248 108.906 248.481 111.587 249.006ZM58.8923 223.719C59.6394 223.719 60.2547 223.719 60.4305 223.15C60.6942 222.406 59.991 222.188 59.5515 221.838C57.8375 220.613 55.7279 220.394 53.8381 219.781C52.9591 219.475 51.9483 219.563 51.6846 220.613C51.4209 221.575 52.212 222.144 53.0031 222.363C54.9808 222.931 57.0464 223.325 58.8923 223.719ZM112.862 281.95C113.873 281.031 116.378 282.606 116.509 280.113C116.553 279.106 116.466 277.488 114.576 277.488C112.202 277.531 110.884 278.538 110.884 280.244C110.928 281.469 111.543 281.994 112.862 281.95ZM107.016 220.613C106.006 220.788 104.995 220.306 104.819 221.313C104.643 222.188 105.566 222.538 106.225 222.669C108.423 223.194 110.62 223.544 112.73 224.375C113.389 224.638 114.268 224.594 114.576 223.719C114.927 222.756 114.224 222.144 113.389 222.013C111.148 221.663 108.906 221.225 107.016 220.613ZM57.5738 256.05C58.5407 256.006 59.0241 256.006 59.5515 255.963C60.1228 255.919 60.7821 255.831 60.7821 255.044C60.7821 254.213 60.2547 253.556 59.4636 253.644C57.3101 253.819 55.2445 253.294 53.1789 252.944C52.4757 252.813 51.5967 252.813 51.4209 253.775C51.2451 254.738 51.9044 255.263 52.8273 255.394C54.5413 255.656 56.2993 255.875 57.5738 256.05ZM189.201 121.3C189.816 121.256 190.651 121.256 191.399 121.125C192.102 120.994 192.629 120.469 192.497 119.725C192.322 118.85 191.618 118.85 190.915 119.113C189.948 119.506 189.113 119.2 188.19 118.806C186.652 118.106 185.202 118.238 184.059 119.725C183.664 120.206 183.488 120.731 183.795 121.344C184.147 122 184.718 121.869 185.334 121.738C186.564 121.431 187.707 120.819 189.201 121.3ZM107.324 211.119C106.533 211.119 105.83 211.119 105.566 211.863C105.302 212.519 105.742 213.044 106.313 213.219C108.818 213.919 111.323 214.531 113.873 215.1C114.444 215.231 115.059 214.969 115.235 214.269C115.323 213.831 115.059 213.569 114.664 213.481C112.115 212.913 109.873 211.425 107.324 211.119ZM57.4419 244.15V244.106C57.9693 244.15 58.4528 244.194 58.9802 244.194C59.5954 244.194 60.2107 244.106 60.3426 243.406C60.4305 242.706 59.7273 242.75 59.2878 242.531C57.354 241.613 55.2445 241.438 53.1789 241.131C52.3439 241 51.4649 241.088 51.333 242.138C51.2451 243.188 52.1241 243.363 52.9152 243.494C54.4534 243.713 55.9477 243.931 57.4419 244.15ZM156.064 128.3C154.921 128.475 153.778 128.869 153.866 130.225C153.998 131.625 155.185 132.369 156.503 132.281C157.822 132.15 159.931 132.238 159.755 130.269C159.623 128.3 157.47 128.781 156.064 128.3ZM127.321 280.638C128.639 280.55 129.694 279.719 130.617 278.625C131.013 278.144 131.188 277.531 130.573 277.094C129.958 276.7 129.387 277.05 129.123 277.619C128.332 279.369 127.673 279.106 126.881 277.575C126.442 276.7 125.563 276.788 124.728 277.006C124.201 277.138 123.805 277.488 123.717 278.013C123.585 278.931 124.025 279.544 124.816 279.981C125.519 280.419 126.31 280.55 127.321 280.638ZM107.764 206.306C106.665 206.35 105.962 206.131 105.566 206.831C105.302 207.313 105.566 207.706 106.006 207.881C108.467 208.844 111.016 209.719 113.697 209.938C114.136 209.981 114.664 209.938 114.795 209.456C114.971 208.931 114.444 208.669 114.092 208.538C111.851 207.75 109.609 206.963 107.764 206.306ZM58.8483 228.75C59.4196 228.619 60.826 229.1 60.9139 227.875C61.0018 226.825 59.5954 226.956 58.8483 226.738C57.398 226.256 55.7719 226.475 54.4095 225.688C53.7063 225.294 52.9591 225.163 52.5636 226.038C52.1241 227.044 52.8712 227.569 53.6623 227.788C55.2445 228.138 56.8706 228.75 58.8483 228.75ZM244.357 141.031C245.456 141.075 246.291 140.9 246.994 140.375C247.522 139.981 247.566 139.369 246.95 139.194C244.797 138.669 242.599 138.188 240.358 138.188C239.743 138.188 239.171 138.538 239.127 139.238C239.083 139.806 239.611 140.025 240.094 140.288C241.457 141.075 243.083 140.638 244.357 141.031ZM135.583 273.244C136.726 273.419 137.913 272.675 139.187 272.456C139.671 272.369 140.33 272.413 140.286 271.713C140.242 271.056 139.627 270.969 139.143 270.925C137.561 270.794 136.023 270.75 134.485 270.138C133.474 269.7 132.815 270.619 132.99 271.625C133.21 272.763 134.133 273.331 135.583 273.244ZM111.851 218.994C112.554 218.95 113.389 219.256 113.521 218.6C113.741 217.681 112.73 217.769 112.202 217.55C110.488 216.894 108.818 216.194 107.104 215.581C106.357 215.319 105.39 214.969 105.083 216.106C104.819 217.069 105.61 217.594 106.401 217.813C108.247 218.25 110.137 218.644 111.851 218.994ZM244.577 132.544C245.544 132.719 246.467 132.5 246.511 131.406C246.555 130.4 245.544 130.488 244.841 130.4C243.39 130.225 241.94 130.05 240.49 129.875C239.567 129.744 238.776 129.963 238.688 130.969C238.6 131.888 239.435 132.15 240.182 132.238C241.676 132.413 243.127 132.456 244.577 132.544ZM248.664 249.225C249.28 249.094 249.543 248.656 249.587 248.131C249.807 245.944 250.422 243.888 251.389 241.875C251.653 241.35 251.785 240.694 251.125 240.344C250.378 239.95 249.895 240.388 249.543 241.044C248.357 243.275 248.401 245.813 247.873 248.219C247.741 248.744 247.961 249.225 248.664 249.225ZM120.157 277.05C118.487 276.919 117.696 277.838 117.52 280.025C117.432 281.119 117.96 281.688 118.971 281.819C120.377 281.994 121.564 280.725 121.651 279.019C121.739 277.925 121.388 277.138 120.157 277.05ZM240.27 191.519C241.457 191.3 242.599 191.081 243.742 190.906C244.357 190.819 245.016 190.775 244.973 189.988C244.929 189.2 244.269 188.938 243.61 188.894C242.599 188.806 241.588 189.025 240.578 188.675C239.918 188.413 239.127 188.194 238.6 188.938C238.248 189.419 237.985 189.988 238.292 190.556C238.732 191.388 239.523 191.475 240.27 191.519ZM243.962 155.425C243.962 155.469 243.962 155.469 243.962 155.513C243.61 155.469 243.215 155.469 242.863 155.425C242.16 155.381 241.281 155.163 241.149 156.213C241.061 157.044 241.588 157.656 242.336 157.788C244.006 158.094 245.676 158.225 247.346 157.831C247.785 157.7 248.181 157.481 248.269 157C248.357 156.388 247.961 155.994 247.434 155.906C246.247 155.688 245.104 155.6 243.962 155.425ZM106.006 225.644C105.259 225.6 104.555 225.513 104.467 226.3C104.38 227 105.039 227.219 105.61 227.35C107.808 227.831 110.093 228.006 112.202 228.794C112.686 228.969 113.301 228.838 113.521 228.313C113.873 227.525 113.125 227.35 112.642 227.088C110.532 225.95 108.071 226.169 106.006 225.644ZM243.434 144.881V144.925C244.401 144.925 245.324 144.925 246.291 144.925C246.774 144.925 247.17 144.794 247.258 144.225C247.302 143.7 246.994 143.306 246.555 143.263C244.445 143 242.38 142.738 240.27 142.606C239.655 142.563 239.259 143.175 239.215 143.831C239.171 144.575 239.743 144.838 240.402 144.838C241.369 144.925 242.38 144.881 243.434 144.881ZM62.584 138.975C62.3203 142.781 61.8808 145.975 62.1445 149.169C62.1884 149.519 62.2763 149.956 62.8037 149.869C63.2872 149.781 63.463 149.3 63.5509 148.863C63.8146 147.419 63.7267 145.975 63.8146 144.531C63.8585 142.956 63.9464 141.119 62.584 138.975ZM107.72 257.931C108.291 257.8 108.95 257.669 109.566 257.538C110.093 257.45 110.884 257.625 110.884 256.794C110.884 256.05 110.181 255.919 109.609 255.919C107.808 255.919 106.006 255.831 104.292 255.175C103.72 254.956 103.061 255.044 102.929 255.788C102.841 256.444 103.281 256.925 103.896 257.056C105.083 257.363 106.401 257.625 107.72 257.931ZM245.632 167.5C246.906 167.544 248.313 167.806 248.444 166.363C248.576 165.006 247.17 165.05 246.203 164.919C246.115 164.919 246.071 164.875 245.983 164.875C244.709 164.7 242.775 163.781 242.555 165.706C242.248 167.938 244.533 167.194 245.632 167.5ZM242.248 136.525C242.907 136.525 243.215 136.525 243.478 136.525C244.225 136.481 245.28 136.788 245.412 135.65C245.5 134.556 244.489 134.338 243.654 134.075C243.39 133.988 243.083 133.9 242.775 133.944C241.501 134.163 239.391 132.806 239.215 134.95C239.083 137.05 241.281 136.35 242.248 136.525ZM237.809 160.763C237.809 164.525 236.666 168.331 238.116 172.006C239.347 168.2 238.688 164.481 237.809 160.763ZM245.016 169.775C243.698 169.644 242.819 169.731 242.336 170.606C242.072 171.044 241.94 171.613 242.248 172.05C242.863 172.969 243.786 172.619 244.665 172.488C245.588 172.356 246.555 172.225 247.478 171.963C247.961 171.831 248.401 171.438 248.357 170.825C248.357 170.169 247.741 170.081 247.258 169.994C246.379 169.906 245.5 169.819 245.016 169.775ZM255.652 118.019C255.301 118.019 254.949 118.063 254.817 118.5C254.641 118.981 254.861 119.375 255.169 119.681C256.18 120.644 257.41 121.344 258.641 121.869C259.564 122.263 260.179 121.563 260.706 120.994C261.146 120.513 260.882 119.988 260.399 119.725C258.904 118.981 257.366 118.325 255.652 118.019ZM245.895 162.731C246.599 162.425 248.445 163.344 248.488 161.813C248.532 160.281 246.687 160.194 245.412 160.194C244.225 160.194 242.423 159.931 242.336 161.419C242.204 163.256 244.094 162.513 245.192 162.775C245.28 162.731 245.456 162.731 245.895 162.731ZM187.223 108.219C187.048 108.088 186.916 107.956 186.74 107.825C185.026 109.094 183.708 110.8 182.345 112.419C181.774 113.075 181.994 113.819 182.653 114.3C183.444 114.913 184.015 114.431 184.411 113.731C185.378 111.894 186.301 110.056 187.223 108.219ZM112.159 232.906C112.246 232.688 112.29 232.513 112.378 232.294C109.873 230.894 107.016 230.544 104.292 229.844C103.852 229.713 103.501 230.194 103.501 230.675C103.501 231.419 104.116 231.594 104.687 231.681C107.148 232.119 109.653 232.513 112.159 232.906ZM257.586 112.638C258.377 112.594 258.948 112.769 259.212 112.156C259.3 111.981 259.124 111.588 258.992 111.369C258.113 110.013 254.905 108.875 253.455 109.356C252.795 109.575 252.576 110.1 253.147 110.45C254.641 111.281 256.267 111.981 257.586 112.638ZM243.434 149.081C244.137 148.994 245.236 148.863 246.291 148.688C246.687 148.644 247.038 148.469 247.038 148.031C247.082 147.55 246.643 147.419 246.291 147.506C244.929 147.769 243.698 146.981 242.423 147.025C241.501 147.069 239.962 146.238 239.83 147.594C239.699 148.819 241.369 148.819 242.38 149.081C242.599 149.125 242.863 149.081 243.434 149.081ZM241.588 125.894C240.666 125.894 239.655 125.675 239.611 126.813C239.567 127.819 240.446 128.169 241.281 128.081C242.599 127.906 243.874 128.081 245.104 128.475C245.5 128.606 246.027 128.694 246.247 128.256C246.555 127.644 245.939 127.338 245.588 127.075C244.357 126.156 242.819 126.288 241.588 125.894ZM221.592 241.963C221.02 241.919 220.229 241.875 219.438 241.875C219.043 241.875 218.691 242.05 218.647 242.444C218.603 242.838 218.911 243.144 219.306 243.231C221.328 243.538 223.35 243.888 225.371 243.538C225.723 243.494 226.118 243.319 226.074 242.881C226.074 242.444 225.635 242.356 225.283 242.269C224.141 241.875 222.998 241.744 221.592 241.963ZM110.62 253.163C111.236 253.075 111.939 253.206 112.027 252.419C112.071 251.763 111.543 251.544 111.016 251.456C109.302 251.194 107.544 250.975 105.83 250.756C105.478 250.713 105.039 250.8 104.951 251.238C104.863 251.631 105.215 251.894 105.522 252.025C107.192 252.813 108.994 252.638 110.62 253.163ZM108.511 262.394C108.599 262.394 109.522 262.613 109.697 261.869C109.917 260.95 108.862 260.994 108.335 260.906C106.929 260.644 105.478 260.469 104.028 260.294C103.501 260.25 102.973 260.381 102.929 261.038C102.885 261.694 103.369 261.913 103.896 261.956C105.259 262.131 106.621 262.219 108.511 262.394ZM108.467 279.719C108.379 279.281 108.511 278.056 107.104 278.231C105.962 278.363 105.083 279.15 105.039 280.419C104.995 281.644 105.786 282.081 106.885 282.038C108.071 281.95 108.687 281.381 108.467 279.719ZM160.063 271.45C159.975 270.706 159.887 270.094 159.316 269.788C158.569 269.438 158.217 269.963 157.953 270.531C157.426 271.713 156.899 272.938 156.371 274.119C156.239 274.381 156.195 274.688 156.459 274.906C156.767 275.169 157.206 275.169 157.47 274.95C158.701 273.988 159.404 272.675 160.063 271.45ZM211.483 138.45C211 135.256 209.022 132.85 207.396 130.269C207.22 129.963 206.825 129.788 206.473 130.138C206.122 130.488 206.341 130.838 206.561 131.1C207.044 131.625 207.616 132.019 207.836 132.806C208.407 135.081 210.473 136.438 211.483 138.45ZM177.906 75.2752C177.862 74.7065 177.994 74.0502 177.379 73.744C176.895 73.4815 176.456 73.744 176.28 74.1377C175.665 75.4502 175.05 76.7627 174.61 78.119C174.434 78.644 174.962 79.6502 175.401 79.1252C176.368 77.944 178.038 77.1565 177.906 75.2752ZM173.511 203.288C173.467 203.506 173.423 203.725 173.423 203.944C173.467 204.6 173.116 205.606 174.083 205.738C174.962 205.869 175.137 204.95 175.401 204.25C175.489 204.031 175.577 203.813 175.577 203.638C175.445 202.456 176.676 200.575 175.006 200.313C173.16 200.05 173.687 202.106 173.511 203.288ZM53.1349 231.988C55.1566 232.556 57.2222 233.169 59.2439 233.738C59.8152 233.913 60.4744 234 60.6502 233.213C60.7821 232.513 60.2547 232.206 59.6394 232.031C57.5298 231.55 55.3763 231.506 53.1349 231.988ZM84.0311 283.788C85.0859 283.481 86.1407 282.825 86.1407 281.469C86.1407 280.463 85.2617 279.806 84.3388 279.938C82.7566 280.156 83.24 281.775 82.8445 282.738C82.5808 283.394 83.1961 283.788 84.0311 283.788ZM190.871 109.619C190.871 109.181 190.695 108.919 190.3 108.831C189.816 108.744 189.465 109.006 189.245 109.4C188.41 111.019 187.619 112.638 186.301 113.906C185.905 114.3 185.729 114.869 186.344 115.175C186.916 115.438 187.355 115.044 187.531 114.563C188.015 113.031 189.201 112.069 190.168 110.888C190.432 110.494 190.827 110.144 190.871 109.619ZM30.5012 260.381C30.3693 260.6 30.2375 260.775 30.0617 260.994C31.8636 262.394 33.6216 263.794 35.4674 265.15C35.7311 265.369 36.2146 265.369 36.4343 265.019C36.7419 264.538 36.4343 264.188 36.0827 263.925C34.3247 262.569 32.4349 261.475 30.5012 260.381ZM160.371 217.025C160.546 217.988 159.799 218.906 159.008 219.913C158.613 220.394 157.997 221.138 158.744 221.575C159.404 221.969 159.975 221.181 160.195 220.613C160.81 218.994 161.557 217.419 161.777 215.669C161.821 215.319 162.041 214.925 161.601 214.706C161.118 214.488 160.766 214.838 160.502 215.144C160.151 215.581 160.151 216.063 160.371 217.025ZM244.269 153.063C244.269 153.106 244.269 153.15 244.269 153.194C244.577 153.194 244.841 153.194 245.148 153.194C245.808 153.194 246.687 153.194 246.687 152.363C246.687 151.488 245.808 151.575 245.148 151.575C244.137 151.575 243.127 151.663 242.16 151.269C241.588 151.05 241.193 151.4 240.885 151.881C240.622 152.275 240.49 152.669 240.797 153.106C241.149 153.631 241.632 153.5 242.16 153.369C242.863 153.281 243.566 153.194 244.269 153.063ZM248.005 116.969C248.796 117.013 249.631 116.969 249.455 116.094C249.06 114.475 247.39 114.869 246.247 114.431C245.632 114.169 244.709 114.431 244.929 115.263C245.28 116.881 246.95 116.531 248.005 116.969ZM177.467 204.556C177.379 205.344 177.379 206.306 178.214 206.088C180.016 205.65 179.532 203.725 180.148 202.544C180.455 201.975 180.016 201.231 179.357 201.275C177.203 201.494 178.214 203.594 177.467 204.556ZM229.195 263.794C229.81 263.663 230.777 263.75 230.601 262.875C230.337 261.694 229.195 261.3 228.052 261.344C227.305 261.388 225.855 261.213 226.074 262.394C226.382 263.838 228.14 263.313 229.195 263.794ZM234.864 131.713C234.82 131.713 234.776 131.713 234.732 131.713C234.732 131.188 234.732 130.706 234.732 130.181C234.688 129.7 234.776 129 234.117 128.956C233.502 128.913 233.414 129.569 233.194 130.006C232.799 131.013 233.018 132.019 233.062 133.025C233.106 133.594 233.018 134.338 233.766 134.381C234.645 134.425 234.688 133.594 234.776 132.981C234.908 132.544 234.864 132.106 234.864 131.713ZM224.668 251.588C225.327 251.325 226.602 251.938 226.734 250.975C226.866 249.838 225.591 250.013 224.756 249.838C224.273 249.75 223.745 249.663 223.218 249.619C222.427 249.575 221.328 249.269 221.108 250.231C220.844 251.5 222.163 251.063 222.822 251.281C223.394 251.456 224.009 251.5 224.668 251.588ZM94.491 182.331C94.5349 181.325 94.0515 180.494 92.9528 180.406C92.1177 180.319 91.8101 181.019 91.9859 181.719C92.2056 182.725 92.1177 184.125 93.5241 184.213C94.7107 184.256 94.3591 183.075 94.491 182.331ZM90.14 282.519C91.1509 282.3 91.7222 281.6 91.6783 280.725C91.6783 279.631 90.6235 279.719 89.8763 279.675C89.0853 279.631 88.3821 279.981 88.47 280.9C88.5139 281.863 89.1292 282.431 90.14 282.519ZM226.47 257.669C225.855 257.8 224.8 257.144 224.58 258.063C224.36 259.156 225.591 258.763 226.162 259.069C226.47 259.244 226.822 259.331 227.173 259.419C227.788 259.594 228.404 259.988 229.019 259.506C229.327 259.244 229.415 258.894 229.195 258.544C228.799 257.8 228.052 257.713 227.305 257.713C227.129 257.669 226.822 257.669 226.47 257.669ZM102.666 280.55C102.622 279.588 102.27 278.931 101.259 278.975C100.204 278.975 99.633 279.588 99.677 280.638C99.677 281.469 100.029 282.344 100.951 282.388C102.05 282.431 102.446 281.469 102.666 280.55ZM73.7031 275.694C73.6591 274.95 73.3076 274.381 72.5165 274.425C71.5056 274.513 70.7585 275.169 70.5388 276.131C70.363 276.919 70.9782 277.313 71.7254 277.313C72.8241 277.356 73.4833 276.744 73.7031 275.694ZM63.0235 153.544C62.8037 153.588 62.54 153.588 62.3203 153.631C62.3203 155.425 62.2763 157.175 62.3203 158.969C62.3203 159.406 62.54 159.888 63.1114 159.8C63.3311 159.756 63.6388 159.363 63.5948 159.188C63.2872 157.306 63.7267 155.338 63.0235 153.544ZM231.7 265.806C231.173 265.938 229.986 265.544 229.854 266.506C229.722 267.469 230.909 267.119 231.524 267.338C231.656 267.381 231.788 267.425 231.964 267.425C232.887 267.556 234.337 268.3 234.513 266.988C234.688 265.763 233.018 266.069 232.139 265.806C232.052 265.85 231.964 265.85 231.7 265.806ZM70.6267 281.206C69.7916 281.425 69.0445 281.819 69.1763 282.781C69.2642 283.481 69.7477 284.006 70.5388 283.875C71.3738 283.744 72.4725 283.613 72.3846 282.519C72.2967 281.731 71.3738 281.381 70.6267 281.206ZM249.016 268.606C248.928 267.994 248.488 267.731 247.961 267.994C247.126 268.431 245.676 267.163 245.368 268.694C245.192 269.569 246.203 270.006 247.038 270.05C248.005 270.138 248.62 269.569 249.016 268.606ZM244.225 118.5C243.698 118.631 242.599 118.325 242.819 119.2C243.127 120.425 244.533 120.206 245.544 120.469C246.027 120.6 246.73 120.425 246.643 119.769C246.423 118.544 245.28 118.544 244.225 118.5ZM183.048 94.0877C184.367 92.8627 184.543 91.5065 185.07 90.369C185.334 89.8002 185.422 89.144 184.674 88.969C183.971 88.794 183.576 89.319 183.488 89.9752C183.312 91.2002 183.224 92.469 183.048 94.0877ZM108.643 188.981C109.434 188.938 109.741 188.5 109.741 187.844C109.741 186.838 109.346 185.963 108.203 185.875C107.456 185.788 106.885 186.313 106.973 187.013C107.016 188.063 107.851 188.544 108.643 188.981ZM163.447 220.7C163.93 220.044 164.458 219.3 164.941 218.513C165.293 217.944 165.469 217.331 165.161 216.675C164.985 216.369 164.59 216.325 164.414 216.544C163.535 217.594 162.92 218.819 162.7 220.175C162.656 220.438 162.92 220.613 163.447 220.7ZM213.944 144.531C214.516 146.631 214.999 148.206 216.362 149.344C216.274 147.594 216.362 145.756 213.944 144.531ZM188.542 197.338C188.498 196.769 188.63 195.85 187.927 195.938C186.872 196.069 186.432 197.206 186.081 198.081C185.861 198.606 186.432 199 187.004 199C188.102 199.044 188.41 198.256 188.542 197.338ZM96.7324 280.594C96.8203 279.85 96.6005 279.238 95.7655 279.238C94.8865 279.238 94.447 279.85 94.4031 280.638C94.3591 281.469 94.7547 282.081 95.6337 282.125C96.6005 282.169 96.6005 281.294 96.7324 280.594ZM208.802 190.206C208.627 189.725 208.802 188.763 208.143 188.85C207.132 189.025 206.781 190.075 206.561 190.95C206.429 191.519 206.869 191.956 207.484 191.869C208.407 191.738 208.802 191.125 208.802 190.206ZM205.067 104.806C205.023 104.325 205.067 103.669 204.452 103.931C203.309 104.413 203.177 105.594 202.957 106.644C202.869 107.081 203.001 107.65 203.573 107.475C204.759 106.994 204.671 105.725 205.067 104.806ZM81.8337 178.044C81.9655 178.7 81.8337 179.619 82.8005 179.706C83.5037 179.75 83.9432 179.138 83.9872 178.438C84.0311 177.563 83.5037 176.906 82.6247 176.819C81.7458 176.731 81.8776 177.475 81.8337 178.044ZM78.8012 275.431C78.8012 274.819 78.4935 274.381 77.9222 274.381C77.1751 274.381 76.4279 274.688 76.2961 275.519C76.2082 276.175 76.6477 276.656 77.3509 276.7C78.2298 276.788 78.6254 276.175 78.8012 275.431ZM140.462 267.688C141.077 267.6 142.044 267.644 142 266.681C141.956 265.763 140.945 265.85 140.286 265.806C139.671 265.763 138.792 265.719 138.748 266.594C138.704 267.556 139.627 267.556 140.462 267.688ZM89.1292 180.013C88.7776 179.444 88.7776 178.394 87.6349 178.306C87.0636 178.263 86.4923 178.613 86.6681 179.181C86.8878 180.1 87.3712 180.975 88.47 181.063C88.9095 181.106 89.1732 180.669 89.1292 180.013ZM97.3916 274.513C97.3916 273.9 97.084 273.375 96.4247 273.288C95.4579 273.2 95.2821 273.988 95.1942 274.688C95.1063 275.344 95.37 275.869 96.0732 275.913C96.9961 275.956 97.2598 275.3 97.3916 274.513ZM86.6241 274.95C86.6241 274.206 86.3165 273.769 85.4814 273.813C84.8222 273.856 84.0751 273.944 84.163 274.819C84.2509 275.563 84.8661 276.088 85.6572 276.131C86.3604 276.175 86.5802 275.606 86.6241 274.95ZM91.4585 274.6C91.3267 274.163 91.2827 273.55 90.6235 273.594C89.7005 273.638 89.5248 274.469 89.4808 275.169C89.4369 275.781 89.6126 276.481 90.3598 276.35C91.2388 276.219 91.3267 275.388 91.4585 274.6ZM213.505 121.388C211.835 122.919 212.802 124.494 212.626 125.938C213.637 124.669 213.857 123.269 213.505 121.388ZM177.774 262.525C178.302 262.306 179.313 262.875 179.269 261.869C179.225 261.125 178.258 261.213 177.643 261.213C177.071 261.213 176.236 261.125 176.236 261.825C176.236 262.831 177.203 262.35 177.774 262.525ZM247.346 123.925C247.038 122.919 245.983 123.138 245.28 122.744C244.885 122.525 244.269 122.656 244.313 123.181C244.445 124.144 245.412 124.144 246.115 124.45C246.555 124.669 247.082 124.581 247.346 123.925ZM234.601 127.556C235.436 125.981 235.26 124.888 234.645 123.531C233.766 124.931 233.853 126.025 234.601 127.556ZM123.849 190.994C123.234 190.994 123.058 191.388 123.058 191.825C123.102 192.525 123.146 193.356 123.893 193.619C124.552 193.838 124.728 193.225 124.772 192.7C124.772 192 124.552 191.3 123.849 190.994ZM262.288 117.013C262.201 116.4 261.761 116.05 261.19 115.919C260.618 115.788 260.135 116.006 260.091 116.619C260.003 117.363 260.574 117.581 261.146 117.669C261.673 117.756 262.157 117.669 262.288 117.013ZM233.018 174.806C233.018 175.288 232.755 176.031 233.502 175.988C234.293 175.944 234.337 175.113 234.469 174.5C234.601 174.063 234.513 173.538 233.985 173.45C233.018 173.406 233.238 174.281 233.018 174.806ZM108.335 273.244C108.291 272.719 108.203 272.194 107.544 272.194C106.973 272.15 106.577 272.5 106.533 273.069C106.445 273.638 106.753 274.031 107.324 274.119C107.939 274.163 108.247 273.813 108.335 273.244ZM79.5483 283.788C80.2954 283.656 80.4712 283.044 80.6031 282.388C80.691 281.95 80.5591 281.425 80.0757 281.425C79.1528 281.425 78.977 282.213 78.8451 282.913C78.7572 283.394 78.977 283.744 79.5483 283.788Z" fill="#36372F"/>
<path d="M233.458 239.994C233.633 242.357 234.117 244.588 234.468 246.863C234.512 247.257 234.38 247.607 233.941 247.694C233.633 247.738 233.414 247.519 233.326 247.213C232.447 244.763 232.842 242.357 233.458 239.994Z" fill="#36372F"/>
<path d="M148.282 232.644C148.239 233.388 147.843 233.781 147.228 233.913C146.656 234 146.173 233.825 146.173 233.169C146.129 232.513 146.568 232.119 147.184 231.988C147.755 231.9 148.151 232.206 148.282 232.644Z" fill="#36372F"/>
<path d="M171.49 97.7191C171.446 98.1566 171.578 98.7254 171.007 98.8129C170.611 98.8566 170.435 98.4629 170.26 98.1566C169.6 97.0629 168.897 95.9254 168.238 94.8316C167.974 94.3941 167.623 93.9129 168.194 93.4754C168.677 93.1254 169.205 93.4316 169.556 93.7816C170.787 94.7879 171.27 96.2316 171.49 97.7191Z" fill="#36372F"/>
<path d="M230.603 118.413C230.867 120.513 229.812 122.306 230.076 124.188C230.12 124.713 229.724 125.15 229.109 125.106C228.582 125.063 228.406 124.581 228.45 124.144C228.582 122.131 228.318 119.9 230.603 118.413Z" fill="#36372F"/>
<path d="M139.449 142.081C142.482 141.819 145.119 143.35 148.019 143.7C144.987 144.05 142.042 144.225 139.449 142.081Z" fill="#36372F"/>
<path d="M133.693 139.413C133.341 140.244 132.55 140.375 131.759 140.419C131.232 140.419 130.661 140.113 130.88 139.5C131.144 138.756 131.935 138.625 132.682 138.581C133.21 138.494 133.649 138.713 133.693 139.413Z" fill="#36372F"/>
<path d="M135.056 62.1936C135.1 63.1999 135.144 64.3374 133.913 64.7311C132.946 65.0374 131.891 65.3874 131.012 64.5999C130.133 63.8124 130.309 62.8499 130.661 61.7999C131.32 59.9186 129.65 59.1311 128.639 58.0374C128.068 57.4249 126.617 57.1186 127.409 55.8936C128.2 54.7124 129.386 54.3186 130.881 54.9311C134.089 56.3311 135.056 58.9561 135.056 62.1936Z" fill="#36372F"/>
<path d="M148.504 274.863C148.46 274.469 148.416 274.382 148.46 274.338C148.899 273.507 149.295 272.632 150.349 272.457C150.701 272.413 150.877 272.763 150.789 273.026C150.481 274.119 149.69 274.644 148.504 274.863Z" fill="#36372F"/>
</svg>
