<svg width="96" height="96" viewBox="0 0 96 96" fill="none" xmlns="http://www.w3.org/2000/svg">
<path d="M0.21813 84.5908C0.270538 76.2579 0.322985 67.8725 0.322985 59.5396C0.322985 57.1812 0.0608918 54.6656 0.00848331 52.3072C-0.0439251 49.9488 0.165747 47.4856 0.113339 45.0748C0.0609302 39.8864 0.0609301 34.7504 0.375381 29.562C0.847057 21.3338 0.532581 13.1057 0.480172 4.87755C0.480172 3.77698 0.427764 2.6764 0.480172 1.57583C0.532581 0.475249 1.16151 -0.0488351 2.20968 0.0035733C12.901 0.737292 23.5923 0.370432 34.2836 0.527658C38.5811 0.580066 42.8262 1.10415 47.0713 1.05174C56.3476 0.946925 65.5715 1.57583 74.8478 1.15657C80.2458 0.894523 85.6963 1.05176 91.0944 0.999347C92.1426 0.999347 93.1907 0.842109 94.2389 0.7897C95.2347 0.737292 95.5491 1.20899 95.4967 2.15234C95.2347 8.33654 95.3395 14.5731 95.3395 20.7573C95.3395 23.2729 95.3395 25.841 95.3395 28.3566C95.3395 34.0691 95.4443 39.7816 95.4967 45.4417C95.5491 55.0325 95.6016 64.6232 95.4443 74.214C95.3395 80.3982 95.3395 86.6348 95.3395 92.819C95.3395 95.2297 95.0775 95.5442 92.5619 95.4918C82.3946 95.2297 72.2797 95.3346 62.1125 95.3346C48.2767 95.3346 34.4933 95.4394 20.6574 95.4918C14.9449 95.5442 9.23241 95.7014 3.51989 95.8062C0.637423 95.8586 0.270551 95.4918 0.165734 92.5569C0.165734 89.9365 0.21813 87.2637 0.21813 84.5908ZM93.8721 48.3766C93.8721 46.8567 93.8721 45.2845 93.8721 43.7646C93.8197 36.5847 93.7148 29.4047 93.7148 22.2248C93.7148 16.1978 93.8197 10.1708 93.8721 4.14385C93.8721 3.09568 93.5576 2.83365 92.457 2.93847C87.4258 3.41014 82.3946 3.30532 77.3634 3.20051C68.8208 3.04328 60.2258 2.83365 51.6833 2.67642C42.8786 2.5192 34.074 2.30956 25.2694 2.30956C18.1943 2.30956 11.1191 2.51919 4.09637 2.5716C2.99579 2.5716 2.9958 3.2529 2.9958 3.93421C3.20544 11.1142 2.73374 18.2417 2.57651 25.4217C2.36688 35.2745 2.31446 45.1272 2.10482 54.9276C2 60.6401 1.94762 66.3527 2.00003 72.0652C2.05244 78.8259 2.00004 85.5866 1.94763 92.3473C1.94763 93.3954 2.00002 93.9195 3.36264 93.8147C6.03547 93.6575 8.76072 93.5527 11.4336 93.8147C14.1064 94.0767 16.6744 93.5003 19.3472 93.6051C24.9549 93.8147 30.5626 93.3954 36.1703 93.3954C42.6166 93.3954 49.1152 93.5003 55.5614 93.6575C60.5927 93.7623 65.6239 94.0767 70.6551 93.9719C75.3195 93.8671 79.9838 93.8147 84.6481 93.7623C87.3734 93.7099 90.0987 93.9719 92.8239 93.6575C93.6624 93.5527 93.872 93.2382 93.8196 92.3997C93.6624 89.8317 93.4528 87.2112 93.5576 84.6432C93.9768 72.5893 93.5576 60.4829 93.8721 48.3766Z" fill="#36372F"/>
<path d="M68.5613 59.2783C68.5613 55.3476 68.7185 51.6791 68.5089 48.0105C68.142 40.0968 68.7185 32.1831 68.7709 24.2694C68.8233 20.6008 67.4607 18.0852 64.5258 16.1461C63.7397 15.622 62.377 14.9407 62.6391 14.2594C62.9535 13.4209 64.3162 13.945 65.2071 13.945C69.9763 13.945 74.7455 13.9974 79.5146 13.9974C80.0387 13.9974 80.6676 13.8925 80.8249 14.4166C80.9821 14.9931 80.2483 15.1504 79.8815 15.4124C79.5146 15.622 79.0954 15.8317 78.6761 15.9889C75.8985 17.1943 75.0075 19.2382 74.7979 22.2779C74.1166 32.9692 74.0642 43.6605 74.0118 54.3519C73.9593 62.58 74.1166 70.7557 74.3262 78.9315C74.3262 79.77 74.2738 80.6085 73.6973 81.7615C57.1887 62.842 40.7324 44.1322 24.0141 25.6844C23.5424 25.8941 23.6472 26.3133 23.6472 26.6278C23.7521 30.3488 24.0141 34.0698 23.9093 37.8432C23.8045 41.5642 24.0141 45.2328 23.6472 48.9538C23.4376 51.155 23.9093 53.4609 23.9093 55.7145C23.9617 61.9511 24.2761 68.2401 23.752 74.4767C23.49 77.5688 25.3243 79.0363 27.3682 80.5561C27.9447 80.9754 28.4688 81.3946 29.0453 81.8139C29.3073 82.0235 29.6742 82.2856 29.4646 82.6524C29.3073 83.0193 28.888 82.9669 28.5212 82.9145C27.0537 82.8097 25.5339 82.8097 24.0665 82.7048C20.4503 82.3904 16.8341 82.4952 13.1655 82.4428C12.6415 82.4428 11.9077 82.6525 11.6981 82.076C11.436 81.4995 12.1698 81.2898 12.4842 80.923C13.7944 79.5603 15.0522 78.1453 16.4672 76.8875C17.9347 75.5773 17.4106 73.9002 17.4106 72.3804C17.5154 66.6679 17.4106 60.9553 17.3582 55.2428C17.3058 50.7881 17.5678 46.3334 17.5678 41.8787C17.5154 36.3234 17.3582 30.7681 17.2534 25.1604C17.201 23.6929 17.0961 22.1731 17.2534 20.7056C17.463 18.9762 16.7293 18.0328 15.3143 17.2467C14.4757 16.775 13.6896 16.3033 12.9035 15.7793C12.5366 15.5172 12.2746 15.0979 12.4842 14.6263C12.6414 14.1546 13.1131 14.207 13.48 14.1546C17.3058 14.0498 21.1316 13.8925 24.9574 13.7877C25.8484 13.7353 26.4248 14.3118 27.0013 14.8359C31.2464 19.1858 35.4915 23.5357 39.6842 27.8856C43.6148 31.9735 47.7027 35.9041 51.4237 40.2016C55.7212 45.1804 60.0187 50.1592 64.3686 55.0856C65.6788 56.553 67.0938 57.8108 68.5613 59.2783Z" fill="#36372F"/>
</svg>
