<svg width="97" height="101" viewBox="0 0 97 101" fill="none" xmlns="http://www.w3.org/2000/svg">
<rect x="4" y="3" width="90" height="96" fill="white"/>
<path d="M95.8643 2.73531C96.0218 4.93927 96.2317 6.61848 96.3366 8.29768C96.3891 10.3442 95.5495 12.0759 93.8703 13.1779C92.3485 14.1749 90.6168 14.0175 89.0426 13.2303C88.098 12.7581 87.3109 11.9709 87.4683 10.6591C87.6257 9.24223 88.3604 8.24521 89.5149 7.56303C90.197 7.14323 90.9317 7.56302 91.1416 8.2452C91.3515 8.92738 91.7188 9.81946 90.7218 10.3967C90.4069 10.5541 89.6198 10.4492 90.0396 11.2888C90.2495 11.761 90.6168 11.9185 91.1416 11.9709C92.7683 12.1808 93.8703 11.4462 94.5 10.0294C95.2347 8.45511 94.5525 5.62145 93.2406 4.8868C89.8297 2.89274 87.1535 2.89274 84.3198 6.1462C81.906 8.97985 82.7981 14.8571 86.104 16.6412C88.4654 17.9531 90.8267 19.1076 93.7653 18.0581C95.1822 17.5333 96.0217 18.3204 96.2841 19.9996C96.494 21.6788 95.9168 22.2036 94.395 22.3085C93.8178 22.361 93.0831 22.2036 92.8732 22.9907C92.7158 23.6204 93.398 23.8828 93.7129 24.2501C96.0743 26.9788 97.2287 29.9699 96.3366 33.6432C96.1267 34.4828 96.599 35.3748 96.5465 36.3719C96.2841 41.4095 92.9257 43.8758 89.2525 46.2897C88.203 46.9718 86.996 47.5491 85.8941 48.1788C85.5267 48.3887 84.9495 48.651 85.2119 49.2283C85.4742 49.858 85.9466 49.4382 86.3664 49.3857C89.6198 48.9659 92.8732 48.5461 96.2316 49.7005C95.2346 50.9599 93.9228 50.8025 92.7158 50.5926C91.9287 50.4877 90.9317 50.3302 90.6693 50.9075C90.302 51.6946 91.3515 52.1144 91.8762 52.5342C94.6574 54.5807 95.5495 57.3094 95.1821 60.8777C93.9752 59.8282 94.3426 58.4639 93.8178 57.4144C91.299 52.3243 85.2644 49.5431 80.1743 50.3302C75.7664 51.0124 71.6733 52.3243 67.7902 54.3708C65.9011 55.3679 65.8486 55.8926 67.5802 57.2045C68.105 57.5718 68.4723 57.9916 68.6822 58.6213C68.8396 59.0936 68.8921 59.8282 69.4693 59.9332C70.204 60.0381 70.5713 59.3035 70.9387 58.7263C73.405 54.4758 77.5505 53.1639 82.0109 52.6391C83.4802 52.4817 85.0544 53.1639 86.3138 54.056C86.6287 54.2659 86.8386 54.5807 86.6812 54.8956C86.4713 55.3679 86.1565 55.053 85.8416 54.948C80.0169 53.1114 73.6674 57.047 73.51 63.3441C73.4575 65.9153 72.8802 66.4401 70.3089 66.7549C66.9505 67.1223 65.4812 69.4836 64.2218 72.1599C63.8545 72.947 63.7496 73.944 63.1723 74.5213C61.0208 76.7252 61.1258 79.2965 62.3327 81.6054C64.0644 85.0688 66.006 88.5321 70.0991 89.949C70.6238 90.1064 71.201 90.7885 71.7258 90.0014C72.1981 89.3192 71.4634 89.0569 71.1486 88.6895C68.6298 85.5935 66.4783 82.3401 66.3208 78.1421C66.2684 75.7807 68.4199 73.2619 71.1486 72.6846C73.9298 72.1074 76.7109 73.4718 77.3931 75.8856C77.8129 77.3025 77.1307 78.5619 76.0287 79.4015C74.9267 80.1886 73.5624 80.6084 72.1981 79.8213C71.5159 79.4539 71.4634 78.7193 71.5159 78.0371C71.6208 76.9351 72.303 76.4104 73.2476 75.9906C73.8248 75.7282 75.0317 76.148 74.7693 74.9411C74.5594 73.9965 73.5624 74.3114 72.8278 74.2589C71.0436 74.1015 69.6268 74.6262 68.8397 76.3579C67.8951 78.3519 68.21 80.2935 69.6268 81.8153C70.8337 83.1272 72.3555 84.3341 74.3495 84.1242C76.501 83.9143 77.8654 85.2262 79.2822 86.4856C80.0169 87.1678 79.9644 88.1648 79.5446 88.9519C79.1248 89.7915 78.3901 90.4737 77.2881 90.3163C76.8159 90.2638 76.1337 89.8965 75.8713 90.6311C75.7139 91.1034 76.2911 91.4183 76.5535 91.7856C78.705 94.8291 82.1159 95.3539 85.3693 96.246C88.3079 97.0331 91.194 97.8202 94.1326 98.6598C94.6049 98.8172 95.3921 98.9747 95.2871 99.5519C95.1822 100.182 94.4475 100.287 93.8178 100.234C88.4653 99.7093 83.0079 99.9717 77.8129 98.345C77.1832 98.1351 76.4485 97.9776 76.2386 98.6598C75.7139 100.182 74.7169 99.5519 73.7723 99.342C70.6238 98.6074 68 96.8232 65.2713 95.1965C64.7466 94.8816 64.0119 94.3044 63.4347 94.8291C62.8575 95.3539 63.6971 95.8786 63.907 96.4034C64.8515 98.6598 64.1694 99.7618 61.7555 99.7618C58.3446 99.7618 58.0298 99.5519 56.8228 96.2984C55.7733 93.5172 54.5664 90.9985 51.4179 89.949C48.4268 88.9519 44.911 89.7391 43.3368 91.8905C42.1298 93.5173 42.6021 95.1965 43.3892 96.5083C44.2813 97.9776 45.6457 96.9282 46.8526 96.4559C46.6427 95.5113 44.8586 95.144 45.6982 93.8846C46.3279 92.8876 47.4823 92.8351 48.6367 92.8875C50.0011 92.94 50.3684 93.8321 50.6833 94.9865C51.3655 97.5054 50.106 99.342 47.4823 99.5519C43.0743 99.8667 42.3922 99.4469 40.0308 94.4618C39.7684 93.937 39.8734 93.045 39.0862 93.0975C38.4565 93.1499 38.1417 93.937 38.0893 94.4618C37.7219 96.8232 35.9902 97.8202 34.0486 98.6073C29.8506 100.287 25.8101 99.7618 22.0844 97.3479C21.0349 96.6658 20.4051 96.3509 19.8279 97.8202C19.3556 99.0796 18.0962 99.2895 16.9418 99.2371C15.7348 99.1846 14.6853 98.7648 14.1606 97.5578C13.7408 96.5608 13.3735 95.6163 13.2685 94.4618C13.0586 92.0479 11.6942 90.3163 9.4378 89.5292C7.28632 88.7945 5.29232 89.2668 3.71807 90.9985C2.35371 92.5202 2.45866 94.3044 3.98044 95.4064C4.66262 95.9311 5.23982 96.141 5.13487 94.8816C5.02992 93.5697 5.7121 92.5727 6.9715 92.4153C8.33585 92.2054 9.2279 92.9925 9.70018 94.3044C10.1725 95.7212 10.0676 96.9806 8.96558 98.0301C7.54875 99.342 5.81702 99.2895 4.19029 98.8173C1.51406 98.0826 0.464584 96.141 0.412109 92.8351C0.412109 90.4212 1.77646 88.7945 4.08537 87.7975C7.33882 86.3807 10.3824 86.5905 13.5309 88.2697C15.2101 89.1618 17.2566 89.3193 18.6209 90.946C19.4081 91.8905 19.9853 90.5787 20.4576 90.0539C21.1922 89.1094 21.5071 87.7975 22.819 87.3777C24.1833 86.9579 27.3843 88.0074 28.0665 89.2668C28.8011 90.6311 27.9616 91.7856 27.3319 92.8351C26.9645 93.4123 26.2298 93.9895 25.4427 93.5697C24.3932 92.9925 23.5011 92.2579 24.0784 90.841C24.2358 90.4737 24.1833 90.1588 23.816 90.0014C23.3962 89.7915 23.1863 90.1588 22.9764 90.3687C21.2972 92.0479 22.5566 95.5638 25.0229 96.1935C29.2734 97.2955 32.1071 95.8787 33.7863 91.7331C33.9437 91.3133 34.2585 90.8935 34.311 90.4212C34.6259 88.8995 35.5179 87.5351 36.9348 87.4302C38.4041 87.2727 39.8209 88.2173 40.5556 89.6341C41.1853 90.841 41.6575 90.4737 42.3922 89.844C45.3308 87.1678 49.5813 86.748 53.2021 88.4797C57.8723 90.7361 62.9624 91.943 67.6852 94.0945C69.9941 95.144 72.5654 94.8816 74.7168 96.246C75.1366 96.5083 75.7139 96.5608 76.2911 95.9836C73.6673 94.4618 71.1485 92.8351 68.4723 91.5757C62.3327 88.6895 56.8753 85.1212 52.6248 79.7163C51.0506 77.7223 49.0565 76.4628 46.3278 76.8302C45.5932 76.9351 44.806 77.145 44.7536 77.7747C44.6486 78.4044 45.4882 78.6143 46.0655 78.7718C46.5902 78.9292 47.115 79.0341 47.5872 79.244C48.4793 79.6638 48.7941 80.346 48.007 81.1331C47.4298 81.7104 47.0625 83.0222 45.908 81.8153C45.1733 81.0282 44.1239 80.8707 43.2318 80.5559C40.9229 79.8212 40.2932 78.0896 41.815 76.148C42.1298 75.7282 42.6021 75.4134 42.8645 74.9411C43.914 72.9995 44.4912 71.1629 42.6546 69.2737C41.7625 68.3817 41.2902 67.1223 40.6605 66.0203C40.4506 65.6005 40.2932 65.0757 40.713 64.7084C41.0803 64.3936 41.4477 64.7609 41.7625 64.9708C44.4387 66.9124 46.0655 69.4837 46.5902 72.7371C46.6952 73.3143 46.7476 73.7866 47.115 74.2064C47.4823 74.5737 47.9021 74.8361 48.3744 74.5213C48.9516 74.2064 48.7417 73.7341 48.4793 73.3143C47.7446 71.95 47.1675 70.4807 46.2229 69.2737C44.0714 66.4926 43.3368 63.0817 42.0774 59.9332C41.5526 58.5688 40.5556 57.4144 40.4506 55.8401C40.3982 54.7906 40.5555 54.1609 41.71 54.056C43.1268 53.8986 42.6546 54.8431 42.707 55.6302C42.9169 57.7817 43.2318 59.9332 44.7011 61.6649C44.9635 61.9797 45.1733 62.3995 45.6456 62.2421C46.1179 62.0847 46.013 61.6124 46.1179 61.1926C46.6427 58.9886 46.5902 56.6272 48.5318 54.948C50.0535 53.6362 51.7328 52.9015 53.7268 53.5312C55.7209 54.1609 56.7179 55.6827 57.0852 57.7292C57.2426 58.7263 56.9278 59.4609 56.0882 59.9857C55.2486 60.5104 54.6189 61.4025 53.412 60.8777C51.8377 60.1956 51.4179 58.7787 52.5724 57.5193C53.0447 56.9946 53.9367 56.5748 53.1496 55.7352C52.4674 55.0005 51.7853 55.5777 51.208 55.9975C49.214 57.4669 48.2694 60.0381 49.3189 62.1371C50.211 63.8688 51.0506 65.4431 52.7823 66.3876C54.2516 67.2272 54.9862 68.6965 54.8813 70.2708C54.7763 71.7926 53.202 72.1599 51.9426 72.3173C50.3684 72.5797 50.6308 73.1044 51.313 74.1015C53.307 77.0925 55.4585 79.9262 58.2922 82.1301C58.8694 82.6024 59.6041 83.442 60.3912 82.7074C61.0209 82.1302 60.5486 81.2906 60.1288 80.7133C54.9862 73.5243 57.9248 61.8223 62.5951 56.8372C65.8486 53.3738 69.9416 50.8025 74.7693 49.7005C78.3901 48.8609 81.9059 47.7065 85.4742 46.657C86.7336 46.2897 87.5208 45.2402 88.203 44.0857C86.8386 44.1907 85.5268 44.4006 84.2674 44.4006C82.4307 44.4006 81.4861 43.2986 81.5386 41.4095C81.6436 39.4679 82.4832 38.7857 84.4247 38.7857C86.996 38.8382 89.5149 38.3134 91.8762 37.3164C94.605 36.162 96.1267 33.2758 95.6544 30.757C95.0772 27.661 92.3485 24.8798 89.4623 24.7224C87.2059 24.565 83.9525 26.7165 85.0545 29.7075C85.2644 30.2848 85.3693 30.9145 86.1564 30.9669C86.8911 30.9669 87.4683 30.9669 87.7307 30.0748C87.9406 29.2352 88.4129 28.5531 89.3574 28.4481C90.0396 28.3956 90.4069 28.9729 90.6693 29.5501C91.0366 30.4422 90.8792 31.2293 90.1445 31.9115C89.4099 32.5937 88.9376 33.4857 87.8356 33.7481C84.9495 34.3778 83.7426 32.2263 83.5327 29.2877C83.3753 26.8739 83.9525 24.7749 86.4188 23.6204C86.8911 23.4105 87.6257 22.9382 87.5208 22.3085C87.4158 21.6264 86.5762 21.6264 85.999 21.5739C81.6436 21.1016 78.2852 18.6878 75.6614 15.4343C72.4604 11.4987 68.3674 10.3442 63.5397 10.6591C59.709 10.9214 55.7733 11.3412 52.4149 8.82243C50.9456 7.72045 49.8436 6.25116 48.2694 5.30661C47.7971 5.04423 47.3773 4.57195 46.8001 4.99175C46.2754 5.35908 46.6951 5.88383 46.6427 6.30363C46.6427 6.61848 46.6951 6.9858 46.6951 7.30066C46.8526 8.66501 47.5872 10.1343 45.6456 10.869C43.2842 11.761 41.71 11.2888 40.3981 9.34718C39.4536 7.98283 38.8239 6.40858 37.4595 5.25413C34.8882 3.05018 32.107 2.26305 28.8536 3.15512C26.4397 3.8373 25.2853 6.7759 26.8071 8.50758C27.6992 9.5046 28.4863 9.34719 28.8536 8.14026C29.1684 6.93333 29.7457 6.30362 30.9526 6.40857C31.8447 6.51352 32.8417 6.82837 33.0516 7.98283C33.2615 9.24223 32.5793 10.0294 31.6348 10.6066C28.3289 12.7056 24.2883 10.6591 24.1834 6.88086C24.1834 6.19868 24.1833 5.62145 23.5536 5.41155C22.8714 5.14917 22.4516 5.67393 22.0318 6.09373C17.0467 10.869 10.3824 12.1284 4.29528 9.34718C1.98638 8.29768 0.412084 4.36204 2.61604 1.94819C4.97742 -0.623092 9.49033 -0.675567 10.8022 1.94819C11.4319 3.15512 11.0121 4.0472 10.2775 4.8868C9.5428 5.77887 8.54578 6.30363 7.39132 5.98878C6.34182 5.67393 5.50219 4.99176 6.44675 3.73235C6.70912 3.36503 7.2339 2.9977 6.6042 2.5779C6.07945 2.21057 5.44971 2.1581 4.92496 2.68285C2.9309 4.51948 3.50817 7.56303 6.07945 8.61253C10.4349 10.3442 13.4784 7.8254 14.2656 3.78482C14.4755 2.57789 14.4754 1.37097 15.6824 0.688789C17.414 -0.360713 18.9358 0.478885 19.0932 2.47294C19.1457 3.41749 19.0932 4.36205 19.0932 5.41155C20.0903 4.93927 21.2447 4.57195 22.1368 3.88977C26.3348 0.583841 31.2675 0.741267 36.1476 0.741267C39.5585 0.741267 42.9694 0.846217 46.2754 2.05314C48.3744 2.84027 50.0011 4.15216 51.3654 5.83136C51.8902 6.46106 52.1526 7.61551 53.5694 7.40561C54.9338 7.19571 55.5634 6.88086 54.7763 5.56898C54.1991 4.57196 54.9337 3.8373 55.2486 3.15512C56.2981 0.84622 61.6506 0.268984 63.2773 2.21056C64.0644 3.15512 64.4317 4.30957 63.4347 5.09669C62.3327 5.98877 60.9684 6.82837 59.3941 6.1462C58.8694 5.9363 58.607 5.46403 59.0268 4.78186C59.3416 4.30958 60.0763 3.52244 58.8694 3.26007C57.9773 3.05017 57.2951 3.46998 57.1377 4.467C56.5605 7.56303 58.8169 9.97689 61.9654 9.45214C64.3793 9.03234 66.6882 8.4551 67.7902 5.62145C68.6298 3.52244 70.204 1.68583 72.8278 1.37097C74.6119 1.16107 76.1337 1.63334 76.9733 3.26007C77.603 4.41452 76.2911 7.30065 74.9792 8.2452C73.1426 9.5046 73.1426 9.50461 74.9792 10.6591C75.8188 11.1838 76.4486 11.8135 76.9208 12.6531C78.2852 15.2769 80.3842 17.2184 82.6931 19.0026C83.3753 19.4749 84.1099 19.7373 84.7396 19.2125C85.5792 18.5303 84.5822 18.0581 84.3198 17.5333C83.8475 16.6412 83.2178 15.8016 82.6406 15.0145C80.3841 11.9709 80.4891 7.56304 82.903 5.04423C85.8416 1.9482 90.5119 1.21355 93.7129 3.4175C94.5 3.94225 95.1822 3.94224 95.8643 2.73531ZM64.7466 57.5718C62.6476 59.6708 61.4931 62.1896 60.1813 64.551C59.9189 65.0233 59.6565 65.6005 60.1288 66.0203C61.3882 67.1223 61.1258 68.5391 61.1258 69.9559C61.1258 71.3203 61.1258 72.6322 61.1783 73.9965C61.1783 74.3638 61.3357 74.8886 61.7555 74.9411C62.2803 75.046 62.3852 74.5213 62.4902 74.154C62.6476 73.7866 62.805 73.3668 62.7526 72.9995C62.5427 70.1658 63.3823 67.9094 65.3763 65.7579C66.4783 64.551 68.0525 62.7668 66.6882 60.7728C66.006 59.8282 65.4812 58.7787 64.7466 57.5718Z" fill="#36372F"/>
<path d="M39.6114 85.173C32.9471 85.4354 26.2828 85.173 19.6184 85.6453C18.7263 85.6977 17.2046 86.1175 17.0997 84.8581C17.0472 83.7562 18.6214 84.071 19.4085 83.8086C20.3531 83.4938 21.3501 83.4938 22.3472 83.1789C25.9155 81.972 26.3352 81.4472 26.3877 77.8789C26.5451 69.1681 26.1778 60.5097 26.3353 51.7988C26.5452 42.5632 26.2303 33.3276 26.1778 24.092C26.1778 21.7306 26.755 19.3692 25.4431 17.0603C25.0758 16.3781 24.866 16.3781 24.2363 16.2732C22.0848 16.0108 19.9858 15.6435 17.8868 15.2237C17.362 15.1187 16.47 15.0138 16.5749 14.2266C16.6274 13.492 17.467 13.7544 17.8868 13.7544C25.3907 13.2821 32.8946 13.4395 40.3985 13.492C45.5411 13.5445 50.7361 13.492 55.8787 13.6494C59.8668 13.7544 64.0124 13.1247 67.7906 15.1187C71.8836 17.3227 75.6619 19.8415 77.7084 24.2494C78.1282 25.089 78.7578 25.8236 79.2301 26.6108C81.3816 30.6513 80.8044 34.7969 79.4925 38.9424C77.6559 44.7671 73.0906 47.4434 67.7906 49.385C62.2282 51.379 56.4035 51.1691 50.6312 51.2741C46.9055 51.3265 43.1273 51.1691 39.4016 51.379C38.2996 51.4315 37.9847 52.0087 38.0372 52.9533C38.5619 59.4077 38.2995 65.8622 38.2995 72.3166C38.2995 74.9928 38.7194 77.669 38.4045 80.3453C38.2471 81.9195 40.0313 83.1265 42.5501 83.1265C43.7045 83.1265 44.8589 83.1265 45.856 83.8086C46.2233 84.071 46.853 84.1235 46.6956 84.7532C46.5381 85.3304 46.0134 85.2779 45.4887 85.2779C44.4916 85.2254 43.4421 85.173 42.4451 85.1205C41.5005 85.173 40.556 85.173 39.6114 85.173ZM53.0451 48.3879C54.1471 48.3879 54.7768 48.3879 55.4065 48.3879C62.4381 48.7028 69.7322 43.088 70.3619 35.9513C70.6767 32.3306 70.4668 28.9197 68.945 25.4038C66.3737 19.4217 61.7559 17.6375 55.8787 17.0078C51.7332 16.588 47.6926 17.1128 43.5996 17.0078C38.6669 16.7979 37.8798 16.5355 38.2471 22.4652C38.7194 30.0741 38.4045 37.683 38.4045 45.2919C38.4045 47.4434 39.4015 48.8602 41.1857 48.5978C45.2787 47.9681 49.4243 48.8602 53.0451 48.3879Z" fill="#36372F"/>
<path d="M17.1517 77.0922C16.627 79.3486 15.7349 81.0803 14.0032 82.3397C11.0646 84.4387 7.91614 85.7506 4.24288 85.2783C3.66566 85.1734 3.03593 85.0684 2.51118 84.8061C1.72405 84.3863 0.622076 84.1239 0.674551 82.9169C0.727026 81.9199 1.6716 81.3952 2.40626 81.1328C3.92803 80.6081 3.87552 80.0833 3.08839 78.6665C0.0973121 73.0516 -0.00759971 67.2269 2.40626 61.4022C2.77358 60.5101 3.40326 59.618 4.34781 59.1457C4.71513 58.9358 4.97754 58.621 4.76763 58.1487C4.50526 57.6239 4.03296 57.624 3.56068 57.7814C3.14088 57.9388 2.66861 58.0438 2.2488 58.2537C1.56663 58.5685 0.622063 59.0933 0.202262 58.4111C-0.270014 57.6239 0.517126 56.7319 1.1993 56.2596C3.29831 54.8428 5.71214 54.6329 8.12599 54.423C9.59529 54.318 11.1171 54.7903 12.5339 53.8982C12.0092 52.8487 11.222 52.5339 10.1201 52.4289C7.39137 52.1665 4.66265 51.7992 2.03889 50.9071C1.30424 50.6448 0.62205 50.3299 0.254724 49.6477C-0.217551 48.7032 -0.112588 47.8636 1.25176 47.9161C1.51414 47.9161 1.77652 48.021 2.03889 48.021C2.93097 48.021 4.08546 48.126 4.50526 47.4963C5.08249 46.6042 3.92798 46.027 3.40323 45.3448C1.40918 42.8785 0.464638 39.9923 0.464638 36.8963C0.464638 32.8032 0.0973248 28.6577 0.936926 24.6171C1.46168 22.2033 2.51121 20.0518 4.76763 18.6874C5.18744 18.4251 5.86957 18.2152 5.71215 17.533C5.6072 16.8508 4.97748 16.9033 4.45273 16.7459C4.13788 16.6934 3.77058 16.536 3.56068 16.3261C3.03593 15.8538 2.03892 15.5389 2.19634 14.6993C2.35377 13.9122 3.29833 13.7548 3.98051 13.5449C6.18446 12.8627 8.28342 13.4399 10.4874 13.9122C13.7933 14.6469 15.7349 17.0607 17.729 19.4746C18.4111 20.2617 18.726 21.2062 18.7785 22.2557C18.7785 22.8854 18.8834 23.5676 19.6181 23.725C20.2478 23.83 20.6676 23.2528 21.1398 22.8854C21.2973 22.7805 21.2973 22.5181 21.4547 22.3607C22.0319 21.731 21.717 20.2092 22.819 20.4191C23.8685 20.629 23.5012 22.0983 23.5537 22.8854C23.6586 24.5647 23.4487 26.2438 23.2388 27.923C23.1339 28.9201 22.6092 29.7072 21.5597 30.0745C19.828 30.7042 18.4111 31.9636 16.9943 33.0656C14.7379 34.8498 14.4755 38.5755 16.3646 40.727C17.5715 42.0913 20.0904 42.0389 21.2973 40.727C21.7171 40.2547 21.6121 39.9398 21.4022 39.4676C21.2448 39.0478 21.0349 38.6804 20.5102 38.9428C18.9359 39.7299 18.2537 39.2052 18.2537 37.526C18.2537 35.9517 19.4606 34.6923 20.9299 34.9022C22.1893 35.0597 23.3963 35.6369 23.6587 37.0012C23.9735 38.8379 24.2883 41.0943 23.0289 42.4062C21.5596 43.9804 19.3032 44.5052 16.9943 43.8755C13.2686 42.7735 10.8547 37.9983 12.429 34.1676C13.2161 32.226 12.4814 32.2785 10.9597 31.8062C7.81115 30.8092 5.55472 29.025 7.02403 25.7191C7.75868 24.0924 9.75273 22.833 11.222 23.2528C12.1141 23.5151 12.9537 23.9874 12.8488 25.0369C12.7438 25.929 12.0092 26.3488 11.1171 26.5062C10.5924 26.6112 9.75274 26.1389 9.59532 27.031C9.49037 27.7656 10.0676 28.2904 10.5399 28.7102C11.7993 29.7597 14.1082 29.6547 15.42 28.4478C17.2042 26.8211 17.624 24.2498 16.522 21.6785C15.7874 19.9993 13.8458 19.0023 11.5369 19.0548C9.96262 19.0548 8.23099 18.7399 7.12901 19.9468C4.92506 22.3082 2.93101 25.0369 2.66863 28.3429C2.45873 30.4419 3.98047 32.0686 5.44977 33.5379C6.2369 34.2725 7.02401 35.0597 7.86361 35.6894C9.12302 36.5814 9.33297 37.6309 8.70327 39.0478C8.07357 40.4646 7.12899 41.0418 5.65969 40.6745C5.13493 40.5171 4.61021 40.3072 4.24288 40.9369C3.98051 41.4616 4.03297 41.9864 4.29535 42.4587C5.97455 45.4497 10.8023 48.4408 14.528 47.6537C16.627 47.2339 18.621 47.1289 20.6676 47.7586C22.1369 48.2309 23.0814 48.8606 23.2388 50.4349C23.4487 52.1141 22.0319 52.324 21.0349 52.9537C20.6676 53.216 19.7755 52.7962 19.8804 53.6883C19.9329 54.2655 20.6151 54.423 21.0874 54.6329C21.822 54.9477 22.6091 55.2626 23.3438 55.5774C24.1309 55.8923 24.2883 56.5745 24.0784 57.2566C23.8161 58.1487 23.1339 57.8339 22.5566 57.6764C20.6675 57.2042 18.7785 56.6794 16.8894 56.1547C14.2656 55.42 8.70323 57.1517 7.02403 59.2507C6.60422 59.7754 6.13194 60.4576 6.55174 61.0873C7.02401 61.8744 7.7062 61.2972 8.3359 61.1398C9.07056 60.9824 9.80522 60.615 10.6448 60.7725C12.2715 61.0873 13.1636 61.9794 13.2686 63.6061C13.3211 65.1804 12.219 66.2823 11.0121 66.5972C8.86064 67.1744 7.28643 68.7487 5.34485 69.6407C4.50525 70.0081 4.40026 70.9526 4.19036 71.6873C3.45571 74.3635 5.29236 78.3516 7.75869 79.611C10.0676 80.8179 13.4785 79.7684 14.5805 77.4071C15.1052 76.3051 15.0002 75.1506 14.1606 74.1536C13.6884 73.5764 13.0587 73.2615 12.3765 73.6289C11.6419 74.0487 12.3765 74.5734 12.5339 74.9932C12.7438 75.6229 13.2161 76.3051 12.6914 76.8823C12.0617 77.617 11.2745 77.1447 10.6448 76.8823C9.38542 76.3051 8.23098 75.4655 8.23098 73.9437C8.23098 72.6318 9.28044 71.8447 10.4874 71.3724C11.9042 70.9001 12.9013 70.2705 13.1637 68.4338C13.5835 65.6002 15.525 63.7111 18.0963 62.5041C19.5131 61.822 21.5596 62.5041 22.7141 64.0784C24.1309 65.9675 24.3408 68.0665 23.1864 69.2734C22.2943 70.218 21.1923 70.0605 20.2478 69.3784C19.3032 68.6437 19.0409 67.6467 19.723 66.5447C19.9854 66.1249 20.825 65.9675 20.3003 65.2853C19.828 64.6031 19.0933 64.813 18.4636 65.0229C16.1022 65.7576 15.1577 69.2734 16.7319 71.2675C17.8339 72.6318 19.4606 73.2615 20.8775 74.1536C21.9794 74.8358 23.2913 75.3605 23.1339 76.8823C23.029 78.1942 21.8745 78.719 20.7725 79.1388C19.3557 79.716 18.4636 78.8764 17.6765 77.9318C17.7814 77.6694 17.5715 77.512 17.1517 77.0922Z" fill="#36372F"/>
<path d="M95.1285 61.7174C97.2275 64.0263 95.7057 65.9154 94.7087 67.9095C93.7117 69.956 91.5077 70.9006 90.0909 72.5798C90.7206 73.4194 91.6126 73.2095 92.3473 73.3669C94.7087 73.9441 96.4928 75.4659 96.4928 77.0402C96.4928 78.4045 93.4493 80.7659 91.5602 80.556C88.9889 80.2411 87.3097 81.9728 85.3682 83.0223C83.8464 83.8094 84.1612 85.646 84.3711 87.1153C84.8959 90.6837 89.8285 92.9401 92.9246 91.1035C93.5543 90.7361 94.0265 90.2114 93.8691 89.4767C93.6592 88.3747 92.8196 89.1619 92.3998 89.2143C90.7731 89.4242 89.4087 88.952 88.5691 87.5352C88.0968 86.748 88.3067 85.856 89.1463 85.2263C90.5632 84.1768 92.0849 83.652 93.6067 84.8065C95.076 85.9609 96.7552 86.853 95.4433 89.5292C94.9186 90.6312 95.076 92.048 93.7642 92.9926C91.5602 94.5143 89.1988 93.9371 85.5255 91.7332C84.4236 91.051 83.6889 89.8441 82.0622 89.8965C81.5374 89.8965 80.383 89.0045 81.7474 88.2698C82.5345 87.85 82.2196 87.2728 82.2721 86.6955C82.3246 84.2817 82.482 81.8679 83.3741 79.5589C84.0038 77.9322 85.6305 77.25 86.4177 75.8332C86.6276 75.4659 87.1523 75.151 86.9424 74.5213C85.5781 74.049 84.0562 74.7837 82.6394 74.154C80.3305 73.157 78.7563 71.4253 77.4444 69.4837C75.9226 67.2273 77.0771 63.2392 79.8058 61.0352C81.59 59.5659 85.1583 59.7234 86.9424 61.3501C87.9394 62.2422 88.779 63.4491 88.2543 64.7085C87.6771 66.0728 86.3652 66.9649 84.7909 67.2273C83.7414 67.3847 83.3741 66.6501 83.1117 65.8105C82.8493 64.8659 83.0592 64.1837 84.1087 64.0263C84.686 63.9214 85.1583 63.7639 85.1058 63.0293C85.0533 62.3996 84.5286 62.1897 84.0038 61.9798C82.0098 61.1927 79.0187 63.8164 79.2811 66.2303C79.7009 69.7986 82.8494 72.055 86.3652 71.3204C90.5107 70.4283 93.4493 68.1718 94.3938 63.8689C94.5513 62.9768 95.6008 62.662 95.1285 61.7174Z" fill="#36372F"/>
<path d="M45.5395 28.0274C44.7524 28.9194 43.9653 29.7066 42.9157 30.2313C42.0237 30.6511 41.7088 30.3887 41.7088 29.3917C41.7613 27.7125 41.7613 26.0333 41.7613 24.3541C41.7613 22.57 42.6534 21.4155 44.2801 20.8383C45.8543 20.261 47.3236 20.366 48.5306 21.6254C49.79 22.9373 51.3117 23.7244 52.9909 24.3541C53.988 24.7214 54.9851 24.7739 55.9296 24.3016C56.7692 23.8818 57.9761 23.567 57.9236 22.57C57.8711 21.7828 56.6117 21.9927 55.8771 21.7303C55.4048 21.5204 54.6177 21.5729 54.5127 20.9957C54.3553 20.2611 55.2474 20.1561 55.6672 19.8412C56.8742 18.8967 58.0286 19.5264 59.0781 20.1036C60.1276 20.6808 60.0751 21.7303 59.8127 22.7799C59.3404 24.669 58.291 25.9808 56.2969 26.1907C53.4632 26.5581 50.6296 27.0303 47.586 26.1907C47.7959 27.8175 49.2652 28.9719 48.688 30.7561C48.4781 31.3333 49.7375 31.858 50.6821 31.0709C52.3613 29.6541 54.2504 28.762 56.2969 28.0274C58.9731 27.0828 61.4394 27.4501 63.9583 28.5521C65.48 29.2343 65.9523 30.7036 66.687 31.963C68.2088 34.7442 67.2117 39.2046 64.7454 41.1986C64.1682 41.6709 63.6434 42.1956 63.0137 42.6154C61.4395 43.6649 59.6553 44.1897 58.0811 42.9828C56.4543 41.7234 55.1424 39.9392 55.2999 37.6303C55.4573 35.5313 56.8741 34.4293 58.7632 33.8521C60.9147 33.2224 62.4889 34.6392 62.1741 36.7382C62.0691 37.4204 61.8068 37.8927 61.1246 38.1026C60.3899 38.365 60.0751 37.8402 59.6029 37.4204C59.0256 36.9481 59.0781 35.2689 57.8712 35.9511C56.8217 36.5283 56.8741 37.9976 57.2939 38.8897C57.7662 39.9917 58.6058 41.1986 60.2325 40.7263C61.7018 40.3065 63.3286 41.1461 64.588 39.4145C66.2147 37.158 65.7949 34.9016 65.0602 32.8026C64.483 31.1759 62.8038 30.2838 60.8622 30.1264C55.2474 29.759 51.4167 33.6947 51.8365 39.4145C51.9415 40.9887 52.4137 42.6154 50.787 43.8224C49.2128 44.9768 48.2157 44.8719 47.4286 43.1402C46.7989 41.7234 46.1168 40.359 46.7465 38.6798C47.0088 37.9451 47.3762 36.6333 46.4841 36.3184C45.4871 36.0036 44.49 37.0006 44.2276 37.9452C43.7029 39.7293 43.2306 41.5659 43.598 43.5075C43.6504 43.9273 43.8603 44.2946 43.8603 44.662C43.8603 45.2392 43.5979 45.7639 42.9682 45.8164C42.3385 45.8689 41.9187 45.6065 41.8662 44.9244C41.7088 41.4085 41.0791 37.7353 43.6504 34.6917C44.6474 33.4848 45.0672 31.963 45.9068 30.6511C46.5365 29.9165 46.2742 28.9194 45.5395 28.0274Z" fill="#36372F"/>
</svg>
