<svg width="104" height="86" viewBox="0 0 104 86" fill="none" xmlns="http://www.w3.org/2000/svg">
<g clip-path="url(#clip0_329_21754)">
<path opacity="0.1" d="M79.0828 22.4154C79.0828 22.4154 80.1191 21.7213 79.2432 18.8768C79.2432 18.8768 78.4309 16.4742 81.4486 14.7319L84.1817 13.824C84.1817 13.824 87.6471 13.3548 88.0228 14.6693C88.0228 14.6693 90.659 17.742 91.0979 29.4537C91.0979 29.4537 93.2611 42.6587 91.2576 43.3368C91.2576 43.3368 83.0748 47.5825 76.0502 48.1922C69.0255 48.802 59.5358 50.452 59.5358 50.452L47.313 53.01L42.6786 54.4412L39.1966 55.8772L35.1288 57.46C35.1288 57.46 31.8734 58.9567 31.586 59.1226L29.7897 60.1597L27.6038 61.5174L24.8236 63.5054C24.8236 63.5054 23.4281 64.4069 24.0802 65.3705C24.0802 65.3705 28.0399 72.5607 28.8855 73.0297C28.8855 73.0297 30.7092 76.1885 29.1423 77.9547C29.1423 77.9547 26.0581 81.0754 22.3276 79.5919C22.3276 79.5919 18.1742 77.8738 17.8014 72.2501L16.7459 68.2648L16.5056 64.8619L15.989 61.8099L15.1077 57.6284L13.8091 52.0606L12.6846 46.2965C12.6846 46.2965 11.759 43.8635 12.5383 43.2222C13.3176 42.5808 15.5727 40.5131 15.5727 40.5131L18.8557 38.2347L21.8127 36.7189L26.5051 34.3927L30.3767 32.636L34.5993 31.1553L40.1484 29.483L46.018 28.2001L51.415 27.0943L57.42 26.2117L64.3093 25.2016L69.3692 24.6733L74.5507 23.6919L77.6651 22.9467L79.0828 22.4154Z" fill="white" stroke="#36372F" stroke-width="0.550684" stroke-miterlimit="10"/>
<path d="M84.6098 13.7499C84.1695 14.0328 83.7755 14.2794 83.3969 14.5363C83.2573 14.6265 82.9818 14.6802 83.1155 14.9285C83.2161 15.1193 83.4038 14.9631 83.5569 14.913C84.2709 14.673 84.9997 14.4916 85.7591 14.5126C86.716 14.544 87.3604 15.378 87.11 16.2884C86.7958 17.4366 86.0184 18.297 85.2244 19.1287C83.4858 20.9461 81.2333 21.8733 78.9239 22.7185C75.0149 24.1617 70.9347 24.7274 66.8293 25.1832C61.6832 25.7613 56.5374 26.4062 51.4443 27.3749C48.9749 27.8434 46.5074 28.282 44.0432 28.7762C41.7147 29.24 39.5042 30.1238 37.2081 30.6933C34.4432 31.3802 31.7555 32.3002 29.2153 33.5754C26.675 34.8505 24.0705 35.9809 21.5084 37.2017C18.473 38.6479 15.6727 40.4848 13.3535 42.9724C13.0114 43.3422 12.5051 43.5771 12.7209 44.2661C13.049 43.9715 13.3947 43.724 13.6547 43.4111C14.9061 41.9612 16.5775 41.0728 18.0946 39.9671C19.58 38.8894 21.2478 38.1275 22.8658 37.2795C27.0854 35.0635 31.4047 33.0866 35.9609 31.6526C39.7875 30.4484 43.6726 29.4784 47.6059 28.6912C53.2693 27.5656 59.0068 26.9332 64.7199 26.1426C67.1601 25.8059 69.6226 25.6573 72.0406 25.1993C75.532 24.5428 78.9764 23.722 82.1768 22.1135C83.8042 21.2984 85.3095 20.3048 86.5603 18.9701C87.1821 18.3048 87.5955 17.5109 87.8719 16.6621C88.2428 15.5291 87.8927 14.707 86.6818 13.7214C87.6426 13.6931 88.0024 13.8683 88.5015 14.6331C89.1268 15.5834 89.4131 16.6434 89.6871 17.7487C90.0187 19.0696 90.2176 20.4098 90.4936 21.7341C91.278 25.5983 91.6232 29.5149 91.95 33.4327C92.1552 35.8125 92.2679 38.198 92.4175 40.5812C92.4388 40.9996 92.4385 41.4305 92.4001 41.8452C92.3348 42.4955 92.0756 43.0089 91.4629 43.3913C89.4525 44.6382 87.2798 45.4714 85.0596 46.2555C82.5261 47.1439 79.9223 47.7283 77.2882 48.177C76.1737 48.3706 75.0277 48.41 73.8975 48.5265C72.7415 48.6483 71.6005 48.8955 70.4404 49.0101C67.969 49.2596 65.5474 49.8441 63.0813 50.1192C61.0286 50.3471 59.019 50.799 56.9997 51.1512C56.0508 51.3162 55.1333 51.6353 54.1874 51.789C50.342 52.4297 46.5312 53.2132 42.8815 54.6408C39.5625 55.9444 36.148 57.016 32.9235 58.533C31.1778 59.359 29.4471 60.3104 27.918 61.5283C27.0165 62.2402 25.9443 62.7061 25.0843 63.4898C24.1115 64.3768 23.9393 65.041 24.6846 66.1327C25.9825 68.0157 26.9982 70.0903 28.4542 71.882C29.3166 72.9443 29.704 74.3288 29.9347 75.641C30.119 76.6737 29.6118 77.7035 28.8496 78.5073C27.1459 80.2855 24.0716 80.5193 21.9965 79.5636C19.9597 78.6242 18.7515 77.0627 18.1873 74.9571C17.5897 72.7272 16.8965 70.5143 16.563 68.2276C16.3578 66.8433 16.355 65.4282 16.1354 64.0522C15.8122 61.9989 15.3563 59.9648 14.8747 57.936C14.3522 55.7202 13.9326 53.4833 13.3772 51.2769C12.915 49.4475 12.5741 47.5959 12.1375 45.7612C12.0831 45.5342 12.0687 45.2936 11.9814 45.076C11.5258 43.8554 12.0039 43.0242 12.9968 42.2882C14.0718 41.4952 14.9844 40.4706 16.1019 39.768C17.0153 39.1928 17.8747 38.5243 18.8439 38.0126C19.6221 37.6016 20.3492 37.0191 21.1224 36.6492C22.178 36.1546 23.1911 35.5697 24.2509 35.0823C26.6345 33.9837 28.913 32.6204 31.4617 31.9242C33.7032 31.3097 35.8302 30.3975 38.0405 29.6958C40.6484 28.8697 43.3499 28.5544 45.9821 27.8866C47.9812 27.3833 49.9692 26.9438 52.0407 26.7817C53.7872 26.654 55.492 26.1387 57.2371 25.9257C60.535 25.5149 63.8338 25.0557 67.1377 24.6223C69.1553 24.3668 71.1879 24.2367 73.1682 23.6677C74.3377 23.337 75.5511 23.1821 76.7435 22.9244C77.5947 22.7393 78.6849 22.6363 79.103 21.9833C79.5272 21.3076 79.1155 20.2627 79.1037 19.3793C79.0992 19.0564 78.9652 18.7413 78.9238 18.4206C78.7799 17.1924 79.3152 16.2611 80.2081 15.468C81.2815 14.5228 82.632 14.1739 83.9004 13.633C84.0947 13.5878 84.2981 13.5087 84.6098 13.7499ZM25.9091 78.4917C27.0664 77.4597 28.2565 75.356 28.0526 74.5548C27.6098 75.4804 27.2163 76.3586 26.5411 77.0642C26.9924 76.2198 27.4252 75.3764 27.6405 74.4385C27.1964 74.781 27.1176 75.3913 26.6028 75.7938C26.6774 75.1764 27.1624 74.772 27.113 74.006C26.5313 74.9066 26.1797 75.7414 25.5093 76.339C25.7898 75.7463 26.0631 75.1578 26.3865 74.4733C25.9065 74.5877 25.8338 74.9264 25.6113 75.1219C25.5334 75.186 25.4303 75.3891 25.3847 75.3102C25.0788 74.7306 24.9978 75.3038 24.9077 75.4132C24.4462 76.0243 23.9051 76.5473 23.2026 77.106C23.4303 76.6874 23.9175 76.5688 23.76 76.0471C23.1656 76.3616 22.7273 76.8635 22.0713 76.9551C22.5267 76.6156 23.007 76.3192 23.3828 75.8916C23.4975 75.7584 23.7078 75.6082 23.5219 75.4189C23.3555 75.2469 23.2494 75.4613 23.117 75.5473C22.802 75.7484 22.4786 75.935 22.1553 76.1217C22.0475 76.1839 21.8052 76.2951 21.8209 76.1233C21.85 75.6758 21.3959 75.8518 21.2478 75.6119C21.4485 75.362 21.7063 75.261 21.9735 75.1929C22.1379 75.3947 21.7931 75.5938 22.0426 75.7273C22.2076 75.814 22.3645 75.7042 22.5052 75.6326C22.7105 75.5236 22.891 75.3715 23.0993 75.2512C23.3251 75.1113 23.4746 74.9388 23.3326 74.6762C23.1729 74.3664 22.9269 74.6041 22.6094 74.7013C22.8863 74.484 23.1862 74.3396 22.9772 74.0773C22.7125 73.7516 22.5442 74.3561 22.2565 74.2063C22.2781 73.945 22.5754 73.9456 22.6736 73.7836C23.0005 73.2216 22.5409 73.305 22.227 73.2757C22.2417 73.0854 22.5818 72.9942 22.3801 72.7278C21.9667 72.7751 21.7163 73.1876 21.0943 73.2883C21.485 72.9862 21.7241 72.8194 21.9465 72.624C22.0634 72.5278 22.2688 72.4188 22.1425 72.2333C22.0121 72.0405 21.8429 72.1956 21.7177 72.2775C21.0404 72.6973 20.4366 73.2277 19.6805 73.5111C19.5932 73.5424 19.5028 73.585 19.5136 73.7032C19.5224 73.8513 19.6316 73.8744 19.7521 73.9006C19.8839 73.9297 20.0035 73.7554 20.2069 73.9251C19.6321 74.0081 19.6528 74.2929 19.8131 74.7364C20.1751 75.6952 20.7216 76.5091 21.3986 77.2669C21.7015 77.609 21.9825 77.8966 22.4711 77.6145C22.5029 77.8355 22.2028 77.913 22.3362 78.0944C22.4614 78.2614 22.6236 78.1774 22.7787 78.0974C22.8834 78.0465 23.0318 77.8555 23.115 78.066C23.4032 78.8472 23.6718 78.3667 23.9401 78.0682C24.4738 77.4825 25.0033 76.8896 25.5297 76.3081C25.3084 77.0198 24.8734 77.5772 24.3218 78.0489C24.2121 78.1409 24.0695 78.2424 24.1709 78.3848C24.3126 78.5806 24.4674 78.4338 24.5801 78.3304C24.7175 78.2033 24.8114 78.0342 24.9488 77.907C25.1989 77.6764 25.3363 77.3004 25.7864 77.1841C25.6703 77.7297 25.2041 77.951 25.0071 78.3232C25.318 78.6128 25.7712 77.7385 25.9472 78.5079C24.9241 79.1752 23.8494 79.0395 22.7811 78.699C21.516 78.2999 20.7619 77.3091 20.1247 76.222C19.8233 75.7164 19.5936 75.1694 19.2358 74.4666C19.131 75.2642 19.417 75.7595 19.629 76.2593C20.2722 77.8215 21.34 79.0238 22.9452 79.5806C24.6834 80.1852 26.3481 79.6836 27.8412 78.7354C28.9516 78.0368 29.545 76.9572 29.5879 75.6211C29.633 74.3219 28.7589 73.1897 27.6663 73.1888C26.481 73.1935 25.4975 73.7135 24.6292 74.4828C24.5195 74.5749 24.412 74.7039 24.5206 74.8423C24.6375 74.9949 24.7635 74.8648 24.8815 74.7871C25.3894 74.4555 25.8849 74.1024 26.4716 73.9073C27.7796 73.468 28.8846 74.2371 28.9191 75.6243C28.9533 76.9446 28.0889 77.6543 27.0985 78.2453C26.7381 78.4342 26.3658 78.7353 25.9091 78.4917ZM17.9838 65.4451C18.1435 65.7549 17.9191 65.9802 17.8111 66.2244C17.6276 66.6367 17.4327 67.0459 17.465 67.6494C18.5185 66.1223 19.1486 64.4758 20.4928 63.336C19.939 64.2684 19.2418 65.1017 18.7075 66.0514C18.1733 67.0012 17.5432 67.901 17.4851 69.0449C18.7307 66.689 19.9929 64.3617 22.031 62.582C21.1574 63.8234 20.1053 64.9381 19.3752 66.2786C18.6481 67.6077 17.9096 68.9339 17.7081 70.4765C18.3575 69.0294 18.9308 67.5498 19.9834 66.3199C19.1195 67.9099 18.339 69.5283 17.9965 71.3246C17.9684 71.4748 17.8128 71.67 18.0537 71.7223C18.272 71.7685 18.2762 71.5268 18.3085 71.3837C18.8298 69.2832 19.9181 67.4679 21.0888 65.6625C22.8586 62.9369 25.3008 61.077 28.093 59.5415C31.0936 57.8857 34.1503 56.3602 37.3065 55.007C40.9844 53.4292 44.8552 52.4675 48.6843 51.3671C51.3151 50.614 53.9783 49.9666 56.6748 49.4435C58.7176 49.049 60.7623 48.6247 62.8208 48.3073C65.9877 47.819 69.1952 47.6997 72.3663 47.2185C76.3692 46.6017 80.4256 46.2603 84.2782 44.8688C84.46 44.8021 84.809 44.8591 84.7668 44.5867C84.7107 44.2075 84.9362 44.2496 85.1581 44.1694C87.4664 43.3057 89.6018 42.159 91.3663 40.4032C91.5139 40.2605 91.7623 40.1267 91.5891 39.7768C89.8066 41.4185 87.7785 42.6182 85.5638 43.4948C87.8042 42.364 89.9235 41.0734 91.5142 39.083C89.5187 40.4553 87.7417 42.1895 85.3038 42.8121C86.3404 42.185 87.464 41.7085 88.4373 40.9551C89.3789 40.2297 90.4226 39.5983 91.0738 38.5524C89.27 40.0245 87.493 41.5099 85.1328 42.0015C87.4171 41.0464 89.4273 39.7327 90.9832 37.7815C90.1389 38.3933 89.3599 39.1016 88.4639 39.6571C86.8188 40.6739 86.2437 40.939 85.5971 40.8145C87.998 39.9453 89.8946 38.5344 91.3165 36.5169C90.3882 37.2156 89.5674 38.0341 88.6154 38.7082C87.6448 39.3834 86.6378 39.9456 85.4429 40.0995C87.9071 39.1075 89.9836 37.6598 91.3384 35.3269C90.5673 36.2316 89.5865 36.9223 88.6718 37.661C87.7643 38.3955 86.7617 39.0318 85.5148 39.0625C86.2673 38.6567 87.0718 38.3742 87.7994 37.9254C88.5629 37.4558 89.2511 36.9054 89.8698 36.2514C90.4435 35.6521 91.0327 35.0631 91.2619 34.232C90.5016 35.006 89.7165 35.7369 88.8755 36.4043C87.7055 37.3478 86.8206 37.8396 86.1413 37.7914C88.2924 36.9707 91.1839 34.2962 91.1809 33.0631C90.4179 33.9152 89.6629 34.7149 88.8159 35.4049C87.168 36.7488 86.7593 36.9369 85.9037 36.7991C86.8466 36.4079 87.6566 35.9689 88.4146 35.4068C89.4651 34.6377 90.1529 33.5226 91.1611 32.73C91.3385 32.5893 91.3097 32.357 91.1724 32.2352C90.9958 32.0787 90.8856 32.286 90.7924 32.4068C90.1557 33.1956 89.4673 33.928 88.6487 34.5346C87.944 35.0564 87.2476 35.5924 86.3346 35.7367C88.3058 34.7039 89.8968 33.278 91.0083 31.3536C89.6232 32.8042 88.358 34.3962 86.312 34.984C87.0479 34.3007 88.0115 33.9453 88.7298 33.2148C89.7012 32.2423 90.3821 31.4472 90.5678 30.823C89.3712 32.0691 88.3274 33.4471 86.6 33.9562C87.4276 33.3156 88.2885 32.7325 89.052 32.0141C90.2133 30.9224 90.7033 30.2279 90.7014 29.5111C89.0883 31.5624 87.6169 32.8139 86.5773 32.9546C87.4752 32.3693 88.2924 31.6773 89.0466 30.926C90.2824 29.7147 90.8498 28.8224 90.7528 28.2562C89.4642 29.8904 88.225 31.5439 86.115 32.1208C87.845 31.2177 89.1057 29.8006 90.2756 28.2924C90.4721 28.0354 90.6138 27.7334 90.7639 27.4457C90.817 27.3385 90.8308 27.1965 90.6937 27.1417C90.6329 27.1193 90.521 27.1744 90.4492 27.2159C90.3312 27.2936 90.2214 27.3856 90.1189 27.4735L90.1416 27.4796C89.9852 26.9764 90.7982 26.775 90.5393 26.1109C89.8887 27.0417 89.2263 27.8357 88.4481 28.4956C87.6627 29.1596 86.8878 29.875 85.8114 30.0849C86.8892 29.4626 87.878 28.7195 88.6963 27.7971C89.6682 26.7095 90.9276 25.7048 90.3982 23.8089C89.8629 24.989 89.0443 25.8445 88.2163 26.6671C86.5491 28.3093 85.9762 28.6114 85.2936 28.5077C86.3753 27.8258 87.3704 27.1268 88.2053 26.2332C89.5954 24.7414 90.0566 24.0635 90.1945 23.3234C88.4037 25.6975 86.4651 27.4006 85.2473 27.4816C86.4596 26.8103 87.3713 26.0829 88.1691 25.1916C89.5548 23.6258 90.0815 22.8622 90.0738 22.2349C87.6502 25.338 86.2816 26.5685 85.0668 26.6381C87.1693 25.5008 88.6578 23.914 89.6856 21.8943C89.1442 22.1016 89.0657 22.7787 88.4627 23.0119C88.9544 21.9719 90.1604 21.2564 89.6348 19.7986C89.1332 20.4232 88.6466 20.9243 88.2765 21.5113C87.8758 22.1447 87.1764 22.4432 86.7436 23.0377C86.4142 23.4959 85.453 23.9551 84.881 23.9599C86.0682 23.4276 86.855 22.6001 87.6603 21.7714C88.8129 20.5986 89.4826 19.5515 89.3566 18.935C88.7201 19.7907 88.229 20.7155 87.3651 21.31C87.3698 21.202 87.4096 21.1216 87.4691 21.0586C88.1624 20.2849 88.666 19.3816 89.1891 18.4957C89.3138 18.2801 89.434 17.7417 89.3312 17.7627C88.7277 17.8623 88.9408 17.3851 88.8319 16.9311C88.3579 18.0184 87.9613 18.9078 87.3111 19.6566C86.668 20.4011 86.0042 21.1098 85.085 21.5256C85.966 20.8447 86.8026 20.1033 87.4078 19.1604C88.3074 17.7317 88.6987 16.5677 88.494 16.0637C88.2762 16.1511 88.308 16.3721 88.2624 16.542C87.9476 17.8054 87.281 18.8411 86.3588 19.766C85.4468 20.6754 84.4074 21.3808 83.2957 21.994C81.8175 22.8187 80.3423 23.6321 78.7448 24.2003C76.0736 25.149 73.2598 25.4526 70.5088 25.9975C67.6622 26.5594 64.7628 26.7975 61.8761 27.1241C59.8234 27.352 57.7823 27.6498 55.7517 27.9989C53.5556 28.3767 51.3235 28.5263 49.1473 28.9882C44.6263 29.952 40.1188 30.9559 35.7326 32.4353C32.719 33.4382 29.7831 34.5589 26.95 35.9074C25.4107 36.643 23.8891 37.4257 22.3518 38.1315C19.2627 39.5512 16.4622 41.3212 14.0118 43.6645C13.4911 44.1565 12.9738 44.7041 12.7833 45.4362C14.3417 44.0866 15.7605 42.5783 17.6416 41.6549C16.0708 42.983 14.285 44.0714 13.2473 45.9245C14.6083 44.8803 15.6662 43.4272 17.3956 42.8882C15.7925 44.1105 14.1253 45.2549 13.1359 47.1088C14.4798 45.6533 15.9406 44.3504 17.777 43.5486C16.9819 44.113 16.1755 44.6743 15.46 45.3266C14.7332 45.976 13.9807 46.6306 13.6214 47.5847C14.3167 47.0301 14.9603 46.4192 15.636 45.8472C16.9197 44.7519 17.2861 44.5404 17.9576 44.459C16.1362 45.635 14.4828 46.8863 13.5597 48.8551C14.417 48.1496 15.0686 47.2373 15.9662 46.5851C17.6691 45.353 18.2934 45.0405 19.0928 45.0479C16.7972 46.2489 14.8097 47.5687 13.7429 49.8693C15.3107 48.0548 17.0224 46.473 19.4045 45.7869C17.2208 46.9328 15.1921 48.2477 14.0678 50.5814C15.325 49.2909 16.6266 48.0608 18.3317 47.3635C16.9322 48.3246 15.6516 49.4086 14.5818 50.725C14.371 50.9903 13.8912 51.4205 14.2018 51.6432C14.532 51.8833 14.7529 51.2867 14.9596 51.0142C16.1264 49.5174 17.6803 48.5915 19.4381 47.9691C18.4538 48.5374 17.486 49.1344 16.6196 49.8739C14.6921 51.5133 14.5928 51.6567 14.5862 52.5412C16.0846 50.872 17.6877 49.4009 19.8559 48.7425C19.018 49.1497 18.2589 49.6933 17.4915 50.2225C16.406 50.9641 15.4166 51.8224 14.7196 52.9715C14.6215 53.1334 14.3941 53.37 14.6107 53.513C14.847 53.6733 14.9423 53.3406 15.0673 53.1919C15.5802 52.5704 16.1603 52.0153 16.7901 51.5464C17.6374 50.9232 18.4554 50.1829 19.7044 49.9403C18.9359 50.4511 18.2718 50.844 17.6564 51.3046C16.6245 52.0727 15.5658 52.8275 14.9183 53.9959C14.811 54.1918 14.5847 54.4469 14.8108 54.6227C15.1039 54.865 15.1846 54.4738 15.3167 54.321C16.4761 53.0103 17.7481 51.8452 19.288 50.9944C19.5723 50.8398 19.8617 50.6441 20.4353 50.7914C18.911 51.4035 17.7777 52.278 16.7322 53.2549C16.1511 53.7914 15.5472 54.3219 15.1509 55.0294C15.0467 55.2139 14.8779 55.4359 15.1058 55.5818C15.3029 55.7074 15.4294 55.462 15.5245 55.3114C16.0634 54.5025 16.7717 53.8543 17.4521 53.1743C18.3047 52.3279 19.3241 51.7872 20.0885 51.767C18.1231 52.9592 16.2898 54.2474 15.3924 56.4598C16.3906 55.5006 17.2326 54.3539 18.5857 53.6111C18.5235 54.0011 18.3303 54.0648 18.1888 54.1848C17.218 55.042 16.246 55.8808 15.6057 57.045C15.4689 57.3058 15.4142 57.5097 15.5479 57.7579L15.5581 57.7425C15.5338 58.3308 15.7037 58.8741 15.946 59.5095C16.7002 58.5093 17.3331 57.5313 18.2354 56.7711C19.1275 56.0263 19.9449 55.1523 21.2175 54.8675C21.1244 55.2371 20.8466 55.2539 20.667 55.3576C19.1131 56.2835 17.7772 57.4376 16.7358 58.9195C16.3216 59.5128 15.8609 60.0755 16.1433 60.9463C16.3328 61.5069 16.4575 61.2914 16.7004 61.065L16.6819 61.0661C16.9491 61.4957 16.3226 61.7713 16.4967 62.3217C17.0723 61.4437 17.6402 60.6851 18.2825 59.9888C19.2976 58.8763 19.9456 58.3394 20.7034 58.2082C20.008 58.7628 19.3904 59.1864 18.907 59.7431C18.4207 60.3111 17.9343 60.8791 17.4562 61.4614C17.0027 62.02 16.7244 62.6497 16.6481 63.3638C17.5167 62.1635 18.3048 60.9235 19.5205 60.059C19.4238 60.3062 19.2878 60.5188 19.1126 60.6965C18.2111 61.6573 17.4376 62.7069 16.889 63.9138C16.7616 64.2076 16.6803 64.4651 16.9114 64.8486C17.4005 63.7047 17.9953 62.7104 18.753 61.8326C20.1713 60.1905 20.6779 59.7736 21.3287 59.6564C18.3578 62.5585 16.9185 64.5956 17.0323 65.7551C17.4007 65.5137 17.3728 64.9842 17.7937 64.7508C17.6682 65.5124 17.1901 66.0947 17.0013 66.9791C17.6259 66.4845 17.7028 65.9041 17.9951 65.4481L17.9838 65.4451ZM91.8347 41.961C91.4619 41.8795 91.371 42.0373 91.2427 42.1305C89.9162 43.0686 88.5472 43.9165 87.0508 44.5603C84.7717 45.5411 82.3819 46.0977 79.9683 46.6297C77.3562 47.1997 74.7146 47.5857 72.0626 47.9204C70.6095 48.1084 69.1314 48.1864 67.6648 48.3344C62.8506 48.807 58.1027 49.6434 53.3816 50.7418C49.859 51.5599 46.3447 52.3924 42.9161 53.5392C40.8683 54.2237 38.8507 54.9769 36.8394 55.7744C33.3326 57.1673 30.089 59.0496 26.8165 60.8815C24.8097 62.0019 23.0172 63.4771 21.6835 65.4149C20.3119 67.4033 18.8641 69.3591 18.5677 71.8658C18.5122 72.367 18.4679 72.8711 18.5613 73.3149C18.7749 72.7226 19.0452 72.1453 19.1837 71.5389C19.8675 68.6745 21.4425 66.3581 23.5621 64.3877C26.4453 61.6989 29.8898 59.8825 33.3798 58.1452C35.729 56.9707 38.1905 56.0569 40.6124 55.0415C43.8468 53.691 47.2376 52.8437 50.6305 52.0334C53.6165 51.3146 56.6413 50.8125 59.6607 50.2179C61.725 49.811 63.8092 49.4884 65.8915 49.1955C71.1368 48.474 76.4169 47.9621 81.5735 46.6888C84.544 45.9597 87.4509 45.0376 90.1 43.4699C90.7414 43.0708 91.3488 42.6627 91.8347 41.961ZM25.0432 67.5338C24.5848 66.6402 24.2521 66.0474 23.9667 65.4368C23.784 65.0541 23.6058 64.9943 23.2974 65.3063C22.9715 65.638 22.5951 65.9319 22.2848 66.2738C21.8177 66.7924 21.5287 67.3039 21.8694 68.0931C22.3117 69.0916 22.6823 70.1316 22.9799 71.1946C23.2429 72.1148 23.6046 73.0068 23.9221 73.9052C23.9793 74.054 23.9956 74.2648 24.1962 74.2638C24.4595 74.2553 24.3197 74.0297 24.3562 73.8938C24.4911 73.4139 24.807 73.1645 25.3198 73.2896C25.4785 73.332 25.5832 73.2811 25.7106 73.2363C26.2346 73.0487 26.7552 72.8055 27.299 72.7021C27.92 72.5829 27.8377 72.3241 27.5738 71.95C26.5367 70.4525 25.7379 68.8365 25.0432 67.5338ZM85.0662 15.4199C84.9759 15.2136 85.3069 15.1565 85.1735 14.9751C85.0483 14.8081 84.8687 14.9118 84.7216 14.9392C84.4019 14.9994 84.0708 15.0565 83.7688 15.1639C83.0846 15.4058 82.4625 15.7554 82.0225 16.354C82.5252 16.2457 82.9323 15.9053 83.6265 15.83C83.4018 15.9884 83.3269 16.0412 83.255 16.0827C82.5426 16.4749 81.8343 16.8743 81.1053 17.2377C80.7049 17.4402 80.7795 17.8183 80.6913 18.1468C80.6548 18.2827 80.7949 18.3263 80.9317 18.3143C81.3565 18.2701 81.7787 18.3709 82.2112 18.2074C83.489 17.6993 84.7191 17.0753 86.0873 16.7736C86.4542 16.6957 86.6579 16.1856 86.5908 15.8702C86.533 15.5877 86.1122 15.8211 85.8571 15.8439C85.746 15.8507 85.6352 15.9242 85.5294 15.9566C84.6332 16.1964 83.7475 16.4876 82.8888 16.8589C83.8746 16.1271 85.0919 15.9124 86.2946 15.3904C85.7773 15.1913 85.4561 15.415 85.0662 15.4199ZM81.7183 15.18C81.6708 15.1308 81.6202 15.093 81.5727 15.0439C80.5223 15.5642 79.693 16.3015 79.314 17.487C79.0551 18.3161 79.3272 18.9535 80.122 19.3178C81.1002 19.7677 82.3432 19.5478 83.1817 18.7766C83.2801 18.6815 83.4238 18.5985 83.3326 18.4406C83.2455 18.2898 83.0811 18.3369 82.9496 18.3745C82.4347 18.5282 81.9315 18.7517 81.4134 18.8499C80.4685 19.022 80.0739 18.6372 80.0958 17.6961C80.1155 16.9669 80.4424 16.4048 80.9445 15.9139C81.2049 15.6679 81.4652 15.4218 81.7183 15.18ZM83.4133 19.0449C82.3081 20.018 81.1046 19.8417 79.8763 19.6224C79.9476 19.945 80.267 19.818 80.2958 20.0503C79.965 20.1743 79.9979 20.1648 80.1031 20.4965C80.2137 20.8539 80.2626 21.2373 79.7364 21.3879C80.0453 21.7073 80.3421 21.5742 80.6331 21.5306C81.2223 21.4393 81.7054 21.0647 82.2467 20.8575C83.2546 20.4957 83.3659 20.307 83.4133 19.0449ZM21.5313 70.2123C21.0839 70.4993 20.7608 70.7528 20.3963 70.9345C19.9127 71.1755 19.9003 71.1539 20.0404 71.6952C20.0456 71.7209 20.0191 71.7745 20.0047 71.7828C19.4374 71.9285 19.4835 72.39 19.4534 72.819C19.4445 72.9199 19.3287 73.0346 19.431 73.1287C19.557 73.2474 19.6894 73.1614 19.8198 73.1052C20.4781 72.8018 21.1073 72.4481 21.6951 72.0225C21.8233 71.9294 22.0168 71.6837 21.919 71.6636C21.3989 71.5427 21.8634 71.1692 21.704 70.9262C21.3832 70.9678 21.1643 71.2856 20.8103 71.2699C20.9322 70.8836 21.4865 70.8316 21.5313 70.2123ZM84.6657 18.3601C84.6308 18.6482 84.0403 18.6541 84.344 18.9478C84.6001 19.1924 84.8281 18.8406 85.0094 18.6402C85.076 18.5731 85.0993 18.4639 85.1628 18.4081C85.5525 18.0874 85.4514 17.514 86.0093 17.0866C85.301 17.2371 84.8127 17.3371 84.4026 17.6888C84.5513 17.8135 84.7284 17.6059 84.8691 17.7832C84.7469 17.8537 84.6248 17.9242 84.5098 17.9906C83.9925 18.2893 84.1461 18.3729 84.6657 18.3601ZM86.3163 44.0846C87.6507 43.8406 88.7072 43.0488 89.7773 42.297C88.5848 42.8035 87.4941 43.5194 86.3163 44.0846ZM27.2057 77.5516C27.7777 77.2979 28.5961 76.1267 28.5438 75.6878C28.5353 75.6066 28.4773 75.5061 28.4123 75.4766C28.3092 75.4308 28.252 75.5308 28.205 75.6154C27.8814 76.233 27.5548 76.8619 27.2057 77.5516ZM81.1603 16.354C81.7186 15.9935 82.1701 15.7136 82.6134 15.4194C82.7242 15.3458 82.8162 15.2066 82.6891 15.0694C82.5899 14.9639 82.4595 15.0201 82.3785 15.0955C81.9994 15.4676 81.4116 15.6442 81.1603 16.354ZM21.1903 69.8539C20.794 70.0636 20.3099 70.1708 20.1474 70.6858C20.5798 70.5223 21.001 70.3557 21.1903 69.8539ZM90.2471 41.9491C90.7597 41.7585 91.1762 41.451 91.4169 40.9387C91.0283 41.2779 90.4878 41.4369 90.2471 41.9491Z" fill="#36372F"/>
<path d="M90.252 24.9658C89.7804 26.4058 87.2109 29.0572 85.5843 29.3262C87.4978 28.2598 88.819 26.5493 90.252 24.9658Z" fill="#36372F"/>
<path d="M16.0607 58.5629C17.0935 56.7509 18.488 55.3332 20.3743 54.4356C18.798 55.6711 17.2175 56.8995 16.0607 58.5629Z" fill="#36372F"/>
<path d="M15.5326 57.7663C16.7488 56.2888 17.9259 54.7764 19.7246 53.8432C19.8031 54.1616 19.6387 54.2087 19.5309 54.2709C18.2326 55.0588 17.2319 56.163 16.287 57.3307C16.0792 57.5847 15.8824 57.7749 15.5387 57.7436C15.5428 57.7508 15.5326 57.7663 15.5326 57.7663Z" fill="#36372F"/>
<path d="M84.5487 22.5536C86.3715 21.4629 87.7616 19.9711 88.6836 17.9839C88.9054 19.148 86.2054 22.1044 84.5487 22.5536Z" fill="#36372F"/>
<path d="M20.5961 56.0494C19.0833 57.2291 17.7483 58.5838 16.6022 60.1165C17.5427 58.377 18.8178 56.9517 20.5961 56.0494Z" fill="#36372F"/>
<path d="M90.1223 27.4808C90.1629 27.6009 90.1624 27.7161 90.0825 27.8101C88.9621 29.0886 87.8976 30.4307 86.336 31.2271C86.1809 31.307 86.0292 31.4425 85.7744 31.2832C86.368 30.7682 87.1233 30.5332 87.6663 29.9804C88.3948 29.2343 89.2534 28.6142 89.8125 27.7075C89.8871 27.5878 89.9927 27.4886 90.1521 27.4827C90.145 27.4868 90.1223 27.4808 90.1223 27.4808Z" fill="#36372F"/>
<path d="M85.0353 24.924C86.4195 24.0195 87.5703 22.8765 88.752 21.7539C87.8505 23.2125 86.5613 24.2152 85.0353 24.924Z" fill="#36372F"/>
<path d="M88.1719 23.3042C87.5956 24.5462 85.7173 25.8892 84.7462 25.684C86.2144 25.1905 87.1507 24.1905 88.1719 23.3042Z" fill="#36372F"/>
<path d="M16.678 61.0776C17.4775 59.5918 18.6788 58.4866 20.0371 57.5205C18.7139 58.5142 17.8597 59.955 16.6667 61.0745C16.6553 61.0715 16.678 61.0776 16.678 61.0776Z" fill="#36372F"/>
<path d="M18.3275 63.868C18.9424 62.776 19.6316 61.7463 20.7246 61.0674C19.929 61.9958 19.1303 62.9355 18.3275 63.868Z" fill="#36372F"/>
<path d="M17.9961 65.4479C18.6887 64.4737 19.1604 63.3494 20.1719 62.6123C19.5531 63.5152 18.9385 64.4252 18.3084 65.325C18.2531 65.3952 18.0978 65.4083 17.9961 65.4479Z" fill="#36372F"/>
<path d="M84.3519 23.4238C85.2277 22.9661 86.0092 22.3617 86.8477 21.8394C86.1521 22.576 85.4161 23.2593 84.3519 23.4238Z" fill="#36372F"/>
</g>
<defs>
<clipPath id="clip0_329_21754">
<rect width="43.8525" height="94.4989" fill="white" transform="translate(81.8379 0.388672) rotate(60)"/>
</clipPath>
</defs>
</svg>
