<svg width="376" height="359" viewBox="0 0 376 359" fill="none" xmlns="http://www.w3.org/2000/svg">
<path d="M39.9769 94.0277C41.5748 95.3111 42.9807 96.4684 44.4058 97.5548C44.9141 97.9611 45.4529 98.9211 46.2181 98.106C46.809 97.4878 45.9946 96.9861 45.6195 96.4783C43.8467 94.1181 42.2751 91.6287 41.4235 88.7672C40.3688 85.155 42.7009 81.6883 46.4146 81.4648C51.0968 81.1769 55.2693 82.9841 59.3546 84.8897C68.2859 89.0672 74.5151 96.2959 80.5071 103.841C90.6966 116.597 97.812 131.108 104.547 145.853C113.014 164.327 121.731 182.716 131.595 200.495C136.373 209.117 141.037 217.77 145.905 226.34C150.493 234.442 156.508 241.569 161.452 249.415C167.41 258.862 174.146 267.725 182.03 275.585C189.913 283.445 197.335 291.729 205.042 299.739C214.172 309.23 224.477 317.346 236.628 322.838C238.431 323.645 239.931 325.236 242.245 323.554C240.74 322.704 239.391 321.729 237.901 321.156C230.942 318.33 225.57 313.221 219.573 308.964C213.72 304.791 208.826 299.534 203.67 294.573C190.208 281.642 177.518 268.033 166.571 252.85C157.376 240.098 148.987 226.83 141.223 213.149C130.073 193.44 120.678 172.827 110.721 152.506C106.472 143.826 102.899 134.823 98.2233 126.38C91.4897 114.182 84.1985 102.369 74.2585 92.4685C69.2143 87.4307 63.6521 83.0757 57.1245 80.1049C53.8729 78.6303 50.3953 78.0971 46.8802 78.1453C42.1853 78.2024 39.5375 80.5552 37.3321 86.3293C36.0493 82.7786 36.2641 81.2127 38.5152 78.3767C41.3059 74.8333 44.9223 72.4161 48.7231 69.9867C53.2608 67.0683 58.0326 64.6207 62.6509 61.9054C76.1519 54.0609 90.3874 47.7887 104.65 41.5842C113.305 37.7902 122.095 34.3346 130.83 30.7437C132.371 30.1319 133.984 29.5847 135.583 29.2006C138.096 28.6168 140.335 28.9312 142.517 30.7317C149.646 36.65 155.426 43.7002 161.08 50.9902C167.508 59.3174 172.885 68.2933 177.791 77.5553C179.88 81.4693 181.432 85.697 183.252 89.7679C185.124 93.928 187.447 97.8728 189.297 102.058C193.258 110.965 198.412 119.261 202.462 128.117C205.83 135.49 209.982 142.416 213.774 149.506C215.554 152.838 217.872 155.857 219.606 159.192C226.714 172.732 234.315 185.96 244.128 197.768C253.072 208.498 261.265 219.881 270.893 229.987C276.122 235.453 281.803 240.703 288.234 244.862C292.003 247.321 295.06 250.731 299.046 252.944C303.558 255.446 306.254 255.244 309.427 251.073C314.885 243.832 321.405 237.401 326.327 229.686C329.246 225.115 333.953 221.908 338.582 219.377C342.221 217.375 346.696 217.958 350.638 219.781C359.38 223.878 364.021 235.057 362.986 244.019C361.965 252.817 357.601 259.314 350.412 264.099C342.798 269.167 335.365 274.57 327.216 278.725C322.287 281.252 316.994 283.063 312.113 285.633C304.824 289.452 297.77 293.742 290.767 298.121C283.114 302.891 275.257 307.303 267.679 312.184C261.399 316.237 254.887 319.866 248.555 323.829C247.772 324.321 246.889 324.681 246.182 325.284C242.172 328.538 238.475 327.811 234.504 325.041C230.22 322.037 225.267 319.934 221.269 316.656C217.997 313.979 214.443 311.621 211.34 308.654C208.849 306.272 205.778 304.299 203.447 301.883C200.303 298.572 196.873 295.534 193.75 292.199C186.719 284.699 178.826 277.928 173.098 269.3C168.053 261.714 162.033 254.935 156.7 247.577C150.414 238.893 145.924 229.21 140.201 220.234C135.868 213.412 131.788 206.55 128.644 199.024C126.027 192.667 122.01 186.958 119.075 180.715C113.498 168.927 107.739 157.197 102.07 145.416C98.6419 138.209 95.6652 130.788 91.1099 124.119C88.44 120.174 86.3737 115.842 83.9485 111.719C82.2132 108.777 80.4925 104.838 77.5364 104.108C74.488 103.384 71.0815 106.251 67.7899 107.419C66.5868 107.846 65.5718 108.747 64.4224 109.31C60.0018 111.41 55.8608 110.597 51.7988 108.273C46.9467 105.469 43.9863 100.871 40.4082 96.8245C40.0013 96.1568 39.4559 95.4982 39.9769 94.0277ZM354.181 230.777C348.902 227.77 339.571 226.004 336.822 227.785C340.828 228.26 344.597 228.612 348.065 230.234C344.352 229.624 340.665 229.081 336.891 229.471C338.717 230.693 341.098 230.211 343.235 231.62C340.833 232.127 338.725 230.831 335.919 231.99C340.002 233.016 343.557 233.266 346.615 235.009C344.053 234.716 341.515 234.444 338.558 234.108C339.574 235.754 340.931 235.595 341.935 236.176C342.27 236.386 343.156 236.512 342.917 236.783C341.122 238.662 343.367 238.235 343.887 238.432C346.739 239.377 349.359 240.732 352.311 242.643C350.465 242.326 349.425 240.658 347.665 241.91C349.57 243.729 351.986 244.726 353.132 247.058C351.303 245.79 349.606 244.375 347.545 243.516C346.906 243.257 346.086 242.663 345.606 243.598C345.166 244.438 346.098 244.561 346.582 244.946C347.72 245.866 348.815 246.836 349.91 247.805C350.275 248.128 350.988 248.891 350.325 249.051C348.615 249.512 349.83 250.983 349.113 251.841C347.932 251.41 347.239 250.576 346.656 249.666C347.21 248.795 348.378 249.829 348.572 248.728C348.694 248.002 348.091 247.555 347.651 247.121C346.991 246.494 346.201 246.013 345.496 245.389C344.695 244.724 343.867 244.385 343.058 245.25C342.094 246.24 343.285 246.856 344.038 247.917C342.885 247.16 341.977 246.225 341.252 247.338C340.357 248.741 342.825 248.6 342.617 249.864C341.613 250.116 341.251 249.006 340.525 248.845C338.021 248.34 338.896 249.949 339.171 251.159C338.44 251.346 337.683 250.192 336.933 251.284C337.616 252.767 339.467 253.177 340.605 255.371C338.996 254.297 338.079 253.616 337.075 253.035C336.572 252.721 335.912 252.093 335.373 252.8C334.811 253.532 335.599 253.967 336.059 254.33C338.459 256.324 341.184 257.903 343.171 260.365C343.395 260.651 343.665 260.934 344.094 260.744C344.638 260.522 344.591 260.085 344.541 259.602C344.489 259.073 343.689 258.848 344.076 257.873C345.09 259.913 346.131 259.474 347.594 258.311C350.739 255.74 353.116 252.664 355.123 249.173C356.032 247.607 356.764 246.192 355.11 244.727C355.898 244.327 356.556 245.349 357.071 244.62C357.543 243.94 357.03 243.441 356.54 242.964C356.222 242.638 355.325 242.327 356.011 241.749C358.582 239.679 356.454 239.288 355.008 238.666C352.163 237.419 349.295 236.197 346.474 234.972C349.409 234.893 352.028 235.807 354.468 237.266C354.947 237.558 355.502 237.962 355.911 237.402C356.47 236.624 355.731 236.233 355.206 235.943C354.562 235.592 353.814 235.457 353.17 235.106C352 234.466 350.425 234.431 349.438 232.899C351.622 232.638 353.021 234.097 354.656 234.359C355.359 232.83 351.531 232.25 354.196 230.614C357.946 233.584 358.754 237.769 358.789 242.19C358.845 247.42 356.06 251.496 352.772 255.257C351.25 257.026 349.484 258.579 347.292 260.809C350.405 260.185 351.908 258.488 353.52 257.061C358.578 252.672 361.77 247.156 361.887 240.456C362.021 233.198 358.104 227.622 352.727 223.255C348.752 219.999 343.985 219.157 338.932 220.697C334.014 222.182 330.848 226.885 332.183 230.965C333.652 235.383 336.803 238.393 340.746 240.656C341.225 240.948 341.839 241.185 342.224 240.604C342.652 239.973 342.011 239.668 341.575 239.327C339.712 237.852 337.784 236.452 336.335 234.51C333.089 230.187 334.614 225.083 339.763 223.189C344.663 221.382 348.377 223.706 351.802 226.651C352.951 227.756 354.534 228.762 354.181 230.777ZM315.062 276.961C316.025 275.971 317.143 276.522 318.19 276.614C319.958 276.775 321.728 276.982 323.947 276.093C316.941 274.104 310.007 273.846 304.095 270.279C308.263 271.16 312.236 272.702 316.445 273.488C320.653 274.274 324.793 275.481 329.145 274.242C318.802 272.59 308.546 270.84 299.389 265.496C305.105 267.178 310.566 269.687 316.477 270.707C322.342 271.73 328.21 272.799 334.23 271.589C328.018 271.006 321.779 270.748 315.886 268.384C322.895 269.586 329.908 270.44 337.05 269.433C337.647 269.347 338.568 269.68 338.469 268.713C338.375 267.84 337.465 268.132 336.89 268.193C328.39 268.92 320.263 267.167 312.072 265.094C299.703 261.955 289.751 255.206 280.584 246.736C270.712 237.642 261.258 228.172 252.328 218.113C241.917 206.391 233.576 193.165 224.768 180.272C218.727 171.409 213.042 162.292 207.781 152.891C203.802 145.768 199.71 138.675 196 131.395C190.293 120.194 185.918 108.373 180.233 97.1478C173.021 82.9903 166.774 68.2823 156.847 55.6716C156.375 55.0777 156.161 53.7024 155.193 54.2067C153.843 54.8985 153.724 54.0032 153.152 53.2769C147.092 45.7591 140.185 39.247 131.452 34.8942C130.737 34.5248 129.932 33.7677 128.835 34.8596C137.163 39.4246 144.137 45.469 150.13 52.6208C143.154 45.6964 135.728 39.4273 126.33 36.0218C133.91 41.725 142.577 46.1516 147.894 54.4599C144.277 51.3884 141.117 47.8002 137.106 45.1255C133.237 42.5339 129.596 39.4409 124.884 38.3412C132.603 43.2013 140.338 47.9446 145.07 56.1297C138.697 48.8179 131.318 42.9856 122.109 39.6602C125.434 42.0333 129.038 44.0402 132.215 46.6778C138.036 51.5251 139.732 53.3346 140.059 55.9067C133.864 48.0504 126.261 42.7657 116.969 40.0249C120.72 42.6011 124.789 44.6236 128.478 47.3197C132.194 50.0836 135.532 53.1273 137.571 57.392C130.84 49.4556 122.878 43.5462 112.488 41.4573C116.818 43.1845 120.605 45.9668 124.49 48.4415C128.351 50.8947 131.96 53.8277 133.602 58.4431C131.162 56.1503 129.119 53.5069 126.548 51.3618C123.855 49.109 120.952 47.2406 117.747 45.763C114.801 44.3838 111.875 42.9339 108.484 43.136C112.312 44.9892 116.009 46.99 119.537 49.28C124.502 52.4473 127.426 55.1247 128.078 57.7216C122.371 50.7361 108.82 43.3453 104.208 44.9253C108.332 46.6894 112.25 48.4903 115.87 50.7742C122.918 55.2157 124.123 56.5021 124.655 59.8711C122.036 56.8492 119.401 54.384 116.369 52.2696C112.203 49.3271 107.187 48.1781 102.986 45.4234C102.242 44.9401 101.408 45.3429 101.121 46.0105C100.751 46.8687 101.662 47.0167 102.228 47.2106C105.96 48.5839 109.545 50.2217 112.818 52.5054C115.633 54.4722 118.493 56.3897 120.151 59.6145C113.871 53.5702 106.586 49.4455 98.0221 47.7448C105.148 51.0695 112.655 53.7668 117.362 60.6566C113.903 58.7789 111.393 55.6339 107.779 53.8823C102.949 51.4935 99.1392 49.9633 96.5759 50.0641C102.705 52.9456 109.141 55.0887 113.162 60.8893C109.751 58.6147 106.514 56.1432 102.89 54.207C97.3822 51.2611 94.1828 50.3157 91.5024 51.2348C101.155 54.6465 107.641 58.5464 109.442 62.248C106.151 59.6412 102.56 57.4712 98.8247 55.6118C92.7776 52.5397 88.743 51.5571 86.7427 52.6395C94.4374 55.3706 102.144 57.8926 106.887 65.0347C101.388 59.726 94.5403 56.8228 87.4629 54.3749C86.2603 53.9684 84.9564 53.8234 83.696 53.6292C83.2297 53.5676 82.6814 53.6966 82.6439 54.2781C82.6348 54.5335 82.9779 54.8812 83.2212 55.0966C83.6565 55.4383 84.1354 55.7307 84.59 56.0016L84.585 55.9093C82.8933 57.1333 81.1438 54.3546 78.9753 56.1661C83.2557 57.4102 87.0389 58.8727 90.4619 60.9381C93.9091 63.025 97.5358 65.0074 99.6396 68.7584C95.9906 65.5269 91.998 62.7814 87.5438 60.9003C82.2827 58.656 76.9801 55.2333 70.5329 59.6217C75.6053 60.1185 79.8097 62.0857 83.9026 64.1297C92.091 68.2639 93.9231 70.0181 94.3712 72.698C90.4941 69.528 86.6591 66.7026 82.2921 64.723C75.0064 61.4321 71.9043 60.5728 68.9654 60.9996C80.044 64.6639 88.7928 69.7336 90.5876 74.1767C86.5904 70.5052 82.7513 68.0274 78.438 66.1833C70.8806 63.003 67.3777 62.0083 65.0394 62.8352C79.6219 67.9342 85.9032 71.4772 87.6518 75.9234C80.82 69.5221 73.0579 65.9849 64.2403 64.7179C65.6791 66.475 68.3093 65.9066 69.921 67.8607C65.4262 67.3487 61.2715 63.7571 56.4591 67.5738C59.4112 68.6514 61.8829 69.8305 64.5329 70.465C67.3943 71.155 69.3683 73.3861 72.1232 74.2453C74.2416 74.8919 77.1375 77.8955 77.8562 80.0247C74.4099 76.2703 70.349 74.3863 66.2611 72.4345C60.4598 69.6239 55.7208 68.4565 53.568 69.7112C57.5499 70.9983 61.6128 71.6548 64.8959 74.1232C64.4859 74.2431 64.1362 74.1968 63.8276 74.0552C60.0829 72.4512 56.0853 71.7209 52.1288 70.8952C51.1694 70.7042 49.0069 70.9405 49.2117 71.2974C50.3237 73.4237 48.2768 73.2354 46.7108 74.2195C51.3606 74.6054 55.1752 74.9541 58.774 76.4289C62.3484 77.8821 65.8139 79.4583 68.4959 82.3603C64.8683 79.9379 61.0688 77.7586 56.7985 76.699C50.3496 75.1589 45.5138 75.179 43.8785 76.5846C44.4724 77.2862 45.2605 76.8865 45.9523 76.8405C51.0662 76.4082 55.7591 77.5787 60.3502 79.8443C64.8709 82.0916 68.7839 85.0739 72.4405 88.4438C77.3378 92.9125 82.1889 97.3841 86.2723 102.625C93.0951 111.389 97.6778 121.506 103.087 131.082C108.677 140.993 113.12 151.513 117.878 161.874C121.245 169.246 124.86 176.486 128.654 183.622C132.758 191.339 136.052 199.481 140.446 207.017C149.592 222.667 158.87 238.216 169.78 252.707C177.224 262.68 185.015 272.214 193.532 281.074C198.171 285.884 202.964 290.568 207.488 295.408C216.586 305.133 226.641 313.335 238.412 319.501C240.891 320.818 243.574 322.053 246.548 321.832C239.588 317.732 232.205 314.355 226.445 308.508C233.339 312.682 239.6 317.963 247.807 319.479C242.232 315.727 235.497 313.627 231.362 307.857C237.9 312.286 244.225 317.054 252.376 318.388C245.282 315.223 238.616 311.428 233.366 305.593C236.452 307.843 239.541 310.139 242.859 311.98C246.179 313.867 249.551 315.843 253.562 315.97C250.635 314.08 247.56 312.455 244.591 310.66C238.92 307.262 237.679 306.164 236.552 303.76C243.185 309.063 249.893 313.643 258.392 314.584C254.701 312.282 250.489 311.01 246.948 308.489C240.252 303.7 238.317 301.767 237.366 298.773C244.672 305.815 252.046 311.555 261.963 312.61C253.252 309.066 245.235 304.689 239.75 296.67C246.713 303.363 254.119 309.263 264.231 310.491C257.861 307.44 251.662 304.146 246.964 298.669C252.276 302.67 257.901 306.071 264.138 308.389C265.389 308.839 267.587 310.083 268.04 308.64C268.534 307.102 266.031 307.036 264.758 306.611C257.727 304.16 252.358 299.538 247.875 293.768C251.208 296.719 254.628 299.572 258.457 301.865C266.953 306.975 267.612 307.163 270.93 306.062C262.848 302.593 255.378 298.48 250.258 291.224C252.808 293.834 255.773 295.976 258.693 298.167C262.798 301.276 267.223 303.877 272.377 305.017C273.103 305.177 274.267 305.725 274.537 304.734C274.847 303.648 273.486 303.716 272.776 303.439C269.822 302.315 267.034 300.856 264.507 299.101C261.137 296.731 257.364 294.62 254.927 290.266C257.779 292.485 260.064 294.464 262.541 296.175C266.68 299.05 270.802 302.041 275.967 302.972C276.832 303.123 278.064 303.643 278.445 302.576C278.993 301.173 277.43 301.369 276.696 301.071C270.371 298.411 264.452 295.145 259.382 290.479C258.455 289.614 257.368 288.783 257.217 286.454C261.375 291.366 266.036 294.484 270.972 297.143C273.692 298.63 276.417 300.209 279.55 300.788C280.369 300.943 281.406 301.29 281.673 300.254C281.902 299.359 280.828 299.198 280.148 299.035C276.461 298.053 273.167 296.233 269.789 294.559C265.577 292.453 262.304 289.336 261.293 286.508C268.162 292.328 275.229 297.532 284.608 298.067C279.795 295.561 274.473 293.877 270.035 289.772C271.571 289.507 272.046 290.147 272.668 290.523C277.066 293.056 281.395 295.617 286.537 296.526C287.681 296.705 288.511 296.65 289.276 295.835L289.205 295.816C291.437 295.159 293.262 293.833 295.344 292.12C290.676 290.577 286.241 289.459 282.291 287.058C278.41 284.676 274.138 282.737 271.513 278.349C273.011 278.226 273.414 279.241 274.022 279.78C279.391 284.402 285.347 287.921 292.168 289.923C294.896 290.714 297.566 291.718 300.479 289.556C302.345 288.135 301.386 287.944 300.241 287.325L300.268 287.393C301.548 285.849 303.347 287.837 305.194 286.487C301.203 285.455 297.668 284.3 294.275 282.788C288.868 280.415 286.065 278.679 284.646 276.017C287.573 277.907 289.915 279.674 292.591 280.77C295.312 281.863 298.034 282.956 300.799 283.999C303.445 284.982 306.142 285.219 308.908 284.596C303.353 282.88 297.746 281.516 293.021 278.078C294.065 278.124 295.027 278.361 295.907 278.789C300.607 280.932 305.483 282.484 310.672 282.996C311.927 283.098 312.991 283.074 314.143 281.724C309.263 281.353 304.813 280.398 300.599 278.686C292.717 275.481 290.536 274.121 289.3 271.841C303.8 279.238 313.187 282.019 317.387 280.118C316.033 279.051 314.085 279.828 312.696 278.554C315.7 278.054 318.465 279.097 322.006 278.677C319.39 276.975 317.124 277.426 315.059 276.915L315.062 276.961ZM136.709 31.1638C136.86 32.6591 137.562 32.7977 138.068 33.1578C143.204 36.9158 148.054 40.9476 152.297 45.7144C158.759 52.974 163.769 61.1869 168.717 69.5197C174.05 78.5449 178.73 87.9145 183.231 97.3886C185.715 102.573 187.818 107.992 190.168 113.278C197.834 130.648 206.78 147.307 216.674 163.533C224.051 175.641 231.471 187.701 239.963 199.04C245.033 205.813 250.324 212.386 255.772 218.88C265.281 230.198 276.298 239.911 287.163 249.796C293.814 255.862 301.531 260.676 310.417 263.189C319.539 265.779 328.632 268.695 338.377 266.612C340.32 266.182 342.261 265.706 343.808 264.792C341.329 264.749 338.838 264.474 336.398 264.729C324.841 265.821 314.242 262.889 304.271 257.483C290.676 250.142 279.66 239.595 268.882 228.778C261.609 221.503 255.174 213.477 248.407 205.728C239.391 195.373 232.066 183.793 224.878 172.159C218.53 161.927 212.945 151.274 207.022 140.76C202.97 133.572 199.21 126.202 195.563 118.802C186.437 100.14 178.054 81.0811 166.972 63.4521C160.605 53.2914 153.593 43.6135 144.481 35.7194C142.201 33.8328 139.93 32.0846 136.709 31.1638ZM314.231 247.952C311.449 250.8 309.638 252.796 307.702 254.638C306.494 255.807 306.488 256.549 308.034 257.303C309.674 258.097 311.235 259.128 312.895 259.852C315.408 260.935 317.676 261.364 320.212 259.088C323.408 256.166 326.846 253.459 330.46 250.996C333.582 248.843 336.477 246.358 339.45 244.03C339.937 243.627 340.706 243.298 340.456 242.551C340.102 241.578 339.429 242.387 338.876 242.424C336.915 242.531 335.594 241.669 335.434 239.596C335.399 238.95 335.08 238.623 334.756 238.205C333.412 236.488 331.864 234.854 330.811 232.955C329.604 230.789 328.737 231.425 327.66 232.886C323.325 238.663 318.256 243.701 314.231 247.952ZM45.668 90.199C45.0066 90.7988 44.3873 89.6356 43.8719 90.3646C43.4001 91.0444 44.0083 91.583 44.2911 92.0969C44.9079 93.2139 45.5272 94.377 46.2991 95.3679C48.0425 97.6143 50.1128 99.4916 52.8921 100.372C51.8709 98.6338 50.0986 97.5472 48.9663 95.0518C49.8345 95.6889 50.1239 95.9012 50.3671 96.1167C52.7076 98.2771 55.0698 100.413 57.323 102.672C58.5713 103.909 59.895 103.149 61.2324 103.061C61.7858 103.024 61.7772 102.445 61.5648 101.95C60.8791 100.421 60.7392 98.7163 59.5973 97.31C56.1307 93.1863 52.2886 89.3887 49.4834 84.6653C48.7424 83.3945 46.584 83.2831 45.4858 83.935C44.4991 84.5101 45.8882 85.7842 46.2861 86.7073C46.4473 87.1134 46.8583 87.4335 47.1092 87.7874C49.1045 90.8276 51.2793 93.7633 53.7206 96.4961C49.7741 93.7475 47.4797 89.4765 44.0526 85.6513C43.9412 87.8357 45.1717 88.7498 45.668 90.199ZM48.8708 103.002C48.7452 103.242 48.6656 103.478 48.5399 103.718C51.7739 106.977 55.549 109.135 60.4502 109.041C63.8705 108.953 65.9224 107.126 66.3125 103.696C66.7978 99.4718 64.4523 95.1116 60.5388 92.963C60.0624 92.7167 59.5758 92.2859 59.0964 92.8272C58.6388 93.344 59.0164 93.8979 59.3185 94.341C60.5242 96.0673 61.9772 97.6614 62.9792 99.4707C64.781 102.779 63.8242 104.741 60.2752 105.857C57.5219 106.711 55.0178 106.206 52.5654 104.956C51.3258 104.298 50.0861 103.639 48.8708 103.002ZM61.2594 91.7572C66.2549 94.6445 67.0695 99.3611 67.7533 104.225C68.8733 103.549 68.0067 102.518 68.8408 102.115C69.71 103.192 69.6345 103.081 70.7468 102.266C71.9489 101.399 73.3238 100.729 74.5321 102.501C75.3489 100.942 74.4874 100.003 73.9679 98.9724C72.9045 96.8892 70.9108 95.5626 69.4719 93.8055C66.8837 90.5036 66.0409 90.3279 61.2594 91.7572ZM328.558 257.653C330.18 258.958 331.524 259.842 332.651 260.971C334.145 262.47 334.08 262.544 335.934 261.332C336.024 261.28 336.257 261.311 336.306 261.354C337.546 263.286 339.217 262.527 340.859 262.093C341.247 261.998 341.818 262.284 342.046 261.783C342.335 261.162 341.851 260.777 341.481 260.361C339.539 258.29 337.445 256.391 335.132 254.739C334.626 254.378 333.47 253.969 333.514 254.36C333.699 256.455 331.732 255.196 331.018 256.1C331.567 257.245 333.024 257.658 333.399 258.999C331.804 259.036 330.93 257.033 328.558 257.653ZM57.1623 87.9533C58.2833 87.7168 59.0289 89.9137 59.7561 88.4063C60.3576 87.139 58.7617 86.7355 57.7897 86.3137C57.4567 86.1505 57.0199 86.2027 56.733 86.0365C55.0555 84.99 53.0335 86.097 50.7503 84.558C52.1811 87.0105 53.1537 88.706 54.9721 89.7894C55.2569 89.0757 54.263 88.6786 54.7541 87.928C55.1676 88.2943 55.5812 88.6605 55.9704 89.0052C57.7219 90.5563 57.8466 89.8764 57.1623 87.9533ZM151.416 49.0615C148.868 44.3905 144.61 41.4542 140.486 38.4164C143.843 42.2231 147.858 45.384 151.416 49.0615ZM349.075 227.133C347.425 225.321 342.039 223.756 340.46 224.51C340.167 224.645 339.862 224.989 339.831 225.269C339.786 225.712 340.23 225.799 340.604 225.866C343.312 226.289 346.066 226.708 349.075 227.133ZM53.9484 103.591C51.9151 101.966 50.3146 100.636 48.6705 99.3558C48.2595 99.0358 47.6255 98.8694 47.2677 99.5185C46.9946 100.023 47.3646 100.438 47.7462 100.645C49.6031 101.587 50.9842 103.556 53.9484 103.591ZM327.634 259.382C328.904 260.595 329.899 262.266 332.025 262.217C330.883 260.811 329.744 259.45 327.634 259.382ZM138.609 37.1053C137.267 35.4343 135.607 34.2708 133.394 34.0241C135.14 35.0429 136.397 36.8585 138.609 37.1053Z" fill="#C79F79"/>
<path d="M75.0391 58.6973C81.006 58.6251 94.0763 64.8436 97.0757 70.5731C90.7406 64.7873 82.7206 62.0314 75.0391 58.6973Z" fill="#C79F79"/>
<path d="M291.663 292.898C283.616 291.348 276.602 287.946 270.932 282.047C277.487 286.359 284.02 290.696 291.663 292.898Z" fill="#C79F79"/>
<path d="M289.324 295.877C282.305 293.217 275.203 290.747 269.507 285.22C270.603 284.522 270.98 285.076 271.345 285.399C275.884 289.243 281.242 291.573 286.77 293.615C287.975 294.067 288.928 294.56 289.232 295.883C289.254 295.858 289.324 295.877 289.324 295.877Z" fill="#C79F79"/>
<path d="M72.9993 83.0573C66.6845 77.6406 59.3988 74.3497 50.832 73.4365C54.9172 71.1272 69.2889 77.4445 72.9993 83.0573Z" fill="#C79F79"/>
<path d="M276.695 279.164C282.963 283.31 289.668 286.57 296.809 288.898C289.147 287.6 282.25 284.654 276.695 279.164Z" fill="#C79F79"/>
<path d="M84.6101 55.9757C85.0099 55.6713 85.4417 55.5268 85.8912 55.7054C92.0488 58.2607 98.3756 60.5269 103.269 65.3432C103.758 65.8202 104.451 66.2142 104.167 67.3679C101.512 65.8073 99.7076 63.287 96.9734 61.9633C93.289 60.1932 89.9162 57.7771 85.8381 56.8437C85.2988 56.7174 84.7981 56.4496 84.5807 55.8619C84.605 55.8834 84.6101 55.9757 84.6101 55.9757Z" fill="#C79F79"/>
<path d="M81.2723 78.2224C76.1915 74.206 70.5042 71.3647 64.8555 68.3818C71.4184 69.8913 76.7505 73.4278 81.2723 78.2224Z" fill="#C79F79"/>
<path d="M71.3711 68.5747C76.7253 69.1454 84.0522 74.4485 84.474 78.3344C80.8285 73.4815 75.9389 71.2588 71.3711 68.5747Z" fill="#C79F79"/>
<path d="M300.312 287.389C293.772 286.295 288.164 283.217 282.885 279.375C288.224 283.05 294.663 284.406 300.315 287.435C300.317 287.481 300.312 287.389 300.312 287.389Z" fill="#C79F79"/>
<path d="M308.736 277.683C303.896 276.777 299.198 275.514 295.318 272.298C299.768 274.087 304.263 275.873 308.736 277.683Z" fill="#C79F79"/>
<path d="M315.059 276.915C310.565 275.569 305.779 275.239 301.781 272.401C305.918 273.562 310.077 274.698 314.216 275.906C314.547 276.023 314.786 276.586 315.059 276.915Z" fill="#C79F79"/>
<path d="M76.5008 82.687C73.7149 80.0003 70.4957 77.8519 67.5137 75.3867C71.1226 77.046 74.5815 78.9238 76.5008 82.687Z" fill="#C79F79"/>
<path d="M113.34 251.522L171.442 277.604L190.775 266.167L203.295 259.364L209.002 257.193L215.865 253.766L229.219 243.787L244.984 233.707L270.637 217.417L293.878 201.228L305.464 195.188L314.246 191.439L319.461 189.047L324.354 184.736L346.882 168.818L343.555 164.367L340.159 164.025L338.089 160.729L331.487 153.033L326.482 143.095L329.848 136.915L327.064 133.891L324.873 133.499L318.744 131.339L312.614 129.179L304.736 125.642L291.492 120.88L274.037 113.636L260.25 107.447L257.024 105.408L242.795 100.204L228.516 93.7935L207.836 84.51L202.741 83.9979L194.23 88.4599L177.158 96.1783L171.501 99.5549L151.897 110.278L129.932 122.307L123.22 129.352L102.19 140.617L39.9617 177.761L30.3961 185.89L27.5226 192.291L29.8947 202.822L36.206 215.121L45.2199 222.717L113.34 251.522Z" fill="#C79F79"/>
<path d="M206.288 250.06C208.361 234.899 197.163 228.215 191.304 226.769L160.557 242.547L157.552 240.015L146.227 234.931L123.577 224.764L105.359 216.585L83.2015 206.639L61.9785 195.928L44.7448 188.192L40.1426 187.901L36.8073 200.603L36.0041 210.299L50.9267 220.548L62.7441 225.853L93.7646 239.778L168.507 270.964L206.288 250.06Z" fill="white"/>
<path d="M241.846 193.254L204.437 217.282L206.457 219.372L207.372 223.924L206.045 226.879L210.628 232.485L220.406 241.016L224.415 238.674L236.935 231.871L247.757 224.896L262.588 215.581L282.091 202.446L300.66 190.075L303.071 189.974L305.332 186.256L302.196 174.791L298.548 168.421L296.036 166.11L293.946 168.13L290.499 166.582L288.157 162.573L270.302 174.673L257.832 182.682L241.846 193.254Z" fill="white"/>
<path d="M338.069 166.047L317.088 178.518L304.647 164.059L302.105 155.226L308.475 151.578L323.085 142.755L326.21 142.383L329.466 150.945L337.867 161.224L338.069 166.047Z" fill="white"/>
<path d="M56.8453 175.965C55.6119 176.855 55.6769 177.464 57.0164 178.279C59.5446 179.831 61.6328 178.372 63.7056 177.345C64.8962 176.721 65.9069 175.523 67.1881 177.037C67.8287 177.794 66.667 180.6 65.4234 181.216C64.894 181.457 64.3373 181.53 63.5116 182.595C66.6429 182.774 68.4584 185.027 71.009 185.765C72.0984 186.105 73.2392 186.126 74.2602 185.202C75.2196 184.322 76.5626 184.104 77.347 185.319C78.0869 186.473 77.1361 187.3 76.122 187.843C76.833 186.815 76.475 185.995 75.4044 185.877C74.44 185.775 73.1878 186.444 73.1928 187.425C73.1808 188.512 74.313 188.586 75.2569 188.139C75.1077 190.075 76.4609 190.13 77.8587 190.247C79.8406 190.458 81.8825 190.298 83.6399 191.562C84.5717 192.202 85.053 192.933 84.6434 194.119C84.2082 195.464 83.189 195.028 82.348 194.837C80.3559 194.352 78.3278 193.752 77.098 191.921C76.7058 191.313 76.281 191.244 75.7054 191.097C74.5012 190.794 73.1223 190.897 72.3464 189.629C71.5706 188.36 70.9468 190.873 70.3131 189.736C69.938 189.022 70.1968 187.757 69.7087 187.406C67.7646 185.949 66.0038 184.032 63.3333 184.036C62.8468 184.012 62.5727 184.022 62.297 183.705C61.8345 183.195 61.3001 182.455 60.7194 183.015C60.2089 183.477 60.2842 184.36 60.8185 185.099C61.2639 185.716 61.5327 186.412 61.9164 187.073C62.211 187.611 62.6358 187.679 63.1377 187.27C63.3844 187.093 63.0848 185.574 64.0285 186.815C64.4824 187.379 65.0339 188.012 64.4634 188.846C63.9717 189.528 63.4133 189.275 62.9252 188.924C61.1506 187.766 59.5251 186.36 59.8046 183.956C59.9983 182.082 59.1077 180.849 57.4444 180.689C55.2415 180.497 53.3917 178.456 50.9917 179.484C50.7622 179.555 50.2209 179.196 49.9983 178.888C49.207 178.052 48.6521 176.765 47.2474 177.028C45.0565 177.436 42.5419 176.812 40.6677 178.633C39.8934 179.379 38.1616 179.643 38.379 180.658C38.677 181.85 40.2924 181.294 41.3544 181.465C46.3373 182.325 50.7446 184.724 55.169 187.018C61.1007 190.099 67.0325 193.18 72.8854 196.412C78.6852 199.635 85.0093 201.637 91.0542 204.355C97.3028 207.161 103.307 210.471 109.476 213.428C112.26 214.748 115.096 216.078 117.984 217.089C121.395 218.238 124.569 219.84 127.892 221.193C133.156 223.35 138.411 225.56 143.604 227.814C146.556 229.107 149.701 230.214 152.354 232.004C157.314 235.363 161.927 234.802 166.847 232.004C171.344 229.464 176.038 227.391 180.66 225.089C181.127 224.892 181.559 224.581 181.973 224.376C183.464 223.582 183.407 222.92 181.407 222.488C183.462 221.568 185.384 222.15 187.149 221.347C188.322 220.828 189.91 221.793 191.011 222.733C193.08 224.428 195.694 225.449 197.025 228.005C197.525 228.956 198.666 228.977 199.351 228.108C200.309 226.902 200.869 227.482 200.98 228.48C201.437 231.385 203.587 233.256 204.943 235.653C205.622 236.851 205.678 237.514 204.364 238.227C199.4 240.964 194.48 243.762 189.515 246.499C189.154 246.712 188.534 246.503 188.039 246.532L188.083 246.594C188.529 245.523 189.587 245.04 190.487 244.532C194.093 242.447 197.735 240.477 201.377 238.507C202.691 237.793 202.691 237.793 203.29 235.767C197.815 238.966 192.926 242.586 187.234 244.769C187.803 243.609 188.745 242.836 189.918 242.317C193.324 240.799 196.265 238.443 199.501 236.625C200.162 236.242 201.469 235.909 201.089 234.214C199.45 235.256 198.04 236.226 196.541 237.072C194.681 238.133 193.045 239.828 190.648 239.822C190.676 238.302 192.658 238.514 192.925 237.196C191.755 236.68 191.041 238.742 189.54 237.575C191.709 236.292 193.701 235.089 195.747 233.895C196.108 233.682 196.62 233.547 196.476 233.088C196.322 232.355 195.661 232.738 195.228 232.723C194.255 232.674 193.741 234.17 192.526 233.593C192.975 233.175 193.326 232.688 193.802 232.438C194.649 231.922 196.009 231.597 195.171 230.373C194.414 229.325 193.349 230.187 192.6 230.774C190.054 232.704 187.214 234.096 184.499 235.726C183.891 236.118 183.293 236.783 182.493 236.001L182.44 235.992C182.745 235.116 183.468 234.688 184.235 234.322C187.12 232.992 189.702 231.177 192.372 229.485C193.166 228.96 193.172 228.58 193.01 227.901C192.767 227.045 192.027 227.578 191.496 227.493C191.177 227.441 190.79 227.814 190.481 228.037C186.576 230.291 182.795 232.783 178.773 234.747C172.678 237.736 166.841 241.149 160.844 244.208C160.068 244.627 160.071 245.281 160.455 245.942C160.928 246.726 161.806 247.358 162.058 248.161C162.642 249.943 163.312 249.506 164.715 248.916C167.697 247.656 170.188 245.391 173.475 244.942C170.258 246.981 167.041 249.02 163.762 251.103C165.717 251.147 167.541 251.659 169.252 250.847C167.326 254.673 164.615 255.27 160.608 253.425C155.848 251.186 150.966 249.363 146.031 247.532C139.245 245.02 132.607 242.26 126.049 239.35C123.452 238.223 120.602 237.654 118.25 236.022C117.806 235.732 117.277 235.974 116.809 236.17C115.12 234.482 112.94 233.476 110.795 232.586C104.867 230.158 98.8255 228.094 93.3254 224.701C93.9729 225.078 94.7403 224.712 95.5026 225.053C101.237 227.667 106.972 230.281 112.952 232.39C119.348 234.62 125.333 237.71 131.554 240.348C140.593 244.095 149.858 247.116 158.88 250.968C159.598 251.247 160.317 251.854 161.54 250.69C148.896 245.654 136.263 241.218 124.374 235.214C127.209 236.217 130.061 237.113 132.825 238.213C138.762 240.587 144.665 243.174 150.698 245.291C153.17 246.181 155.52 247.486 158.209 247.702C158.642 247.718 159.345 248.43 159.675 247.395C159.919 246.563 159.465 246 158.845 245.791C157.764 245.398 156.613 245.104 155.515 244.817C148.555 243.04 142.039 239.864 135.21 237.618C132.109 236.573 128.903 235.511 126.116 233.536C129.711 234.552 133.141 235.923 136.649 237.143C143.089 239.435 149.451 241.878 156.126 243.392C156.702 243.539 157.581 244.171 157.841 243.233C158.172 242.198 157.137 242.194 156.411 241.968C149.299 239.785 142.247 237.23 135.361 234.322C130.513 232.287 125.553 230.614 121.055 227.765C123.801 228.644 126.459 229.726 129.126 230.756C131.838 231.847 134.575 232.779 137.278 233.924C140.034 235.076 142.607 236.69 145.431 237.418C148.043 238.112 150.423 239.912 153.355 239.297C153.043 238.865 152.697 238.646 152.281 238.525C144.289 235.383 136.367 232.143 128.628 228.443C124.125 226.301 119.602 223.937 115.039 222.166C111.238 220.735 107.401 219.19 103.679 217.609C93.6828 213.381 84.0974 208.294 74.3373 203.615C65.2333 199.259 56.1909 194.859 47.1743 190.299C45.9598 189.722 44.8447 189.542 43.6934 190.935C49.2535 193.956 54.6371 197.057 60.2399 199.813C63.9723 201.668 68.0371 202.815 71.6993 204.767C79.4758 208.909 87.5316 212.333 95.5 215.961C98.6911 217.456 102.251 218.358 104.969 220.757L104.775 220.943C100.962 220.6 97.8825 218.414 94.5149 217C84.306 212.737 74.1485 208.157 64.272 203.187C57.2679 199.66 50.0892 196.541 43.6899 191.968C42.8112 191.336 42.0952 191.384 41.4733 192.536C40.3871 194.538 40.0666 195.847 41.0687 196.39C43.4273 197.642 45.9436 198.593 48.2577 199.783C56.0514 203.818 63.8536 207.801 71.8134 211.482C81.2361 215.889 90.8335 219.889 100.265 224.243C104.874 226.403 109.579 228.306 114.259 230.369C115.119 230.78 116.164 231.058 116.585 232.16C111.332 230.277 105.946 228.536 101.008 226.051C93.3034 222.139 85.066 219.502 77.3442 215.696C70.5269 212.363 63.701 209.083 56.8837 205.749C51.387 203.011 45.8989 200.219 40.4639 197.436C39.6126 196.971 39.1895 197.23 38.8571 197.938C38.5333 198.594 38.8005 198.963 39.4651 199.234C41.6987 200.248 43.9152 201.368 46.1317 202.488C49.3588 204.098 52.9182 205 56.3713 207.572C55.0626 207.578 54.3552 207.573 53.7008 207.576C51.5512 205.705 49.1823 204.179 46.1846 204.185C48.4747 205.861 50.9395 207.13 53.7625 207.532C53.6425 208.274 54.4116 208.235 54.7662 208.402C60.1619 210.416 65.208 213.246 70.2885 215.863C71.4413 216.484 71.5902 217.924 72.8732 218.077C76.2973 218.466 79.3566 220.104 82.5546 221.219C85.4511 222.177 88.226 223.551 91.0883 224.721C91.3452 224.817 91.9241 225.618 92.1846 224.68C92.3063 224.264 91.3025 223.394 92.5941 223.494C93.2399 223.544 93.4642 224.179 93.4676 224.833C92.4483 226.084 93.7844 226.245 94.3342 226.552C100.526 230.383 107.733 231.982 114.074 235.565C114.916 236.082 115.9 236.404 116.977 236.143C117.583 237.112 118.507 237.805 119.49 238.127C124.459 239.747 129.132 242.189 133.943 244.109C143.991 248.019 154.022 252.034 164.061 255.997C164.983 256.364 165.627 256.086 166.359 255.606C168.43 254.253 170.518 252.794 172.767 251.687C173.949 251.116 175.075 249.882 176.669 250.466C176.274 250.892 175.931 251.327 175.271 252.037C177.358 251.939 178.437 250.316 180.075 250.635L180.03 250.574C180.282 251.377 179.823 251.52 179.179 251.797C175.809 253.43 172.645 255.478 169.079 256.644C168.558 256.832 167.674 256.907 168.041 257.674C168.416 258.388 169.174 258.075 169.774 257.736C175.295 254.926 180.977 252.469 186.418 249.482C191.206 246.826 196.164 244.469 201.077 242.051C202.435 241.4 203.446 240.202 204.946 239.682C205.811 239.386 206.377 239.26 206.709 240.239C208.137 244.553 209.23 248.921 207.52 253.435C207.24 254.152 207.218 254.965 207.77 255.599C208.508 256.426 209.282 255.68 209.82 255.386C213.303 253.389 216.732 251.385 220.073 249.257C221.765 248.224 223.645 247.384 224.989 245.805C225.517 245.237 226.194 244.421 225.017 244.285C218.636 243.309 213.974 239.453 209.548 235.145C208.748 234.362 207.816 233.722 208.022 232.448C210.094 233.11 210.524 235.847 213.049 236.745C212.099 234.196 210.218 233.021 208.884 231.499C207.736 230.17 208.64 232.331 208.066 232.51C206.82 230.784 206.666 228.364 204.757 227.022C204.119 226.592 204.194 225.787 205.059 225.492C206.895 224.917 207.057 223.582 206.721 221.949C207.502 222.511 207.844 223.764 209.386 222.652C215.051 218.613 220.753 214.689 226.587 210.95C229.628 208.991 232.633 206.918 236.352 206.158C233.391 208.292 230.387 210.366 227.265 212.148C221.331 215.49 216.084 219.978 210.106 223.258C208.131 224.355 208.781 225.385 210.746 225.703C210.367 226.022 209.989 226.342 209.61 226.662C208.862 227.249 207.565 227.856 208.428 228.921C209.06 229.731 210.112 229.629 211.231 228.775C217.838 223.963 224.356 219.027 231.347 214.876C240.516 209.389 249.328 203.408 258.229 197.551C260.493 196.012 262.527 194.217 264.934 192.809C270.647 189.486 276.207 185.757 281.573 181.887C282.123 182.194 282.599 181.944 282.978 181.624C285.532 179.641 288.612 178.451 291.157 176.522C293.016 175.134 295.24 174.187 297.165 172.048C293.931 172.506 292.173 174.617 290.066 175.855C287.113 177.61 283.75 178.864 281.501 181.658C280.987 181.466 280.528 181.61 280.043 181.912C274.349 185.457 268.566 188.878 262.907 192.537C257.002 196.373 251.258 200.563 245.22 204.215C241.059 206.7 236.906 209.132 232.977 211.873C227.09 215.93 221.16 219.926 214.837 223.315C215.461 220.802 218.004 220.233 219.75 219.209C228.512 213.874 236.607 207.614 245.414 202.341C247.468 201.094 250.09 200.374 251.307 197.903C253.53 198.643 254.116 195.689 256.053 195.839C256.007 195.45 256.023 195.017 255.87 194.612C255.834 194.497 255.374 194.314 255.365 194.367C254.258 195.821 251.577 195.552 251.351 197.965C249.368 197.427 248.386 199.119 246.949 199.921C245.988 200.474 245.287 201.776 243.756 201.474C244.235 200.191 245.241 199.7 246.157 199.086C252.405 194.814 258.697 190.604 264.945 186.333C265.376 186.022 266.853 185.988 266.096 184.94C265.517 184.139 264.77 185.053 264.162 185.444C260.566 187.803 257.015 190.224 253.383 192.468C246.128 196.903 238.838 201.224 231.583 205.659C225.113 209.623 218.562 213.41 212.27 217.619C210.384 218.839 207.723 219.117 206.719 221.622C205.601 220.789 204.582 220.352 203.439 221.691C202.288 223.084 201.034 223.426 199.874 221.497C199.437 220.827 198.701 220.327 198.026 219.783C197.547 219.379 196.944 219.064 196.505 219.755C196.145 220.296 195.415 221.103 196.356 221.691C197.252 222.216 197.486 223.125 197.967 223.856C198.324 224.349 198.646 225.055 197.895 225.314C197.26 225.538 196.54 224.932 196.618 224.455C196.736 223.385 195.859 223.08 195.475 222.419C194.958 221.574 193.302 221.034 194.842 219.595C196.003 218.476 196.988 217.438 198.622 218.79C199.244 219.326 200.113 219.684 200.549 220.354C201.69 222.062 202.38 220.486 203.156 220.067C204.232 219.479 203.706 218.686 203.172 217.946C202.406 216.952 201.307 216.339 200.245 216.167C197.059 215.652 194.726 214.241 194.116 210.931C193.734 208.909 192.58 207.961 190.685 207.546C190.154 207.46 189.754 206.906 189.319 206.563C189.6 206.173 189.836 205.721 190.215 205.401C190.848 204.85 191.338 205.528 191.72 205.862C193.55 207.355 195.351 208.681 195.975 211.231C196.67 214.011 198.378 214.232 200.721 212.542C204.5 209.723 208.413 207.089 212.281 204.393C215.664 201.999 219.003 199.545 222.423 197.266C225.366 195.237 228.54 193.464 231.43 191.426C235.976 188.241 240.292 184.801 244.883 181.677C248.249 179.39 251.357 176.68 254.875 174.799C260.66 171.704 266.106 168.011 272.158 165.287C275.096 163.965 277.899 162.131 280.72 160.518C282.096 159.761 281.863 159.179 280.559 158.478C278.413 157.26 276.297 158.552 274.192 158.43C272.626 158.34 271.871 157.619 271.847 156.418C271.851 155.384 271.501 154.511 271.275 153.549C270.986 152.304 271.502 151.136 272.713 151.059C274.472 150.962 274.212 150.212 273.79 149.11C273.674 148.819 273.689 148.386 273.511 148.139C272.533 147.11 273.849 145.037 272.282 144.62C271.131 144.325 270.476 146.016 269.489 146.728C265.851 149.352 262.104 151.632 258.198 153.886C255.915 155.205 253.794 157.203 251.529 158.743C247.617 161.377 243.918 164.373 239.444 166.1C239.31 165.915 239.177 165.73 239.034 165.598C241.525 163.333 243.785 160.813 246.543 158.917C250.843 155.91 255.232 153.026 259.657 150.257C264.32 147.362 268.404 143.667 273.147 140.949C274.531 140.138 273.723 139.409 272.686 139.078C268.762 137.737 264.934 136.138 261.105 134.54C256.099 132.479 251.381 129.975 246.585 127.622C240.787 124.726 234.603 122.529 229.033 119.234C223.817 116.105 217.699 114.518 213.158 110.246C209.95 110.544 207.661 107.507 204.674 107.787C202.464 107.974 200.465 109.557 198.267 110.345C196.422 110.972 195.943 110.568 196.049 108.898C196.133 108.04 195.917 107.352 195.184 107.506C194.336 107.696 194.951 108.612 194.91 109.204C194.853 110.229 195.789 111.523 194.545 112.139C193.186 112.791 192.736 111.194 192.149 110.445C188.418 105.542 184.767 100.488 181.098 95.5406C180.831 95.1708 180.166 94.9001 180.587 94.3149C180.947 93.7742 181.468 93.5861 182.081 94.1751C182.694 94.7641 183.028 94.3826 182.963 93.7732C182.779 92.2191 184.132 92.2744 184.899 91.9084C189.829 89.3839 194.849 86.9828 199.582 83.991C201.398 82.8689 203.378 82.7532 205.706 83.1837C211.158 84.1733 215.779 86.934 220.882 88.7381C222.273 89.2349 223.736 89.9612 224.829 90.9543C226.97 92.8788 229.764 92.7857 232.235 93.6749C235.274 94.7646 238.191 96.2701 241.196 97.572C244.865 99.1445 248.376 101.018 252.15 102.281C255.25 103.326 258.352 104.698 261.173 106.461C265.627 109.249 270.349 111.046 275.318 112.665C280.128 114.258 284.633 116.728 289.33 118.684C293.876 120.562 298.264 122.741 302.915 124.308C305.448 125.153 307.807 126.405 310.262 127.4C315.224 129.4 320.159 131.231 325.4 132.513C329.021 133.37 332.343 137.772 328.721 141.978C328.325 142.404 327.787 142.698 328.048 143.448C329.618 147.893 331.295 152.356 334.479 155.919C335.635 157.194 337.082 158.353 338.344 159.646C338.949 160.288 339.747 160.744 339.841 161.848C339.953 162.845 340.83 163.15 341.714 163.075C345.09 162.75 347.046 164.808 348.721 167.256C349.514 168.418 348.669 169.262 347.886 170.061C345.969 172.147 343.501 173.599 341.13 175.121C335.155 179.055 329.205 182.831 323.854 187.628C321.301 189.938 318.101 191.87 314.677 193.168C313.635 193.544 312.532 193.965 312.26 192.615C312.042 191.599 312.018 190.398 313.723 189.966C316.513 189.219 319.116 187.951 321.281 186.015C323.129 184.353 323.1 183.859 320.832 183.057C317.067 181.741 314.356 178.962 311.698 176.192C310.338 174.829 309.18 173.227 307.75 171.961C304.677 169.396 303.182 165.834 301.616 162.369C300.803 160.659 302.489 160.006 303.521 159.683C306.858 158.589 309.634 156.587 312.667 155.009C317.175 152.742 321.228 149.913 325.209 146.854C322.249 147.302 320.184 149.962 317.188 150.295C318.83 147.893 321.851 147.401 323.893 145.553C324.342 145.136 325.057 144.761 324.558 144.136C324.024 143.396 323.56 144.247 323.136 144.505C317.512 147.952 312.031 151.53 305.987 154.202C305.228 154.515 304.39 154.978 304.024 155.899C304.909 156.151 305.5 155.865 306.1 155.526C309.204 153.85 312.255 152.166 315.306 150.481C315.844 150.187 316.404 149.079 317.197 150.242C315.784 152.246 313.391 152.893 311.468 153.998C308.594 155.603 306.103 157.868 302.809 158.697C301.617 158.994 300.442 159.185 299.268 159.704C296.913 160.793 296.247 158.508 295.365 157.222C294.349 155.752 293.657 155.313 292.293 156.672C291.519 157.418 291.671 157.823 292.382 158.482C294.915 161.015 294.765 160.936 292.505 163.456C291.977 164.024 290.194 164.607 291.271 166.033C292.26 167.336 293.688 166.587 294.392 165.939C296.53 163.834 297.332 164.944 298.713 166.854C301.179 170.138 303.142 173.503 304.7 177.348C305.945 180.435 306.651 183.488 306.959 186.641C307.135 188.248 306.355 189.701 305.948 191.214C305.792 191.842 305.01 192.968 305.915 193.441C306.518 193.756 307.525 193.592 308.221 192.996C308.661 192.632 308.985 191.977 309.668 192.468C310.343 193.013 310.382 193.781 310.369 194.541C310.355 195.301 309.825 195.542 309.171 195.545C306.536 195.664 305.115 197.721 303.256 199.108C302.639 199.553 302.336 200.756 301.049 199.95C300.251 199.494 300.38 200.386 300.232 200.961C299.737 202.677 299.098 203.935 296.707 203.222C294.785 202.639 293.478 204.66 292.157 205.754C288.309 208.997 284.114 211.695 279.955 214.507C272.631 219.367 264.996 223.795 257.637 228.54C252.463 231.897 247.05 235.051 241.395 237.676C236.331 240.015 231.769 243.634 227.793 247.673C225.391 250.062 222.553 251.781 219.742 253.667C214.543 257.183 208.359 258.361 202.702 260.66C198.855 262.216 195.295 264.689 191.805 267.065C186.43 270.661 181.152 274.327 175.303 277.139C172.049 278.736 168.811 278.54 165.796 276.964C164.032 276.08 162.174 275.78 160.401 274.949C154.604 272.38 149.264 269.013 143.59 266.355C137.767 263.617 131.689 261.438 125.795 258.798C116.347 254.55 107.056 250.001 97.5288 245.903C94.3206 244.514 91.1997 242.921 87.755 241.984C83.7878 240.908 80.3964 238.291 76.2973 237.357C75.4032 237.158 74.2402 236.262 74.2591 234.796C106.373 247.822 137.332 263.275 170.411 275.042C169.189 272.83 167.757 271.238 165.747 270.859C162.003 270.091 158.906 268.012 155.494 266.535C146.587 262.647 137.776 258.502 128.651 255.286C119.889 252.183 111.179 248.762 102.759 244.897C98.1407 242.79 93.3822 240.879 88.7299 238.984C85.3093 237.56 82.1679 235.42 78.4936 234.554C76.7053 234.156 75.1329 232.759 73.5006 231.733C73.0124 231.382 72.4078 230.74 72.8549 229.996C73.3192 229.145 74.0558 229.645 74.6142 229.899C81.3236 232.888 87.9097 235.966 94.7065 238.752C102.726 242.061 110.895 245.123 118.828 248.636C121.469 249.825 124.568 250.543 127.024 251.865C131.741 254.369 136.834 255.9 141.647 258.147C149.412 261.688 157.281 264.918 165.141 268.202C166.524 268.752 167.652 269.86 169.545 269.948C168.959 267.839 167.399 267.043 165.715 266.335C159.556 263.653 153.343 260.962 147.183 258.279C146.669 258.087 146.27 257.859 146.135 257.348C149.825 257.78 153.115 259.673 156.438 261.026C159.814 262.388 163.271 263.926 166.604 265.553C167.11 265.798 168.175 266.624 168.585 265.438C168.968 264.411 167.942 264.354 167.225 264.075C160.464 261.404 153.72 258.627 146.951 256.009C145.515 255.451 144.131 254.574 142.389 254.565C142.831 256.215 144.571 255.897 145.328 256.945C144.772 257.018 144.234 257.313 143.631 256.998C139.818 254.966 135.751 253.493 131.738 252.028C132.005 250.71 133.391 251.914 133.871 250.63C131.897 250.366 130.315 248.695 127.982 248.971C128.492 250.197 129.837 250.305 130.489 251.663C105.346 240.688 79.8129 231.446 55.5327 218.161C57.0522 217.862 57.8418 218.371 58.7017 218.782C64.988 222.029 71.7026 224.311 78.0146 227.4C81.7556 229.202 85.5497 231.012 89.3866 232.557C96.192 235.29 102.814 238.482 109.541 241.365C113.777 243.138 117.91 245.548 122.53 246.294C132.795 247.844 141.743 252.828 151.233 256.483C152.261 256.867 153.252 257.136 154.366 256.989C157.74 259.712 161.98 260.451 165.949 261.855C166.312 261.968 166.629 261.692 166.68 261.374C166.81 260.905 166.596 260.544 166.118 260.467C165.171 260.259 164.258 259.839 163.39 259.481C160.502 258.471 157.682 257.035 154.551 256.856C153.119 255.264 150.855 255.116 148.936 253.499C153.751 254.386 157.874 256.522 162.389 257.578C162.354 255.776 161.045 255.782 160.212 255.539C156.093 254.057 151.886 252.778 147.758 251.349C142.496 249.519 137.408 247.282 132.251 245.143C127.864 243.291 123.364 241.802 118.986 239.897C108.865 235.431 98.6727 231.063 88.5512 226.597C87.4344 226.09 86.3364 225.804 85.1339 225.828C82.9638 223.408 79.8839 222.911 76.9788 222.006C74.4301 219.907 71.3023 218.694 68.4555 217.091C66.0609 215.724 63.1746 215.04 60.8143 213.461C59.9801 212.891 59.4953 213.194 58.8872 213.586C59.6802 214.748 60.9289 215.113 62.0457 215.62C65.8038 217.316 69.5619 219.012 73.3817 220.663C74.5516 221.179 75.5656 222.322 77.049 221.909C79.5601 223.566 81.9581 225.587 85.2041 225.73C85.5466 226.983 84.733 226.961 84.041 226.522C81.4066 224.953 78.3969 224.358 75.7368 222.949C70.9664 220.436 65.8979 218.42 60.9082 216.253C60.7044 216.166 60.2812 216.424 59.9986 216.487C60.2796 216.097 60.0929 215.903 59.7383 215.737C55.5366 213.752 51.4308 211.51 47.0628 209.879C44.9543 209.103 43.2037 207.459 40.8844 206.976C40.8347 207.621 40.7661 208.046 41.28 208.237C47.5544 210.884 53.5666 214.142 60.0072 216.434C63.2205 218.804 67.1345 219.872 70.6374 221.799C73.1382 223.182 75.92 224.176 78.3951 225.719C66.1888 221.679 55.0482 215.089 42.8763 210.836C46.2608 213.833 51.1428 213.968 54.3354 217.478C51.1631 216.203 47.9908 214.929 44.8185 213.654C43.4893 213.113 42.2303 212.474 41.033 211.791C40.6339 211.563 40.2879 211.344 39.9984 211.787C39.7003 212.283 40.1439 212.572 40.4899 212.792C46.5415 216.818 52.6804 220.64 59.3453 223.568C62.9613 225.131 66.5858 226.642 70.2017 228.206C70.8663 228.477 72.0345 228.666 71.1745 229.942C70.5869 230.882 69.9668 230.673 69.0453 230.306C65.3848 228.68 61.4965 227.454 58.0467 225.535C53.7457 223.153 49.1379 221.32 45.1607 218.282C42.1512 216 38.6586 214.347 35.8684 211.718C35.6748 211.905 35.5258 212.153 35.3322 212.34C36.9765 213.966 38.4718 215.841 40.2565 217.272C45.6109 221.567 51.8681 224.32 57.853 227.409C61.4261 229.239 65.0797 231.244 68.9594 232.524C69.5264 232.725 70.7477 232.922 70.3725 233.896C70.0058 234.816 69.074 234.176 68.3477 233.95C62.7842 231.962 57.5445 229.319 52.2431 226.721C50.0711 225.662 47.7861 224.967 45.6929 223.758C40.4429 220.841 36.1078 216.983 32.7302 211.919C29.8426 207.533 28.226 202.699 26.7241 197.829C25.2497 193.127 25.9421 188.503 29.3273 184.749C30.9976 182.841 33.1561 181.284 35.342 179.895C36.6816 179.023 38.0127 178.204 39.1742 177.085C39.4997 176.756 40.1266 176.585 40.3545 176.187C41.0209 175.097 43.3332 177.648 43.3352 174.599C43.3661 173.733 45.9613 172.846 47.5236 172.282C49.0859 171.718 50.0333 170.237 51.4706 169.435C52.9078 168.633 54.6037 168.254 55.9074 167.267C57.2813 166.182 58.7631 165.441 60.2706 164.542C61.1082 164.078 61.5159 164.253 61.891 164.967C62.2575 165.734 61.9868 166.398 61.1646 166.428C59.9535 166.505 59.4378 167.674 58.386 167.776C58.3894 168.43 58.8142 168.498 59.0882 168.488C64.1278 168.322 68.506 170.227 72.509 173.106C73.4853 173.808 74.6671 174.924 75.6077 173.824C76.4779 172.821 75.5068 171.412 74.539 170.657C71.0328 168.077 68.0526 164.601 63.4328 163.855C63.008 163.786 62.5489 163.93 62.4136 163.418C62.2423 162.792 62.7717 162.55 63.1948 162.292C66.8625 160.163 70.2441 157.443 74.1533 155.842C78.0624 154.241 81.4543 151.795 84.9627 149.64C91.9263 145.321 98.9618 141.231 106.131 137.326C111.395 134.42 117.052 132.122 121.941 128.502C123.368 127.426 123.542 128.706 123.926 129.367C126.149 133.483 128.487 137.562 130.472 141.802C131.321 143.627 134.451 145.167 132.455 147.403C131.127 148.876 129.154 150.3 127.222 151.131C124.645 152.239 122.55 154.078 120.133 155.212C114.876 157.738 110.473 161.382 106.07 165.026C101.536 168.812 96.3143 171.453 91.1819 174.216C87.6017 176.142 84.751 178.948 81.2238 180.883C80.3245 181.391 80.7596 181.733 81.2922 182.146C81.7718 182.55 82.6472 182.528 82.546 183.492L82.5546 183.439C80.9856 182.695 78.6148 182.53 78.3495 180.8C78.1406 179.731 80.5696 179.198 81.8031 178.309C89.3184 172.936 97.0375 167.65 105.123 163.131C111.234 159.708 116.489 155.168 122.449 151.666C125.103 150.081 127.756 148.495 130.401 146.963C131.539 146.33 131.642 145.693 130.955 144.548C128.519 140.398 126.022 136.293 124.063 131.893C123.624 130.897 123.013 130.635 121.867 131.321C118.614 133.245 115.299 135.214 111.876 136.839C108.286 138.491 104.776 140.319 101.319 142.156C98.3467 143.69 95.3574 145.331 92.5377 147.27C92.3526 147.404 92.0871 147.361 91.8662 147.38C91.3231 148.381 90.2901 148.704 89.3462 149.15C88.7552 149.436 87.9518 149.687 87.8404 150.377C87.765 151.181 88.7465 151.176 89.2347 151.528C91.3826 153.072 94.1336 153.244 96.1941 154.993C97.1002 155.792 98.5321 157.384 99.4812 156.231C100.369 155.122 99.1663 153.458 98.0375 152.351C97.8954 152.219 97.7361 152.193 97.647 152.07C96.001 150.116 93.3888 149.422 91.8131 147.371C95.0128 148.813 98.0103 150.495 100.333 153.32C101.516 154.763 101.34 156.531 100.814 157.426C99.9366 158.809 98.0593 158.288 96.6753 157.411C95.6373 156.754 94.625 155.937 93.6658 155.129C91.6224 153.274 88.6949 153.182 86.5025 151.576C85.819 151.085 85.0961 151.512 84.4263 151.949C81.0327 154.068 77.5055 156.002 74.1205 158.069C71.6965 159.582 69.2999 161.264 66.7252 162.699C65.4644 163.421 66.8827 164.085 67.2989 164.207C70.8155 165.374 73.4105 167.862 76.0139 170.297C78.2441 172.344 78.5591 173.43 76.8631 175.497C75.1756 177.51 73.4628 176.308 72.1216 175.166C68.6137 172.259 64.6706 170.696 60.2289 170.197C57.0702 169.85 53.867 169.441 51.3247 172.025C50.9376 172.398 50.1239 172.375 50.4733 173.248C50.7781 174.06 51.5575 174.294 52.1314 174.115C53.3322 173.764 54.5792 173.803 55.6893 173.002C56.3146 172.504 57.2687 172.332 58.0498 172.893C58.9285 173.525 58.9781 174.568 58.7878 175.408C58.5805 176.354 57.8319 176.941 56.7167 176.761C57.2084 176.078 58.2757 175.543 57.7841 174.538C57.409 173.824 56.5337 173.846 55.7748 174.159C54.5569 174.616 52.4362 174.926 52.6896 176.056C53.0697 177.751 55.0106 176.866 56.3896 176.762C56.5455 176.134 56.6774 175.992 56.8453 175.965ZM235.818 217.558C235.385 217.542 234.871 217.351 234.624 217.528C231.664 219.663 228.739 221.913 225.824 224.109C226.41 224.531 226.948 224.237 227.547 223.898C229.318 222.714 231.232 221.662 232.87 220.294C233.882 219.423 235.739 219.396 235.818 217.558C238.954 217.03 241.055 214.484 243.727 213.119C244.027 212.95 244.095 212.526 243.873 212.217C243.508 211.777 243.129 212.097 242.785 212.205C241.858 212.545 241.829 213.738 240.752 214C238.508 214.399 237.118 215.917 235.818 217.558ZM232.897 222.149C226.567 225.917 220.015 229.377 214.433 234.246C217.357 233.684 219.434 231.624 221.832 230.27C225.376 228.229 228.76 225.836 232.126 223.549C232.681 223.148 232.962 222.758 232.852 222.087C234.841 221.919 236.535 221.212 237.685 219.493C235.866 219.961 234.002 220.368 232.897 222.149ZM261.97 197.666C253.528 201.692 242.028 209.47 241.517 211.619C245.454 210.186 248.33 207.221 251.813 205.225C255.119 203.31 258.3 201.156 261.518 199.117C261.221 199.94 260.872 200.755 260.505 201.675C263.244 201.247 264.771 198.88 267.172 198.179C267.463 198.063 267.683 197.717 267.522 197.365C267.236 196.774 266.902 197.156 266.504 197.255C264.702 197.617 263.743 200.184 261.394 199.206C261.692 198.71 262.044 198.222 261.978 197.613C264.118 197.523 265.214 195.794 266.65 194.665C264.511 194.755 263.548 196.668 261.97 197.666ZM295.573 178.868C294.784 178.359 294.301 178.989 293.807 179.345C290.175 181.589 286.499 183.772 283.001 186.201C280.358 188.06 277.929 190.281 275.666 192.148C275.967 192.305 276.575 191.913 277.245 191.477C281.194 188.958 285.223 186.614 289.029 183.963C291.303 182.37 294.163 181.526 295.769 179.009C297.406 177.64 300.094 177.53 301.184 174.494C298.635 175.77 296.365 176.328 295.573 178.868ZM203.836 247.233C204.108 246.896 204.372 246.612 204.697 246.283C205.217 245.768 206.649 245.673 205.953 244.581C205.391 243.674 204.655 244.861 203.939 244.909C202.224 245.067 200.951 246.876 198.401 246.137C200.526 245.12 202.176 244.352 203.781 243.522C204.434 243.192 205.6 243.054 204.878 241.794C204.235 240.71 203.665 241.544 203.065 241.882C197.087 245.163 190.966 248.312 184.854 251.407C180.047 253.843 175.035 255.864 170.478 258.775C169.623 259.345 168.398 260.182 169.268 260.866C170.281 261.683 170.674 264.305 173.124 262.632C175.697 260.871 178.207 258.826 181.486 258.43C179.012 260.589 176.029 261.85 173.342 263.648C172.425 264.262 171.853 264.768 172.495 265.852C173.146 266.882 173.824 266.393 174.609 265.921C181.167 261.754 188.438 258.9 194.871 254.495C197.567 252.644 200.755 251.798 203.568 250.238C205.235 249.364 205.778 248.363 203.836 247.233ZM219.468 236.475C218.986 237.431 218.681 238.308 220.248 238.724C220.983 238.897 221.543 239.478 222.261 239.757C226.283 241.169 230.262 242.846 233.992 238.984C234.581 238.372 235.073 237.689 235.972 237.181C239.023 235.496 242.172 233.882 244.947 231.88C248.154 229.567 251.486 227.492 254.934 225.708C256.786 224.701 257.341 222.613 259.292 222.003C263.653 220.639 266.9 217.407 270.797 215.205C273.68 213.548 276.197 211.124 279.285 209.88C282.083 208.754 282.263 204.264 286.139 204.89C286.245 204.908 286.439 204.721 286.518 204.57C290.575 200.707 295.763 198.606 300.543 196.002C302.456 194.951 302.167 193.706 302.275 192.363C302.367 191.452 301.756 191.19 300.971 191.662C295.058 195.552 289.153 199.389 283.328 203.402C279.707 205.92 275.971 208.474 272.269 210.816C267.906 213.541 263.801 216.688 259.385 219.405C256.961 220.919 254.439 222.362 251.935 223.7C248.178 225.706 244.894 228.496 241.129 230.556C236.181 233.186 231.332 235.887 226.545 238.87C224.968 239.867 224.092 239.889 223.102 238.26C223.895 237.734 224.608 237.033 225.473 236.737C229.136 235.314 232.298 232.94 235.621 230.918C240.69 227.872 245.537 224.517 250.525 221.294C255.76 217.894 261.271 214.81 266.275 211.154C271.402 207.41 276.913 204.326 282.032 200.634C288.19 196.239 294.928 192.646 301.443 188.744C302.827 187.933 303.183 186.739 303.132 185.37C303.081 184 302.133 183.793 301.262 184.469C297.114 187.882 292.36 190.326 287.812 193.184C281.501 197.173 275.315 201.4 268.907 205.319C266.906 206.574 264.915 208.104 262.142 208.745C262.563 208.159 262.73 207.805 262.968 207.68C267.526 205.096 271.915 202.212 276.251 199.319C284.235 194.076 292.318 188.903 300.4 183.731C302.471 182.378 302.516 182.439 301.548 179.996C300.558 180.054 300.501 181.08 299.77 181.56C294.79 184.73 289.899 188.023 285.089 191.492C277.812 196.74 270.017 201.143 262.829 206.515C255.949 211.664 247.965 215.219 240.801 220.105C233.452 225.124 225.407 229.051 218.2 234.201C217.522 234.691 215.761 234.461 216.326 236.022C216.999 237.927 218.102 235.819 219.032 236.132C219.175 236.264 219.325 236.343 219.468 236.475ZM322.159 133.351C321.216 132.11 319.945 132.557 318.793 132.263C310.647 130.076 302.91 126.703 295.164 123.383C290.316 121.348 285.539 119.215 280.691 117.18C273.85 114.333 266.921 111.69 260.22 108.648C252.411 105.045 244.368 102.222 236.558 98.6195C231.692 96.3636 226.642 94.568 221.925 92.064C217.11 89.4898 211.956 88.004 207.011 85.8987C204.512 84.8417 202.216 85.5597 200.022 87.0018C198.92 87.7493 198.79 88.2182 200.225 88.7767C202.015 89.5014 203.636 89.9264 205.388 88.5219C206.084 87.9265 207.091 87.7626 207.953 88.5006C208.708 89.2214 208.526 90.0087 208.124 90.8146C207.809 91.417 207.653 92.0451 208.089 92.7145C208.785 93.8067 213.92 95.0717 215.119 94.3943C215.243 94.3054 215.277 94.0932 215.347 93.9956C214.573 93.054 213.244 94.2003 212.319 93.1798C212.848 92.9387 213.209 92.7249 213.598 92.6788C215.339 92.3611 217.751 91.9341 218.281 93.7075C218.965 95.8865 216.56 95.9336 214.979 96.277C214.352 96.4479 213.363 96.8327 214.233 97.5176C215.592 98.5536 216.618 100.298 218.923 99.8539C221.273 99.4713 223.11 100.585 224.358 102.637C224.92 103.544 224.905 103.977 223.687 104.434C220.977 105.357 219.236 103.987 217.441 102.282C215.549 100.506 213.673 98.6248 210.999 97.9751C211.535 99.0416 212.203 99.9661 212.933 100.846C213.574 101.603 213.135 102.294 212.713 102.879C212.275 103.571 211.768 102.999 211.245 102.86C208.58 102.157 208.056 100.004 208.55 97.9605C209.304 94.9793 206.649 94.5504 205.412 93.0986C204.869 92.412 204.494 93.3858 204.665 94.0123C204.972 95.1506 205.393 96.2529 205.823 97.3023C206.316 98.634 205.881 99.9792 205 100.708C204.049 101.534 203.59 99.9903 202.898 99.5519C200.309 98.0448 199.807 95.0785 198.389 92.7263C196.453 89.5284 195.965 89.1774 192.543 90.8021C192.066 91.0518 191.27 90.9231 191.345 91.8063C191.41 92.4157 191.907 92.7137 192.385 92.7908C195.705 93.4904 197.926 95.5913 199.524 98.5169C199.952 99.2393 200.468 99.7581 200.092 100.732C199.621 101.962 198.594 101.578 198.009 101.484C196.293 101.316 194.637 100.776 192.795 100.37C193.679 101.982 194.421 103.463 195.681 104.429C196.897 105.333 196.856 107.613 198.439 107.596C199.969 107.571 201.19 106.081 202.521 105.261C203.605 104.62 204.644 103.59 206.115 104.263C213.126 107.41 219.892 111.061 226.973 114.111C233.026 116.776 238.607 120.345 244.66 123.01C250.351 125.563 256.094 128.123 261.618 131.03C267.789 134.313 274.592 136.392 279.843 141.323C280.225 141.657 280.747 141.796 281.268 141.608C285.117 140.378 287.347 142.426 289.149 145.439C291.343 149.06 295.286 150.622 298.125 148.903C303.732 145.563 309.366 142.39 314.839 138.864C317.529 137.393 320.609 136.203 322.159 133.351ZM29.551 192.134C28.1957 196.815 30.2235 200.79 31.7476 204.847C32.097 205.72 32.3092 207.442 33.3508 207.066C34.048 206.797 32.9878 205.265 32.7703 204.25C32.046 200.975 30.8627 197.845 31.048 194.336C31.2247 190.88 33.7995 189.445 35.6274 187.236C37.3851 185.125 39.6651 184.84 41.933 185.642C45.9995 187.115 50.0231 188.854 53.985 190.637C61.6605 194.054 68.7501 198.738 76.5575 202.013C81.2098 203.908 85.5999 206.414 90.1031 208.557C95.1202 210.891 100.216 213.075 105.18 215.401C109.337 217.325 113.126 219.842 117.52 221.314C123.313 223.23 128.722 226.172 134.262 228.646C141.476 231.88 149.049 234.246 156.089 237.888C156.79 238.273 157.718 238.26 158.576 238.344C159.054 238.421 159.681 238.25 159.82 237.728C160.003 237.268 159.709 236.73 159.204 236.485C158.095 235.925 157.004 235.259 155.817 234.849C148.933 232.268 142.319 229.022 135.452 226.334C126.946 223 118.483 219.401 110.256 215.35C107.374 213.959 104.361 212.711 101.41 211.417C95.4544 208.822 89.7779 205.51 83.8136 202.968C74.074 198.836 64.9289 193.385 55.4172 188.854C51.0202 186.729 46.6506 184.771 42.0017 183.53C40.4875 183.122 38.3874 182.293 37.4624 182.96C33.9814 185.283 29.7553 187.159 29.551 192.134ZM285.684 162.844C285.67 161.917 284.812 161.833 284.394 161.384C283.798 160.689 283.25 160.709 282.457 161.234C276.542 164.797 270.546 168.184 264.728 171.817C256.364 177.053 248.399 182.844 240.034 188.08C232.762 192.621 225.741 197.639 218.594 202.418C213.588 205.747 208.886 209.56 203.577 212.405C202.862 212.779 201.22 213.167 202.261 214.479C203.08 215.482 203.761 217.334 205.982 215.733C211.145 212.103 216.397 208.596 221.533 204.798C226.422 201.178 231.498 197.752 236.69 194.617C239.767 192.773 242.256 190.181 245.43 188.407C251.311 185.056 256.942 181.23 262.779 177.817C266.984 175.393 270.886 172.485 274.95 169.93C278.22 167.899 281.83 166.468 284.663 163.768C284.927 163.484 285.305 163.164 285.684 162.844ZM289.108 166.609C289.158 165.964 288.882 165.647 288.544 165.375C287.585 164.567 286.696 165.349 286.026 165.785C281.24 168.768 276.721 172.121 271.881 175.096C266.557 178.373 261.545 182.082 256.212 185.412C245.608 192.029 235.085 198.821 224.311 205.138C218.537 208.506 212.976 212.235 207.343 215.735C206.612 216.216 205.668 216.662 206.221 217.622C206.738 218.468 207.744 217.977 208.458 217.603C210.425 216.559 212.356 215.401 214.278 214.296C219.259 211.454 224.561 208.989 229.195 205.6C236.349 200.441 244.028 196.074 251.227 190.976C258.91 185.576 267.386 181.338 275.078 175.884C278.893 173.18 282.833 170.713 286.915 168.378C287.744 167.968 288.75 167.477 289.108 166.609ZM278.42 151.818C277.201 151.947 276.104 151.988 275.044 152.143C274.037 152.307 272.906 152.56 272.975 153.823C273 155.352 274.329 155.893 275.568 155.984C276.32 156.051 277.195 156.029 277.988 155.504C278.975 154.793 280.249 154.998 281.013 155.666C283.545 157.872 287.007 158.703 289.117 161.494C289.704 162.242 290.148 162.531 291.135 161.819C292.87 160.521 292.795 159.638 291.073 158.489C289.397 157.401 288.17 156.223 290.478 154.419C291.226 153.832 291.61 152.805 292.278 152.042C292.806 151.474 292.83 150.988 292.182 150.611C289.877 149.368 288.399 147.387 286.999 145.255C286.429 144.401 285.525 143.928 284.603 143.562C283.992 143.3 283.238 142.906 282.606 143.784C282.061 144.458 282.303 144.987 282.633 145.639C283 146.406 283.817 147.082 283.371 148.153C281.641 147.057 280.773 145.012 278.779 144.2C276.732 143.379 275.269 144.34 275.351 146.531C275.411 147.847 275.947 148.914 276.942 149.837C277.334 150.445 278.273 150.705 278.42 151.818ZM206.29 253.291C206.437 252.716 206.478 252.124 206.069 251.622C205.615 251.059 205.069 251.406 204.707 251.62C201.05 254.023 197.053 255.828 193.226 257.931C187.363 261.176 181.749 264.897 175.671 267.78C174.612 268.262 173.67 269.036 172.834 269.826C171.928 270.714 172.145 271.729 172.849 272.768C173.553 273.807 174.269 273.76 175.168 273.252C178.052 271.594 180.935 269.937 183.871 268.288C190.175 264.679 196.443 260.955 202.908 257.699C205.043 256.628 205.858 255.29 206.29 253.291ZM328.836 136.879C328.644 135.705 327.819 135.081 327.197 134.546C326.389 133.816 325.446 134.589 324.821 135.087C321.941 137.398 318.981 139.533 315.834 141.475C310.995 144.449 306.325 147.724 300.968 149.853C300.324 150.13 298.488 150.704 299.351 151.769C300.081 152.649 300.841 154.35 303.152 153.199C310.614 149.505 317.595 145.08 324.531 140.593C326.171 139.551 327.445 138.07 328.836 136.879ZM321.118 169.82C319.273 170.447 318.533 172.669 316.412 172.979C315.573 173.116 315.569 174.15 316.05 174.881C316.96 176.334 318.065 176.241 319.502 175.438C324.509 172.436 329.606 169.558 334.649 166.671C337.294 165.138 337.589 163.988 335.859 161.204C334.477 158.967 333.272 160.351 332.075 161.355C331.758 161.631 331.307 161.721 330.955 161.882C325.003 165.33 319.008 168.717 312.633 172.424C316.253 172.954 318.165 169.887 321.118 169.82ZM162.036 240.536C162.61 240.356 163.22 240.291 163.696 240.042C171.138 235.8 178.91 232.21 186.182 227.669C187.151 227.063 188.272 226.536 189.152 225.808C189.778 225.31 190.499 224.555 189.937 223.648C189.375 222.741 188.64 222.567 187.565 223.156C185.343 224.43 182.88 225.175 180.641 226.556C177.071 228.756 173.322 230.709 169.485 232.539C167.006 233.717 164.492 234.781 162.049 236.074C160.505 236.859 161.139 237.996 161.286 239.108C161.404 239.726 161.187 240.399 162.036 240.536ZM324.135 178.8C325.163 179.184 326.071 178.623 326.953 178.221C328.558 177.391 330.145 176.341 331.688 175.556C335.825 173.557 339.161 170.448 343.209 168.325C343.923 167.951 344.999 167.362 343.985 166.219C343.157 165.268 342.244 164.849 341.126 165.702C340.562 166.156 340.079 166.786 339.426 167.116C333.489 169.804 327.802 172.968 322.328 176.494C321.897 176.805 321.047 176.668 321.229 177.568C321.355 178.133 321.886 178.219 322.409 178.358C323.046 178.461 323.56 178.652 324.135 178.8ZM261.613 190.095C262.651 190.753 263.223 190.247 263.956 190.093C266.234 189.481 267.72 187.707 269.642 186.602C273.177 184.614 276.677 182.512 280.132 180.348C283.288 178.354 286.452 176.306 289.563 174.25C291.942 172.674 294.269 171.09 296.551 169.445C296.921 169.178 297.873 168.678 297.241 167.869C296.743 167.244 296.17 167.75 295.686 168.053C294.046 169.095 292.371 170.022 290.829 171.134C284.345 175.857 277.299 179.673 270.646 184.096C267.658 186.063 264.724 188.039 261.613 190.095ZM300.519 172.535C290.998 178.184 281.067 183.33 272.581 190.669C282.155 185.03 291.168 178.483 300.519 172.535ZM214.754 227.874C214.888 228.059 215.021 228.244 215.155 228.429C217.879 226.746 220.664 225.018 223.388 223.335C227.866 220.574 232.344 217.813 236.83 215C237.315 214.697 238.287 214.418 237.663 213.555C237.218 212.939 236.546 213.048 235.921 213.546C231.623 216.88 226.79 219.475 222.225 222.439C219.678 224.042 216.829 225.487 214.754 227.874ZM274.176 179.44C277.383 178.815 289.937 171.262 291.544 169.071C291.816 168.734 292.141 168.406 291.777 167.966C291.181 167.271 290.742 167.962 290.31 168.273C286.177 170.927 281.945 173.509 277.856 176.224C276.623 177.114 274.999 177.722 274.176 179.44ZM328.555 152.784C328.422 152.599 328.288 152.414 328.208 152.238C326.584 152.847 325.085 153.694 323.631 154.602C319.012 157.558 314.358 160.399 309.792 163.363C308.999 163.888 307.242 164.312 307.884 165.396C308.348 166.233 309.722 165.148 310.683 164.596C315.418 161.931 319.307 158.095 324.167 155.668C325.701 154.936 327.084 153.799 328.555 152.784ZM195.683 99.693C196.329 99.7429 196.956 99.572 197.378 98.9868C197.94 98.2065 197.248 97.7681 196.776 97.3109C195.737 96.3264 194.618 95.4925 193.21 95.1017C192.121 94.7625 190.987 94.3615 190.328 93.384C189.838 92.706 189.339 92.0812 188.573 92.774C187.94 93.3249 188.005 93.9343 188.452 94.8775C189.856 97.9896 193.225 98.0439 195.683 99.693ZM305.502 161.255C306.022 161.067 306.649 160.896 307.249 160.557C308.818 159.613 310.298 158.545 311.867 157.601C317.121 154.421 322.42 151.303 327.629 148.062C327.991 147.848 329.107 148.355 328.695 147.2C328.337 146.38 327.765 146.886 327.199 147.012C325.204 147.561 323.761 149.07 322.069 150.103C316.47 153.391 310.881 156.625 305.282 159.913C305.036 160.091 304.772 160.375 304.729 160.64C304.669 161.011 305.085 161.133 305.502 161.255ZM281.229 190.76C281.354 190.998 281.488 191.183 281.666 191.429C288.578 187.428 295.321 183.128 301.707 178.335C301.574 178.15 301.449 177.912 301.315 177.727C294.617 182.089 287.919 186.451 281.229 190.76ZM313.869 166.798C314.338 166.928 314.534 167.069 314.595 167.024C320.202 163.684 325.817 160.29 331.477 156.958C332.077 156.619 332.747 156.183 332.266 155.452C331.784 154.721 331.114 155.157 330.506 155.549C327.306 157.482 324.471 159.855 321.218 161.779C318.749 163.231 315.961 164.305 313.869 166.798ZM306.137 162.718C308.835 162.882 321.712 154.673 323.228 152.033C317.234 155.746 311.716 159.21 306.137 162.718ZM259.552 205.55C255.304 208.239 250.557 210.303 246.923 213.908C251.484 211.65 255.776 209.023 259.552 205.55ZM245.769 211.272C250.254 209.818 253.668 206.559 257.814 204.507C258.228 204.302 258.783 203.901 258.436 203.355C258.035 202.801 257.577 203.271 257.154 203.529C254.854 204.954 252.411 206.247 250.235 207.91C248.746 209.031 246.626 209.341 245.769 211.272ZM278.182 193.098C274.444 195.325 270.216 196.875 267.36 200.387C271.285 198.354 275.067 196.188 278.182 193.098ZM299.973 155.68C300.003 154.814 296.449 151.518 295.716 151.672C294.983 151.825 294.109 152.174 294.822 153.16C295.721 154.34 296.603 155.626 297.705 156.566C298.895 157.629 299.383 156.292 299.973 155.68ZM35.478 190.86C33.1791 192.611 32.4197 197.987 34.2163 201.707C32.711 197.871 35.9847 194.807 35.478 190.86ZM204.262 98.1934C204.24 95.6312 203.135 94.0374 201.669 92.6573C201.385 92.3936 201.065 92.0153 200.58 92.318C200.095 92.6208 200.407 93.0522 200.453 93.4408C200.871 95.5769 201.975 97.1708 204.262 98.1934ZM187.564 99.3614C189.013 95.7848 184.731 95.3109 184.555 92.0161C183.558 95.829 185.988 97.3104 187.564 99.3614ZM324.522 162.912C324.656 163.097 324.736 163.273 324.87 163.458C327.484 162.791 329.615 161.067 331.899 159.748C332.198 159.579 332.222 159.093 331.983 158.891C331.787 158.75 331.301 158.726 331.116 158.859C328.885 160.187 326.708 161.523 324.522 162.912ZM63.104 180.732C63.9863 180.33 65.456 180.677 65.7919 178.934C65.8776 178.404 65.7851 177.627 65.2387 177.974C64.2074 178.624 62.4174 177.899 61.9667 179.678C61.6891 180.722 62.4309 180.515 63.104 180.732ZM135.515 250.569C135.428 250.773 135.349 250.924 135.262 251.127C136.601 251.942 137.941 252.758 139.28 253.573C139.679 253.801 140.02 254.727 140.635 253.955C141.188 253.228 140.69 252.603 140.078 252.341C138.563 251.606 137.012 251.083 135.515 250.569ZM323.383 163.218C322.139 163.833 320.896 164.449 319.697 165.126C319.273 165.385 318.71 165.838 318.915 166.252C319.371 167.142 319.888 166.301 320.303 166.095C321.423 165.569 322.437 165.025 323.566 164.445C323.919 164.284 324.121 164.045 324.013 163.701C323.933 163.524 323.623 163.42 323.383 163.218ZM49.9664 208.769C52.3217 209.368 53.8649 211.958 56.6742 211.432C54.581 210.223 52.5136 208.854 49.9664 208.769ZM324.648 158.087C326.164 157.134 327.688 156.128 329.76 154.775C326.966 154.868 325.486 155.936 324.648 158.087ZM189.866 99.951C189.145 102.393 189.407 103.47 191.19 104.574C191.031 102.861 191.411 101.18 189.866 99.951ZM83.1875 193.013C81.663 192.331 80.4178 190.933 78.1841 191.606C79.7838 193.171 81.3512 193.588 83.1875 193.013Z" fill="#36372F"/>
<path d="M137.496 135.097C135.97 134.089 135.237 134.243 135.175 135.975C135.112 137.38 133.756 138.685 134.87 140.226C135.092 140.534 135.166 141.09 135.67 141.008C136.165 140.98 136.446 140.589 136.302 140.131C136.069 139.549 136.509 139.184 136.578 138.76C136.777 137.867 136.831 136.514 137.707 136.492C138.795 136.505 139.492 137.924 139.611 138.869C139.767 139.928 140.248 140.659 141.148 141.839C139.748 141.395 138.989 141.708 139.253 143.112C137.655 141.874 139.378 139.974 137.886 138.753C136.516 140.492 137.04 142.645 136.387 144.663C133.852 143.491 133.934 140.619 132.722 138.681C130.35 134.814 128.577 130.608 126.567 126.527C126.191 125.813 125.249 124.899 126.264 124.355C127.454 123.731 127.065 125.465 127.713 125.841C127.863 125.92 127.952 126.043 128.591 126.473C127.345 121.372 131.783 121.218 134.25 119.439C135.8 118.274 137.698 117.655 138.901 115.944C139.19 115.501 139.852 115.118 140.355 115.036C145.02 114.156 148.158 110.58 152.287 108.634C156.53 106.652 160.425 104.123 164.179 101.463C168.047 98.7674 172.684 97.72 176.544 95.077C177.46 94.4629 177.923 94.9731 178.421 95.598C180.406 98.1507 182.436 100.765 184.421 103.318C186.54 106.055 188.526 108.935 190.892 111.494C191.354 112.005 192.25 112.53 191.954 113.353C191.631 114.336 190.691 113.748 190.02 113.858C188.103 114.256 186.766 115.782 185.144 116.718C180.683 119.372 176.115 121.683 171.654 124.338C166.347 127.509 160.834 130.266 155.669 133.569C155.123 133.916 153.996 134.823 153.273 133.563C152.506 132.241 153.857 131.97 154.518 131.586C161.129 127.428 167.962 123.578 174.921 119.966C179.145 117.763 183.253 115.269 187.486 113.013C188.624 112.38 188.48 111.921 187.901 111.12C184.705 106.956 181.509 102.793 178.428 98.5932C177.804 97.7304 177.265 97.6977 176.586 98.1869C173.996 100.055 171.164 101.394 168.199 102.548C167.617 102.781 166.539 103.042 166.765 104.004C166.919 104.737 167.777 104.821 168.432 104.818C171.43 104.812 173.43 106.932 175.78 108.237C177.784 109.323 176.981 111.262 176.989 112.896C176.963 114.743 175.458 114.282 174.425 114.605C171.043 115.638 168.335 113.513 165.447 112.502C162.355 111.403 159.159 110.615 155.99 109.994C154.883 109.761 154.039 110.604 153.299 111.138C146.866 115.543 139.728 118.582 132.751 121.973C131.745 122.464 131.464 122.854 132.177 123.84C134.537 127.107 135.513 131.184 137.496 135.097ZM165.802 105.917C163.915 105.123 161.655 105.955 159.461 107.397C158.729 107.878 158.123 108.597 159.495 108.873C163.62 109.648 167.222 111.972 171.18 113.101C172.323 113.449 174.377 113.89 175.069 112.64C175.848 111.188 174.903 109.619 173.43 108.619C172.986 108.33 172.525 108.147 172.144 107.813C170.563 106.469 168.459 106.673 165.802 105.917ZM130.984 129.201C130.539 126.897 132.331 124.573 130.305 122.613C128.377 127.8 128.988 131.437 132.388 134C132.296 131.536 133.327 129.198 132.466 126.772C131.239 127.282 131.979 128.436 130.984 129.201ZM133.903 131.033C132.524 134.512 132.546 135.387 133.943 137.191C133.942 135.177 134.941 133.378 133.903 131.033Z" fill="#36372F"/>
<path d="M82.5882 182.901C84.3526 182.098 85.704 183.514 86.9099 184.144C95.447 188.299 104.063 192.304 112.679 196.309C121.144 200.235 129.635 204.001 138.012 208.131C142.853 210.546 147.694 212.961 152.675 215.181C153.384 215.513 154.314 215.827 153.958 217.022L153.773 217.155C151.632 216.918 150.085 215.362 148.197 214.567C140.22 210.992 132.296 207.426 124.398 203.7C116.952 200.211 109.743 196.27 102.28 192.887C95.5787 189.845 88.8778 186.803 82.5882 182.901Z" fill="#36372F"/>
<path d="M175.356 208.663C178.708 207.135 181.423 205.505 184.609 207.708C185.488 208.339 186.528 207.636 187.24 206.935C187.454 207.296 187.597 207.428 187.579 207.534C187.276 210.425 187.284 210.372 184.677 208.971C182.922 208.034 180.904 207.708 179.434 209.049C177.973 210.337 178.526 212.985 180.091 214.763C180.412 215.141 181.378 215.569 180.691 216.111C180.065 216.609 178.918 216.968 178.236 216.804C177.244 216.535 178.488 215.919 178.442 215.53C178.284 214.144 176.626 213.277 177.034 211.765C177.31 210.394 176.916 209.459 175.356 208.663Z" fill="#36372F"/>
<path d="M79.2168 225.361C81.1284 225.67 82.8653 226.386 84.5577 227.041C89.0678 228.803 93.4203 230.867 97.7984 232.772C98.2061 232.947 98.6669 233.13 98.5367 233.599C98.3807 234.227 97.8857 234.256 97.3273 234.003C95.2358 233.121 93.0484 232.495 91.1505 231.426C88.1084 229.683 84.7785 228.709 81.5445 227.479C80.4637 227.087 79.6912 226.472 79.2168 225.361Z" fill="#36372F"/>
<path d="M151.557 135.738C150.845 136.44 150.363 137.396 149.683 137.558C147.422 138.064 145.758 139.592 143.8 140.582C143.148 140.912 142.415 141.066 141.961 140.503C141.382 139.702 142.317 139.308 142.749 138.997C145.12 137.475 147.535 136.014 149.897 134.544C150.321 134.286 150.692 134.346 151.013 134.725C151.182 135.024 151.343 135.377 151.557 135.738Z" fill="#36372F"/>
<path d="M188.935 217.062C188.241 216.296 186.745 216.109 187.083 214.694C187.421 213.279 188.425 212.461 190.062 212.78C191.593 213.081 191.838 214.264 191.703 215.44C191.65 217.119 189.949 216.518 188.935 217.062Z" fill="#36372F"/>
<path d="M109.758 238.68C113.011 240.131 116.647 240.555 119.612 242.776C116.176 241.785 112.635 241.104 109.758 238.68Z" fill="#36372F"/>
<path d="M150.242 227.526C153.632 228.128 156.935 228.934 159.836 230.872C156.359 230.474 153.24 229.208 150.242 227.526Z" fill="#36372F"/>
<path d="M188.094 246.215C185.697 247.897 183.453 249.984 180.226 250.061L180.27 250.123C180.717 249.379 181.209 248.696 181.656 247.952L181.541 247.987C182.364 247.957 183.15 247.812 183.945 247.614C185.367 247.244 186.448 245.949 188.085 246.268L188.094 246.215Z" fill="#36372F"/>
<path d="M153.904 217.011C155.406 216.818 157.115 217.367 158.301 215.762C158.652 215.274 159.204 215.907 159.479 216.224C159.853 216.611 159.58 216.948 159.255 217.277C157.883 218.688 155.168 218.631 153.772 217.153L153.904 217.011Z" fill="#36372F"/>
<path d="M97.3062 230.789C100.098 232.056 102.899 233.271 105.691 234.538C105.603 234.742 105.507 234.999 105.367 235.194C102.155 234.838 100.107 232.003 96.9738 231.497C97.0697 231.24 97.1657 230.984 97.3062 230.789Z" fill="#36372F"/>
<path d="M180.211 222.132C176.375 220.914 175.341 219.222 177.153 217.446C177.093 219.505 179.104 220.211 180.211 222.132Z" fill="#36372F"/>
<path d="M149.907 222.516C147.752 221.352 147.557 219.524 147.86 218.321C148.121 217.383 149.853 217.118 150.841 218.421C150.423 219.66 148.82 217.441 148.582 219.254C148.508 220.385 149.616 220.945 149.907 222.516Z" fill="#36372F"/>
<path d="M139.563 248.774C137.609 248.731 135.654 248.687 134.389 246.741C136.126 247.457 137.818 248.111 139.563 248.774Z" fill="#36372F"/>
<path d="M126.005 244.026C124.636 242.716 122.296 243.372 120.914 241.135C123.006 242.017 124.689 242.724 126.373 243.432C126.241 243.574 126.101 243.769 126.005 244.026Z" fill="#36372F"/>
<path d="M181.653 247.948C180.374 248.449 179.094 248.95 177.761 249.442C180.535 247.114 183.175 244.601 187.065 244.467C185.535 246.18 183.104 246.386 181.539 247.984C181.592 247.992 181.653 247.948 181.653 247.948Z" fill="#36372F"/>
<path d="M300.063 141.652C298.779 143.187 297.008 142.683 295.453 142.868C294.675 142.96 294.521 142.227 294.943 141.642C295.355 141.11 295.91 140.71 296.323 140.177C296.789 139.654 297.166 139.007 296.783 138.346C296.221 137.439 295.678 138.44 295.166 138.575C290.802 139.612 286.45 140.923 281.974 138.948C279.891 138.013 278.546 136.217 277.414 134.456C276.666 133.355 277.161 131.638 278.696 130.906C280.231 130.174 281.733 129.981 283.031 131.389C283.636 132.031 283.418 132.703 283.006 133.236C282.531 133.812 282.139 133.204 281.819 132.826C281.089 131.946 280.082 132.11 279.395 132.652C278.708 133.195 279.225 134.04 279.609 134.701C281.073 137.442 283.884 138.93 287.224 138.49C290.123 138.087 292.994 137.516 295.909 137.007C296.527 136.89 297.19 136.833 297.293 136.197C297.388 135.613 296.759 135.457 296.307 135.221C295.349 134.739 294.762 133.991 294.03 132.784C295.298 133.37 296.317 133.807 297.328 134.297C298.09 134.638 298.941 135.102 299.69 134.515C300.509 133.831 299.409 133.218 299.406 132.564C299.404 132.237 299.349 131.901 299.25 131.504C300.24 131.446 300.087 132.728 300.963 132.706C301.955 131.288 301.33 130.098 300.501 128.821C301.436 130.115 303.517 130.724 302.547 133.017C302.032 134.186 302.547 134.704 303.794 134.743C306.006 134.882 308.191 135.181 310.386 135.426C311.403 135.536 311.662 135.959 311.233 136.924C310.325 139.173 307.13 140.399 305.442 138.71C304.215 137.532 302.836 137.636 301.534 137.263C300.126 136.872 297.231 139.616 296.974 141.208C296.863 141.898 297.324 142.081 297.906 141.848C298.762 141.606 299.326 141.152 300.063 141.652ZM302.694 135.817C304.429 136.206 305.563 138.295 307.77 137.453C308.237 137.257 308.813 137.404 308.765 136.689C308.717 135.973 308.126 136.259 307.71 136.137C306.045 135.65 304.418 135.605 302.694 135.817Z" fill="#36372F"/>
<path d="M288.562 125.798C288.122 126.163 287.748 125.776 287.455 125.565C285.989 124.185 285.1 124.967 284.966 126.47C284.834 128.299 283.712 128.499 282.482 128.355C280.881 128.151 279.399 127.204 279.382 125.622C279.367 124.367 279.658 122.564 281.566 122.219C283.881 121.721 287.303 123.472 288.562 125.798Z" fill="#36372F"/>
<path d="M272.614 123.008C274.328 122.85 275.151 122.819 275.538 124.134C275.889 125.334 275.902 126.261 274.234 126.808C274.474 125.323 274.237 124.087 272.614 123.008Z" fill="#36372F"/>
<path d="M96.5295 220.046C99.2086 219.989 101.444 221.33 103.722 222.405C110.166 225.351 116.461 228.546 123.088 231.032C124.063 231.407 124.941 232.039 125.328 233.353C122.67 232.271 119.924 231.392 117.398 230.167C111.795 227.411 106.087 224.965 100.354 222.678C98.9189 222.119 97.3859 221.491 96.2657 220.33C96.3445 220.179 96.4062 220.135 96.5295 220.046Z" fill="#36372F"/>
<path d="M96.2786 220.278C91.133 218.739 86.4774 216.191 81.6813 213.838C79.7662 212.875 77.1676 213.108 75.9088 210.782C77.2142 210.122 78.0072 211.284 78.8756 211.642C84.4768 214.071 89.9547 216.589 95.4856 219.116C95.8933 219.291 96.5305 219.394 96.5339 220.047C96.4105 220.136 96.3489 220.181 96.2786 220.278Z" fill="#36372F"/>
<path d="M105.19 220.414C108.481 220.619 110.951 222.869 113.909 223.782C115.255 224.218 116.778 224.572 118.265 226.5C113.364 224.457 108.787 223.445 104.997 220.601C105.005 220.548 105.19 220.414 105.19 220.414Z" fill="#36372F"/>
<path d="M57.3046 201.789C60.9479 203.521 64.8277 204.801 67.885 207.799C64.2417 206.067 60.5453 204.327 56.9019 202.595C57.051 202.347 57.2086 202.046 57.3046 201.789Z" fill="#36372F"/>
<path d="M78.4791 217.458C76.7953 216.751 74.6832 217.008 73.116 214.904C75.5227 215.184 76.8912 216.494 78.4791 217.458Z" fill="#36372F"/>
<path d="M219.47 236.476C221.277 233.72 224.616 232.952 227.011 230.944C228.332 229.851 229.884 229.013 231.355 227.998C231.787 227.687 232.201 227.482 233.018 228.158C228.32 230.938 224.546 234.738 219.47 236.476Z" fill="#36372F"/>
<path d="M182.666 235.594C182.616 236.239 182.309 236.788 181.789 236.977C177.623 238.481 174.296 241.537 170.21 243.218C169.451 243.531 168.754 243.799 167.471 243.646C172.417 240.689 176.814 237.752 181.595 235.475C181.931 235.421 182.286 235.587 182.666 235.594Z" fill="#36372F"/>
<path d="M184.338 238.424C181.257 240.974 177.863 243.094 174.022 244.27C175.239 241.799 177.925 241.362 179.962 240.221C181.284 239.455 182.389 237.673 184.338 238.424Z" fill="#36372F"/>
<path d="M283.529 154.926C284.373 154.083 285.949 154.446 285.809 152.953C285.735 152.397 285.634 151.673 284.882 151.606C283.431 151.481 283.387 153.107 282.427 153.986C281.773 152.302 281.943 150.914 283.31 150.209C284.5 149.585 285.907 149.648 286.957 150.907C288.132 152.403 287.936 153.95 286.847 155.299C285.661 156.904 284.794 155.185 283.529 154.926Z" fill="#36372F"/>
<path d="M182.085 255.045C182.162 254.568 182.568 254.416 182.93 254.202C187.55 251.573 192.34 249.243 197.174 246.976C197.412 246.851 197.784 246.911 198.191 247.086C195.214 249.327 192.023 251.207 188.598 252.504C186.4 253.293 184.74 255.474 182.085 255.045Z" fill="#36372F"/>
<path d="M197.728 250.328C193.651 253.644 188.645 255.285 184.157 257.772C183.742 257.977 183.025 257.698 182.432 257.657C187.025 254.86 191.984 252.83 196.791 250.395C197.038 250.217 197.401 250.33 197.728 250.328Z" fill="#36372F"/>
<path d="M182.043 254.98C180.719 257.107 178.047 256.785 176.258 258.074C177.939 256.441 179.558 254.851 182.043 254.98Z" fill="#36372F"/>
<path d="M203.389 247.654C201.787 249.137 199.927 250.198 197.664 250.376C199.23 248.778 201.126 247.833 203.389 247.654Z" fill="#36372F"/>
<path d="M329.758 164.573C328.6 166.345 326.604 166.894 324.84 167.698C326.087 166.048 328.199 165.791 329.758 164.573Z" fill="#36372F"/>
<path d="M176.565 247.726C176.995 245.4 179.358 245.618 180.803 244.763C184.048 242.891 186.935 240.2 190.768 239.404C190.754 240.164 190.395 240.705 189.697 240.973C185.382 242.726 181.701 245.615 177.519 247.553C177.22 247.722 176.848 247.662 176.565 247.726Z" fill="#36372F"/>
<path d="M174.602 246.756C176.173 244.451 178.867 243.96 181.045 242.625C179.438 244.815 176.788 245.367 174.602 246.756Z" fill="#36372F"/>
</svg>
