<svg width="207" height="235" viewBox="0 0 207 235" fill="none" xmlns="http://www.w3.org/2000/svg">
<path d="M50.8144 201.007C52.943 194.894 53.4314 188.444 54.6617 182.155C55.7701 176.517 56.8132 170.905 58.1689 165.321C58.0493 170.307 56.6988 175.135 55.7039 180.389C58.1642 178.105 59.7155 160.417 59.9654 154.512C58.9227 155.411 59.8047 156.988 58.0347 158.436C60.5059 149.927 59.5352 141.485 63.3229 133.929C62.6689 138.899 60.6278 143.695 61.5627 148.871C61.5737 142.646 64.1687 136.953 64.6204 131.083C65.4272 130.352 65.0139 133.53 66.2292 131.244C66.5132 130.718 67.1359 131.152 66.9517 132.318C66.5468 135.229 66.1674 138.205 65.5607 141.083C64.8378 144.722 63.6657 148.273 63.9718 152.037C64.0632 152.943 63.4242 153.91 63.0523 154.885C65.0189 154.228 65.0321 152.337 64.9376 150.941C64.7941 148.17 65.5289 145.62 66.0164 143.015C66.6996 139.467 67.8973 135.981 68.4241 132.419C68.5261 131.814 68.682 130.961 69.6827 131.398C71.9827 132.457 74.5123 132.37 76.9739 132.686C80.3792 133.199 83.5404 134.146 86.4604 136.017C94.2338 141.038 102.902 144.012 111.708 146.667C117.061 148.3 122.528 149.551 127.707 151.705C129.638 152.494 131.042 152.132 132.59 150.695C134.985 148.437 136.51 145.69 138.009 142.877C138.537 141.916 139.193 141.282 140.305 140.846C143.004 139.75 143.845 137.95 143.337 135.019C142.911 135.375 143.062 136.145 142.252 136.387C142.195 136.146 142.118 135.95 142.152 135.748C142.985 130.369 143.065 130.187 137.976 128.072C134.362 126.548 130.344 127.068 126.555 127.31C123.275 127.502 120.146 127.598 117.005 126.605C115.288 126.072 113.557 126.562 111.817 126.452C106.462 126.064 101.065 126.144 95.8425 124.459C93.4688 123.693 90.8226 123.675 88.2559 123.474C82.9406 122.995 78.4797 120.559 76.2831 115.915C74.8063 112.724 72.1415 109.772 72.6454 105.766C72.8181 104.379 73.102 103.853 74.6287 104.574C77.2926 105.792 80.1578 106.176 83.0853 106.047C85.2568 105.911 87.298 106.695 89.4129 107.185C100.275 109.6 110.847 113.297 121.782 115.419C127.914 116.634 134.133 117.401 140.429 117.496C142.254 117.535 144.016 118.088 145.815 118.061C146.526 118.046 147.45 118.287 147.094 116.994C145.619 111.691 146.588 106.372 146.802 101.047C146.804 100.669 146.585 100.302 146.451 99.8647C145.415 101.742 145.678 104.24 143.729 106.098C143.324 104.296 145.322 102.947 143.567 101.26C143.992 103.883 141.887 105.726 142.897 108.497C143.415 109.916 141.58 112.256 140.629 114.062C139.862 115.569 138.638 116.389 136.824 115.705C137.329 113.433 139.224 111.823 139.254 109.398C137.976 111.332 137.457 113.76 135.394 115.134C135.919 113.684 136.393 112.103 137.424 110.983C138.791 109.467 136.712 108.396 137.229 107.213C137.845 105.803 138.825 104.552 138.329 102.71C137.017 103.979 137.771 106.096 135.887 107.061C136.074 105.517 136.767 104.303 136.362 102.501C135.591 106.498 133.518 109.385 131.925 112.536C132.751 110.025 133.577 107.514 134.556 104.529C133.388 105.59 133.301 106.906 132.235 107.362C131.641 106.614 132.553 105.767 131.978 104.974C131.151 105.751 131.414 107.382 129.984 107.679C130.364 106.436 131.583 105.506 131.125 103.951C130.116 104.648 130.185 105.979 129.165 106.454C128.494 105.511 129.818 104.464 128.771 103.14C128.567 105.218 127.587 106.469 126.38 107.621C127.12 109.028 125.386 113.742 123.936 114.084C123.76 114.116 123.351 113.937 123.37 113.891C123.399 113.579 123.401 113.201 123.592 113.013C124.887 111.412 125.676 109.481 126.491 107.616C126.244 107.562 126.042 107.528 125.814 107.428C124.315 109.374 124.151 112.228 121.639 113.514C123.23 111.609 122.589 108.241 125.795 107.474C127.797 104.502 127.797 104.502 127.503 102.694C126.35 105.333 126.351 105.333 124.702 106.13C125.219 104.947 125.656 103.946 126.272 102.536C124.829 103.856 124.984 105.982 122.869 106.359C123.292 104.647 124.201 103.31 124.049 101.673C123.561 103.41 122.729 104.943 121.579 106.337C121.244 106.732 121.09 107.207 121.878 107.388C122.469 107.647 123.487 107.549 122.99 108.687C122.334 110.188 121.749 111.775 120.011 113.399C120.706 110.94 122.137 109.398 121.898 107.343C120.679 109.14 120.271 111.562 118.157 112.806C118.537 111.564 119.009 110.361 119.687 109.303C120.426 108.109 120.215 106.608 121.2 105.467C121.956 104.605 122.876 103.49 122.085 101.953C120.813 104.865 120.813 104.865 119.433 105.67C119.375 104.562 120.367 103.532 119.749 102.341C118.928 103.229 119.247 105.102 117.448 105.129C117.423 105.93 116.588 106.974 118.302 107.018C118.745 106.995 119.487 107.157 119.274 107.768C118.721 109.531 118.077 111.254 116.213 113.04C116.32 110.812 117.871 109.864 117.714 108.116C116.493 109.424 116.161 111.176 114.268 111.541C116.177 109.774 115.65 106.889 117.448 105.129C118.022 104.187 118.687 103.286 118.058 101.873C117.2 103.341 117.122 105.257 115.092 105.562C115.106 104.539 116.615 104.06 115.821 102.901C114.568 103.166 114.842 105.019 113.401 105.094C113.272 103.9 114.557 102.944 113.615 101.504C112.875 104.81 110.002 106.427 108.861 109.287C108.396 105.888 113.091 104.688 111.935 100.391C110.982 104.308 108.521 106.593 106.957 109.431C106.759 106.039 110.467 104.246 110.508 100.309C108.628 103.497 107.052 106.113 105.297 109.139C104.871 105.648 108.603 104.299 108.047 100.859C107.419 102.048 107.087 102.932 106.249 103.487C105.987 102.723 106.99 101.915 105.898 101.438C105.165 101.876 105.294 103.07 104.302 103.233C103.594 102.869 104.747 101.964 103.974 101.627C101.235 102.814 102.297 106.583 99.0915 108.216C100.019 105.1 102.374 102.932 101.921 99.7547C100.932 100.406 101.114 101.353 100.725 101.995C99.4474 103.929 99.719 101.448 99.1391 101.411C97.423 102.612 97.7909 104.994 95.9272 106.78C96.5711 104.19 97.022 102.166 95.3328 100.453C93.2187 101.696 94.7468 105.018 92.2945 106.168C91.5207 104.964 92.9728 104.243 92.8045 103.141C91.5057 103.386 91.9615 105.319 90.637 105.499C89.8832 104.248 91.6223 103.491 91.1555 102.204C89.945 102.867 90.3866 104.956 88.2011 105.247C89.3117 103.945 88.5464 102.473 90.183 101.454C91.3679 100.725 89.3978 100.027 89.0052 99.314C88.5216 98.561 88.2465 99.6869 87.9312 100.037C86.9256 101.223 87.0944 103.193 85.4891 104.388C85.3089 102.196 86.9994 100.93 87.4362 99.062C84.907 100.016 85.5195 102.83 83.7694 104.232C83.4638 101.336 85.4184 99.5893 86.881 97.3568C85.5707 97.3804 85.6851 98.7306 84.6447 98.3845C84.6672 97.9609 84.7096 97.4918 84.7462 96.9119C83.8343 97.7596 83.1498 98.7067 81.7428 98.5797C81.8704 98.0395 81.9781 97.5448 82.1256 96.9591C81.1139 97.1673 80.9726 98.7309 79.7246 98.2399C79.6786 97.353 81.2645 97.0705 80.5106 95.8203C79.7435 96.4604 79.4543 97.7426 78.1581 97.6098C77.9302 96.6435 79.3598 96.3469 78.9102 95.3921C78.0945 95.5234 77.9161 96.7998 76.9269 96.5844C76.574 95.7802 77.5602 95.5067 77.5853 94.705C75.1476 96.5657 72.8247 95.0635 70.394 94.0559C70.5737 95.3805 72.8105 95.2198 71.5236 96.5539C70.8674 97.1882 69.5911 97.01 68.9627 96.4646C68.2177 95.8141 68.76 94.6966 69.4078 94.3295C72.7182 92.579 75.9204 90.4563 80.0964 91.6844C83.3485 92.6715 86.0154 94.3782 88.2792 96.884C88.4925 97.1397 88.5667 97.7139 89.1691 97.3269C90.4135 96.4619 91.9486 96.9157 93.0686 97.0798C100.121 98.0474 107.027 97.4885 113.97 96.3498C116.307 95.9616 118.74 95.7241 121.079 95.8249C123.483 95.9001 125.825 95.6228 128.219 95.4762C130.566 95.3098 132.9 95.2998 135.222 95.935C137.05 96.4625 138.972 96.6517 140.91 96.3065C141.373 96.238 141.828 96.4366 142.283 96.6353C143.622 97.166 144.907 97.9441 146.416 97.4655C146.991 98.2583 146.28 99.14 146.718 99.8731C147.119 99.4521 147.591 99.1163 147.966 98.63C148.755 97.5663 148.968 96.955 147.251 96.4217C144.201 95.4686 141.074 95.1864 137.947 94.9041C128.607 93.9665 119.284 93.3615 109.885 95.1614C104.207 96.2567 98.3632 95.8711 92.6557 95.5451C90.0037 95.416 87.641 94.0048 85.6135 92.1982C83.1908 90.0564 80.8334 87.889 78.3056 85.8638C77.3331 85.114 77.6255 84.3207 77.6904 83.428C78.1421 77.5576 80.0521 71.9449 80.8165 66.1027C82.1727 55.8056 84.1542 45.565 85.1067 35.2C85.9718 26.1512 88.4771 17.4396 89.7913 8.47861C90.0775 6.70744 90.8693 4.39866 89.2799 3.32517C87.8269 2.31129 86.0741 4.09196 84.4799 4.64164C79.717 6.2452 79.0484 10.504 78.4792 14.5353C76.6443 28.0363 73.8913 41.4072 71.7893 54.9C71.1887 58.755 69.8519 62.5594 70.1951 66.61C70.3466 68.2473 69.5203 69.8909 69.0151 71.2955C67.6386 75.1909 70.2128 78.9699 68.7851 82.7346C68.6857 82.9621 68.6517 83.1639 68.5126 83.4824C67.685 82.525 68.2984 81.4927 68.1302 80.3898C67.1506 82.5082 64.9536 82.5779 63.5245 83.7415C62.692 84.4072 61.6719 84.8826 61.6043 86.1534C61.4984 90.1161 59.5561 93.8186 60.2376 97.9627C60.4686 99.418 60.8444 100.666 61.7232 101.754C63.0287 103.353 63.0976 104.684 61.0175 105.726C59.6507 106.375 59.5889 107.756 59.0267 108.919C57.678 111.635 59.6437 114.823 57.5018 117.246C57.0615 117.758 57.5138 118.335 57.5226 118.935C57.4895 120.871 58.8064 122.692 57.9121 124.739C57.7333 125.149 58.2027 126.058 58.6691 126.479C60.7081 128.507 59.865 130.685 59.2693 132.917C58.5998 135.442 57.2993 137.799 57.7016 140.846C58.5928 138.31 60.3142 136.353 60.671 133.8C59.2499 139.41 58.2324 145.087 55.7965 150.416C57.135 150.08 57.9595 150.548 58.2104 151.958C58.5464 147.716 58.837 143.455 60.2731 139.423C59.9393 142.42 59.7618 145.43 59.5189 148.466C59.3891 150.251 59.518 152.312 57.6257 153.544C57.3974 157.291 56.629 160.91 55.7299 164.581C53.8694 172.437 52.8418 180.493 51.274 188.423C50.7468 191.118 51.0325 194.06 49.2232 196.466L49.2174 196.355C50.4147 197.582 48.8209 198.999 49.6118 200.536C51.9157 192.658 52.2981 184.59 54.568 176.913C54.6537 177.709 54.5831 178.491 54.4669 179.253C53.3536 186.514 51.7457 193.667 51.1014 200.97L50.8144 201.007ZM79.4788 57.0127C78.785 56.493 78.7903 55.7368 78.9065 54.9749C79.609 50.5143 80.3315 46.0082 81.0341 41.5475C81.2523 40.1801 81.334 38.753 82.3453 37.6778C82.0427 35.2702 83.1273 33.0352 83.2483 30.6501C83.6453 23.293 83.7553 15.973 85.0902 8.70058C85.2744 7.53497 85.6975 6.69041 86.7375 6.16952C87.1694 5.92477 87.6609 5.54353 88.0959 5.78771C88.693 6.15687 88.3039 6.79957 88.2218 7.35963C86.4266 15.1895 84.9243 23.0932 84.0274 31.0987C83.8123 32.9551 83.5774 34.857 83.3424 36.7589C83.2802 37.2735 83.3204 38.0495 82.3908 37.6977C82.0644 44.273 79.7853 50.4829 79.3936 57.0838C78.997 59.7278 78.3076 62.298 78.4256 65.0042C78.6243 64.5492 78.914 64.134 79.4285 64.1962C79.8949 70.1968 77.8542 75.8607 76.7316 81.6548C76.2131 79.3697 76.5218 77.1749 77.2085 74.9828C78.1421 71.9774 78.763 68.9439 78.3748 65.7405C77.3869 68.1261 78.0847 70.8688 76.5112 73.1071C76.8353 67.7768 77.5176 62.4947 79.118 57.3427C79.1321 57.1863 79.3737 57.1293 79.4788 57.0127ZM72.079 65.6451C71.6785 66.0661 71.8808 66.9671 70.7069 67.0503C71.5999 62.4019 72.4531 57.8445 73.3062 53.2872C73.7329 53.7986 73.645 54.2478 73.6225 54.6714C73.1468 58.3643 72.0459 62.0008 72.1303 65.7758C72.4482 65.0479 72.7662 64.32 73.1835 63.3645C73.8354 65.2204 72.8983 66.8698 73.3567 68.4244C74.319 65.9734 73.9992 63.2332 75.2799 60.9213C75.1368 64.597 74.6555 68.1791 74.4413 71.7695C74.3031 73.822 73.9772 75.6842 72.227 77.0868C71.4043 74.5062 74.3477 72.1078 72.8285 69.3856C71.0956 76.7009 70.1444 84.0868 69.3495 91.4868C68.593 90.6146 68.7887 89.6707 68.8792 88.8434C69.247 85.6452 69.7257 82.4412 70.1391 79.2628C70.1956 78.6374 70.2777 78.0773 70.0415 77.3782C68.9913 74.6982 69.5243 72.1139 70.6398 69.188C71.3371 71.0637 70.3886 72.4914 70.6451 74.012C71.7068 71.3335 72.163 68.5531 72.079 65.6451ZM93.1513 130.868C90.8805 131.23 91.4648 134.357 89.2311 135.007C89.5111 132.257 91.4317 130.713 93.2953 128.926C89.8533 128.994 90.0966 132.405 88.1959 133.904C87.9822 132.782 89.0363 132.104 88.581 131.039C87.4557 131.631 87.6329 133.333 86.3654 133.755C85.4411 132.647 87.348 132.125 86.7818 131.065C84.4465 133.187 86.338 130.221 85.7184 130.276C83.1548 130.565 84.9844 128.98 85.1434 128.616C85.8164 127.447 86.4139 128.683 86.8944 128.947C88.2449 129.7 89.4134 130.373 90.5608 128.49C88.9692 128.662 87.8943 127.651 86.6122 127.361C84.0482 126.783 84.53 129.648 83.1548 130.565C82.8359 129.558 83.6512 128.56 82.9543 127.551C82.2839 128.342 82.5233 129.53 81.5345 130.182C81.2752 129.039 81.9995 128.001 81.1463 126.978C80.6265 127.672 81.0363 128.718 80.1783 129.319C80.0528 128.614 79.9332 128.02 79.8077 127.315C79.1117 128.04 79.658 129.146 78.6975 129.484C78.1857 129.044 78.9611 128.137 78.077 127.805C77.4521 128.615 77.9644 129.923 76.9558 130.62C76.33 129.696 77.4835 128.792 76.6815 127.9C75.8491 128.565 76.387 129.938 75.1707 130.49C74.8603 129.217 76.1074 127.974 74.9358 126.812C74.2826 127.935 74.6103 129.541 73.1556 130.639C73.4731 129.044 73.6772 127.833 73.9607 126.44C72.2132 127.465 72.956 129.36 72.0074 130.788C70.7673 129.163 72.0683 127.672 71.897 126.081C71.1868 126.962 70.7837 127.761 70.9206 128.688C71.0433 129.771 70.8106 130.428 69.5144 130.295C68.2183 130.162 67.891 129.423 68.0752 128.258C68.2311 127.405 68.296 126.512 68.4461 125.548C67.1818 126.459 67.9984 128.062 66.9614 129.071C66.193 127.11 67.4883 125.509 67.6521 123.522C66.2345 124.907 66.2866 126.772 65.3835 128.22C64.7577 127.296 65.0501 126.503 64.7882 125.738C64.5356 126.441 64.283 127.143 63.9566 128.138C63.265 126.373 64.1739 125.037 64.1249 123.661C64.0904 122.996 63.9023 121.938 64.8032 121.736C66.102 121.491 65.5116 122.966 66.0548 123.583C66.5887 122.732 66.4376 121.962 66.4827 121.115C66.5215 119.29 64.6817 117.674 65.9143 115.72C66.0393 115.558 66.09 114.822 65.4135 114.634C64.6004 114.388 63.1356 112.285 63.2575 111.634C63.4699 110.156 64.2405 110.872 64.7523 111.312C65.8984 112.408 67.2687 113.115 68.6647 113.888C71.0216 115.188 73.6568 115.851 75.6958 117.88C77.3139 119.508 78.1136 121.645 80.229 123.002C81.5398 123.846 82.9843 125.127 84.3003 125.214C90.2353 125.639 95.9887 126.852 101.79 127.707C108.692 128.771 115.786 128.403 122.736 129.109C124.234 129.275 125.658 128.868 125.119 131.341C126.258 130.593 125.615 129.337 126.434 128.828C127.556 128.614 126.665 130.283 127.585 130.035C128.768 129.685 128.762 129.574 128.694 130.844C128.658 131.424 128.308 131.976 128.826 132.527C129.718 131.725 129.297 130.458 129.74 129.567C130.347 128.424 131.732 128.975 132.724 128.812C134.446 128.589 133.273 130.407 133.856 130.932C134.68 130.534 133.847 129.465 134.691 129.021C135.291 129.879 135.115 130.778 134.894 131.656C134.539 132.964 136.278 132.207 136.37 133.114C138.023 130.693 136.797 134.492 137.669 133.735C138.72 132.569 137.963 130.83 138.926 129.246C139.572 130.991 138.493 132.47 139.107 134.039C140.235 133.068 139.399 131.511 140.532 130.652C141.289 131.524 140.388 132.594 140.918 133.366C141.662 133.15 140.979 131.985 142.491 131.995C140.528 137.855 136.104 142.153 134.035 148.13C133.529 146.934 134.413 146.399 133.849 145.828C133.247 146.215 133.384 147.141 132.366 147.239C131.939 145.86 133.198 144.839 133.268 143.19C132.732 144.418 132.289 145.309 131.937 146.238C131.585 147.168 131.207 148.033 130.216 149.062C130.62 144.417 133.6 141.439 135.244 137.552C130.996 140.952 130.783 146.276 127.767 150.701C127.552 148.711 128.459 147.753 128.89 146.641C129.341 145.484 129.929 144.386 129.528 143.073C128.73 145.271 128.024 147.509 126.103 149.054C127.307 146.546 128.172 143.944 128.927 141.348C127.762 142.031 127.72 143.367 127.152 144.419C126.32 145.952 126.085 147.854 123.946 149.032C125.879 144.73 127.881 140.891 130.039 137.066C129.361 139.858 125.788 139.11 124.732 141.899C122.64 147.433 122.256 147.319 120.23 148.114C122.733 145.36 123.615 142.224 124.498 139.088C123.089 141.073 122.692 143.717 120.743 145.575C120.913 143.699 122.78 142.401 122.111 140.213C120.458 142.633 120.306 145.709 117.223 147.558C118.461 144.849 120.071 142.897 120.337 140.305C118.999 142.375 118.31 144.945 116.421 146.666C115.168 142.218 118.33 139.32 120.707 135.861C116.743 137.868 115.858 141.382 114.288 144.976C114.148 143.561 114.935 142.875 115.182 142.062C115.389 141.34 116.333 140.668 115.184 139.95L115.249 139.924C114.17 141.403 113.921 143.461 112.017 144.472C114.238 141.867 113.893 138.194 116.512 135.546C115.449 135.623 115.506 136.732 114.616 136.289C114.695 135.24 115.693 134.321 115.206 133.079C113.508 136.347 111.83 139.568 110.126 142.725C110.028 140.84 111.745 139.639 111.2 137.289C109.846 139.894 109.43 142.583 107.08 143.995C109.065 140.69 110.413 137.108 111.971 133.292C108.468 135.608 109.394 140.184 106.283 142.346C106.939 140.845 107.777 139.423 108.117 137.405C106.554 138.998 106.285 141.101 104.418 142.399C105.406 139.146 107.488 136.859 109.755 134.274C108.34 134.414 108.414 135.855 107.328 135.489C107.609 134.474 109.107 133.774 108.245 132.151C107.308 133.801 106.885 135.512 104.85 135.707C103.97 137.598 103.388 139.673 101.334 140.781C102.413 139.302 102.836 137.59 103.622 136.037C103.926 135.466 104.375 135.554 104.901 135.838C105.398 134.7 106.915 133.954 106.431 132.334C103.434 134.113 102.472 137.431 100.37 139.764C101.263 136.849 103.391 134.582 104.402 131.773C103.194 132.925 102.149 134.202 101.24 135.539C100.397 136.85 100.267 138.635 98.593 139.367C99.9077 136.853 100.722 134.121 102.856 131.964C101.397 131.707 101.222 133.472 100.045 133.066C99.6114 135.423 99.0611 137.675 96.5633 138.805C98.2821 137.226 98.5793 134.81 100.071 133.132C100.329 132.54 100.587 131.949 100.826 131.403C99.4851 132.984 97.821 130.47 96.6821 132.085C96.1813 130.999 97.3322 130.473 96.9793 129.669C96.0157 129.519 96.0762 131.116 94.9902 130.75C94.7398 130.207 95.5582 129.698 94.9496 129.107C94.2934 129.741 93.7025 130.35 93.0462 130.984C94.1419 133.684 91.9254 134.666 90.3259 135.972C91.7377 134.476 91.9868 132.418 93.1513 130.868ZM69.3955 97.9539C68.8859 101.849 68.4527 105.073 68.0194 108.296C68.8205 107.454 69.6927 106.698 70.5826 107.141C71.427 107.564 70.6374 108.627 70.6577 109.449C70.6608 109.938 70.5985 110.452 70.5561 110.921C70.44 111.683 70.5486 112.923 69.2807 112.477C68.3511 112.125 66.6032 112.283 66.9234 110.31C67.2236 108.382 67.3875 106.395 67.5769 104.473C67.656 103.424 68.2208 101.883 67.7487 101.352C65.795 99.2525 67.7191 99.0636 69.3955 97.9539ZM66.5196 93.5013C66.1981 92.8733 65.6633 91.9895 65.7485 91.9184C67.4589 90.6068 65.6854 90.699 65.1877 90.1023C64.3543 89.034 62.4156 88.5122 62.7927 86.7808C63.1301 85.1404 64.6219 84.3292 65.983 83.5693C66.4803 83.299 67.3812 83.0965 67.1401 84.0206C66.5019 86.7215 67.1626 89.1772 67.9597 91.6924C68.2927 92.5421 67.7133 93.3726 66.5196 93.5013ZM80.4837 21.4786C78.9028 31.2982 77.8818 41.2 75.3373 50.8696C76.9182 41.0499 77.9392 31.1482 80.4837 21.4786ZM75.4849 72.6046C75.0464 76.5846 75.3242 80.6608 72.4011 83.8807C71.3814 79.6429 74.4351 76.3718 75.4849 72.6046ZM78.2783 21.8155C78.4691 28.0749 76.7526 33.9888 75.2378 39.9367C76.2579 33.8811 77.2582 27.8711 78.2783 21.8155ZM63.9322 108.353C62.9898 105.178 63.6765 102.986 65.8246 101.541C66.3488 103.937 64.6472 105.848 63.9322 108.353ZM56.531 163.739C56.7783 163.793 57.0455 163.801 57.2473 163.835C56.4846 167.565 55.7021 171.341 54.9394 175.071C54.7376 175.037 54.5813 175.023 54.3993 174.943C55.0966 171.239 55.8138 167.489 56.531 163.739ZM126.48 140.875C125.691 143.673 125.09 146.661 122.288 148.362C124.103 146.067 124.847 143.25 126.48 140.875ZM144.887 108.283C144.598 111.299 143.005 113.583 140.905 115.537C142.362 113.194 143.248 110.547 144.887 108.283ZM77.4166 87.155C77.7637 87.8484 79.2162 87.9952 78.5688 89.2294C78.1656 90.0284 77.2731 89.9636 76.6164 89.731C75.4196 89.3707 76.0586 88.4038 76.2004 87.7072C76.2569 87.0818 76.6574 86.6608 77.4166 87.155ZM80.3375 101.921C79.7608 102.373 79.7727 103.462 78.4624 103.485C79.286 102.22 78.401 100.154 80.8454 100.138C81.3798 100.155 81.9852 100.257 81.6417 100.919C81.193 101.698 81.5034 102.972 80.1251 103.399C80.1618 102.819 80.2497 102.37 80.3375 101.921ZM110.863 143.643C111.697 141.732 112.552 139.775 113.386 137.865C113.371 140.133 112.627 142.084 110.863 143.643ZM102.437 141.479C103.525 139.733 104.638 138.052 105.726 136.306C105.696 138.731 104.517 140.437 102.437 141.479ZM82.3226 104.196C82.0952 104.097 81.8678 103.998 81.6205 103.944C81.8898 102.707 82.1791 101.425 82.494 100.208C82.6216 99.6679 83.1842 99.3718 83.659 99.525C84.2702 99.7378 84.0317 100.284 83.833 100.739C83.3163 101.922 82.8195 103.059 82.3226 104.196ZM126.98 114.06C128.458 112.538 128.442 110.093 130.65 108.511C129.778 111.002 128.807 112.853 126.98 114.06ZM81.7936 15.0078C81.7384 12.6541 81.9503 10.3088 83.379 8.27815C82.8486 10.4844 82.3438 12.756 81.7936 15.0078ZM97.3771 107.305C97.9733 105.94 98.5098 104.712 99.0464 103.483C99.2994 103.648 99.8197 103.821 99.8055 103.977C99.6982 105.339 98.974 106.377 98.0223 107.316C97.9569 107.342 97.866 107.302 97.3771 107.305ZM76.1128 66.7028C75.3585 64.5855 76.5001 62.592 76.7492 60.5337C77.0799 62.6286 76.5381 64.6131 76.1128 66.7028ZM65.303 93.1866C66.1222 94.4112 67.2651 95.0188 66.6689 96.3837C66.4901 96.7931 65.9499 96.6656 65.6059 96.4611C64.5028 95.7625 64.7183 94.7731 65.303 93.1866ZM113.137 111.155C113.102 109.623 114.139 108.613 114.363 107.356C114.391 107.044 114.758 106.825 115.096 106.918C115.545 107.006 115.497 107.364 115.358 107.683C114.73 108.871 114.492 110.284 113.137 111.155Z" fill="#36372F"/>
<path d="M54.9164 153.174C53.1606 160.046 51.8737 166.96 50.5215 173.9C48.7555 183.151 46.8076 192.323 44.9051 201.515C44.4401 203.695 43.5913 205.763 42.9245 207.909C42.4846 209.288 43.1131 209.834 44.4605 210.097C47.5077 210.561 48.7778 209.762 49.1827 206.85C49.4914 204.656 49.5908 204.428 50.5764 203.288C50.9668 205.246 50.0554 206.961 49.7948 208.797C53.6572 208.263 55.145 205.229 55.3879 202.193C55.7827 196.081 56.7176 190.096 57.4705 184.033C57.4988 183.72 57.4162 183.413 56.9754 183.058C56.4481 185.753 55.9209 188.448 55.4589 191.118C55.0028 193.898 54.6119 196.653 54.2012 199.453C53.8727 201.694 53.1992 201.995 50.7941 201.053L50.905 201.047C50.36 202.543 48.7366 201.671 47.8503 202.584C48.3409 200.469 48.1864 198.343 49.0864 196.407L49.0921 196.517C49.5068 190.36 51.1522 184.361 52.1723 178.305C53.1924 172.25 54.4599 166.248 55.6363 160.206C53.6685 163.843 53.861 167.991 52.4788 171.775C50.5202 182.459 48.5873 193.209 46.6288 203.893C46.3815 203.839 46.1342 203.785 45.9324 203.751C45.7014 202.296 46.1412 200.917 46.3991 199.458C47.7032 192.877 49.0073 186.295 50.3767 179.688C50.9495 177.013 50.8201 174.085 52.564 171.704C51.9042 170.983 52.2818 170.118 52.4633 169.331C52.897 166.974 53.5325 164.651 53.8553 162.3C54.2545 159.278 55.7025 156.335 54.9164 153.174Z" fill="#36372F"/>
<path d="M58.6234 176.68C59.8728 174.192 62.6518 161.753 62.866 158.163C61.6591 160.182 58.7691 172.626 58.6234 176.68Z" fill="#36372F"/>
<path d="M128.927 141.348C130.778 142.319 131.459 140.883 132.243 139.709C133.007 138.579 133.609 137.325 133.969 135.261C132.489 137.161 132.482 139.163 130.981 140.241C130.066 139.733 131.367 139.109 130.83 138.604C130.373 139.65 129.086 140.117 128.927 141.348Z" fill="#36372F"/>
<path d="M115.184 139.95C116.371 137.976 119 136.795 118.382 133.87C117.74 136.082 115.638 137.547 115.25 139.924L115.184 139.95Z" fill="#36372F"/>
<path d="M166.156 75.9917L174.094 88.0977L173.46 95.1555L171.654 103.109L168.41 109.048L172.102 117.17L171.359 120.798L167.209 125.221L168.434 131.362L166.009 136.073L166.195 141.904L165.452 145.532L163.06 151.272L160.205 153.252L152.383 155.56L150.911 157.839L152.857 159.665L154.526 163.56L154.757 165.44L154.502 168.195L153.693 169.765L150.871 172.773L146.622 174.11L143.149 172.848L137 168.409L130.626 173.075L125.659 173.405L121.843 172.153L120.052 169.807L117.906 167.129L118.472 163.334L117.144 164.75L114.621 166.375L112.055 166.628L109.245 164.658L107.122 162.666L105.641 159.28L105.698 155.674L107.148 152.709L109.307 150.409L112.537 149.448L116.675 150.003L120.403 148.511L124.707 148.889L127.771 148.105L131.976 145.396L133.748 141.735L135.574 139.789L139.447 137.434L141.959 135.466L142.16 130.997L139.705 129.358L135.491 126.403L134.253 125.241L133.335 123.382L133.779 121.136L135.937 118.836L139.146 117.189L143.25 116.715L145.12 116.141L145.21 113.563L145.587 109.26L145.987 105.643L146.365 101.339L147.484 98.729L146.898 96.5162L143.945 95.4087L140.483 94.489L138.536 92.6629L136.557 89.8078L136.636 86.8873L134.945 82.3066L136.186 78.1475L139.297 73.414L143.657 70.1855L148.746 68.3069L152.176 68.1977L154.963 69.4822L157.44 71.8064L161.765 72.8702L166.156 75.9917Z" fill="#F2EFE9"/>
<path d="M146.793 99.3098C144.595 104.133 145.27 109.449 144.607 114.488C144.436 115.938 143.64 115.677 142.793 115.718C139.421 115.949 136.581 117.346 134.174 119.579C131.612 121.895 131.771 123.962 134.49 126.079C136.785 127.859 139.148 129.51 141.443 131.29C142.483 132.122 142.679 131.346 142.851 130.613C143.806 126.775 145.465 123.37 148.706 120.813C149.316 121.525 149.785 122.602 150.64 123.06C153.269 124.523 152.296 125.929 150.86 127.582C149.379 129.32 148.966 131.631 147.729 133.941C147.006 131.077 148.962 129.482 149.605 127.459C148.247 128.659 147.442 130.264 146.939 131.922C146.221 134.29 145.137 135.801 142.347 134.637C142.219 134.568 142.002 134.562 141.936 134.582C139.527 137.64 134.834 137.769 133.049 141.821C130.982 146.605 127.062 148.578 121.96 147.827C120.467 147.633 119.17 148.204 118.028 148.693C116.642 149.327 115.666 149.3 114.311 148.849C111.042 147.759 106.346 151.078 105.234 155.107C103.786 160.276 107.147 165.82 112.363 167.183C114.539 167.743 115.835 166.455 117.778 165.294C117.216 168.296 119.437 169.596 120.772 171.522C123.255 175.109 131.642 174.867 134.156 171.92C134.313 171.729 134.428 171.516 134.628 171.348C136.003 170.322 137.15 168.9 139.064 171.082C140.326 172.528 142.32 173.431 144.119 174.285C147.61 175.99 153.776 172.906 154.75 169.135C155.288 167.001 156.236 164.921 154.204 163.062C154.305 164.107 154.429 165.109 154.464 166.174C154.498 168.064 153.522 169.578 152.312 170.911C151.617 171.695 150.913 171.263 149.962 171.084C148.818 170.857 147.352 172.053 146.052 172.733C145.369 173.083 144.778 173.261 144.319 172.575C144.669 171.717 145.87 172.25 146.075 171.148C144.182 171.291 142.11 172.383 140.696 170.194C140.551 169.951 139.871 170.192 139.889 169.542C139.953 168.805 141.043 169.444 141.064 168.685C140.373 168.535 139.611 168.622 139.156 167.828C139.936 167.09 141.385 168.086 142.006 166.822C141.236 166.41 140.104 167.29 139.596 166.082C140.359 165.17 142.008 165.997 142.633 164.626C139.817 165.154 138.739 164.907 137.517 163.592C138.396 163.182 139.388 164.209 140.369 163.303C139.328 162.47 137.4 163.089 137.015 161.341C137.727 160.732 138.476 161.904 139.108 161.031C138.607 160.322 137.168 160.542 137.31 159.352C137.495 158.185 139.042 159.51 139.49 158.263C136.873 157.907 137.593 156.256 138.23 154.45C136.734 157.447 134.481 158.057 131.273 156.339C132.081 157.707 132.831 158.054 133.485 157.964C136.885 157.473 135.5 159.649 135.414 161.144C134.903 160.045 133.821 159.906 132.946 159.382C129.698 157.532 127.753 154.894 127.689 151.006C127.681 148.965 129.728 148.74 130.82 147.729C131.735 146.843 131.657 148.838 132.617 148.691C132.621 147.758 131.607 146.774 132.89 145.92C133.863 147.597 134.462 149.46 135.744 150.972C137.362 152.884 140.312 153.749 142.238 152.414C143.921 151.224 143.608 149.239 143.272 147.298C142.452 147.904 142.582 148.689 142.757 149.389C143.327 151.511 141.424 151.262 140.53 151.389C139.091 151.609 139.719 150.128 139.586 149.452C139.416 148.535 139.661 147.565 139.726 146.004C138.436 147.9 138.761 149.45 138.709 151.294C137.43 149.673 137.821 148.121 137.496 146.571C136.952 147.38 137.478 148.763 136.436 148.755C135.545 148.774 135.122 147.611 134.818 146.843C134.309 145.634 134.885 144.457 135.415 143.364C135.602 142.914 136.199 142.518 135.886 142.075C134.744 140.197 136.266 140.132 137.369 139.511C139.795 138.169 142.398 138.242 145.169 138.515C144.434 137.626 143.206 138.069 142.803 136.972C144.585 136.111 146.612 135.82 148.389 135.176C153.368 133.383 158.14 136.6 158.524 142.256C158.585 143.169 158.044 143.871 157.332 144.48C155.414 146.315 154.476 144.161 153.107 143.428C153.14 143.776 153.114 143.927 153.197 144.082C154.72 146.274 155.041 148.758 154.514 151.283C153.987 153.808 152.314 155.389 149.676 155.793C148.237 156.013 150.054 157.041 149.168 157.667C148.482 158.125 149.455 158.261 149.84 158.467C151.81 159.413 153.269 160.8 154.256 162.76C154.207 161.413 153.653 160.29 152.858 159.204C151.626 157.497 151.939 156.399 154.086 155.678C155.357 155.258 156.77 155.189 158.101 154.966C161.482 154.41 163.617 152.581 164.839 149.272C166.205 145.489 167.005 141.735 166.661 137.752C166.597 136.947 166.875 136.325 167.39 135.775C169.561 133.47 169.915 131.678 168.564 128.753C168.135 127.807 167.854 126.996 168.717 126.412C171.483 124.536 171.746 121.374 172.821 118.647C173.547 116.779 172.606 114.733 171.393 113.093C170.137 111.429 169.631 110.112 170.543 107.793C172.86 101.823 174.987 95.6958 174.802 89.156C174.757 86.8752 173.248 84.9657 172.129 83.0456C169.045 77.7051 165.446 72.9145 159.02 71.3444C158.396 71.1748 157.662 71.0023 157.241 70.5562C154.385 67.8707 151.104 67.214 147.451 68.175C144.259 68.997 141.581 70.8104 139.176 72.9355C133.833 77.6698 133.254 82.0389 136.074 89.8251C137.546 93.8611 140.34 95.633 144.295 96.2653C145.939 96.4852 147.399 97.0473 146.793 99.3098C148.411 99.681 149.112 98.6803 149.345 97.3192C149.553 96.1093 150.094 95.4081 151.519 94.9054C150.734 96.5767 150.263 97.866 150.806 99.4227C151.45 95.0338 153.363 91.8745 158.103 90.8355C157.755 92.4105 156.272 93.4326 156.385 95.585C157.455 93.7915 157.747 91.911 159.53 91.0494C159.648 92.2684 158.393 92.8627 158.56 93.8877C159.799 93.8358 159.994 91.5183 161.488 92.4287C163.881 93.8203 160.83 94.9937 161.027 96.4755C161.818 96.1287 161.892 95.0669 162.996 95.1631C162.321 96.0125 161.264 96.5472 161.382 97.7663C162.423 97.7739 162.555 96.1928 163.719 96.486C163.618 100.065 162.44 101.031 159.107 100.677C156.684 100.37 154.252 100.388 152.007 101.497C148.881 103.016 148.403 106.888 150.012 109.126C152.164 112.096 155.874 111.44 158.915 112.134C160.036 112.404 160.446 110.201 161.927 110.004C162.341 109.951 162.531 109.392 162.28 109.037C161.99 108.551 161.59 108.887 161.278 109.161C158.211 111.702 155.267 110.62 152.364 108.845C149.867 107.342 149.625 105.121 151.813 102.99C152.059 104.277 150.918 105.483 151.834 106.855C152.15 105.648 152.444 104.484 152.737 103.32C153.128 101.768 154.077 101.23 155.554 101.966C156.603 102.473 155.754 103.339 155.736 103.99C155.757 104.772 155.148 105.602 156.051 106.691C156.454 104.705 156.078 102.632 158.294 101.783C157.635 103.631 157.635 103.631 157.861 104.853C158.602 103.984 158.539 102.354 160.28 102.186C160.283 103.619 158.869 104.512 159.263 105.935C160.203 105.722 159.637 104.208 160.962 104.202C160.908 105.33 160.507 106.491 161.435 107.429C162.154 108.144 163.02 107.451 163.875 107.91C167.166 109.782 169.39 112.515 171.011 115.861C171.216 116.301 171.309 116.846 170.971 117.271C170.454 117.929 169.969 117.395 169.499 117.143C168.943 116.845 168.37 116.373 167.724 116.962C168.092 118.536 171.239 117.799 170.651 120.952C169.519 118.75 167.741 118.678 166.217 118.027C166.761 118.759 167.951 118.901 167.964 120.008C166.492 120.597 165.443 118.548 163.834 119.393C164.711 120.633 166.459 120.248 167.521 121.863C166.297 121.373 165.481 121.046 164.685 120.785C164.32 120.644 163.955 120.504 163.637 120.994C163.071 121.846 162.131 122.059 161.25 121.752C160.069 121.284 160.83 120.481 160.785 119.741C160.643 117.849 161.891 115.93 160.628 113.767C159.482 117.447 161.097 122.551 154.771 122.85C155.388 120.979 155.956 119.302 156.531 117.407C154.485 118.348 154.881 120.487 153.671 121.821C152.635 120.055 154.667 118.831 154.364 117.238C152.256 118.09 153.02 120.261 152.041 121.883C151.491 119.827 152.207 118.284 153.261 116.317C152.061 117.325 151.563 118.049 151.276 118.996C151.086 119.555 151.526 120.892 150.471 120.602C149.652 120.383 148.5 119.656 148.776 118.318C148.981 117.217 149.271 116.161 149.639 114.652C149.076 115.396 148.738 115.82 148.401 116.245C147.643 115.399 146.372 117.36 146.485 116.43C146.691 114.504 145.521 112.886 145.835 110.963C146.468 107.008 146.837 103.132 146.793 99.3098ZM141.615 119.767C139.142 122.02 138.757 124.897 139.31 128.386C138.05 127.655 136.158 126.973 136.288 126.217C136.73 123.645 137.431 121.103 138.842 118.777C139.821 117.154 141.254 118.693 142.321 117.833C142.043 118.454 141.784 119.142 141.506 119.764C142.318 119.482 142.895 119.021 143.222 118.205C143.847 116.833 144.782 117.554 145.529 118.01C146.276 118.465 146.74 118.934 145.717 119.817C143.555 121.797 142.18 124.363 141.019 127.044C140.81 127.538 140.763 128.448 139.655 128.46C140.39 126.267 141.145 124.139 141.833 122.031C141.748 121.985 141.662 121.939 141.577 121.893C140.987 122.788 140.398 123.684 139.67 124.835C139.814 122.82 140.961 121.398 141.615 119.767ZM115.549 154.246C114.4 158.035 113.682 161.944 114.003 165.97C112.747 161.223 113.441 156.64 114.965 151.842C115.217 152.913 115.393 153.612 115.546 154.355C115.732 153.904 115.599 153.227 116.342 153.075C117.147 157.635 117.147 157.635 118.723 158.699C116.833 154.109 116.812 153.327 118.309 151.046C118.262 153.498 117.958 155.812 119.664 157.662C119.073 154.758 118.025 151.885 120.208 149.145C120.173 151.163 119.441 153.249 120.501 155.688C120.976 153.466 119.907 151.351 121.586 149.553C121.902 151.429 121.071 153.186 122.087 154.886C122.765 153.928 121.839 152.882 122.771 152.17C123.558 152.757 122.654 154.034 123.746 154.564C123.812 153.003 123.637 151.478 124.34 149.652C124.902 151.275 124.08 152.706 124.997 154.078C125.674 152.404 125.112 150.781 126.166 148.814C126.546 151.495 126.18 153.72 127.298 155.641C128.436 157.627 130.066 159.105 131.788 160.413C131.543 161.383 130.523 160.616 130.285 161.369C130.977 162.235 131.983 161.178 132.747 161.808C132.135 162.746 130.996 162.301 130.199 162.865C131.479 163.661 132.831 162.678 134.535 163.095C132.594 164.148 130.882 164.056 129.038 164.004C131.385 165.482 133.528 164.152 135.424 163.902C135.934 167.368 133.038 166.917 130.975 167.684C132.886 168.433 134.396 167.26 136.279 167.443C134.71 168.419 133.371 168.968 131.852 168.925C130.442 168.885 129.015 168.671 127.369 168.56C128.879 169.644 130.552 169.605 132.081 170.038C131.629 170.677 130.412 169.97 130.421 171.186C130.661 171.149 130.901 171.112 130.803 171.5C130.78 171.543 130.691 171.606 130.626 171.626C127.922 172.049 125.586 170.963 123.227 169.92C121.77 169.249 120.919 167.857 119.399 167.098C118.05 166.431 118.847 164.326 119.064 162.79C119.194 162.034 119.846 161.228 118.908 160.615C116.627 159.118 115.955 156.776 115.549 154.246ZM148.064 71.8612C146.527 72.4692 146.721 74.0595 145.573 74.7653C145.811 70.9294 147.479 68.7402 150.285 68.5369C151.764 68.4483 153.145 68.7476 154.356 69.6718C156.098 71.0451 157.488 72.5604 156.961 75.0857C158.423 74.8228 157.644 73.1944 158.695 72.8766C159.705 73.2524 158.995 74.5784 159.742 75.0336C160.444 74.7494 159.884 73.8436 160.603 73.7335C160.999 74.3308 160.649 75.1894 161.284 75.75C161.839 75.3314 161.107 74.3339 162.089 74.1444C162.238 74.2788 162.383 74.5217 162.554 74.6134C162.982 74.8425 162.264 77.2104 163.837 75.3008C163.86 75.258 164.291 75.3787 164.439 75.5131C166.069 76.9918 167.802 78.6904 168.2 80.7206C168.679 83.0136 168.336 85.9131 166.513 87.4683C164.577 89.1289 161.879 89.3352 159.146 88.4768C156.972 87.8078 156.421 86.5766 156.827 84.4822C157.383 81.6972 157.317 81.7171 155.985 79.6824C155.57 80.5608 155.57 80.5608 151.031 79.0654C150.48 79.3755 151.126 80.3272 150.383 80.48C149.389 79.5619 150.978 78.6514 150.243 77.7623C149.455 78.0007 149.895 79.3374 148.807 79.4153C148.384 78.2528 149.536 77.4385 149.309 76.2164C148.932 76.5097 148.578 76.7603 148.223 77.0108C147.791 76.1737 148.663 75.2647 147.991 74.4643C146.738 75.775 147.574 77.709 146.266 79.4307C145.872 76.4671 147.018 74.3283 148.064 71.8612ZM142.691 72.2311C142.791 72.5595 142.893 72.7795 142.864 73.0392C142.712 78.4623 147.515 83.6775 152.884 83.416C154.123 83.364 154.545 83.8101 154.166 84.9283C153.761 86.1978 154.285 86.8638 155.378 87.3939C155.976 87.7147 156.769 88.0843 156.571 88.9688C156.372 89.8533 155.521 90.0031 154.828 89.9619C152.964 89.8443 151.974 91.0756 150.964 92.2413C150.696 92.5376 150.657 93.1227 150.187 92.8707C149.865 92.7531 149.574 92.2673 149.541 91.919C149.42 90.8084 149.428 89.7665 149.385 88.2023C148.419 90.1073 148.311 91.6456 149.231 92.9089C150.233 94.3265 149.438 94.7818 148.407 95.1653C145.534 96.2133 144.659 95.6894 143.939 92.7166C143.803 92.1484 144.018 91.438 143.488 90.9889C142.891 91.3846 143.29 91.8734 143.277 92.3073C143.236 93.0008 143.84 93.9296 143.134 94.3222C142.451 94.6721 141.576 94.1481 140.868 93.8243C138.384 92.6038 139.099 90.3444 139.069 88.3463C139.035 87.998 139.11 87.6527 139.145 87.1761C138.522 87.723 139.033 88.8229 137.66 89.0231C138.656 86.0334 136.806 83.1157 138.21 80.2895C137.197 80.0223 137.289 81.3925 136.25 81.2765C137.401 77.3794 138.501 73.7849 142.691 72.2311ZM157.058 131.837C156.001 132.372 156.166 134.222 154.394 133.933C152.967 133.72 151.518 133.549 150.085 133.552C149.109 133.524 148.966 133.173 149.293 132.357C151.656 126.301 157.811 121.286 165.219 125.749C166.499 126.545 168.126 128.132 167.593 129.333C166.501 131.886 167.469 136.038 162.856 136.429C162.793 134.799 164.44 133.369 163.687 131.59C163.013 133.155 162.767 134.95 161.032 136.443C161.11 134.448 162.556 133.186 162.057 131.652C160.972 133.163 161.418 135.824 158.737 136.205C157.147 136.399 157.808 135.267 157.85 134.573C157.139 134.358 156.909 135.611 156.013 135.021C156.113 133.808 157.478 133.108 157.058 131.837ZM158.469 138.043C160.595 138.081 162.63 138.29 164.541 137.497C165.112 137.253 165.563 137.439 165.436 138.087C165.205 139.339 165.652 140.459 165.704 141.698C165.731 142.263 165.821 142.917 165.313 143.25C164.715 143.646 164.297 143.091 163.849 142.796C162.931 142.249 162.15 141.446 160.583 141.597C162.331 142.754 164.202 143.371 164.601 145.401C163.589 145.85 163.415 144.326 162.581 144.649C162.499 146.037 165.359 146.247 163.923 147.9C163.047 148.918 162.891 146.742 161.886 146.975C162.108 147.589 162.329 148.203 162.551 148.817C163.067 150.525 161.712 151.615 160.658 152.042C159.473 152.508 159.998 150.807 159.517 150.164C159.161 149.698 159.271 148.877 158.449 148.767C158.142 149.648 159.205 150.438 158.376 151.37C158.069 150.71 157.801 150.181 157.369 149.344C157.062 150.226 157.905 151.118 156.854 151.435C155.731 148.907 156.069 146.941 157.916 145.343C158.651 144.691 158.889 143.938 159.173 143.099C159.698 141.399 158.939 139.836 158.469 138.043ZM169.337 81.9901C170.188 83.3817 170.141 84.2922 170.096 85.0942C170.034 86.547 171.343 85.5417 171.337 85.7587C171.271 87.3199 173.607 88.406 171.994 90.1842C173.141 90.3033 172.889 89.2324 173.546 89.0338C173.383 92.5245 169.973 96.4232 166.478 97.1932C165.581 97.4285 165.225 96.9626 165.092 96.2859C164.591 94.0357 163.65 91.9902 161.736 89.8088C167.646 90.3876 168.538 86.4615 169.337 81.9901ZM168.893 100.083C167.353 102.341 168.03 105.291 165.409 107.41C166.452 105.051 164.92 103.185 165.842 101.257C164.04 102.053 164.042 104.311 162.387 105.241C161.721 101.141 165.966 97.6347 170.592 96.8096C170.289 99.8405 169.73 102.734 168.18 106.142C167.793 103.678 169.118 102.13 168.893 100.083ZM115.117 165.74C114.888 163.085 114.475 160.773 115.476 158.391C115.89 159.879 117.984 160.285 117.853 161.866C117.659 163.359 116.754 164.636 115.117 165.74ZM111.952 165.586C111.13 160.852 111.369 156.191 113.706 151.828C112.668 156.336 112.277 160.971 111.952 165.586ZM112.435 150.707C110.443 155.145 110.806 160.018 109.981 164.641C109.402 159.761 109.904 155.021 112.435 150.707ZM108.581 161.909C107.316 159.03 108.242 153.911 110.416 151.497C109.128 154.826 108.791 158.333 108.581 161.909ZM172.277 94.7946C172.42 98.9452 170.966 104.332 169.016 106.535C170.567 102.301 171.239 98.4778 172.277 94.7946ZM144.01 124.132C143.416 125.961 142.805 127.616 142.28 129.316C142.139 129.681 142.147 130.18 141.608 130.057C141.111 129.956 141.058 129.542 141.113 129.131C141.302 127.031 142.472 125.565 144.01 124.132ZM135.393 125.627C134.838 122.963 136.018 121.172 136.681 119.215C136.801 118.785 137.176 118.6 137.626 118.786C137.991 118.927 138.045 119.341 137.865 119.574C136.623 121.276 136.391 123.354 135.393 125.627ZM108.216 152.52C107.695 154.829 107.194 157.203 106.673 159.511C106.461 157.03 106.702 154.627 108.216 152.52ZM120.451 169.038C121.907 170.534 124.045 170.963 126.063 172.539C123.314 172.223 121.315 171.538 120.451 169.038Z" fill="#91BAE2"/>
<path d="M145.203 133.414C146.56 131.499 146.972 129.187 148.115 127.157C146.33 128.844 145.339 130.9 145.203 133.414Z" fill="#91BAE2"/>
<path d="M130.507 171.232C128.143 169.581 124.906 169.663 122.798 167.433C124.631 170.177 127.593 170.607 130.507 171.232Z" fill="#91BAE2"/>
<path d="M128.527 165.987C130.284 166.818 132.059 166.998 133.805 165.896C132.089 165.913 130.302 166.167 128.527 165.987Z" fill="#91BAE2"/>
</svg>
