<svg width="98" height="99" viewBox="0 0 98 99" fill="none" xmlns="http://www.w3.org/2000/svg">
<path d="M40.5143 95.1046C40.5143 95.2582 40.4632 95.4118 40.4632 95.5142C41.1287 97.4595 41.1287 97.4595 38.9785 97.4083C34.064 97.3571 29.1494 97.4595 24.2349 97.2035C21.9824 97.1011 19.6275 97.3059 17.4262 96.538C17.3238 96.4868 17.2214 96.4868 17.1702 96.4868C12.7676 97.1012 8.36501 96.6404 3.96239 96.538C3.24568 96.538 2.52896 96.7428 1.86345 96.8964C1.04436 97.1011 0.532449 96.794 0.481256 95.9237C0.37887 91.3675 -0.030676 86.8625 0.22529 82.3063C0.37887 80.105 0.174091 77.8525 0.378864 75.6512C0.63483 72.2212 -0.133075 68.7913 0.0205047 65.3614C0.071698 63.7744 0.327664 62.1874 0.276471 60.6516C0.122891 56.4025 0.378864 52.2047 0.378864 47.9557C0.378864 47.2902 0.174097 46.6246 0.993189 46.1639C1.55631 45.8567 1.35154 45.0376 0.993189 44.8329C0.122904 44.4233 0.32767 43.809 0.378864 43.1435C0.48125 41.4029 0.532443 39.6624 0.63483 37.973C0.63483 37.717 0.276471 36.6932 1.30034 37.3587C1.40272 37.4099 1.60749 36.9491 1.45391 36.8979C-0.235468 36.0788 0.737216 34.5942 0.890796 33.5704C1.14676 32.0346 0.788397 30.3964 1.70987 28.963C1.81226 28.8094 1.81226 28.5534 1.70987 28.3999C0.327658 25.8914 0.941995 23.0245 1.50512 20.6697C2.22183 17.5981 1.24915 14.8336 1.40273 11.9156C1.50511 10.2263 1.50512 8.53687 1.50512 6.84749C1.50512 5.2605 1.50511 3.67352 1.40273 2.08653C1.35153 1.16505 1.65868 0.601938 2.63135 0.499552C4.83266 0.294779 6.9828 -0.26834 9.1841 0.601944C9.54246 0.755524 10.0032 0.704312 10.4639 0.550732C11.539 0.19238 12.614 -0.0123868 13.6891 0.653125C14.1498 0.909091 14.6106 0.806705 15.0713 0.653125C17.5798 -0.268353 20.1394 0.0388189 22.6991 0.0900121C27.3065 0.141205 31.9651 0.192392 36.5725 0.243585C39.7977 0.294779 43.074 0.397165 46.2992 0.499552C50.5994 0.653131 54.8996 0.857885 59.1999 0.960272C61.5036 1.01147 63.7561 1.57459 66.0598 1.4722C66.1622 1.4722 66.2645 1.57461 66.3157 1.52342C68.1587 0.653131 69.2849 1.52341 70.3088 2.95682C70.616 3.41756 71.0767 2.95682 70.9743 2.70085C70.4112 0.960284 71.8446 1.11386 72.6637 1.06266C74.8138 1.01147 77.0663 1.01148 79.1652 1.26745C81.6737 1.6258 84.1822 1.47221 86.6906 1.5746C88.1752 1.62579 89.1479 1.98414 89.7622 3.26397C90.4789 2.90561 89.5063 1.6258 90.6325 1.77938C91.6564 1.93296 93.0898 1.21626 93.5505 2.90564C93.6529 3.16161 93.8065 3.46876 94.3184 3.31518C95.803 2.85444 97.646 4.08308 97.7484 5.72127C97.902 7.76899 97.8507 9.76551 97.5948 11.8132C97.5436 12.1716 97.5436 12.5811 97.5436 12.9907C97.7996 15.6015 97.646 18.2124 97.3388 20.7721C97.2364 21.6935 97.6972 22.7686 97.4412 23.5877C96.7757 25.5842 97.9019 27.5296 97.3388 29.4749C97.2876 29.6797 97.39 29.9356 97.4412 30.1404C97.646 31.0107 97.8508 31.9322 97.5436 32.7513C95.9566 37.6658 97.9532 42.5292 97.7484 47.3925C97.646 49.901 97.8508 52.4606 97.9532 54.9691C97.9532 55.0203 98.0044 55.0715 97.9532 55.1227C96.2638 56.3514 97.6972 57.9383 97.5436 59.3718C97.3388 61.5731 97.5948 63.8256 97.5436 66.0781C97.4924 69.8152 97.5436 73.6035 97.5436 77.3406C97.5436 78.0573 97.5948 78.774 97.0828 79.5419C96.6221 80.2586 97.1341 81.3336 97.2876 82.1015C98.1067 85.941 97.5948 89.7293 97.4924 93.5688C97.4412 94.5927 97.39 95.5654 97.3388 96.5892C97.2876 97.4595 96.8269 97.9202 95.9566 97.9202C90.4278 97.869 84.9501 98.2786 79.4212 98.125C74.7626 97.9714 70.0528 98.1762 65.343 98.0226C61.5036 97.9202 57.7153 98.0226 53.8758 97.8178C50.7018 97.6643 47.5278 97.6131 44.3538 97.6643C43.0228 97.6643 41.9989 97.5619 41.487 96.1285C41.4358 95.7189 41.0775 95.3094 40.5143 95.1046ZM96.2638 62.085C95.2399 61.7266 95.1887 61.0611 95.2399 60.1908C95.3423 58.911 95.2399 57.58 95.2399 56.2489C95.2399 50.976 94.9839 45.7031 94.728 40.3791C94.4208 33.6215 94.5744 26.8129 94.8815 20.0554C94.9327 18.6732 95.1887 17.2909 95.1887 15.8575C95.1375 12.7347 95.1375 9.56074 95.1887 6.43795C95.1887 4.5438 95.2399 4.5438 93.2946 4.64619C92.9362 4.64619 92.6291 4.64619 92.2707 4.64619C88.0729 4.28784 83.875 4.13428 79.626 4.18547C73.022 4.23666 66.4693 3.67352 59.8654 3.46875C55.8723 3.31517 51.8281 3.31517 47.835 3.11039C44.7634 2.95681 41.743 3.26399 38.6714 3.16161C31.0436 2.95683 23.467 2.90563 15.8904 3.21279C14.3034 3.26398 12.7676 2.75205 11.027 3.21279C9.1329 3.72472 7.03398 3.87829 4.98625 3.62233C4.52551 3.57113 4.11597 3.62233 4.21836 4.13426C4.47432 5.77244 3.91118 7.41064 4.01357 9.04883C4.16715 10.8918 4.16716 12.7347 4.11596 14.5777C3.96238 19.4922 3.60402 24.3556 3.65521 29.2701C3.7064 40.1231 3.1945 50.9761 3.04092 61.829C2.93853 69.8152 2.52898 77.8013 2.42659 85.8387C2.3754 88.3471 3.24567 90.958 2.11941 93.4664C1.91464 93.9272 2.11944 94.1831 2.78495 94.1831C4.37194 94.1319 5.90771 94.3367 7.4947 94.3367C12.1021 94.2343 16.7607 94.3879 21.3681 94.3367C32.3234 94.1831 43.2788 94.0807 54.2341 94.4903C61.8107 94.7974 69.3873 95.0022 76.9639 95.6165C78.2437 95.7189 79.5748 96.0773 80.7522 95.9749C85.0525 95.5654 89.4039 95.5654 93.7041 95.6165C94.4208 95.6165 94.3696 95.3094 94.3696 94.8486C94.472 92.2378 94.728 89.6269 94.6768 87.0161C94.6256 84.354 95.1887 81.7432 95.0863 79.0811C94.8816 73.9618 95.0863 68.8425 95.0863 63.7232C95.1887 62.9041 95.2911 62.3921 96.2638 62.085Z" fill="#36372F"/>
<path d="M78.8067 36.0792C77.578 35.8744 76.247 35.4137 75.6839 37.1542C75.4279 37.9733 75.6839 38.69 75.9398 39.4068C76.0934 39.8163 76.5542 40.2258 76.9125 40.1234C77.578 39.9187 78.2947 39.7139 78.7043 38.9972C78.9091 38.6389 78.7043 37.9221 79.3186 38.0245C79.8817 38.0757 79.9329 38.7924 80.0353 39.202C81.2639 44.1677 81.6223 49.1846 80.8544 54.304C80.3937 57.478 78.6531 59.9352 77.0661 62.4949C75.3767 65.2081 73.3802 67.6654 70.8205 69.7132C68.3121 71.6585 65.394 72.8359 62.476 73.911C62.2201 74.0134 61.9129 74.0646 61.657 74.1669C61.2986 74.3205 60.7355 74.3205 60.6331 74.8837C60.5307 75.5492 61.1962 75.6004 61.5546 75.8563C65.1381 78.2112 68.4144 80.8733 71.9468 83.2281C75.7863 85.839 79.4722 88.8594 84.1308 90.0368C85.3082 90.344 86.4857 90.4464 87.7655 90.6512C84.8475 92.8525 81.7247 92.5453 78.6019 91.8798C72.3051 90.5488 66.8275 87.2212 61.401 83.996C54.6435 79.9518 47.6812 76.2659 40.0534 74.2181C33.9102 72.58 28.8933 69.2012 25.0538 64.5426C20.2928 58.7578 17.0164 52.1027 17.7331 44.1165C18.0403 40.6354 18.7058 37.3078 20.088 34.1339C20.6 32.9564 21.4702 31.9325 22.3405 30.9087C25.5657 27.1716 28.9445 23.5369 33.2447 21.2332C37.5961 18.9295 42.3571 17.496 47.4252 17.3425C52.5957 17.1889 57.6639 18.0592 62.3225 20.0045C67.237 22.001 71.4349 25.4822 74.7112 29.8336C75.9911 31.523 77.1685 33.3147 78.3971 35.0041C78.6531 35.3113 78.8579 35.6185 78.8067 36.0792ZM26.692 44.0141C26.8967 48.6727 27.2039 52.6146 28.8421 56.3005C30.3779 59.6793 32.7328 62.5461 35.7532 64.7474C37.3402 65.9248 38.62 67.4606 40.4629 68.3309C44.0465 69.9691 47.8348 70.3275 51.6743 70.5322C53.0565 70.6346 54.4899 70.6858 55.8721 70.4298C57.7662 70.0715 59.5068 69.2012 61.145 68.2285C63.6023 66.6927 66.0084 65.1058 68.0049 62.9556C70.3086 60.4984 71.3837 57.478 72.1516 54.304C73.6362 48.212 73.6874 42.2736 70.7693 36.4887C67.6466 30.3967 63.3975 25.5334 56.9472 22.8713C53.7732 21.5403 50.292 21.0796 46.9645 21.6939C43.6369 22.3082 40.3094 23.3833 37.3402 25.175C35.1389 26.5061 32.8351 27.6835 31.2993 29.8336C28.0742 34.2874 26.6408 39.202 26.692 44.0141Z" fill="#36372F"/>
</svg>
