<svg width="99" height="100" viewBox="0 0 99 100" fill="none" xmlns="http://www.w3.org/2000/svg">
<rect x="4" y="1" width="90" height="96" fill="white"/>
<path d="M75.2935 75.7471C75.4672 76.3263 75.5831 76.9633 76.1043 77.4266C78.8842 80.2644 81.4325 83.3339 84.7336 85.5926C87.7452 87.6196 91.2779 88.3146 94.6949 89.2991C96.0848 89.7045 95.6795 88.4304 95.6795 87.7354C95.6216 84.0289 95.4478 80.3224 95.3319 76.6158C95.1003 68.8553 95.5636 61.1526 94.7528 53.3921C94.7528 53.1604 94.8108 52.8708 94.8687 52.6392C95.6795 52.4075 96.2586 53.5658 97.1274 52.9287C97.1853 52.1759 96.4902 52.3496 96.1428 52.2917C95.0424 52.1179 94.7529 51.423 94.8108 50.4384C95.1583 36.9443 95.1582 23.4502 94.6949 9.95609C94.637 8.85571 94.637 7.75534 94.637 6.65497C94.637 6.07582 94.1158 5.20709 95.2161 5.09126C96.2007 5.03335 96.8377 5.55458 96.9536 6.59705C97.1852 10.1298 97.5327 13.6626 97.5906 17.1954C97.8802 25.8826 98.1698 34.6277 98.1698 43.3149C98.1698 46.4423 98.054 49.6276 98.1119 52.6971C98.1119 56.7511 98.1119 60.921 98.2856 65.0329C98.4015 67.7549 98.5173 70.5348 98.2856 73.3147C97.9961 76.7896 98.4014 80.3224 98.4593 83.7972C98.5173 88.025 98.5172 92.2528 98.5172 96.5384C98.5172 98.3917 97.2432 98.913 95.7374 98.9709C92.3783 99.0867 89.0193 98.913 85.6602 98.9709C81.6062 99.0288 77.5522 98.5076 73.4982 98.6813C69.9075 98.7971 66.3167 98.6234 62.784 98.6813C60.699 98.7392 58.672 98.9709 56.5871 99.0288C54.9076 99.0867 53.1701 99.2025 51.4906 99.0288C43.4984 98.4496 35.5641 98.9709 27.5718 98.6813C20.3904 98.4496 13.1511 98.7971 5.96973 97.7547C2.49485 97.2334 1.39445 95.496 1.27862 92.0211C0.931133 83.4498 1.51027 74.8784 0.583638 66.307C-0.0534228 60.4576 0.178236 54.5504 0.00449177 48.701C-0.0534229 47.7164 0.467837 46.8477 0.467837 45.8053C0.409922 39.7242 0.120328 33.6432 0.409901 27.5621C0.64156 21.3653 0.641581 15.2263 1.04698 9.02947C1.16281 7.06037 1.04698 5.09127 1.22072 3.12217C1.39446 1.15307 2.61066 0.516005 4.00061 0.400176C10.2554 -0.00522678 16.5102 -0.0631273 22.765 0.052702C26.3557 0.110617 30.0043 0.400176 33.6529 0.110602C36.8961 -0.121056 40.2552 0.342261 43.5563 0.400176C47.3787 0.516005 51.3168 0.226432 55.0234 0.979322C57.8612 1.55847 60.7569 0.168521 63.4789 1.61639C63.6526 1.73222 64.058 1.32681 64.3476 1.32681C65.2163 1.15307 65.5059 1.38472 65.7955 2.42719C65.9113 2.83259 66.2009 2.65885 66.3746 2.71676C71.3553 3.87505 72.282 5.55458 70.4866 10.3036C70.3708 10.6511 70.6024 10.5352 70.6603 10.6511C71.3553 11.5198 70.892 12.3306 70.1971 12.5622C69.3283 12.9097 69.0387 11.9831 68.865 11.2302C68.5754 9.55069 67.8226 8.68198 65.8535 9.26112C64.8689 9.5507 63.6527 9.31904 62.4365 9.31904C63.7106 11.4619 65.7955 12.0989 67.5909 13.1414C69.5021 14.2418 70.6603 15.8055 71.7607 17.5429C73.9036 20.7861 74.4827 24.3768 74.2511 28.1413C74.1932 29.1838 74.2511 30.1683 74.2511 31.6741C75.4094 29.6471 75.5831 27.8517 75.641 25.7668C79.2317 29.9946 79.1159 34.7436 78.6526 39.898C80.6217 37.2339 81.1429 34.3961 81.6641 31.5583C82.1274 29.01 81.78 26.4618 81.4904 23.9135C81.3746 22.6394 80.0425 21.6549 79.1738 20.844C76.6256 18.4116 76.4518 15.0526 75.2356 12.0989C75.0039 11.5777 75.2356 11.1723 75.8147 11.1144C76.5676 11.0565 77.0889 11.404 77.2047 12.2148C77.4364 13.8943 77.7259 15.5738 78.7105 17.0796C78.4788 15.5159 78.2472 13.9522 78.0155 12.3306C77.9576 11.8094 77.6101 11.0565 78.363 10.9986C80.6217 10.7669 79.2896 9.72444 78.8263 8.97155C78.0155 7.52368 77.0309 6.19164 75.8147 5.03335C77.668 4.39628 79.2317 5.38084 79.9267 7.40785C80.5637 9.2032 81.2008 10.9406 82.1854 12.5622C83.6911 10.8827 82.9962 9.02946 82.7645 7.23411C82.7066 6.65497 82.3012 6.01791 83.2278 5.84416C84.1545 5.67042 84.3282 6.36538 84.3861 7.06036C84.502 7.92908 84.7915 8.85572 84.5598 9.60861C84.2123 11.0565 85.8919 10.709 86.0077 11.6356C86.1814 12.9677 84.3282 12.0989 84.3282 13.431C84.3282 15.458 83.7491 17.5429 84.3861 19.6278C84.6178 18.5275 85.0811 17.485 85.0811 16.3846C85.0232 14.6472 86.5289 13.3151 86.2973 11.5198C86.2394 11.1723 86.5868 10.8827 86.9343 10.8827C88.9034 11.1144 90.8726 11.3461 92.8417 11.3461C93.5945 11.3461 93.4787 12.2148 93.247 12.7939C91.7412 17.0217 89.7142 20.902 86.3552 24.0294C85.8919 24.4348 85.5444 24.7822 85.5444 25.4772C85.4865 30.342 85.1969 35.2069 83.2278 40.3034C85.139 38.8555 85.4865 37.118 85.834 35.4964C86.8765 30.9212 89.3088 27.0988 91.5675 23.1027C91.7412 22.8711 92.0308 22.5236 92.2625 22.4656C92.7258 22.4656 92.8995 22.9869 92.9575 23.3344C93.0733 24.4347 93.0154 25.593 93.0154 26.6934C93.3049 36.3073 89.0772 43.3149 80.6217 47.8323C79.9846 48.1797 79.4633 48.701 79.0579 49.338C78.7105 49.9172 77.7838 49.8013 77.5522 50.5542C80.3321 51.3071 83.3436 49.9172 85.1969 47.1373C86.5868 45.0524 88.3822 43.6624 91.0463 43.6045C92.6679 43.5466 93.2471 43.952 92.8417 45.6315C92.1467 48.5272 90.3513 50.4963 87.4556 51.7704C89.4247 53.3921 91.2201 54.9557 92.2046 57.1565C93.8262 60.863 93.4787 67.8128 89.5405 70.8244C88.2084 71.8668 87.3397 73.4305 85.7181 74.2413C84.5598 74.8205 84.6757 77.0791 85.776 77.8899C86.0656 78.0637 86.4131 78.1795 86.2394 78.5849C86.1235 78.9324 85.6602 79.1062 85.4286 78.9903C82.417 77.7741 79.058 78.3533 76.1043 76.9054C75.8727 76.7317 75.2356 76.5 75.2935 75.7471C73.7877 75.2259 73.2665 73.8938 72.7452 72.6776C71.7607 70.4189 70.4866 68.392 68.6912 66.6545C67.7067 65.7279 66.838 64.6275 64.811 64.6854C67.1855 67.4653 69.2704 70.0135 71.4711 72.5039C72.6294 73.778 73.3823 75.4575 75.2935 75.7471ZM15.6994 61.1526C15.931 62.5426 16.2785 63.9325 15.6414 65.3225C17.6685 63.1796 17.6685 62.6005 15.6994 61.1526C14.3673 58.4886 11.6453 57.2144 9.67624 55.2453C11.2399 57.6777 13.3828 59.531 15.6994 61.1526ZM80.7954 64.1642C81.1429 64.1063 81.6062 64.4537 81.8958 64.1063C83.3436 62.6584 82.7645 59.531 80.8533 58.5465C82.3012 61.2105 82.3012 62.6005 80.7954 64.1642C81.027 60.0522 78.363 55.9982 74.946 55.4191C75.9306 56.4615 76.7414 57.504 77.1468 58.7781C77.726 60.9789 79 62.7742 80.7954 64.1642ZM9.32877 58.3727C8.2863 56.0561 6.08553 54.3766 5.91179 51.6546C5.79596 54.5503 6.66469 56.9248 9.32877 58.3727C9.4446 59.0677 10.545 59.1835 10.4871 60.1102C9.67625 60.8051 8.7496 59.7048 7.82297 60.1681C8.80751 61.558 10.3712 61.8476 11.7612 62.3109C12.3982 62.5426 13.0932 62.6005 13.2091 63.4113C13.3249 64.28 12.6299 64.7433 12.0508 65.0908C11.4716 65.4962 10.7187 65.6121 10.0237 65.9016C8.98129 66.3649 8.17048 67.002 7.70716 68.1603C10.2554 68.2761 10.9504 67.9865 12.8615 66.307C15.1202 64.3379 15.0623 62.3688 12.6878 60.6893C11.5874 59.9364 10.7766 58.7202 9.32877 58.3727ZM89.9459 60.5156C90.7567 59.1256 90.2355 57.9094 89.6564 56.5774C88.2664 53.3341 80.6216 51.0755 75.8726 53.2183C77.6101 53.2183 78.9422 53.2183 80.3321 53.2183C85.7182 53.2183 89.2509 56.172 89.9459 60.5156C89.6564 63.1796 88.4401 65.3804 86.2973 67.0599C85.2548 67.8707 84.444 68.9711 83.8649 70.1294C83.2278 71.5193 82.1274 72.9093 82.8224 75.0521C84.1544 72.6197 86.4131 71.751 88.2664 70.419C90.0617 69.1448 91.22 67.2916 91.3938 64.6275C89.8301 68.0445 87.5714 70.361 84.2703 71.6352C86.1235 69.6081 88.0347 67.6391 89.3668 65.2066C90.2355 63.7588 90.9305 62.253 89.9459 60.5156ZM10.3133 27.1567C11.6454 26.2301 13.0353 25.3614 14.2515 24.3189C15.931 22.929 13.904 22.0602 13.6144 20.9599C13.3828 20.0911 12.5141 20.4386 11.7612 20.7282C8.46005 21.8865 6.49093 24.3189 5.21681 27.5042C4.92723 28.2571 4.86935 29.2417 3.94271 29.6471C3.71106 29.7629 3.42146 29.8787 3.59521 30.2262C3.76895 30.5158 4.05854 30.6895 4.40602 30.6316C6.78052 30.4 6.78053 30.4 6.54887 32.7165C6.2593 35.3806 8.22837 38.2184 11.7033 36.5389C12.5141 36.1335 13.4407 35.5544 14.599 35.8439C14.0198 37.2918 13.209 38.3342 11.7033 38.6238C8.69169 39.203 5.73804 39.6084 3.1898 37.0601C3.30563 38.1605 2.7265 38.9713 2.95816 39.9559C3.42148 41.925 3.24773 43.8362 2.08944 45.5157C1.56821 46.2686 1.27863 46.8477 2.37901 47.3689C3.5373 47.8902 4.05852 47.5427 4.46392 46.3844C5.21681 44.1257 6.89635 42.7937 8.92336 41.5775C10.7766 40.4771 12.9774 40.4192 14.8307 39.2609C15.9889 38.5659 17.958 36.1335 18.2476 34.8594C18.8267 32.5428 18.4213 30.2262 18.5372 27.9096C18.5951 26.6355 17.321 26.1143 16.5102 25.5351C15.6994 24.956 15.3519 26.1143 14.9465 26.6355C14.1936 27.6201 13.0353 28.0834 11.9928 28.4309C11.1241 28.6625 10.0237 28.6625 10.3133 27.1567ZM17.6106 8.56614C20.5063 11.8673 21.3171 15.3422 21.1433 19.0487C20.9117 24.7243 21.3171 30.4 21.3171 36.0756C21.3171 49.3959 21.375 62.7163 21.2592 76.0367C21.2013 80.0907 22.5333 84.4922 18.1897 87.9092C24.0391 87.5617 29.3093 88.1408 35.1587 87.9671C31.7417 85.2451 31.1047 81.5965 30.873 78.1216C30.2939 68.334 30.1201 58.5465 29.7726 48.7589C29.7147 47.4848 30.2359 47.2531 31.3363 47.6006C31.9733 47.8322 32.4367 48.2377 32.9 48.701C35.6799 51.5388 38.1123 54.6662 40.6026 57.7356C47.5524 66.307 54.5022 74.9363 61.7994 83.1602C63.3631 84.9555 64.6373 86.5771 62.089 88.8358C69.2125 89.0675 75.9306 89.2991 82.6487 89.5308C82.2433 89.0096 81.7799 88.7779 81.3166 88.4883C78.2472 86.5192 74.8881 85.1293 72.5715 82.1177C70.3708 79.2799 68.1121 76.5579 65.6797 73.8938C58.9037 66.5387 53.2281 58.3148 46.7995 50.6122C46.3362 50.033 45.3517 49.396 45.6991 48.6431C46.0466 47.8902 47.2049 48.0639 48.0157 47.8902C48.2474 47.8322 48.537 47.9481 48.8265 47.8902C51.6064 47.4268 54.5601 47.3689 57.1663 46.3265C63.7106 43.7203 67.8804 39.0872 68.6912 31.8478C69.8495 21.4811 65.1006 13.3151 54.8497 10.014C50.7957 8.73988 46.6837 8.21865 42.398 7.98699C34.29 7.69742 26.2977 8.68197 17.6106 8.56614ZM80.7954 76.9054C80.39 75.2838 80.5637 73.9517 81.0271 72.6776C82.1274 69.724 83.5174 67.002 85.8919 64.8591C87.2819 63.6429 88.498 62.0792 88.0347 60.0522C87.3977 57.4461 84.5598 55.5349 81.3166 55.477C82.6487 57.504 83.8069 59.4731 84.2703 61.7318C84.5598 63.1796 83.4595 66.2491 82.2433 66.5387C80.5637 66.9441 79.4634 66.0174 78.4209 64.6854C76.973 62.7163 76.1043 60.5156 75.1198 58.3727C74.4827 57.0407 73.2086 56.1141 72.0503 56.809C69.5021 58.3148 67.0697 60.1101 64.4056 61.5001C70.5445 61.8476 74.4827 64.9171 76.3939 70.6506C76.7993 71.8668 77.2626 73.0251 77.726 74.1834C78.363 75.3996 79.3475 76.2104 80.7954 76.9054ZM18.653 19.8016C18.4213 17.0796 18.1318 14.4734 16.9735 11.9252C15.7573 9.26113 12.8036 8.56615 10.8345 6.13374C17.2631 6.42331 23.1704 6.30748 29.0777 5.26502C27.5719 4.16464 26.819 2.13762 24.7341 1.96388C18.711 1.50056 12.7457 2.31137 6.72261 2.0218C6.25929 2.0218 5.79598 1.96388 5.68015 2.65886C5.44849 4.3963 7.01216 7.52368 8.69169 8.3924C9.5604 8.85572 10.1396 9.49277 10.6029 10.3036C12.9195 13.7785 15.0623 17.3692 18.653 19.8016ZM14.1357 82.9864C15.3519 82.6969 16.3944 82.2335 17.2631 82.3494C18.4214 82.5231 18.5951 82.2335 18.5951 81.1911C18.5372 78.4112 18.7109 75.6313 18.4793 72.8514C18.3055 70.7085 18.8268 68.5657 18.3055 66.307C16.1048 68.4498 14.0778 70.5348 11.9349 72.446C9.79208 74.3572 9.67623 76.7896 9.84998 79.3378C9.96581 80.554 10.7187 81.6544 11.7612 81.8861C12.6299 82.1177 13.4986 81.1332 14.0198 80.2645C14.2515 79.917 14.4252 79.5695 14.599 79.222C14.7727 78.8745 14.7727 78.3533 15.3519 78.527C15.7573 78.6428 15.8731 79.0483 15.931 79.5116C15.9889 80.9594 15.2361 81.944 14.1357 82.9864ZM35.5641 2.13761C36.4907 2.8905 37.9965 2.60094 37.7649 3.12217C36.8961 5.2071 38.6915 4.39629 39.2706 4.51212C40.371 4.68586 41.4714 4.80169 42.2822 5.67041C42.7455 6.19164 43.3247 6.13372 43.9038 6.19164C48.4791 6.36538 52.9964 6.71288 57.4558 7.75534C57.8612 7.87117 58.2666 8.16074 58.6141 7.46577C59.7724 5.2071 61.4519 3.41174 64.058 2.54302C54.6759 2.60094 45.3517 2.71676 35.5641 2.13761ZM50.1585 94.8589C49.0002 95.4381 48.1895 95.3223 47.4366 95.0327C43.788 93.7006 39.9077 93.9323 36.0853 93.3531C35.4483 93.2373 34.4058 93.2952 34.1741 93.6427C33.0737 95.4381 31.8575 94.2219 30.7571 93.9323C28.3826 93.3531 26.0661 93.3531 23.4599 93.5269C24.097 94.3956 25.0236 94.3377 24.9657 95.3223C22.6491 95.4381 20.5063 94.3377 18.1318 94.4535C15.7573 94.5694 13.5565 94.801 11.4137 96.5384C27.2244 96.5384 42.6297 95.3222 58.035 96.133C49.6953 92.7161 45.9887 91.8474 44.0196 92.8319C45.9308 93.469 47.842 94.0481 50.1585 94.8589ZM36.259 91.3261C29.7726 90.5153 23.2862 91.0945 16.8577 90.8049C12.8036 90.6312 9.15502 93.2373 5.15891 94.0481C4.57976 94.164 4.11646 94.801 4.23229 95.4381C4.2902 96.1331 4.92726 96.191 5.56432 96.191C7.0701 96.3068 8.40213 96.0172 9.79208 95.496C13.5565 94.0481 17.2051 92.1369 21.4329 93.2373C21.7225 93.2952 22.1858 93.0636 22.5333 92.8898C25.0815 91.4999 27.9773 91.6157 30.4097 92.4844C32.9 93.4111 34.3478 91.9632 36.259 91.3261ZM73.4982 38.0447C72.1661 40.9983 70.9499 43.7782 68.5754 45.6894C68.4017 45.8052 68.1121 46.0369 68.4016 46.3265C69.9653 47.6585 69.2704 49.5118 69.502 51.1334C69.56 51.8284 69.0387 52.755 69.8495 53.0446C70.5445 53.2762 71.0657 52.4075 71.5291 51.8863C71.8186 51.5388 72.0503 51.1334 72.282 50.728C74.7723 46.8477 74.8302 42.6778 73.4982 38.0447ZM94.637 96.5964C90.6409 94.1061 86.471 92.4844 81.4324 91.9053C82.7066 93.6427 84.6757 93.3531 85.8919 94.9747C81.3746 93.5848 77.2047 92.4265 72.8032 91.8474C73.0928 92.137 73.4402 92.3107 73.7877 92.4265C76.6835 93.3532 79.695 94.0481 82.3012 95.5539C86.3552 97.8126 90.5251 96.4226 94.637 96.5964ZM18.016 60.5735C18.1897 60.5156 18.3055 60.3997 18.4793 60.3418C18.4793 59.2414 18.4214 58.0831 18.4793 56.9828C18.5951 55.5928 18.2476 54.9558 16.6839 54.7241C13.7303 54.2608 11.3558 51.365 10.8925 48.4693C10.4871 46.1527 11.7033 44.2995 12.5141 42.1566C8.51796 44.589 8.3442 49.338 10.545 52.4075C12.6878 55.477 15.9889 57.3882 18.016 60.5735ZM62.3786 60.1102C68.7492 57.2723 74.1352 52.9867 78.0734 47.5427C82.5329 41.2879 84.6178 33.8748 84.0966 25.9984C83.2278 41.4037 75.6989 52.5233 62.3786 60.1102ZM54.618 52.9287C56.1817 54.8399 57.5137 56.4036 58.8457 58.0252C59.5407 58.8939 60.004 58.4306 60.2936 57.6777C61.2202 55.0716 62.0311 52.5233 62.5523 49.5697C60.004 50.9597 57.8033 52.4654 54.618 52.9287ZM44.2513 75.168C43.73 71.5773 44.5409 67.9865 42.7455 64.9171C42.4559 65.2066 42.3401 65.4383 42.3401 65.67C43.035 69.9556 43.2088 74.2992 43.4405 78.7008C43.5563 80.9015 43.788 83.0443 43.9617 85.2451C44.0196 85.8242 44.0196 86.4613 44.6567 86.4613C45.5254 86.4613 45.12 85.7084 45.12 85.303C45.0042 83.9131 44.8883 82.5231 44.5988 81.1911C44.2513 79.5695 44.425 78.1216 45.12 76.6158C45.9887 74.7626 47.147 73.083 48.1895 71.2877C46.3362 71.8089 45.7571 73.7201 44.2513 75.168ZM91.6834 27.5621C90.1197 30.6316 88.0347 33.5273 87.4556 37.0601C87.2239 38.508 86.4131 39.7821 85.5444 40.9404C84.502 42.2145 83.5174 43.4887 82.4749 44.7628C88.6139 40.6508 91.6254 34.8594 91.6834 27.5621ZM76.7993 30.9791C74.7723 35.7281 75.7568 40.6508 75.7568 45.5157C77.7259 40.8246 78.2471 35.9598 76.7993 30.9791ZM35.5641 55.7086C35.5641 57.6198 35.7958 59.1256 35.5062 60.5156C35.1587 62.3688 35.9116 63.1796 37.5332 63.585C37.9386 63.7009 38.2861 63.8746 38.6915 63.9325C39.2127 64.0483 39.9077 64.8012 40.2552 64.1063C40.5447 63.5271 41.0081 62.6584 40.4289 61.9055C38.8652 59.9364 37.3015 57.9673 35.5641 55.7086ZM15.2361 46.0369C13.4407 49.338 14.4831 51.7704 18.5372 53.7395C18.5372 50.3805 18.5372 47.1373 18.5372 43.7203C16.1627 45.3419 17.3789 47.4268 17.2631 49.338C15.5836 48.9905 15.6994 47.4848 15.2361 46.0369ZM67.0118 53.6237C67.6488 52.6392 67.8804 51.7125 67.7646 50.8438C67.6488 49.9751 67.7646 48.701 66.7801 48.4114C65.6797 48.0639 65.3322 49.2801 64.7531 49.9751C62.9577 52.2917 63.2473 55.2453 62.4365 58.199C64.1739 56.114 65.7376 54.3187 65.9693 51.7704C67.0696 52.1179 66.4905 52.9867 67.0118 53.6237ZM46.9732 83.1602C48.3632 80.3224 48.9423 77.3108 50.7377 74.8205C51.2589 74.1255 50.5061 73.4884 50.0427 72.9672C49.7532 72.6197 49.5215 72.8514 49.2319 73.083C46.6258 75.0521 45.5254 79.6274 46.9732 83.1602ZM41.5872 78.4112C41.761 78.3533 41.8768 78.2374 42.0505 78.1795C42.0505 77.3687 41.9926 76.6158 42.0505 75.805C42.2242 74.0097 41.5872 72.9672 39.7919 72.446C38.4598 72.0406 37.1857 71.3456 35.6799 70.1294C36.0853 74.5309 40.1394 75.5154 41.5872 78.4112ZM65.9693 92.3107C67.533 93.0057 69.0967 93.6427 70.6024 94.4535C71.7028 95.0327 72.7453 96.3068 73.7877 96.2489C75.8727 96.133 78.0155 96.4226 80.1004 96.3068C75.641 94.1061 70.892 93.1215 65.9693 92.3107ZM8.57588 14.068C7.24385 14.1259 6.78052 13.0256 5.85389 12.5622C7.30176 16.153 10.6608 17.1954 14.0778 18.18C11.6454 16.2109 10.0237 13.4889 7.82297 10.8827C7.53339 12.3306 8.57588 12.9677 8.57588 14.068ZM75.9885 74.9942C75.7569 70.1294 71.9345 65.0908 67.7067 63.9904C72.3399 66.1333 72.8611 71.2877 75.9885 74.9942ZM47.9578 91.2682C48.1895 91.3261 48.4211 91.3841 48.5949 91.442C52.8226 92.4844 56.9346 93.8165 60.699 96.0172C61.5098 96.4806 62.3786 96.191 63.5369 95.9593C58.3246 93.5848 53.5755 90.9787 47.9578 91.2682ZM43.1509 87.5038C41.8768 83.1602 39.3285 80.2065 36.4907 76.9633C36.4328 78.8745 36.6065 80.0907 37.9965 81.0752C39.3285 82.0019 40.0815 83.5656 40.9502 85.0135C41.4135 85.8243 41.8188 86.7509 43.1509 87.5038ZM4.57976 78.9903C4.40602 78.9903 4.23226 79.0482 4.05852 79.0482C4.05852 80.4961 4.05852 81.8861 4.05852 83.3339C4.05852 83.6814 4.11644 84.1447 4.46392 84.1447C6.20136 84.3185 7.99674 84.3764 9.73418 84.4343C9.79209 84.2606 9.85 84.0289 9.90791 83.8552C7.30175 83.1023 5.56431 81.4807 4.57976 78.9903ZM37.9965 5.78625C38.0544 5.6125 38.1123 5.43876 38.1123 5.26502C37.4753 4.91753 36.8961 4.4542 36.259 4.16463C34.5216 3.52757 32.7263 3.99088 30.9309 3.87505C30.5255 3.81714 29.9464 3.41175 29.7726 4.10673C29.5989 4.74379 30.2359 4.74378 30.6413 4.91753C33.0158 6.19165 35.5641 5.6125 37.9965 5.78625ZM71.1237 95.9593C68.4017 94.8589 65.7955 93.8165 63.1893 92.774C62.8418 92.6582 62.4365 92.3107 62.1469 92.774C61.9153 93.1794 62.2627 93.469 62.6102 93.7007C65.1584 95.2643 67.5909 97.1755 71.1237 95.9593ZM84.6177 51.2492C87.5135 50.6701 89.193 49.1643 90.5251 47.1952C90.8146 46.7319 91.3359 46.3265 90.8725 45.8632C90.4092 45.3419 89.9459 45.8632 89.5405 46.1527C87.5135 47.2531 86.5868 49.396 84.6177 51.2492ZM61.2203 86.8667C59.1354 85.2451 54.5021 85.0135 51.896 87.6196C55.1971 86.8667 58.2087 86.8667 61.2203 86.8667ZM49.4057 82.5231C49.4636 82.6389 49.5795 82.6968 49.6374 82.8127C51.4906 81.5386 53.3439 80.2065 55.7184 78.5849C54.3285 78.7587 54.3285 76.2104 52.8227 77.832C51.5485 79.222 50.564 80.9594 49.4057 82.5231ZM3.42147 53.8554C2.90024 55.8824 3.59521 57.6777 3.42147 59.531C3.24772 61.0368 3.94271 61.558 5.39058 60.7472C5.04309 59.8206 4.17436 58.894 4.86933 57.9673C5.44848 57.1565 5.101 56.6932 4.6956 56.114C4.2902 55.477 3.9427 54.782 3.42147 53.8554ZM62.2627 7.29203C63.0156 7.87118 63.7685 7.69742 64.4635 7.69742C65.5639 7.69742 66.6063 7.06036 67.7646 7.34993C68.17 7.46576 68.865 7.87118 68.865 7.00246C68.865 6.42331 68.4596 5.84416 67.6488 6.07582C66.8959 6.30748 66.2009 6.01791 65.5059 5.84416C64.116 5.49668 63.0156 5.90208 62.2627 7.29203ZM35.5641 64.6275C37.649 66.4808 39.5023 68.1024 41.4713 69.7819C41.6451 67.1178 39.039 64.8592 35.5641 64.6275ZM3.65314 66.0754C3.82688 68.2182 4.05854 70.2452 4.23229 72.3301C6.43304 70.8823 4.75352 68.6236 5.68015 66.9441C5.91181 66.5387 4.57978 66.3649 3.65314 66.0754ZM53.5755 84.6081C55.6025 84.3764 57.5716 84.4343 59.8882 84.7818C57.977 81.8861 57.3979 81.8861 53.5755 84.6081ZM2.37901 16.5005C3.71105 17.5429 4.75351 16.5005 6.14346 16.5005C5.15891 15.2842 4.05852 14.4734 3.59521 13.1993C3.42146 12.736 3.18982 12.1568 2.49485 12.3306C2.26319 12.3885 1.97362 12.6202 1.9157 12.7939C1.68404 13.4889 2.32108 13.6047 2.72649 13.8943C3.76895 14.8209 3.94271 15.6896 2.37901 16.5005ZM2.84232 26.4039C5.44848 23.3344 5.8539 22.6973 3.36357 22.2919C3.18982 22.929 3.18982 23.8556 2.78442 24.0873C1.27864 25.0139 2.20526 25.651 2.84232 26.4039ZM9.5025 63.4113C8.05464 63.0059 6.7805 63.0638 5.50638 63.0638C5.15889 63.0638 4.63768 63.1796 4.57976 63.585C4.52185 64.1063 4.98518 64.3958 5.39058 64.5696C6.89636 65.0329 8.22838 64.8012 9.5025 63.4113ZM13.4407 44.9365C14.6569 43.5466 16.2206 42.7937 17.8422 42.0408C18.2476 41.8671 18.8268 41.8091 18.653 41.1721C18.4213 40.5929 17.8422 40.8246 17.4368 40.9983C15.5835 41.7512 13.9619 42.7937 13.4407 44.9365ZM40.3131 71.2877C39.2127 69.4923 37.8807 67.9865 35.2745 67.1178C36.8961 69.2607 38.1702 70.7665 40.3131 71.2877ZM37.8228 82.8706C38.2861 85.5347 39.3865 87.2142 41.2397 88.025C40.4869 85.9401 39.2127 84.3185 37.8228 82.8706ZM11.2399 87.9671C8.98127 88.0829 6.66469 87.9092 4.57976 89.1254C6.95426 89.357 9.15502 89.0096 11.2399 87.9671ZM82.7645 13.8943C82.0695 15.8634 82.1274 17.7746 82.7066 19.6858C82.7645 17.7746 83.3436 15.8634 82.7645 13.8943ZM5.39058 18.5854C4.98518 18.6433 4.17434 18.3537 4.34809 19.2224C4.46392 19.9174 4.86932 20.6124 5.79595 20.5545C6.49093 20.5545 7.01216 20.0912 6.95425 19.4541C6.89633 18.6433 6.08556 18.5854 5.39058 18.5854ZM20.2167 23.7398C18.7688 23.3344 18.0159 22.1182 16.626 21.4232C18.1318 24.4348 18.4214 24.6085 20.2167 23.7398ZM14.7727 66.7703C13.209 68.1603 11.4716 69.3765 10.3133 71.2297C11.6454 69.6661 13.7882 68.7394 14.7727 66.7703ZM95.6215 95.0327C95.7373 94.8589 95.7953 94.7431 95.9111 94.5694C94.1157 93.5269 92.3204 92.5423 90.1196 92.3107C91.9729 93.2373 93.8262 94.106 95.6215 95.0327ZM11.0662 86.0559C9.21294 86.3455 7.30174 85.6505 5.04307 86.4613C7.35966 86.9246 9.21294 86.693 11.0662 86.0559ZM90.8725 13.1993C89.0193 14.8209 89.4247 16.6742 88.7876 18.18C89.7143 16.79 90.6409 15.458 90.8725 13.1993ZM88.2664 12.9097C86.1235 14.2418 87.3977 16.2688 86.7606 17.7167C87.7452 16.3846 87.861 14.763 88.2664 12.9097ZM95.5636 92.3107C94.1157 90.8049 93.1891 90.5153 91.6834 90.9207C93.1312 91.442 94.3474 91.8474 95.5636 92.3107ZM8.17047 91.1524C6.89635 91.4999 5.33264 90.3995 4.05852 91.9632C5.73804 92.4844 6.83844 91.3841 8.17047 91.1524ZM45.6412 70.7085C47.147 69.5502 47.0891 69.029 45.2358 68.0444C45.1779 68.9711 45.2938 69.8398 45.6412 70.7085Z" fill="#36372F"/>
<path d="M91.4531 2.31131C90.179 3.4696 88.9049 2.60088 87.8045 2.77462C85.0825 3.12211 82.3026 2.60088 79.5806 2.54297C77.6115 2.48505 75.7004 2.60089 73.7313 2.6588C72.2255 2.71672 70.8355 1.44259 69.2718 2.19548C69.0401 2.3113 68.8085 1.90591 68.8664 1.67425C68.9243 1.26885 69.2719 1.21094 69.6193 1.21094C71.0093 1.21094 72.4571 1.21092 73.8471 1.26884C76.627 1.44258 79.349 1.61634 82.1289 1.73217C84.8509 1.90591 87.6307 2.2534 90.3527 2.02174C90.6423 1.96382 90.9319 2.13757 91.4531 2.31131Z" fill="#36372F"/>
<path d="M90.6967 4.74365C90.465 6.94441 88.6697 8.21854 88.3801 10.1876C88.3222 10.5351 87.801 10.7089 87.3956 10.593C86.7585 10.4193 86.9323 9.95597 87.0481 9.49266C87.5693 7.46565 88.3801 5.67029 90.6967 4.74365Z" fill="#36372F"/>
<path d="M84.3834 4.3966C84.3255 4.802 84.2096 5.26531 83.5147 5.26531C82.4143 5.32323 82.4721 4.3966 82.2984 3.81745C82.0667 3.12247 82.6459 2.94873 83.2251 2.94873C83.978 3.00665 84.3834 3.46996 84.3834 4.3966Z" fill="#36372F"/>
<path d="M29.599 42.1571C29.5411 31.9062 29.5411 21.6554 29.8886 11.4045C29.9465 10.0724 30.2361 9.72495 31.5681 9.78286C35.3326 10.0145 39.097 9.95662 42.8615 10.1883C46.568 10.4199 50.1008 11.6361 53.0544 13.6632C55.6606 15.4585 57.3402 18.3542 58.3826 21.4816C60.178 26.6939 60.2938 31.8483 58.0931 36.9448C56.8189 39.8985 54.6761 42.0992 51.9541 43.4892C46.1047 46.5007 39.9079 48.0065 33.1898 46.9641C29.7728 46.4428 29.7728 46.6166 29.657 43.1417C29.657 42.7942 29.599 42.4467 29.599 42.1571ZM39.5604 30.8638C39.9079 29.7055 39.2129 28.4893 39.3866 27.2731C39.6183 25.5356 38.4021 25.2461 37.2438 25.1302C35.9697 25.0144 35.6221 25.941 35.6801 27.0993C35.738 29.358 35.738 31.6167 35.6222 33.8174C35.5642 34.6282 35.738 34.9757 36.433 35.5549C38.4021 37.2923 40.3132 39.1456 42.0507 41.1726C44.8306 44.3 45.0623 44.4158 48.8267 42.6784C49.0005 42.6204 49.1742 42.5046 49.348 42.3888C50.1588 41.9834 51.4329 41.7517 51.2012 40.6513C51.0275 39.7826 50.2167 39.1456 49.1742 38.7402C47.1472 37.9873 45.6414 36.5394 43.1511 36.4236C40.4291 36.1919 39.4446 33.9333 39.5604 30.8638ZM45.4676 13.8948C45.1202 14.9373 45.6414 15.5164 45.6414 16.2114C45.6414 16.7905 46.3364 17.6592 45.2939 17.833C44.599 17.9488 44.541 17.0801 44.4252 16.501C43.7882 13.6052 42.1086 12.389 39.0391 12.7365C38.46 12.7944 37.8229 12.7944 37.2438 12.8523C35.9118 12.9682 34.9272 13.1998 35.4485 14.9952C35.738 15.9797 35.5642 17.0801 35.3905 18.1226C35.1588 19.5704 35.5642 20.3812 37.1279 20.4971C38.5179 20.555 39.9658 20.8446 41.124 21.5974C43.209 23.0453 44.9464 21.25 46.7997 21.25C46.9155 21.25 47.1472 20.8446 47.1472 20.6129C47.2051 18.4121 47.0313 16.1535 45.4676 13.8948ZM56.8189 27.7364C56.5293 25.304 56.4714 22.0028 54.3865 19.2229C54.039 18.7017 53.7494 17.7172 53.0544 18.0067C51.7224 18.5859 50.7958 19.7442 50.1587 21.0762C49.7533 22.0028 50.6799 22.0029 51.0274 22.3503C53.5178 24.7828 53.6336 26.3464 51.317 29.0105C50.9116 29.4738 50.7379 29.8213 51.2591 30.3426C52.6491 31.7904 52.707 33.5858 52.4174 35.3811C52.1857 36.6553 52.8228 37.6398 53.6916 37.9294C54.7919 38.2769 55.1394 37.0027 55.429 36.1919C56.4715 33.7595 56.761 31.2113 56.8189 27.7364ZM49.0584 36.0761C48.3634 34.2807 48.0738 32.717 46.9155 31.6746C46.6259 31.4429 46.4522 30.9217 45.9889 31.0954C45.4097 31.3271 45.5256 31.8483 45.5835 32.3116C45.6414 33.9333 47.958 36.5394 49.5217 36.8869C49.985 37.0027 50.2746 37.0606 50.3904 36.4815C50.68 34.3387 50.7958 32.2537 49.29 30.4584C49.0004 30.1688 48.7688 29.5897 48.1897 30.053C47.7264 30.4584 48.2475 30.748 48.4213 31.0375C49.2321 32.4854 49.6954 33.9912 49.0584 36.0761ZM35.5643 40.5355C35.043 44.6475 35.5064 45.1108 39.5025 44.937C38.3442 43.3154 37.3017 41.7517 35.5643 40.5355ZM47.6105 13.7211C48.1318 15.2268 48.8846 16.501 48.5371 17.8909C48.4792 18.2384 47.9001 18.528 48.4792 18.8175C49.0005 19.1071 49.5217 19.0492 49.9271 18.528C50.3904 17.8909 50.7958 17.1959 51.2591 16.5589C51.6066 16.0376 51.4907 15.6901 51.0274 15.4585C49.9271 14.9373 49.1163 13.9527 47.6105 13.7211ZM43.7302 31.6746C43.0352 31.6746 42.9773 32.5433 42.4561 32.2537C41.9349 31.9062 41.9928 31.385 42.1665 30.8638C42.4561 30.1109 42.6878 29.4159 43.0932 28.3155C41.4715 29.358 40.7187 30.4005 40.9503 31.9642C41.182 33.5858 42.4561 34.2228 44.0198 34.8599C43.9039 33.6437 43.846 32.717 43.7302 31.6746ZM41.5295 44.1841C40.3133 41.8096 38.5758 39.8985 36.6067 38.1031C36.3172 37.8135 35.8538 37.4081 35.3905 37.8714C35.1588 38.1031 35.1589 38.6243 35.4485 38.7402C37.9388 40.0722 39.2129 42.6784 41.5295 44.1841ZM45.8151 25.304C47.5526 25.4198 49.1742 25.5356 50.9695 25.6515C50.4483 24.1457 49.5796 23.4507 48.3634 23.5086C47.263 23.5086 46.2205 23.914 45.8151 25.304ZM46.9155 28.4314C46.5101 27.6785 46.1047 26.9256 45.0623 26.9835C44.3673 27.0414 44.3093 27.6206 44.3672 28.1418C44.541 29.0105 45.1202 29.5317 45.9889 29.5317C46.5101 29.5317 46.9155 29.0684 46.9155 28.4314ZM35.6222 22.6978C37.1859 23.3928 38.9812 23.1611 40.2553 24.3194C40.3712 24.4353 40.7187 24.2615 40.9503 24.1457C41.0083 24.0878 41.0662 23.7982 40.9503 23.6824C40.4291 22.9874 36.7804 22.2345 35.6222 22.6978ZM50.9116 27.0414C49.9271 26.636 49.0004 26.2885 48.0738 26.8677C48.0159 26.9256 48.1317 27.5047 48.2476 27.5627C49.1742 27.9101 50.1587 28.1997 50.9116 27.0414Z" fill="#36372F"/>
<path d="M7.47852 29.1263C8.40515 29.1842 9.27388 29.2422 10.2005 29.2422C11.1851 29.2422 12.0538 29.3001 11.6484 30.7479C11.4167 31.6167 12.0538 32.0221 12.8646 32.2537C13.5016 32.4275 14.5441 32.4275 14.0808 33.5278C13.6754 34.4545 12.8067 34.5703 11.9379 34.3386C9.85302 33.7595 7.76809 31.2692 7.47852 29.1263Z" fill="#36372F"/>
<path d="M10.3107 27.0984C9.6736 28.1987 8.05198 27.9092 7.47283 29.0675C7.47283 29.0675 7.53074 29.0095 7.53074 29.0675C6.83576 29.0675 6.1408 29.0675 5.15625 29.0675C6.48829 26.1138 8.86279 24.4343 11.3531 22.9285C11.5269 22.8127 11.8744 22.6968 12.0481 22.9864C12.3377 23.3918 11.9902 23.7393 11.7585 24.0289C11.1215 24.9555 9.84735 25.6505 10.3107 27.0984Z" fill="#36372F"/>
<path d="M43.3269 15.6895C44.5431 17.1952 44.0798 18.5852 43.7323 19.9172C43.6165 20.3805 42.8636 20.9018 42.2844 20.4964C41.7632 20.1489 42.2845 19.5697 42.5161 19.3381C43.6165 18.2956 42.7478 17.0215 43.3269 15.6895Z" fill="#36372F"/>
</svg>
