<svg width="96" height="90" viewBox="0 0 96 90" fill="none" xmlns="http://www.w3.org/2000/svg">
<path d="M1.04736 66.1754C1.04736 59.4792 0.936664 52.783 1.10268 46.0869C1.26871 39.2247 1.21339 32.4178 1.26873 25.5556C1.32407 19.4129 1.43477 13.2701 1.49011 7.12732C1.49011 5.41177 1.65607 5.30109 3.37162 5.79916C4.0357 6.02052 5.08722 5.68848 5.36392 6.35256C5.58528 6.90596 5.19789 7.68073 5.14255 8.40016C4.69983 13.3808 4.86582 18.4167 4.6998 23.4527C4.47844 30.6469 4.31243 37.8965 4.36777 45.0907C4.42311 54.4986 3.86968 63.9064 4.20172 73.3696C4.31241 76.524 4.31243 79.7337 3.53767 82.8328C3.03961 84.9357 3.64835 85.7658 5.75128 85.8212C12.7241 86.1532 19.697 86.4299 26.6699 86.0979C29.603 85.9318 32.5913 86.0425 35.5797 86.5406C37.6826 86.928 39.8962 86.6513 42.0545 86.7066C51.6283 86.8173 61.2022 86.5406 70.8314 86.6513C77.0848 86.7066 83.283 86.5406 89.5364 86.7066C90.5879 86.7066 90.7539 86.3746 90.8092 85.4338C90.9199 76.9667 91.0306 68.4443 91.1966 59.9773C91.418 49.7393 91.6947 39.446 91.916 29.2081C92.082 21.2391 92.1374 13.2701 92.3034 5.3011C92.3034 4.41565 92.2481 3.69624 91.0859 4.30498C90.2005 4.7477 89.4811 3.97293 88.651 3.91759C84.7772 3.69623 80.9034 3.75158 77.0295 3.75158C68.7839 3.80692 60.5381 3.69623 52.2924 3.91759C44.5448 4.13895 36.8525 3.41952 29.1048 3.5302C23.1281 3.58554 17.096 3.75157 11.1193 3.86225C10.3998 3.86225 9.84643 3.69623 9.18235 3.36419C7.07942 2.4234 4.86583 1.37193 2.98427 3.8069C2.70757 4.13895 2.54157 3.9176 2.32021 3.75158C1.65613 3.19817 1.76678 2.47875 1.87746 1.81467C1.98814 1.15059 2.48623 0.818544 3.15031 0.707863C5.14256 0.375822 7.13476 0.320471 9.18235 0.265131C15.2698 0.154451 21.3572 -0.0669138 27.4446 0.209787C33.2 0.486489 38.9554 0.154454 44.7108 0.320475C51.1303 0.541836 57.5497 0.431152 63.9692 0.541832C69.7799 0.597173 75.5906 0.763193 81.4014 0.818534C85.1645 0.873874 88.8723 0.763193 92.6355 0.818534C95.2365 0.873874 95.0704 0.7632 94.9597 3.14283C94.8491 7.23801 94.9044 11.3332 94.9597 15.4284C95.0704 22.4566 95.1258 29.4848 95.0151 36.4577C94.9598 40.6635 94.9597 44.8694 94.9044 49.0199C94.8491 54.3326 94.8491 59.7006 94.7384 65.0132C94.6277 70.99 94.4063 76.9667 94.351 82.9435C94.351 84.5483 94.4064 86.0979 94.2404 87.7027C94.0743 89.4736 93.9637 89.6397 92.2481 89.6397C87.3228 89.6397 82.3975 89.6396 77.5276 89.695C70.61 89.7503 63.6372 89.9717 56.7196 89.9717C46.2603 89.9163 35.801 89.9163 25.3971 89.5843C20.4164 89.4183 15.3805 89.2523 10.3999 88.9756C7.85422 88.8095 5.25322 88.8649 2.70756 88.5882C1.21338 88.4222 0.825997 87.7027 0.770656 86.3746C0.715316 81.2833 0.604649 76.1366 0.71533 71.0453C0.77067 69.3851 0.71533 67.6696 0.71533 65.954C0.82601 66.1754 0.936677 66.1754 1.04736 66.1754Z" fill="#36372F"/>
<path d="M63.5261 16.3692C63.9134 15.8711 64.3008 15.9264 64.6882 15.9818C69.5028 16.3138 74.3727 16.0371 79.1873 16.0925C79.63 16.0925 80.4048 15.9264 80.5155 16.5352C80.6262 17.0332 79.9621 17.2546 79.5194 17.3653C77.0291 18.0847 75.2029 19.9109 73.2106 21.4051C71.8271 22.4566 71.2737 24.2828 70.5542 25.777C68.5067 29.9275 66.1824 33.9674 63.9687 38.0072C63.36 39.1694 62.7513 40.3315 62.1426 41.4936C62.0872 41.6043 62.0318 41.7703 61.9765 41.881C59.7076 44.7587 58.4901 48.1898 56.4978 51.2335C54.5056 54.3326 52.6794 57.5977 51.0192 60.8627C49.525 63.8511 47.4773 66.5074 45.7065 69.2744C45.3744 69.7725 45.0978 70.4366 44.3783 70.3259C43.7143 70.2152 43.7142 69.4958 43.4928 68.9977C41.722 64.5152 39.8957 60.0326 38.1802 55.5501C37.9035 54.7753 36.7413 54.0559 37.9035 53.0044C38.1249 52.8384 37.4608 52.7277 37.1841 52.5063C36.8521 52.2296 36.6307 51.953 36.7967 51.5656C36.9074 51.1782 37.2947 51.1782 37.6268 51.2335C39.0103 51.4549 40.3938 51.0675 41.7773 51.2335C42.6074 51.3442 42.8288 51.5102 43.0502 52.1743C43.9356 54.72 44.821 57.2103 45.7065 59.7006C45.8725 60.088 45.9832 60.586 46.4812 60.586C46.9793 60.586 47.09 60.088 47.3113 59.7006C49.4143 55.4947 52.0706 51.6209 54.2842 47.5257C55.1696 45.9209 56.0551 44.316 56.8852 42.7111C57.2173 42.1024 57.4939 41.383 58.158 41.1063C59.0435 40.7189 58.7114 39.8334 58.9328 39.2247C60.0949 35.7936 62.0319 32.8052 63.5814 29.5955C64.9096 26.8838 66.4037 24.1721 67.7319 21.4605C68.6727 19.5236 68.6173 19.4129 66.7358 18.2507C65.6289 17.5866 64.5775 17.0332 63.5261 16.3692Z" fill="#36372F"/>
<path d="M14.7715 15.5386C20.0288 15.8706 25.1201 15.7046 30.156 15.9813C32.6463 16.092 35.192 16.424 37.6823 15.7599C37.959 15.7046 38.4017 15.5939 38.5124 16.0366C38.6784 16.424 38.2911 16.6454 38.0144 16.8114C36.6309 17.5308 35.2474 18.1396 33.9192 18.9697C32.4804 19.9105 31.8716 21.294 32.425 22.8988C34.4726 28.8202 36.5755 34.7416 38.6784 40.663C38.7338 40.8291 38.8998 41.1058 38.8445 41.1611C37.793 42.6 39.2319 42.932 39.7299 43.8174C40.6154 45.3116 41.0581 47.0825 41.6668 48.7981C41.8329 49.2408 41.6668 49.4622 41.1134 49.4068C40.3387 49.3515 39.5639 49.7389 38.8445 49.8495C37.9037 49.9602 36.9629 49.6282 35.9668 49.7388C35.8007 49.7388 35.4134 48.8534 35.2474 48.3C34.3619 45.5883 33.0337 43.098 31.8716 40.497C30.4327 37.1213 29.3259 33.5795 27.9424 30.1484C26.5589 26.6066 24.5114 23.5076 22.021 20.6852C20.5269 19.025 18.4239 18.2503 16.5977 17.0328C16.0996 16.5347 15.4356 16.258 14.7715 15.5386Z" fill="#36372F"/>
</svg>
