<svg width="95" height="90" viewBox="0 0 95 90" fill="none" xmlns="http://www.w3.org/2000/svg">
<rect x="4" y="2" width="90" height="87" fill="white"/>
<path d="M0.379389 66.0992C0.379389 59.403 0.268695 52.7069 0.434716 46.0107C0.600736 39.1485 0.545423 32.3417 0.600763 25.4795C0.656104 19.3367 0.766798 13.1939 0.822138 7.05115C0.822138 5.3356 0.988105 5.22492 2.70365 5.72298C3.36774 5.94435 4.41925 5.6123 4.69596 6.27639C4.91732 6.82979 4.52992 7.60456 4.47458 8.32398C4.03186 13.3046 4.19785 18.3406 4.03183 23.3765C3.81047 30.5708 3.64446 37.8203 3.6998 45.0146C3.75514 54.4224 3.20171 63.8303 3.53376 73.2934C3.64444 76.4478 3.64446 79.6576 2.8697 82.7566C2.37164 84.8595 2.98038 85.6897 5.08331 85.745C12.0562 86.077 19.0291 86.3537 26.002 86.0217C28.935 85.8557 31.9233 85.9663 34.9117 86.4644C37.0146 86.8518 39.2282 86.5751 41.3865 86.6304C50.9604 86.7411 60.5342 86.4644 70.1634 86.5751C76.4169 86.6304 82.615 86.4644 88.8685 86.6304C89.9199 86.6304 90.0859 86.2984 90.1412 85.3576C90.2519 76.8905 90.3626 68.3682 90.5287 59.9011C90.75 49.6631 91.0267 39.3699 91.2481 29.1319C91.4141 21.1629 91.4695 13.1939 91.6355 5.22493C91.6355 4.33948 91.5801 3.62007 90.4179 4.22881C89.5325 4.67153 88.8131 3.89676 87.983 3.84142C84.1092 3.62006 80.2354 3.67541 76.3616 3.67541C68.1159 3.73075 59.8701 3.62006 51.6244 3.84142C43.8768 4.06278 36.1845 3.34335 28.4369 3.45403C22.4601 3.50937 16.428 3.6754 10.4513 3.78608C9.73186 3.78608 9.17846 3.62006 8.51438 3.28802C6.41145 2.34723 4.19787 1.29576 2.3163 3.73073C2.0396 4.06277 1.8736 3.84143 1.65224 3.67541C0.988158 3.122 1.09881 2.40258 1.20949 1.7385C1.32017 1.07441 1.81826 0.742372 2.48235 0.631691C4.47459 0.29965 6.46679 0.244299 8.51438 0.188959C14.6018 0.0782787 20.6892 -0.143086 26.7767 0.133616C32.532 0.410317 38.2875 0.0782821 44.0429 0.244303C50.4623 0.465664 56.8818 0.35498 63.3012 0.46566C69.1119 0.521001 74.9227 0.687022 80.7334 0.742362C84.4965 0.797702 88.2044 0.687022 91.9675 0.742362C94.5685 0.797702 94.4024 0.687028 94.2918 3.06666C94.1811 7.16184 94.2364 11.257 94.2918 15.3522C94.4024 22.3804 94.4578 29.4086 94.3472 36.3815C94.2918 40.5873 94.2918 44.7932 94.2364 48.9437C94.1811 54.2564 94.1811 59.6244 94.0705 64.9371C93.9598 70.9138 93.7384 76.8905 93.683 82.8673C93.683 84.4722 93.7384 86.0217 93.5724 87.6266C93.4064 89.3975 93.2957 89.5635 91.5801 89.5635C86.6549 89.5635 81.7295 89.5635 76.8596 89.6188C69.9421 89.6742 62.9692 89.8955 56.0517 89.8955C45.5924 89.8402 35.1331 89.8402 24.7291 89.5081C19.7485 89.3421 14.7125 89.1761 9.7319 88.8994C7.18625 88.7334 4.58525 88.7887 2.0396 88.512C0.545409 88.346 0.158028 87.6266 0.102688 86.2984C0.0473473 81.2071 -0.0633197 76.0604 0.0473608 70.9691C0.102701 69.3089 0.0473608 67.5934 0.0473608 65.8778C0.158041 66.0992 0.268708 66.0992 0.379389 66.0992Z" fill="#36372F"/>
<path d="M62.8581 16.293C63.2455 15.7949 63.6328 15.8503 64.0202 15.9056C68.8348 16.2376 73.7047 15.961 78.5193 16.0163C78.9621 16.0163 79.7368 15.8503 79.8475 16.459C79.9582 16.9571 79.2942 17.1784 78.8514 17.2891C76.3611 18.0085 74.5349 19.8348 72.5426 21.329C71.1591 22.3804 70.6057 24.2066 69.8863 25.7008C67.8387 29.8514 65.5144 33.8912 63.3008 37.931C62.692 39.0932 62.0833 40.2553 61.4746 41.4175C61.4192 41.5281 61.3639 41.6942 61.3085 41.8049C59.0396 44.6826 57.8221 48.1136 55.8298 51.1574C53.8376 54.2564 52.0114 57.5215 50.3512 60.7866C48.857 63.7749 46.8094 66.4313 45.0385 69.1983C44.7064 69.6963 44.4298 70.3604 43.7104 70.2497C43.0463 70.1391 43.0462 69.4196 42.8249 68.9216C41.054 64.439 39.2278 59.9565 37.5122 55.4739C37.2355 54.6991 36.0734 53.9797 37.2355 52.9283C37.4569 52.7622 36.7928 52.6515 36.5161 52.4302C36.1841 52.1535 35.9627 51.8768 36.1287 51.4894C36.2394 51.102 36.6268 51.102 36.9588 51.1574C38.3423 51.3787 39.7258 50.9913 41.1093 51.1574C41.9394 51.268 42.1608 51.4341 42.3822 52.0981C43.2676 54.6438 44.153 57.1341 45.0385 59.6244C45.2045 60.0118 45.3152 60.5099 45.8133 60.5099C46.3113 60.5099 46.422 60.0118 46.6434 59.6244C48.7463 55.4185 51.4026 51.5447 53.6162 47.4496C54.5017 45.8447 55.3872 44.2398 56.2173 42.635C56.5493 42.0262 56.826 41.3068 57.49 41.0301C58.3755 40.6427 58.0435 39.7573 58.2648 39.1485C59.427 35.7174 61.3639 32.729 62.9134 29.5193C64.2416 26.8076 65.7358 24.096 67.0639 21.3843C68.0047 19.4474 67.9494 19.3367 66.0678 18.1746C64.961 17.5105 63.9096 16.9571 62.8581 16.293Z" fill="#36372F"/>
<path d="M14.1035 15.4624C19.3608 15.7944 24.4521 15.6284 29.4881 15.9051C31.9784 16.0158 34.524 16.3478 37.0143 15.6838C37.291 15.6284 37.7338 15.5177 37.8444 15.9605C38.0105 16.3478 37.6231 16.5692 37.3464 16.7352C35.9629 17.4546 34.5794 18.0634 33.2512 18.8935C31.8124 19.8343 31.2036 21.2178 31.757 22.8226C33.8046 28.7441 35.9075 34.6655 38.0105 40.5869C38.0658 40.7529 38.2319 41.0296 38.1765 41.0849C37.1251 42.5238 38.5639 42.8558 39.062 43.7413C39.9474 45.2355 40.3901 47.0064 40.9989 48.7219C41.1649 49.1646 40.9989 49.386 40.4455 49.3306C39.6707 49.2753 38.8959 49.6627 38.1765 49.7734C37.2357 49.884 36.2949 49.552 35.2988 49.6627C35.1328 49.6627 34.7454 48.7772 34.5794 48.2238C33.694 45.5122 32.3657 43.0219 31.2036 40.4209C29.7648 37.0451 28.658 33.5033 27.2745 30.0722C25.8909 26.5304 23.8434 23.4314 21.3531 20.609C19.8589 18.9488 17.7559 18.1741 15.9297 16.9566C15.4316 16.4585 14.7676 16.1818 14.1035 15.4624Z" fill="#36372F"/>
</svg>
